%TF.GenerationSoftware,KiCad,Pcbnew,6.0.9*%
%TF.CreationDate,2022-12-14T15:45:26-03:00*%
%TF.ProjectId,trekking,7472656b-6b69-46e6-972e-6b696361645f,rev?*%
%TF.SameCoordinates,Original*%
%TF.FileFunction,Soldermask,Top*%
%TF.FilePolarity,Negative*%
%FSLAX46Y46*%
G04 Gerber Fmt 4.6, Leading zero omitted, Abs format (unit mm)*
G04 Created by KiCad (PCBNEW 6.0.9) date 2022-12-14 15:45:26*
%MOMM*%
%LPD*%
G01*
G04 APERTURE LIST*
G04 Aperture macros list*
%AMRoundRect*
0 Rectangle with rounded corners*
0 $1 Rounding radius*
0 $2 $3 $4 $5 $6 $7 $8 $9 X,Y pos of 4 corners*
0 Add a 4 corners polygon primitive as box body*
4,1,4,$2,$3,$4,$5,$6,$7,$8,$9,$2,$3,0*
0 Add four circle primitives for the rounded corners*
1,1,$1+$1,$2,$3*
1,1,$1+$1,$4,$5*
1,1,$1+$1,$6,$7*
1,1,$1+$1,$8,$9*
0 Add four rect primitives between the rounded corners*
20,1,$1+$1,$2,$3,$4,$5,0*
20,1,$1+$1,$4,$5,$6,$7,0*
20,1,$1+$1,$6,$7,$8,$9,0*
20,1,$1+$1,$8,$9,$2,$3,0*%
%AMFreePoly0*
4,1,28,0.087733,0.694480,0.250858,0.653506,0.399499,0.574804,0.525078,0.462918,0.620343,0.324307,0.679794,0.166973,0.700000,0.000000,0.699846,-0.014660,0.676148,-0.181173,0.613415,-0.337228,0.515268,-0.473813,0.387374,-0.583045,0.237117,-0.658617,0.073170,-0.696165,-0.095001,-0.693523,-0.257687,-0.650844,-0.405497,-0.570589,-0.529897,-0.457394,-0.623705,-0.317793,-0.681505,-0.159846,
-0.699962,0.007330,-0.678008,0.174083,-0.616912,0.330786,-0.520201,0.468391,-0.393458,0.578956,-0.244000,0.656097,-0.080456,0.695361,0.087733,0.694480,0.087733,0.694480,$1*%
G04 Aperture macros list end*
%ADD10RoundRect,0.412500X0.837500X0.412500X-0.837500X0.412500X-0.837500X-0.412500X0.837500X-0.412500X0*%
%ADD11RoundRect,0.412500X-0.412500X0.837500X-0.412500X-0.837500X0.412500X-0.837500X0.412500X0.837500X0*%
%ADD12O,2.000000X4.000000*%
%ADD13O,4.000000X2.000000*%
%ADD14RoundRect,0.250000X0.350000X0.450000X-0.350000X0.450000X-0.350000X-0.450000X0.350000X-0.450000X0*%
%ADD15RoundRect,0.250000X0.450000X-0.350000X0.450000X0.350000X-0.450000X0.350000X-0.450000X-0.350000X0*%
%ADD16RoundRect,0.250000X-0.475000X0.337500X-0.475000X-0.337500X0.475000X-0.337500X0.475000X0.337500X0*%
%ADD17C,1.200000*%
%ADD18O,1.700000X1.700000*%
%ADD19O,1.200000X1.200000*%
%ADD20FreePoly0,0.000000*%
%ADD21O,1.740000X2.190000*%
%ADD22C,1.500000*%
%ADD23C,4.400000*%
%ADD24RoundRect,0.250000X-0.350000X-0.450000X0.350000X-0.450000X0.350000X0.450000X-0.350000X0.450000X0*%
%ADD25RoundRect,0.250000X0.475000X-0.337500X0.475000X0.337500X-0.475000X0.337500X-0.475000X-0.337500X0*%
%ADD26RoundRect,0.250000X-0.450000X0.350000X-0.450000X-0.350000X0.450000X-0.350000X0.450000X0.350000X0*%
%ADD27RoundRect,0.250000X0.625000X-0.400000X0.625000X0.400000X-0.625000X0.400000X-0.625000X-0.400000X0*%
%ADD28RoundRect,0.250000X-0.620000X-0.845000X0.620000X-0.845000X0.620000X0.845000X-0.620000X0.845000X0*%
%ADD29RoundRect,0.250000X1.000000X-1.500000X1.000000X1.500000X-1.000000X1.500000X-1.000000X-1.500000X0*%
%ADD30R,2.000000X2.000000*%
%ADD31R,2.500000X2.700000*%
%ADD32C,1.400000*%
%ADD33R,4.600000X1.100000*%
%ADD34R,9.400000X10.800000*%
%ADD35R,1.600000X1.600000*%
%ADD36O,1.600000X1.600000*%
%ADD37RoundRect,0.250000X1.500000X1.000000X-1.500000X1.000000X-1.500000X-1.000000X1.500000X-1.000000X0*%
%ADD38R,1.700000X1.700000*%
%ADD39R,5.400000X2.900000*%
%ADD40RoundRect,0.150000X0.150000X-0.875000X0.150000X0.875000X-0.150000X0.875000X-0.150000X-0.875000X0*%
G04 APERTURE END LIST*
D10*
%TO.C,U1*%
X119041000Y-144743500D03*
X119041000Y-142203500D03*
X119041000Y-139663500D03*
X119041000Y-137123500D03*
X119041000Y-134583500D03*
X119041000Y-132043500D03*
X119041000Y-129503500D03*
X119041000Y-126963500D03*
X119041000Y-124423500D03*
X119041000Y-121883500D03*
X119041000Y-119343500D03*
X119041000Y-116803500D03*
X119041000Y-114263500D03*
X119041000Y-111723500D03*
X119041000Y-109183500D03*
X119041000Y-106643500D03*
X119041000Y-104103500D03*
X119041000Y-101563500D03*
X119041000Y-99023500D03*
X119041000Y-96483500D03*
X97959000Y-96483500D03*
X97959000Y-99023500D03*
X97959000Y-101563500D03*
X97959000Y-104103500D03*
X97959000Y-106643500D03*
X97959000Y-109183500D03*
X97959000Y-111723500D03*
X97959000Y-114263500D03*
X97959000Y-116803500D03*
X97959000Y-119343500D03*
X97959000Y-121883500D03*
X97959000Y-124423500D03*
X97959000Y-126963500D03*
X97959000Y-129503500D03*
X97959000Y-132043500D03*
X97959000Y-134583500D03*
X97959000Y-137123500D03*
X97959000Y-139663500D03*
X97959000Y-142203500D03*
X97959000Y-144743500D03*
D11*
X110659000Y-95086500D03*
X108119000Y-95086500D03*
X105579000Y-95086500D03*
%TD*%
D12*
%TO.C,J8*%
X122500000Y-62000000D03*
X127500000Y-62000000D03*
%TD*%
D13*
%TO.C,J7*%
X133000000Y-74058500D03*
X133000000Y-79058500D03*
%TD*%
%TO.C,J6*%
X133000000Y-84233500D03*
X133000000Y-89233500D03*
%TD*%
D14*
%TO.C,R16*%
X52000000Y-143400000D03*
X50000000Y-143400000D03*
%TD*%
D15*
%TO.C,R6*%
X82000000Y-136500000D03*
X82000000Y-134500000D03*
%TD*%
D16*
%TO.C,C1*%
X100000000Y-71962500D03*
X100000000Y-74037500D03*
%TD*%
D17*
%TO.C,J1*%
X54375000Y-64275000D03*
D18*
X54375000Y-61735000D03*
X56915000Y-64275000D03*
X56915000Y-61735000D03*
X59455000Y-64275000D03*
X59455000Y-61735000D03*
X61995000Y-64275000D03*
X61995000Y-61735000D03*
X64535000Y-64275000D03*
X64535000Y-61735000D03*
X67075000Y-64275000D03*
D19*
X67075000Y-61735000D03*
D18*
X69615000Y-64275000D03*
X69615000Y-61735000D03*
X72155000Y-64275000D03*
X72155000Y-61735000D03*
D19*
X74695000Y-64275000D03*
D18*
X74695000Y-61735000D03*
X77235000Y-64275000D03*
X77235000Y-61735000D03*
X79775000Y-64275000D03*
X79775000Y-61735000D03*
X82315000Y-64275000D03*
X82315000Y-61735000D03*
X84855000Y-64275000D03*
X84855000Y-61735000D03*
X87395000Y-64275000D03*
X87395000Y-61735000D03*
X89935000Y-64275000D03*
X89935000Y-61735000D03*
X92475000Y-64275000D03*
X92475000Y-61735000D03*
X95015000Y-64275000D03*
X95015000Y-61735000D03*
X97555000Y-64275000D03*
X97555000Y-61735000D03*
X100095000Y-64275000D03*
X100095000Y-61735000D03*
X102635000Y-64275000D03*
D19*
X102635000Y-61735000D03*
%TD*%
D20*
%TO.C,J5*%
X128500000Y-106483500D03*
D21*
X131040000Y-106483500D03*
X133580000Y-106483500D03*
X136120000Y-106483500D03*
%TD*%
D22*
%TO.C,VIN*%
X121000000Y-82000000D03*
%TD*%
D23*
%TO.C,REF\u002A\u002A*%
X45000000Y-60000000D03*
%TD*%
D24*
%TO.C,R5*%
X122500000Y-71900000D03*
X124500000Y-71900000D03*
%TD*%
D20*
%TO.C,J2*%
X128500000Y-114483500D03*
D21*
X131040000Y-114483500D03*
X133580000Y-114483500D03*
X136120000Y-114483500D03*
%TD*%
%TO.C,J17*%
X85500000Y-98483500D03*
X88040000Y-98483500D03*
X90580000Y-98483500D03*
X93120000Y-98483500D03*
%TD*%
D14*
%TO.C,R15*%
X52000000Y-138200000D03*
X50000000Y-138200000D03*
%TD*%
D25*
%TO.C,C3*%
X115000000Y-62037500D03*
X115000000Y-59962500D03*
%TD*%
D26*
%TO.C,R1*%
X123500000Y-82250000D03*
X123500000Y-84250000D03*
%TD*%
D27*
%TO.C,R3*%
X118000000Y-80550000D03*
X118000000Y-77450000D03*
%TD*%
D28*
%TO.C,J10*%
X128500000Y-134503500D03*
D21*
X131040000Y-134503500D03*
X133580000Y-134503500D03*
X136120000Y-134503500D03*
%TD*%
D28*
%TO.C,J23*%
X85500000Y-151000000D03*
D21*
X88040000Y-151000000D03*
X90580000Y-151000000D03*
X93120000Y-151000000D03*
%TD*%
D24*
%TO.C,R13*%
X50000000Y-126000000D03*
X52000000Y-126000000D03*
%TD*%
D13*
%TO.C,J22*%
X45000000Y-116000000D03*
X45000000Y-121000000D03*
X45000000Y-126000000D03*
%TD*%
D28*
%TO.C,J15*%
X85500000Y-106483500D03*
D21*
X88040000Y-106483500D03*
X90580000Y-106483500D03*
X93120000Y-106483500D03*
%TD*%
D24*
%TO.C,R10*%
X50000000Y-141000000D03*
X52000000Y-141000000D03*
%TD*%
D29*
%TO.C,C5*%
X67000000Y-85250000D03*
X67000000Y-78750000D03*
%TD*%
D28*
%TO.C,J12*%
X85500000Y-138483500D03*
D21*
X88040000Y-138483500D03*
X90580000Y-138483500D03*
X93120000Y-138483500D03*
%TD*%
D14*
%TO.C,R17*%
X52000000Y-118500000D03*
X50000000Y-118500000D03*
%TD*%
D30*
%TO.C,D1*%
X70310000Y-73500000D03*
D31*
X70400000Y-73500000D03*
X62600000Y-73500000D03*
D30*
X62690000Y-73500000D03*
%TD*%
D23*
%TO.C,*%
X83000000Y-70500000D03*
%TD*%
D32*
%TO.C,J3*%
X128500000Y-122483500D03*
D21*
X131040000Y-122483500D03*
X133580000Y-122483500D03*
X136120000Y-122483500D03*
%TD*%
D33*
%TO.C,U2*%
X90225000Y-86400000D03*
X90225000Y-84700000D03*
X90225000Y-83000000D03*
D34*
X99375000Y-83000000D03*
D33*
X90225000Y-81300000D03*
X90225000Y-79600000D03*
%TD*%
D13*
%TO.C,J20*%
X45000000Y-101000000D03*
X45000000Y-106000000D03*
X45000000Y-111000000D03*
%TD*%
D22*
%TO.C,VCC*%
X121000000Y-76500000D03*
%TD*%
D24*
%TO.C,R12*%
X50000000Y-121000000D03*
X52000000Y-121000000D03*
%TD*%
%TO.C,R2*%
X122500000Y-87000000D03*
X124500000Y-87000000D03*
%TD*%
D23*
%TO.C,REF\u002A\u002A*%
X45000000Y-150000000D03*
%TD*%
%TO.C,REF\u002A\u002A*%
X135000000Y-150000000D03*
%TD*%
D35*
%TO.C,A1*%
X63580000Y-106060000D03*
D36*
X63580000Y-108600000D03*
X63580000Y-111140000D03*
X63580000Y-113680000D03*
X63580000Y-116220000D03*
X63580000Y-118760000D03*
X63580000Y-121300000D03*
X63580000Y-123840000D03*
X63580000Y-126380000D03*
X63580000Y-128920000D03*
X63580000Y-131460000D03*
X63580000Y-134000000D03*
X63580000Y-136540000D03*
X63580000Y-139080000D03*
X63580000Y-141620000D03*
X78820000Y-141620000D03*
X78820000Y-139080000D03*
X78820000Y-136540000D03*
X78820000Y-134000000D03*
X78820000Y-131460000D03*
X78820000Y-128920000D03*
X78820000Y-126380000D03*
X78820000Y-123840000D03*
X78820000Y-121300000D03*
X78820000Y-118760000D03*
X78820000Y-116220000D03*
X78820000Y-113680000D03*
X78820000Y-111140000D03*
X78820000Y-108600000D03*
X78820000Y-106060000D03*
%TD*%
D28*
%TO.C,J16*%
X85500000Y-122483500D03*
D21*
X88040000Y-122483500D03*
X90580000Y-122483500D03*
X93120000Y-122483500D03*
%TD*%
D37*
%TO.C,C4*%
X95250000Y-72000000D03*
X88750000Y-72000000D03*
%TD*%
D38*
%TO.C,J18*%
X101000000Y-93000000D03*
D18*
X98460000Y-93000000D03*
X95920000Y-93000000D03*
X93380000Y-93000000D03*
X90840000Y-93000000D03*
X88300000Y-93000000D03*
X85760000Y-93000000D03*
X83220000Y-93000000D03*
X80680000Y-93000000D03*
X78140000Y-93000000D03*
X75600000Y-93000000D03*
X73060000Y-93000000D03*
%TD*%
D25*
%TO.C,C2*%
X118000000Y-62037500D03*
X118000000Y-59962500D03*
%TD*%
D20*
%TO.C,J4*%
X128500000Y-98483500D03*
D21*
X131040000Y-98483500D03*
X133580000Y-98483500D03*
X136120000Y-98483500D03*
%TD*%
D28*
%TO.C,J13*%
X85500000Y-114483500D03*
D21*
X88040000Y-114483500D03*
X90580000Y-114483500D03*
X93120000Y-114483500D03*
%TD*%
D39*
%TO.C,L1*%
X79600000Y-76050000D03*
X79600000Y-85950000D03*
%TD*%
D25*
%TO.C,C6*%
X60500000Y-85000000D03*
X60500000Y-82925000D03*
%TD*%
D14*
%TO.C,R14*%
X52000000Y-133500000D03*
X50000000Y-133500000D03*
%TD*%
D23*
%TO.C,REF\u002A\u002A*%
X135000000Y-60000000D03*
%TD*%
D24*
%TO.C,R11*%
X50000000Y-116000000D03*
X52000000Y-116000000D03*
%TD*%
D28*
%TO.C,J9*%
X128500000Y-142483500D03*
D21*
X131040000Y-142483500D03*
X133580000Y-142483500D03*
X136120000Y-142483500D03*
%TD*%
D13*
%TO.C,J19*%
X45000000Y-86000000D03*
X45000000Y-91000000D03*
X45000000Y-96000000D03*
%TD*%
D24*
%TO.C,R9*%
X50000000Y-136000000D03*
X52000000Y-136000000D03*
%TD*%
D13*
%TO.C,J11*%
X45000000Y-71000000D03*
X45000000Y-76000000D03*
X45000000Y-81000000D03*
%TD*%
D14*
%TO.C,R19*%
X52000000Y-128000000D03*
X50000000Y-128000000D03*
%TD*%
D13*
%TO.C,J21*%
X45000000Y-131000000D03*
X45000000Y-136000000D03*
X45000000Y-141000000D03*
%TD*%
D14*
%TO.C,R4*%
X124500000Y-74000000D03*
X122500000Y-74000000D03*
%TD*%
D40*
%TO.C,U3*%
X66110000Y-112760000D03*
X67380000Y-112760000D03*
X68650000Y-112760000D03*
X69920000Y-112760000D03*
X71190000Y-112760000D03*
X72460000Y-112760000D03*
X73730000Y-112760000D03*
X75000000Y-112760000D03*
X76270000Y-112760000D03*
X76270000Y-103460000D03*
X75000000Y-103460000D03*
X73730000Y-103460000D03*
X72460000Y-103460000D03*
X71190000Y-103460000D03*
X69920000Y-103460000D03*
X68650000Y-103460000D03*
X67380000Y-103460000D03*
X66110000Y-103460000D03*
%TD*%
D24*
%TO.C,R8*%
X50000000Y-131000000D03*
X52000000Y-131000000D03*
%TD*%
D14*
%TO.C,R18*%
X52000000Y-123500000D03*
X50000000Y-123500000D03*
%TD*%
D28*
%TO.C,J14*%
X85500000Y-130483500D03*
D21*
X88040000Y-130483500D03*
X90580000Y-130483500D03*
X93120000Y-130483500D03*
%TD*%
D15*
%TO.C,R7*%
X82000000Y-129000000D03*
X82000000Y-127000000D03*
%TD*%
M02*
