%TF.GenerationSoftware,KiCad,Pcbnew,6.0.10*%
%TF.CreationDate,2023-01-17T11:13:45-03:00*%
%TF.ProjectId,trekking,7472656b-6b69-46e6-972e-6b696361645f,rev?*%
%TF.SameCoordinates,Original*%
%TF.FileFunction,Paste,Top*%
%TF.FilePolarity,Positive*%
%FSLAX46Y46*%
G04 Gerber Fmt 4.6, Leading zero omitted, Abs format (unit mm)*
G04 Created by KiCad (PCBNEW 6.0.10) date 2023-01-17 11:13:45*
%MOMM*%
%LPD*%
G01*
G04 APERTURE LIST*
G04 Aperture macros list*
%AMRoundRect*
0 Rectangle with rounded corners*
0 $1 Rounding radius*
0 $2 $3 $4 $5 $6 $7 $8 $9 X,Y pos of 4 corners*
0 Add a 4 corners polygon primitive as box body*
4,1,4,$2,$3,$4,$5,$6,$7,$8,$9,$2,$3,0*
0 Add four circle primitives for the rounded corners*
1,1,$1+$1,$2,$3*
1,1,$1+$1,$4,$5*
1,1,$1+$1,$6,$7*
1,1,$1+$1,$8,$9*
0 Add four rect primitives between the rounded corners*
20,1,$1+$1,$2,$3,$4,$5,0*
20,1,$1+$1,$4,$5,$6,$7,0*
20,1,$1+$1,$6,$7,$8,$9,0*
20,1,$1+$1,$8,$9,$2,$3,0*%
G04 Aperture macros list end*
%ADD10RoundRect,0.250000X0.350000X0.450000X-0.350000X0.450000X-0.350000X-0.450000X0.350000X-0.450000X0*%
%ADD11RoundRect,0.250000X0.450000X-0.350000X0.450000X0.350000X-0.450000X0.350000X-0.450000X-0.350000X0*%
%ADD12RoundRect,0.250000X-0.475000X0.337500X-0.475000X-0.337500X0.475000X-0.337500X0.475000X0.337500X0*%
%ADD13RoundRect,0.412500X0.837500X0.412500X-0.837500X0.412500X-0.837500X-0.412500X0.837500X-0.412500X0*%
%ADD14RoundRect,0.412500X-0.412500X0.837500X-0.412500X-0.837500X0.412500X-0.837500X0.412500X0.837500X0*%
%ADD15RoundRect,0.250000X-0.350000X-0.450000X0.350000X-0.450000X0.350000X0.450000X-0.350000X0.450000X0*%
%ADD16RoundRect,0.250000X0.475000X-0.337500X0.475000X0.337500X-0.475000X0.337500X-0.475000X-0.337500X0*%
%ADD17RoundRect,0.250000X-0.450000X0.350000X-0.450000X-0.350000X0.450000X-0.350000X0.450000X0.350000X0*%
%ADD18RoundRect,0.250000X0.625000X-0.400000X0.625000X0.400000X-0.625000X0.400000X-0.625000X-0.400000X0*%
%ADD19RoundRect,0.250000X1.000000X-1.500000X1.000000X1.500000X-1.000000X1.500000X-1.000000X-1.500000X0*%
%ADD20R,2.500000X2.700000*%
%ADD21R,4.550000X5.250000*%
%ADD22R,4.600000X1.100000*%
%ADD23RoundRect,0.250000X1.500000X1.000000X-1.500000X1.000000X-1.500000X-1.000000X1.500000X-1.000000X0*%
%ADD24R,5.400000X2.900000*%
%ADD25RoundRect,0.150000X0.150000X-0.875000X0.150000X0.875000X-0.150000X0.875000X-0.150000X-0.875000X0*%
G04 APERTURE END LIST*
D10*
%TO.C,R16*%
X52000000Y-143400000D03*
X50000000Y-143400000D03*
%TD*%
D11*
%TO.C,R6*%
X82000000Y-132000000D03*
X82000000Y-130000000D03*
%TD*%
D12*
%TO.C,C1*%
X100000000Y-71962500D03*
X100000000Y-74037500D03*
%TD*%
D13*
%TO.C,U1*%
X119041000Y-144743500D03*
X119041000Y-142203500D03*
X119041000Y-139663500D03*
X119041000Y-137123500D03*
X119041000Y-134583500D03*
X119041000Y-132043500D03*
X119041000Y-129503500D03*
X119041000Y-126963500D03*
X119041000Y-124423500D03*
X119041000Y-121883500D03*
X119041000Y-119343500D03*
X119041000Y-116803500D03*
X119041000Y-114263500D03*
X119041000Y-111723500D03*
X119041000Y-109183500D03*
X119041000Y-106643500D03*
X119041000Y-104103500D03*
X119041000Y-101563500D03*
X119041000Y-99023500D03*
X119041000Y-96483500D03*
X97959000Y-96483500D03*
X97959000Y-99023500D03*
X97959000Y-101563500D03*
X97959000Y-104103500D03*
X97959000Y-106643500D03*
X97959000Y-109183500D03*
X97959000Y-111723500D03*
X97959000Y-114263500D03*
X97959000Y-116803500D03*
X97959000Y-119343500D03*
X97959000Y-121883500D03*
X97959000Y-124423500D03*
X97959000Y-126963500D03*
X97959000Y-129503500D03*
X97959000Y-132043500D03*
X97959000Y-134583500D03*
X97959000Y-137123500D03*
X97959000Y-139663500D03*
X97959000Y-142203500D03*
X97959000Y-144743500D03*
D14*
X110659000Y-95086500D03*
X108119000Y-95086500D03*
X105579000Y-95086500D03*
%TD*%
D15*
%TO.C,R5*%
X122500000Y-71900000D03*
X124500000Y-71900000D03*
%TD*%
D10*
%TO.C,R15*%
X52000000Y-138200000D03*
X50000000Y-138200000D03*
%TD*%
D16*
%TO.C,C3*%
X115000000Y-62037500D03*
X115000000Y-59962500D03*
%TD*%
D17*
%TO.C,R1*%
X123500000Y-82250000D03*
X123500000Y-84250000D03*
%TD*%
D18*
%TO.C,R3*%
X118000000Y-80550000D03*
X118000000Y-77450000D03*
%TD*%
D15*
%TO.C,R13*%
X50000000Y-126000000D03*
X52000000Y-126000000D03*
%TD*%
%TO.C,R10*%
X50000000Y-141000000D03*
X52000000Y-141000000D03*
%TD*%
D19*
%TO.C,C5*%
X67000000Y-85250000D03*
X67000000Y-78750000D03*
%TD*%
D10*
%TO.C,R17*%
X52000000Y-118500000D03*
X50000000Y-118500000D03*
%TD*%
D20*
%TO.C,D1*%
X70400000Y-73500000D03*
X62600000Y-73500000D03*
%TD*%
D21*
%TO.C,U2*%
X96950000Y-80225000D03*
X96950000Y-85775000D03*
X101800000Y-85775000D03*
X101800000Y-80225000D03*
D22*
X90225000Y-79600000D03*
X90225000Y-81300000D03*
X90225000Y-83000000D03*
X90225000Y-84700000D03*
X90225000Y-86400000D03*
%TD*%
D15*
%TO.C,R12*%
X50000000Y-121000000D03*
X52000000Y-121000000D03*
%TD*%
%TO.C,R2*%
X122500000Y-87000000D03*
X124500000Y-87000000D03*
%TD*%
D23*
%TO.C,C4*%
X95250000Y-72000000D03*
X88750000Y-72000000D03*
%TD*%
D16*
%TO.C,C2*%
X118000000Y-62037500D03*
X118000000Y-59962500D03*
%TD*%
D24*
%TO.C,L1*%
X79600000Y-76050000D03*
X79600000Y-85950000D03*
%TD*%
D16*
%TO.C,C6*%
X60500000Y-85000000D03*
X60500000Y-82925000D03*
%TD*%
D10*
%TO.C,R14*%
X52000000Y-133500000D03*
X50000000Y-133500000D03*
%TD*%
D15*
%TO.C,R11*%
X50000000Y-116000000D03*
X52000000Y-116000000D03*
%TD*%
%TO.C,R9*%
X50000000Y-136000000D03*
X52000000Y-136000000D03*
%TD*%
D10*
%TO.C,R19*%
X52000000Y-128000000D03*
X50000000Y-128000000D03*
%TD*%
%TO.C,R4*%
X124500000Y-74000000D03*
X122500000Y-74000000D03*
%TD*%
D25*
%TO.C,U3*%
X66110000Y-112760000D03*
X67380000Y-112760000D03*
X68650000Y-112760000D03*
X69920000Y-112760000D03*
X71190000Y-112760000D03*
X72460000Y-112760000D03*
X73730000Y-112760000D03*
X75000000Y-112760000D03*
X76270000Y-112760000D03*
X76270000Y-103460000D03*
X75000000Y-103460000D03*
X73730000Y-103460000D03*
X72460000Y-103460000D03*
X71190000Y-103460000D03*
X69920000Y-103460000D03*
X68650000Y-103460000D03*
X67380000Y-103460000D03*
X66110000Y-103460000D03*
%TD*%
D15*
%TO.C,R8*%
X50000000Y-131000000D03*
X52000000Y-131000000D03*
%TD*%
D10*
%TO.C,R18*%
X52000000Y-123500000D03*
X50000000Y-123500000D03*
%TD*%
D11*
%TO.C,R7*%
X82000000Y-127750000D03*
X82000000Y-125750000D03*
%TD*%
M02*
