%TF.GenerationSoftware,KiCad,Pcbnew,6.0.9*%
%TF.CreationDate,2022-12-10T00:29:23-03:00*%
%TF.ProjectId,trekking,7472656b-6b69-46e6-972e-6b696361645f,rev?*%
%TF.SameCoordinates,Original*%
%TF.FileFunction,Legend,Top*%
%TF.FilePolarity,Positive*%
%FSLAX46Y46*%
G04 Gerber Fmt 4.6, Leading zero omitted, Abs format (unit mm)*
G04 Created by KiCad (PCBNEW 6.0.9) date 2022-12-10 00:29:23*
%MOMM*%
%LPD*%
G01*
G04 APERTURE LIST*
%ADD10C,0.150000*%
%ADD11C,0.120000*%
%ADD12C,0.075000*%
G04 APERTURE END LIST*
D10*
X100611904Y-69907142D02*
X100230952Y-70173809D01*
X100611904Y-70364285D02*
X99811904Y-70364285D01*
X99811904Y-70059523D01*
X99850000Y-69983333D01*
X99888095Y-69945238D01*
X99964285Y-69907142D01*
X100078571Y-69907142D01*
X100154761Y-69945238D01*
X100192857Y-69983333D01*
X100230952Y-70059523D01*
X100230952Y-70364285D01*
X99811904Y-69564285D02*
X100459523Y-69564285D01*
X100535714Y-69526190D01*
X100573809Y-69488095D01*
X100611904Y-69411904D01*
X100611904Y-69259523D01*
X100573809Y-69183333D01*
X100535714Y-69145238D01*
X100459523Y-69107142D01*
X99811904Y-69107142D01*
X100611904Y-68726190D02*
X99811904Y-68726190D01*
X100611904Y-68269047D01*
X99811904Y-68269047D01*
X99888095Y-67316666D02*
X99850000Y-67278571D01*
X99811904Y-67202380D01*
X99811904Y-67011904D01*
X99850000Y-66935714D01*
X99888095Y-66897619D01*
X99964285Y-66859523D01*
X100040476Y-66859523D01*
X100154761Y-66897619D01*
X100611904Y-67354761D01*
X100611904Y-66859523D01*
X99811904Y-66135714D02*
X99811904Y-66516666D01*
X100192857Y-66554761D01*
X100154761Y-66516666D01*
X100116666Y-66440476D01*
X100116666Y-66250000D01*
X100154761Y-66173809D01*
X100192857Y-66135714D01*
X100269047Y-66097619D01*
X100459523Y-66097619D01*
X100535714Y-66135714D01*
X100573809Y-66173809D01*
X100611904Y-66250000D01*
X100611904Y-66440476D01*
X100573809Y-66516666D01*
X100535714Y-66554761D01*
X97047619Y-70345238D02*
X97000000Y-70297619D01*
X96952380Y-70202380D01*
X96952380Y-69964285D01*
X97000000Y-69869047D01*
X97047619Y-69821428D01*
X97142857Y-69773809D01*
X97238095Y-69773809D01*
X97380952Y-69821428D01*
X97952380Y-70392857D01*
X97952380Y-69773809D01*
X97047619Y-69392857D02*
X97000000Y-69345238D01*
X96952380Y-69250000D01*
X96952380Y-69011904D01*
X97000000Y-68916666D01*
X97047619Y-68869047D01*
X97142857Y-68821428D01*
X97238095Y-68821428D01*
X97380952Y-68869047D01*
X97952380Y-69440476D01*
X97952380Y-68821428D01*
X97047619Y-67678571D02*
X97000000Y-67630952D01*
X96952380Y-67535714D01*
X96952380Y-67297619D01*
X97000000Y-67202380D01*
X97047619Y-67154761D01*
X97142857Y-67107142D01*
X97238095Y-67107142D01*
X97380952Y-67154761D01*
X97952380Y-67726190D01*
X97952380Y-67107142D01*
X97285714Y-66250000D02*
X97952380Y-66250000D01*
X96904761Y-66488095D02*
X97619047Y-66726190D01*
X97619047Y-66107142D01*
X81464285Y-67154761D02*
X81607142Y-67202380D01*
X81845238Y-67202380D01*
X81940476Y-67154761D01*
X81988095Y-67107142D01*
X82035714Y-67011904D01*
X82035714Y-66916666D01*
X81988095Y-66821428D01*
X81940476Y-66773809D01*
X81845238Y-66726190D01*
X81654761Y-66678571D01*
X81559523Y-66630952D01*
X81511904Y-66583333D01*
X81464285Y-66488095D01*
X81464285Y-66392857D01*
X81511904Y-66297619D01*
X81559523Y-66250000D01*
X81654761Y-66202380D01*
X81892857Y-66202380D01*
X82035714Y-66250000D01*
X83035714Y-67107142D02*
X82988095Y-67154761D01*
X82845238Y-67202380D01*
X82750000Y-67202380D01*
X82607142Y-67154761D01*
X82511904Y-67059523D01*
X82464285Y-66964285D01*
X82416666Y-66773809D01*
X82416666Y-66630952D01*
X82464285Y-66440476D01*
X82511904Y-66345238D01*
X82607142Y-66250000D01*
X82750000Y-66202380D01*
X82845238Y-66202380D01*
X82988095Y-66250000D01*
X83035714Y-66297619D01*
X83464285Y-67202380D02*
X83464285Y-66202380D01*
X84035714Y-67202380D02*
X83607142Y-66630952D01*
X84035714Y-66202380D02*
X83464285Y-66773809D01*
X79952380Y-69321428D02*
X78952380Y-69321428D01*
X79666666Y-68988095D01*
X78952380Y-68654761D01*
X79952380Y-68654761D01*
X79952380Y-68178571D02*
X78952380Y-68178571D01*
X79904761Y-67750000D02*
X79952380Y-67607142D01*
X79952380Y-67369047D01*
X79904761Y-67273809D01*
X79857142Y-67226190D01*
X79761904Y-67178571D01*
X79666666Y-67178571D01*
X79571428Y-67226190D01*
X79523809Y-67273809D01*
X79476190Y-67369047D01*
X79428571Y-67559523D01*
X79380952Y-67654761D01*
X79333333Y-67702380D01*
X79238095Y-67750000D01*
X79142857Y-67750000D01*
X79047619Y-67702380D01*
X79000000Y-67654761D01*
X78952380Y-67559523D01*
X78952380Y-67321428D01*
X79000000Y-67178571D01*
X78952380Y-66559523D02*
X78952380Y-66369047D01*
X79000000Y-66273809D01*
X79095238Y-66178571D01*
X79285714Y-66130952D01*
X79619047Y-66130952D01*
X79809523Y-66178571D01*
X79904761Y-66273809D01*
X79952380Y-66369047D01*
X79952380Y-66559523D01*
X79904761Y-66654761D01*
X79809523Y-66750000D01*
X79619047Y-66797619D01*
X79285714Y-66797619D01*
X79095238Y-66750000D01*
X79000000Y-66654761D01*
X78952380Y-66559523D01*
X77452380Y-69321428D02*
X76452380Y-69321428D01*
X77166666Y-68988095D01*
X76452380Y-68654761D01*
X77452380Y-68654761D01*
X76452380Y-67988095D02*
X76452380Y-67797619D01*
X76500000Y-67702380D01*
X76595238Y-67607142D01*
X76785714Y-67559523D01*
X77119047Y-67559523D01*
X77309523Y-67607142D01*
X77404761Y-67702380D01*
X77452380Y-67797619D01*
X77452380Y-67988095D01*
X77404761Y-68083333D01*
X77309523Y-68178571D01*
X77119047Y-68226190D01*
X76785714Y-68226190D01*
X76595238Y-68178571D01*
X76500000Y-68083333D01*
X76452380Y-67988095D01*
X77404761Y-67178571D02*
X77452380Y-67035714D01*
X77452380Y-66797619D01*
X77404761Y-66702380D01*
X77357142Y-66654761D01*
X77261904Y-66607142D01*
X77166666Y-66607142D01*
X77071428Y-66654761D01*
X77023809Y-66702380D01*
X76976190Y-66797619D01*
X76928571Y-66988095D01*
X76880952Y-67083333D01*
X76833333Y-67130952D01*
X76738095Y-67178571D01*
X76642857Y-67178571D01*
X76547619Y-67130952D01*
X76500000Y-67083333D01*
X76452380Y-66988095D01*
X76452380Y-66750000D01*
X76500000Y-66607142D01*
X77452380Y-66178571D02*
X76452380Y-66178571D01*
X55559523Y-58702380D02*
X55083333Y-58702380D01*
X55035714Y-59178571D01*
X55083333Y-59130952D01*
X55178571Y-59083333D01*
X55416666Y-59083333D01*
X55511904Y-59130952D01*
X55559523Y-59178571D01*
X55607142Y-59273809D01*
X55607142Y-59511904D01*
X55559523Y-59607142D01*
X55511904Y-59654761D01*
X55416666Y-59702380D01*
X55178571Y-59702380D01*
X55083333Y-59654761D01*
X55035714Y-59607142D01*
X55892857Y-58702380D02*
X56226190Y-59702380D01*
X56559523Y-58702380D01*
X85202380Y-59297619D02*
X85202380Y-59869047D01*
X85202380Y-59583333D02*
X84202380Y-59583333D01*
X84345238Y-59678571D01*
X84440476Y-59773809D01*
X84488095Y-59869047D01*
X85202380Y-58345238D02*
X85202380Y-58916666D01*
X85202380Y-58630952D02*
X84202380Y-58630952D01*
X84345238Y-58726190D01*
X84440476Y-58821428D01*
X84488095Y-58916666D01*
X85202380Y-57345238D02*
X84726190Y-57678571D01*
X85202380Y-57916666D02*
X84202380Y-57916666D01*
X84202380Y-57535714D01*
X84250000Y-57440476D01*
X84297619Y-57392857D01*
X84392857Y-57345238D01*
X84535714Y-57345238D01*
X84630952Y-57392857D01*
X84678571Y-57440476D01*
X84726190Y-57535714D01*
X84726190Y-57916666D01*
X85154761Y-56964285D02*
X85202380Y-56821428D01*
X85202380Y-56583333D01*
X85154761Y-56488095D01*
X85107142Y-56440476D01*
X85011904Y-56392857D01*
X84916666Y-56392857D01*
X84821428Y-56440476D01*
X84773809Y-56488095D01*
X84726190Y-56583333D01*
X84678571Y-56773809D01*
X84630952Y-56869047D01*
X84583333Y-56916666D01*
X84488095Y-56964285D01*
X84392857Y-56964285D01*
X84297619Y-56916666D01*
X84250000Y-56869047D01*
X84202380Y-56773809D01*
X84202380Y-56535714D01*
X84250000Y-56392857D01*
X84202380Y-56107142D02*
X84202380Y-55535714D01*
X85202380Y-55821428D02*
X84202380Y-55821428D01*
X82654761Y-59285714D02*
X82702380Y-59142857D01*
X82702380Y-58904761D01*
X82654761Y-58809523D01*
X82607142Y-58761904D01*
X82511904Y-58714285D01*
X82416666Y-58714285D01*
X82321428Y-58761904D01*
X82273809Y-58809523D01*
X82226190Y-58904761D01*
X82178571Y-59095238D01*
X82130952Y-59190476D01*
X82083333Y-59238095D01*
X81988095Y-59285714D01*
X81892857Y-59285714D01*
X81797619Y-59238095D01*
X81750000Y-59190476D01*
X81702380Y-59095238D01*
X81702380Y-58857142D01*
X81750000Y-58714285D01*
X82607142Y-57714285D02*
X82654761Y-57761904D01*
X82702380Y-57904761D01*
X82702380Y-58000000D01*
X82654761Y-58142857D01*
X82559523Y-58238095D01*
X82464285Y-58285714D01*
X82273809Y-58333333D01*
X82130952Y-58333333D01*
X81940476Y-58285714D01*
X81845238Y-58238095D01*
X81750000Y-58142857D01*
X81702380Y-58000000D01*
X81702380Y-57904761D01*
X81750000Y-57761904D01*
X81797619Y-57714285D01*
X80154761Y-60011904D02*
X80202380Y-59869047D01*
X80202380Y-59630952D01*
X80154761Y-59535714D01*
X80107142Y-59488095D01*
X80011904Y-59440476D01*
X79916666Y-59440476D01*
X79821428Y-59488095D01*
X79773809Y-59535714D01*
X79726190Y-59630952D01*
X79678571Y-59821428D01*
X79630952Y-59916666D01*
X79583333Y-59964285D01*
X79488095Y-60011904D01*
X79392857Y-60011904D01*
X79297619Y-59964285D01*
X79250000Y-59916666D01*
X79202380Y-59821428D01*
X79202380Y-59583333D01*
X79250000Y-59440476D01*
X79202380Y-59107142D02*
X80202380Y-58869047D01*
X79488095Y-58678571D01*
X80202380Y-58488095D01*
X79202380Y-58250000D01*
X80202380Y-57869047D02*
X79202380Y-57869047D01*
X79202380Y-57630952D01*
X79250000Y-57488095D01*
X79345238Y-57392857D01*
X79440476Y-57345238D01*
X79630952Y-57297619D01*
X79773809Y-57297619D01*
X79964285Y-57345238D01*
X80059523Y-57392857D01*
X80154761Y-57488095D01*
X80202380Y-57630952D01*
X80202380Y-57869047D01*
X80202380Y-56392857D02*
X80202380Y-56869047D01*
X79202380Y-56869047D01*
X80202380Y-56059523D02*
X79202380Y-56059523D01*
X80202380Y-55488095D02*
X79630952Y-55916666D01*
X79202380Y-55488095D02*
X79773809Y-56059523D01*
X75154761Y-59869047D02*
X75202380Y-59726190D01*
X75202380Y-59488095D01*
X75154761Y-59392857D01*
X75107142Y-59345238D01*
X75011904Y-59297619D01*
X74916666Y-59297619D01*
X74821428Y-59345238D01*
X74773809Y-59392857D01*
X74726190Y-59488095D01*
X74678571Y-59678571D01*
X74630952Y-59773809D01*
X74583333Y-59821428D01*
X74488095Y-59869047D01*
X74392857Y-59869047D01*
X74297619Y-59821428D01*
X74250000Y-59773809D01*
X74202380Y-59678571D01*
X74202380Y-59440476D01*
X74250000Y-59297619D01*
X74202380Y-58964285D02*
X75202380Y-58726190D01*
X74488095Y-58535714D01*
X75202380Y-58345238D01*
X74202380Y-58107142D01*
X75202380Y-57726190D02*
X74202380Y-57726190D01*
X74202380Y-57488095D01*
X74250000Y-57345238D01*
X74345238Y-57250000D01*
X74440476Y-57202380D01*
X74630952Y-57154761D01*
X74773809Y-57154761D01*
X74964285Y-57202380D01*
X75059523Y-57250000D01*
X75154761Y-57345238D01*
X75202380Y-57488095D01*
X75202380Y-57726190D01*
X75202380Y-56726190D02*
X74202380Y-56726190D01*
X74202380Y-56059523D02*
X74202380Y-55869047D01*
X74250000Y-55773809D01*
X74345238Y-55678571D01*
X74535714Y-55630952D01*
X74869047Y-55630952D01*
X75059523Y-55678571D01*
X75154761Y-55773809D01*
X75202380Y-55869047D01*
X75202380Y-56059523D01*
X75154761Y-56154761D01*
X75059523Y-56250000D01*
X74869047Y-56297619D01*
X74535714Y-56297619D01*
X74345238Y-56250000D01*
X74250000Y-56154761D01*
X74202380Y-56059523D01*
X57154761Y-68714285D02*
X57202380Y-68571428D01*
X57202380Y-68333333D01*
X57154761Y-68238095D01*
X57107142Y-68190476D01*
X57011904Y-68142857D01*
X56916666Y-68142857D01*
X56821428Y-68190476D01*
X56773809Y-68238095D01*
X56726190Y-68333333D01*
X56678571Y-68523809D01*
X56630952Y-68619047D01*
X56583333Y-68666666D01*
X56488095Y-68714285D01*
X56392857Y-68714285D01*
X56297619Y-68666666D01*
X56250000Y-68619047D01*
X56202380Y-68523809D01*
X56202380Y-68285714D01*
X56250000Y-68142857D01*
X57107142Y-67142857D02*
X57154761Y-67190476D01*
X57202380Y-67333333D01*
X57202380Y-67428571D01*
X57154761Y-67571428D01*
X57059523Y-67666666D01*
X56964285Y-67714285D01*
X56773809Y-67761904D01*
X56630952Y-67761904D01*
X56440476Y-67714285D01*
X56345238Y-67666666D01*
X56250000Y-67571428D01*
X56202380Y-67428571D01*
X56202380Y-67333333D01*
X56250000Y-67190476D01*
X56297619Y-67142857D01*
X56916666Y-66761904D02*
X56916666Y-66285714D01*
X57202380Y-66857142D02*
X56202380Y-66523809D01*
X57202380Y-66190476D01*
X59904761Y-68440476D02*
X59952380Y-68297619D01*
X59952380Y-68059523D01*
X59904761Y-67964285D01*
X59857142Y-67916666D01*
X59761904Y-67869047D01*
X59666666Y-67869047D01*
X59571428Y-67916666D01*
X59523809Y-67964285D01*
X59476190Y-68059523D01*
X59428571Y-68250000D01*
X59380952Y-68345238D01*
X59333333Y-68392857D01*
X59238095Y-68440476D01*
X59142857Y-68440476D01*
X59047619Y-68392857D01*
X59000000Y-68345238D01*
X58952380Y-68250000D01*
X58952380Y-68011904D01*
X59000000Y-67869047D01*
X59857142Y-66869047D02*
X59904761Y-66916666D01*
X59952380Y-67059523D01*
X59952380Y-67154761D01*
X59904761Y-67297619D01*
X59809523Y-67392857D01*
X59714285Y-67440476D01*
X59523809Y-67488095D01*
X59380952Y-67488095D01*
X59190476Y-67440476D01*
X59095238Y-67392857D01*
X59000000Y-67297619D01*
X58952380Y-67154761D01*
X58952380Y-67059523D01*
X59000000Y-66916666D01*
X59047619Y-66869047D01*
X59952380Y-65964285D02*
X59952380Y-66440476D01*
X58952380Y-66440476D01*
X63952380Y-59984322D02*
X63952380Y-59412893D01*
X64952380Y-59698607D02*
X63952380Y-59698607D01*
X63952380Y-59174798D02*
X64952380Y-58508131D01*
X63952380Y-58508131D02*
X64952380Y-59174798D01*
X63952380Y-57936703D02*
X63952380Y-57841465D01*
X64000000Y-57746227D01*
X64047619Y-57698607D01*
X64142857Y-57650988D01*
X64333333Y-57603369D01*
X64571428Y-57603369D01*
X64761904Y-57650988D01*
X64857142Y-57698607D01*
X64904761Y-57746227D01*
X64952380Y-57841465D01*
X64952380Y-57936703D01*
X64904761Y-58031941D01*
X64857142Y-58079560D01*
X64761904Y-58127179D01*
X64571428Y-58174798D01*
X64333333Y-58174798D01*
X64142857Y-58127179D01*
X64047619Y-58079560D01*
X64000000Y-58031941D01*
X63952380Y-57936703D01*
X62452380Y-59392857D02*
X61976190Y-59726190D01*
X62452380Y-59964285D02*
X61452380Y-59964285D01*
X61452380Y-59583333D01*
X61500000Y-59488095D01*
X61547619Y-59440476D01*
X61642857Y-59392857D01*
X61785714Y-59392857D01*
X61880952Y-59440476D01*
X61928571Y-59488095D01*
X61976190Y-59583333D01*
X61976190Y-59964285D01*
X61452380Y-59059523D02*
X62452380Y-58392857D01*
X61452380Y-58392857D02*
X62452380Y-59059523D01*
X61452380Y-57821428D02*
X61452380Y-57726190D01*
X61500000Y-57630952D01*
X61547619Y-57583333D01*
X61642857Y-57535714D01*
X61833333Y-57488095D01*
X62071428Y-57488095D01*
X62261904Y-57535714D01*
X62357142Y-57583333D01*
X62404761Y-57630952D01*
X62452380Y-57726190D01*
X62452380Y-57821428D01*
X62404761Y-57916666D01*
X62357142Y-57964285D01*
X62261904Y-58011904D01*
X62071428Y-58059523D01*
X61833333Y-58059523D01*
X61642857Y-58011904D01*
X61547619Y-57964285D01*
X61500000Y-57916666D01*
X61452380Y-57821428D01*
X51452380Y-71738095D02*
X50452380Y-71738095D01*
X50452380Y-71500000D01*
X50500000Y-71357142D01*
X50595238Y-71261904D01*
X50690476Y-71214285D01*
X50880952Y-71166666D01*
X51023809Y-71166666D01*
X51214285Y-71214285D01*
X51309523Y-71261904D01*
X51404761Y-71357142D01*
X51452380Y-71500000D01*
X51452380Y-71738095D01*
X51452380Y-70690476D02*
X51452380Y-70500000D01*
X51404761Y-70404761D01*
X51357142Y-70357142D01*
X51214285Y-70261904D01*
X51023809Y-70214285D01*
X50642857Y-70214285D01*
X50547619Y-70261904D01*
X50500000Y-70309523D01*
X50452380Y-70404761D01*
X50452380Y-70595238D01*
X50500000Y-70690476D01*
X50547619Y-70738095D01*
X50642857Y-70785714D01*
X50880952Y-70785714D01*
X50976190Y-70738095D01*
X51023809Y-70690476D01*
X51071428Y-70595238D01*
X51071428Y-70404761D01*
X51023809Y-70309523D01*
X50976190Y-70261904D01*
X50880952Y-70214285D01*
X51452380Y-76738095D02*
X50452380Y-76738095D01*
X50452380Y-76500000D01*
X50500000Y-76357142D01*
X50595238Y-76261904D01*
X50690476Y-76214285D01*
X50880952Y-76166666D01*
X51023809Y-76166666D01*
X51214285Y-76214285D01*
X51309523Y-76261904D01*
X51404761Y-76357142D01*
X51452380Y-76500000D01*
X51452380Y-76738095D01*
X50880952Y-75595238D02*
X50833333Y-75690476D01*
X50785714Y-75738095D01*
X50690476Y-75785714D01*
X50642857Y-75785714D01*
X50547619Y-75738095D01*
X50500000Y-75690476D01*
X50452380Y-75595238D01*
X50452380Y-75404761D01*
X50500000Y-75309523D01*
X50547619Y-75261904D01*
X50642857Y-75214285D01*
X50690476Y-75214285D01*
X50785714Y-75261904D01*
X50833333Y-75309523D01*
X50880952Y-75404761D01*
X50880952Y-75595238D01*
X50928571Y-75690476D01*
X50976190Y-75738095D01*
X51071428Y-75785714D01*
X51261904Y-75785714D01*
X51357142Y-75738095D01*
X51404761Y-75690476D01*
X51452380Y-75595238D01*
X51452380Y-75404761D01*
X51404761Y-75309523D01*
X51357142Y-75261904D01*
X51261904Y-75214285D01*
X51071428Y-75214285D01*
X50976190Y-75261904D01*
X50928571Y-75309523D01*
X50880952Y-75404761D01*
X51452380Y-81738095D02*
X50452380Y-81738095D01*
X50452380Y-81500000D01*
X50500000Y-81357142D01*
X50595238Y-81261904D01*
X50690476Y-81214285D01*
X50880952Y-81166666D01*
X51023809Y-81166666D01*
X51214285Y-81214285D01*
X51309523Y-81261904D01*
X51404761Y-81357142D01*
X51452380Y-81500000D01*
X51452380Y-81738095D01*
X50452380Y-80833333D02*
X50452380Y-80166666D01*
X51452380Y-80595238D01*
X51452380Y-86738095D02*
X50452380Y-86738095D01*
X50452380Y-86500000D01*
X50500000Y-86357142D01*
X50595238Y-86261904D01*
X50690476Y-86214285D01*
X50880952Y-86166666D01*
X51023809Y-86166666D01*
X51214285Y-86214285D01*
X51309523Y-86261904D01*
X51404761Y-86357142D01*
X51452380Y-86500000D01*
X51452380Y-86738095D01*
X50452380Y-85309523D02*
X50452380Y-85500000D01*
X50500000Y-85595238D01*
X50547619Y-85642857D01*
X50690476Y-85738095D01*
X50880952Y-85785714D01*
X51261904Y-85785714D01*
X51357142Y-85738095D01*
X51404761Y-85690476D01*
X51452380Y-85595238D01*
X51452380Y-85404761D01*
X51404761Y-85309523D01*
X51357142Y-85261904D01*
X51261904Y-85214285D01*
X51023809Y-85214285D01*
X50928571Y-85261904D01*
X50880952Y-85309523D01*
X50833333Y-85404761D01*
X50833333Y-85595238D01*
X50880952Y-85690476D01*
X50928571Y-85738095D01*
X51023809Y-85785714D01*
X51452380Y-91988095D02*
X50452380Y-91988095D01*
X50452380Y-91750000D01*
X50500000Y-91607142D01*
X50595238Y-91511904D01*
X50690476Y-91464285D01*
X50880952Y-91416666D01*
X51023809Y-91416666D01*
X51214285Y-91464285D01*
X51309523Y-91511904D01*
X51404761Y-91607142D01*
X51452380Y-91750000D01*
X51452380Y-91988095D01*
X50452380Y-90511904D02*
X50452380Y-90988095D01*
X50928571Y-91035714D01*
X50880952Y-90988095D01*
X50833333Y-90892857D01*
X50833333Y-90654761D01*
X50880952Y-90559523D01*
X50928571Y-90511904D01*
X51023809Y-90464285D01*
X51261904Y-90464285D01*
X51357142Y-90511904D01*
X51404761Y-90559523D01*
X51452380Y-90654761D01*
X51452380Y-90892857D01*
X51404761Y-90988095D01*
X51357142Y-91035714D01*
X51452380Y-96738095D02*
X50452380Y-96738095D01*
X50452380Y-96500000D01*
X50500000Y-96357142D01*
X50595238Y-96261904D01*
X50690476Y-96214285D01*
X50880952Y-96166666D01*
X51023809Y-96166666D01*
X51214285Y-96214285D01*
X51309523Y-96261904D01*
X51404761Y-96357142D01*
X51452380Y-96500000D01*
X51452380Y-96738095D01*
X50785714Y-95309523D02*
X51452380Y-95309523D01*
X50404761Y-95547619D02*
X51119047Y-95785714D01*
X51119047Y-95166666D01*
X51452380Y-101738095D02*
X50452380Y-101738095D01*
X50452380Y-101500000D01*
X50500000Y-101357142D01*
X50595238Y-101261904D01*
X50690476Y-101214285D01*
X50880952Y-101166666D01*
X51023809Y-101166666D01*
X51214285Y-101214285D01*
X51309523Y-101261904D01*
X51404761Y-101357142D01*
X51452380Y-101500000D01*
X51452380Y-101738095D01*
X50452380Y-100833333D02*
X50452380Y-100214285D01*
X50833333Y-100547619D01*
X50833333Y-100404761D01*
X50880952Y-100309523D01*
X50928571Y-100261904D01*
X51023809Y-100214285D01*
X51261904Y-100214285D01*
X51357142Y-100261904D01*
X51404761Y-100309523D01*
X51452380Y-100404761D01*
X51452380Y-100690476D01*
X51404761Y-100785714D01*
X51357142Y-100833333D01*
X51452380Y-106738095D02*
X50452380Y-106738095D01*
X50452380Y-106500000D01*
X50500000Y-106357142D01*
X50595238Y-106261904D01*
X50690476Y-106214285D01*
X50880952Y-106166666D01*
X51023809Y-106166666D01*
X51214285Y-106214285D01*
X51309523Y-106261904D01*
X51404761Y-106357142D01*
X51452380Y-106500000D01*
X51452380Y-106738095D01*
X50547619Y-105785714D02*
X50500000Y-105738095D01*
X50452380Y-105642857D01*
X50452380Y-105404761D01*
X50500000Y-105309523D01*
X50547619Y-105261904D01*
X50642857Y-105214285D01*
X50738095Y-105214285D01*
X50880952Y-105261904D01*
X51452380Y-105833333D01*
X51452380Y-105214285D01*
X50238095Y-110500000D02*
X50142857Y-110452380D01*
X50000000Y-110452380D01*
X49857142Y-110500000D01*
X49761904Y-110595238D01*
X49714285Y-110690476D01*
X49666666Y-110880952D01*
X49666666Y-111023809D01*
X49714285Y-111214285D01*
X49761904Y-111309523D01*
X49857142Y-111404761D01*
X50000000Y-111452380D01*
X50095238Y-111452380D01*
X50238095Y-111404761D01*
X50285714Y-111357142D01*
X50285714Y-111023809D01*
X50095238Y-111023809D01*
X50714285Y-111452380D02*
X50714285Y-110452380D01*
X51285714Y-111452380D01*
X51285714Y-110452380D01*
X51761904Y-111452380D02*
X51761904Y-110452380D01*
X52000000Y-110452380D01*
X52142857Y-110500000D01*
X52238095Y-110595238D01*
X52285714Y-110690476D01*
X52333333Y-110880952D01*
X52333333Y-111023809D01*
X52285714Y-111214285D01*
X52238095Y-111309523D01*
X52142857Y-111404761D01*
X52000000Y-111452380D01*
X51761904Y-111452380D01*
X58916666Y-116714285D02*
X58916666Y-116238095D01*
X59202380Y-116809523D02*
X58202380Y-116476190D01*
X59202380Y-116142857D01*
X58202380Y-115904761D02*
X58202380Y-115238095D01*
X59202380Y-115666666D01*
X58916666Y-121714285D02*
X58916666Y-121238095D01*
X59202380Y-121809523D02*
X58202380Y-121476190D01*
X59202380Y-121142857D01*
X58202380Y-120380952D02*
X58202380Y-120571428D01*
X58250000Y-120666666D01*
X58297619Y-120714285D01*
X58440476Y-120809523D01*
X58630952Y-120857142D01*
X59011904Y-120857142D01*
X59107142Y-120809523D01*
X59154761Y-120761904D01*
X59202380Y-120666666D01*
X59202380Y-120476190D01*
X59154761Y-120380952D01*
X59107142Y-120333333D01*
X59011904Y-120285714D01*
X58773809Y-120285714D01*
X58678571Y-120333333D01*
X58630952Y-120380952D01*
X58583333Y-120476190D01*
X58583333Y-120666666D01*
X58630952Y-120761904D01*
X58678571Y-120809523D01*
X58773809Y-120857142D01*
X58916666Y-126714285D02*
X58916666Y-126238095D01*
X59202380Y-126809523D02*
X58202380Y-126476190D01*
X59202380Y-126142857D01*
X58202380Y-125904761D02*
X58202380Y-125285714D01*
X58583333Y-125619047D01*
X58583333Y-125476190D01*
X58630952Y-125380952D01*
X58678571Y-125333333D01*
X58773809Y-125285714D01*
X59011904Y-125285714D01*
X59107142Y-125333333D01*
X59154761Y-125380952D01*
X59202380Y-125476190D01*
X59202380Y-125761904D01*
X59154761Y-125857142D01*
X59107142Y-125904761D01*
X58916666Y-131964285D02*
X58916666Y-131488095D01*
X59202380Y-132059523D02*
X58202380Y-131726190D01*
X59202380Y-131392857D01*
X58297619Y-131107142D02*
X58250000Y-131059523D01*
X58202380Y-130964285D01*
X58202380Y-130726190D01*
X58250000Y-130630952D01*
X58297619Y-130583333D01*
X58392857Y-130535714D01*
X58488095Y-130535714D01*
X58630952Y-130583333D01*
X59202380Y-131154761D01*
X59202380Y-130535714D01*
X58916666Y-136714285D02*
X58916666Y-136238095D01*
X59202380Y-136809523D02*
X58202380Y-136476190D01*
X59202380Y-136142857D01*
X59202380Y-135285714D02*
X59202380Y-135857142D01*
X59202380Y-135571428D02*
X58202380Y-135571428D01*
X58345238Y-135666666D01*
X58440476Y-135761904D01*
X58488095Y-135857142D01*
X58916666Y-141714285D02*
X58916666Y-141238095D01*
X59202380Y-141809523D02*
X58202380Y-141476190D01*
X59202380Y-141142857D01*
X58202380Y-140619047D02*
X58202380Y-140523809D01*
X58250000Y-140428571D01*
X58297619Y-140380952D01*
X58392857Y-140333333D01*
X58583333Y-140285714D01*
X58821428Y-140285714D01*
X59011904Y-140333333D01*
X59107142Y-140380952D01*
X59154761Y-140428571D01*
X59202380Y-140523809D01*
X59202380Y-140619047D01*
X59154761Y-140714285D01*
X59107142Y-140761904D01*
X59011904Y-140809523D01*
X58821428Y-140857142D01*
X58583333Y-140857142D01*
X58392857Y-140809523D01*
X58297619Y-140761904D01*
X58250000Y-140714285D01*
X58202380Y-140619047D01*
X96452380Y-90653055D02*
X96452380Y-91224483D01*
X96452380Y-90938769D02*
X95452380Y-90938769D01*
X95595238Y-91034007D01*
X95690476Y-91129245D01*
X95738095Y-91224483D01*
X95452380Y-89795912D02*
X95452380Y-89986388D01*
X95500000Y-90081626D01*
X95547619Y-90129245D01*
X95690476Y-90224483D01*
X95880952Y-90272102D01*
X96261904Y-90272102D01*
X96357142Y-90224483D01*
X96404761Y-90176864D01*
X96452380Y-90081626D01*
X96452380Y-89891150D01*
X96404761Y-89795912D01*
X96357142Y-89748293D01*
X96261904Y-89700674D01*
X96023809Y-89700674D01*
X95928571Y-89748293D01*
X95880952Y-89795912D01*
X95833333Y-89891150D01*
X95833333Y-90081626D01*
X95880952Y-90176864D01*
X95928571Y-90224483D01*
X96023809Y-90272102D01*
X93702380Y-90666742D02*
X93702380Y-91238170D01*
X93702380Y-90952456D02*
X92702380Y-90952456D01*
X92845238Y-91047694D01*
X92940476Y-91142932D01*
X92988095Y-91238170D01*
X92702380Y-90333408D02*
X92702380Y-89666742D01*
X93702380Y-90095313D01*
X91202380Y-90680207D02*
X91202380Y-91251635D01*
X91202380Y-90965921D02*
X90202380Y-90965921D01*
X90345238Y-91061159D01*
X90440476Y-91156397D01*
X90488095Y-91251635D01*
X90630952Y-90108778D02*
X90583333Y-90204016D01*
X90535714Y-90251635D01*
X90440476Y-90299254D01*
X90392857Y-90299254D01*
X90297619Y-90251635D01*
X90250000Y-90204016D01*
X90202380Y-90108778D01*
X90202380Y-89918302D01*
X90250000Y-89823064D01*
X90297619Y-89775445D01*
X90392857Y-89727826D01*
X90440476Y-89727826D01*
X90535714Y-89775445D01*
X90583333Y-89823064D01*
X90630952Y-89918302D01*
X90630952Y-90108778D01*
X90678571Y-90204016D01*
X90726190Y-90251635D01*
X90821428Y-90299254D01*
X91011904Y-90299254D01*
X91107142Y-90251635D01*
X91154761Y-90204016D01*
X91202380Y-90108778D01*
X91202380Y-89918302D01*
X91154761Y-89823064D01*
X91107142Y-89775445D01*
X91011904Y-89727826D01*
X90821428Y-89727826D01*
X90726190Y-89775445D01*
X90678571Y-89823064D01*
X90630952Y-89918302D01*
X88702380Y-90690476D02*
X88702380Y-91261904D01*
X88702380Y-90976190D02*
X87702380Y-90976190D01*
X87845238Y-91071428D01*
X87940476Y-91166666D01*
X87988095Y-91261904D01*
X88702380Y-90214285D02*
X88702380Y-90023809D01*
X88654761Y-89928571D01*
X88607142Y-89880952D01*
X88464285Y-89785714D01*
X88273809Y-89738095D01*
X87892857Y-89738095D01*
X87797619Y-89785714D01*
X87750000Y-89833333D01*
X87702380Y-89928571D01*
X87702380Y-90119047D01*
X87750000Y-90214285D01*
X87797619Y-90261904D01*
X87892857Y-90309523D01*
X88130952Y-90309523D01*
X88226190Y-90261904D01*
X88273809Y-90214285D01*
X88321428Y-90119047D01*
X88321428Y-89928571D01*
X88273809Y-89833333D01*
X88226190Y-89785714D01*
X88130952Y-89738095D01*
X100452380Y-91238095D02*
X100452380Y-90666666D01*
X101452380Y-90952380D02*
X100452380Y-90952380D01*
X100452380Y-90428571D02*
X101452380Y-89761904D01*
X100452380Y-89761904D02*
X101452380Y-90428571D01*
X101452380Y-88857142D02*
X101452380Y-89428571D01*
X101452380Y-89142857D02*
X100452380Y-89142857D01*
X100595238Y-89238095D01*
X100690476Y-89333333D01*
X100738095Y-89428571D01*
X98952380Y-90642857D02*
X98476190Y-90976190D01*
X98952380Y-91214285D02*
X97952380Y-91214285D01*
X97952380Y-90833333D01*
X98000000Y-90738095D01*
X98047619Y-90690476D01*
X98142857Y-90642857D01*
X98285714Y-90642857D01*
X98380952Y-90690476D01*
X98428571Y-90738095D01*
X98476190Y-90833333D01*
X98476190Y-91214285D01*
X97952380Y-90309523D02*
X98952380Y-89642857D01*
X97952380Y-89642857D02*
X98952380Y-90309523D01*
X98952380Y-88738095D02*
X98952380Y-89309523D01*
X98952380Y-89023809D02*
X97952380Y-89023809D01*
X98095238Y-89119047D01*
X98190476Y-89214285D01*
X98238095Y-89309523D01*
X85202380Y-91238095D02*
X85202380Y-90619047D01*
X85583333Y-90952380D01*
X85583333Y-90809523D01*
X85630952Y-90714285D01*
X85678571Y-90666666D01*
X85773809Y-90619047D01*
X86011904Y-90619047D01*
X86107142Y-90666666D01*
X86154761Y-90714285D01*
X86202380Y-90809523D01*
X86202380Y-91095238D01*
X86154761Y-91190476D01*
X86107142Y-91238095D01*
X85202380Y-90333333D02*
X86202380Y-90000000D01*
X85202380Y-89666666D01*
X85202380Y-89428571D02*
X85202380Y-88809523D01*
X85583333Y-89142857D01*
X85583333Y-89000000D01*
X85630952Y-88904761D01*
X85678571Y-88857142D01*
X85773809Y-88809523D01*
X86011904Y-88809523D01*
X86107142Y-88857142D01*
X86154761Y-88904761D01*
X86202380Y-89000000D01*
X86202380Y-89285714D01*
X86154761Y-89380952D01*
X86107142Y-89428571D01*
X82750000Y-90761904D02*
X82702380Y-90857142D01*
X82702380Y-91000000D01*
X82750000Y-91142857D01*
X82845238Y-91238095D01*
X82940476Y-91285714D01*
X83130952Y-91333333D01*
X83273809Y-91333333D01*
X83464285Y-91285714D01*
X83559523Y-91238095D01*
X83654761Y-91142857D01*
X83702380Y-91000000D01*
X83702380Y-90904761D01*
X83654761Y-90761904D01*
X83607142Y-90714285D01*
X83273809Y-90714285D01*
X83273809Y-90904761D01*
X83702380Y-90285714D02*
X82702380Y-90285714D01*
X83702380Y-89714285D01*
X82702380Y-89714285D01*
X83702380Y-89238095D02*
X82702380Y-89238095D01*
X82702380Y-89000000D01*
X82750000Y-88857142D01*
X82845238Y-88761904D01*
X82940476Y-88714285D01*
X83130952Y-88666666D01*
X83273809Y-88666666D01*
X83464285Y-88714285D01*
X83559523Y-88761904D01*
X83654761Y-88857142D01*
X83702380Y-89000000D01*
X83702380Y-89238095D01*
X72452380Y-90190476D02*
X72452380Y-90666666D01*
X72928571Y-90714285D01*
X72880952Y-90666666D01*
X72833333Y-90571428D01*
X72833333Y-90333333D01*
X72880952Y-90238095D01*
X72928571Y-90190476D01*
X73023809Y-90142857D01*
X73261904Y-90142857D01*
X73357142Y-90190476D01*
X73404761Y-90238095D01*
X73452380Y-90333333D01*
X73452380Y-90571428D01*
X73404761Y-90666666D01*
X73357142Y-90714285D01*
X72452380Y-89857142D02*
X73452380Y-89523809D01*
X72452380Y-89190476D01*
X75000000Y-90761904D02*
X74952380Y-90857142D01*
X74952380Y-91000000D01*
X75000000Y-91142857D01*
X75095238Y-91238095D01*
X75190476Y-91285714D01*
X75380952Y-91333333D01*
X75523809Y-91333333D01*
X75714285Y-91285714D01*
X75809523Y-91238095D01*
X75904761Y-91142857D01*
X75952380Y-91000000D01*
X75952380Y-90904761D01*
X75904761Y-90761904D01*
X75857142Y-90714285D01*
X75523809Y-90714285D01*
X75523809Y-90904761D01*
X75952380Y-90285714D02*
X74952380Y-90285714D01*
X75952380Y-89714285D01*
X74952380Y-89714285D01*
X75952380Y-89238095D02*
X74952380Y-89238095D01*
X74952380Y-89000000D01*
X75000000Y-88857142D01*
X75095238Y-88761904D01*
X75190476Y-88714285D01*
X75380952Y-88666666D01*
X75523809Y-88666666D01*
X75714285Y-88714285D01*
X75809523Y-88761904D01*
X75904761Y-88857142D01*
X75952380Y-89000000D01*
X75952380Y-89238095D01*
X81154761Y-91190476D02*
X81202380Y-91047619D01*
X81202380Y-90809523D01*
X81154761Y-90714285D01*
X81107142Y-90666666D01*
X81011904Y-90619047D01*
X80916666Y-90619047D01*
X80821428Y-90666666D01*
X80773809Y-90714285D01*
X80726190Y-90809523D01*
X80678571Y-91000000D01*
X80630952Y-91095238D01*
X80583333Y-91142857D01*
X80488095Y-91190476D01*
X80392857Y-91190476D01*
X80297619Y-91142857D01*
X80250000Y-91095238D01*
X80202380Y-91000000D01*
X80202380Y-90761904D01*
X80250000Y-90619047D01*
X81107142Y-89619047D02*
X81154761Y-89666666D01*
X81202380Y-89809523D01*
X81202380Y-89904761D01*
X81154761Y-90047619D01*
X81059523Y-90142857D01*
X80964285Y-90190476D01*
X80773809Y-90238095D01*
X80630952Y-90238095D01*
X80440476Y-90190476D01*
X80345238Y-90142857D01*
X80250000Y-90047619D01*
X80202380Y-89904761D01*
X80202380Y-89809523D01*
X80250000Y-89666666D01*
X80297619Y-89619047D01*
X81202380Y-88714285D02*
X81202380Y-89190476D01*
X80202380Y-89190476D01*
X78404761Y-91214285D02*
X78452380Y-91071428D01*
X78452380Y-90833333D01*
X78404761Y-90738095D01*
X78357142Y-90690476D01*
X78261904Y-90642857D01*
X78166666Y-90642857D01*
X78071428Y-90690476D01*
X78023809Y-90738095D01*
X77976190Y-90833333D01*
X77928571Y-91023809D01*
X77880952Y-91119047D01*
X77833333Y-91166666D01*
X77738095Y-91214285D01*
X77642857Y-91214285D01*
X77547619Y-91166666D01*
X77500000Y-91119047D01*
X77452380Y-91023809D01*
X77452380Y-90785714D01*
X77500000Y-90642857D01*
X78452380Y-90214285D02*
X77452380Y-90214285D01*
X77452380Y-89976190D01*
X77500000Y-89833333D01*
X77595238Y-89738095D01*
X77690476Y-89690476D01*
X77880952Y-89642857D01*
X78023809Y-89642857D01*
X78214285Y-89690476D01*
X78309523Y-89738095D01*
X78404761Y-89833333D01*
X78452380Y-89976190D01*
X78452380Y-90214285D01*
X78166666Y-89261904D02*
X78166666Y-88785714D01*
X78452380Y-89357142D02*
X77452380Y-89023809D01*
X78452380Y-88690476D01*
X90881904Y-102000000D02*
X90786666Y-101952380D01*
X90643809Y-101952380D01*
X90500952Y-102000000D01*
X90405714Y-102095238D01*
X90358095Y-102190476D01*
X90310476Y-102380952D01*
X90310476Y-102523809D01*
X90358095Y-102714285D01*
X90405714Y-102809523D01*
X90500952Y-102904761D01*
X90643809Y-102952380D01*
X90739047Y-102952380D01*
X90881904Y-102904761D01*
X90929523Y-102857142D01*
X90929523Y-102523809D01*
X90739047Y-102523809D01*
X91881904Y-101952380D02*
X92500952Y-101952380D01*
X92167619Y-102333333D01*
X92310476Y-102333333D01*
X92405714Y-102380952D01*
X92453333Y-102428571D01*
X92500952Y-102523809D01*
X92500952Y-102761904D01*
X92453333Y-102857142D01*
X92405714Y-102904761D01*
X92310476Y-102952380D01*
X92024761Y-102952380D01*
X91929523Y-102904761D01*
X91881904Y-102857142D01*
X92786666Y-101952380D02*
X93120000Y-102952380D01*
X93453333Y-101952380D01*
X93691428Y-101952380D02*
X94310476Y-101952380D01*
X93977142Y-102333333D01*
X94120000Y-102333333D01*
X94215238Y-102380952D01*
X94262857Y-102428571D01*
X94310476Y-102523809D01*
X94310476Y-102761904D01*
X94262857Y-102857142D01*
X94215238Y-102904761D01*
X94120000Y-102952380D01*
X93834285Y-102952380D01*
X93739047Y-102904761D01*
X93691428Y-102857142D01*
X83655714Y-102904761D02*
X83798571Y-102952380D01*
X84036666Y-102952380D01*
X84131904Y-102904761D01*
X84179523Y-102857142D01*
X84227142Y-102761904D01*
X84227142Y-102666666D01*
X84179523Y-102571428D01*
X84131904Y-102523809D01*
X84036666Y-102476190D01*
X83846190Y-102428571D01*
X83750952Y-102380952D01*
X83703333Y-102333333D01*
X83655714Y-102238095D01*
X83655714Y-102142857D01*
X83703333Y-102047619D01*
X83750952Y-102000000D01*
X83846190Y-101952380D01*
X84084285Y-101952380D01*
X84227142Y-102000000D01*
X84655714Y-102952380D02*
X84655714Y-101952380D01*
X84893809Y-101952380D01*
X85036666Y-102000000D01*
X85131904Y-102095238D01*
X85179523Y-102190476D01*
X85227142Y-102380952D01*
X85227142Y-102523809D01*
X85179523Y-102714285D01*
X85131904Y-102809523D01*
X85036666Y-102904761D01*
X84893809Y-102952380D01*
X84655714Y-102952380D01*
X85608095Y-102666666D02*
X86084285Y-102666666D01*
X85512857Y-102952380D02*
X85846190Y-101952380D01*
X86179523Y-102952380D01*
X87179523Y-102904761D02*
X87322380Y-102952380D01*
X87560476Y-102952380D01*
X87655714Y-102904761D01*
X87703333Y-102857142D01*
X87750952Y-102761904D01*
X87750952Y-102666666D01*
X87703333Y-102571428D01*
X87655714Y-102523809D01*
X87560476Y-102476190D01*
X87370000Y-102428571D01*
X87274761Y-102380952D01*
X87227142Y-102333333D01*
X87179523Y-102238095D01*
X87179523Y-102142857D01*
X87227142Y-102047619D01*
X87274761Y-102000000D01*
X87370000Y-101952380D01*
X87608095Y-101952380D01*
X87750952Y-102000000D01*
X88750952Y-102857142D02*
X88703333Y-102904761D01*
X88560476Y-102952380D01*
X88465238Y-102952380D01*
X88322380Y-102904761D01*
X88227142Y-102809523D01*
X88179523Y-102714285D01*
X88131904Y-102523809D01*
X88131904Y-102380952D01*
X88179523Y-102190476D01*
X88227142Y-102095238D01*
X88322380Y-102000000D01*
X88465238Y-101952380D01*
X88560476Y-101952380D01*
X88703333Y-102000000D01*
X88750952Y-102047619D01*
X89655714Y-102952380D02*
X89179523Y-102952380D01*
X89179523Y-101952380D01*
X91011904Y-110000000D02*
X90916666Y-109952380D01*
X90773809Y-109952380D01*
X90630952Y-110000000D01*
X90535714Y-110095238D01*
X90488095Y-110190476D01*
X90440476Y-110380952D01*
X90440476Y-110523809D01*
X90488095Y-110714285D01*
X90535714Y-110809523D01*
X90630952Y-110904761D01*
X90773809Y-110952380D01*
X90869047Y-110952380D01*
X91011904Y-110904761D01*
X91059523Y-110857142D01*
X91059523Y-110523809D01*
X90869047Y-110523809D01*
X92011904Y-109952380D02*
X92630952Y-109952380D01*
X92297619Y-110333333D01*
X92440476Y-110333333D01*
X92535714Y-110380952D01*
X92583333Y-110428571D01*
X92630952Y-110523809D01*
X92630952Y-110761904D01*
X92583333Y-110857142D01*
X92535714Y-110904761D01*
X92440476Y-110952380D01*
X92154761Y-110952380D01*
X92059523Y-110904761D01*
X92011904Y-110857142D01*
X92916666Y-109952380D02*
X93250000Y-110952380D01*
X93583333Y-109952380D01*
X93821428Y-109952380D02*
X94440476Y-109952380D01*
X94107142Y-110333333D01*
X94250000Y-110333333D01*
X94345238Y-110380952D01*
X94392857Y-110428571D01*
X94440476Y-110523809D01*
X94440476Y-110761904D01*
X94392857Y-110857142D01*
X94345238Y-110904761D01*
X94250000Y-110952380D01*
X93964285Y-110952380D01*
X93869047Y-110904761D01*
X93821428Y-110857142D01*
X87309523Y-110904761D02*
X87452380Y-110952380D01*
X87690476Y-110952380D01*
X87785714Y-110904761D01*
X87833333Y-110857142D01*
X87880952Y-110761904D01*
X87880952Y-110666666D01*
X87833333Y-110571428D01*
X87785714Y-110523809D01*
X87690476Y-110476190D01*
X87500000Y-110428571D01*
X87404761Y-110380952D01*
X87357142Y-110333333D01*
X87309523Y-110238095D01*
X87309523Y-110142857D01*
X87357142Y-110047619D01*
X87404761Y-110000000D01*
X87500000Y-109952380D01*
X87738095Y-109952380D01*
X87880952Y-110000000D01*
X88880952Y-110857142D02*
X88833333Y-110904761D01*
X88690476Y-110952380D01*
X88595238Y-110952380D01*
X88452380Y-110904761D01*
X88357142Y-110809523D01*
X88309523Y-110714285D01*
X88261904Y-110523809D01*
X88261904Y-110380952D01*
X88309523Y-110190476D01*
X88357142Y-110095238D01*
X88452380Y-110000000D01*
X88595238Y-109952380D01*
X88690476Y-109952380D01*
X88833333Y-110000000D01*
X88880952Y-110047619D01*
X89785714Y-110952380D02*
X89309523Y-110952380D01*
X89309523Y-109952380D01*
X83785714Y-110904761D02*
X83928571Y-110952380D01*
X84166666Y-110952380D01*
X84261904Y-110904761D01*
X84309523Y-110857142D01*
X84357142Y-110761904D01*
X84357142Y-110666666D01*
X84309523Y-110571428D01*
X84261904Y-110523809D01*
X84166666Y-110476190D01*
X83976190Y-110428571D01*
X83880952Y-110380952D01*
X83833333Y-110333333D01*
X83785714Y-110238095D01*
X83785714Y-110142857D01*
X83833333Y-110047619D01*
X83880952Y-110000000D01*
X83976190Y-109952380D01*
X84214285Y-109952380D01*
X84357142Y-110000000D01*
X84785714Y-110952380D02*
X84785714Y-109952380D01*
X85023809Y-109952380D01*
X85166666Y-110000000D01*
X85261904Y-110095238D01*
X85309523Y-110190476D01*
X85357142Y-110380952D01*
X85357142Y-110523809D01*
X85309523Y-110714285D01*
X85261904Y-110809523D01*
X85166666Y-110904761D01*
X85023809Y-110952380D01*
X84785714Y-110952380D01*
X85738095Y-110666666D02*
X86214285Y-110666666D01*
X85642857Y-110952380D02*
X85976190Y-109952380D01*
X86309523Y-110952380D01*
X91011904Y-118000000D02*
X90916666Y-117952380D01*
X90773809Y-117952380D01*
X90630952Y-118000000D01*
X90535714Y-118095238D01*
X90488095Y-118190476D01*
X90440476Y-118380952D01*
X90440476Y-118523809D01*
X90488095Y-118714285D01*
X90535714Y-118809523D01*
X90630952Y-118904761D01*
X90773809Y-118952380D01*
X90869047Y-118952380D01*
X91011904Y-118904761D01*
X91059523Y-118857142D01*
X91059523Y-118523809D01*
X90869047Y-118523809D01*
X87309523Y-118904761D02*
X87452380Y-118952380D01*
X87690476Y-118952380D01*
X87785714Y-118904761D01*
X87833333Y-118857142D01*
X87880952Y-118761904D01*
X87880952Y-118666666D01*
X87833333Y-118571428D01*
X87785714Y-118523809D01*
X87690476Y-118476190D01*
X87500000Y-118428571D01*
X87404761Y-118380952D01*
X87357142Y-118333333D01*
X87309523Y-118238095D01*
X87309523Y-118142857D01*
X87357142Y-118047619D01*
X87404761Y-118000000D01*
X87500000Y-117952380D01*
X87738095Y-117952380D01*
X87880952Y-118000000D01*
X88880952Y-118857142D02*
X88833333Y-118904761D01*
X88690476Y-118952380D01*
X88595238Y-118952380D01*
X88452380Y-118904761D01*
X88357142Y-118809523D01*
X88309523Y-118714285D01*
X88261904Y-118523809D01*
X88261904Y-118380952D01*
X88309523Y-118190476D01*
X88357142Y-118095238D01*
X88452380Y-118000000D01*
X88595238Y-117952380D01*
X88690476Y-117952380D01*
X88833333Y-118000000D01*
X88880952Y-118047619D01*
X89785714Y-118952380D02*
X89309523Y-118952380D01*
X89309523Y-117952380D01*
X83785714Y-118904761D02*
X83928571Y-118952380D01*
X84166666Y-118952380D01*
X84261904Y-118904761D01*
X84309523Y-118857142D01*
X84357142Y-118761904D01*
X84357142Y-118666666D01*
X84309523Y-118571428D01*
X84261904Y-118523809D01*
X84166666Y-118476190D01*
X83976190Y-118428571D01*
X83880952Y-118380952D01*
X83833333Y-118333333D01*
X83785714Y-118238095D01*
X83785714Y-118142857D01*
X83833333Y-118047619D01*
X83880952Y-118000000D01*
X83976190Y-117952380D01*
X84214285Y-117952380D01*
X84357142Y-118000000D01*
X84785714Y-118952380D02*
X84785714Y-117952380D01*
X85023809Y-117952380D01*
X85166666Y-118000000D01*
X85261904Y-118095238D01*
X85309523Y-118190476D01*
X85357142Y-118380952D01*
X85357142Y-118523809D01*
X85309523Y-118714285D01*
X85261904Y-118809523D01*
X85166666Y-118904761D01*
X85023809Y-118952380D01*
X84785714Y-118952380D01*
X85738095Y-118666666D02*
X86214285Y-118666666D01*
X85642857Y-118952380D02*
X85976190Y-117952380D01*
X86309523Y-118952380D01*
X92011904Y-117952380D02*
X92630952Y-117952380D01*
X92297619Y-118333333D01*
X92440476Y-118333333D01*
X92535714Y-118380952D01*
X92583333Y-118428571D01*
X92630952Y-118523809D01*
X92630952Y-118761904D01*
X92583333Y-118857142D01*
X92535714Y-118904761D01*
X92440476Y-118952380D01*
X92154761Y-118952380D01*
X92059523Y-118904761D01*
X92011904Y-118857142D01*
X92916666Y-117952380D02*
X93250000Y-118952380D01*
X93583333Y-117952380D01*
X93821428Y-117952380D02*
X94440476Y-117952380D01*
X94107142Y-118333333D01*
X94250000Y-118333333D01*
X94345238Y-118380952D01*
X94392857Y-118428571D01*
X94440476Y-118523809D01*
X94440476Y-118761904D01*
X94392857Y-118857142D01*
X94345238Y-118904761D01*
X94250000Y-118952380D01*
X93964285Y-118952380D01*
X93869047Y-118904761D01*
X93821428Y-118857142D01*
X87309523Y-126904761D02*
X87452380Y-126952380D01*
X87690476Y-126952380D01*
X87785714Y-126904761D01*
X87833333Y-126857142D01*
X87880952Y-126761904D01*
X87880952Y-126666666D01*
X87833333Y-126571428D01*
X87785714Y-126523809D01*
X87690476Y-126476190D01*
X87500000Y-126428571D01*
X87404761Y-126380952D01*
X87357142Y-126333333D01*
X87309523Y-126238095D01*
X87309523Y-126142857D01*
X87357142Y-126047619D01*
X87404761Y-126000000D01*
X87500000Y-125952380D01*
X87738095Y-125952380D01*
X87880952Y-126000000D01*
X88880952Y-126857142D02*
X88833333Y-126904761D01*
X88690476Y-126952380D01*
X88595238Y-126952380D01*
X88452380Y-126904761D01*
X88357142Y-126809523D01*
X88309523Y-126714285D01*
X88261904Y-126523809D01*
X88261904Y-126380952D01*
X88309523Y-126190476D01*
X88357142Y-126095238D01*
X88452380Y-126000000D01*
X88595238Y-125952380D01*
X88690476Y-125952380D01*
X88833333Y-126000000D01*
X88880952Y-126047619D01*
X89785714Y-126952380D02*
X89309523Y-126952380D01*
X89309523Y-125952380D01*
X92011904Y-125952380D02*
X92630952Y-125952380D01*
X92297619Y-126333333D01*
X92440476Y-126333333D01*
X92535714Y-126380952D01*
X92583333Y-126428571D01*
X92630952Y-126523809D01*
X92630952Y-126761904D01*
X92583333Y-126857142D01*
X92535714Y-126904761D01*
X92440476Y-126952380D01*
X92154761Y-126952380D01*
X92059523Y-126904761D01*
X92011904Y-126857142D01*
X92916666Y-125952380D02*
X93250000Y-126952380D01*
X93583333Y-125952380D01*
X93821428Y-125952380D02*
X94440476Y-125952380D01*
X94107142Y-126333333D01*
X94250000Y-126333333D01*
X94345238Y-126380952D01*
X94392857Y-126428571D01*
X94440476Y-126523809D01*
X94440476Y-126761904D01*
X94392857Y-126857142D01*
X94345238Y-126904761D01*
X94250000Y-126952380D01*
X93964285Y-126952380D01*
X93869047Y-126904761D01*
X93821428Y-126857142D01*
X83785714Y-126904761D02*
X83928571Y-126952380D01*
X84166666Y-126952380D01*
X84261904Y-126904761D01*
X84309523Y-126857142D01*
X84357142Y-126761904D01*
X84357142Y-126666666D01*
X84309523Y-126571428D01*
X84261904Y-126523809D01*
X84166666Y-126476190D01*
X83976190Y-126428571D01*
X83880952Y-126380952D01*
X83833333Y-126333333D01*
X83785714Y-126238095D01*
X83785714Y-126142857D01*
X83833333Y-126047619D01*
X83880952Y-126000000D01*
X83976190Y-125952380D01*
X84214285Y-125952380D01*
X84357142Y-126000000D01*
X84785714Y-126952380D02*
X84785714Y-125952380D01*
X85023809Y-125952380D01*
X85166666Y-126000000D01*
X85261904Y-126095238D01*
X85309523Y-126190476D01*
X85357142Y-126380952D01*
X85357142Y-126523809D01*
X85309523Y-126714285D01*
X85261904Y-126809523D01*
X85166666Y-126904761D01*
X85023809Y-126952380D01*
X84785714Y-126952380D01*
X85738095Y-126666666D02*
X86214285Y-126666666D01*
X85642857Y-126952380D02*
X85976190Y-125952380D01*
X86309523Y-126952380D01*
X91011904Y-126000000D02*
X90916666Y-125952380D01*
X90773809Y-125952380D01*
X90630952Y-126000000D01*
X90535714Y-126095238D01*
X90488095Y-126190476D01*
X90440476Y-126380952D01*
X90440476Y-126523809D01*
X90488095Y-126714285D01*
X90535714Y-126809523D01*
X90630952Y-126904761D01*
X90773809Y-126952380D01*
X90869047Y-126952380D01*
X91011904Y-126904761D01*
X91059523Y-126857142D01*
X91059523Y-126523809D01*
X90869047Y-126523809D01*
X87309523Y-134904761D02*
X87452380Y-134952380D01*
X87690476Y-134952380D01*
X87785714Y-134904761D01*
X87833333Y-134857142D01*
X87880952Y-134761904D01*
X87880952Y-134666666D01*
X87833333Y-134571428D01*
X87785714Y-134523809D01*
X87690476Y-134476190D01*
X87500000Y-134428571D01*
X87404761Y-134380952D01*
X87357142Y-134333333D01*
X87309523Y-134238095D01*
X87309523Y-134142857D01*
X87357142Y-134047619D01*
X87404761Y-134000000D01*
X87500000Y-133952380D01*
X87738095Y-133952380D01*
X87880952Y-134000000D01*
X88880952Y-134857142D02*
X88833333Y-134904761D01*
X88690476Y-134952380D01*
X88595238Y-134952380D01*
X88452380Y-134904761D01*
X88357142Y-134809523D01*
X88309523Y-134714285D01*
X88261904Y-134523809D01*
X88261904Y-134380952D01*
X88309523Y-134190476D01*
X88357142Y-134095238D01*
X88452380Y-134000000D01*
X88595238Y-133952380D01*
X88690476Y-133952380D01*
X88833333Y-134000000D01*
X88880952Y-134047619D01*
X89785714Y-134952380D02*
X89309523Y-134952380D01*
X89309523Y-133952380D01*
X92011904Y-133952380D02*
X92630952Y-133952380D01*
X92297619Y-134333333D01*
X92440476Y-134333333D01*
X92535714Y-134380952D01*
X92583333Y-134428571D01*
X92630952Y-134523809D01*
X92630952Y-134761904D01*
X92583333Y-134857142D01*
X92535714Y-134904761D01*
X92440476Y-134952380D01*
X92154761Y-134952380D01*
X92059523Y-134904761D01*
X92011904Y-134857142D01*
X92916666Y-133952380D02*
X93250000Y-134952380D01*
X93583333Y-133952380D01*
X93821428Y-133952380D02*
X94440476Y-133952380D01*
X94107142Y-134333333D01*
X94250000Y-134333333D01*
X94345238Y-134380952D01*
X94392857Y-134428571D01*
X94440476Y-134523809D01*
X94440476Y-134761904D01*
X94392857Y-134857142D01*
X94345238Y-134904761D01*
X94250000Y-134952380D01*
X93964285Y-134952380D01*
X93869047Y-134904761D01*
X93821428Y-134857142D01*
X91011904Y-134000000D02*
X90916666Y-133952380D01*
X90773809Y-133952380D01*
X90630952Y-134000000D01*
X90535714Y-134095238D01*
X90488095Y-134190476D01*
X90440476Y-134380952D01*
X90440476Y-134523809D01*
X90488095Y-134714285D01*
X90535714Y-134809523D01*
X90630952Y-134904761D01*
X90773809Y-134952380D01*
X90869047Y-134952380D01*
X91011904Y-134904761D01*
X91059523Y-134857142D01*
X91059523Y-134523809D01*
X90869047Y-134523809D01*
X83785714Y-134904761D02*
X83928571Y-134952380D01*
X84166666Y-134952380D01*
X84261904Y-134904761D01*
X84309523Y-134857142D01*
X84357142Y-134761904D01*
X84357142Y-134666666D01*
X84309523Y-134571428D01*
X84261904Y-134523809D01*
X84166666Y-134476190D01*
X83976190Y-134428571D01*
X83880952Y-134380952D01*
X83833333Y-134333333D01*
X83785714Y-134238095D01*
X83785714Y-134142857D01*
X83833333Y-134047619D01*
X83880952Y-134000000D01*
X83976190Y-133952380D01*
X84214285Y-133952380D01*
X84357142Y-134000000D01*
X84785714Y-134952380D02*
X84785714Y-133952380D01*
X85023809Y-133952380D01*
X85166666Y-134000000D01*
X85261904Y-134095238D01*
X85309523Y-134190476D01*
X85357142Y-134380952D01*
X85357142Y-134523809D01*
X85309523Y-134714285D01*
X85261904Y-134809523D01*
X85166666Y-134904761D01*
X85023809Y-134952380D01*
X84785714Y-134952380D01*
X85738095Y-134666666D02*
X86214285Y-134666666D01*
X85642857Y-134952380D02*
X85976190Y-133952380D01*
X86309523Y-134952380D01*
X93416666Y-147448109D02*
X93416666Y-146971919D01*
X93702380Y-147543347D02*
X92702380Y-147210014D01*
X93702380Y-146876681D01*
X93702380Y-145971919D02*
X93226190Y-146305252D01*
X93702380Y-146543347D02*
X92702380Y-146543347D01*
X92702380Y-146162395D01*
X92750000Y-146067157D01*
X92797619Y-146019538D01*
X92892857Y-145971919D01*
X93035714Y-145971919D01*
X93130952Y-146019538D01*
X93178571Y-146067157D01*
X93226190Y-146162395D01*
X93226190Y-146543347D01*
X92702380Y-145638585D02*
X93702380Y-144971919D01*
X92702380Y-144971919D02*
X93702380Y-145638585D01*
X90666666Y-147345237D02*
X90666666Y-146869046D01*
X90952380Y-147440475D02*
X89952380Y-147107141D01*
X90952380Y-146773808D01*
X89952380Y-146583332D02*
X89952380Y-146011903D01*
X90952380Y-146297618D02*
X89952380Y-146297618D01*
X89952380Y-145773808D02*
X90952380Y-145107141D01*
X89952380Y-145107141D02*
X90952380Y-145773808D01*
X87500000Y-147011904D02*
X87452380Y-147107142D01*
X87452380Y-147250000D01*
X87500000Y-147392857D01*
X87595238Y-147488095D01*
X87690476Y-147535714D01*
X87880952Y-147583333D01*
X88023809Y-147583333D01*
X88214285Y-147535714D01*
X88309523Y-147488095D01*
X88404761Y-147392857D01*
X88452380Y-147250000D01*
X88452380Y-147154761D01*
X88404761Y-147011904D01*
X88357142Y-146964285D01*
X88023809Y-146964285D01*
X88023809Y-147154761D01*
X88452380Y-146535714D02*
X87452380Y-146535714D01*
X88452380Y-145964285D01*
X87452380Y-145964285D01*
X88452380Y-145488095D02*
X87452380Y-145488095D01*
X87452380Y-145250000D01*
X87500000Y-145107142D01*
X87595238Y-145011904D01*
X87690476Y-144964285D01*
X87880952Y-144916666D01*
X88023809Y-144916666D01*
X88214285Y-144964285D01*
X88309523Y-145011904D01*
X88404761Y-145107142D01*
X88452380Y-145250000D01*
X88452380Y-145488095D01*
X84952380Y-147488095D02*
X84952380Y-146869047D01*
X85333333Y-147202380D01*
X85333333Y-147059523D01*
X85380952Y-146964285D01*
X85428571Y-146916666D01*
X85523809Y-146869047D01*
X85761904Y-146869047D01*
X85857142Y-146916666D01*
X85904761Y-146964285D01*
X85952380Y-147059523D01*
X85952380Y-147345238D01*
X85904761Y-147440476D01*
X85857142Y-147488095D01*
X84952380Y-146583333D02*
X85952380Y-146250000D01*
X84952380Y-145916666D01*
X84952380Y-145678571D02*
X84952380Y-145059523D01*
X85333333Y-145392857D01*
X85333333Y-145250000D01*
X85380952Y-145154761D01*
X85428571Y-145107142D01*
X85523809Y-145059523D01*
X85761904Y-145059523D01*
X85857142Y-145107142D01*
X85904761Y-145154761D01*
X85952380Y-145250000D01*
X85952380Y-145535714D01*
X85904761Y-145630952D01*
X85857142Y-145678571D01*
X128214285Y-138047619D02*
X128261904Y-138000000D01*
X128357142Y-137952380D01*
X128595238Y-137952380D01*
X128690476Y-138000000D01*
X128738095Y-138047619D01*
X128785714Y-138142857D01*
X128785714Y-138238095D01*
X128738095Y-138380952D01*
X128166666Y-138952380D01*
X128785714Y-138952380D01*
X130666666Y-137952380D02*
X131285714Y-137952380D01*
X130952380Y-138333333D01*
X131095238Y-138333333D01*
X131190476Y-138380952D01*
X131238095Y-138428571D01*
X131285714Y-138523809D01*
X131285714Y-138761904D01*
X131238095Y-138857142D01*
X131190476Y-138904761D01*
X131095238Y-138952380D01*
X130809523Y-138952380D01*
X130714285Y-138904761D01*
X130666666Y-138857142D01*
X135666666Y-137952380D02*
X136333333Y-137952380D01*
X135904761Y-138952380D01*
X133690476Y-137952380D02*
X133500000Y-137952380D01*
X133404761Y-138000000D01*
X133357142Y-138047619D01*
X133261904Y-138190476D01*
X133214285Y-138380952D01*
X133214285Y-138761904D01*
X133261904Y-138857142D01*
X133309523Y-138904761D01*
X133404761Y-138952380D01*
X133595238Y-138952380D01*
X133690476Y-138904761D01*
X133738095Y-138857142D01*
X133785714Y-138761904D01*
X133785714Y-138523809D01*
X133738095Y-138428571D01*
X133690476Y-138380952D01*
X133595238Y-138333333D01*
X133404761Y-138333333D01*
X133309523Y-138380952D01*
X133261904Y-138428571D01*
X133214285Y-138523809D01*
X135809523Y-130952380D02*
X135238095Y-130952380D01*
X135523809Y-130952380D02*
X135523809Y-129952380D01*
X135428571Y-130095238D01*
X135333333Y-130190476D01*
X135238095Y-130238095D01*
X136142857Y-129952380D02*
X136761904Y-129952380D01*
X136428571Y-130333333D01*
X136571428Y-130333333D01*
X136666666Y-130380952D01*
X136714285Y-130428571D01*
X136761904Y-130523809D01*
X136761904Y-130761904D01*
X136714285Y-130857142D01*
X136666666Y-130904761D01*
X136571428Y-130952380D01*
X136285714Y-130952380D01*
X136190476Y-130904761D01*
X136142857Y-130857142D01*
X133309523Y-130952380D02*
X132738095Y-130952380D01*
X133023809Y-130952380D02*
X133023809Y-129952380D01*
X132928571Y-130095238D01*
X132833333Y-130190476D01*
X132738095Y-130238095D01*
X133690476Y-130047619D02*
X133738095Y-130000000D01*
X133833333Y-129952380D01*
X134071428Y-129952380D01*
X134166666Y-130000000D01*
X134214285Y-130047619D01*
X134261904Y-130142857D01*
X134261904Y-130238095D01*
X134214285Y-130380952D01*
X133642857Y-130952380D01*
X134261904Y-130952380D01*
X130809523Y-130952380D02*
X130238095Y-130952380D01*
X130523809Y-130952380D02*
X130523809Y-129952380D01*
X130428571Y-130095238D01*
X130333333Y-130190476D01*
X130238095Y-130238095D01*
X131761904Y-130952380D02*
X131190476Y-130952380D01*
X131476190Y-130952380D02*
X131476190Y-129952380D01*
X131380952Y-130095238D01*
X131285714Y-130190476D01*
X131190476Y-130238095D01*
X128309523Y-130952380D02*
X127738095Y-130952380D01*
X128023809Y-130952380D02*
X128023809Y-129952380D01*
X127928571Y-130095238D01*
X127833333Y-130190476D01*
X127738095Y-130238095D01*
X128928571Y-129952380D02*
X129023809Y-129952380D01*
X129119047Y-130000000D01*
X129166666Y-130047619D01*
X129214285Y-130142857D01*
X129261904Y-130333333D01*
X129261904Y-130571428D01*
X129214285Y-130761904D01*
X129166666Y-130857142D01*
X129119047Y-130904761D01*
X129023809Y-130952380D01*
X128928571Y-130952380D01*
X128833333Y-130904761D01*
X128785714Y-130857142D01*
X128738095Y-130761904D01*
X128690476Y-130571428D01*
X128690476Y-130333333D01*
X128738095Y-130142857D01*
X128785714Y-130047619D01*
X128833333Y-130000000D01*
X128928571Y-129952380D01*
X134011904Y-118000000D02*
X133916666Y-117952380D01*
X133773809Y-117952380D01*
X133630952Y-118000000D01*
X133535714Y-118095238D01*
X133488095Y-118190476D01*
X133440476Y-118380952D01*
X133440476Y-118523809D01*
X133488095Y-118714285D01*
X133535714Y-118809523D01*
X133630952Y-118904761D01*
X133773809Y-118952380D01*
X133869047Y-118952380D01*
X134011904Y-118904761D01*
X134059523Y-118857142D01*
X134059523Y-118523809D01*
X133869047Y-118523809D01*
X135011904Y-117952380D02*
X135630952Y-117952380D01*
X135297619Y-118333333D01*
X135440476Y-118333333D01*
X135535714Y-118380952D01*
X135583333Y-118428571D01*
X135630952Y-118523809D01*
X135630952Y-118761904D01*
X135583333Y-118857142D01*
X135535714Y-118904761D01*
X135440476Y-118952380D01*
X135154761Y-118952380D01*
X135059523Y-118904761D01*
X135011904Y-118857142D01*
X135916666Y-117952380D02*
X136250000Y-118952380D01*
X136583333Y-117952380D01*
X136821428Y-117952380D02*
X137440476Y-117952380D01*
X137107142Y-118333333D01*
X137250000Y-118333333D01*
X137345238Y-118380952D01*
X137392857Y-118428571D01*
X137440476Y-118523809D01*
X137440476Y-118761904D01*
X137392857Y-118857142D01*
X137345238Y-118904761D01*
X137250000Y-118952380D01*
X136964285Y-118952380D01*
X136869047Y-118904761D01*
X136821428Y-118857142D01*
X130809523Y-118952380D02*
X130238095Y-118952380D01*
X130523809Y-118952380D02*
X130523809Y-117952380D01*
X130428571Y-118095238D01*
X130333333Y-118190476D01*
X130238095Y-118238095D01*
X131666666Y-118285714D02*
X131666666Y-118952380D01*
X131428571Y-117904761D02*
X131190476Y-118619047D01*
X131809523Y-118619047D01*
X135011904Y-109952380D02*
X135630952Y-109952380D01*
X135297619Y-110333333D01*
X135440476Y-110333333D01*
X135535714Y-110380952D01*
X135583333Y-110428571D01*
X135630952Y-110523809D01*
X135630952Y-110761904D01*
X135583333Y-110857142D01*
X135535714Y-110904761D01*
X135440476Y-110952380D01*
X135154761Y-110952380D01*
X135059523Y-110904761D01*
X135011904Y-110857142D01*
X135916666Y-109952380D02*
X136250000Y-110952380D01*
X136583333Y-109952380D01*
X136821428Y-109952380D02*
X137440476Y-109952380D01*
X137107142Y-110333333D01*
X137250000Y-110333333D01*
X137345238Y-110380952D01*
X137392857Y-110428571D01*
X137440476Y-110523809D01*
X137440476Y-110761904D01*
X137392857Y-110857142D01*
X137345238Y-110904761D01*
X137250000Y-110952380D01*
X136964285Y-110952380D01*
X136869047Y-110904761D01*
X136821428Y-110857142D01*
X130809523Y-110952380D02*
X130238095Y-110952380D01*
X130523809Y-110952380D02*
X130523809Y-109952380D01*
X130428571Y-110095238D01*
X130333333Y-110190476D01*
X130238095Y-110238095D01*
X131714285Y-109952380D02*
X131238095Y-109952380D01*
X131190476Y-110428571D01*
X131238095Y-110380952D01*
X131333333Y-110333333D01*
X131571428Y-110333333D01*
X131666666Y-110380952D01*
X131714285Y-110428571D01*
X131761904Y-110523809D01*
X131761904Y-110761904D01*
X131714285Y-110857142D01*
X131666666Y-110904761D01*
X131571428Y-110952380D01*
X131333333Y-110952380D01*
X131238095Y-110904761D01*
X131190476Y-110857142D01*
X134011904Y-110000000D02*
X133916666Y-109952380D01*
X133773809Y-109952380D01*
X133630952Y-110000000D01*
X133535714Y-110095238D01*
X133488095Y-110190476D01*
X133440476Y-110380952D01*
X133440476Y-110523809D01*
X133488095Y-110714285D01*
X133535714Y-110809523D01*
X133630952Y-110904761D01*
X133773809Y-110952380D01*
X133869047Y-110952380D01*
X134011904Y-110904761D01*
X134059523Y-110857142D01*
X134059523Y-110523809D01*
X133869047Y-110523809D01*
X134011904Y-102000000D02*
X133916666Y-101952380D01*
X133773809Y-101952380D01*
X133630952Y-102000000D01*
X133535714Y-102095238D01*
X133488095Y-102190476D01*
X133440476Y-102380952D01*
X133440476Y-102523809D01*
X133488095Y-102714285D01*
X133535714Y-102809523D01*
X133630952Y-102904761D01*
X133773809Y-102952380D01*
X133869047Y-102952380D01*
X134011904Y-102904761D01*
X134059523Y-102857142D01*
X134059523Y-102523809D01*
X133869047Y-102523809D01*
X135011904Y-101952380D02*
X135630952Y-101952380D01*
X135297619Y-102333333D01*
X135440476Y-102333333D01*
X135535714Y-102380952D01*
X135583333Y-102428571D01*
X135630952Y-102523809D01*
X135630952Y-102761904D01*
X135583333Y-102857142D01*
X135535714Y-102904761D01*
X135440476Y-102952380D01*
X135154761Y-102952380D01*
X135059523Y-102904761D01*
X135011904Y-102857142D01*
X135916666Y-101952380D02*
X136250000Y-102952380D01*
X136583333Y-101952380D01*
X136821428Y-101952380D02*
X137440476Y-101952380D01*
X137107142Y-102333333D01*
X137250000Y-102333333D01*
X137345238Y-102380952D01*
X137392857Y-102428571D01*
X137440476Y-102523809D01*
X137440476Y-102761904D01*
X137392857Y-102857142D01*
X137345238Y-102904761D01*
X137250000Y-102952380D01*
X136964285Y-102952380D01*
X136869047Y-102904761D01*
X136821428Y-102857142D01*
X130238095Y-102047619D02*
X130285714Y-102000000D01*
X130380952Y-101952380D01*
X130619047Y-101952380D01*
X130714285Y-102000000D01*
X130761904Y-102047619D01*
X130809523Y-102142857D01*
X130809523Y-102238095D01*
X130761904Y-102380952D01*
X130190476Y-102952380D01*
X130809523Y-102952380D01*
X131761904Y-102952380D02*
X131190476Y-102952380D01*
X131476190Y-102952380D02*
X131476190Y-101952380D01*
X131380952Y-102095238D01*
X131285714Y-102190476D01*
X131190476Y-102238095D01*
X130238095Y-94047619D02*
X130285714Y-94000000D01*
X130380952Y-93952380D01*
X130619047Y-93952380D01*
X130714285Y-94000000D01*
X130761904Y-94047619D01*
X130809523Y-94142857D01*
X130809523Y-94238095D01*
X130761904Y-94380952D01*
X130190476Y-94952380D01*
X130809523Y-94952380D01*
X131428571Y-93952380D02*
X131523809Y-93952380D01*
X131619047Y-94000000D01*
X131666666Y-94047619D01*
X131714285Y-94142857D01*
X131761904Y-94333333D01*
X131761904Y-94571428D01*
X131714285Y-94761904D01*
X131666666Y-94857142D01*
X131619047Y-94904761D01*
X131523809Y-94952380D01*
X131428571Y-94952380D01*
X131333333Y-94904761D01*
X131285714Y-94857142D01*
X131238095Y-94761904D01*
X131190476Y-94571428D01*
X131190476Y-94333333D01*
X131238095Y-94142857D01*
X131285714Y-94047619D01*
X131333333Y-94000000D01*
X131428571Y-93952380D01*
X135011904Y-93952380D02*
X135630952Y-93952380D01*
X135297619Y-94333333D01*
X135440476Y-94333333D01*
X135535714Y-94380952D01*
X135583333Y-94428571D01*
X135630952Y-94523809D01*
X135630952Y-94761904D01*
X135583333Y-94857142D01*
X135535714Y-94904761D01*
X135440476Y-94952380D01*
X135154761Y-94952380D01*
X135059523Y-94904761D01*
X135011904Y-94857142D01*
X135916666Y-93952380D02*
X136250000Y-94952380D01*
X136583333Y-93952380D01*
X136821428Y-93952380D02*
X137440476Y-93952380D01*
X137107142Y-94333333D01*
X137250000Y-94333333D01*
X137345238Y-94380952D01*
X137392857Y-94428571D01*
X137440476Y-94523809D01*
X137440476Y-94761904D01*
X137392857Y-94857142D01*
X137345238Y-94904761D01*
X137250000Y-94952380D01*
X136964285Y-94952380D01*
X136869047Y-94904761D01*
X136821428Y-94857142D01*
X134011904Y-94000000D02*
X133916666Y-93952380D01*
X133773809Y-93952380D01*
X133630952Y-94000000D01*
X133535714Y-94095238D01*
X133488095Y-94190476D01*
X133440476Y-94380952D01*
X133440476Y-94523809D01*
X133488095Y-94714285D01*
X133535714Y-94809523D01*
X133630952Y-94904761D01*
X133773809Y-94952380D01*
X133869047Y-94952380D01*
X134011904Y-94904761D01*
X134059523Y-94857142D01*
X134059523Y-94523809D01*
X133869047Y-94523809D01*
X118202380Y-64690476D02*
X118202380Y-65166666D01*
X118678571Y-65214285D01*
X118630952Y-65166666D01*
X118583333Y-65071428D01*
X118583333Y-64833333D01*
X118630952Y-64738095D01*
X118678571Y-64690476D01*
X118773809Y-64642857D01*
X119011904Y-64642857D01*
X119107142Y-64690476D01*
X119154761Y-64738095D01*
X119202380Y-64833333D01*
X119202380Y-65071428D01*
X119154761Y-65166666D01*
X119107142Y-65214285D01*
X118202380Y-64357142D02*
X119202380Y-64023809D01*
X118202380Y-63690476D01*
X131000000Y-64011904D02*
X130952380Y-64107142D01*
X130952380Y-64250000D01*
X131000000Y-64392857D01*
X131095238Y-64488095D01*
X131190476Y-64535714D01*
X131380952Y-64583333D01*
X131523809Y-64583333D01*
X131714285Y-64535714D01*
X131809523Y-64488095D01*
X131904761Y-64392857D01*
X131952380Y-64250000D01*
X131952380Y-64154761D01*
X131904761Y-64011904D01*
X131857142Y-63964285D01*
X131523809Y-63964285D01*
X131523809Y-64154761D01*
X131952380Y-63535714D02*
X130952380Y-63535714D01*
X131952380Y-62964285D01*
X130952380Y-62964285D01*
X131952380Y-62488095D02*
X130952380Y-62488095D01*
X130952380Y-62250000D01*
X131000000Y-62107142D01*
X131095238Y-62011904D01*
X131190476Y-61964285D01*
X131380952Y-61916666D01*
X131523809Y-61916666D01*
X131714285Y-61964285D01*
X131809523Y-62011904D01*
X131904761Y-62107142D01*
X131952380Y-62250000D01*
X131952380Y-62488095D01*
X125202380Y-85595238D02*
X126202380Y-85261904D01*
X125202380Y-84928571D01*
X126202380Y-84595238D02*
X125202380Y-84595238D01*
X126202380Y-84119047D02*
X125202380Y-84119047D01*
X126202380Y-83547619D01*
X125202380Y-83547619D01*
X131666666Y-69952380D02*
X132000000Y-70952380D01*
X132333333Y-69952380D01*
X133238095Y-70857142D02*
X133190476Y-70904761D01*
X133047619Y-70952380D01*
X132952380Y-70952380D01*
X132809523Y-70904761D01*
X132714285Y-70809523D01*
X132666666Y-70714285D01*
X132619047Y-70523809D01*
X132619047Y-70380952D01*
X132666666Y-70190476D01*
X132714285Y-70095238D01*
X132809523Y-70000000D01*
X132952380Y-69952380D01*
X133047619Y-69952380D01*
X133190476Y-70000000D01*
X133238095Y-70047619D01*
X134238095Y-70857142D02*
X134190476Y-70904761D01*
X134047619Y-70952380D01*
X133952380Y-70952380D01*
X133809523Y-70904761D01*
X133714285Y-70809523D01*
X133666666Y-70714285D01*
X133619047Y-70523809D01*
X133619047Y-70380952D01*
X133666666Y-70190476D01*
X133714285Y-70095238D01*
X133809523Y-70000000D01*
X133952380Y-69952380D01*
X134047619Y-69952380D01*
X134190476Y-70000000D01*
X134238095Y-70047619D01*
X125250000Y-79761904D02*
X125202380Y-79857142D01*
X125202380Y-80000000D01*
X125250000Y-80142857D01*
X125345238Y-80238095D01*
X125440476Y-80285714D01*
X125630952Y-80333333D01*
X125773809Y-80333333D01*
X125964285Y-80285714D01*
X126059523Y-80238095D01*
X126154761Y-80142857D01*
X126202380Y-80000000D01*
X126202380Y-79904761D01*
X126154761Y-79761904D01*
X126107142Y-79714285D01*
X125773809Y-79714285D01*
X125773809Y-79904761D01*
X126202380Y-79285714D02*
X125202380Y-79285714D01*
X126202380Y-78714285D01*
X125202380Y-78714285D01*
X126202380Y-78238095D02*
X125202380Y-78238095D01*
X125202380Y-78000000D01*
X125250000Y-77857142D01*
X125345238Y-77761904D01*
X125440476Y-77714285D01*
X125630952Y-77666666D01*
X125773809Y-77666666D01*
X125964285Y-77714285D01*
X126059523Y-77761904D01*
X126154761Y-77857142D01*
X126202380Y-78000000D01*
X126202380Y-78238095D01*
X125250000Y-90511904D02*
X125202380Y-90607142D01*
X125202380Y-90750000D01*
X125250000Y-90892857D01*
X125345238Y-90988095D01*
X125440476Y-91035714D01*
X125630952Y-91083333D01*
X125773809Y-91083333D01*
X125964285Y-91035714D01*
X126059523Y-90988095D01*
X126154761Y-90892857D01*
X126202380Y-90750000D01*
X126202380Y-90654761D01*
X126154761Y-90511904D01*
X126107142Y-90464285D01*
X125773809Y-90464285D01*
X125773809Y-90654761D01*
X126202380Y-90035714D02*
X125202380Y-90035714D01*
X126202380Y-89464285D01*
X125202380Y-89464285D01*
X126202380Y-88988095D02*
X125202380Y-88988095D01*
X125202380Y-88750000D01*
X125250000Y-88607142D01*
X125345238Y-88511904D01*
X125440476Y-88464285D01*
X125630952Y-88416666D01*
X125773809Y-88416666D01*
X125964285Y-88464285D01*
X126059523Y-88511904D01*
X126154761Y-88607142D01*
X126202380Y-88750000D01*
X126202380Y-88988095D01*
%TO.C,R16*%
X53857142Y-143952380D02*
X53523809Y-143476190D01*
X53285714Y-143952380D02*
X53285714Y-142952380D01*
X53666666Y-142952380D01*
X53761904Y-143000000D01*
X53809523Y-143047619D01*
X53857142Y-143142857D01*
X53857142Y-143285714D01*
X53809523Y-143380952D01*
X53761904Y-143428571D01*
X53666666Y-143476190D01*
X53285714Y-143476190D01*
X54809523Y-143952380D02*
X54238095Y-143952380D01*
X54523809Y-143952380D02*
X54523809Y-142952380D01*
X54428571Y-143095238D01*
X54333333Y-143190476D01*
X54238095Y-143238095D01*
X55666666Y-142952380D02*
X55476190Y-142952380D01*
X55380952Y-143000000D01*
X55333333Y-143047619D01*
X55238095Y-143190476D01*
X55190476Y-143380952D01*
X55190476Y-143761904D01*
X55238095Y-143857142D01*
X55285714Y-143904761D01*
X55380952Y-143952380D01*
X55571428Y-143952380D01*
X55666666Y-143904761D01*
X55714285Y-143857142D01*
X55761904Y-143761904D01*
X55761904Y-143523809D01*
X55714285Y-143428571D01*
X55666666Y-143380952D01*
X55571428Y-143333333D01*
X55380952Y-143333333D01*
X55285714Y-143380952D01*
X55238095Y-143428571D01*
X55190476Y-143523809D01*
%TO.C,R6*%
X82452380Y-139166666D02*
X81976190Y-139500000D01*
X82452380Y-139738095D02*
X81452380Y-139738095D01*
X81452380Y-139357142D01*
X81500000Y-139261904D01*
X81547619Y-139214285D01*
X81642857Y-139166666D01*
X81785714Y-139166666D01*
X81880952Y-139214285D01*
X81928571Y-139261904D01*
X81976190Y-139357142D01*
X81976190Y-139738095D01*
X81452380Y-138309523D02*
X81452380Y-138500000D01*
X81500000Y-138595238D01*
X81547619Y-138642857D01*
X81690476Y-138738095D01*
X81880952Y-138785714D01*
X82261904Y-138785714D01*
X82357142Y-138738095D01*
X82404761Y-138690476D01*
X82452380Y-138595238D01*
X82452380Y-138404761D01*
X82404761Y-138309523D01*
X82357142Y-138261904D01*
X82261904Y-138214285D01*
X82023809Y-138214285D01*
X81928571Y-138261904D01*
X81880952Y-138309523D01*
X81833333Y-138404761D01*
X81833333Y-138595238D01*
X81880952Y-138690476D01*
X81928571Y-138738095D01*
X82023809Y-138785714D01*
%TO.C,C1*%
X102037142Y-73166666D02*
X102084761Y-73214285D01*
X102132380Y-73357142D01*
X102132380Y-73452380D01*
X102084761Y-73595238D01*
X101989523Y-73690476D01*
X101894285Y-73738095D01*
X101703809Y-73785714D01*
X101560952Y-73785714D01*
X101370476Y-73738095D01*
X101275238Y-73690476D01*
X101180000Y-73595238D01*
X101132380Y-73452380D01*
X101132380Y-73357142D01*
X101180000Y-73214285D01*
X101227619Y-73166666D01*
X102132380Y-72214285D02*
X102132380Y-72785714D01*
X102132380Y-72500000D02*
X101132380Y-72500000D01*
X101275238Y-72595238D01*
X101370476Y-72690476D01*
X101418095Y-72785714D01*
%TO.C,U1*%
X117770904Y-147704119D02*
X117770904Y-146894595D01*
X117723285Y-146799357D01*
X117675666Y-146751738D01*
X117580428Y-146704119D01*
X117389952Y-146704119D01*
X117294714Y-146751738D01*
X117247095Y-146799357D01*
X117199476Y-146894595D01*
X117199476Y-147704119D01*
X116199476Y-146704119D02*
X116770904Y-146704119D01*
X116485190Y-146704119D02*
X116485190Y-147704119D01*
X116580428Y-147561261D01*
X116675666Y-147466023D01*
X116770904Y-147418404D01*
X109752904Y-144151119D02*
X109752904Y-143341595D01*
X109705285Y-143246357D01*
X109657666Y-143198738D01*
X109562428Y-143151119D01*
X109371952Y-143151119D01*
X109276714Y-143198738D01*
X109229095Y-143246357D01*
X109181476Y-143341595D01*
X109181476Y-144151119D01*
X108752904Y-143198738D02*
X108610047Y-143151119D01*
X108371952Y-143151119D01*
X108276714Y-143198738D01*
X108229095Y-143246357D01*
X108181476Y-143341595D01*
X108181476Y-143436833D01*
X108229095Y-143532071D01*
X108276714Y-143579690D01*
X108371952Y-143627309D01*
X108562428Y-143674928D01*
X108657666Y-143722547D01*
X108705285Y-143770166D01*
X108752904Y-143865404D01*
X108752904Y-143960642D01*
X108705285Y-144055880D01*
X108657666Y-144103500D01*
X108562428Y-144151119D01*
X108324333Y-144151119D01*
X108181476Y-144103500D01*
X107419571Y-143674928D02*
X107276714Y-143627309D01*
X107229095Y-143579690D01*
X107181476Y-143484452D01*
X107181476Y-143341595D01*
X107229095Y-143246357D01*
X107276714Y-143198738D01*
X107371952Y-143151119D01*
X107752904Y-143151119D01*
X107752904Y-144151119D01*
X107419571Y-144151119D01*
X107324333Y-144103500D01*
X107276714Y-144055880D01*
X107229095Y-143960642D01*
X107229095Y-143865404D01*
X107276714Y-143770166D01*
X107324333Y-143722547D01*
X107419571Y-143674928D01*
X107752904Y-143674928D01*
%TO.C,VIN*%
X119904761Y-83452380D02*
X120238095Y-84452380D01*
X120571428Y-83452380D01*
X120904761Y-84452380D02*
X120904761Y-83452380D01*
X121380952Y-84452380D02*
X121380952Y-83452380D01*
X121952380Y-84452380D01*
X121952380Y-83452380D01*
%TO.C,R5*%
X120333333Y-72352380D02*
X120000000Y-71876190D01*
X119761904Y-72352380D02*
X119761904Y-71352380D01*
X120142857Y-71352380D01*
X120238095Y-71400000D01*
X120285714Y-71447619D01*
X120333333Y-71542857D01*
X120333333Y-71685714D01*
X120285714Y-71780952D01*
X120238095Y-71828571D01*
X120142857Y-71876190D01*
X119761904Y-71876190D01*
X121238095Y-71352380D02*
X120761904Y-71352380D01*
X120714285Y-71828571D01*
X120761904Y-71780952D01*
X120857142Y-71733333D01*
X121095238Y-71733333D01*
X121190476Y-71780952D01*
X121238095Y-71828571D01*
X121285714Y-71923809D01*
X121285714Y-72161904D01*
X121238095Y-72257142D01*
X121190476Y-72304761D01*
X121095238Y-72352380D01*
X120857142Y-72352380D01*
X120761904Y-72304761D01*
X120714285Y-72257142D01*
%TO.C,R15*%
X53857142Y-138952380D02*
X53523809Y-138476190D01*
X53285714Y-138952380D02*
X53285714Y-137952380D01*
X53666666Y-137952380D01*
X53761904Y-138000000D01*
X53809523Y-138047619D01*
X53857142Y-138142857D01*
X53857142Y-138285714D01*
X53809523Y-138380952D01*
X53761904Y-138428571D01*
X53666666Y-138476190D01*
X53285714Y-138476190D01*
X54809523Y-138952380D02*
X54238095Y-138952380D01*
X54523809Y-138952380D02*
X54523809Y-137952380D01*
X54428571Y-138095238D01*
X54333333Y-138190476D01*
X54238095Y-138238095D01*
X55714285Y-137952380D02*
X55238095Y-137952380D01*
X55190476Y-138428571D01*
X55238095Y-138380952D01*
X55333333Y-138333333D01*
X55571428Y-138333333D01*
X55666666Y-138380952D01*
X55714285Y-138428571D01*
X55761904Y-138523809D01*
X55761904Y-138761904D01*
X55714285Y-138857142D01*
X55666666Y-138904761D01*
X55571428Y-138952380D01*
X55333333Y-138952380D01*
X55238095Y-138904761D01*
X55190476Y-138857142D01*
%TO.C,C3*%
X115357142Y-58166666D02*
X115404761Y-58214285D01*
X115452380Y-58357142D01*
X115452380Y-58452380D01*
X115404761Y-58595238D01*
X115309523Y-58690476D01*
X115214285Y-58738095D01*
X115023809Y-58785714D01*
X114880952Y-58785714D01*
X114690476Y-58738095D01*
X114595238Y-58690476D01*
X114500000Y-58595238D01*
X114452380Y-58452380D01*
X114452380Y-58357142D01*
X114500000Y-58214285D01*
X114547619Y-58166666D01*
X114452380Y-57833333D02*
X114452380Y-57214285D01*
X114833333Y-57547619D01*
X114833333Y-57404761D01*
X114880952Y-57309523D01*
X114928571Y-57261904D01*
X115023809Y-57214285D01*
X115261904Y-57214285D01*
X115357142Y-57261904D01*
X115404761Y-57309523D01*
X115452380Y-57404761D01*
X115452380Y-57690476D01*
X115404761Y-57785714D01*
X115357142Y-57833333D01*
%TO.C,R1*%
X123952380Y-80416666D02*
X123476190Y-80750000D01*
X123952380Y-80988095D02*
X122952380Y-80988095D01*
X122952380Y-80607142D01*
X123000000Y-80511904D01*
X123047619Y-80464285D01*
X123142857Y-80416666D01*
X123285714Y-80416666D01*
X123380952Y-80464285D01*
X123428571Y-80511904D01*
X123476190Y-80607142D01*
X123476190Y-80988095D01*
X123952380Y-79464285D02*
X123952380Y-80035714D01*
X123952380Y-79750000D02*
X122952380Y-79750000D01*
X123095238Y-79845238D01*
X123190476Y-79940476D01*
X123238095Y-80035714D01*
%TO.C,R3*%
X118452380Y-82666666D02*
X117976190Y-83000000D01*
X118452380Y-83238095D02*
X117452380Y-83238095D01*
X117452380Y-82857142D01*
X117500000Y-82761904D01*
X117547619Y-82714285D01*
X117642857Y-82666666D01*
X117785714Y-82666666D01*
X117880952Y-82714285D01*
X117928571Y-82761904D01*
X117976190Y-82857142D01*
X117976190Y-83238095D01*
X117452380Y-82333333D02*
X117452380Y-81714285D01*
X117833333Y-82047619D01*
X117833333Y-81904761D01*
X117880952Y-81809523D01*
X117928571Y-81761904D01*
X118023809Y-81714285D01*
X118261904Y-81714285D01*
X118357142Y-81761904D01*
X118404761Y-81809523D01*
X118452380Y-81904761D01*
X118452380Y-82190476D01*
X118404761Y-82285714D01*
X118357142Y-82333333D01*
%TO.C,R13*%
X53857142Y-126452380D02*
X53523809Y-125976190D01*
X53285714Y-126452380D02*
X53285714Y-125452380D01*
X53666666Y-125452380D01*
X53761904Y-125500000D01*
X53809523Y-125547619D01*
X53857142Y-125642857D01*
X53857142Y-125785714D01*
X53809523Y-125880952D01*
X53761904Y-125928571D01*
X53666666Y-125976190D01*
X53285714Y-125976190D01*
X54809523Y-126452380D02*
X54238095Y-126452380D01*
X54523809Y-126452380D02*
X54523809Y-125452380D01*
X54428571Y-125595238D01*
X54333333Y-125690476D01*
X54238095Y-125738095D01*
X55142857Y-125452380D02*
X55761904Y-125452380D01*
X55428571Y-125833333D01*
X55571428Y-125833333D01*
X55666666Y-125880952D01*
X55714285Y-125928571D01*
X55761904Y-126023809D01*
X55761904Y-126261904D01*
X55714285Y-126357142D01*
X55666666Y-126404761D01*
X55571428Y-126452380D01*
X55285714Y-126452380D01*
X55190476Y-126404761D01*
X55142857Y-126357142D01*
%TO.C,R10*%
X53857142Y-141452380D02*
X53523809Y-140976190D01*
X53285714Y-141452380D02*
X53285714Y-140452380D01*
X53666666Y-140452380D01*
X53761904Y-140500000D01*
X53809523Y-140547619D01*
X53857142Y-140642857D01*
X53857142Y-140785714D01*
X53809523Y-140880952D01*
X53761904Y-140928571D01*
X53666666Y-140976190D01*
X53285714Y-140976190D01*
X54809523Y-141452380D02*
X54238095Y-141452380D01*
X54523809Y-141452380D02*
X54523809Y-140452380D01*
X54428571Y-140595238D01*
X54333333Y-140690476D01*
X54238095Y-140738095D01*
X55428571Y-140452380D02*
X55523809Y-140452380D01*
X55619047Y-140500000D01*
X55666666Y-140547619D01*
X55714285Y-140642857D01*
X55761904Y-140833333D01*
X55761904Y-141071428D01*
X55714285Y-141261904D01*
X55666666Y-141357142D01*
X55619047Y-141404761D01*
X55523809Y-141452380D01*
X55428571Y-141452380D01*
X55333333Y-141404761D01*
X55285714Y-141357142D01*
X55238095Y-141261904D01*
X55190476Y-141071428D01*
X55190476Y-140833333D01*
X55238095Y-140642857D01*
X55285714Y-140547619D01*
X55333333Y-140500000D01*
X55428571Y-140452380D01*
%TO.C,C5*%
X62357142Y-78166666D02*
X62404761Y-78214285D01*
X62452380Y-78357142D01*
X62452380Y-78452380D01*
X62404761Y-78595238D01*
X62309523Y-78690476D01*
X62214285Y-78738095D01*
X62023809Y-78785714D01*
X61880952Y-78785714D01*
X61690476Y-78738095D01*
X61595238Y-78690476D01*
X61500000Y-78595238D01*
X61452380Y-78452380D01*
X61452380Y-78357142D01*
X61500000Y-78214285D01*
X61547619Y-78166666D01*
X61452380Y-77261904D02*
X61452380Y-77738095D01*
X61928571Y-77785714D01*
X61880952Y-77738095D01*
X61833333Y-77642857D01*
X61833333Y-77404761D01*
X61880952Y-77309523D01*
X61928571Y-77261904D01*
X62023809Y-77214285D01*
X62261904Y-77214285D01*
X62357142Y-77261904D01*
X62404761Y-77309523D01*
X62452380Y-77404761D01*
X62452380Y-77642857D01*
X62404761Y-77738095D01*
X62357142Y-77785714D01*
%TO.C,R17*%
X53857142Y-118952380D02*
X53523809Y-118476190D01*
X53285714Y-118952380D02*
X53285714Y-117952380D01*
X53666666Y-117952380D01*
X53761904Y-118000000D01*
X53809523Y-118047619D01*
X53857142Y-118142857D01*
X53857142Y-118285714D01*
X53809523Y-118380952D01*
X53761904Y-118428571D01*
X53666666Y-118476190D01*
X53285714Y-118476190D01*
X54809523Y-118952380D02*
X54238095Y-118952380D01*
X54523809Y-118952380D02*
X54523809Y-117952380D01*
X54428571Y-118095238D01*
X54333333Y-118190476D01*
X54238095Y-118238095D01*
X55142857Y-117952380D02*
X55809523Y-117952380D01*
X55380952Y-118952380D01*
%TO.C,D1*%
X65761904Y-73952380D02*
X65761904Y-72952380D01*
X66000000Y-72952380D01*
X66142857Y-73000000D01*
X66238095Y-73095238D01*
X66285714Y-73190476D01*
X66333333Y-73380952D01*
X66333333Y-73523809D01*
X66285714Y-73714285D01*
X66238095Y-73809523D01*
X66142857Y-73904761D01*
X66000000Y-73952380D01*
X65761904Y-73952380D01*
X67285714Y-73952380D02*
X66714285Y-73952380D01*
X67000000Y-73952380D02*
X67000000Y-72952380D01*
X66904761Y-73095238D01*
X66809523Y-73190476D01*
X66714285Y-73238095D01*
%TO.C,*%
%TO.C,U2*%
X102238095Y-75952380D02*
X102238095Y-76761904D01*
X102285714Y-76857142D01*
X102333333Y-76904761D01*
X102428571Y-76952380D01*
X102619047Y-76952380D01*
X102714285Y-76904761D01*
X102761904Y-76857142D01*
X102809523Y-76761904D01*
X102809523Y-75952380D01*
X103238095Y-76047619D02*
X103285714Y-76000000D01*
X103380952Y-75952380D01*
X103619047Y-75952380D01*
X103714285Y-76000000D01*
X103761904Y-76047619D01*
X103809523Y-76142857D01*
X103809523Y-76238095D01*
X103761904Y-76380952D01*
X103190476Y-76952380D01*
X103809523Y-76952380D01*
%TO.C,VCC*%
X122416666Y-75952380D02*
X122750000Y-76952380D01*
X123083333Y-75952380D01*
X123988095Y-76857142D02*
X123940476Y-76904761D01*
X123797619Y-76952380D01*
X123702380Y-76952380D01*
X123559523Y-76904761D01*
X123464285Y-76809523D01*
X123416666Y-76714285D01*
X123369047Y-76523809D01*
X123369047Y-76380952D01*
X123416666Y-76190476D01*
X123464285Y-76095238D01*
X123559523Y-76000000D01*
X123702380Y-75952380D01*
X123797619Y-75952380D01*
X123940476Y-76000000D01*
X123988095Y-76047619D01*
X124988095Y-76857142D02*
X124940476Y-76904761D01*
X124797619Y-76952380D01*
X124702380Y-76952380D01*
X124559523Y-76904761D01*
X124464285Y-76809523D01*
X124416666Y-76714285D01*
X124369047Y-76523809D01*
X124369047Y-76380952D01*
X124416666Y-76190476D01*
X124464285Y-76095238D01*
X124559523Y-76000000D01*
X124702380Y-75952380D01*
X124797619Y-75952380D01*
X124940476Y-76000000D01*
X124988095Y-76047619D01*
%TO.C,R12*%
X53857142Y-121452380D02*
X53523809Y-120976190D01*
X53285714Y-121452380D02*
X53285714Y-120452380D01*
X53666666Y-120452380D01*
X53761904Y-120500000D01*
X53809523Y-120547619D01*
X53857142Y-120642857D01*
X53857142Y-120785714D01*
X53809523Y-120880952D01*
X53761904Y-120928571D01*
X53666666Y-120976190D01*
X53285714Y-120976190D01*
X54809523Y-121452380D02*
X54238095Y-121452380D01*
X54523809Y-121452380D02*
X54523809Y-120452380D01*
X54428571Y-120595238D01*
X54333333Y-120690476D01*
X54238095Y-120738095D01*
X55190476Y-120547619D02*
X55238095Y-120500000D01*
X55333333Y-120452380D01*
X55571428Y-120452380D01*
X55666666Y-120500000D01*
X55714285Y-120547619D01*
X55761904Y-120642857D01*
X55761904Y-120738095D01*
X55714285Y-120880952D01*
X55142857Y-121452380D01*
X55761904Y-121452380D01*
%TO.C,R2*%
X120333333Y-87452380D02*
X120000000Y-86976190D01*
X119761904Y-87452380D02*
X119761904Y-86452380D01*
X120142857Y-86452380D01*
X120238095Y-86500000D01*
X120285714Y-86547619D01*
X120333333Y-86642857D01*
X120333333Y-86785714D01*
X120285714Y-86880952D01*
X120238095Y-86928571D01*
X120142857Y-86976190D01*
X119761904Y-86976190D01*
X120714285Y-86547619D02*
X120761904Y-86500000D01*
X120857142Y-86452380D01*
X121095238Y-86452380D01*
X121190476Y-86500000D01*
X121238095Y-86547619D01*
X121285714Y-86642857D01*
X121285714Y-86738095D01*
X121238095Y-86880952D01*
X120666666Y-87452380D01*
X121285714Y-87452380D01*
%TO.C,A1*%
X70485714Y-101146666D02*
X70961904Y-101146666D01*
X70390476Y-101432380D02*
X70723809Y-100432380D01*
X71057142Y-101432380D01*
X71914285Y-101432380D02*
X71342857Y-101432380D01*
X71628571Y-101432380D02*
X71628571Y-100432380D01*
X71533333Y-100575238D01*
X71438095Y-100670476D01*
X71342857Y-100718095D01*
X69938095Y-141072380D02*
X69938095Y-141881904D01*
X69985714Y-141977142D01*
X70033333Y-142024761D01*
X70128571Y-142072380D01*
X70319047Y-142072380D01*
X70414285Y-142024761D01*
X70461904Y-141977142D01*
X70509523Y-141881904D01*
X70509523Y-141072380D01*
X70938095Y-142024761D02*
X71080952Y-142072380D01*
X71319047Y-142072380D01*
X71414285Y-142024761D01*
X71461904Y-141977142D01*
X71509523Y-141881904D01*
X71509523Y-141786666D01*
X71461904Y-141691428D01*
X71414285Y-141643809D01*
X71319047Y-141596190D01*
X71128571Y-141548571D01*
X71033333Y-141500952D01*
X70985714Y-141453333D01*
X70938095Y-141358095D01*
X70938095Y-141262857D01*
X70985714Y-141167619D01*
X71033333Y-141120000D01*
X71128571Y-141072380D01*
X71366666Y-141072380D01*
X71509523Y-141120000D01*
X72271428Y-141548571D02*
X72414285Y-141596190D01*
X72461904Y-141643809D01*
X72509523Y-141739047D01*
X72509523Y-141881904D01*
X72461904Y-141977142D01*
X72414285Y-142024761D01*
X72319047Y-142072380D01*
X71938095Y-142072380D01*
X71938095Y-141072380D01*
X72271428Y-141072380D01*
X72366666Y-141120000D01*
X72414285Y-141167619D01*
X72461904Y-141262857D01*
X72461904Y-141358095D01*
X72414285Y-141453333D01*
X72366666Y-141500952D01*
X72271428Y-141548571D01*
X71938095Y-141548571D01*
%TO.C,C4*%
X87107142Y-69166666D02*
X87154761Y-69214285D01*
X87202380Y-69357142D01*
X87202380Y-69452380D01*
X87154761Y-69595238D01*
X87059523Y-69690476D01*
X86964285Y-69738095D01*
X86773809Y-69785714D01*
X86630952Y-69785714D01*
X86440476Y-69738095D01*
X86345238Y-69690476D01*
X86250000Y-69595238D01*
X86202380Y-69452380D01*
X86202380Y-69357142D01*
X86250000Y-69214285D01*
X86297619Y-69166666D01*
X86535714Y-68309523D02*
X87202380Y-68309523D01*
X86154761Y-68547619D02*
X86869047Y-68785714D01*
X86869047Y-68166666D01*
%TO.C,C2*%
X118357142Y-58166666D02*
X118404761Y-58214285D01*
X118452380Y-58357142D01*
X118452380Y-58452380D01*
X118404761Y-58595238D01*
X118309523Y-58690476D01*
X118214285Y-58738095D01*
X118023809Y-58785714D01*
X117880952Y-58785714D01*
X117690476Y-58738095D01*
X117595238Y-58690476D01*
X117500000Y-58595238D01*
X117452380Y-58452380D01*
X117452380Y-58357142D01*
X117500000Y-58214285D01*
X117547619Y-58166666D01*
X117547619Y-57785714D02*
X117500000Y-57738095D01*
X117452380Y-57642857D01*
X117452380Y-57404761D01*
X117500000Y-57309523D01*
X117547619Y-57261904D01*
X117642857Y-57214285D01*
X117738095Y-57214285D01*
X117880952Y-57261904D01*
X118452380Y-57833333D01*
X118452380Y-57214285D01*
%TO.C,L1*%
X74633333Y-73952380D02*
X74157142Y-73952380D01*
X74157142Y-72952380D01*
X75490476Y-73952380D02*
X74919047Y-73952380D01*
X75204761Y-73952380D02*
X75204761Y-72952380D01*
X75109523Y-73095238D01*
X75014285Y-73190476D01*
X74919047Y-73238095D01*
%TO.C,C6*%
X60857142Y-81166666D02*
X60904761Y-81214285D01*
X60952380Y-81357142D01*
X60952380Y-81452380D01*
X60904761Y-81595238D01*
X60809523Y-81690476D01*
X60714285Y-81738095D01*
X60523809Y-81785714D01*
X60380952Y-81785714D01*
X60190476Y-81738095D01*
X60095238Y-81690476D01*
X60000000Y-81595238D01*
X59952380Y-81452380D01*
X59952380Y-81357142D01*
X60000000Y-81214285D01*
X60047619Y-81166666D01*
X59952380Y-80309523D02*
X59952380Y-80500000D01*
X60000000Y-80595238D01*
X60047619Y-80642857D01*
X60190476Y-80738095D01*
X60380952Y-80785714D01*
X60761904Y-80785714D01*
X60857142Y-80738095D01*
X60904761Y-80690476D01*
X60952380Y-80595238D01*
X60952380Y-80404761D01*
X60904761Y-80309523D01*
X60857142Y-80261904D01*
X60761904Y-80214285D01*
X60523809Y-80214285D01*
X60428571Y-80261904D01*
X60380952Y-80309523D01*
X60333333Y-80404761D01*
X60333333Y-80595238D01*
X60380952Y-80690476D01*
X60428571Y-80738095D01*
X60523809Y-80785714D01*
%TO.C,R14*%
X53857142Y-133952380D02*
X53523809Y-133476190D01*
X53285714Y-133952380D02*
X53285714Y-132952380D01*
X53666666Y-132952380D01*
X53761904Y-133000000D01*
X53809523Y-133047619D01*
X53857142Y-133142857D01*
X53857142Y-133285714D01*
X53809523Y-133380952D01*
X53761904Y-133428571D01*
X53666666Y-133476190D01*
X53285714Y-133476190D01*
X54809523Y-133952380D02*
X54238095Y-133952380D01*
X54523809Y-133952380D02*
X54523809Y-132952380D01*
X54428571Y-133095238D01*
X54333333Y-133190476D01*
X54238095Y-133238095D01*
X55666666Y-133285714D02*
X55666666Y-133952380D01*
X55428571Y-132904761D02*
X55190476Y-133619047D01*
X55809523Y-133619047D01*
%TO.C,R11*%
X53857142Y-116452380D02*
X53523809Y-115976190D01*
X53285714Y-116452380D02*
X53285714Y-115452380D01*
X53666666Y-115452380D01*
X53761904Y-115500000D01*
X53809523Y-115547619D01*
X53857142Y-115642857D01*
X53857142Y-115785714D01*
X53809523Y-115880952D01*
X53761904Y-115928571D01*
X53666666Y-115976190D01*
X53285714Y-115976190D01*
X54809523Y-116452380D02*
X54238095Y-116452380D01*
X54523809Y-116452380D02*
X54523809Y-115452380D01*
X54428571Y-115595238D01*
X54333333Y-115690476D01*
X54238095Y-115738095D01*
X55761904Y-116452380D02*
X55190476Y-116452380D01*
X55476190Y-116452380D02*
X55476190Y-115452380D01*
X55380952Y-115595238D01*
X55285714Y-115690476D01*
X55190476Y-115738095D01*
%TO.C,R9*%
X53833333Y-136452380D02*
X53500000Y-135976190D01*
X53261904Y-136452380D02*
X53261904Y-135452380D01*
X53642857Y-135452380D01*
X53738095Y-135500000D01*
X53785714Y-135547619D01*
X53833333Y-135642857D01*
X53833333Y-135785714D01*
X53785714Y-135880952D01*
X53738095Y-135928571D01*
X53642857Y-135976190D01*
X53261904Y-135976190D01*
X54309523Y-136452380D02*
X54500000Y-136452380D01*
X54595238Y-136404761D01*
X54642857Y-136357142D01*
X54738095Y-136214285D01*
X54785714Y-136023809D01*
X54785714Y-135642857D01*
X54738095Y-135547619D01*
X54690476Y-135500000D01*
X54595238Y-135452380D01*
X54404761Y-135452380D01*
X54309523Y-135500000D01*
X54261904Y-135547619D01*
X54214285Y-135642857D01*
X54214285Y-135880952D01*
X54261904Y-135976190D01*
X54309523Y-136023809D01*
X54404761Y-136071428D01*
X54595238Y-136071428D01*
X54690476Y-136023809D01*
X54738095Y-135976190D01*
X54785714Y-135880952D01*
%TO.C,R19*%
X53857142Y-128452380D02*
X53523809Y-127976190D01*
X53285714Y-128452380D02*
X53285714Y-127452380D01*
X53666666Y-127452380D01*
X53761904Y-127500000D01*
X53809523Y-127547619D01*
X53857142Y-127642857D01*
X53857142Y-127785714D01*
X53809523Y-127880952D01*
X53761904Y-127928571D01*
X53666666Y-127976190D01*
X53285714Y-127976190D01*
X54809523Y-128452380D02*
X54238095Y-128452380D01*
X54523809Y-128452380D02*
X54523809Y-127452380D01*
X54428571Y-127595238D01*
X54333333Y-127690476D01*
X54238095Y-127738095D01*
X55285714Y-128452380D02*
X55476190Y-128452380D01*
X55571428Y-128404761D01*
X55619047Y-128357142D01*
X55714285Y-128214285D01*
X55761904Y-128023809D01*
X55761904Y-127642857D01*
X55714285Y-127547619D01*
X55666666Y-127500000D01*
X55571428Y-127452380D01*
X55380952Y-127452380D01*
X55285714Y-127500000D01*
X55238095Y-127547619D01*
X55190476Y-127642857D01*
X55190476Y-127880952D01*
X55238095Y-127976190D01*
X55285714Y-128023809D01*
X55380952Y-128071428D01*
X55571428Y-128071428D01*
X55666666Y-128023809D01*
X55714285Y-127976190D01*
X55761904Y-127880952D01*
%TO.C,R4*%
X120333333Y-74452380D02*
X120000000Y-73976190D01*
X119761904Y-74452380D02*
X119761904Y-73452380D01*
X120142857Y-73452380D01*
X120238095Y-73500000D01*
X120285714Y-73547619D01*
X120333333Y-73642857D01*
X120333333Y-73785714D01*
X120285714Y-73880952D01*
X120238095Y-73928571D01*
X120142857Y-73976190D01*
X119761904Y-73976190D01*
X121190476Y-73785714D02*
X121190476Y-74452380D01*
X120952380Y-73404761D02*
X120714285Y-74119047D01*
X121333333Y-74119047D01*
%TO.C,U3*%
X70652380Y-108761904D02*
X71461904Y-108761904D01*
X71557142Y-108714285D01*
X71604761Y-108666666D01*
X71652380Y-108571428D01*
X71652380Y-108380952D01*
X71604761Y-108285714D01*
X71557142Y-108238095D01*
X71461904Y-108190476D01*
X70652380Y-108190476D01*
X70652380Y-107809523D02*
X70652380Y-107190476D01*
X71033333Y-107523809D01*
X71033333Y-107380952D01*
X71080952Y-107285714D01*
X71128571Y-107238095D01*
X71223809Y-107190476D01*
X71461904Y-107190476D01*
X71557142Y-107238095D01*
X71604761Y-107285714D01*
X71652380Y-107380952D01*
X71652380Y-107666666D01*
X71604761Y-107761904D01*
X71557142Y-107809523D01*
%TO.C,R8*%
X53833333Y-131452380D02*
X53500000Y-130976190D01*
X53261904Y-131452380D02*
X53261904Y-130452380D01*
X53642857Y-130452380D01*
X53738095Y-130500000D01*
X53785714Y-130547619D01*
X53833333Y-130642857D01*
X53833333Y-130785714D01*
X53785714Y-130880952D01*
X53738095Y-130928571D01*
X53642857Y-130976190D01*
X53261904Y-130976190D01*
X54404761Y-130880952D02*
X54309523Y-130833333D01*
X54261904Y-130785714D01*
X54214285Y-130690476D01*
X54214285Y-130642857D01*
X54261904Y-130547619D01*
X54309523Y-130500000D01*
X54404761Y-130452380D01*
X54595238Y-130452380D01*
X54690476Y-130500000D01*
X54738095Y-130547619D01*
X54785714Y-130642857D01*
X54785714Y-130690476D01*
X54738095Y-130785714D01*
X54690476Y-130833333D01*
X54595238Y-130880952D01*
X54404761Y-130880952D01*
X54309523Y-130928571D01*
X54261904Y-130976190D01*
X54214285Y-131071428D01*
X54214285Y-131261904D01*
X54261904Y-131357142D01*
X54309523Y-131404761D01*
X54404761Y-131452380D01*
X54595238Y-131452380D01*
X54690476Y-131404761D01*
X54738095Y-131357142D01*
X54785714Y-131261904D01*
X54785714Y-131071428D01*
X54738095Y-130976190D01*
X54690476Y-130928571D01*
X54595238Y-130880952D01*
%TO.C,R18*%
X53857142Y-123952380D02*
X53523809Y-123476190D01*
X53285714Y-123952380D02*
X53285714Y-122952380D01*
X53666666Y-122952380D01*
X53761904Y-123000000D01*
X53809523Y-123047619D01*
X53857142Y-123142857D01*
X53857142Y-123285714D01*
X53809523Y-123380952D01*
X53761904Y-123428571D01*
X53666666Y-123476190D01*
X53285714Y-123476190D01*
X54809523Y-123952380D02*
X54238095Y-123952380D01*
X54523809Y-123952380D02*
X54523809Y-122952380D01*
X54428571Y-123095238D01*
X54333333Y-123190476D01*
X54238095Y-123238095D01*
X55380952Y-123380952D02*
X55285714Y-123333333D01*
X55238095Y-123285714D01*
X55190476Y-123190476D01*
X55190476Y-123142857D01*
X55238095Y-123047619D01*
X55285714Y-123000000D01*
X55380952Y-122952380D01*
X55571428Y-122952380D01*
X55666666Y-123000000D01*
X55714285Y-123047619D01*
X55761904Y-123142857D01*
X55761904Y-123190476D01*
X55714285Y-123285714D01*
X55666666Y-123333333D01*
X55571428Y-123380952D01*
X55380952Y-123380952D01*
X55285714Y-123428571D01*
X55238095Y-123476190D01*
X55190476Y-123571428D01*
X55190476Y-123761904D01*
X55238095Y-123857142D01*
X55285714Y-123904761D01*
X55380952Y-123952380D01*
X55571428Y-123952380D01*
X55666666Y-123904761D01*
X55714285Y-123857142D01*
X55761904Y-123761904D01*
X55761904Y-123571428D01*
X55714285Y-123476190D01*
X55666666Y-123428571D01*
X55571428Y-123380952D01*
%TO.C,R7*%
X82452380Y-125166666D02*
X81976190Y-125500000D01*
X82452380Y-125738095D02*
X81452380Y-125738095D01*
X81452380Y-125357142D01*
X81500000Y-125261904D01*
X81547619Y-125214285D01*
X81642857Y-125166666D01*
X81785714Y-125166666D01*
X81880952Y-125214285D01*
X81928571Y-125261904D01*
X81976190Y-125357142D01*
X81976190Y-125738095D01*
X81452380Y-124833333D02*
X81452380Y-124166666D01*
X82452380Y-124595238D01*
D11*
%TO.C,R16*%
X51227064Y-142665000D02*
X50772936Y-142665000D01*
X51227064Y-144135000D02*
X50772936Y-144135000D01*
%TO.C,R6*%
X81265000Y-135727064D02*
X81265000Y-135272936D01*
X82735000Y-135727064D02*
X82735000Y-135272936D01*
%TO.C,C1*%
X100735000Y-72738748D02*
X100735000Y-73261252D01*
X99265000Y-72738748D02*
X99265000Y-73261252D01*
%TO.C,J1*%
X55645000Y-63005000D02*
X53045000Y-63005000D01*
X53045000Y-60405000D02*
X103965000Y-60405000D01*
X53045000Y-63005000D02*
X53045000Y-60405000D01*
X53045000Y-65605000D02*
X53045000Y-64275000D01*
X55645000Y-65605000D02*
X55645000Y-63005000D01*
X54375000Y-65605000D02*
X53045000Y-65605000D01*
X55645000Y-65605000D02*
X103965000Y-65605000D01*
X103965000Y-65605000D02*
X103965000Y-60405000D01*
%TO.C,J5*%
X127700000Y-103453500D02*
X127700000Y-104053500D01*
X136920000Y-104053500D02*
X136920000Y-103453500D01*
X137500000Y-103453500D02*
X127120000Y-103453500D01*
X130240000Y-103453500D02*
X130240000Y-104053500D01*
X128500000Y-108473500D02*
X128750000Y-107943500D01*
X135320000Y-103453500D02*
X135320000Y-104053500D01*
X126830000Y-104483500D02*
X126830000Y-108483500D01*
X128750000Y-109473500D02*
X128750000Y-108473500D01*
X130240000Y-104053500D02*
X131840000Y-104053500D01*
X136120000Y-108473500D02*
X136120000Y-109473500D01*
X127120000Y-103453500D02*
X127120000Y-109473500D01*
X135870000Y-109473500D02*
X135870000Y-108473500D01*
X128750000Y-107943500D02*
X135870000Y-107943500D01*
X137500000Y-109473500D02*
X137500000Y-103453500D01*
X129300000Y-104053500D02*
X129300000Y-103453500D01*
X127700000Y-104053500D02*
X129300000Y-104053500D01*
X135870000Y-107943500D02*
X136120000Y-108473500D01*
X127120000Y-109473500D02*
X137500000Y-109473500D01*
X128500000Y-109473500D02*
X128500000Y-108473500D01*
X128500000Y-108473500D02*
X136120000Y-108473500D01*
X132780000Y-103453500D02*
X132780000Y-104053500D01*
X134380000Y-104053500D02*
X134380000Y-103453500D01*
X132780000Y-104053500D02*
X134380000Y-104053500D01*
X131840000Y-104053500D02*
X131840000Y-103453500D01*
X135320000Y-104053500D02*
X136920000Y-104053500D01*
%TO.C,U1*%
X118991000Y-146103500D02*
X97991000Y-146103500D01*
X97991000Y-95103500D02*
X118991000Y-95103500D01*
X118991000Y-95103500D02*
X118991000Y-146103500D01*
X97991000Y-146103500D02*
X97991000Y-95103500D01*
G36*
X117263000Y-144870500D02*
G01*
X116247000Y-145378500D01*
X116247000Y-144362500D01*
X117263000Y-144870500D01*
G37*
X117263000Y-144870500D02*
X116247000Y-145378500D01*
X116247000Y-144362500D01*
X117263000Y-144870500D01*
%TO.C,VIN*%
X121950000Y-82000000D02*
G75*
G03*
X121950000Y-82000000I-950000J0D01*
G01*
D12*
%TO.C,REF\u002A\u002A*%
X47500000Y-60000000D02*
G75*
G03*
X47500000Y-60000000I-2500000J0D01*
G01*
D11*
%TO.C,R5*%
X123272936Y-71165000D02*
X123727064Y-71165000D01*
X123272936Y-72635000D02*
X123727064Y-72635000D01*
%TO.C,J2*%
X128500000Y-116473500D02*
X136120000Y-116473500D01*
X135870000Y-117473500D02*
X135870000Y-116473500D01*
X128500000Y-117473500D02*
X128500000Y-116473500D01*
X127700000Y-111453500D02*
X127700000Y-112053500D01*
X127700000Y-112053500D02*
X129300000Y-112053500D01*
X128500000Y-116473500D02*
X128750000Y-115943500D01*
X127120000Y-117473500D02*
X137500000Y-117473500D01*
X128750000Y-115943500D02*
X135870000Y-115943500D01*
X137500000Y-117473500D02*
X137500000Y-111453500D01*
X128750000Y-117473500D02*
X128750000Y-116473500D01*
X134380000Y-112053500D02*
X134380000Y-111453500D01*
X135870000Y-115943500D02*
X136120000Y-116473500D01*
X126830000Y-112483500D02*
X126830000Y-116483500D01*
X132780000Y-112053500D02*
X134380000Y-112053500D01*
X132780000Y-111453500D02*
X132780000Y-112053500D01*
X136920000Y-112053500D02*
X136920000Y-111453500D01*
X135320000Y-111453500D02*
X135320000Y-112053500D01*
X135320000Y-112053500D02*
X136920000Y-112053500D01*
X129300000Y-112053500D02*
X129300000Y-111453500D01*
X130240000Y-111453500D02*
X130240000Y-112053500D01*
X136120000Y-116473500D02*
X136120000Y-117473500D01*
X127120000Y-111453500D02*
X127120000Y-117473500D01*
X130240000Y-112053500D02*
X131840000Y-112053500D01*
X137500000Y-111453500D02*
X127120000Y-111453500D01*
X131840000Y-112053500D02*
X131840000Y-111453500D01*
%TO.C,J17*%
X85750000Y-101473500D02*
X85750000Y-100473500D01*
X88840000Y-96053500D02*
X88840000Y-95453500D01*
X84120000Y-101473500D02*
X94500000Y-101473500D01*
X85750000Y-99943500D02*
X92870000Y-99943500D01*
X93120000Y-100473500D02*
X93120000Y-101473500D01*
X85500000Y-100473500D02*
X93120000Y-100473500D01*
X89780000Y-95453500D02*
X89780000Y-96053500D01*
X86300000Y-96053500D02*
X86300000Y-95453500D01*
X87240000Y-96053500D02*
X88840000Y-96053500D01*
X85500000Y-100473500D02*
X85750000Y-99943500D01*
X91380000Y-96053500D02*
X91380000Y-95453500D01*
X83830000Y-96483500D02*
X83830000Y-100483500D01*
X92870000Y-99943500D02*
X93120000Y-100473500D01*
X87240000Y-95453500D02*
X87240000Y-96053500D01*
X92870000Y-101473500D02*
X92870000Y-100473500D01*
X94500000Y-101473500D02*
X94500000Y-95453500D01*
X94500000Y-95453500D02*
X84120000Y-95453500D01*
X84700000Y-95453500D02*
X84700000Y-96053500D01*
X92320000Y-96053500D02*
X93920000Y-96053500D01*
X85500000Y-101473500D02*
X85500000Y-100473500D01*
X84700000Y-96053500D02*
X86300000Y-96053500D01*
X89780000Y-96053500D02*
X91380000Y-96053500D01*
X93920000Y-96053500D02*
X93920000Y-95453500D01*
X92320000Y-95453500D02*
X92320000Y-96053500D01*
X84120000Y-95453500D02*
X84120000Y-101473500D01*
%TO.C,R15*%
X51227064Y-138935000D02*
X50772936Y-138935000D01*
X51227064Y-137465000D02*
X50772936Y-137465000D01*
%TO.C,C3*%
X114265000Y-61261252D02*
X114265000Y-60738748D01*
X115735000Y-61261252D02*
X115735000Y-60738748D01*
%TO.C,R1*%
X124235000Y-83022936D02*
X124235000Y-83477064D01*
X122765000Y-83022936D02*
X122765000Y-83477064D01*
%TO.C,R3*%
X118910000Y-79727064D02*
X118910000Y-78272936D01*
X117090000Y-79727064D02*
X117090000Y-78272936D01*
%TO.C,J10*%
X128500000Y-136493500D02*
X136120000Y-136493500D01*
X135870000Y-137493500D02*
X135870000Y-136493500D01*
X128750000Y-135963500D02*
X135870000Y-135963500D01*
X128750000Y-137493500D02*
X128750000Y-136493500D01*
X127120000Y-137493500D02*
X137500000Y-137493500D01*
X127700000Y-132073500D02*
X129300000Y-132073500D01*
X126830000Y-132503500D02*
X126830000Y-136503500D01*
X135870000Y-135963500D02*
X136120000Y-136493500D01*
X127120000Y-131473500D02*
X127120000Y-137493500D01*
X128500000Y-137493500D02*
X128500000Y-136493500D01*
X137500000Y-137493500D02*
X137500000Y-131473500D01*
X130240000Y-132073500D02*
X131840000Y-132073500D01*
X131840000Y-132073500D02*
X131840000Y-131473500D01*
X129300000Y-132073500D02*
X129300000Y-131473500D01*
X137500000Y-131473500D02*
X127120000Y-131473500D01*
X135320000Y-132073500D02*
X136920000Y-132073500D01*
X128500000Y-136493500D02*
X128750000Y-135963500D01*
X132780000Y-132073500D02*
X134380000Y-132073500D01*
X134380000Y-132073500D02*
X134380000Y-131473500D01*
X127700000Y-131473500D02*
X127700000Y-132073500D01*
X132780000Y-131473500D02*
X132780000Y-132073500D01*
X130240000Y-131473500D02*
X130240000Y-132073500D01*
X136920000Y-132073500D02*
X136920000Y-131473500D01*
X136120000Y-136493500D02*
X136120000Y-137493500D01*
X135320000Y-131473500D02*
X135320000Y-132073500D01*
%TO.C,J23*%
X85500000Y-153990000D02*
X85500000Y-152990000D01*
X92320000Y-147970000D02*
X92320000Y-148570000D01*
X94500000Y-147970000D02*
X84120000Y-147970000D01*
X91380000Y-148570000D02*
X91380000Y-147970000D01*
X85500000Y-152990000D02*
X93120000Y-152990000D01*
X85500000Y-152990000D02*
X85750000Y-152460000D01*
X85750000Y-153990000D02*
X85750000Y-152990000D01*
X92320000Y-148570000D02*
X93920000Y-148570000D01*
X84120000Y-147970000D02*
X84120000Y-153990000D01*
X84120000Y-153990000D02*
X94500000Y-153990000D01*
X84700000Y-148570000D02*
X86300000Y-148570000D01*
X89780000Y-147970000D02*
X89780000Y-148570000D01*
X88840000Y-148570000D02*
X88840000Y-147970000D01*
X86300000Y-148570000D02*
X86300000Y-147970000D01*
X83830000Y-149000000D02*
X83830000Y-153000000D01*
X85750000Y-152460000D02*
X92870000Y-152460000D01*
X93120000Y-152990000D02*
X93120000Y-153990000D01*
X89780000Y-148570000D02*
X91380000Y-148570000D01*
X92870000Y-152460000D02*
X93120000Y-152990000D01*
X94500000Y-153990000D02*
X94500000Y-147970000D01*
X87240000Y-148570000D02*
X88840000Y-148570000D01*
X87240000Y-147970000D02*
X87240000Y-148570000D01*
X84700000Y-147970000D02*
X84700000Y-148570000D01*
X92870000Y-153990000D02*
X92870000Y-152990000D01*
X93920000Y-148570000D02*
X93920000Y-147970000D01*
%TO.C,R13*%
X50772936Y-126735000D02*
X51227064Y-126735000D01*
X50772936Y-125265000D02*
X51227064Y-125265000D01*
%TO.C,J22*%
X48800000Y-113500000D02*
X48800000Y-128500000D01*
X41200000Y-113500000D02*
X45000000Y-113500000D01*
X41200000Y-128500000D02*
X45000000Y-128500000D01*
X41200000Y-113500000D02*
X41200000Y-128500000D01*
X45000000Y-113500000D02*
X48800000Y-113500000D01*
X45000000Y-128500000D02*
X48800000Y-128500000D01*
%TO.C,J15*%
X93120000Y-108473500D02*
X93120000Y-109473500D01*
X87240000Y-104053500D02*
X88840000Y-104053500D01*
X88840000Y-104053500D02*
X88840000Y-103453500D01*
X85500000Y-109473500D02*
X85500000Y-108473500D01*
X84120000Y-109473500D02*
X94500000Y-109473500D01*
X94500000Y-103453500D02*
X84120000Y-103453500D01*
X87240000Y-103453500D02*
X87240000Y-104053500D01*
X85750000Y-107943500D02*
X92870000Y-107943500D01*
X85500000Y-108473500D02*
X85750000Y-107943500D01*
X86300000Y-104053500D02*
X86300000Y-103453500D01*
X94500000Y-109473500D02*
X94500000Y-103453500D01*
X92870000Y-107943500D02*
X93120000Y-108473500D01*
X92320000Y-104053500D02*
X93920000Y-104053500D01*
X91380000Y-104053500D02*
X91380000Y-103453500D01*
X85750000Y-109473500D02*
X85750000Y-108473500D01*
X83830000Y-104483500D02*
X83830000Y-108483500D01*
X84700000Y-103453500D02*
X84700000Y-104053500D01*
X93920000Y-104053500D02*
X93920000Y-103453500D01*
X85500000Y-108473500D02*
X93120000Y-108473500D01*
X92870000Y-109473500D02*
X92870000Y-108473500D01*
X89780000Y-103453500D02*
X89780000Y-104053500D01*
X92320000Y-103453500D02*
X92320000Y-104053500D01*
X84700000Y-104053500D02*
X86300000Y-104053500D01*
X89780000Y-104053500D02*
X91380000Y-104053500D01*
X84120000Y-103453500D02*
X84120000Y-109473500D01*
%TO.C,R10*%
X50772936Y-140265000D02*
X51227064Y-140265000D01*
X50772936Y-141735000D02*
X51227064Y-141735000D01*
%TO.C,C5*%
X63804437Y-86260000D02*
X62740000Y-85195563D01*
X62740000Y-77740000D02*
X65490000Y-77740000D01*
X64490000Y-87500000D02*
X64490000Y-86500000D01*
X63804437Y-86260000D02*
X65490000Y-86260000D01*
X71260000Y-77740000D02*
X68510000Y-77740000D01*
X70195563Y-86260000D02*
X68510000Y-86260000D01*
X62740000Y-85195563D02*
X62740000Y-77740000D01*
X70195563Y-86260000D02*
X71260000Y-85195563D01*
X71260000Y-85195563D02*
X71260000Y-77740000D01*
X63990000Y-87000000D02*
X64990000Y-87000000D01*
%TO.C,J12*%
X89780000Y-135453500D02*
X89780000Y-136053500D01*
X86300000Y-136053500D02*
X86300000Y-135453500D01*
X85750000Y-139943500D02*
X92870000Y-139943500D01*
X83830000Y-136483500D02*
X83830000Y-140483500D01*
X87240000Y-136053500D02*
X88840000Y-136053500D01*
X92320000Y-135453500D02*
X92320000Y-136053500D01*
X85500000Y-141473500D02*
X85500000Y-140473500D01*
X84700000Y-135453500D02*
X84700000Y-136053500D01*
X93920000Y-136053500D02*
X93920000Y-135453500D01*
X91380000Y-136053500D02*
X91380000Y-135453500D01*
X89780000Y-136053500D02*
X91380000Y-136053500D01*
X93120000Y-140473500D02*
X93120000Y-141473500D01*
X92870000Y-141473500D02*
X92870000Y-140473500D01*
X88840000Y-136053500D02*
X88840000Y-135453500D01*
X92320000Y-136053500D02*
X93920000Y-136053500D01*
X85500000Y-140473500D02*
X85750000Y-139943500D01*
X94500000Y-141473500D02*
X94500000Y-135453500D01*
X87240000Y-135453500D02*
X87240000Y-136053500D01*
X92870000Y-139943500D02*
X93120000Y-140473500D01*
X84120000Y-141473500D02*
X94500000Y-141473500D01*
X84700000Y-136053500D02*
X86300000Y-136053500D01*
X85750000Y-141473500D02*
X85750000Y-140473500D01*
X94500000Y-135453500D02*
X84120000Y-135453500D01*
X85500000Y-140473500D02*
X93120000Y-140473500D01*
X84120000Y-135453500D02*
X84120000Y-141473500D01*
%TO.C,R17*%
X51227064Y-119235000D02*
X50772936Y-119235000D01*
X51227064Y-117765000D02*
X50772936Y-117765000D01*
%TO.C,D1*%
X71800000Y-72000000D02*
X62600000Y-72000000D01*
X62600000Y-75000000D02*
X71800000Y-75000000D01*
X71800000Y-75000000D02*
X71800000Y-72000000D01*
%TO.C,J3*%
X127700000Y-119453500D02*
X127700000Y-120053500D01*
X129300000Y-120053500D02*
X129300000Y-119453500D01*
X127700000Y-120053500D02*
X129300000Y-120053500D01*
X131840000Y-120053500D02*
X131840000Y-119453500D01*
X126830000Y-120483500D02*
X126830000Y-124483500D01*
X130240000Y-119453500D02*
X130240000Y-120053500D01*
X128500000Y-125473500D02*
X128500000Y-124473500D01*
X136120000Y-124473500D02*
X136120000Y-125473500D01*
X135870000Y-125473500D02*
X135870000Y-124473500D01*
X135320000Y-119453500D02*
X135320000Y-120053500D01*
X128500000Y-124473500D02*
X128750000Y-123943500D01*
X127120000Y-119453500D02*
X127120000Y-125473500D01*
X128500000Y-124473500D02*
X136120000Y-124473500D01*
X135870000Y-123943500D02*
X136120000Y-124473500D01*
X134380000Y-120053500D02*
X134380000Y-119453500D01*
X132780000Y-119453500D02*
X132780000Y-120053500D01*
X137500000Y-119453500D02*
X127120000Y-119453500D01*
X135320000Y-120053500D02*
X136920000Y-120053500D01*
X127120000Y-125473500D02*
X137500000Y-125473500D01*
X136920000Y-120053500D02*
X136920000Y-119453500D01*
X128750000Y-125473500D02*
X128750000Y-124473500D01*
X130240000Y-120053500D02*
X131840000Y-120053500D01*
X137500000Y-125473500D02*
X137500000Y-119453500D01*
X132780000Y-120053500D02*
X134380000Y-120053500D01*
X128750000Y-123943500D02*
X135870000Y-123943500D01*
%TO.C,U2*%
X93050000Y-78750000D02*
X87925000Y-78750000D01*
X93050000Y-87250000D02*
X91950000Y-87250000D01*
X93050000Y-77800000D02*
X93050000Y-78750000D01*
X94550000Y-88200000D02*
X93050000Y-88200000D01*
X93050000Y-88200000D02*
X93050000Y-87250000D01*
X94550000Y-77800000D02*
X93050000Y-77800000D01*
%TO.C,J20*%
X41200000Y-98500000D02*
X41200000Y-113500000D01*
X48800000Y-98500000D02*
X48800000Y-113500000D01*
X41200000Y-98500000D02*
X45000000Y-98500000D01*
X45000000Y-113500000D02*
X48800000Y-113500000D01*
X41200000Y-113500000D02*
X45000000Y-113500000D01*
X45000000Y-98500000D02*
X48800000Y-98500000D01*
%TO.C,VCC*%
X121950000Y-76500000D02*
G75*
G03*
X121950000Y-76500000I-950000J0D01*
G01*
%TO.C,R12*%
X50772936Y-120265000D02*
X51227064Y-120265000D01*
X50772936Y-121735000D02*
X51227064Y-121735000D01*
%TO.C,R2*%
X123272936Y-87735000D02*
X123727064Y-87735000D01*
X123272936Y-86265000D02*
X123727064Y-86265000D01*
D12*
%TO.C,REF\u002A\u002A*%
X47500000Y-150000000D02*
G75*
G03*
X47500000Y-150000000I-2500000J0D01*
G01*
X137500000Y-150000000D02*
G75*
G03*
X137500000Y-150000000I-2500000J0D01*
G01*
D11*
%TO.C,A1*%
X62180000Y-102120000D02*
X62180000Y-104790000D01*
X64850000Y-107330000D02*
X64850000Y-104790000D01*
X77550000Y-104790000D02*
X77550000Y-142890000D01*
X77550000Y-104790000D02*
X80220000Y-104790000D01*
X80220000Y-102120000D02*
X62180000Y-102120000D01*
X64850000Y-107330000D02*
X64850000Y-142890000D01*
X67260000Y-137680000D02*
X75140000Y-137680000D01*
X67260000Y-148100000D02*
X67260000Y-137680000D01*
X77550000Y-142890000D02*
X80220000Y-142890000D01*
X64850000Y-142890000D02*
X62180000Y-142890000D01*
X64850000Y-107330000D02*
X62180000Y-107330000D01*
X62180000Y-145560000D02*
X67260000Y-145560000D01*
X62180000Y-107330000D02*
X62180000Y-145560000D01*
X64850000Y-104790000D02*
X62180000Y-104790000D01*
X75140000Y-148100000D02*
X67260000Y-148100000D01*
X75140000Y-137680000D02*
X75140000Y-148100000D01*
X80220000Y-145560000D02*
X75140000Y-145560000D01*
X80220000Y-145560000D02*
X80220000Y-102120000D01*
%TO.C,J16*%
X83830000Y-120483500D02*
X83830000Y-124483500D01*
X92870000Y-123943500D02*
X93120000Y-124473500D01*
X89780000Y-119453500D02*
X89780000Y-120053500D01*
X85500000Y-124473500D02*
X93120000Y-124473500D01*
X89780000Y-120053500D02*
X91380000Y-120053500D01*
X87240000Y-120053500D02*
X88840000Y-120053500D01*
X84120000Y-119453500D02*
X84120000Y-125473500D01*
X93920000Y-120053500D02*
X93920000Y-119453500D01*
X86300000Y-120053500D02*
X86300000Y-119453500D01*
X88840000Y-120053500D02*
X88840000Y-119453500D01*
X84700000Y-119453500D02*
X84700000Y-120053500D01*
X87240000Y-119453500D02*
X87240000Y-120053500D01*
X84700000Y-120053500D02*
X86300000Y-120053500D01*
X93120000Y-124473500D02*
X93120000Y-125473500D01*
X94500000Y-119453500D02*
X84120000Y-119453500D01*
X92320000Y-119453500D02*
X92320000Y-120053500D01*
X85500000Y-124473500D02*
X85750000Y-123943500D01*
X94500000Y-125473500D02*
X94500000Y-119453500D01*
X91380000Y-120053500D02*
X91380000Y-119453500D01*
X85750000Y-123943500D02*
X92870000Y-123943500D01*
X92320000Y-120053500D02*
X93920000Y-120053500D01*
X92870000Y-125473500D02*
X92870000Y-124473500D01*
X85500000Y-125473500D02*
X85500000Y-124473500D01*
X85750000Y-125473500D02*
X85750000Y-124473500D01*
X84120000Y-125473500D02*
X94500000Y-125473500D01*
%TO.C,C4*%
X95195563Y-76260000D02*
X87740000Y-76260000D01*
X97000000Y-75010000D02*
X97000000Y-74010000D01*
X96260000Y-68804437D02*
X96260000Y-70490000D01*
X96260000Y-75195563D02*
X96260000Y-73510000D01*
X87740000Y-76260000D02*
X87740000Y-73510000D01*
X95195563Y-67740000D02*
X87740000Y-67740000D01*
X97500000Y-74510000D02*
X96500000Y-74510000D01*
X87740000Y-67740000D02*
X87740000Y-70490000D01*
X96260000Y-75195563D02*
X95195563Y-76260000D01*
X96260000Y-68804437D02*
X95195563Y-67740000D01*
%TO.C,J18*%
X102330000Y-91670000D02*
X102330000Y-93000000D01*
X99730000Y-91670000D02*
X99730000Y-94330000D01*
X99730000Y-94330000D02*
X71730000Y-94330000D01*
X101000000Y-91670000D02*
X102330000Y-91670000D01*
X71730000Y-91670000D02*
X71730000Y-94330000D01*
X99730000Y-91670000D02*
X71730000Y-91670000D01*
%TO.C,C2*%
X118735000Y-61261252D02*
X118735000Y-60738748D01*
X117265000Y-61261252D02*
X117265000Y-60738748D01*
%TO.C,J4*%
X128750000Y-99943500D02*
X135870000Y-99943500D01*
X132780000Y-95453500D02*
X132780000Y-96053500D01*
X127120000Y-95453500D02*
X127120000Y-101473500D01*
X127120000Y-101473500D02*
X137500000Y-101473500D01*
X127700000Y-95453500D02*
X127700000Y-96053500D01*
X126830000Y-96483500D02*
X126830000Y-100483500D01*
X135320000Y-96053500D02*
X136920000Y-96053500D01*
X129300000Y-96053500D02*
X129300000Y-95453500D01*
X127700000Y-96053500D02*
X129300000Y-96053500D01*
X135870000Y-101473500D02*
X135870000Y-100473500D01*
X128500000Y-100473500D02*
X128750000Y-99943500D01*
X137500000Y-101473500D02*
X137500000Y-95453500D01*
X136920000Y-96053500D02*
X136920000Y-95453500D01*
X136120000Y-100473500D02*
X136120000Y-101473500D01*
X137500000Y-95453500D02*
X127120000Y-95453500D01*
X128500000Y-101473500D02*
X128500000Y-100473500D01*
X128500000Y-100473500D02*
X136120000Y-100473500D01*
X135320000Y-95453500D02*
X135320000Y-96053500D01*
X134380000Y-96053500D02*
X134380000Y-95453500D01*
X131840000Y-96053500D02*
X131840000Y-95453500D01*
X130240000Y-96053500D02*
X131840000Y-96053500D01*
X135870000Y-99943500D02*
X136120000Y-100473500D01*
X130240000Y-95453500D02*
X130240000Y-96053500D01*
X132780000Y-96053500D02*
X134380000Y-96053500D01*
X128750000Y-101473500D02*
X128750000Y-100473500D01*
%TO.C,J13*%
X83830000Y-112483500D02*
X83830000Y-116483500D01*
X85750000Y-115943500D02*
X92870000Y-115943500D01*
X94500000Y-117473500D02*
X94500000Y-111453500D01*
X84700000Y-111453500D02*
X84700000Y-112053500D01*
X93120000Y-116473500D02*
X93120000Y-117473500D01*
X93920000Y-112053500D02*
X93920000Y-111453500D01*
X85500000Y-117473500D02*
X85500000Y-116473500D01*
X88840000Y-112053500D02*
X88840000Y-111453500D01*
X92870000Y-117473500D02*
X92870000Y-116473500D01*
X89780000Y-111453500D02*
X89780000Y-112053500D01*
X87240000Y-111453500D02*
X87240000Y-112053500D01*
X94500000Y-111453500D02*
X84120000Y-111453500D01*
X89780000Y-112053500D02*
X91380000Y-112053500D01*
X84120000Y-117473500D02*
X94500000Y-117473500D01*
X84120000Y-111453500D02*
X84120000Y-117473500D01*
X92870000Y-115943500D02*
X93120000Y-116473500D01*
X85750000Y-117473500D02*
X85750000Y-116473500D01*
X84700000Y-112053500D02*
X86300000Y-112053500D01*
X92320000Y-111453500D02*
X92320000Y-112053500D01*
X91380000Y-112053500D02*
X91380000Y-111453500D01*
X87240000Y-112053500D02*
X88840000Y-112053500D01*
X92320000Y-112053500D02*
X93920000Y-112053500D01*
X85500000Y-116473500D02*
X93120000Y-116473500D01*
X86300000Y-112053500D02*
X86300000Y-111453500D01*
X85500000Y-116473500D02*
X85750000Y-115943500D01*
%TO.C,L1*%
X85900000Y-74700000D02*
X85900000Y-87300000D01*
X76300000Y-87300000D02*
X73300000Y-87300000D01*
X82900000Y-74700000D02*
X85900000Y-74700000D01*
X73300000Y-74700000D02*
X76300000Y-74700000D01*
X85900000Y-87300000D02*
X82900000Y-87300000D01*
X73300000Y-87300000D02*
X73300000Y-74700000D01*
%TO.C,C6*%
X61235000Y-84223752D02*
X61235000Y-83701248D01*
X59765000Y-84223752D02*
X59765000Y-83701248D01*
%TO.C,R14*%
X51227064Y-132765000D02*
X50772936Y-132765000D01*
X51227064Y-134235000D02*
X50772936Y-134235000D01*
D12*
%TO.C,REF\u002A\u002A*%
X137500000Y-60000000D02*
G75*
G03*
X137500000Y-60000000I-2500000J0D01*
G01*
D11*
%TO.C,R11*%
X50772936Y-116735000D02*
X51227064Y-116735000D01*
X50772936Y-115265000D02*
X51227064Y-115265000D01*
%TO.C,J9*%
X130240000Y-139453500D02*
X130240000Y-140053500D01*
X135320000Y-139453500D02*
X135320000Y-140053500D01*
X137500000Y-139453500D02*
X127120000Y-139453500D01*
X128500000Y-145473500D02*
X128500000Y-144473500D01*
X130240000Y-140053500D02*
X131840000Y-140053500D01*
X129300000Y-140053500D02*
X129300000Y-139453500D01*
X136120000Y-144473500D02*
X136120000Y-145473500D01*
X128500000Y-144473500D02*
X128750000Y-143943500D01*
X128750000Y-143943500D02*
X135870000Y-143943500D01*
X136920000Y-140053500D02*
X136920000Y-139453500D01*
X135870000Y-145473500D02*
X135870000Y-144473500D01*
X132780000Y-139453500D02*
X132780000Y-140053500D01*
X128500000Y-144473500D02*
X136120000Y-144473500D01*
X137500000Y-145473500D02*
X137500000Y-139453500D01*
X128750000Y-145473500D02*
X128750000Y-144473500D01*
X127120000Y-145473500D02*
X137500000Y-145473500D01*
X131840000Y-140053500D02*
X131840000Y-139453500D01*
X132780000Y-140053500D02*
X134380000Y-140053500D01*
X127700000Y-139453500D02*
X127700000Y-140053500D01*
X126830000Y-140483500D02*
X126830000Y-144483500D01*
X127120000Y-139453500D02*
X127120000Y-145473500D01*
X135870000Y-143943500D02*
X136120000Y-144473500D01*
X127700000Y-140053500D02*
X129300000Y-140053500D01*
X134380000Y-140053500D02*
X134380000Y-139453500D01*
X135320000Y-140053500D02*
X136920000Y-140053500D01*
%TO.C,J19*%
X41200000Y-83500000D02*
X45000000Y-83500000D01*
X45000000Y-83500000D02*
X48800000Y-83500000D01*
X41200000Y-83500000D02*
X41200000Y-98500000D01*
X41200000Y-98500000D02*
X45000000Y-98500000D01*
X45000000Y-98500000D02*
X48800000Y-98500000D01*
X48800000Y-83500000D02*
X48800000Y-98500000D01*
D10*
%TO.C,J7*%
X128682000Y-77040700D02*
X133254000Y-77040700D01*
X133635000Y-80723700D02*
X133635000Y-77421700D01*
X133635000Y-72417900D02*
X133635000Y-75719900D01*
X126777000Y-76100900D02*
X126777000Y-77040700D01*
X139223000Y-81663500D02*
X136175000Y-81663500D01*
X128682000Y-76100900D02*
X133254000Y-76100900D01*
X139223000Y-82171500D02*
X134397000Y-82171500D01*
X132492000Y-75719900D02*
X132492000Y-75338900D01*
X129317000Y-80723700D02*
X132492000Y-80723700D01*
X130460000Y-72798900D02*
X133254000Y-72798900D01*
X134397000Y-82171500D02*
X134651000Y-81663500D01*
X133254000Y-81104700D02*
X133254000Y-80723700D01*
X137318000Y-77574100D02*
X137953000Y-80622100D01*
X129317000Y-80723700D02*
X129317000Y-77421700D01*
X129317000Y-75719900D02*
X132492000Y-75719900D01*
X136429000Y-81104700D02*
X136429000Y-77040700D01*
X133254000Y-72036900D02*
X133254000Y-72417900D01*
X130460000Y-75338900D02*
X133254000Y-75338900D01*
X138969000Y-81104700D02*
X136429000Y-81104700D01*
X133254000Y-76100900D02*
X133254000Y-75719900D01*
X136175000Y-81663500D02*
X134651000Y-81663500D01*
X126777000Y-72036900D02*
X126777000Y-76100900D01*
X130460000Y-77802700D02*
X133254000Y-77802700D01*
X133254000Y-75719900D02*
X133254000Y-72417900D01*
X126777000Y-71478500D02*
X126777000Y-72036900D01*
X133635000Y-81663500D02*
X128936000Y-81663500D01*
X128682000Y-72036900D02*
X126777000Y-72036900D01*
X128682000Y-77040700D02*
X128682000Y-81104700D01*
X139223000Y-81663500D02*
X139223000Y-82171500D01*
X138969000Y-76100900D02*
X138969000Y-72036900D01*
X127793000Y-81663500D02*
X126777000Y-81663500D01*
X133635000Y-81663500D02*
X133635000Y-80723700D01*
X126777000Y-71478500D02*
X133635000Y-71478500D01*
X134651000Y-81663500D02*
X133635000Y-81663500D01*
X136429000Y-76100900D02*
X136429000Y-72036900D01*
X133254000Y-77802700D02*
X133254000Y-80342700D01*
X132492000Y-77421700D02*
X132492000Y-77802700D01*
X136175000Y-71478500D02*
X139223000Y-71478500D01*
X136429000Y-76100900D02*
X138969000Y-76100900D01*
X133635000Y-75719900D02*
X133635000Y-77421700D01*
X129190000Y-82171500D02*
X128936000Y-81663500D01*
X129190000Y-82171500D02*
X127539000Y-82171500D01*
X133254000Y-72036900D02*
X128682000Y-72036900D01*
X133254000Y-77040700D02*
X133254000Y-77421700D01*
X133254000Y-77421700D02*
X133254000Y-80723700D01*
X130460000Y-80342700D02*
X133254000Y-80342700D01*
X133254000Y-81104700D02*
X128682000Y-81104700D01*
X137445000Y-77447100D02*
X138080000Y-80495100D01*
X133635000Y-71478500D02*
X133635000Y-72417900D01*
X126777000Y-76100900D02*
X128682000Y-76100900D01*
X137318000Y-72570300D02*
X137953000Y-75618300D01*
X129317000Y-75719900D02*
X129317000Y-72417900D01*
X128682000Y-81104700D02*
X126777000Y-81104700D01*
X128936000Y-81663500D02*
X127793000Y-81663500D01*
X129317000Y-72417900D02*
X132492000Y-72417900D01*
X126777000Y-77040700D02*
X128682000Y-77040700D01*
X129317000Y-77421700D02*
X132492000Y-77421700D01*
X130460000Y-77802700D02*
X130460000Y-80342700D01*
X133254000Y-72798900D02*
X133254000Y-75338900D01*
X139223000Y-81663500D02*
X139223000Y-71478500D01*
X136429000Y-72036900D02*
X138969000Y-72036900D01*
X127539000Y-82171500D02*
X127793000Y-81663500D01*
X137445000Y-72443300D02*
X138080000Y-75493840D01*
X126777000Y-77040700D02*
X126777000Y-81104700D01*
X133635000Y-71478500D02*
X136175000Y-71478500D01*
X130460000Y-72798900D02*
X130460000Y-75338900D01*
X136175000Y-71478500D02*
X136175000Y-81663500D01*
X126777000Y-81104700D02*
X126777000Y-81663500D01*
X138969000Y-77040700D02*
X138969000Y-81104700D01*
X128682000Y-76100900D02*
X128682000Y-72036900D01*
X132492000Y-80723700D02*
X132492000Y-80342700D01*
X132492000Y-72417900D02*
X132492000Y-72798900D01*
X136429000Y-77040700D02*
X138969000Y-77040700D01*
X137082890Y-75537650D02*
G75*
G03*
X138052060Y-75592900I511970J452750D01*
G01*
X138051019Y-72493980D02*
G75*
G03*
X137127500Y-72638880I-405359J-431920D01*
G01*
X138056844Y-80597911D02*
G75*
G03*
X138003800Y-77447100I-1348444J1553151D01*
G01*
X138061847Y-75600073D02*
G75*
G03*
X138003800Y-72443300I-1353448J1554033D01*
G01*
X137165104Y-77598772D02*
G75*
G03*
X137117340Y-80586540I1905496J-1524728D01*
G01*
X137165104Y-72597512D02*
G75*
G03*
X137117340Y-75585280I1905496J-1524728D01*
G01*
X137085430Y-80541471D02*
G75*
G03*
X138052060Y-80594160I509430J452771D01*
G01*
X138053481Y-77498403D02*
G75*
G03*
X137127500Y-77640140I-407821J-431297D01*
G01*
D11*
%TO.C,R9*%
X50772936Y-135265000D02*
X51227064Y-135265000D01*
X50772936Y-136735000D02*
X51227064Y-136735000D01*
D10*
%TO.C,J8*%
X120478400Y-61746000D02*
X120859400Y-61746000D01*
X126244200Y-61746000D02*
X128784200Y-61746000D01*
X126244200Y-64540000D02*
X128784200Y-64540000D01*
X124161400Y-65683000D02*
X124161400Y-62508000D01*
X119920000Y-68223000D02*
X119920000Y-61365000D01*
X125482200Y-58571000D02*
X125482200Y-56031000D01*
X130613000Y-65810000D02*
X130105000Y-66064000D01*
X125888600Y-57555000D02*
X128936600Y-56920000D01*
X125482200Y-56031000D02*
X129546200Y-56031000D01*
X124542400Y-56031000D02*
X120478400Y-56031000D01*
X120478400Y-61746000D02*
X120478400Y-66318000D01*
X125482200Y-66318000D02*
X125482200Y-61746000D01*
X130105000Y-61365000D02*
X130105000Y-66064000D01*
X130613000Y-67461000D02*
X130105000Y-67207000D01*
X130105000Y-55777000D02*
X130105000Y-58825000D01*
X129546200Y-66318000D02*
X129546200Y-68223000D01*
X130105000Y-67207000D02*
X130105000Y-68223000D01*
X125863200Y-62508000D02*
X126244200Y-62508000D01*
X130105000Y-58825000D02*
X130105000Y-60349000D01*
X129546200Y-61746000D02*
X129165200Y-61746000D01*
X124542400Y-58571000D02*
X124542400Y-56031000D01*
X121240400Y-61746000D02*
X123780400Y-61746000D01*
X123780400Y-64540000D02*
X123780400Y-61746000D01*
X129165200Y-65683000D02*
X129165200Y-62508000D01*
X130613000Y-65810000D02*
X130613000Y-67461000D01*
X121240400Y-64540000D02*
X121240400Y-61746000D01*
X124161400Y-61365000D02*
X125863200Y-61365000D01*
X129165200Y-61365000D02*
X125863200Y-61365000D01*
X125482200Y-68223000D02*
X129546200Y-68223000D01*
X119920000Y-61365000D02*
X119920000Y-58825000D01*
X119920000Y-58825000D02*
X130105000Y-58825000D01*
X130105000Y-60349000D02*
X130105000Y-61365000D01*
X129546200Y-58571000D02*
X125482200Y-58571000D01*
X120478400Y-68223000D02*
X124542400Y-68223000D01*
X124542400Y-68223000D02*
X125482200Y-68223000D01*
X119920000Y-68223000D02*
X120478400Y-68223000D01*
X130105000Y-55777000D02*
X130613000Y-55777000D01*
X129165200Y-65683000D02*
X125863200Y-65683000D01*
X124161400Y-61746000D02*
X120859400Y-61746000D01*
X120859400Y-62508000D02*
X121240400Y-62508000D01*
X125482200Y-68223000D02*
X125482200Y-66318000D01*
X121240400Y-64540000D02*
X123780400Y-64540000D01*
X129546200Y-61746000D02*
X129546200Y-66318000D01*
X124542400Y-66318000D02*
X120478400Y-66318000D01*
X120478400Y-66318000D02*
X120478400Y-68223000D01*
X130613000Y-60603000D02*
X130105000Y-60349000D01*
X124161400Y-65683000D02*
X120859400Y-65683000D01*
X124542400Y-58571000D02*
X120478400Y-58571000D01*
X130105000Y-61365000D02*
X129165200Y-61365000D01*
X125482200Y-66318000D02*
X129546200Y-66318000D01*
X125863200Y-61746000D02*
X129165200Y-61746000D01*
X121011800Y-57682000D02*
X124059800Y-57047000D01*
X120859400Y-65683000D02*
X120859400Y-62508000D01*
X130613000Y-55777000D02*
X130613000Y-60603000D01*
X124542400Y-66318000D02*
X124542400Y-61746000D01*
X129165200Y-62508000D02*
X128784200Y-62508000D01*
X130105000Y-66064000D02*
X130105000Y-67207000D01*
X126244200Y-64540000D02*
X126244200Y-61746000D01*
X130105000Y-55777000D02*
X119920000Y-55777000D01*
X124542400Y-68223000D02*
X124542400Y-66318000D01*
X126015600Y-57682000D02*
X129063600Y-57047000D01*
X129546200Y-56031000D02*
X129546200Y-58571000D01*
X119920000Y-61365000D02*
X120859400Y-61365000D01*
X120859400Y-61365000D02*
X124161400Y-61365000D01*
X120884800Y-57555000D02*
X123935340Y-56920000D01*
X128784200Y-64540000D02*
X128784200Y-61746000D01*
X125482200Y-61746000D02*
X125863200Y-61746000D01*
X120478400Y-58571000D02*
X120478400Y-56031000D01*
X129546200Y-68223000D02*
X130105000Y-68223000D01*
X124161400Y-62508000D02*
X123780400Y-62508000D01*
X119920000Y-58825000D02*
X119920000Y-55777000D01*
X124542400Y-61746000D02*
X124161400Y-61746000D01*
X125863200Y-65683000D02*
X125863200Y-62508000D01*
X129039411Y-56943156D02*
G75*
G03*
X125888600Y-56996200I-1553151J-1348444D01*
G01*
X128982971Y-57914570D02*
G75*
G03*
X129035660Y-56947940I-452771J509430D01*
G01*
X121039012Y-57834896D02*
G75*
G03*
X124026780Y-57882660I1524728J1905496D01*
G01*
X126040272Y-57834896D02*
G75*
G03*
X129028040Y-57882660I1524728J1905496D01*
G01*
X120935480Y-56948981D02*
G75*
G03*
X121080380Y-57872500I431920J-405359D01*
G01*
X125939903Y-56946519D02*
G75*
G03*
X126081640Y-57872500I431297J-407821D01*
G01*
X123979150Y-57917110D02*
G75*
G03*
X124034400Y-56947940I-452750J511970D01*
G01*
X124041573Y-56938153D02*
G75*
G03*
X120884800Y-56996200I-1554033J-1353448D01*
G01*
D11*
%TO.C,J11*%
X41200000Y-68500000D02*
X45000000Y-68500000D01*
X48800000Y-68500000D02*
X48800000Y-83500000D01*
X45000000Y-83500000D02*
X48800000Y-83500000D01*
X41200000Y-83500000D02*
X45000000Y-83500000D01*
X45000000Y-68500000D02*
X48800000Y-68500000D01*
X41200000Y-68500000D02*
X41200000Y-83500000D01*
%TO.C,R19*%
X51227064Y-127265000D02*
X50772936Y-127265000D01*
X51227064Y-128735000D02*
X50772936Y-128735000D01*
%TO.C,J21*%
X45000000Y-143500000D02*
X48800000Y-143500000D01*
X41200000Y-143500000D02*
X45000000Y-143500000D01*
X41200000Y-128500000D02*
X45000000Y-128500000D01*
X48800000Y-128500000D02*
X48800000Y-143500000D01*
X45000000Y-128500000D02*
X48800000Y-128500000D01*
X41200000Y-128500000D02*
X41200000Y-143500000D01*
%TO.C,R4*%
X123727064Y-74735000D02*
X123272936Y-74735000D01*
X123727064Y-73265000D02*
X123272936Y-73265000D01*
%TO.C,U3*%
X65305000Y-108110000D02*
X65305000Y-111970000D01*
X77075000Y-108110000D02*
X77075000Y-104250000D01*
X65305000Y-104250000D02*
X65550000Y-104250000D01*
X65550000Y-111970000D02*
X65550000Y-113785000D01*
X77075000Y-104250000D02*
X76830000Y-104250000D01*
X65305000Y-111970000D02*
X65550000Y-111970000D01*
X65305000Y-108110000D02*
X65305000Y-104250000D01*
X77075000Y-108110000D02*
X77075000Y-111970000D01*
X77075000Y-111970000D02*
X76830000Y-111970000D01*
D10*
%TO.C,J6*%
X128682000Y-86275900D02*
X133254000Y-86275900D01*
X133635000Y-81653500D02*
X136175000Y-81653500D01*
X138969000Y-91279700D02*
X136429000Y-91279700D01*
X128682000Y-86275900D02*
X128682000Y-82211900D01*
X136429000Y-86275900D02*
X138969000Y-86275900D01*
X133254000Y-87215700D02*
X133254000Y-87596700D01*
X139223000Y-91838500D02*
X136175000Y-91838500D01*
X137445000Y-82618300D02*
X138080000Y-85668840D01*
X129317000Y-85894900D02*
X132492000Y-85894900D01*
X129317000Y-90898700D02*
X132492000Y-90898700D01*
X139223000Y-91838500D02*
X139223000Y-81653500D01*
X136175000Y-81653500D02*
X136175000Y-91838500D01*
X129317000Y-87596700D02*
X132492000Y-87596700D01*
X130460000Y-82973900D02*
X130460000Y-85513900D01*
X129317000Y-82592900D02*
X132492000Y-82592900D01*
X129190000Y-92346500D02*
X128936000Y-91838500D01*
X132492000Y-85894900D02*
X132492000Y-85513900D01*
X133254000Y-87977700D02*
X133254000Y-90517700D01*
X126777000Y-91279700D02*
X126777000Y-91838500D01*
X128682000Y-87215700D02*
X128682000Y-91279700D01*
X128682000Y-87215700D02*
X133254000Y-87215700D01*
X137318000Y-87749100D02*
X137953000Y-90797100D01*
X128936000Y-91838500D02*
X127793000Y-91838500D01*
X126777000Y-86275900D02*
X128682000Y-86275900D01*
X126777000Y-81653500D02*
X133635000Y-81653500D01*
X136429000Y-86275900D02*
X136429000Y-82211900D01*
X128682000Y-91279700D02*
X126777000Y-91279700D01*
X130460000Y-90517700D02*
X133254000Y-90517700D01*
X137445000Y-87622100D02*
X138080000Y-90670100D01*
X138969000Y-86275900D02*
X138969000Y-82211900D01*
X129317000Y-85894900D02*
X129317000Y-82592900D01*
X126777000Y-87215700D02*
X128682000Y-87215700D01*
X130460000Y-87977700D02*
X130460000Y-90517700D01*
X139223000Y-92346500D02*
X134397000Y-92346500D01*
X134397000Y-92346500D02*
X134651000Y-91838500D01*
X132492000Y-82592900D02*
X132492000Y-82973900D01*
X136429000Y-87215700D02*
X138969000Y-87215700D01*
X134651000Y-91838500D02*
X133635000Y-91838500D01*
X133635000Y-82592900D02*
X133635000Y-85894900D01*
X129317000Y-90898700D02*
X129317000Y-87596700D01*
X130460000Y-85513900D02*
X133254000Y-85513900D01*
X126777000Y-86275900D02*
X126777000Y-87215700D01*
X129190000Y-92346500D02*
X127539000Y-92346500D01*
X137318000Y-82745300D02*
X137953000Y-85793300D01*
X133635000Y-91838500D02*
X133635000Y-90898700D01*
X133254000Y-91279700D02*
X133254000Y-90898700D01*
X136175000Y-81653500D02*
X139223000Y-81653500D01*
X133635000Y-90898700D02*
X133635000Y-87596700D01*
X126777000Y-87215700D02*
X126777000Y-91279700D01*
X127539000Y-92346500D02*
X127793000Y-91838500D01*
X133254000Y-82211900D02*
X128682000Y-82211900D01*
X133635000Y-91838500D02*
X128936000Y-91838500D01*
X139223000Y-91838500D02*
X139223000Y-92346500D01*
X130460000Y-82973900D02*
X133254000Y-82973900D01*
X127793000Y-91838500D02*
X126777000Y-91838500D01*
X126777000Y-81653500D02*
X126777000Y-82211900D01*
X132492000Y-87596700D02*
X132492000Y-87977700D01*
X133254000Y-86275900D02*
X133254000Y-85894900D01*
X133254000Y-91279700D02*
X128682000Y-91279700D01*
X133254000Y-82211900D02*
X133254000Y-82592900D01*
X126777000Y-82211900D02*
X126777000Y-86275900D01*
X133254000Y-87596700D02*
X133254000Y-90898700D01*
X133254000Y-82973900D02*
X133254000Y-85513900D01*
X128682000Y-82211900D02*
X126777000Y-82211900D01*
X138969000Y-87215700D02*
X138969000Y-91279700D01*
X133635000Y-81653500D02*
X133635000Y-82592900D01*
X130460000Y-87977700D02*
X133254000Y-87977700D01*
X136429000Y-82211900D02*
X138969000Y-82211900D01*
X136429000Y-91279700D02*
X136429000Y-87215700D01*
X133635000Y-85894900D02*
X133635000Y-87596700D01*
X133254000Y-85894900D02*
X133254000Y-82592900D01*
X132492000Y-90898700D02*
X132492000Y-90517700D01*
X136175000Y-91838500D02*
X134651000Y-91838500D01*
X137082890Y-85712650D02*
G75*
G03*
X138052060Y-85767900I511970J452750D01*
G01*
X138056844Y-90772911D02*
G75*
G03*
X138003800Y-87622100I-1348444J1553151D01*
G01*
X137165104Y-82772512D02*
G75*
G03*
X137117340Y-85760280I1905496J-1524728D01*
G01*
X138051019Y-82668980D02*
G75*
G03*
X137127500Y-82813880I-405359J-431920D01*
G01*
X137085430Y-90716471D02*
G75*
G03*
X138052060Y-90769160I509430J452771D01*
G01*
X137165104Y-87773772D02*
G75*
G03*
X137117340Y-90761540I1905496J-1524728D01*
G01*
X138061847Y-85775073D02*
G75*
G03*
X138003800Y-82618300I-1353448J1554033D01*
G01*
X138053481Y-87673403D02*
G75*
G03*
X137127500Y-87815140I-407821J-431297D01*
G01*
D11*
%TO.C,R8*%
X50772936Y-131735000D02*
X51227064Y-131735000D01*
X50772936Y-130265000D02*
X51227064Y-130265000D01*
%TO.C,R18*%
X51227064Y-122765000D02*
X50772936Y-122765000D01*
X51227064Y-124235000D02*
X50772936Y-124235000D01*
%TO.C,J14*%
X93120000Y-132473500D02*
X93120000Y-133473500D01*
X92870000Y-131943500D02*
X93120000Y-132473500D01*
X92870000Y-133473500D02*
X92870000Y-132473500D01*
X85500000Y-133473500D02*
X85500000Y-132473500D01*
X94500000Y-133473500D02*
X94500000Y-127453500D01*
X91380000Y-128053500D02*
X91380000Y-127453500D01*
X89780000Y-127453500D02*
X89780000Y-128053500D01*
X83830000Y-128483500D02*
X83830000Y-132483500D01*
X93920000Y-128053500D02*
X93920000Y-127453500D01*
X88840000Y-128053500D02*
X88840000Y-127453500D01*
X92320000Y-127453500D02*
X92320000Y-128053500D01*
X85750000Y-133473500D02*
X85750000Y-132473500D01*
X92320000Y-128053500D02*
X93920000Y-128053500D01*
X84120000Y-127453500D02*
X84120000Y-133473500D01*
X84700000Y-128053500D02*
X86300000Y-128053500D01*
X84700000Y-127453500D02*
X84700000Y-128053500D01*
X85500000Y-132473500D02*
X93120000Y-132473500D01*
X89780000Y-128053500D02*
X91380000Y-128053500D01*
X94500000Y-127453500D02*
X84120000Y-127453500D01*
X85500000Y-132473500D02*
X85750000Y-131943500D01*
X84120000Y-133473500D02*
X94500000Y-133473500D01*
X87240000Y-127453500D02*
X87240000Y-128053500D01*
X86300000Y-128053500D02*
X86300000Y-127453500D01*
X87240000Y-128053500D02*
X88840000Y-128053500D01*
X85750000Y-131943500D02*
X92870000Y-131943500D01*
%TO.C,R7*%
X81265000Y-128227064D02*
X81265000Y-127772936D01*
X82735000Y-128227064D02*
X82735000Y-127772936D01*
%TD*%
M02*
