%TF.GenerationSoftware,KiCad,Pcbnew,6.0.9*%
%TF.CreationDate,2022-12-14T15:45:26-03:00*%
%TF.ProjectId,trekking,7472656b-6b69-46e6-972e-6b696361645f,rev?*%
%TF.SameCoordinates,Original*%
%TF.FileFunction,Soldermask,Bot*%
%TF.FilePolarity,Negative*%
%FSLAX46Y46*%
G04 Gerber Fmt 4.6, Leading zero omitted, Abs format (unit mm)*
G04 Created by KiCad (PCBNEW 6.0.9) date 2022-12-14 15:45:26*
%MOMM*%
%LPD*%
G01*
G04 APERTURE LIST*
G04 Aperture macros list*
%AMRoundRect*
0 Rectangle with rounded corners*
0 $1 Rounding radius*
0 $2 $3 $4 $5 $6 $7 $8 $9 X,Y pos of 4 corners*
0 Add a 4 corners polygon primitive as box body*
4,1,4,$2,$3,$4,$5,$6,$7,$8,$9,$2,$3,0*
0 Add four circle primitives for the rounded corners*
1,1,$1+$1,$2,$3*
1,1,$1+$1,$4,$5*
1,1,$1+$1,$6,$7*
1,1,$1+$1,$8,$9*
0 Add four rect primitives between the rounded corners*
20,1,$1+$1,$2,$3,$4,$5,0*
20,1,$1+$1,$4,$5,$6,$7,0*
20,1,$1+$1,$6,$7,$8,$9,0*
20,1,$1+$1,$8,$9,$2,$3,0*%
%AMFreePoly0*
4,1,28,0.087733,0.694480,0.250858,0.653506,0.399499,0.574804,0.525078,0.462918,0.620343,0.324307,0.679794,0.166973,0.700000,0.000000,0.699846,-0.014660,0.676148,-0.181173,0.613415,-0.337228,0.515268,-0.473813,0.387374,-0.583045,0.237117,-0.658617,0.073170,-0.696165,-0.095001,-0.693523,-0.257687,-0.650844,-0.405497,-0.570589,-0.529897,-0.457394,-0.623705,-0.317793,-0.681505,-0.159846,
-0.699962,0.007330,-0.678008,0.174083,-0.616912,0.330786,-0.520201,0.468391,-0.393458,0.578956,-0.244000,0.656097,-0.080456,0.695361,0.087733,0.694480,0.087733,0.694480,$1*%
G04 Aperture macros list end*
%ADD10O,2.000000X4.000000*%
%ADD11O,4.000000X2.000000*%
%ADD12RoundRect,0.250000X-0.565685X-0.070711X-0.070711X-0.565685X0.565685X0.070711X0.070711X0.565685X0*%
%ADD13RoundRect,0.250000X0.350000X0.450000X-0.350000X0.450000X-0.350000X-0.450000X0.350000X-0.450000X0*%
%ADD14C,1.200000*%
%ADD15O,1.700000X1.700000*%
%ADD16O,1.200000X1.200000*%
%ADD17FreePoly0,0.000000*%
%ADD18O,1.740000X2.190000*%
%ADD19C,1.500000*%
%ADD20C,4.400000*%
%ADD21RoundRect,0.250000X-0.620000X-0.845000X0.620000X-0.845000X0.620000X0.845000X-0.620000X0.845000X0*%
%ADD22R,2.000000X2.000000*%
%ADD23C,1.400000*%
%ADD24R,1.600000X1.600000*%
%ADD25O,1.600000X1.600000*%
%ADD26R,1.700000X1.700000*%
G04 APERTURE END LIST*
D10*
%TO.C,J8*%
X122500000Y-62000000D03*
X127500000Y-62000000D03*
%TD*%
D11*
%TO.C,J7*%
X133000000Y-74058500D03*
X133000000Y-79058500D03*
%TD*%
%TO.C,J6*%
X133000000Y-84233500D03*
X133000000Y-89233500D03*
%TD*%
D12*
%TO.C,R21*%
X82292893Y-80292893D03*
X83707107Y-81707107D03*
%TD*%
D13*
%TO.C,R20*%
X118750000Y-72000000D03*
X116750000Y-72000000D03*
%TD*%
D14*
%TO.C,J1*%
X54375000Y-64275000D03*
D15*
X54375000Y-61735000D03*
X56915000Y-64275000D03*
X56915000Y-61735000D03*
X59455000Y-64275000D03*
X59455000Y-61735000D03*
X61995000Y-64275000D03*
X61995000Y-61735000D03*
X64535000Y-64275000D03*
X64535000Y-61735000D03*
X67075000Y-64275000D03*
D16*
X67075000Y-61735000D03*
D15*
X69615000Y-64275000D03*
X69615000Y-61735000D03*
X72155000Y-64275000D03*
X72155000Y-61735000D03*
D16*
X74695000Y-64275000D03*
D15*
X74695000Y-61735000D03*
X77235000Y-64275000D03*
X77235000Y-61735000D03*
X79775000Y-64275000D03*
X79775000Y-61735000D03*
X82315000Y-64275000D03*
X82315000Y-61735000D03*
X84855000Y-64275000D03*
X84855000Y-61735000D03*
X87395000Y-64275000D03*
X87395000Y-61735000D03*
X89935000Y-64275000D03*
X89935000Y-61735000D03*
X92475000Y-64275000D03*
X92475000Y-61735000D03*
X95015000Y-64275000D03*
X95015000Y-61735000D03*
X97555000Y-64275000D03*
X97555000Y-61735000D03*
X100095000Y-64275000D03*
X100095000Y-61735000D03*
X102635000Y-64275000D03*
D16*
X102635000Y-61735000D03*
%TD*%
D17*
%TO.C,J5*%
X128500000Y-106483500D03*
D18*
X131040000Y-106483500D03*
X133580000Y-106483500D03*
X136120000Y-106483500D03*
%TD*%
D19*
%TO.C,VIN*%
X121000000Y-82000000D03*
%TD*%
D20*
%TO.C,REF\u002A\u002A*%
X45000000Y-60000000D03*
%TD*%
D17*
%TO.C,J2*%
X128500000Y-114483500D03*
D18*
X131040000Y-114483500D03*
X133580000Y-114483500D03*
X136120000Y-114483500D03*
%TD*%
%TO.C,J17*%
X85500000Y-98483500D03*
X88040000Y-98483500D03*
X90580000Y-98483500D03*
X93120000Y-98483500D03*
%TD*%
D21*
%TO.C,J10*%
X128500000Y-134503500D03*
D18*
X131040000Y-134503500D03*
X133580000Y-134503500D03*
X136120000Y-134503500D03*
%TD*%
D21*
%TO.C,J23*%
X85500000Y-151000000D03*
D18*
X88040000Y-151000000D03*
X90580000Y-151000000D03*
X93120000Y-151000000D03*
%TD*%
D11*
%TO.C,J22*%
X45000000Y-116000000D03*
X45000000Y-121000000D03*
X45000000Y-126000000D03*
%TD*%
D21*
%TO.C,J15*%
X85500000Y-106483500D03*
D18*
X88040000Y-106483500D03*
X90580000Y-106483500D03*
X93120000Y-106483500D03*
%TD*%
D21*
%TO.C,J12*%
X85500000Y-138483500D03*
D18*
X88040000Y-138483500D03*
X90580000Y-138483500D03*
X93120000Y-138483500D03*
%TD*%
D22*
%TO.C,D1*%
X70310000Y-73500000D03*
X62690000Y-73500000D03*
%TD*%
D20*
%TO.C,*%
X83000000Y-70500000D03*
%TD*%
D23*
%TO.C,J3*%
X128500000Y-122483500D03*
D18*
X131040000Y-122483500D03*
X133580000Y-122483500D03*
X136120000Y-122483500D03*
%TD*%
D11*
%TO.C,J20*%
X45000000Y-101000000D03*
X45000000Y-106000000D03*
X45000000Y-111000000D03*
%TD*%
D19*
%TO.C,VCC*%
X121000000Y-76500000D03*
%TD*%
D20*
%TO.C,REF\u002A\u002A*%
X45000000Y-150000000D03*
%TD*%
%TO.C,REF\u002A\u002A*%
X135000000Y-150000000D03*
%TD*%
D24*
%TO.C,A1*%
X63580000Y-106060000D03*
D25*
X63580000Y-108600000D03*
X63580000Y-111140000D03*
X63580000Y-113680000D03*
X63580000Y-116220000D03*
X63580000Y-118760000D03*
X63580000Y-121300000D03*
X63580000Y-123840000D03*
X63580000Y-126380000D03*
X63580000Y-128920000D03*
X63580000Y-131460000D03*
X63580000Y-134000000D03*
X63580000Y-136540000D03*
X63580000Y-139080000D03*
X63580000Y-141620000D03*
X78820000Y-141620000D03*
X78820000Y-139080000D03*
X78820000Y-136540000D03*
X78820000Y-134000000D03*
X78820000Y-131460000D03*
X78820000Y-128920000D03*
X78820000Y-126380000D03*
X78820000Y-123840000D03*
X78820000Y-121300000D03*
X78820000Y-118760000D03*
X78820000Y-116220000D03*
X78820000Y-113680000D03*
X78820000Y-111140000D03*
X78820000Y-108600000D03*
X78820000Y-106060000D03*
%TD*%
D21*
%TO.C,J16*%
X85500000Y-122483500D03*
D18*
X88040000Y-122483500D03*
X90580000Y-122483500D03*
X93120000Y-122483500D03*
%TD*%
D26*
%TO.C,J18*%
X101000000Y-93000000D03*
D15*
X98460000Y-93000000D03*
X95920000Y-93000000D03*
X93380000Y-93000000D03*
X90840000Y-93000000D03*
X88300000Y-93000000D03*
X85760000Y-93000000D03*
X83220000Y-93000000D03*
X80680000Y-93000000D03*
X78140000Y-93000000D03*
X75600000Y-93000000D03*
X73060000Y-93000000D03*
%TD*%
D17*
%TO.C,J4*%
X128500000Y-98483500D03*
D18*
X131040000Y-98483500D03*
X133580000Y-98483500D03*
X136120000Y-98483500D03*
%TD*%
D21*
%TO.C,J13*%
X85500000Y-114483500D03*
D18*
X88040000Y-114483500D03*
X90580000Y-114483500D03*
X93120000Y-114483500D03*
%TD*%
D20*
%TO.C,REF\u002A\u002A*%
X135000000Y-60000000D03*
%TD*%
D21*
%TO.C,J9*%
X128500000Y-142483500D03*
D18*
X131040000Y-142483500D03*
X133580000Y-142483500D03*
X136120000Y-142483500D03*
%TD*%
D11*
%TO.C,J19*%
X45000000Y-86000000D03*
X45000000Y-91000000D03*
X45000000Y-96000000D03*
%TD*%
%TO.C,J11*%
X45000000Y-71000000D03*
X45000000Y-76000000D03*
X45000000Y-81000000D03*
%TD*%
%TO.C,J21*%
X45000000Y-131000000D03*
X45000000Y-136000000D03*
X45000000Y-141000000D03*
%TD*%
D21*
%TO.C,J14*%
X85500000Y-130483500D03*
D18*
X88040000Y-130483500D03*
X90580000Y-130483500D03*
X93120000Y-130483500D03*
%TD*%
M02*
