%TF.GenerationSoftware,KiCad,Pcbnew,6.0.5*%
%TF.CreationDate,2022-06-27T11:22:29-03:00*%
%TF.ProjectId,trekking,7472656b-6b69-46e6-972e-6b696361645f,rev?*%
%TF.SameCoordinates,Original*%
%TF.FileFunction,Soldermask,Top*%
%TF.FilePolarity,Negative*%
%FSLAX46Y46*%
G04 Gerber Fmt 4.6, Leading zero omitted, Abs format (unit mm)*
G04 Created by KiCad (PCBNEW 6.0.5) date 2022-06-27 11:22:29*
%MOMM*%
%LPD*%
G01*
G04 APERTURE LIST*
G04 Aperture macros list*
%AMRoundRect*
0 Rectangle with rounded corners*
0 $1 Rounding radius*
0 $2 $3 $4 $5 $6 $7 $8 $9 X,Y pos of 4 corners*
0 Add a 4 corners polygon primitive as box body*
4,1,4,$2,$3,$4,$5,$6,$7,$8,$9,$2,$3,0*
0 Add four circle primitives for the rounded corners*
1,1,$1+$1,$2,$3*
1,1,$1+$1,$4,$5*
1,1,$1+$1,$6,$7*
1,1,$1+$1,$8,$9*
0 Add four rect primitives between the rounded corners*
20,1,$1+$1,$2,$3,$4,$5,0*
20,1,$1+$1,$4,$5,$6,$7,0*
20,1,$1+$1,$6,$7,$8,$9,0*
20,1,$1+$1,$8,$9,$2,$3,0*%
G04 Aperture macros list end*
%ADD10RoundRect,0.250000X-0.350000X-0.450000X0.350000X-0.450000X0.350000X0.450000X-0.350000X0.450000X0*%
%ADD11RoundRect,0.250000X0.350000X0.450000X-0.350000X0.450000X-0.350000X-0.450000X0.350000X-0.450000X0*%
%ADD12R,1.700000X1.700000*%
%ADD13RoundRect,0.250000X0.337500X0.475000X-0.337500X0.475000X-0.337500X-0.475000X0.337500X-0.475000X0*%
%ADD14RoundRect,0.250001X1.074999X2.324999X-1.074999X2.324999X-1.074999X-2.324999X1.074999X-2.324999X0*%
%ADD15O,1.700000X1.700000*%
%ADD16C,4.400000*%
%ADD17O,3.000000X4.000000*%
%ADD18RoundRect,0.250000X-0.620000X-0.845000X0.620000X-0.845000X0.620000X0.845000X-0.620000X0.845000X0*%
%ADD19O,1.740000X2.190000*%
%ADD20O,2.500000X3.000000*%
%ADD21RoundRect,0.250000X-0.337500X-0.475000X0.337500X-0.475000X0.337500X0.475000X-0.337500X0.475000X0*%
%ADD22RoundRect,0.250000X0.475000X-0.337500X0.475000X0.337500X-0.475000X0.337500X-0.475000X-0.337500X0*%
%ADD23R,2.000000X1.500000*%
%ADD24R,2.000000X3.800000*%
%ADD25RoundRect,0.250000X-1.000000X1.500000X-1.000000X-1.500000X1.000000X-1.500000X1.000000X1.500000X0*%
%ADD26RoundRect,0.249999X-1.425001X0.450001X-1.425001X-0.450001X1.425001X-0.450001X1.425001X0.450001X0*%
%ADD27RoundRect,0.428570X-1.246430X0.771430X-1.246430X-0.771430X1.246430X-0.771430X1.246430X0.771430X0*%
%ADD28R,5.400000X2.900000*%
%ADD29RoundRect,0.250000X-1.500000X-1.000000X1.500000X-1.000000X1.500000X1.000000X-1.500000X1.000000X0*%
%ADD30RoundRect,0.250000X0.845000X-0.620000X0.845000X0.620000X-0.845000X0.620000X-0.845000X-0.620000X0*%
%ADD31O,2.190000X1.740000*%
%ADD32RoundRect,0.412500X0.837500X0.412500X-0.837500X0.412500X-0.837500X-0.412500X0.837500X-0.412500X0*%
%ADD33RoundRect,0.412500X-0.412500X0.837500X-0.412500X-0.837500X0.412500X-0.837500X0.412500X0.837500X0*%
%ADD34O,2.000000X1.440000*%
%ADD35RoundRect,0.250000X1.000000X-1.500000X1.000000X1.500000X-1.000000X1.500000X-1.000000X-1.500000X0*%
%ADD36RoundRect,0.250000X-0.450000X0.350000X-0.450000X-0.350000X0.450000X-0.350000X0.450000X0.350000X0*%
%ADD37C,1.700000*%
%ADD38R,4.600000X1.100000*%
%ADD39R,9.400000X10.800000*%
G04 APERTURE END LIST*
D10*
%TO.C,R3*%
X49064000Y-150000000D03*
X51064000Y-150000000D03*
%TD*%
D11*
%TO.C,R2*%
X51080000Y-152540000D03*
X49080000Y-152540000D03*
%TD*%
D12*
%TO.C,*%
X47250000Y-71100000D03*
%TD*%
%TO.C,J\u002A\u002A*%
X47250000Y-66000000D03*
%TD*%
D13*
%TO.C,C2*%
X114621000Y-87200000D03*
X112546000Y-87200000D03*
%TD*%
D14*
%TO.C,D1*%
X111225000Y-147320000D03*
X104675000Y-147320000D03*
%TD*%
D12*
%TO.C,J2*%
X121920000Y-104140000D03*
D15*
X121920000Y-106680000D03*
X121920000Y-109220000D03*
%TD*%
D16*
%TO.C,REF\u002A\u002A*%
X45000000Y-60000000D03*
%TD*%
D17*
%TO.C,J7*%
X62150000Y-63500000D03*
X57150000Y-63500000D03*
X52150000Y-63500000D03*
%TD*%
D12*
%TO.C,J19*%
X99060000Y-142240000D03*
D15*
X96520000Y-142240000D03*
%TD*%
D17*
%TO.C,J5*%
X86440000Y-63500000D03*
X91440000Y-63500000D03*
X96440000Y-63500000D03*
%TD*%
D18*
%TO.C,J14*%
X42164000Y-134620000D03*
D19*
X44704000Y-134620000D03*
X47244000Y-134620000D03*
X49784000Y-134620000D03*
%TD*%
D10*
%TO.C,R5*%
X112905000Y-58420000D03*
X114905000Y-58420000D03*
%TD*%
D20*
%TO.C,J8*%
X122201500Y-64008000D03*
X127201500Y-64008000D03*
%TD*%
D10*
%TO.C,R1*%
X114637000Y-84152000D03*
X116637000Y-84152000D03*
%TD*%
D18*
%TO.C,J15*%
X42164000Y-117348000D03*
D19*
X44704000Y-117348000D03*
X47244000Y-117348000D03*
X49784000Y-117348000D03*
%TD*%
D21*
%TO.C,C3*%
X116437500Y-127635000D03*
X118512500Y-127635000D03*
%TD*%
D22*
%TO.C,C8*%
X106680000Y-85090000D03*
X106680000Y-83015000D03*
%TD*%
D23*
%TO.C,U2*%
X117425000Y-108980000D03*
X117425000Y-106680000D03*
D24*
X111125000Y-106680000D03*
D23*
X117425000Y-104380000D03*
%TD*%
D25*
%TO.C,C9*%
X106680000Y-90170000D03*
X106680000Y-96670000D03*
%TD*%
D17*
%TO.C,J6*%
X69295000Y-63500000D03*
X74295000Y-63500000D03*
X79295000Y-63500000D03*
%TD*%
D26*
%TO.C,R6*%
X114808000Y-64006000D03*
D27*
X114808000Y-70106000D03*
%TD*%
D22*
%TO.C,C6*%
X107925000Y-106680000D03*
X107925000Y-104605000D03*
%TD*%
D16*
%TO.C,REF\u002A\u002A*%
X45000000Y-150000000D03*
%TD*%
D11*
%TO.C,R4*%
X114937000Y-61468000D03*
X112937000Y-61468000D03*
%TD*%
D28*
%TO.C,L1*%
X111125000Y-141475000D03*
X111125000Y-131575000D03*
%TD*%
D16*
%TO.C,REF\u002A\u002A*%
X45720000Y-91040000D03*
%TD*%
%TO.C,REF\u002A\u002A*%
X135000000Y-150000000D03*
%TD*%
D29*
%TO.C,C4*%
X114621000Y-77548000D03*
X121121000Y-77548000D03*
%TD*%
D12*
%TO.C,J18*%
X83820000Y-75800000D03*
D15*
X83820000Y-78340000D03*
X83820000Y-80880000D03*
X83820000Y-83420000D03*
X83820000Y-85960000D03*
X83820000Y-88500000D03*
X83820000Y-91040000D03*
X83820000Y-93580000D03*
%TD*%
D16*
%TO.C,REF\u002A\u002A*%
X45720000Y-78340000D03*
%TD*%
D30*
%TO.C,J9*%
X83820000Y-144780000D03*
D31*
X83820000Y-142240000D03*
X83820000Y-139700000D03*
X83820000Y-137160000D03*
%TD*%
D32*
%TO.C,U1*%
X75565000Y-152400000D03*
X75565000Y-149860000D03*
X75565000Y-147320000D03*
X75565000Y-144780000D03*
X75565000Y-142240000D03*
X75565000Y-139700000D03*
X75565000Y-137160000D03*
X75565000Y-134620000D03*
X75565000Y-132080000D03*
X75565000Y-129540000D03*
X75565000Y-127000000D03*
X75565000Y-124460000D03*
X75565000Y-121920000D03*
X75565000Y-119380000D03*
X75565000Y-116840000D03*
X75565000Y-114300000D03*
X75565000Y-111760000D03*
X75565000Y-109220000D03*
X75565000Y-106680000D03*
X75565000Y-104140000D03*
X54483000Y-104140000D03*
X54483000Y-106680000D03*
X54483000Y-109220000D03*
X54483000Y-111760000D03*
X54483000Y-114300000D03*
X54483000Y-116840000D03*
X54483000Y-119380000D03*
X54483000Y-121920000D03*
X54483000Y-124460000D03*
X54483000Y-127000000D03*
X54483000Y-129540000D03*
X54483000Y-132080000D03*
X54483000Y-134620000D03*
X54483000Y-137160000D03*
X54483000Y-139700000D03*
X54483000Y-142240000D03*
X54483000Y-144780000D03*
X54483000Y-147320000D03*
X54483000Y-149860000D03*
X54483000Y-152400000D03*
D33*
X67183000Y-102743000D03*
X64643000Y-102743000D03*
X62103000Y-102743000D03*
%TD*%
D34*
%TO.C,RV1*%
X114808000Y-95504000D03*
X114808000Y-92964000D03*
X114808000Y-90424000D03*
%TD*%
D18*
%TO.C,J12*%
X42164000Y-125984000D03*
D19*
X44704000Y-125984000D03*
X47244000Y-125984000D03*
X49784000Y-125984000D03*
%TD*%
D13*
%TO.C,C1*%
X114300000Y-100965000D03*
X112225000Y-100965000D03*
%TD*%
D35*
%TO.C,C5*%
X116840000Y-123825000D03*
X116840000Y-117325000D03*
%TD*%
D18*
%TO.C,J16*%
X42164000Y-143256000D03*
D19*
X44704000Y-143256000D03*
X47244000Y-143256000D03*
X49784000Y-143256000D03*
%TD*%
D31*
%TO.C,J11*%
X83820000Y-106680000D03*
X83820000Y-104140000D03*
X83820000Y-101600000D03*
X83820000Y-99060000D03*
%TD*%
D16*
%TO.C,REF\u002A\u002A*%
X135000000Y-60000000D03*
%TD*%
D36*
%TO.C,R7*%
X106680000Y-64135000D03*
X106680000Y-66135000D03*
%TD*%
D30*
%TO.C,J10*%
X83820000Y-125730000D03*
D31*
X83820000Y-123190000D03*
X83820000Y-120650000D03*
X83820000Y-118110000D03*
%TD*%
D37*
%TO.C,J1*%
X91435000Y-74930000D03*
D15*
X93975000Y-74930000D03*
X91435000Y-77470000D03*
X93975000Y-77470000D03*
X91435000Y-80010000D03*
X93975000Y-80010000D03*
X91435000Y-82550000D03*
X93975000Y-82550000D03*
X91435000Y-85090000D03*
X93975000Y-85090000D03*
X91435000Y-87630000D03*
X93975000Y-87630000D03*
X91435000Y-90170000D03*
X93975000Y-90170000D03*
X91435000Y-92710000D03*
X93975000Y-92710000D03*
X91435000Y-95250000D03*
X93975000Y-95250000D03*
X91435000Y-97790000D03*
X93975000Y-97790000D03*
X91435000Y-100330000D03*
X93975000Y-100330000D03*
X91435000Y-102870000D03*
X93975000Y-102870000D03*
X91435000Y-105410000D03*
X93975000Y-105410000D03*
X91435000Y-107950000D03*
X93975000Y-107950000D03*
X91435000Y-110490000D03*
X93975000Y-110490000D03*
X91435000Y-113030000D03*
X93975000Y-113030000D03*
X91435000Y-115570000D03*
X93975000Y-115570000D03*
X91435000Y-118110000D03*
X93975000Y-118110000D03*
X91435000Y-120650000D03*
X93975000Y-120650000D03*
X91435000Y-123190000D03*
X93975000Y-123190000D03*
%TD*%
D18*
%TO.C,J17*%
X42164000Y-109220000D03*
D19*
X44704000Y-109220000D03*
X47244000Y-109220000D03*
X49784000Y-109220000D03*
%TD*%
D18*
%TO.C,J13*%
X42164000Y-100584000D03*
D19*
X44704000Y-100584000D03*
X47244000Y-100584000D03*
X49784000Y-100584000D03*
%TD*%
D36*
%TO.C,R8*%
X106680000Y-68580000D03*
X106680000Y-70580000D03*
%TD*%
D22*
%TO.C,C7*%
X104750000Y-106680000D03*
X104750000Y-104605000D03*
%TD*%
D38*
%TO.C,U4*%
X121291000Y-134541000D03*
X121291000Y-136241000D03*
D39*
X130441000Y-137941000D03*
D38*
X121291000Y-137941000D03*
X121291000Y-139641000D03*
X121291000Y-141341000D03*
%TD*%
%TO.C,U3*%
X121225000Y-85500000D03*
X121225000Y-87200000D03*
D39*
X130375000Y-88900000D03*
D38*
X121225000Y-88900000D03*
X121225000Y-90600000D03*
X121225000Y-92300000D03*
%TD*%
D12*
%TO.C,J4*%
X41910000Y-66040000D03*
D15*
X41910000Y-68580000D03*
X41910000Y-71120000D03*
%TD*%
D13*
%TO.C,C10*%
X106447500Y-127635000D03*
X104372500Y-127635000D03*
%TD*%
D35*
%TO.C,C11*%
X106680000Y-123900000D03*
X106680000Y-117400000D03*
%TD*%
M02*
