<?xml version="1.0" encoding="utf-8"?>
<svg xmlns="http://www.w3.org/2000/svg" xmlns:xlink="http://www.w3.org/1999/xlink" xml:space="preserve" width="1051.25" height="1226.4583333333" viewBox="0 0 1051.25 1226.4583333333"><rect width="973.28229166667" height="973.28229166667" fill="#ffffff" x="43.802083333333" y="43.802083333333"/><g transform="scale(43.802083333333)" fill="#000000"><path d="M22.7,0H1.3C0.6,0,0,0.6,0,1.3v25.3C0,27.4,0.6,28,1.3,28h21.3c0.7,0,1.3-0.6,1.3-1.3V1.3C24,0.6,23.4,0,22.7,0 z M23,22c0,0.6-0.5,1-1,1H2c-0.6,0-1-0.5-1-1V2c0-0.6,0.5-1,1-1h20c0.6,0,1,0.5,1,1V22z"/></g><g fill="#000000">
<g transform="translate(337.125,105.125) scale(4.9783333333333)"><rect width="6" height="6"/></g>
<g transform="translate(366.125,105.125) scale(4.9783333333333)"><rect width="6" height="6"/></g>
<g transform="translate(569.125,105.125) scale(4.9783333333333)"><rect width="6" height="6"/></g>
<g transform="translate(627.125,105.125) scale(4.9783333333333)"><rect width="6" height="6"/></g>
<g transform="translate(685.125,105.125) scale(4.9783333333333)"><rect width="6" height="6"/></g>
<g transform="translate(337.125,134.125) scale(4.9783333333333)"><rect width="6" height="6"/></g>
<g transform="translate(482.125,134.125) scale(4.9783333333333)"><rect width="6" height="6"/></g>
<g transform="translate(511.125,134.125) scale(4.9783333333333)"><rect width="6" height="6"/></g>
<g transform="translate(540.125,134.125) scale(4.9783333333333)"><rect width="6" height="6"/></g>
<g transform="translate(656.125,134.125) scale(4.9783333333333)"><rect width="6" height="6"/></g>
<g transform="translate(337.125,163.125) scale(4.9783333333333)"><rect width="6" height="6"/></g>
<g transform="translate(366.125,163.125) scale(4.9783333333333)"><rect width="6" height="6"/></g>
<g transform="translate(395.125,163.125) scale(4.9783333333333)"><rect width="6" height="6"/></g>
<g transform="translate(424.125,163.125) scale(4.9783333333333)"><rect width="6" height="6"/></g>
<g transform="translate(482.125,163.125) scale(4.9783333333333)"><rect width="6" height="6"/></g>
<g transform="translate(511.125,163.125) scale(4.9783333333333)"><rect width="6" height="6"/></g>
<g transform="translate(627.125,163.125) scale(4.9783333333333)"><rect width="6" height="6"/></g>
<g transform="translate(656.125,163.125) scale(4.9783333333333)"><rect width="6" height="6"/></g>
<g transform="translate(685.125,163.125) scale(4.9783333333333)"><rect width="6" height="6"/></g>
<g transform="translate(424.125,192.125) scale(4.9783333333333)"><rect width="6" height="6"/></g>
<g transform="translate(453.125,192.125) scale(4.9783333333333)"><rect width="6" height="6"/></g>
<g transform="translate(482.125,192.125) scale(4.9783333333333)"><rect width="6" height="6"/></g>
<g transform="translate(598.125,192.125) scale(4.9783333333333)"><rect width="6" height="6"/></g>
<g transform="translate(627.125,192.125) scale(4.9783333333333)"><rect width="6" height="6"/></g>
<g transform="translate(656.125,192.125) scale(4.9783333333333)"><rect width="6" height="6"/></g>
<g transform="translate(685.125,192.125) scale(4.9783333333333)"><rect width="6" height="6"/></g>
<g transform="translate(453.125,221.125) scale(4.9783333333333)"><rect width="6" height="6"/></g>
<g transform="translate(482.125,221.125) scale(4.9783333333333)"><rect width="6" height="6"/></g>
<g transform="translate(511.125,221.125) scale(4.9783333333333)"><rect width="6" height="6"/></g>
<g transform="translate(569.125,221.125) scale(4.9783333333333)"><rect width="6" height="6"/></g>
<g transform="translate(627.125,221.125) scale(4.9783333333333)"><rect width="6" height="6"/></g>
<g transform="translate(656.125,221.125) scale(4.9783333333333)"><rect width="6" height="6"/></g>
<g transform="translate(685.125,221.125) scale(4.9783333333333)"><rect width="6" height="6"/></g>
<g transform="translate(337.125,250.125) scale(4.9783333333333)"><rect width="6" height="6"/></g>
<g transform="translate(366.125,250.125) scale(4.9783333333333)"><rect width="6" height="6"/></g>
<g transform="translate(395.125,250.125) scale(4.9783333333333)"><rect width="6" height="6"/></g>
<g transform="translate(424.125,250.125) scale(4.9783333333333)"><rect width="6" height="6"/></g>
<g transform="translate(453.125,250.125) scale(4.9783333333333)"><rect width="6" height="6"/></g>
<g transform="translate(482.125,250.125) scale(4.9783333333333)"><rect width="6" height="6"/></g>
<g transform="translate(511.125,250.125) scale(4.9783333333333)"><rect width="6" height="6"/></g>
<g transform="translate(627.125,250.125) scale(4.9783333333333)"><rect width="6" height="6"/></g>
<g transform="translate(685.125,250.125) scale(4.9783333333333)"><rect width="6" height="6"/></g>
<g transform="translate(337.125,279.125) scale(4.9783333333333)"><rect width="6" height="6"/></g>
<g transform="translate(395.125,279.125) scale(4.9783333333333)"><rect width="6" height="6"/></g>
<g transform="translate(453.125,279.125) scale(4.9783333333333)"><rect width="6" height="6"/></g>
<g transform="translate(511.125,279.125) scale(4.9783333333333)"><rect width="6" height="6"/></g>
<g transform="translate(569.125,279.125) scale(4.9783333333333)"><rect width="6" height="6"/></g>
<g transform="translate(627.125,279.125) scale(4.9783333333333)"><rect width="6" height="6"/></g>
<g transform="translate(685.125,279.125) scale(4.9783333333333)"><rect width="6" height="6"/></g>
<g transform="translate(337.125,308.125) scale(4.9783333333333)"><rect width="6" height="6"/></g>
<g transform="translate(366.125,308.125) scale(4.9783333333333)"><rect width="6" height="6"/></g>
<g transform="translate(424.125,308.125) scale(4.9783333333333)"><rect width="6" height="6"/></g>
<g transform="translate(482.125,308.125) scale(4.9783333333333)"><rect width="6" height="6"/></g>
<g transform="translate(511.125,308.125) scale(4.9783333333333)"><rect width="6" height="6"/></g>
<g transform="translate(540.125,308.125) scale(4.9783333333333)"><rect width="6" height="6"/></g>
<g transform="translate(569.125,308.125) scale(4.9783333333333)"><rect width="6" height="6"/></g>
<g transform="translate(163.125,337.125) scale(4.9783333333333)"><rect width="6" height="6"/></g>
<g transform="translate(192.125,337.125) scale(4.9783333333333)"><rect width="6" height="6"/></g>
<g transform="translate(221.125,337.125) scale(4.9783333333333)"><rect width="6" height="6"/></g>
<g transform="translate(279.125,337.125) scale(4.9783333333333)"><rect width="6" height="6"/></g>
<g transform="translate(337.125,337.125) scale(4.9783333333333)"><rect width="6" height="6"/></g>
<g transform="translate(366.125,337.125) scale(4.9783333333333)"><rect width="6" height="6"/></g>
<g transform="translate(453.125,337.125) scale(4.9783333333333)"><rect width="6" height="6"/></g>
<g transform="translate(482.125,337.125) scale(4.9783333333333)"><rect width="6" height="6"/></g>
<g transform="translate(511.125,337.125) scale(4.9783333333333)"><rect width="6" height="6"/></g>
<g transform="translate(627.125,337.125) scale(4.9783333333333)"><rect width="6" height="6"/></g>
<g transform="translate(656.125,337.125) scale(4.9783333333333)"><rect width="6" height="6"/></g>
<g transform="translate(714.125,337.125) scale(4.9783333333333)"><rect width="6" height="6"/></g>
<g transform="translate(743.125,337.125) scale(4.9783333333333)"><rect width="6" height="6"/></g>
<g transform="translate(772.125,337.125) scale(4.9783333333333)"><rect width="6" height="6"/></g>
<g transform="translate(859.125,337.125) scale(4.9783333333333)"><rect width="6" height="6"/></g>
<g transform="translate(888.125,337.125) scale(4.9783333333333)"><rect width="6" height="6"/></g>
<g transform="translate(917.125,337.125) scale(4.9783333333333)"><rect width="6" height="6"/></g>
<g transform="translate(105.125,366.125) scale(4.9783333333333)"><rect width="6" height="6"/></g>
<g transform="translate(163.125,366.125) scale(4.9783333333333)"><rect width="6" height="6"/></g>
<g transform="translate(337.125,366.125) scale(4.9783333333333)"><rect width="6" height="6"/></g>
<g transform="translate(424.125,366.125) scale(4.9783333333333)"><rect width="6" height="6"/></g>
<g transform="translate(453.125,366.125) scale(4.9783333333333)"><rect width="6" height="6"/></g>
<g transform="translate(511.125,366.125) scale(4.9783333333333)"><rect width="6" height="6"/></g>
<g transform="translate(540.125,366.125) scale(4.9783333333333)"><rect width="6" height="6"/></g>
<g transform="translate(598.125,366.125) scale(4.9783333333333)"><rect width="6" height="6"/></g>
<g transform="translate(772.125,366.125) scale(4.9783333333333)"><rect width="6" height="6"/></g>
<g transform="translate(801.125,366.125) scale(4.9783333333333)"><rect width="6" height="6"/></g>
<g transform="translate(859.125,366.125) scale(4.9783333333333)"><rect width="6" height="6"/></g>
<g transform="translate(917.125,366.125) scale(4.9783333333333)"><rect width="6" height="6"/></g>
<g transform="translate(192.125,395.125) scale(4.9783333333333)"><rect width="6" height="6"/></g>
<g transform="translate(221.125,395.125) scale(4.9783333333333)"><rect width="6" height="6"/></g>
<g transform="translate(279.125,395.125) scale(4.9783333333333)"><rect width="6" height="6"/></g>
<g transform="translate(337.125,395.125) scale(4.9783333333333)"><rect width="6" height="6"/></g>
<g transform="translate(453.125,395.125) scale(4.9783333333333)"><rect width="6" height="6"/></g>
<g transform="translate(482.125,395.125) scale(4.9783333333333)"><rect width="6" height="6"/></g>
<g transform="translate(569.125,395.125) scale(4.9783333333333)"><rect width="6" height="6"/></g>
<g transform="translate(714.125,395.125) scale(4.9783333333333)"><rect width="6" height="6"/></g>
<g transform="translate(743.125,395.125) scale(4.9783333333333)"><rect width="6" height="6"/></g>
<g transform="translate(830.125,395.125) scale(4.9783333333333)"><rect width="6" height="6"/></g>
<g transform="translate(134.125,424.125) scale(4.9783333333333)"><rect width="6" height="6"/></g>
<g transform="translate(192.125,424.125) scale(4.9783333333333)"><rect width="6" height="6"/></g>
<g transform="translate(221.125,424.125) scale(4.9783333333333)"><rect width="6" height="6"/></g>
<g transform="translate(250.125,424.125) scale(4.9783333333333)"><rect width="6" height="6"/></g>
<g transform="translate(308.125,424.125) scale(4.9783333333333)"><rect width="6" height="6"/></g>
<g transform="translate(337.125,424.125) scale(4.9783333333333)"><rect width="6" height="6"/></g>
<g transform="translate(482.125,424.125) scale(4.9783333333333)"><rect width="6" height="6"/></g>
<g transform="translate(540.125,424.125) scale(4.9783333333333)"><rect width="6" height="6"/></g>
<g transform="translate(569.125,424.125) scale(4.9783333333333)"><rect width="6" height="6"/></g>
<g transform="translate(598.125,424.125) scale(4.9783333333333)"><rect width="6" height="6"/></g>
<g transform="translate(627.125,424.125) scale(4.9783333333333)"><rect width="6" height="6"/></g>
<g transform="translate(685.125,424.125) scale(4.9783333333333)"><rect width="6" height="6"/></g>
<g transform="translate(714.125,424.125) scale(4.9783333333333)"><rect width="6" height="6"/></g>
<g transform="translate(743.125,424.125) scale(4.9783333333333)"><rect width="6" height="6"/></g>
<g transform="translate(772.125,424.125) scale(4.9783333333333)"><rect width="6" height="6"/></g>
<g transform="translate(801.125,424.125) scale(4.9783333333333)"><rect width="6" height="6"/></g>
<g transform="translate(888.125,424.125) scale(4.9783333333333)"><rect width="6" height="6"/></g>
<g transform="translate(105.125,453.125) scale(4.9783333333333)"><rect width="6" height="6"/></g>
<g transform="translate(192.125,453.125) scale(4.9783333333333)"><rect width="6" height="6"/></g>
<g transform="translate(221.125,453.125) scale(4.9783333333333)"><rect width="6" height="6"/></g>
<g transform="translate(279.125,453.125) scale(4.9783333333333)"><rect width="6" height="6"/></g>
<g transform="translate(308.125,453.125) scale(4.9783333333333)"><rect width="6" height="6"/></g>
<g transform="translate(366.125,453.125) scale(4.9783333333333)"><rect width="6" height="6"/></g>
<g transform="translate(395.125,453.125) scale(4.9783333333333)"><rect width="6" height="6"/></g>
<g transform="translate(424.125,453.125) scale(4.9783333333333)"><rect width="6" height="6"/></g>
<g transform="translate(511.125,453.125) scale(4.9783333333333)"><rect width="6" height="6"/></g>
<g transform="translate(540.125,453.125) scale(4.9783333333333)"><rect width="6" height="6"/></g>
<g transform="translate(598.125,453.125) scale(4.9783333333333)"><rect width="6" height="6"/></g>
<g transform="translate(627.125,453.125) scale(4.9783333333333)"><rect width="6" height="6"/></g>
<g transform="translate(656.125,453.125) scale(4.9783333333333)"><rect width="6" height="6"/></g>
<g transform="translate(714.125,453.125) scale(4.9783333333333)"><rect width="6" height="6"/></g>
<g transform="translate(772.125,453.125) scale(4.9783333333333)"><rect width="6" height="6"/></g>
<g transform="translate(859.125,453.125) scale(4.9783333333333)"><rect width="6" height="6"/></g>
<g transform="translate(888.125,453.125) scale(4.9783333333333)"><rect width="6" height="6"/></g>
<g transform="translate(917.125,453.125) scale(4.9783333333333)"><rect width="6" height="6"/></g>
<g transform="translate(105.125,482.125) scale(4.9783333333333)"><rect width="6" height="6"/></g>
<g transform="translate(192.125,482.125) scale(4.9783333333333)"><rect width="6" height="6"/></g>
<g transform="translate(221.125,482.125) scale(4.9783333333333)"><rect width="6" height="6"/></g>
<g transform="translate(250.125,482.125) scale(4.9783333333333)"><rect width="6" height="6"/></g>
<g transform="translate(308.125,482.125) scale(4.9783333333333)"><rect width="6" height="6"/></g>
<g transform="translate(366.125,482.125) scale(4.9783333333333)"><rect width="6" height="6"/></g>
<g transform="translate(395.125,482.125) scale(4.9783333333333)"><rect width="6" height="6"/></g>
<g transform="translate(453.125,482.125) scale(4.9783333333333)"><rect width="6" height="6"/></g>
<g transform="translate(598.125,482.125) scale(4.9783333333333)"><rect width="6" height="6"/></g>
<g transform="translate(656.125,482.125) scale(4.9783333333333)"><rect width="6" height="6"/></g>
<g transform="translate(685.125,482.125) scale(4.9783333333333)"><rect width="6" height="6"/></g>
<g transform="translate(714.125,482.125) scale(4.9783333333333)"><rect width="6" height="6"/></g>
<g transform="translate(743.125,482.125) scale(4.9783333333333)"><rect width="6" height="6"/></g>
<g transform="translate(801.125,482.125) scale(4.9783333333333)"><rect width="6" height="6"/></g>
<g transform="translate(830.125,482.125) scale(4.9783333333333)"><rect width="6" height="6"/></g>
<g transform="translate(917.125,482.125) scale(4.9783333333333)"><rect width="6" height="6"/></g>
<g transform="translate(105.125,511.125) scale(4.9783333333333)"><rect width="6" height="6"/></g>
<g transform="translate(163.125,511.125) scale(4.9783333333333)"><rect width="6" height="6"/></g>
<g transform="translate(221.125,511.125) scale(4.9783333333333)"><rect width="6" height="6"/></g>
<g transform="translate(279.125,511.125) scale(4.9783333333333)"><rect width="6" height="6"/></g>
<g transform="translate(424.125,511.125) scale(4.9783333333333)"><rect width="6" height="6"/></g>
<g transform="translate(482.125,511.125) scale(4.9783333333333)"><rect width="6" height="6"/></g>
<g transform="translate(511.125,511.125) scale(4.9783333333333)"><rect width="6" height="6"/></g>
<g transform="translate(569.125,511.125) scale(4.9783333333333)"><rect width="6" height="6"/></g>
<g transform="translate(714.125,511.125) scale(4.9783333333333)"><rect width="6" height="6"/></g>
<g transform="translate(772.125,511.125) scale(4.9783333333333)"><rect width="6" height="6"/></g>
<g transform="translate(134.125,540.125) scale(4.9783333333333)"><rect width="6" height="6"/></g>
<g transform="translate(163.125,540.125) scale(4.9783333333333)"><rect width="6" height="6"/></g>
<g transform="translate(192.125,540.125) scale(4.9783333333333)"><rect width="6" height="6"/></g>
<g transform="translate(221.125,540.125) scale(4.9783333333333)"><rect width="6" height="6"/></g>
<g transform="translate(250.125,540.125) scale(4.9783333333333)"><rect width="6" height="6"/></g>
<g transform="translate(366.125,540.125) scale(4.9783333333333)"><rect width="6" height="6"/></g>
<g transform="translate(453.125,540.125) scale(4.9783333333333)"><rect width="6" height="6"/></g>
<g transform="translate(482.125,540.125) scale(4.9783333333333)"><rect width="6" height="6"/></g>
<g transform="translate(511.125,540.125) scale(4.9783333333333)"><rect width="6" height="6"/></g>
<g transform="translate(569.125,540.125) scale(4.9783333333333)"><rect width="6" height="6"/></g>
<g transform="translate(598.125,540.125) scale(4.9783333333333)"><rect width="6" height="6"/></g>
<g transform="translate(627.125,540.125) scale(4.9783333333333)"><rect width="6" height="6"/></g>
<g transform="translate(656.125,540.125) scale(4.9783333333333)"><rect width="6" height="6"/></g>
<g transform="translate(714.125,540.125) scale(4.9783333333333)"><rect width="6" height="6"/></g>
<g transform="translate(743.125,540.125) scale(4.9783333333333)"><rect width="6" height="6"/></g>
<g transform="translate(801.125,540.125) scale(4.9783333333333)"><rect width="6" height="6"/></g>
<g transform="translate(830.125,540.125) scale(4.9783333333333)"><rect width="6" height="6"/></g>
<g transform="translate(888.125,540.125) scale(4.9783333333333)"><rect width="6" height="6"/></g>
<g transform="translate(105.125,569.125) scale(4.9783333333333)"><rect width="6" height="6"/></g>
<g transform="translate(134.125,569.125) scale(4.9783333333333)"><rect width="6" height="6"/></g>
<g transform="translate(221.125,569.125) scale(4.9783333333333)"><rect width="6" height="6"/></g>
<g transform="translate(250.125,569.125) scale(4.9783333333333)"><rect width="6" height="6"/></g>
<g transform="translate(279.125,569.125) scale(4.9783333333333)"><rect width="6" height="6"/></g>
<g transform="translate(308.125,569.125) scale(4.9783333333333)"><rect width="6" height="6"/></g>
<g transform="translate(395.125,569.125) scale(4.9783333333333)"><rect width="6" height="6"/></g>
<g transform="translate(424.125,569.125) scale(4.9783333333333)"><rect width="6" height="6"/></g>
<g transform="translate(482.125,569.125) scale(4.9783333333333)"><rect width="6" height="6"/></g>
<g transform="translate(511.125,569.125) scale(4.9783333333333)"><rect width="6" height="6"/></g>
<g transform="translate(540.125,569.125) scale(4.9783333333333)"><rect width="6" height="6"/></g>
<g transform="translate(627.125,569.125) scale(4.9783333333333)"><rect width="6" height="6"/></g>
<g transform="translate(830.125,569.125) scale(4.9783333333333)"><rect width="6" height="6"/></g>
<g transform="translate(859.125,569.125) scale(4.9783333333333)"><rect width="6" height="6"/></g>
<g transform="translate(917.125,569.125) scale(4.9783333333333)"><rect width="6" height="6"/></g>
<g transform="translate(105.125,598.125) scale(4.9783333333333)"><rect width="6" height="6"/></g>
<g transform="translate(134.125,598.125) scale(4.9783333333333)"><rect width="6" height="6"/></g>
<g transform="translate(308.125,598.125) scale(4.9783333333333)"><rect width="6" height="6"/></g>
<g transform="translate(395.125,598.125) scale(4.9783333333333)"><rect width="6" height="6"/></g>
<g transform="translate(453.125,598.125) scale(4.9783333333333)"><rect width="6" height="6"/></g>
<g transform="translate(511.125,598.125) scale(4.9783333333333)"><rect width="6" height="6"/></g>
<g transform="translate(569.125,598.125) scale(4.9783333333333)"><rect width="6" height="6"/></g>
<g transform="translate(598.125,598.125) scale(4.9783333333333)"><rect width="6" height="6"/></g>
<g transform="translate(627.125,598.125) scale(4.9783333333333)"><rect width="6" height="6"/></g>
<g transform="translate(685.125,598.125) scale(4.9783333333333)"><rect width="6" height="6"/></g>
<g transform="translate(714.125,598.125) scale(4.9783333333333)"><rect width="6" height="6"/></g>
<g transform="translate(772.125,598.125) scale(4.9783333333333)"><rect width="6" height="6"/></g>
<g transform="translate(801.125,598.125) scale(4.9783333333333)"><rect width="6" height="6"/></g>
<g transform="translate(830.125,598.125) scale(4.9783333333333)"><rect width="6" height="6"/></g>
<g transform="translate(859.125,598.125) scale(4.9783333333333)"><rect width="6" height="6"/></g>
<g transform="translate(888.125,598.125) scale(4.9783333333333)"><rect width="6" height="6"/></g>
<g transform="translate(917.125,598.125) scale(4.9783333333333)"><rect width="6" height="6"/></g>
<g transform="translate(105.125,627.125) scale(4.9783333333333)"><rect width="6" height="6"/></g>
<g transform="translate(221.125,627.125) scale(4.9783333333333)"><rect width="6" height="6"/></g>
<g transform="translate(250.125,627.125) scale(4.9783333333333)"><rect width="6" height="6"/></g>
<g transform="translate(279.125,627.125) scale(4.9783333333333)"><rect width="6" height="6"/></g>
<g transform="translate(366.125,627.125) scale(4.9783333333333)"><rect width="6" height="6"/></g>
<g transform="translate(482.125,627.125) scale(4.9783333333333)"><rect width="6" height="6"/></g>
<g transform="translate(540.125,627.125) scale(4.9783333333333)"><rect width="6" height="6"/></g>
<g transform="translate(569.125,627.125) scale(4.9783333333333)"><rect width="6" height="6"/></g>
<g transform="translate(598.125,627.125) scale(4.9783333333333)"><rect width="6" height="6"/></g>
<g transform="translate(627.125,627.125) scale(4.9783333333333)"><rect width="6" height="6"/></g>
<g transform="translate(743.125,627.125) scale(4.9783333333333)"><rect width="6" height="6"/></g>
<g transform="translate(801.125,627.125) scale(4.9783333333333)"><rect width="6" height="6"/></g>
<g transform="translate(830.125,627.125) scale(4.9783333333333)"><rect width="6" height="6"/></g>
<g transform="translate(859.125,627.125) scale(4.9783333333333)"><rect width="6" height="6"/></g>
<g transform="translate(105.125,656.125) scale(4.9783333333333)"><rect width="6" height="6"/></g>
<g transform="translate(192.125,656.125) scale(4.9783333333333)"><rect width="6" height="6"/></g>
<g transform="translate(221.125,656.125) scale(4.9783333333333)"><rect width="6" height="6"/></g>
<g transform="translate(250.125,656.125) scale(4.9783333333333)"><rect width="6" height="6"/></g>
<g transform="translate(308.125,656.125) scale(4.9783333333333)"><rect width="6" height="6"/></g>
<g transform="translate(337.125,656.125) scale(4.9783333333333)"><rect width="6" height="6"/></g>
<g transform="translate(395.125,656.125) scale(4.9783333333333)"><rect width="6" height="6"/></g>
<g transform="translate(540.125,656.125) scale(4.9783333333333)"><rect width="6" height="6"/></g>
<g transform="translate(598.125,656.125) scale(4.9783333333333)"><rect width="6" height="6"/></g>
<g transform="translate(627.125,656.125) scale(4.9783333333333)"><rect width="6" height="6"/></g>
<g transform="translate(743.125,656.125) scale(4.9783333333333)"><rect width="6" height="6"/></g>
<g transform="translate(772.125,656.125) scale(4.9783333333333)"><rect width="6" height="6"/></g>
<g transform="translate(801.125,656.125) scale(4.9783333333333)"><rect width="6" height="6"/></g>
<g transform="translate(888.125,656.125) scale(4.9783333333333)"><rect width="6" height="6"/></g>
<g transform="translate(917.125,656.125) scale(4.9783333333333)"><rect width="6" height="6"/></g>
<g transform="translate(105.125,685.125) scale(4.9783333333333)"><rect width="6" height="6"/></g>
<g transform="translate(163.125,685.125) scale(4.9783333333333)"><rect width="6" height="6"/></g>
<g transform="translate(221.125,685.125) scale(4.9783333333333)"><rect width="6" height="6"/></g>
<g transform="translate(250.125,685.125) scale(4.9783333333333)"><rect width="6" height="6"/></g>
<g transform="translate(279.125,685.125) scale(4.9783333333333)"><rect width="6" height="6"/></g>
<g transform="translate(308.125,685.125) scale(4.9783333333333)"><rect width="6" height="6"/></g>
<g transform="translate(366.125,685.125) scale(4.9783333333333)"><rect width="6" height="6"/></g>
<g transform="translate(395.125,685.125) scale(4.9783333333333)"><rect width="6" height="6"/></g>
<g transform="translate(424.125,685.125) scale(4.9783333333333)"><rect width="6" height="6"/></g>
<g transform="translate(482.125,685.125) scale(4.9783333333333)"><rect width="6" height="6"/></g>
<g transform="translate(569.125,685.125) scale(4.9783333333333)"><rect width="6" height="6"/></g>
<g transform="translate(656.125,685.125) scale(4.9783333333333)"><rect width="6" height="6"/></g>
<g transform="translate(685.125,685.125) scale(4.9783333333333)"><rect width="6" height="6"/></g>
<g transform="translate(714.125,685.125) scale(4.9783333333333)"><rect width="6" height="6"/></g>
<g transform="translate(743.125,685.125) scale(4.9783333333333)"><rect width="6" height="6"/></g>
<g transform="translate(772.125,685.125) scale(4.9783333333333)"><rect width="6" height="6"/></g>
<g transform="translate(801.125,685.125) scale(4.9783333333333)"><rect width="6" height="6"/></g>
<g transform="translate(830.125,685.125) scale(4.9783333333333)"><rect width="6" height="6"/></g>
<g transform="translate(859.125,685.125) scale(4.9783333333333)"><rect width="6" height="6"/></g>
<g transform="translate(337.125,714.125) scale(4.9783333333333)"><rect width="6" height="6"/></g>
<g transform="translate(366.125,714.125) scale(4.9783333333333)"><rect width="6" height="6"/></g>
<g transform="translate(395.125,714.125) scale(4.9783333333333)"><rect width="6" height="6"/></g>
<g transform="translate(424.125,714.125) scale(4.9783333333333)"><rect width="6" height="6"/></g>
<g transform="translate(453.125,714.125) scale(4.9783333333333)"><rect width="6" height="6"/></g>
<g transform="translate(511.125,714.125) scale(4.9783333333333)"><rect width="6" height="6"/></g>
<g transform="translate(540.125,714.125) scale(4.9783333333333)"><rect width="6" height="6"/></g>
<g transform="translate(598.125,714.125) scale(4.9783333333333)"><rect width="6" height="6"/></g>
<g transform="translate(685.125,714.125) scale(4.9783333333333)"><rect width="6" height="6"/></g>
<g transform="translate(801.125,714.125) scale(4.9783333333333)"><rect width="6" height="6"/></g>
<g transform="translate(830.125,714.125) scale(4.9783333333333)"><rect width="6" height="6"/></g>
<g transform="translate(888.125,714.125) scale(4.9783333333333)"><rect width="6" height="6"/></g>
<g transform="translate(917.125,714.125) scale(4.9783333333333)"><rect width="6" height="6"/></g>
<g transform="translate(366.125,743.125) scale(4.9783333333333)"><rect width="6" height="6"/></g>
<g transform="translate(569.125,743.125) scale(4.9783333333333)"><rect width="6" height="6"/></g>
<g transform="translate(656.125,743.125) scale(4.9783333333333)"><rect width="6" height="6"/></g>
<g transform="translate(685.125,743.125) scale(4.9783333333333)"><rect width="6" height="6"/></g>
<g transform="translate(743.125,743.125) scale(4.9783333333333)"><rect width="6" height="6"/></g>
<g transform="translate(801.125,743.125) scale(4.9783333333333)"><rect width="6" height="6"/></g>
<g transform="translate(511.125,772.125) scale(4.9783333333333)"><rect width="6" height="6"/></g>
<g transform="translate(569.125,772.125) scale(4.9783333333333)"><rect width="6" height="6"/></g>
<g transform="translate(598.125,772.125) scale(4.9783333333333)"><rect width="6" height="6"/></g>
<g transform="translate(627.125,772.125) scale(4.9783333333333)"><rect width="6" height="6"/></g>
<g transform="translate(656.125,772.125) scale(4.9783333333333)"><rect width="6" height="6"/></g>
<g transform="translate(685.125,772.125) scale(4.9783333333333)"><rect width="6" height="6"/></g>
<g transform="translate(801.125,772.125) scale(4.9783333333333)"><rect width="6" height="6"/></g>
<g transform="translate(830.125,772.125) scale(4.9783333333333)"><rect width="6" height="6"/></g>
<g transform="translate(888.125,772.125) scale(4.9783333333333)"><rect width="6" height="6"/></g>
<g transform="translate(917.125,772.125) scale(4.9783333333333)"><rect width="6" height="6"/></g>
<g transform="translate(337.125,801.125) scale(4.9783333333333)"><rect width="6" height="6"/></g>
<g transform="translate(395.125,801.125) scale(4.9783333333333)"><rect width="6" height="6"/></g>
<g transform="translate(453.125,801.125) scale(4.9783333333333)"><rect width="6" height="6"/></g>
<g transform="translate(598.125,801.125) scale(4.9783333333333)"><rect width="6" height="6"/></g>
<g transform="translate(685.125,801.125) scale(4.9783333333333)"><rect width="6" height="6"/></g>
<g transform="translate(714.125,801.125) scale(4.9783333333333)"><rect width="6" height="6"/></g>
<g transform="translate(743.125,801.125) scale(4.9783333333333)"><rect width="6" height="6"/></g>
<g transform="translate(772.125,801.125) scale(4.9783333333333)"><rect width="6" height="6"/></g>
<g transform="translate(801.125,801.125) scale(4.9783333333333)"><rect width="6" height="6"/></g>
<g transform="translate(830.125,801.125) scale(4.9783333333333)"><rect width="6" height="6"/></g>
<g transform="translate(859.125,801.125) scale(4.9783333333333)"><rect width="6" height="6"/></g>
<g transform="translate(917.125,801.125) scale(4.9783333333333)"><rect width="6" height="6"/></g>
<g transform="translate(337.125,830.125) scale(4.9783333333333)"><rect width="6" height="6"/></g>
<g transform="translate(366.125,830.125) scale(4.9783333333333)"><rect width="6" height="6"/></g>
<g transform="translate(395.125,830.125) scale(4.9783333333333)"><rect width="6" height="6"/></g>
<g transform="translate(424.125,830.125) scale(4.9783333333333)"><rect width="6" height="6"/></g>
<g transform="translate(511.125,830.125) scale(4.9783333333333)"><rect width="6" height="6"/></g>
<g transform="translate(540.125,830.125) scale(4.9783333333333)"><rect width="6" height="6"/></g>
<g transform="translate(598.125,830.125) scale(4.9783333333333)"><rect width="6" height="6"/></g>
<g transform="translate(656.125,830.125) scale(4.9783333333333)"><rect width="6" height="6"/></g>
<g transform="translate(685.125,830.125) scale(4.9783333333333)"><rect width="6" height="6"/></g>
<g transform="translate(714.125,830.125) scale(4.9783333333333)"><rect width="6" height="6"/></g>
<g transform="translate(772.125,830.125) scale(4.9783333333333)"><rect width="6" height="6"/></g>
<g transform="translate(337.125,859.125) scale(4.9783333333333)"><rect width="6" height="6"/></g>
<g transform="translate(569.125,859.125) scale(4.9783333333333)"><rect width="6" height="6"/></g>
<g transform="translate(656.125,859.125) scale(4.9783333333333)"><rect width="6" height="6"/></g>
<g transform="translate(685.125,859.125) scale(4.9783333333333)"><rect width="6" height="6"/></g>
<g transform="translate(714.125,859.125) scale(4.9783333333333)"><rect width="6" height="6"/></g>
<g transform="translate(743.125,859.125) scale(4.9783333333333)"><rect width="6" height="6"/></g>
<g transform="translate(772.125,859.125) scale(4.9783333333333)"><rect width="6" height="6"/></g>
<g transform="translate(801.125,859.125) scale(4.9783333333333)"><rect width="6" height="6"/></g>
<g transform="translate(830.125,859.125) scale(4.9783333333333)"><rect width="6" height="6"/></g>
<g transform="translate(859.125,859.125) scale(4.9783333333333)"><rect width="6" height="6"/></g>
<g transform="translate(888.125,859.125) scale(4.9783333333333)"><rect width="6" height="6"/></g>
<g transform="translate(424.125,888.125) scale(4.9783333333333)"><rect width="6" height="6"/></g>
<g transform="translate(453.125,888.125) scale(4.9783333333333)"><rect width="6" height="6"/></g>
<g transform="translate(540.125,888.125) scale(4.9783333333333)"><rect width="6" height="6"/></g>
<g transform="translate(656.125,888.125) scale(4.9783333333333)"><rect width="6" height="6"/></g>
<g transform="translate(685.125,888.125) scale(4.9783333333333)"><rect width="6" height="6"/></g>
<g transform="translate(714.125,888.125) scale(4.9783333333333)"><rect width="6" height="6"/></g>
<g transform="translate(801.125,888.125) scale(4.9783333333333)"><rect width="6" height="6"/></g>
<g transform="translate(830.125,888.125) scale(4.9783333333333)"><rect width="6" height="6"/></g>
<g transform="translate(888.125,888.125) scale(4.9783333333333)"><rect width="6" height="6"/></g>
<g transform="translate(366.125,917.125) scale(4.9783333333333)"><rect width="6" height="6"/></g>
<g transform="translate(395.125,917.125) scale(4.9783333333333)"><rect width="6" height="6"/></g>
<g transform="translate(453.125,917.125) scale(4.9783333333333)"><rect width="6" height="6"/></g>
<g transform="translate(482.125,917.125) scale(4.9783333333333)"><rect width="6" height="6"/></g>
<g transform="translate(540.125,917.125) scale(4.9783333333333)"><rect width="6" height="6"/></g>
<g transform="translate(598.125,917.125) scale(4.9783333333333)"><rect width="6" height="6"/></g>
<g transform="translate(743.125,917.125) scale(4.9783333333333)"><rect width="6" height="6"/></g>
<g transform="translate(801.125,917.125) scale(4.9783333333333)"><rect width="6" height="6"/></g>
</g><g><g transform="translate(105.125,105.125)" fill="#460682"><g transform="scale(14.5)"><path d="M0,0v14h14V0H0z M12,12H2V2h10V12z"/></g></g>
<g transform="translate(743.125,105.125)" fill="#460682"><g transform="scale(14.5)"><path d="M0,0v14h14V0H0z M12,12H2V2h10V12z"/></g></g>
<g transform="translate(105.125,743.125)" fill="#460682"><g transform="scale(14.5)"><path d="M0,0v14h14V0H0z M12,12H2V2h10V12z"/></g></g>
<g transform="translate(163.125,163.125)" fill="#2c0552"><g transform="scale(14.5)"><rect width="6" height="6"/></g></g>
<g transform="translate(801.125,163.125)" fill="#2c0552"><g transform="scale(14.5)"><rect width="6" height="6"/></g></g>
<g transform="translate(163.125,801.125)" fill="#2c0552"><g transform="scale(14.5)"><rect width="6" height="6"/></g></g></g><g transform="translate(196.52534722222,992.84722222222) scale(1.4600694444444)"><path fill="#FFFFFF" d="M5.1,109.7q-2.6-3.2-2.6-5.75t4.3-6.75q2.5-2.4,5.3-2.4t7.8,5q1.4,1.7,4,3.25t4.8,1.55q9.3,0,9.3-7.6q0-2.3-2.55-3.85t-6.35-2.25t-8.2-2.25t-8.2-3.65t-6.35-6.65t-2.55-10.95q0-8.8,6.55-15.35t17.85-6.55q6,0,10.95,1.55t6.85,3.15l2.5,1.9q3.1,2.9,3.1,4.9t-2.4,5.5q-3.4,5-7,5q-2.1,0-5.2-2q-0.3-0.2-1.15-1t-1.55-1.3q-2.1-1.3-5.35-1.3t-5.4,1.55t-2.15,4.3t2.55,4.45t6.35,2.3t8.3,1.85t8.3,3.05t6.35,6.25t2.55,10.95t-2.6,11.45t-6.8,7.65q-8.1,5.3-17.3,5.3q-4.7,0-8.9-1.15t-6.8-2.85q-5.3-3.2-7.4-6.2z M108.1,100.8l1.8-1.3q3.4-2,4.8-2q3.1,0,6.7,5.6q2.2,3.5,2.2,5.6t-1.35,3.5t-3.15,2.5t-3.45,2.1t-6.75,2.6t-9.85,1.6t-9.6-1.25t-10-4.2t-9.25-7.2t-6.75-10.9t-2.65-14.45t2.6-14.15t6.65-10.5t9.25-6.95q9.8-5.4,19.7-5.4q4.7,0,9.55,1.45t7.35,2.95l2.4,1.4q1.8,1.1,2.8,1.8q2.6,2.1,2.6,4.75t-2.1,5.55q-3.9,5.4-7,5.4q-1.8,0-5.1-2.2q-4.2-3.4-11.2-3.4q-6.5,0-12.8,4.5q-3,2.2-5,6.2t-2,9.05t2,9.05t5.1,6.3q6.1,4.4,12.7,4.4q3.1,0,5.85-0.8t3.95-1.6z M172.5,51.9l27,55.8q1.7,3.4,1.7,5.1q0,3.6-5.8,6.5q-3.4,1.7-5.35,1.7t-3.2-0.9t-1.8-1.9t-1.55-3l-5.2-10.8l-27.7,0l-5.2,10.8q-1,2-1.55,2.9t-1.8,1.85t-3.2,0.95t-5.35-1.7q-5.8-2.8-5.8-6.4q0-1.7,1.7-5.1l27-55.9q1.1-2.3,3.35-3.7t4.75-1.4q5.4,0,8,5.2z M164.4,75.9l-6.6,13.7l13.3,0z M256.9,47.4q1.9-0.6,4.75-0.6t4.6,0.5t2.6,1.2t1.25,2.1q0.6,1.6,0.6,5.1l0,55.5q0,2.4-0.15,3.5t-0.95,2.6q-1.4,2.7-7.8,2.7q-3.9,0-5.4-0.6t-2.5-1.9q-22.5-30-29.6-39.2l0,32.9q0,2.4-0.15,3.5t-0.95,2.6q-1.4,2.7-7.8,2.7q-6.2,0-7.6-2.7q-0.8-1.5-0.95-2.7t-0.15-3.5l0-55.8q0-3.8,0.95-5.55t2.85-2.35t4.9-0.6t4.75,0.55t2.45,1.25q0.4,0.3,2.3,2.6q21.1,28.7,28.2,37.9l0-33.8q0-3.8,0.95-5.55t2.85-2.35z  M381.9,49.5q0.8,1.5,0.95,2.7t0.15,3.5l0,55.5q0,6.9-3.8,8.1q-1.9,0.6-4.8,0.6t-4.6-0.5t-2.6-1.2t-1.4-2q-0.5-1.7-0.5-5.2l0-33.5q-2.5,3.1-7.3,9.85t-6.1,8.45t-1.8,2.35t-2.45,1.8t-4.2,1.15t-4.1-1.05t-2.65-2.05l-0.8-1.1q-2-2.5-7.9-10.65t-6.4-8.75l0,33.7q0,2.3-0.15,3.45t-0.95,2.55q-1.5,2.7-7.8,2.7q-6.1,0-7.6-2.7q-0.8-1.4-0.95-2.6t-0.15-3.6l0-55.5q0-2.3,0.15-3.45t0.95-2.65q1.5-2.6,7.8-2.6q2.7,0,4.65,0.65t2.55,1.35l0.6,0.6l22.7,29.8q17-22.5,22.7-29.7q1.7-2.7,8.05-2.7t7.75,2.7z M408.7,102.3l30.8,0q2.3,0,3.45,0.15t2.65,0.95q2.7,1.4,2.7,7.8q0,7-3.7,8.2q-1.7,0.6-5.2,0.6l-39.6,0q-7,0-8.2-3.8q-0.6-1.6-0.6-5.1l0-55.6q0-5.1,1.9-6.95t7.2-1.85l39.4,0q2.3,0,3.45,0.15t2.65,0.95q2.7,1.4,2.7,7.8q0,7-3.7,8.2q-1.7,0.6-5.2,0.6l-30.7,0l0,10.1l19.8,0q2.3,0,3.45,0.15t2.65,0.95q2.7,1.4,2.7,7.8q0,7-3.8,8.2q-1.7,0.6-5.2,0.6l-19.6,0l0,10.1z"/></g></svg>
