%TF.GenerationSoftware,KiCad,Pcbnew,7.0.8*%
%TF.CreationDate,2023-11-04T19:47:02-03:00*%
%TF.ProjectId,PECDR,50454344-522e-46b6-9963-61645f706362,rev?*%
%TF.SameCoordinates,Original*%
%TF.FileFunction,Paste,Top*%
%TF.FilePolarity,Positive*%
%FSLAX46Y46*%
G04 Gerber Fmt 4.6, Leading zero omitted, Abs format (unit mm)*
G04 Created by KiCad (PCBNEW 7.0.8) date 2023-11-04 19:47:02*
%MOMM*%
%LPD*%
G01*
G04 APERTURE LIST*
G04 Aperture macros list*
%AMRoundRect*
0 Rectangle with rounded corners*
0 $1 Rounding radius*
0 $2 $3 $4 $5 $6 $7 $8 $9 X,Y pos of 4 corners*
0 Add a 4 corners polygon primitive as box body*
4,1,4,$2,$3,$4,$5,$6,$7,$8,$9,$2,$3,0*
0 Add four circle primitives for the rounded corners*
1,1,$1+$1,$2,$3*
1,1,$1+$1,$4,$5*
1,1,$1+$1,$6,$7*
1,1,$1+$1,$8,$9*
0 Add four rect primitives between the rounded corners*
20,1,$1+$1,$2,$3,$4,$5,0*
20,1,$1+$1,$4,$5,$6,$7,0*
20,1,$1+$1,$6,$7,$8,$9,0*
20,1,$1+$1,$8,$9,$2,$3,0*%
G04 Aperture macros list end*
%ADD10RoundRect,0.412500X-0.837500X-0.412500X0.837500X-0.412500X0.837500X0.412500X-0.837500X0.412500X0*%
%ADD11RoundRect,0.250000X-0.325000X-0.450000X0.325000X-0.450000X0.325000X0.450000X-0.325000X0.450000X0*%
G04 APERTURE END LIST*
D10*
%TO.C,U3*%
X60900000Y-55562944D03*
X60900000Y-58102944D03*
X60900000Y-60642944D03*
X60900000Y-63182944D03*
X60900000Y-65722944D03*
X60900000Y-68262944D03*
X60900000Y-70802944D03*
X60900000Y-73342944D03*
X60900000Y-75882944D03*
X60900000Y-78422944D03*
X60900000Y-80962944D03*
X60900000Y-83502944D03*
X60900000Y-86042944D03*
X60900000Y-88582944D03*
X60900000Y-91122944D03*
X60900000Y-93662944D03*
X60900000Y-96202944D03*
X60900000Y-98742944D03*
X60900000Y-101282944D03*
X60900000Y-103822944D03*
X81982000Y-103822944D03*
X81982000Y-101282944D03*
X81982000Y-98742944D03*
X81982000Y-96202944D03*
X81982000Y-93662944D03*
X81982000Y-91122944D03*
X81982000Y-88582944D03*
X81982000Y-86042944D03*
X81982000Y-83502944D03*
X81982000Y-80962944D03*
X81982000Y-78422944D03*
X81982000Y-75882944D03*
X81982000Y-73342944D03*
X81982000Y-70802944D03*
X81982000Y-68262944D03*
X81982000Y-65722944D03*
X81982000Y-63182944D03*
X81982000Y-60642944D03*
X81982000Y-58102944D03*
X81982000Y-55562944D03*
%TD*%
D11*
%TO.C,D10*%
X37475000Y-57302944D03*
X39525000Y-57302944D03*
%TD*%
M02*
