%TF.GenerationSoftware,KiCad,Pcbnew,8.0.3*%
%TF.CreationDate,2024-06-26T22:06:07-03:00*%
%TF.ProjectId,PECDR,50454344-522e-46b6-9963-61645f706362,rev?*%
%TF.SameCoordinates,Original*%
%TF.FileFunction,Drillmap*%
%TF.FilePolarity,Positive*%
%FSLAX45Y45*%
G04 Gerber Fmt 4.5, Leading zero omitted, Abs format (unit mm)*
G04 Created by KiCad (PCBNEW 8.0.3) date 2024-06-26 22:06:07*
%MOMM*%
%LPD*%
G01*
G04 APERTURE LIST*
%ADD10C,0.100000*%
%ADD11C,0.200000*%
G04 APERTURE END LIST*
D10*
X11850000Y-7780294D02*
X11850000Y-7430294D01*
X9450000Y-5330294D02*
X9900000Y-5330294D01*
X10000000Y-10630294D02*
X9900000Y-10730294D01*
X10300000Y-5430294D02*
X10400000Y-5330294D01*
X4600000Y-10730294D02*
X8950000Y-10730294D01*
X9050000Y-10630294D02*
X8950000Y-10730294D01*
X11750000Y-8730294D02*
X11750000Y-9030294D01*
X11550000Y-5330294D02*
X10400000Y-5330294D01*
X11750000Y-7880294D02*
X11850000Y-7780294D01*
X10300000Y-10630294D02*
X10000000Y-10630294D01*
X11750000Y-8730294D02*
X11850000Y-8630294D01*
X11850000Y-9130294D02*
X11850000Y-10430294D01*
X11750000Y-8180294D02*
X11850000Y-8280294D01*
X11750000Y-7330294D02*
X11850000Y-7430294D01*
X9350000Y-10630294D02*
X9050000Y-10630294D01*
X3350000Y-10430294D02*
X3350000Y-5630294D01*
X11550000Y-5330294D02*
G75*
G02*
X11849996Y-5630294I0J-299996D01*
G01*
X11750000Y-7030294D02*
X11750000Y-7330294D01*
X11750000Y-7880294D02*
X11750000Y-8180294D01*
X11750000Y-9030294D02*
X11850000Y-9130294D01*
X9050000Y-5430294D02*
X8950000Y-5330294D01*
X10000000Y-5430294D02*
X10300000Y-5430294D01*
X11850000Y-8630294D02*
X11850000Y-8280294D01*
X9350000Y-5430294D02*
X9450000Y-5330294D01*
X10300000Y-10630294D02*
X10400000Y-10730294D01*
X8950000Y-5330294D02*
X3650000Y-5330294D01*
X9350000Y-10630294D02*
X9450000Y-10730294D01*
X10400000Y-10730294D02*
X11550000Y-10730294D01*
X3650000Y-10730294D02*
X4600000Y-10730294D01*
X11850000Y-6930294D02*
X11850000Y-5630294D01*
X10000000Y-5430294D02*
X9900000Y-5330294D01*
X11750000Y-7030294D02*
X11850000Y-6930294D01*
X9050000Y-5430294D02*
X9350000Y-5430294D01*
X9450000Y-10730294D02*
X9900000Y-10730294D01*
X3350000Y-5630294D02*
G75*
G02*
X3650000Y-5330295I300007J-8D01*
G01*
X3650000Y-10730294D02*
G75*
G02*
X3349996Y-10430294I0J300004D01*
G01*
X11850000Y-10430294D02*
G75*
G02*
X11550000Y-10730290I-299990J-6D01*
G01*
D11*
X3605777Y-11046778D02*
X3605777Y-10846778D01*
X3605777Y-10846778D02*
X3653396Y-10846778D01*
X3653396Y-10846778D02*
X3681967Y-10856302D01*
X3681967Y-10856302D02*
X3701015Y-10875350D01*
X3701015Y-10875350D02*
X3710539Y-10894397D01*
X3710539Y-10894397D02*
X3720062Y-10932492D01*
X3720062Y-10932492D02*
X3720062Y-10961064D01*
X3720062Y-10961064D02*
X3710539Y-10999159D01*
X3710539Y-10999159D02*
X3701015Y-11018207D01*
X3701015Y-11018207D02*
X3681967Y-11037254D01*
X3681967Y-11037254D02*
X3653396Y-11046778D01*
X3653396Y-11046778D02*
X3605777Y-11046778D01*
X3805777Y-11046778D02*
X3805777Y-10913445D01*
X3805777Y-10951540D02*
X3815301Y-10932492D01*
X3815301Y-10932492D02*
X3824824Y-10922969D01*
X3824824Y-10922969D02*
X3843872Y-10913445D01*
X3843872Y-10913445D02*
X3862920Y-10913445D01*
X3929586Y-11046778D02*
X3929586Y-10913445D01*
X3929586Y-10846778D02*
X3920062Y-10856302D01*
X3920062Y-10856302D02*
X3929586Y-10865826D01*
X3929586Y-10865826D02*
X3939110Y-10856302D01*
X3939110Y-10856302D02*
X3929586Y-10846778D01*
X3929586Y-10846778D02*
X3929586Y-10865826D01*
X4053396Y-11046778D02*
X4034348Y-11037254D01*
X4034348Y-11037254D02*
X4024824Y-11018207D01*
X4024824Y-11018207D02*
X4024824Y-10846778D01*
X4158158Y-11046778D02*
X4139110Y-11037254D01*
X4139110Y-11037254D02*
X4129586Y-11018207D01*
X4129586Y-11018207D02*
X4129586Y-10846778D01*
X4386729Y-11046778D02*
X4386729Y-10846778D01*
X4386729Y-10846778D02*
X4453396Y-10989635D01*
X4453396Y-10989635D02*
X4520063Y-10846778D01*
X4520063Y-10846778D02*
X4520063Y-11046778D01*
X4701015Y-11046778D02*
X4701015Y-10942016D01*
X4701015Y-10942016D02*
X4691491Y-10922969D01*
X4691491Y-10922969D02*
X4672444Y-10913445D01*
X4672444Y-10913445D02*
X4634348Y-10913445D01*
X4634348Y-10913445D02*
X4615301Y-10922969D01*
X4701015Y-11037254D02*
X4681967Y-11046778D01*
X4681967Y-11046778D02*
X4634348Y-11046778D01*
X4634348Y-11046778D02*
X4615301Y-11037254D01*
X4615301Y-11037254D02*
X4605777Y-11018207D01*
X4605777Y-11018207D02*
X4605777Y-10999159D01*
X4605777Y-10999159D02*
X4615301Y-10980112D01*
X4615301Y-10980112D02*
X4634348Y-10970588D01*
X4634348Y-10970588D02*
X4681967Y-10970588D01*
X4681967Y-10970588D02*
X4701015Y-10961064D01*
X4796253Y-10913445D02*
X4796253Y-11113445D01*
X4796253Y-10922969D02*
X4815301Y-10913445D01*
X4815301Y-10913445D02*
X4853396Y-10913445D01*
X4853396Y-10913445D02*
X4872444Y-10922969D01*
X4872444Y-10922969D02*
X4881967Y-10932492D01*
X4881967Y-10932492D02*
X4891491Y-10951540D01*
X4891491Y-10951540D02*
X4891491Y-11008683D01*
X4891491Y-11008683D02*
X4881967Y-11027731D01*
X4881967Y-11027731D02*
X4872444Y-11037254D01*
X4872444Y-11037254D02*
X4853396Y-11046778D01*
X4853396Y-11046778D02*
X4815301Y-11046778D01*
X4815301Y-11046778D02*
X4796253Y-11037254D01*
X4977205Y-11027731D02*
X4986729Y-11037254D01*
X4986729Y-11037254D02*
X4977205Y-11046778D01*
X4977205Y-11046778D02*
X4967682Y-11037254D01*
X4967682Y-11037254D02*
X4977205Y-11027731D01*
X4977205Y-11027731D02*
X4977205Y-11046778D01*
X4977205Y-10922969D02*
X4986729Y-10932492D01*
X4986729Y-10932492D02*
X4977205Y-10942016D01*
X4977205Y-10942016D02*
X4967682Y-10932492D01*
X4967682Y-10932492D02*
X4977205Y-10922969D01*
X4977205Y-10922969D02*
X4977205Y-10942016D01*
M02*
