%TF.GenerationSoftware,KiCad,Pcbnew,7.0.8*%
%TF.CreationDate,2023-11-04T19:47:02-03:00*%
%TF.ProjectId,PECDR,50454344-522e-46b6-9963-61645f706362,rev?*%
%TF.SameCoordinates,Original*%
%TF.FileFunction,Paste,Bot*%
%TF.FilePolarity,Positive*%
%FSLAX46Y46*%
G04 Gerber Fmt 4.6, Leading zero omitted, Abs format (unit mm)*
G04 Created by KiCad (PCBNEW 7.0.8) date 2023-11-04 19:47:02*
%MOMM*%
%LPD*%
G01*
G04 APERTURE LIST*
G04 Aperture macros list*
%AMRoundRect*
0 Rectangle with rounded corners*
0 $1 Rounding radius*
0 $2 $3 $4 $5 $6 $7 $8 $9 X,Y pos of 4 corners*
0 Add a 4 corners polygon primitive as box body*
4,1,4,$2,$3,$4,$5,$6,$7,$8,$9,$2,$3,0*
0 Add four circle primitives for the rounded corners*
1,1,$1+$1,$2,$3*
1,1,$1+$1,$4,$5*
1,1,$1+$1,$6,$7*
1,1,$1+$1,$8,$9*
0 Add four rect primitives between the rounded corners*
20,1,$1+$1,$2,$3,$4,$5,0*
20,1,$1+$1,$4,$5,$6,$7,0*
20,1,$1+$1,$6,$7,$8,$9,0*
20,1,$1+$1,$8,$9,$2,$3,0*%
G04 Aperture macros list end*
%ADD10RoundRect,0.237500X0.250000X0.237500X-0.250000X0.237500X-0.250000X-0.237500X0.250000X-0.237500X0*%
%ADD11RoundRect,0.237500X-0.237500X0.250000X-0.237500X-0.250000X0.237500X-0.250000X0.237500X0.250000X0*%
%ADD12R,2.000000X0.700000*%
%ADD13RoundRect,0.237500X0.237500X-0.250000X0.237500X0.250000X-0.237500X0.250000X-0.237500X-0.250000X0*%
%ADD14RoundRect,0.237500X-0.250000X-0.237500X0.250000X-0.237500X0.250000X0.237500X-0.250000X0.237500X0*%
%ADD15RoundRect,0.250000X1.500000X0.550000X-1.500000X0.550000X-1.500000X-0.550000X1.500000X-0.550000X0*%
%ADD16RoundRect,0.250000X-1.500000X-0.550000X1.500000X-0.550000X1.500000X0.550000X-1.500000X0.550000X0*%
%ADD17RoundRect,0.237500X0.237500X-0.300000X0.237500X0.300000X-0.237500X0.300000X-0.237500X-0.300000X0*%
%ADD18RoundRect,0.237500X-0.237500X0.300000X-0.237500X-0.300000X0.237500X-0.300000X0.237500X0.300000X0*%
%ADD19RoundRect,0.237500X-0.300000X-0.237500X0.300000X-0.237500X0.300000X0.237500X-0.300000X0.237500X0*%
%ADD20RoundRect,0.250000X-0.325000X-0.450000X0.325000X-0.450000X0.325000X0.450000X-0.325000X0.450000X0*%
%ADD21RoundRect,0.250000X-1.500000X-0.650000X1.500000X-0.650000X1.500000X0.650000X-1.500000X0.650000X0*%
%ADD22RoundRect,0.237500X-0.287500X-0.237500X0.287500X-0.237500X0.287500X0.237500X-0.287500X0.237500X0*%
%ADD23RoundRect,0.250000X-0.088388X0.548008X-0.548008X0.088388X0.088388X-0.548008X0.548008X-0.088388X0*%
%ADD24RoundRect,0.250000X0.325000X0.450000X-0.325000X0.450000X-0.325000X-0.450000X0.325000X-0.450000X0*%
%ADD25R,0.700000X2.000000*%
%ADD26R,1.600000X2.200000*%
%ADD27R,0.650000X1.500000*%
%ADD28R,1.080000X0.810000*%
%ADD29RoundRect,0.250000X0.548008X0.088388X0.088388X0.548008X-0.548008X-0.088388X-0.088388X-0.548008X0*%
%ADD30RoundRect,0.250000X0.088388X-0.548008X0.548008X-0.088388X-0.088388X0.548008X-0.548008X0.088388X0*%
%ADD31RoundRect,0.150000X-0.675000X-0.150000X0.675000X-0.150000X0.675000X0.150000X-0.675000X0.150000X0*%
G04 APERTURE END LIST*
D10*
%TO.C,R19*%
X40925000Y-76302944D03*
X39100000Y-76302944D03*
%TD*%
D11*
%TO.C,R16*%
X51700000Y-71877944D03*
X51700000Y-73702944D03*
%TD*%
D12*
%TO.C,Q2*%
X48000000Y-71902944D03*
X48000000Y-73802944D03*
X44600000Y-72852944D03*
%TD*%
D13*
%TO.C,R21*%
X85500000Y-83527944D03*
X85500000Y-81702944D03*
%TD*%
D14*
%TO.C,R5*%
X75837500Y-67802944D03*
X77662500Y-67802944D03*
%TD*%
D11*
%TO.C,R10*%
X34800000Y-86802944D03*
X34800000Y-88627944D03*
%TD*%
D15*
%TO.C,C4*%
X70400000Y-57302944D03*
X65000000Y-57302944D03*
%TD*%
D16*
%TO.C,C9*%
X73000000Y-81302944D03*
X78400000Y-81302944D03*
%TD*%
D17*
%TO.C,C6*%
X87900000Y-76402944D03*
X87900000Y-74677944D03*
%TD*%
D18*
%TO.C,C3*%
X104250000Y-88802944D03*
X104250000Y-90527944D03*
%TD*%
D19*
%TO.C,C8*%
X77750000Y-69752944D03*
X79475000Y-69752944D03*
%TD*%
D11*
%TO.C,R18*%
X54300000Y-54077944D03*
X54300000Y-55902944D03*
%TD*%
D10*
%TO.C,R20*%
X40925000Y-73902944D03*
X39100000Y-73902944D03*
%TD*%
D20*
%TO.C,D4*%
X90700000Y-63302944D03*
X92750000Y-63302944D03*
%TD*%
D11*
%TO.C,R8*%
X75500000Y-63477944D03*
X75500000Y-65302944D03*
%TD*%
D21*
%TO.C,D1*%
X80750000Y-55552944D03*
X85750000Y-55552944D03*
%TD*%
D17*
%TO.C,C7*%
X64250000Y-66802944D03*
X64250000Y-65077944D03*
%TD*%
D11*
%TO.C,R6*%
X66500000Y-64977944D03*
X66500000Y-66802944D03*
%TD*%
D22*
%TO.C,FB1*%
X75250000Y-55552944D03*
X77000000Y-55552944D03*
%TD*%
D14*
%TO.C,R2*%
X106175000Y-88802944D03*
X108000000Y-88802944D03*
%TD*%
D23*
%TO.C,D8*%
X99449568Y-96853376D03*
X98000000Y-98302944D03*
%TD*%
D24*
%TO.C,D5*%
X92750000Y-66052944D03*
X90700000Y-66052944D03*
%TD*%
D25*
%TO.C,Q1*%
X34800000Y-97002944D03*
X36700000Y-97002944D03*
X35750000Y-100402944D03*
%TD*%
D24*
%TO.C,D2*%
X97300000Y-70502944D03*
X95250000Y-70502944D03*
%TD*%
D10*
%TO.C,R14*%
X46425000Y-76302944D03*
X44600000Y-76302944D03*
%TD*%
D14*
%TO.C,R11*%
X34800000Y-94302944D03*
X36625000Y-94302944D03*
%TD*%
D13*
%TO.C,R15*%
X54300000Y-73702944D03*
X54300000Y-71877944D03*
%TD*%
%TO.C,R1*%
X110250000Y-85465444D03*
X110250000Y-83640444D03*
%TD*%
D20*
%TO.C,D6*%
X90700000Y-97052944D03*
X92750000Y-97052944D03*
%TD*%
D26*
%TO.C,L1*%
X64300000Y-74302944D03*
X70700000Y-74302944D03*
%TD*%
D11*
%TO.C,R17*%
X56800000Y-54077944D03*
X56800000Y-55902944D03*
%TD*%
D27*
%TO.C,U2*%
X69230000Y-62702944D03*
X70500000Y-62702944D03*
X71770000Y-62702944D03*
X73040000Y-62702944D03*
X73040000Y-68102944D03*
X71770000Y-68102944D03*
X70500000Y-68102944D03*
X69230000Y-68102944D03*
D28*
X72035000Y-64727944D03*
X70235000Y-64727944D03*
X72035000Y-66077944D03*
X70235000Y-66077944D03*
%TD*%
D10*
%TO.C,R13*%
X54975000Y-80702944D03*
X53150000Y-80702944D03*
%TD*%
D22*
%TO.C,FB2*%
X77750000Y-65702944D03*
X79500000Y-65702944D03*
%TD*%
D10*
%TO.C,R9*%
X37600000Y-103402944D03*
X35775000Y-103402944D03*
%TD*%
D24*
%TO.C,D7*%
X92750000Y-94552944D03*
X90700000Y-94552944D03*
%TD*%
D13*
%TO.C,R4*%
X39600000Y-68802944D03*
X39600000Y-66977944D03*
%TD*%
D10*
%TO.C,R3*%
X108000000Y-80302944D03*
X106175000Y-80302944D03*
%TD*%
D29*
%TO.C,D3*%
X97750000Y-62052944D03*
X96300432Y-60603376D03*
%TD*%
D11*
%TO.C,R7*%
X73000000Y-72477944D03*
X73000000Y-74302944D03*
%TD*%
D30*
%TO.C,D9*%
X96000000Y-96302944D03*
X97449568Y-94853376D03*
%TD*%
D10*
%TO.C,R12*%
X56800000Y-78702944D03*
X54975000Y-78702944D03*
%TD*%
D31*
%TO.C,U1*%
X102875000Y-86457944D03*
X102875000Y-85187944D03*
X102875000Y-83917944D03*
X102875000Y-82647944D03*
X108125000Y-82647944D03*
X108125000Y-83917944D03*
X108125000Y-85187944D03*
X108125000Y-86457944D03*
%TD*%
D18*
%TO.C,C1*%
X79500000Y-74440444D03*
X79500000Y-76165444D03*
%TD*%
M02*
