%TF.GenerationSoftware,KiCad,Pcbnew,8.0.3*%
%TF.CreationDate,2024-06-26T22:05:55-03:00*%
%TF.ProjectId,PECDR,50454344-522e-46b6-9963-61645f706362,rev?*%
%TF.SameCoordinates,Original*%
%TF.FileFunction,Copper,L1,Top*%
%TF.FilePolarity,Positive*%
%FSLAX46Y46*%
G04 Gerber Fmt 4.6, Leading zero omitted, Abs format (unit mm)*
G04 Created by KiCad (PCBNEW 8.0.3) date 2024-06-26 22:05:55*
%MOMM*%
%LPD*%
G01*
G04 APERTURE LIST*
G04 Aperture macros list*
%AMRoundRect*
0 Rectangle with rounded corners*
0 $1 Rounding radius*
0 $2 $3 $4 $5 $6 $7 $8 $9 X,Y pos of 4 corners*
0 Add a 4 corners polygon primitive as box body*
4,1,4,$2,$3,$4,$5,$6,$7,$8,$9,$2,$3,0*
0 Add four circle primitives for the rounded corners*
1,1,$1+$1,$2,$3*
1,1,$1+$1,$4,$5*
1,1,$1+$1,$6,$7*
1,1,$1+$1,$8,$9*
0 Add four rect primitives between the rounded corners*
20,1,$1+$1,$2,$3,$4,$5,0*
20,1,$1+$1,$4,$5,$6,$7,0*
20,1,$1+$1,$6,$7,$8,$9,0*
20,1,$1+$1,$8,$9,$2,$3,0*%
G04 Aperture macros list end*
%TA.AperFunction,ComponentPad*%
%ADD10RoundRect,0.250000X0.620000X0.845000X-0.620000X0.845000X-0.620000X-0.845000X0.620000X-0.845000X0*%
%TD*%
%TA.AperFunction,ComponentPad*%
%ADD11O,1.740000X2.190000*%
%TD*%
%TA.AperFunction,ComponentPad*%
%ADD12C,0.800000*%
%TD*%
%TA.AperFunction,ComponentPad*%
%ADD13C,6.400000*%
%TD*%
%TA.AperFunction,ComponentPad*%
%ADD14C,1.700000*%
%TD*%
%TA.AperFunction,ComponentPad*%
%ADD15O,1.700000X1.700000*%
%TD*%
%TA.AperFunction,ComponentPad*%
%ADD16C,1.740000*%
%TD*%
%TA.AperFunction,ComponentPad*%
%ADD17RoundRect,0.435000X0.660000X-0.435000X0.660000X0.435000X-0.660000X0.435000X-0.660000X-0.435000X0*%
%TD*%
%TA.AperFunction,SMDPad,CuDef*%
%ADD18RoundRect,0.412500X-0.837500X-0.412500X0.837500X-0.412500X0.837500X0.412500X-0.837500X0.412500X0*%
%TD*%
%TA.AperFunction,ComponentPad*%
%ADD19C,1.300000*%
%TD*%
%TA.AperFunction,ComponentPad*%
%ADD20C,1.800000*%
%TD*%
%TA.AperFunction,ComponentPad*%
%ADD21C,1.200000*%
%TD*%
%TA.AperFunction,ComponentPad*%
%ADD22C,2.500000*%
%TD*%
%TA.AperFunction,SMDPad,CuDef*%
%ADD23RoundRect,0.250000X-0.325000X-0.450000X0.325000X-0.450000X0.325000X0.450000X-0.325000X0.450000X0*%
%TD*%
%TA.AperFunction,ComponentPad*%
%ADD24R,1.700000X1.700000*%
%TD*%
%TA.AperFunction,ViaPad*%
%ADD25C,0.600000*%
%TD*%
%TA.AperFunction,Conductor*%
%ADD26C,0.700000*%
%TD*%
%TA.AperFunction,Conductor*%
%ADD27C,1.500000*%
%TD*%
%TA.AperFunction,Conductor*%
%ADD28C,0.500000*%
%TD*%
%TA.AperFunction,Conductor*%
%ADD29C,1.800000*%
%TD*%
%TA.AperFunction,Conductor*%
%ADD30C,0.400000*%
%TD*%
%TA.AperFunction,Conductor*%
%ADD31C,0.600000*%
%TD*%
G04 APERTURE END LIST*
D10*
%TO.P,J5,1,Pin_1*%
%TO.N,/TXD1-SDA0-RX0-GP4*%
X56790000Y-58302944D03*
D11*
%TO.P,J5,2,Pin_2*%
%TO.N,/RXD1-SCL0-CS0-GP5*%
X54250000Y-58302944D03*
%TO.P,J5,3,Pin_3*%
%TO.N,GND*%
X51710000Y-58302944D03*
%TO.P,J5,4,Pin_4*%
%TO.N,+3V3*%
X49170000Y-58302944D03*
%TD*%
D12*
%TO.P,J14,1,Pin_1*%
%TO.N,/A*%
X111100000Y-80302944D03*
X111802944Y-78605888D03*
X111802944Y-82000000D03*
X113500000Y-77902944D03*
D13*
X113500000Y-80302944D03*
D12*
X113500000Y-82702944D03*
X115197056Y-78605888D03*
X115197056Y-82000000D03*
X115900000Y-80302944D03*
%TD*%
D14*
%TO.P,J16,1,Pin_1*%
%TO.N,+3V3*%
X98000000Y-65802944D03*
D15*
%TO.P,J16,2,Pin_2*%
%TO.N,VS*%
X100540000Y-65802944D03*
%TO.P,J16,3,Pin_3*%
%TO.N,VCC*%
X103080000Y-65802944D03*
%TD*%
D16*
%TO.P,J7,1,Pin_1*%
%TO.N,unconnected-(J7-Pin_1-Pad1)*%
X37020000Y-91822944D03*
%TO.P,J7,2,Pin_2*%
%TO.N,+3V3*%
X37020000Y-89282944D03*
%TO.P,J7,3,Pin_3*%
%TO.N,/IN1*%
X37020000Y-86742944D03*
%TO.P,J7,4,Pin_4*%
%TO.N,GND*%
X37020000Y-84202944D03*
%TD*%
D12*
%TO.P,J2,1,Pin_1*%
%TO.N,/OUT4*%
X99100000Y-102302944D03*
X99802944Y-100605888D03*
X99802944Y-104000000D03*
X101500000Y-99902944D03*
D13*
X101500000Y-102302944D03*
D12*
X101500000Y-104702944D03*
X103197056Y-100605888D03*
X103197056Y-104000000D03*
X103900000Y-102302944D03*
%TD*%
D10*
%TO.P,J11,1,Pin_1*%
%TO.N,/TXD0-SDA0-RX1-GP12*%
X56790000Y-103302944D03*
D11*
%TO.P,J11,2,Pin_2*%
%TO.N,/RXD0-SCL0-CS1-GP13*%
X54250000Y-103302944D03*
%TO.P,J11,3,Pin_3*%
%TO.N,GND*%
X51710000Y-103302944D03*
%TO.P,J11,4,Pin_4*%
%TO.N,+3V3*%
X49170000Y-103302944D03*
%TD*%
D10*
%TO.P,J10,1,Pin_1*%
%TO.N,/SDA1-SCK1-GP10*%
X56790000Y-94302944D03*
D11*
%TO.P,J10,2,Pin_2*%
%TO.N,/SCL1-TX1-GP11*%
X54250000Y-94302944D03*
%TO.P,J10,3,Pin_3*%
%TO.N,GND*%
X51710000Y-94302944D03*
%TO.P,J10,4,Pin_4*%
%TO.N,+3V3*%
X49170000Y-94302944D03*
%TD*%
D12*
%TO.P,J3,1,Pin_1*%
%TO.N,/OUT1*%
X99100000Y-58302944D03*
X99802944Y-56605888D03*
X99802944Y-60000000D03*
X101500000Y-55902944D03*
D13*
X101500000Y-58302944D03*
D12*
X101500000Y-60702944D03*
X103197056Y-56605888D03*
X103197056Y-60000000D03*
X103900000Y-58302944D03*
%TD*%
%TO.P,J15,1,Pin_1*%
%TO.N,/B*%
X111100000Y-88802944D03*
X111802944Y-87105888D03*
X111802944Y-90500000D03*
X113500000Y-86402944D03*
D13*
X113500000Y-88802944D03*
D12*
X113500000Y-91202944D03*
X115197056Y-87105888D03*
X115197056Y-90500000D03*
X115900000Y-88802944D03*
%TD*%
%TO.P,J13,1,Pin_1*%
%TO.N,GND*%
X45900000Y-97302944D03*
X45197056Y-99000000D03*
X45197056Y-95605888D03*
X43500000Y-99702944D03*
D13*
X43500000Y-97302944D03*
D12*
X43500000Y-94902944D03*
X41802944Y-99000000D03*
X41802944Y-95605888D03*
X41100000Y-97302944D03*
%TD*%
D10*
%TO.P,J6,1,Pin_1*%
%TO.N,/TXD1-SDA0-RX0-GP4*%
X56790000Y-67302944D03*
D11*
%TO.P,J6,2,Pin_2*%
%TO.N,/RXD1-SCL0-CS0-GP5*%
X54250000Y-67302944D03*
%TO.P,J6,3,Pin_3*%
%TO.N,GND*%
X51710000Y-67302944D03*
%TO.P,J6,4,Pin_4*%
%TO.N,+3V3*%
X49170000Y-67302944D03*
%TD*%
D12*
%TO.P,J13,1,Pin_1*%
%TO.N,GND*%
X110900000Y-97302944D03*
X110197056Y-99000000D03*
X110197056Y-95605888D03*
X108500000Y-99702944D03*
D13*
X108500000Y-97302944D03*
D12*
X108500000Y-94902944D03*
X106802944Y-99000000D03*
X106802944Y-95605888D03*
X106100000Y-97302944D03*
%TD*%
D10*
%TO.P,J9,1,Pin_1*%
%TO.N,/GP26-ADC0-SDA1*%
X56790000Y-85302944D03*
D11*
%TO.P,J9,2,Pin_2*%
%TO.N,/GP27-ADC1-SCL1*%
X54250000Y-85302944D03*
%TO.P,J9,3,Pin_3*%
%TO.N,GND*%
X51710000Y-85302944D03*
%TO.P,J9,4,Pin_4*%
%TO.N,+3V3*%
X49170000Y-85302944D03*
%TD*%
D12*
%TO.P,J13,1,Pin_1*%
%TO.N,GND*%
X45900000Y-63302944D03*
X45197056Y-65000000D03*
X45197056Y-61605888D03*
X43500000Y-65702944D03*
D13*
X43500000Y-63302944D03*
D12*
X43500000Y-60902944D03*
X41802944Y-65000000D03*
X41802944Y-61605888D03*
X41100000Y-63302944D03*
%TD*%
D16*
%TO.P,J17,1,Pin_1*%
%TO.N,/SDA1-SCK0-GP2*%
X37020000Y-76502944D03*
%TO.P,J17,2,Pin_2*%
%TO.N,/SCL1-TX0-GP3*%
X37020000Y-73962944D03*
%TO.P,J17,3,Pin_3*%
%TO.N,GND*%
X37020000Y-71422944D03*
D17*
%TO.P,J17,4,Pin_4*%
%TO.N,+3V3*%
X37020000Y-68882944D03*
%TD*%
D18*
%TO.P,U3,1,GP0_TX0*%
%TO.N,unconnected-(U3-GP0_TX0-Pad1)*%
X60900000Y-55562944D03*
%TO.P,U3,2,GP1_RX0*%
%TO.N,unconnected-(U3-GP1_RX0-Pad2)*%
X60900000Y-58102944D03*
%TO.P,U3,3,GND*%
%TO.N,GND*%
X60900000Y-60642944D03*
%TO.P,U3,4,GP2*%
%TO.N,/SDA1-SCK0-GP2*%
X60900000Y-63182944D03*
%TO.P,U3,5,GP3*%
%TO.N,/SCL1-TX0-GP3*%
X60900000Y-65722944D03*
%TO.P,U3,6,GP4_SDA0*%
%TO.N,/TXD1-SDA0-RX0-GP4*%
X60900000Y-68262944D03*
%TO.P,U3,7,GP5_SCL0*%
%TO.N,/RXD1-SCL0-CS0-GP5*%
X60900000Y-70802944D03*
%TO.P,U3,8,GND*%
%TO.N,GND*%
X60900000Y-73342944D03*
%TO.P,U3,9,GP6*%
%TO.N,/GP6*%
X60900000Y-75882944D03*
%TO.P,U3,10,GP7*%
%TO.N,unconnected-(U3-GP7-Pad10)*%
X60900000Y-78422944D03*
%TO.P,U3,11,GP8_TX1*%
%TO.N,unconnected-(U3-GP8_TX1-Pad11)*%
X60900000Y-80962944D03*
%TO.P,U3,12,GP9_RX1*%
%TO.N,unconnected-(U3-GP9_RX1-Pad12)*%
X60900000Y-83502944D03*
%TO.P,U3,13,GND*%
%TO.N,GND*%
X60900000Y-86042944D03*
%TO.P,U3,14,GP10*%
%TO.N,/SDA1-SCK1-GP10*%
X60900000Y-88582944D03*
%TO.P,U3,15,GP11*%
%TO.N,/SCL1-TX1-GP11*%
X60900000Y-91122944D03*
%TO.P,U3,16,GP12*%
%TO.N,/TXD0-SDA0-RX1-GP12*%
X60900000Y-93662944D03*
%TO.P,U3,17,GP13*%
%TO.N,/RXD0-SCL0-CS1-GP13*%
X60900000Y-96202944D03*
%TO.P,U3,18,GND*%
%TO.N,GND*%
X60900000Y-98742944D03*
%TO.P,U3,19,GP14*%
%TO.N,unconnected-(U3-GP14-Pad19)*%
X60900000Y-101282944D03*
%TO.P,U3,20,GP15*%
%TO.N,/G15*%
X60900000Y-103822944D03*
%TO.P,U3,21,GP16*%
%TO.N,/DriverInput*%
X81982000Y-103822944D03*
%TO.P,U3,22,GP17*%
%TO.N,/ReceiverOutput*%
X81982000Y-101282944D03*
%TO.P,U3,23,GND*%
%TO.N,GND*%
X81982000Y-98742944D03*
%TO.P,U3,24,GP18*%
%TO.N,/InputOutputEnable*%
X81982000Y-96202944D03*
%TO.P,U3,25,GP19*%
%TO.N,/GP19*%
X81982000Y-93662944D03*
%TO.P,U3,26,GP20*%
%TO.N,/GP20*%
X81982000Y-91122944D03*
%TO.P,U3,27,GP21*%
%TO.N,/GP21*%
X81982000Y-88582944D03*
%TO.P,U3,28,GND*%
%TO.N,GND*%
X81982000Y-86042944D03*
%TO.P,U3,29,GP22*%
%TO.N,/GP22*%
X81982000Y-83502944D03*
%TO.P,U3,30,RUN*%
%TO.N,/RUN*%
X81982000Y-80962944D03*
%TO.P,U3,31,GP26*%
%TO.N,/GP26-ADC0-SDA1*%
X81982000Y-78422944D03*
%TO.P,U3,32,GP27*%
%TO.N,/GP27-ADC1-SCL1*%
X81982000Y-75882944D03*
%TO.P,U3,33,GND*%
%TO.N,GND*%
X81982000Y-73342944D03*
%TO.P,U3,34,GP28*%
%TO.N,/GP28-ADC2*%
X81982000Y-70802944D03*
%TO.P,U3,35,ADC_VREF*%
%TO.N,GND*%
X81982000Y-68262944D03*
%TO.P,U3,36,3V3*%
%TO.N,+3V3*%
X81982000Y-65722944D03*
%TO.P,U3,37,3V3_EN*%
%TO.N,GND*%
X81982000Y-63182944D03*
%TO.P,U3,38,GND*%
X81982000Y-60642944D03*
%TO.P,U3,39,VSYS*%
%TO.N,unconnected-(U3-VSYS-Pad39)*%
X81982000Y-58102944D03*
%TO.P,U3,40,VBUS*%
%TO.N,unconnected-(U3-VBUS-Pad40)*%
X81982000Y-55562944D03*
%TD*%
D12*
%TO.P,J1,1,Pin_1*%
%TO.N,/OUT2*%
X89600000Y-58302944D03*
X90302944Y-56605888D03*
X90302944Y-60000000D03*
X92000000Y-55902944D03*
D13*
X92000000Y-58302944D03*
D12*
X92000000Y-60702944D03*
X93697056Y-56605888D03*
X93697056Y-60000000D03*
X94400000Y-58302944D03*
%TD*%
%TO.P,J12,1,Pin_1*%
%TO.N,/OUT3*%
X89600000Y-102302944D03*
X90302944Y-100605888D03*
X90302944Y-104000000D03*
X92000000Y-99902944D03*
D13*
X92000000Y-102302944D03*
D12*
X92000000Y-104702944D03*
X93697056Y-100605888D03*
X93697056Y-104000000D03*
X94400000Y-102302944D03*
%TD*%
D19*
%TO.P,U5,1,SENSE_A*%
%TO.N,GND*%
X90000000Y-71522944D03*
D20*
%TO.P,U5,2,OUT1*%
%TO.N,/OUT1*%
X95080000Y-72792944D03*
%TO.P,U5,3,OUT2*%
%TO.N,/OUT2*%
X90000000Y-74062944D03*
%TO.P,U5,4,Vs*%
%TO.N,VS*%
X95080000Y-75332944D03*
D21*
%TO.P,U5,5,IN1*%
%TO.N,/GP22*%
X90000000Y-76602944D03*
%TO.P,U5,6,EnA*%
%TO.N,+3V3*%
X95080000Y-77872944D03*
%TO.P,U5,7,IN2*%
%TO.N,/GP21*%
X90000000Y-79142944D03*
D22*
%TO.P,U5,8,GND*%
%TO.N,GND*%
X101210000Y-71422944D03*
D21*
X95080000Y-80412944D03*
D22*
X101110000Y-89422944D03*
D21*
%TO.P,U5,9,Vss*%
%TO.N,+3V3*%
X90000000Y-81682944D03*
%TO.P,U5,10,IN3*%
%TO.N,/GP20*%
X95080000Y-82952944D03*
%TO.P,U5,11,EnB*%
%TO.N,+3V3*%
X90000000Y-84222944D03*
%TO.P,U5,12,IN4*%
%TO.N,/GP19*%
X95080000Y-85492944D03*
D20*
%TO.P,U5,13,OUT3*%
%TO.N,/OUT3*%
X90000000Y-86762944D03*
%TO.P,U5,14,OUT4*%
%TO.N,/OUT4*%
X95080000Y-88032944D03*
D19*
%TO.P,U5,15,SENSE_B*%
%TO.N,GND*%
X90000000Y-89302944D03*
%TD*%
D23*
%TO.P,D10,1,K*%
%TO.N,GND*%
X37475000Y-57302944D03*
%TO.P,D10,2,A*%
%TO.N,Net-(D10-A)*%
X39525000Y-57302944D03*
%TD*%
D12*
%TO.P,J4,1,Pin_1*%
%TO.N,VCC*%
X111100000Y-71802944D03*
X111802944Y-70105888D03*
X111802944Y-73500000D03*
X113500000Y-69402944D03*
D13*
X113500000Y-71802944D03*
D12*
X113500000Y-74202944D03*
X115197056Y-70105888D03*
X115197056Y-73500000D03*
X115900000Y-71802944D03*
%TD*%
D10*
%TO.P,J8,1,Pin_1*%
%TO.N,/ADC2*%
X56790000Y-76302944D03*
D11*
%TO.P,J8,2,Pin_2*%
%TO.N,/IN2*%
X54250000Y-76302944D03*
%TO.P,J8,3,Pin_3*%
%TO.N,GND*%
X51710000Y-76302944D03*
%TO.P,J8,4,Pin_4*%
%TO.N,+3V3*%
X49170000Y-76302944D03*
%TD*%
D12*
%TO.P,J13,1,Pin_1*%
%TO.N,GND*%
X110900000Y-63302944D03*
X110197056Y-65000000D03*
X110197056Y-61605888D03*
X108500000Y-65702944D03*
D13*
X108500000Y-63302944D03*
D12*
X108500000Y-60902944D03*
X106802944Y-65000000D03*
X106802944Y-61605888D03*
X106100000Y-63302944D03*
%TD*%
D24*
%TO.P,JP1,1,A*%
%TO.N,GND*%
X85500000Y-77062944D03*
D15*
%TO.P,JP1,2,B*%
%TO.N,/RUN*%
X85500000Y-79602944D03*
%TD*%
D25*
%TO.N,GND*%
X104300000Y-89902944D03*
X47500000Y-80552944D03*
X51250000Y-89302944D03*
X72250000Y-64552944D03*
X40000000Y-70802944D03*
X93100000Y-75302944D03*
X51750000Y-61302944D03*
X75500000Y-86302944D03*
X89100000Y-70302944D03*
X100750000Y-93802944D03*
X79800000Y-79602944D03*
X88500000Y-93552944D03*
X74500000Y-75302944D03*
X106500000Y-82702944D03*
X117500000Y-55802944D03*
X115000000Y-63302944D03*
X115000000Y-105802944D03*
X90700000Y-67502944D03*
X43500000Y-79302944D03*
X90000000Y-91802944D03*
X108000000Y-76302944D03*
X63500000Y-86302944D03*
X47250000Y-59802944D03*
X109100000Y-81502944D03*
X58700000Y-60702944D03*
X87300000Y-78102944D03*
X115000000Y-65802944D03*
X84100000Y-98702944D03*
X42500000Y-55802944D03*
X72250000Y-66052944D03*
X110000000Y-58302944D03*
X84300000Y-68302944D03*
X108000000Y-92552944D03*
X50750000Y-78052944D03*
X58500000Y-72102944D03*
X112500000Y-60802944D03*
X117500000Y-95802944D03*
X90700000Y-64702944D03*
X69500000Y-82302944D03*
X50250000Y-104802944D03*
X70000000Y-66052944D03*
X68100000Y-65302944D03*
X77500000Y-86302944D03*
X78400000Y-75002944D03*
X86250000Y-105302944D03*
X71100000Y-66102944D03*
X79250000Y-58302944D03*
X35000000Y-55802944D03*
X69500000Y-86302944D03*
X112500000Y-95802944D03*
X67500000Y-82302944D03*
X84100000Y-86002944D03*
X40000000Y-83302944D03*
X41250000Y-104802944D03*
X43500000Y-90302944D03*
X74300000Y-62302944D03*
X83700000Y-74702944D03*
X112500000Y-100802944D03*
X83700000Y-69602944D03*
X92500000Y-82102944D03*
X112500000Y-103302944D03*
X117500000Y-58302944D03*
X107500000Y-103302944D03*
X88100000Y-89302944D03*
X58500000Y-98702944D03*
X112500000Y-93302944D03*
X79500000Y-86302944D03*
X79900000Y-98802944D03*
X112500000Y-65802944D03*
X71100000Y-64502944D03*
X50750000Y-83302944D03*
X63500000Y-82302944D03*
X67500000Y-74302944D03*
X84500000Y-73302944D03*
X80300000Y-77302944D03*
X92300000Y-84502944D03*
X35000000Y-60802944D03*
X105500000Y-93302944D03*
X65500000Y-69302944D03*
X110000000Y-105802944D03*
X74500000Y-71302944D03*
X117500000Y-60802944D03*
X110000000Y-55802944D03*
X74500000Y-77302944D03*
X115000000Y-93302944D03*
X57600000Y-80802944D03*
X84000000Y-78302944D03*
X37500000Y-63302944D03*
X117500000Y-100802944D03*
X62700000Y-71902944D03*
X35000000Y-58302944D03*
X102900000Y-91502944D03*
X107500000Y-55802944D03*
X103900000Y-77302944D03*
X73500000Y-86302944D03*
X70000000Y-64552944D03*
X67700000Y-57302944D03*
X74750000Y-59802944D03*
X112500000Y-98302944D03*
X53000000Y-73802944D03*
X117500000Y-65802944D03*
X117500000Y-93302944D03*
X51700000Y-69202944D03*
X78500000Y-83802944D03*
X86250000Y-95802944D03*
X37500000Y-60802944D03*
X117500000Y-103302944D03*
X47250000Y-100802944D03*
X76500000Y-73302944D03*
X71500000Y-86302944D03*
X117500000Y-63302944D03*
X65500000Y-86302944D03*
X63100000Y-98702944D03*
X97750000Y-92802944D03*
X63300000Y-60702944D03*
X112500000Y-58302944D03*
X102500000Y-75302944D03*
X74500000Y-79302944D03*
X83700000Y-77102944D03*
X83700000Y-72002944D03*
X67500000Y-86302944D03*
X67500000Y-78302944D03*
X58600000Y-86502944D03*
X86500000Y-65302944D03*
X35700000Y-98602944D03*
X107500000Y-105802944D03*
X79700000Y-68302944D03*
X35000000Y-70802944D03*
X112500000Y-63302944D03*
X63600000Y-78102944D03*
X51000000Y-97802944D03*
X112500000Y-55802944D03*
X47500000Y-83302944D03*
X110000000Y-103302944D03*
X115000000Y-55802944D03*
X110000000Y-93302944D03*
X112500000Y-105802944D03*
X105250000Y-75552944D03*
X83900000Y-61902944D03*
X35000000Y-63302944D03*
X35500000Y-105802944D03*
X79100000Y-63102944D03*
X46400000Y-72802944D03*
X78500000Y-71302944D03*
X65500000Y-82302944D03*
X47250000Y-89802944D03*
X40000000Y-101052944D03*
X117500000Y-98302944D03*
%TO.N,+3V3*%
X55600000Y-55002944D03*
X101075000Y-77827944D03*
X86100000Y-67702944D03*
X84100000Y-65702944D03*
%TO.N,VCC*%
X109500000Y-69302944D03*
X107500000Y-69302944D03*
X116500000Y-75052944D03*
X85750000Y-63302944D03*
X116500000Y-68802944D03*
X107500000Y-71302944D03*
X105500000Y-68302944D03*
X109500000Y-71302944D03*
X109500000Y-73302944D03*
%TO.N,/OUT1*%
X98000000Y-61802944D03*
X95080000Y-70682944D03*
X95080000Y-65882944D03*
%TO.N,/OUT2*%
X92600000Y-66002944D03*
X92300000Y-72702944D03*
%TO.N,/OUT3*%
X92700000Y-97102944D03*
X92300000Y-90202944D03*
%TO.N,/OUT4*%
X95080000Y-92282944D03*
X97400000Y-97702944D03*
%TO.N,/GP26-ADC0-SDA1*%
X76999500Y-77352944D03*
%TO.N,Net-(D10-A)*%
X39600000Y-58802944D03*
%TO.N,/GP27-ADC1-SCL1*%
X77300000Y-75882944D03*
%TO.N,VS*%
X101500000Y-96802944D03*
X88250000Y-60552944D03*
X89500000Y-98302944D03*
%TO.N,/ReceiverOutput*%
X104350000Y-86502944D03*
X85070711Y-101373655D03*
X82000000Y-101302944D03*
%TO.N,/InputOutputEnable*%
X102875000Y-84552944D03*
%TO.N,/DriverInput*%
X104450000Y-82652944D03*
%TO.N,/GP28-ADC2*%
X56175000Y-81902944D03*
X80350000Y-71752944D03*
X77400000Y-74702944D03*
%TO.N,/G15*%
X35750000Y-102202944D03*
%TO.N,/GP6*%
X59000000Y-75902944D03*
%TO.N,/TXD0-SDA0-RX1-GP12*%
X59000000Y-93702944D03*
%TO.N,/SDA1-SCK1-GP10*%
X56790000Y-89912944D03*
%TO.N,Net-(U2-VIN)*%
X66500000Y-64977944D03*
X70500000Y-60802944D03*
%TO.N,Net-(U2-LX)*%
X64300000Y-67802944D03*
X71800000Y-59302944D03*
%TO.N,Net-(U2-PG)*%
X75837500Y-69840444D03*
X71750000Y-69802944D03*
%TD*%
D26*
%TO.N,GND*%
X46500000Y-63182944D02*
X46120000Y-63182944D01*
D27*
%TO.N,+3V3*%
X84120000Y-65722944D02*
X81982000Y-65722944D01*
D28*
X95080000Y-77872944D02*
X95125000Y-77827944D01*
D27*
X49170000Y-67302944D02*
X49170000Y-103302944D01*
D28*
X100985000Y-77827944D02*
X101030000Y-77872944D01*
D27*
X86100000Y-67702944D02*
X84120000Y-65722944D01*
D28*
X95125000Y-77827944D02*
X100985000Y-77827944D01*
D29*
%TO.N,VCC*%
X101425344Y-63302944D02*
X85750000Y-63302944D01*
X103080000Y-64957600D02*
X101425344Y-63302944D01*
X103080000Y-65802944D02*
X103080000Y-64957600D01*
%TO.N,/OUT2*%
X92500000Y-58802944D02*
X92000000Y-58302944D01*
%TO.N,/OUT3*%
X92500000Y-101802944D02*
X92000000Y-102302944D01*
D28*
%TO.N,/GP26-ADC0-SDA1*%
X76999500Y-77352944D02*
X79150000Y-77352944D01*
X80220000Y-78422944D02*
X81982000Y-78422944D01*
X79150000Y-77352944D02*
X80220000Y-78422944D01*
D30*
%TO.N,Net-(D10-A)*%
X39600000Y-58802944D02*
X39600000Y-57377944D01*
X39600000Y-57377944D02*
X39525000Y-57302944D01*
D28*
%TO.N,/GP27-ADC1-SCL1*%
X77300000Y-75882944D02*
X81982000Y-75882944D01*
X54250000Y-84652944D02*
X54250000Y-85302944D01*
D30*
%TO.N,/ReceiverOutput*%
X82000000Y-101300944D02*
X81982000Y-101282944D01*
X82002000Y-101302944D02*
X82000000Y-101302944D01*
X82000000Y-101302944D02*
X82000000Y-101300944D01*
X85070711Y-101232233D02*
X99800000Y-86502944D01*
X85070711Y-101373655D02*
X85070711Y-101232233D01*
X81982000Y-101282944D02*
X82052000Y-101352944D01*
X82002000Y-101302944D02*
X82002000Y-101302944D01*
X99800000Y-86502944D02*
X104350000Y-86502944D01*
%TO.N,/InputOutputEnable*%
X87050000Y-91852944D02*
X82700000Y-96202944D01*
X87950000Y-85302944D02*
X87050000Y-86202944D01*
X102875000Y-84552944D02*
X98650000Y-84552944D01*
X98650000Y-84552944D02*
X96600000Y-86602944D01*
X92750000Y-86602944D02*
X91450000Y-85302944D01*
X96600000Y-86602944D02*
X92750000Y-86602944D01*
X87050000Y-86202944D02*
X87050000Y-91852944D01*
X82700000Y-96202944D02*
X81982000Y-96202944D01*
X91450000Y-85302944D02*
X87950000Y-85302944D01*
%TO.N,/DriverInput*%
X82980000Y-103822944D02*
X81982000Y-103822944D01*
X81982000Y-103822944D02*
X83980000Y-103822944D01*
X103350000Y-85652944D02*
X104450000Y-84552944D01*
X104450000Y-84552944D02*
X104450000Y-82652944D01*
X84000000Y-101454416D02*
X99801472Y-85652944D01*
X84000000Y-103802944D02*
X84000000Y-101454416D01*
X99801472Y-85652944D02*
X103350000Y-85652944D01*
X83980000Y-103822944D02*
X84000000Y-103802944D01*
D28*
%TO.N,/GP28-ADC2*%
X77400000Y-74702944D02*
X77400000Y-74702944D01*
X80350000Y-71752944D02*
X81300000Y-70802944D01*
X77400000Y-74702944D02*
X80350000Y-71752944D01*
D31*
X81300000Y-70802944D02*
X81982000Y-70802944D01*
D28*
%TO.N,/SDA1-SCK0-GP2*%
X38800000Y-74012995D02*
X38800000Y-75402944D01*
X37700000Y-76502944D02*
X37020000Y-76502944D01*
X38800000Y-75402944D02*
X37700000Y-76502944D01*
X60900000Y-63182944D02*
X49630050Y-63182944D01*
X49630050Y-63182944D02*
X38800000Y-74012995D01*
%TO.N,/SCL1-TX0-GP3*%
X36100000Y-78302944D02*
X35300000Y-77502944D01*
X49920000Y-63882944D02*
X39500000Y-74302944D01*
X35300000Y-77502944D02*
X35300000Y-75682944D01*
X35300000Y-75682944D02*
X37020000Y-73962944D01*
X60900000Y-65722944D02*
X59920000Y-65722944D01*
X39500000Y-76502944D02*
X37700000Y-78302944D01*
X58080000Y-63882944D02*
X49920000Y-63882944D01*
X59920000Y-65722944D02*
X58080000Y-63882944D01*
X37700000Y-78302944D02*
X36100000Y-78302944D01*
X39500000Y-74302944D02*
X39500000Y-76502944D01*
%TO.N,/RXD1-SCL0-CS0-GP5*%
X60900000Y-70802944D02*
X57200000Y-70802944D01*
X57200000Y-70802944D02*
X54250000Y-67852944D01*
X54250000Y-67852944D02*
X54250000Y-67302944D01*
%TO.N,/TXD1-SDA0-RX0-GP4*%
X57300000Y-67302944D02*
X56790000Y-67302944D01*
X60900000Y-68262944D02*
X58260000Y-68262944D01*
X58260000Y-68262944D02*
X57300000Y-67302944D01*
%TO.N,/G15*%
X38100000Y-106002944D02*
X35750000Y-103652944D01*
X35750000Y-103652944D02*
X35750000Y-102202944D01*
X58720000Y-106002944D02*
X38100000Y-106002944D01*
X60900000Y-103822944D02*
X58720000Y-106002944D01*
%TO.N,/GP6*%
X59000000Y-75902944D02*
X60880000Y-75902944D01*
X60880000Y-75902944D02*
X60900000Y-75882944D01*
D30*
%TO.N,/GP22*%
X90000000Y-77302944D02*
X90000000Y-76602944D01*
X83800000Y-83502944D02*
X90000000Y-77302944D01*
X81982000Y-83502944D02*
X83800000Y-83502944D01*
%TO.N,/GP19*%
X86995584Y-82952944D02*
X86450000Y-83498528D01*
X92540000Y-82952944D02*
X86995584Y-82952944D01*
X86450000Y-90202944D02*
X82990000Y-93662944D01*
X86450000Y-83498528D02*
X86450000Y-90202944D01*
X82990000Y-93662944D02*
X81982000Y-93662944D01*
X95080000Y-85492944D02*
X92540000Y-82952944D01*
%TO.N,/GP20*%
X95080000Y-82952944D02*
X95080000Y-82882944D01*
X95080000Y-82952944D02*
X92530000Y-80402944D01*
X82903528Y-91122944D02*
X81982000Y-91122944D01*
X92530000Y-80402944D02*
X88597056Y-80402944D01*
X85850000Y-88176472D02*
X82903528Y-91122944D01*
X85850000Y-83150000D02*
X85850000Y-88176472D01*
X88597056Y-80402944D02*
X85850000Y-83150000D01*
%TO.N,/GP21*%
X84595000Y-88582944D02*
X81982000Y-88582944D01*
X85250000Y-82901472D02*
X85250000Y-87927944D01*
X89340000Y-79802944D02*
X88348528Y-79802944D01*
X90000000Y-79142944D02*
X89340000Y-79802944D01*
X88348528Y-79802944D02*
X85250000Y-82901472D01*
X85250000Y-87927944D02*
X84595000Y-88582944D01*
D28*
%TO.N,/RXD0-SCL0-CS1-GP13*%
X59100000Y-96202944D02*
X54250000Y-101052944D01*
X54250000Y-101052944D02*
X54250000Y-103302944D01*
X60900000Y-96202944D02*
X59100000Y-96202944D01*
%TO.N,/TXD0-SDA0-RX1-GP12*%
X59040000Y-93662944D02*
X60900000Y-93662944D01*
X59000000Y-93702944D02*
X59040000Y-93662944D01*
%TO.N,/SDA1-SCK1-GP10*%
X56790000Y-89912944D02*
X58120000Y-88582944D01*
X58120000Y-88582944D02*
X60900000Y-88582944D01*
%TO.N,/SCL1-TX1-GP11*%
X56380000Y-91122944D02*
X60900000Y-91122944D01*
X54250000Y-94302944D02*
X54250000Y-93252944D01*
X54250000Y-93252944D02*
X56380000Y-91122944D01*
D31*
%TO.N,Net-(U2-VIN)*%
X68000000Y-60802944D02*
X66500000Y-62302944D01*
X66500000Y-62302944D02*
X66500000Y-64802944D01*
X70500000Y-60802944D02*
X68000000Y-60802944D01*
%TO.N,Net-(U2-LX)*%
X71800000Y-59302944D02*
X68000000Y-59302944D01*
X64300000Y-63002944D02*
X64300000Y-67802944D01*
X68000000Y-59302944D02*
X64300000Y-63002944D01*
%TO.N,Net-(U2-PG)*%
X75800000Y-69802944D02*
X71750000Y-69802944D01*
X75837500Y-69840444D02*
X75800000Y-69802944D01*
D28*
%TO.N,/RUN*%
X81982000Y-80962944D02*
X84140000Y-80962944D01*
X84140000Y-80962944D02*
X85500000Y-79602944D01*
%TD*%
%TA.AperFunction,Conductor*%
%TO.N,GND*%
G36*
X47600000Y-101202944D02*
G01*
X39600000Y-101202944D01*
X39600000Y-93202944D01*
X47600000Y-93202944D01*
X47600000Y-101202944D01*
G37*
%TD.AperFunction*%
%TD*%
%TA.AperFunction,Conductor*%
%TO.N,GND*%
G36*
X112500000Y-101302944D02*
G01*
X105500000Y-101302944D01*
X105500000Y-98302944D01*
X104500000Y-98302944D01*
X104500000Y-93302944D01*
X112500000Y-93302944D01*
X112500000Y-101302944D01*
G37*
%TD.AperFunction*%
%TD*%
%TA.AperFunction,Conductor*%
%TO.N,GND*%
G36*
X39514944Y-59503444D02*
G01*
X39685056Y-59503444D01*
X39687085Y-59502944D01*
X47500000Y-59502944D01*
X47500000Y-64393048D01*
X44390104Y-67502944D01*
X39500000Y-67502944D01*
X39500000Y-59502944D01*
X39512915Y-59502944D01*
X39514944Y-59503444D01*
G37*
%TD.AperFunction*%
%TA.AperFunction,Conductor*%
G36*
X47500000Y-67502944D02*
G01*
X47219946Y-67502944D01*
X47500000Y-67222890D01*
X47500000Y-67502944D01*
G37*
%TD.AperFunction*%
%TD*%
%TA.AperFunction,Conductor*%
%TO.N,GND*%
G36*
X58284000Y-93885154D02*
G01*
X58338538Y-93939692D01*
X58348818Y-93961357D01*
X58375182Y-94030874D01*
X58471817Y-94170873D01*
X58471819Y-94170874D01*
X58471820Y-94170876D01*
X58599146Y-94283676D01*
X58599148Y-94283678D01*
X58749775Y-94362734D01*
X58914944Y-94403444D01*
X59085055Y-94403444D01*
X59085056Y-94403444D01*
X59173936Y-94381537D01*
X59251044Y-94383089D01*
X59317049Y-94422990D01*
X59335753Y-94446935D01*
X59377917Y-94514040D01*
X59422849Y-94585548D01*
X59552396Y-94715095D01*
X59698316Y-94806782D01*
X59750776Y-94863321D01*
X59767939Y-94938515D01*
X59745205Y-95012217D01*
X59698316Y-95059106D01*
X59552395Y-95150793D01*
X59552395Y-95150794D01*
X59422850Y-95280339D01*
X59422849Y-95280339D01*
X59325378Y-95435464D01*
X59319363Y-95452655D01*
X59275915Y-95516382D01*
X59206425Y-95549846D01*
X59178724Y-95552444D01*
X59035927Y-95552444D01*
X58910256Y-95577442D01*
X58910255Y-95577443D01*
X58835544Y-95608390D01*
X58791878Y-95626476D01*
X58791870Y-95626481D01*
X58685332Y-95697666D01*
X58685330Y-95697667D01*
X53744725Y-100638273D01*
X53744722Y-100638276D01*
X53697794Y-100708510D01*
X53673539Y-100744809D01*
X53673532Y-100744822D01*
X53624498Y-100863201D01*
X53599500Y-100988871D01*
X53599500Y-101904217D01*
X53579538Y-101978717D01*
X53538080Y-102024760D01*
X53422334Y-102108854D01*
X53422323Y-102108863D01*
X53280919Y-102250267D01*
X53280910Y-102250278D01*
X53163373Y-102412054D01*
X53163112Y-102412480D01*
X53162956Y-102412627D01*
X53159930Y-102416793D01*
X53159157Y-102416231D01*
X53107162Y-102465569D01*
X53032164Y-102483571D01*
X52958214Y-102461662D01*
X52905125Y-102405712D01*
X52903312Y-102402267D01*
X52881727Y-102359906D01*
X52881726Y-102359903D01*
X52754979Y-102185452D01*
X52602491Y-102032964D01*
X52428040Y-101906217D01*
X52428037Y-101906216D01*
X52235897Y-101808315D01*
X52030814Y-101741679D01*
X52030809Y-101741678D01*
X51960000Y-101730461D01*
X51960000Y-102760234D01*
X51939661Y-102748492D01*
X51788333Y-102707944D01*
X51631667Y-102707944D01*
X51480339Y-102748492D01*
X51460000Y-102760234D01*
X51460000Y-101730461D01*
X51389190Y-101741678D01*
X51389185Y-101741679D01*
X51184102Y-101808315D01*
X50991962Y-101906216D01*
X50991959Y-101906217D01*
X50817508Y-102032964D01*
X50665020Y-102185452D01*
X50590043Y-102288650D01*
X50530103Y-102337188D01*
X50453924Y-102349253D01*
X50381919Y-102321612D01*
X50333381Y-102261672D01*
X50320500Y-102201069D01*
X50320500Y-95404818D01*
X50340462Y-95330318D01*
X50395000Y-95275780D01*
X50469500Y-95255818D01*
X50544000Y-95275780D01*
X50590043Y-95317238D01*
X50665016Y-95420429D01*
X50665025Y-95420440D01*
X50817508Y-95572923D01*
X50991959Y-95699670D01*
X50991962Y-95699671D01*
X51184102Y-95797572D01*
X51389189Y-95864209D01*
X51460000Y-95875424D01*
X51460000Y-94845653D01*
X51480339Y-94857396D01*
X51631667Y-94897944D01*
X51788333Y-94897944D01*
X51939661Y-94857396D01*
X51960000Y-94845653D01*
X51960000Y-95875424D01*
X52030809Y-95864209D01*
X52030811Y-95864209D01*
X52235897Y-95797572D01*
X52428037Y-95699671D01*
X52428040Y-95699670D01*
X52602491Y-95572923D01*
X52754979Y-95420435D01*
X52881726Y-95245984D01*
X52881730Y-95245977D01*
X52903310Y-95203623D01*
X52954917Y-95146305D01*
X53028270Y-95122469D01*
X53103713Y-95138504D01*
X53159914Y-95189106D01*
X53159930Y-95189095D01*
X53159981Y-95189166D01*
X53161031Y-95190111D01*
X53163107Y-95193400D01*
X53163372Y-95193833D01*
X53226226Y-95280343D01*
X53280917Y-95355619D01*
X53422325Y-95497027D01*
X53526787Y-95572923D01*
X53584110Y-95614571D01*
X53584111Y-95614572D01*
X53762294Y-95705362D01*
X53762296Y-95705362D01*
X53762297Y-95705363D01*
X53891988Y-95747502D01*
X53952484Y-95767158D01*
X53952484Y-95767159D01*
X53952489Y-95767159D01*
X53952490Y-95767160D01*
X54150009Y-95798444D01*
X54150013Y-95798444D01*
X54349987Y-95798444D01*
X54349991Y-95798444D01*
X54547510Y-95767160D01*
X54547511Y-95767159D01*
X54547515Y-95767159D01*
X54547515Y-95767158D01*
X54737703Y-95705363D01*
X54915887Y-95614573D01*
X55077675Y-95497027D01*
X55219083Y-95355619D01*
X55278800Y-95273424D01*
X55338738Y-95224888D01*
X55414916Y-95212822D01*
X55486921Y-95240462D01*
X55535460Y-95300402D01*
X55542425Y-95319435D01*
X55568255Y-95408341D01*
X55601334Y-95464274D01*
X55651919Y-95549809D01*
X55768135Y-95666025D01*
X55909602Y-95749688D01*
X56067428Y-95795541D01*
X56067427Y-95795541D01*
X56067431Y-95795542D01*
X56104306Y-95798444D01*
X56104313Y-95798444D01*
X57475687Y-95798444D01*
X57475694Y-95798444D01*
X57512569Y-95795542D01*
X57670398Y-95749688D01*
X57811865Y-95666025D01*
X57928081Y-95549809D01*
X58011744Y-95408342D01*
X58057598Y-95250513D01*
X58060500Y-95213638D01*
X58060500Y-94014192D01*
X58080462Y-93939692D01*
X58135000Y-93885154D01*
X58209500Y-93865192D01*
X58284000Y-93885154D01*
G37*
%TD.AperFunction*%
%TA.AperFunction,Conductor*%
G36*
X57823336Y-64553406D02*
G01*
X57854195Y-64577085D01*
X59205859Y-65928749D01*
X59244423Y-65995544D01*
X59249500Y-66034107D01*
X59249500Y-66181095D01*
X59264868Y-66317496D01*
X59325378Y-66490424D01*
X59422846Y-66645544D01*
X59422849Y-66645548D01*
X59552396Y-66775095D01*
X59693471Y-66863738D01*
X59698316Y-66866782D01*
X59750776Y-66923321D01*
X59767939Y-66998515D01*
X59745205Y-67072217D01*
X59698316Y-67119105D01*
X59671003Y-67136267D01*
X59552395Y-67210793D01*
X59552395Y-67210794D01*
X59422850Y-67340339D01*
X59422849Y-67340339D01*
X59325378Y-67495464D01*
X59319363Y-67512655D01*
X59275915Y-67576382D01*
X59206425Y-67609846D01*
X59178724Y-67612444D01*
X58591164Y-67612444D01*
X58516664Y-67592482D01*
X58485805Y-67568803D01*
X58104141Y-67187139D01*
X58065577Y-67120344D01*
X58060500Y-67081780D01*
X58060500Y-66392257D01*
X58060500Y-66392250D01*
X58057598Y-66355375D01*
X58011744Y-66197546D01*
X57928081Y-66056079D01*
X57811865Y-65939863D01*
X57670398Y-65856200D01*
X57594234Y-65834072D01*
X57512571Y-65810346D01*
X57512572Y-65810346D01*
X57501506Y-65809475D01*
X57475694Y-65807444D01*
X56104306Y-65807444D01*
X56079722Y-65809378D01*
X56067428Y-65810346D01*
X55909599Y-65856201D01*
X55768136Y-65939862D01*
X55768133Y-65939864D01*
X55651920Y-66056077D01*
X55651918Y-66056080D01*
X55568256Y-66197545D01*
X55542425Y-66286453D01*
X55502470Y-66352425D01*
X55434882Y-66389580D01*
X55357770Y-66387964D01*
X55291798Y-66348009D01*
X55278799Y-66332461D01*
X55256781Y-66302156D01*
X55219083Y-66250269D01*
X55077675Y-66108861D01*
X54973212Y-66032964D01*
X54915889Y-65991316D01*
X54915888Y-65991315D01*
X54737705Y-65900525D01*
X54547515Y-65838729D01*
X54547515Y-65838728D01*
X54437777Y-65821348D01*
X54349991Y-65807444D01*
X54150009Y-65807444D01*
X54071001Y-65819957D01*
X53952484Y-65838728D01*
X53952484Y-65838729D01*
X53762294Y-65900525D01*
X53584111Y-65991315D01*
X53584110Y-65991316D01*
X53422334Y-66108854D01*
X53422323Y-66108863D01*
X53280919Y-66250267D01*
X53280910Y-66250278D01*
X53163373Y-66412054D01*
X53163112Y-66412480D01*
X53162956Y-66412627D01*
X53159930Y-66416793D01*
X53159157Y-66416231D01*
X53107162Y-66465569D01*
X53032164Y-66483571D01*
X52958214Y-66461662D01*
X52905125Y-66405712D01*
X52903312Y-66402267D01*
X52881727Y-66359906D01*
X52881726Y-66359903D01*
X52754979Y-66185452D01*
X52602491Y-66032964D01*
X52428040Y-65906217D01*
X52428037Y-65906216D01*
X52235897Y-65808315D01*
X52030814Y-65741679D01*
X52030809Y-65741678D01*
X51960000Y-65730461D01*
X51960000Y-66760234D01*
X51939661Y-66748492D01*
X51788333Y-66707944D01*
X51631667Y-66707944D01*
X51480339Y-66748492D01*
X51460000Y-66760234D01*
X51460000Y-65730461D01*
X51389190Y-65741678D01*
X51389185Y-65741679D01*
X51184102Y-65808315D01*
X50991962Y-65906216D01*
X50991959Y-65906217D01*
X50817508Y-66032964D01*
X50665020Y-66185452D01*
X50538273Y-66359903D01*
X50538268Y-66359912D01*
X50516685Y-66402270D01*
X50465075Y-66459586D01*
X50391722Y-66483418D01*
X50316279Y-66467380D01*
X50260086Y-66416781D01*
X50260070Y-66416793D01*
X50260014Y-66416717D01*
X50258963Y-66415770D01*
X50256877Y-66412463D01*
X50256634Y-66412067D01*
X50256629Y-66412057D01*
X50139083Y-66250269D01*
X49997675Y-66108861D01*
X49893212Y-66032964D01*
X49835889Y-65991316D01*
X49835888Y-65991315D01*
X49657705Y-65900525D01*
X49467515Y-65838729D01*
X49467515Y-65838728D01*
X49269980Y-65807442D01*
X49264151Y-65806984D01*
X49264343Y-65804544D01*
X49200663Y-65787482D01*
X49146125Y-65732944D01*
X49126163Y-65658444D01*
X49146125Y-65583944D01*
X49169804Y-65553085D01*
X49540446Y-65182444D01*
X50145805Y-64577085D01*
X50212600Y-64538521D01*
X50251164Y-64533444D01*
X57748836Y-64533444D01*
X57823336Y-64553406D01*
G37*
%TD.AperFunction*%
%TA.AperFunction,Conductor*%
G36*
X87925500Y-53322906D02*
G01*
X87980038Y-53377444D01*
X88000000Y-53451944D01*
X88000000Y-59802962D01*
X87980038Y-59877462D01*
X87925500Y-59932000D01*
X87920245Y-59934894D01*
X87849148Y-59972209D01*
X87849146Y-59972211D01*
X87721820Y-60085011D01*
X87721817Y-60085015D01*
X87625181Y-60225014D01*
X87564860Y-60384069D01*
X87544355Y-60552944D01*
X87564860Y-60721818D01*
X87625181Y-60880873D01*
X87647805Y-60913649D01*
X87721817Y-61020873D01*
X87839526Y-61125154D01*
X87849146Y-61133676D01*
X87849148Y-61133678D01*
X87920245Y-61170993D01*
X87976933Y-61223290D01*
X87999879Y-61296926D01*
X88000000Y-61302925D01*
X88000000Y-61853444D01*
X87980038Y-61927944D01*
X87925500Y-61982482D01*
X87851000Y-62002444D01*
X85647648Y-62002444D01*
X85481631Y-62028739D01*
X85445465Y-62034467D01*
X85250787Y-62097722D01*
X85250775Y-62097726D01*
X85068387Y-62190658D01*
X84902787Y-62310972D01*
X84902779Y-62310979D01*
X84758035Y-62455723D01*
X84758028Y-62455731D01*
X84637714Y-62621331D01*
X84544782Y-62803719D01*
X84544778Y-62803731D01*
X84497451Y-62949390D01*
X84481523Y-62998410D01*
X84449500Y-63200592D01*
X84449500Y-63405296D01*
X84481523Y-63607478D01*
X84524248Y-63738973D01*
X84544778Y-63802156D01*
X84544782Y-63802168D01*
X84637714Y-63984556D01*
X84758028Y-64150156D01*
X84758035Y-64150164D01*
X84902779Y-64294908D01*
X84902787Y-64294915D01*
X85059047Y-64408443D01*
X85068390Y-64415231D01*
X85250781Y-64508164D01*
X85445466Y-64571421D01*
X85647648Y-64603444D01*
X97071307Y-64603444D01*
X97145807Y-64623406D01*
X97200345Y-64677944D01*
X97220307Y-64752444D01*
X97200345Y-64826944D01*
X97176666Y-64857803D01*
X97038404Y-64996064D01*
X97038402Y-64996067D01*
X96912898Y-65175306D01*
X96820425Y-65373614D01*
X96820424Y-65373617D01*
X96763793Y-65584965D01*
X96744723Y-65802943D01*
X96744723Y-65802944D01*
X96763793Y-66020922D01*
X96820424Y-66232272D01*
X96820425Y-66232274D01*
X96912894Y-66430577D01*
X96912897Y-66430582D01*
X96950001Y-66483571D01*
X97038402Y-66609821D01*
X97193123Y-66764542D01*
X97339137Y-66866782D01*
X97372361Y-66890046D01*
X97372366Y-66890049D01*
X97426370Y-66915231D01*
X97570670Y-66982519D01*
X97782023Y-67039151D01*
X98000000Y-67058221D01*
X98217977Y-67039151D01*
X98429330Y-66982519D01*
X98604067Y-66901038D01*
X98627633Y-66890049D01*
X98627634Y-66890048D01*
X98627639Y-66890046D01*
X98806877Y-66764542D01*
X98961598Y-66609821D01*
X99087102Y-66430583D01*
X99134960Y-66327950D01*
X99184537Y-66268868D01*
X99257013Y-66242488D01*
X99332970Y-66255881D01*
X99392053Y-66305458D01*
X99405039Y-66327950D01*
X99406403Y-66330874D01*
X99452895Y-66430577D01*
X99452897Y-66430582D01*
X99490001Y-66483571D01*
X99578402Y-66609821D01*
X99733123Y-66764542D01*
X99879137Y-66866782D01*
X99912361Y-66890046D01*
X99912366Y-66890049D01*
X99966370Y-66915231D01*
X100110670Y-66982519D01*
X100322023Y-67039151D01*
X100540000Y-67058221D01*
X100757977Y-67039151D01*
X100969330Y-66982519D01*
X101144067Y-66901038D01*
X101167633Y-66890049D01*
X101167634Y-66890048D01*
X101167639Y-66890046D01*
X101346877Y-66764542D01*
X101501598Y-66609821D01*
X101627102Y-66430583D01*
X101647616Y-66386588D01*
X101697192Y-66327507D01*
X101769668Y-66301127D01*
X101845625Y-66314519D01*
X101904709Y-66364096D01*
X101915414Y-66381912D01*
X101931064Y-66412627D01*
X101967714Y-66484556D01*
X102088028Y-66650156D01*
X102088035Y-66650164D01*
X102232779Y-66794908D01*
X102232787Y-66794915D01*
X102368350Y-66893406D01*
X102398390Y-66915231D01*
X102580781Y-67008164D01*
X102775466Y-67071421D01*
X102977648Y-67103444D01*
X102977653Y-67103444D01*
X103182347Y-67103444D01*
X103182352Y-67103444D01*
X103384534Y-67071421D01*
X103579219Y-67008164D01*
X103761610Y-66915231D01*
X103927219Y-66794910D01*
X104071966Y-66650163D01*
X104192287Y-66484554D01*
X104285220Y-66302163D01*
X104348477Y-66107478D01*
X104380500Y-65905296D01*
X104380500Y-64855248D01*
X104358420Y-64715842D01*
X104358420Y-64715840D01*
X104348479Y-64653075D01*
X104348477Y-64653066D01*
X104334003Y-64608521D01*
X104301395Y-64508164D01*
X104285220Y-64458381D01*
X104203305Y-64297614D01*
X104192287Y-64275989D01*
X104071966Y-64110381D01*
X102518888Y-62557303D01*
X102480324Y-62490508D01*
X102480324Y-62413380D01*
X102518888Y-62346585D01*
X102585683Y-62308021D01*
X102624247Y-62302944D01*
X104500000Y-62302944D01*
X104500000Y-67302944D01*
X112500000Y-67302944D01*
X112500000Y-59302944D01*
X105500000Y-59302944D01*
X105500000Y-53451944D01*
X105519962Y-53377444D01*
X105574500Y-53322906D01*
X105649000Y-53302944D01*
X115415256Y-53302944D01*
X115416261Y-53302947D01*
X115417856Y-53302957D01*
X115580032Y-53304053D01*
X115588347Y-53304342D01*
X115748352Y-53314412D01*
X115755643Y-53315052D01*
X115831491Y-53323598D01*
X115839741Y-53324763D01*
X116158805Y-53378974D01*
X116175069Y-53382686D01*
X116482039Y-53471123D01*
X116497810Y-53476642D01*
X116792924Y-53598883D01*
X116807979Y-53606133D01*
X117087549Y-53760647D01*
X117101696Y-53769537D01*
X117362217Y-53954388D01*
X117375268Y-53964795D01*
X117563533Y-54133041D01*
X117613466Y-54177665D01*
X117625280Y-54189480D01*
X117838119Y-54427650D01*
X117848537Y-54440714D01*
X118033382Y-54701233D01*
X118042272Y-54715381D01*
X118196784Y-54994957D01*
X118204034Y-55010012D01*
X118326271Y-55305127D01*
X118331789Y-55320898D01*
X118420215Y-55627842D01*
X118423933Y-55644132D01*
X118478139Y-55963188D01*
X118479307Y-55971463D01*
X118487850Y-56047288D01*
X118488492Y-56054595D01*
X118498580Y-56214611D01*
X118498871Y-56222961D01*
X118499996Y-56386508D01*
X118500000Y-56387533D01*
X118500000Y-67653944D01*
X118480038Y-67728444D01*
X118425500Y-67782982D01*
X118351000Y-67802944D01*
X109500000Y-67802944D01*
X109500000Y-68464745D01*
X109480038Y-68539245D01*
X109425500Y-68593783D01*
X109386658Y-68609415D01*
X109249775Y-68643153D01*
X109099145Y-68722211D01*
X108971820Y-68835011D01*
X108971817Y-68835015D01*
X108875181Y-68975014D01*
X108814860Y-69134069D01*
X108794355Y-69302944D01*
X108814860Y-69471818D01*
X108875181Y-69630873D01*
X108894669Y-69659106D01*
X108971817Y-69770873D01*
X108971819Y-69770874D01*
X108971820Y-69770876D01*
X109099146Y-69883676D01*
X109099148Y-69883678D01*
X109249775Y-69962734D01*
X109386658Y-69996472D01*
X109454216Y-70033682D01*
X109494117Y-70099687D01*
X109500000Y-70141142D01*
X109500000Y-70464745D01*
X109480038Y-70539245D01*
X109425500Y-70593783D01*
X109386658Y-70609415D01*
X109249775Y-70643153D01*
X109099145Y-70722211D01*
X108971820Y-70835011D01*
X108971817Y-70835015D01*
X108875181Y-70975014D01*
X108814860Y-71134069D01*
X108794355Y-71302944D01*
X108814860Y-71471818D01*
X108875181Y-71630873D01*
X108875182Y-71630874D01*
X108971817Y-71770873D01*
X108971819Y-71770874D01*
X108971820Y-71770876D01*
X109048215Y-71838556D01*
X109091042Y-71876497D01*
X109099146Y-71883676D01*
X109099148Y-71883678D01*
X109249775Y-71962734D01*
X109386658Y-71996472D01*
X109454216Y-72033682D01*
X109494117Y-72099687D01*
X109500000Y-72141142D01*
X109500000Y-72464745D01*
X109480038Y-72539245D01*
X109425500Y-72593783D01*
X109386658Y-72609415D01*
X109249775Y-72643153D01*
X109099145Y-72722211D01*
X108971820Y-72835011D01*
X108971817Y-72835015D01*
X108875181Y-72975014D01*
X108814860Y-73134069D01*
X108794355Y-73302944D01*
X108814860Y-73471818D01*
X108875181Y-73630873D01*
X108894821Y-73659326D01*
X108971817Y-73770873D01*
X108971819Y-73770874D01*
X108971820Y-73770876D01*
X109099146Y-73883676D01*
X109099148Y-73883678D01*
X109249775Y-73962734D01*
X109386658Y-73996472D01*
X109454216Y-74033682D01*
X109494117Y-74099687D01*
X109500000Y-74141142D01*
X109500000Y-92802944D01*
X118351000Y-92802944D01*
X118425500Y-92822906D01*
X118480038Y-92877444D01*
X118500000Y-92951944D01*
X118500000Y-104218203D01*
X118499997Y-104219208D01*
X118498893Y-104382941D01*
X118498602Y-104391292D01*
X118488536Y-104551282D01*
X118487893Y-104558608D01*
X118479351Y-104634425D01*
X118478183Y-104642699D01*
X118423977Y-104961759D01*
X118420259Y-104978050D01*
X118331833Y-105284993D01*
X118326314Y-105300765D01*
X118204079Y-105595872D01*
X118196829Y-105610927D01*
X118042306Y-105890516D01*
X118033416Y-105904665D01*
X117848569Y-106165180D01*
X117838151Y-106178243D01*
X117625310Y-106416410D01*
X117613495Y-106428226D01*
X117375298Y-106641088D01*
X117362233Y-106651506D01*
X117101717Y-106836347D01*
X117087577Y-106845231D01*
X116903453Y-106946989D01*
X116808005Y-106999740D01*
X116792951Y-107006989D01*
X116500376Y-107128172D01*
X116497983Y-107129164D01*
X116497828Y-107129228D01*
X116482056Y-107134746D01*
X116175085Y-107223174D01*
X116158798Y-107226891D01*
X115839775Y-107281086D01*
X115831498Y-107282255D01*
X115755641Y-107290799D01*
X115748338Y-107291440D01*
X115588361Y-107301525D01*
X115580011Y-107301816D01*
X115416401Y-107302940D01*
X115415377Y-107302944D01*
X105649000Y-107302944D01*
X105574500Y-107282982D01*
X105519962Y-107228444D01*
X105500000Y-107153944D01*
X105500000Y-101302944D01*
X112500000Y-101302944D01*
X112500000Y-93302944D01*
X104500000Y-93302944D01*
X104500000Y-98302944D01*
X98120917Y-98302944D01*
X98046417Y-98282982D01*
X97991879Y-98228444D01*
X97971917Y-98153944D01*
X97991879Y-98079444D01*
X97998292Y-98069303D01*
X98024818Y-98030874D01*
X98085140Y-97871816D01*
X98105645Y-97702944D01*
X98085140Y-97534072D01*
X98073524Y-97503444D01*
X98024818Y-97375014D01*
X98004594Y-97345715D01*
X97928183Y-97235015D01*
X97928180Y-97235012D01*
X97928179Y-97235011D01*
X97810632Y-97130874D01*
X97800853Y-97122211D01*
X97800854Y-97122211D01*
X97650224Y-97043153D01*
X97485056Y-97002444D01*
X97314944Y-97002444D01*
X97149775Y-97043153D01*
X96999145Y-97122211D01*
X96871820Y-97235011D01*
X96871817Y-97235015D01*
X96775181Y-97375014D01*
X96714860Y-97534069D01*
X96694355Y-97702944D01*
X96714860Y-97871818D01*
X96775181Y-98030872D01*
X96801708Y-98069303D01*
X96827600Y-98141955D01*
X96813697Y-98217820D01*
X96763724Y-98276569D01*
X96691072Y-98302461D01*
X96679083Y-98302944D01*
X90337647Y-98302944D01*
X90263147Y-98282982D01*
X90208609Y-98228444D01*
X90189734Y-98171907D01*
X90185140Y-98134072D01*
X90124818Y-97975014D01*
X90028183Y-97835015D01*
X90028180Y-97835012D01*
X90028179Y-97835011D01*
X89900853Y-97722211D01*
X89900851Y-97722209D01*
X89771345Y-97654238D01*
X89714656Y-97601941D01*
X89691711Y-97528305D01*
X89708658Y-97453061D01*
X89735228Y-97416950D01*
X90049234Y-97102944D01*
X91994355Y-97102944D01*
X92014860Y-97271818D01*
X92075181Y-97430873D01*
X92105113Y-97474237D01*
X92171817Y-97570873D01*
X92171819Y-97570874D01*
X92171820Y-97570876D01*
X92299146Y-97683676D01*
X92299148Y-97683678D01*
X92449775Y-97762734D01*
X92614944Y-97803444D01*
X92785056Y-97803444D01*
X92950225Y-97762734D01*
X93100852Y-97683678D01*
X93228183Y-97570873D01*
X93324818Y-97430874D01*
X93385140Y-97271816D01*
X93405645Y-97102944D01*
X93385140Y-96934072D01*
X93378158Y-96915663D01*
X93335410Y-96802944D01*
X100794355Y-96802944D01*
X100814860Y-96971818D01*
X100875181Y-97130873D01*
X100875182Y-97130874D01*
X100971817Y-97270873D01*
X100971819Y-97270874D01*
X100971820Y-97270876D01*
X101008018Y-97302944D01*
X101089368Y-97375014D01*
X101099146Y-97383676D01*
X101099148Y-97383678D01*
X101249775Y-97462734D01*
X101414944Y-97503444D01*
X101585056Y-97503444D01*
X101750225Y-97462734D01*
X101900852Y-97383678D01*
X102028183Y-97270873D01*
X102124818Y-97130874D01*
X102185140Y-96971816D01*
X102205645Y-96802944D01*
X102185140Y-96634072D01*
X102124818Y-96475014D01*
X102028183Y-96335015D01*
X102028180Y-96335012D01*
X102028179Y-96335011D01*
X101900853Y-96222211D01*
X101900854Y-96222211D01*
X101750224Y-96143153D01*
X101585056Y-96102444D01*
X101414944Y-96102444D01*
X101249775Y-96143153D01*
X101099145Y-96222211D01*
X100971820Y-96335011D01*
X100971817Y-96335015D01*
X100875181Y-96475014D01*
X100814860Y-96634069D01*
X100794355Y-96802944D01*
X93335410Y-96802944D01*
X93324818Y-96775014D01*
X93228183Y-96635015D01*
X93228180Y-96635012D01*
X93228179Y-96635011D01*
X93100853Y-96522211D01*
X93100854Y-96522211D01*
X92950224Y-96443153D01*
X92785056Y-96402444D01*
X92614944Y-96402444D01*
X92449775Y-96443153D01*
X92299145Y-96522211D01*
X92171820Y-96635011D01*
X92171817Y-96635015D01*
X92075181Y-96775014D01*
X92014860Y-96934069D01*
X91994355Y-97102944D01*
X90049234Y-97102944D01*
X94372832Y-92779345D01*
X94439625Y-92740783D01*
X94516753Y-92740783D01*
X94576994Y-92773178D01*
X94679146Y-92863676D01*
X94679148Y-92863678D01*
X94829775Y-92942734D01*
X94994944Y-92983444D01*
X95165056Y-92983444D01*
X95330225Y-92942734D01*
X95480852Y-92863678D01*
X95608183Y-92750873D01*
X95704818Y-92610874D01*
X95765140Y-92451816D01*
X95785645Y-92282944D01*
X95765140Y-92114072D01*
X95738719Y-92044406D01*
X95704818Y-91955014D01*
X95608183Y-91815015D01*
X95582952Y-91792662D01*
X95540427Y-91728320D01*
X95535770Y-91651333D01*
X95570230Y-91582331D01*
X95576383Y-91575794D01*
X97729239Y-89422939D01*
X99355093Y-89422939D01*
X99355093Y-89422948D01*
X99374692Y-89684487D01*
X99374695Y-89684506D01*
X99433057Y-89940207D01*
X99433058Y-89940211D01*
X99528883Y-90184370D01*
X99660029Y-90411519D01*
X99707873Y-90471515D01*
X99707874Y-90471515D01*
X100432421Y-89746967D01*
X100445359Y-89778202D01*
X100527437Y-89901041D01*
X100631903Y-90005507D01*
X100754742Y-90087585D01*
X100785974Y-90100522D01*
X100060831Y-90825664D01*
X100060831Y-90825665D01*
X100232548Y-90942738D01*
X100468850Y-91056536D01*
X100468871Y-91056544D01*
X100719490Y-91133850D01*
X100719494Y-91133851D01*
X100978852Y-91172943D01*
X100978859Y-91172944D01*
X101241141Y-91172944D01*
X101241147Y-91172943D01*
X101500505Y-91133851D01*
X101500509Y-91133850D01*
X101751128Y-91056544D01*
X101751149Y-91056536D01*
X101987453Y-90942738D01*
X101987454Y-90942737D01*
X102159167Y-90825665D01*
X102159167Y-90825664D01*
X101434025Y-90100522D01*
X101465258Y-90087585D01*
X101588097Y-90005507D01*
X101692563Y-89901041D01*
X101774641Y-89778202D01*
X101787578Y-89746969D01*
X102512124Y-90471515D01*
X102512125Y-90471515D01*
X102559972Y-90411516D01*
X102691116Y-90184370D01*
X102786941Y-89940211D01*
X102786942Y-89940207D01*
X102845304Y-89684506D01*
X102845307Y-89684487D01*
X102864907Y-89422948D01*
X102864907Y-89422939D01*
X102845307Y-89161400D01*
X102845304Y-89161381D01*
X102786942Y-88905680D01*
X102786941Y-88905676D01*
X102691116Y-88661517D01*
X102559972Y-88434372D01*
X102559968Y-88434365D01*
X102512124Y-88374371D01*
X101787577Y-89098917D01*
X101774641Y-89067686D01*
X101692563Y-88944847D01*
X101588097Y-88840381D01*
X101465258Y-88758303D01*
X101434023Y-88745365D01*
X102159167Y-88020222D01*
X102159167Y-88020221D01*
X101987452Y-87903149D01*
X101751149Y-87789351D01*
X101751128Y-87789343D01*
X101500509Y-87712037D01*
X101500505Y-87712036D01*
X101241147Y-87672944D01*
X100978852Y-87672944D01*
X100719494Y-87712036D01*
X100719490Y-87712037D01*
X100468871Y-87789343D01*
X100468850Y-87789351D01*
X100232544Y-87903151D01*
X100232541Y-87903152D01*
X100060831Y-88020221D01*
X100060831Y-88020222D01*
X100785974Y-88745365D01*
X100754742Y-88758303D01*
X100631903Y-88840381D01*
X100527437Y-88944847D01*
X100445359Y-89067686D01*
X100432421Y-89098918D01*
X99707874Y-88374371D01*
X99660030Y-88434367D01*
X99660028Y-88434370D01*
X99528883Y-88661517D01*
X99433058Y-88905676D01*
X99433057Y-88905680D01*
X99374695Y-89161381D01*
X99374692Y-89161400D01*
X99355093Y-89422939D01*
X97729239Y-89422939D01*
X100005094Y-87147085D01*
X100071889Y-87108521D01*
X100110453Y-87103444D01*
X103950082Y-87103444D01*
X104019326Y-87120511D01*
X104099367Y-87162520D01*
X104099775Y-87162734D01*
X104264944Y-87203444D01*
X104435056Y-87203444D01*
X104600225Y-87162734D01*
X104750852Y-87083678D01*
X104878183Y-86970873D01*
X104974818Y-86830874D01*
X105035140Y-86671816D01*
X105055645Y-86502944D01*
X105035140Y-86334072D01*
X105019542Y-86292944D01*
X104974818Y-86175014D01*
X104949617Y-86138504D01*
X104878183Y-86035015D01*
X104878180Y-86035012D01*
X104878179Y-86035011D01*
X104750853Y-85922211D01*
X104750854Y-85922211D01*
X104600224Y-85843153D01*
X104435056Y-85802444D01*
X104409453Y-85802444D01*
X104334953Y-85782482D01*
X104280415Y-85727944D01*
X104260453Y-85653444D01*
X104280415Y-85578944D01*
X104304094Y-85548085D01*
X104679754Y-85172424D01*
X104806448Y-85045729D01*
X104806453Y-85045726D01*
X104818714Y-85033464D01*
X104818716Y-85033464D01*
X104930520Y-84921660D01*
X104987813Y-84822425D01*
X105009577Y-84784729D01*
X105050501Y-84632001D01*
X105050501Y-84473887D01*
X105050501Y-84464759D01*
X105050500Y-84464741D01*
X105050500Y-83062535D01*
X105070462Y-82988035D01*
X105073974Y-82982479D01*
X105074811Y-82980883D01*
X105074818Y-82980874D01*
X105135140Y-82821816D01*
X105155645Y-82652944D01*
X105135140Y-82484072D01*
X105122519Y-82450794D01*
X105074818Y-82325014D01*
X105065985Y-82312217D01*
X104978183Y-82185015D01*
X104978180Y-82185012D01*
X104978179Y-82185011D01*
X104850853Y-82072211D01*
X104850854Y-82072211D01*
X104700224Y-81993153D01*
X104535056Y-81952444D01*
X104364944Y-81952444D01*
X104199775Y-81993153D01*
X104049145Y-82072211D01*
X103921820Y-82185011D01*
X103921817Y-82185015D01*
X103825181Y-82325014D01*
X103764860Y-82484069D01*
X103754643Y-82568212D01*
X103744355Y-82652944D01*
X103755067Y-82741168D01*
X103764861Y-82821822D01*
X103814589Y-82952943D01*
X103825182Y-82980874D01*
X103825184Y-82980877D01*
X103829373Y-82988859D01*
X103827401Y-82989893D01*
X103849017Y-83050544D01*
X103849500Y-83062535D01*
X103849500Y-84242490D01*
X103829538Y-84316990D01*
X103805859Y-84347849D01*
X103780701Y-84373007D01*
X103713906Y-84411571D01*
X103636778Y-84411571D01*
X103569983Y-84373007D01*
X103536024Y-84320483D01*
X103529852Y-84304209D01*
X103499818Y-84225014D01*
X103403183Y-84085015D01*
X103403180Y-84085012D01*
X103403179Y-84085011D01*
X103275853Y-83972211D01*
X103275854Y-83972211D01*
X103125224Y-83893153D01*
X102960056Y-83852444D01*
X102789944Y-83852444D01*
X102624775Y-83893153D01*
X102544326Y-83935377D01*
X102475082Y-83952444D01*
X98738203Y-83952444D01*
X98738187Y-83952443D01*
X98729058Y-83952443D01*
X98570943Y-83952443D01*
X98570942Y-83952443D01*
X98418215Y-83993367D01*
X98281285Y-84072422D01*
X98281283Y-84072424D01*
X96394906Y-85958803D01*
X96328111Y-85997367D01*
X96289547Y-86002444D01*
X96171868Y-86002444D01*
X96097368Y-85982482D01*
X96042830Y-85927944D01*
X96022868Y-85853444D01*
X96029284Y-85810191D01*
X96066023Y-85689078D01*
X96066024Y-85689076D01*
X96085341Y-85492944D01*
X96066024Y-85296812D01*
X96008814Y-85108217D01*
X96008812Y-85108214D01*
X96008812Y-85108212D01*
X95915916Y-84934417D01*
X95915915Y-84934415D01*
X95915910Y-84934406D01*
X95790883Y-84782061D01*
X95638538Y-84657034D01*
X95638532Y-84657031D01*
X95638526Y-84657027D01*
X95464731Y-84564131D01*
X95276134Y-84506920D01*
X95145377Y-84494042D01*
X95080000Y-84487603D01*
X95079999Y-84487603D01*
X95008021Y-84494692D01*
X94931923Y-84482127D01*
X94888059Y-84451768D01*
X94574409Y-84138118D01*
X94535845Y-84071323D01*
X94535845Y-83994195D01*
X94574409Y-83927400D01*
X94641204Y-83888836D01*
X94718332Y-83888836D01*
X94723003Y-83890169D01*
X94883868Y-83938968D01*
X95080000Y-83958285D01*
X95276132Y-83938968D01*
X95464727Y-83881758D01*
X95638538Y-83788854D01*
X95790883Y-83663827D01*
X95915910Y-83511482D01*
X96008814Y-83337671D01*
X96066024Y-83149076D01*
X96085341Y-82952944D01*
X96066024Y-82756812D01*
X96008814Y-82568217D01*
X96008812Y-82568214D01*
X96008812Y-82568212D01*
X95915916Y-82394417D01*
X95915915Y-82394415D01*
X95915910Y-82394406D01*
X95790883Y-82242061D01*
X95638538Y-82117034D01*
X95638532Y-82117031D01*
X95638526Y-82117027D01*
X95464731Y-82024131D01*
X95276134Y-81966920D01*
X95129152Y-81952444D01*
X95080000Y-81947603D01*
X95079999Y-81947603D01*
X95050888Y-81950470D01*
X95008022Y-81954691D01*
X94931925Y-81942127D01*
X94888060Y-81911768D01*
X94717084Y-81740792D01*
X94678520Y-81673997D01*
X94678520Y-81596869D01*
X94717084Y-81530074D01*
X94783879Y-81491510D01*
X94849822Y-81488970D01*
X94978065Y-81512943D01*
X94978073Y-81512944D01*
X95181927Y-81512944D01*
X95181934Y-81512943D01*
X95382317Y-81475485D01*
X95572413Y-81401841D01*
X95660686Y-81347184D01*
X95209409Y-80895906D01*
X95272993Y-80878869D01*
X95387007Y-80813043D01*
X95480099Y-80719951D01*
X95545925Y-80605937D01*
X95562962Y-80542352D01*
X96017465Y-80996855D01*
X96017466Y-80996855D01*
X96019241Y-80994505D01*
X96019249Y-80994494D01*
X96110113Y-80812013D01*
X96165903Y-80615929D01*
X96184713Y-80412948D01*
X96184713Y-80412939D01*
X96165903Y-80209958D01*
X96110113Y-80013874D01*
X96019245Y-79831387D01*
X96017466Y-79829031D01*
X95562962Y-80283533D01*
X95545925Y-80219951D01*
X95480099Y-80105937D01*
X95387007Y-80012845D01*
X95272993Y-79947019D01*
X95209406Y-79929980D01*
X95660686Y-79478701D01*
X95572419Y-79424048D01*
X95572417Y-79424047D01*
X95382317Y-79350402D01*
X95181934Y-79312944D01*
X94978065Y-79312944D01*
X94777682Y-79350402D01*
X94587585Y-79424046D01*
X94499312Y-79478702D01*
X94950591Y-79929981D01*
X94887007Y-79947019D01*
X94772993Y-80012845D01*
X94679901Y-80105937D01*
X94614075Y-80219951D01*
X94597037Y-80283534D01*
X94142533Y-79829030D01*
X94142532Y-79829031D01*
X94140758Y-79831381D01*
X94140750Y-79831395D01*
X94049886Y-80013874D01*
X93994096Y-80209958D01*
X93975287Y-80412939D01*
X93975287Y-80412948D01*
X93994096Y-80615929D01*
X93994095Y-80615929D01*
X93996907Y-80625809D01*
X93998095Y-80702928D01*
X93960564Y-80770309D01*
X93894371Y-80809897D01*
X93817252Y-80811085D01*
X93749871Y-80773554D01*
X93748236Y-80771944D01*
X93019015Y-80042724D01*
X93019013Y-80042721D01*
X92898715Y-79922423D01*
X92811906Y-79872305D01*
X92811905Y-79872304D01*
X92761786Y-79843367D01*
X92609057Y-79802443D01*
X92450943Y-79802443D01*
X92441814Y-79802443D01*
X92441798Y-79802444D01*
X91030537Y-79802444D01*
X90956037Y-79782482D01*
X90901499Y-79727944D01*
X90881537Y-79653444D01*
X90899130Y-79583206D01*
X90904817Y-79572566D01*
X90928814Y-79527671D01*
X90986024Y-79339076D01*
X91005341Y-79142944D01*
X90986024Y-78946812D01*
X90928814Y-78758217D01*
X90928812Y-78758214D01*
X90928812Y-78758212D01*
X90835916Y-78584417D01*
X90835915Y-78584415D01*
X90835910Y-78584406D01*
X90710883Y-78432061D01*
X90558538Y-78307034D01*
X90558532Y-78307031D01*
X90558526Y-78307027D01*
X90384731Y-78214131D01*
X90342856Y-78201428D01*
X90279894Y-78182329D01*
X90214399Y-78141601D01*
X90178041Y-78073580D01*
X90180565Y-77996493D01*
X90217788Y-77934389D01*
X90356448Y-77795730D01*
X90356453Y-77795726D01*
X90368714Y-77783464D01*
X90368716Y-77783464D01*
X90480520Y-77671660D01*
X90530639Y-77584848D01*
X90559577Y-77534729D01*
X90580409Y-77456977D01*
X90618972Y-77390184D01*
X90629808Y-77380363D01*
X90641468Y-77370794D01*
X90710883Y-77313827D01*
X90835910Y-77161482D01*
X90913861Y-77015647D01*
X90928812Y-76987675D01*
X90928812Y-76987674D01*
X90928814Y-76987671D01*
X90986024Y-76799076D01*
X91005341Y-76602944D01*
X90986024Y-76406812D01*
X90928814Y-76218217D01*
X90928812Y-76218214D01*
X90928812Y-76218212D01*
X90835916Y-76044417D01*
X90835915Y-76044415D01*
X90835910Y-76044406D01*
X90710883Y-75892061D01*
X90558538Y-75767034D01*
X90558532Y-75767031D01*
X90558526Y-75767027D01*
X90384732Y-75674132D01*
X90384729Y-75674131D01*
X90384727Y-75674130D01*
X90287153Y-75644531D01*
X90240063Y-75630246D01*
X90174566Y-75589516D01*
X90138209Y-75521495D01*
X90140733Y-75444408D01*
X90181463Y-75378911D01*
X90244750Y-75343740D01*
X90446496Y-75289683D01*
X90652734Y-75193512D01*
X90839139Y-75062991D01*
X91000047Y-74902083D01*
X91130568Y-74715678D01*
X91226739Y-74509440D01*
X91285635Y-74289636D01*
X91305468Y-74062944D01*
X91285635Y-73836252D01*
X91226739Y-73616448D01*
X91130568Y-73410210D01*
X91000047Y-73223805D01*
X90839139Y-73062897D01*
X90839137Y-73062895D01*
X90652741Y-72932381D01*
X90652738Y-72932379D01*
X90652734Y-72932376D01*
X90466969Y-72845752D01*
X90407889Y-72796176D01*
X90381510Y-72723700D01*
X90385170Y-72702944D01*
X91594355Y-72702944D01*
X91614860Y-72871818D01*
X91675181Y-73030873D01*
X91675182Y-73030874D01*
X91771817Y-73170873D01*
X91771819Y-73170874D01*
X91771820Y-73170876D01*
X91899146Y-73283676D01*
X91899148Y-73283678D01*
X92049775Y-73362734D01*
X92214944Y-73403444D01*
X92385056Y-73403444D01*
X92550225Y-73362734D01*
X92700852Y-73283678D01*
X92828183Y-73170873D01*
X92924818Y-73030874D01*
X92985140Y-72871816D01*
X92994717Y-72792944D01*
X93774532Y-72792944D01*
X93794365Y-73019637D01*
X93814008Y-73092944D01*
X93853261Y-73239440D01*
X93949432Y-73445678D01*
X93949435Y-73445682D01*
X93949437Y-73445685D01*
X94079951Y-73632081D01*
X94240862Y-73792992D01*
X94302642Y-73836250D01*
X94427266Y-73923512D01*
X94436685Y-73927904D01*
X94436689Y-73927906D01*
X94495771Y-73977484D01*
X94522148Y-74049962D01*
X94508753Y-74125918D01*
X94459175Y-74185000D01*
X94436689Y-74197982D01*
X94427268Y-74202375D01*
X94427258Y-74202381D01*
X94240862Y-74332895D01*
X94079951Y-74493806D01*
X93949437Y-74680202D01*
X93949435Y-74680205D01*
X93949434Y-74680207D01*
X93949432Y-74680210D01*
X93854141Y-74884561D01*
X93853260Y-74886451D01*
X93794365Y-75106250D01*
X93774532Y-75332944D01*
X93794365Y-75559637D01*
X93809714Y-75616920D01*
X93853261Y-75779440D01*
X93949432Y-75985678D01*
X93949435Y-75985682D01*
X93949437Y-75985685D01*
X94079951Y-76172081D01*
X94240862Y-76332992D01*
X94294967Y-76370876D01*
X94427266Y-76463512D01*
X94633504Y-76559683D01*
X94835247Y-76613739D01*
X94902041Y-76652303D01*
X94940605Y-76719098D01*
X94940605Y-76796226D01*
X94902041Y-76863021D01*
X94839936Y-76900246D01*
X94725061Y-76935094D01*
X94695273Y-76944130D01*
X94695272Y-76944130D01*
X94695267Y-76944132D01*
X94521473Y-77037027D01*
X94521465Y-77037032D01*
X94521463Y-77037033D01*
X94521462Y-77037034D01*
X94369117Y-77162061D01*
X94244566Y-77313827D01*
X94244088Y-77314409D01*
X94244083Y-77314417D01*
X94151187Y-77488212D01*
X94093976Y-77676809D01*
X94074659Y-77872944D01*
X94093976Y-78069078D01*
X94151187Y-78257675D01*
X94244083Y-78431470D01*
X94244087Y-78431476D01*
X94244090Y-78431482D01*
X94369117Y-78583827D01*
X94521462Y-78708854D01*
X94521471Y-78708859D01*
X94521473Y-78708860D01*
X94695268Y-78801756D01*
X94695270Y-78801756D01*
X94695273Y-78801758D01*
X94883868Y-78858968D01*
X95080000Y-78878285D01*
X95276132Y-78858968D01*
X95464727Y-78801758D01*
X95638538Y-78708854D01*
X95790883Y-78583827D01*
X95807677Y-78563363D01*
X95832663Y-78532919D01*
X95895356Y-78487994D01*
X95947841Y-78478444D01*
X100762331Y-78478444D01*
X100819348Y-78489784D01*
X100840257Y-78498445D01*
X100965931Y-78523444D01*
X100973110Y-78524872D01*
X100973085Y-78524997D01*
X100982536Y-78526618D01*
X100989944Y-78528444D01*
X100989945Y-78528444D01*
X101160056Y-78528444D01*
X101325225Y-78487734D01*
X101475852Y-78408678D01*
X101603183Y-78295873D01*
X101699818Y-78155874D01*
X101760140Y-77996816D01*
X101780645Y-77827944D01*
X101760140Y-77659072D01*
X101699818Y-77500014D01*
X101603183Y-77360015D01*
X101603180Y-77360012D01*
X101603179Y-77360011D01*
X101485568Y-77255818D01*
X101475853Y-77247211D01*
X101475854Y-77247211D01*
X101325224Y-77168153D01*
X101160056Y-77127444D01*
X100989944Y-77127444D01*
X100851894Y-77161470D01*
X100816024Y-77170311D01*
X100815845Y-77169588D01*
X100772974Y-77177444D01*
X95862941Y-77177444D01*
X95788441Y-77157482D01*
X95768417Y-77143623D01*
X95638539Y-77037035D01*
X95638538Y-77037034D01*
X95638533Y-77037031D01*
X95638526Y-77037027D01*
X95464732Y-76944132D01*
X95464729Y-76944131D01*
X95464727Y-76944130D01*
X95377316Y-76917614D01*
X95320063Y-76900246D01*
X95254566Y-76859516D01*
X95218209Y-76791495D01*
X95220733Y-76714408D01*
X95261463Y-76648911D01*
X95324750Y-76613740D01*
X95526496Y-76559683D01*
X95732734Y-76463512D01*
X95919139Y-76332991D01*
X96080047Y-76172083D01*
X96210568Y-75985678D01*
X96306739Y-75779440D01*
X96365635Y-75559636D01*
X96385468Y-75332944D01*
X96365635Y-75106252D01*
X96306739Y-74886448D01*
X96210568Y-74680210D01*
X96101853Y-74524947D01*
X96080048Y-74493806D01*
X95919137Y-74332895D01*
X95732741Y-74202381D01*
X95732734Y-74202376D01*
X95732732Y-74202375D01*
X95723312Y-74197982D01*
X95664230Y-74148407D01*
X95637851Y-74075930D01*
X95651244Y-73999974D01*
X95700821Y-73940890D01*
X95723311Y-73927906D01*
X95732734Y-73923512D01*
X95919139Y-73792991D01*
X96080047Y-73632083D01*
X96210568Y-73445678D01*
X96306739Y-73239440D01*
X96365635Y-73019636D01*
X96385468Y-72792944D01*
X96365635Y-72566252D01*
X96306739Y-72346448D01*
X96210568Y-72140210D01*
X96114104Y-72002444D01*
X96080048Y-71953806D01*
X95919137Y-71792895D01*
X95732741Y-71662381D01*
X95732738Y-71662379D01*
X95732734Y-71662376D01*
X95526496Y-71566205D01*
X95526493Y-71566204D01*
X95482946Y-71554536D01*
X95416152Y-71515971D01*
X95377588Y-71449176D01*
X95377588Y-71422939D01*
X99455093Y-71422939D01*
X99455093Y-71422948D01*
X99474692Y-71684487D01*
X99474695Y-71684506D01*
X99533057Y-71940207D01*
X99533058Y-71940211D01*
X99628883Y-72184370D01*
X99760029Y-72411519D01*
X99807873Y-72471515D01*
X99807874Y-72471515D01*
X100532421Y-71746967D01*
X100545359Y-71778202D01*
X100627437Y-71901041D01*
X100731903Y-72005507D01*
X100854742Y-72087585D01*
X100885974Y-72100522D01*
X100160831Y-72825664D01*
X100160831Y-72825665D01*
X100332548Y-72942738D01*
X100568850Y-73056536D01*
X100568871Y-73056544D01*
X100819490Y-73133850D01*
X100819494Y-73133851D01*
X101078852Y-73172943D01*
X101078859Y-73172944D01*
X101341141Y-73172944D01*
X101341147Y-73172943D01*
X101600505Y-73133851D01*
X101600509Y-73133850D01*
X101851128Y-73056544D01*
X101851149Y-73056536D01*
X102087453Y-72942738D01*
X102087454Y-72942737D01*
X102259167Y-72825665D01*
X102259167Y-72825664D01*
X101534025Y-72100522D01*
X101565258Y-72087585D01*
X101688097Y-72005507D01*
X101792563Y-71901041D01*
X101874641Y-71778202D01*
X101887578Y-71746969D01*
X102612124Y-72471515D01*
X102612125Y-72471515D01*
X102659972Y-72411516D01*
X102791116Y-72184370D01*
X102886941Y-71940211D01*
X102886942Y-71940207D01*
X102945304Y-71684506D01*
X102945307Y-71684487D01*
X102964907Y-71422948D01*
X102964907Y-71422939D01*
X102955914Y-71302944D01*
X106794355Y-71302944D01*
X106814860Y-71471818D01*
X106875181Y-71630873D01*
X106875182Y-71630874D01*
X106971817Y-71770873D01*
X106971819Y-71770874D01*
X106971820Y-71770876D01*
X107048215Y-71838556D01*
X107091042Y-71876497D01*
X107099146Y-71883676D01*
X107099148Y-71883678D01*
X107249775Y-71962734D01*
X107414944Y-72003444D01*
X107585056Y-72003444D01*
X107750225Y-71962734D01*
X107900852Y-71883678D01*
X108028183Y-71770873D01*
X108124818Y-71630874D01*
X108185140Y-71471816D01*
X108205645Y-71302944D01*
X108185140Y-71134072D01*
X108177778Y-71114661D01*
X108124818Y-70975014D01*
X108103995Y-70944847D01*
X108028183Y-70835015D01*
X108028180Y-70835012D01*
X108028179Y-70835011D01*
X107900853Y-70722211D01*
X107900854Y-70722211D01*
X107750224Y-70643153D01*
X107585056Y-70602444D01*
X107414944Y-70602444D01*
X107249775Y-70643153D01*
X107099145Y-70722211D01*
X106971820Y-70835011D01*
X106971817Y-70835015D01*
X106875181Y-70975014D01*
X106814860Y-71134069D01*
X106794355Y-71302944D01*
X102955914Y-71302944D01*
X102945307Y-71161400D01*
X102945304Y-71161381D01*
X102886942Y-70905680D01*
X102886941Y-70905676D01*
X102791116Y-70661517D01*
X102659972Y-70434372D01*
X102659968Y-70434365D01*
X102612124Y-70374371D01*
X101887577Y-71098917D01*
X101874641Y-71067686D01*
X101792563Y-70944847D01*
X101688097Y-70840381D01*
X101565258Y-70758303D01*
X101534023Y-70745365D01*
X102259167Y-70020222D01*
X102259167Y-70020221D01*
X102087452Y-69903149D01*
X101851149Y-69789351D01*
X101851128Y-69789343D01*
X101600509Y-69712037D01*
X101600505Y-69712036D01*
X101341147Y-69672944D01*
X101078852Y-69672944D01*
X100819494Y-69712036D01*
X100819490Y-69712037D01*
X100568871Y-69789343D01*
X100568850Y-69789351D01*
X100332544Y-69903151D01*
X100332541Y-69903152D01*
X100160831Y-70020221D01*
X100160831Y-70020222D01*
X100885974Y-70745365D01*
X100854742Y-70758303D01*
X100731903Y-70840381D01*
X100627437Y-70944847D01*
X100545359Y-71067686D01*
X100532421Y-71098918D01*
X99807874Y-70374371D01*
X99760030Y-70434367D01*
X99760028Y-70434370D01*
X99628883Y-70661517D01*
X99533058Y-70905676D01*
X99533057Y-70905680D01*
X99474695Y-71161381D01*
X99474692Y-71161400D01*
X99455093Y-71422939D01*
X95377588Y-71422939D01*
X95377588Y-71372048D01*
X95416153Y-71305254D01*
X95452268Y-71278680D01*
X95480852Y-71263678D01*
X95608183Y-71150873D01*
X95704818Y-71010874D01*
X95765140Y-70851816D01*
X95785645Y-70682944D01*
X95765140Y-70514072D01*
X95765121Y-70514023D01*
X95704818Y-70355014D01*
X95697762Y-70344792D01*
X95608183Y-70215015D01*
X95608180Y-70215012D01*
X95608179Y-70215011D01*
X95488294Y-70108803D01*
X95480853Y-70102211D01*
X95480854Y-70102211D01*
X95330224Y-70023153D01*
X95165056Y-69982444D01*
X94994944Y-69982444D01*
X94829775Y-70023153D01*
X94679145Y-70102211D01*
X94551820Y-70215011D01*
X94551817Y-70215015D01*
X94455181Y-70355014D01*
X94394860Y-70514069D01*
X94374355Y-70682944D01*
X94394860Y-70851818D01*
X94455181Y-71010873D01*
X94455182Y-71010874D01*
X94551817Y-71150873D01*
X94551819Y-71150874D01*
X94551820Y-71150876D01*
X94679146Y-71263676D01*
X94679148Y-71263678D01*
X94707732Y-71278680D01*
X94764422Y-71330978D01*
X94787367Y-71404614D01*
X94770421Y-71479857D01*
X94718123Y-71536547D01*
X94677054Y-71554535D01*
X94633504Y-71566205D01*
X94427266Y-71662376D01*
X94427263Y-71662378D01*
X94427261Y-71662379D01*
X94427258Y-71662381D01*
X94240862Y-71792895D01*
X94079951Y-71953806D01*
X93949437Y-72140202D01*
X93949435Y-72140205D01*
X93949434Y-72140207D01*
X93949432Y-72140210D01*
X93883474Y-72281657D01*
X93853260Y-72346451D01*
X93794365Y-72566250D01*
X93774532Y-72792944D01*
X92994717Y-72792944D01*
X93005645Y-72702944D01*
X92985140Y-72534072D01*
X92945943Y-72430718D01*
X92924818Y-72375014D01*
X92905100Y-72346448D01*
X92828183Y-72235015D01*
X92828180Y-72235012D01*
X92828179Y-72235011D01*
X92700853Y-72122211D01*
X92700854Y-72122211D01*
X92550224Y-72043153D01*
X92385056Y-72002444D01*
X92214944Y-72002444D01*
X92049775Y-72043153D01*
X91899145Y-72122211D01*
X91771820Y-72235011D01*
X91771817Y-72235015D01*
X91675181Y-72375014D01*
X91614860Y-72534069D01*
X91594355Y-72702944D01*
X90385170Y-72702944D01*
X90394903Y-72647743D01*
X90444481Y-72588660D01*
X90476119Y-72571775D01*
X90514792Y-72556792D01*
X90617006Y-72493503D01*
X90129409Y-72005906D01*
X90192993Y-71988869D01*
X90307007Y-71923043D01*
X90400099Y-71829951D01*
X90465925Y-71715937D01*
X90482962Y-71652353D01*
X90973162Y-72142553D01*
X90981936Y-72130938D01*
X90981940Y-72130931D01*
X91076936Y-71940153D01*
X91135262Y-71735156D01*
X91154927Y-71522948D01*
X91154927Y-71522939D01*
X91135262Y-71310731D01*
X91076937Y-71105739D01*
X90981935Y-70914946D01*
X90973164Y-70903333D01*
X90973162Y-70903333D01*
X90482962Y-71393533D01*
X90465925Y-71329951D01*
X90400099Y-71215937D01*
X90307007Y-71122845D01*
X90192993Y-71057019D01*
X90129407Y-71039981D01*
X90617006Y-70552382D01*
X90617007Y-70552382D01*
X90514796Y-70489096D01*
X90514791Y-70489093D01*
X90316065Y-70412107D01*
X90106567Y-70372944D01*
X89893432Y-70372944D01*
X89683934Y-70412107D01*
X89485209Y-70489093D01*
X89485206Y-70489095D01*
X89382992Y-70552383D01*
X89870590Y-71039981D01*
X89807007Y-71057019D01*
X89692993Y-71122845D01*
X89599901Y-71215937D01*
X89534075Y-71329951D01*
X89517037Y-71393534D01*
X89026835Y-70903332D01*
X89018062Y-70914950D01*
X88923062Y-71105739D01*
X88864737Y-71310731D01*
X88845073Y-71522939D01*
X88845073Y-71522948D01*
X88864737Y-71735156D01*
X88923062Y-71940148D01*
X89018062Y-72130936D01*
X89026836Y-72142553D01*
X89517037Y-71652351D01*
X89534075Y-71715937D01*
X89599901Y-71829951D01*
X89692993Y-71923043D01*
X89807007Y-71988869D01*
X89870590Y-72005906D01*
X89382992Y-72493504D01*
X89485203Y-72556791D01*
X89485209Y-72556794D01*
X89523881Y-72571776D01*
X89586139Y-72617303D01*
X89617293Y-72687859D01*
X89608994Y-72764539D01*
X89563467Y-72826797D01*
X89533027Y-72845753D01*
X89347270Y-72932373D01*
X89347258Y-72932381D01*
X89160862Y-73062895D01*
X88999951Y-73223806D01*
X88869437Y-73410202D01*
X88869435Y-73410205D01*
X88869434Y-73410207D01*
X88869432Y-73410210D01*
X88773261Y-73616448D01*
X88773260Y-73616451D01*
X88714365Y-73836250D01*
X88694532Y-74062944D01*
X88714365Y-74289637D01*
X88760814Y-74462989D01*
X88773261Y-74509440D01*
X88869432Y-74715678D01*
X88869435Y-74715682D01*
X88869437Y-74715685D01*
X88999951Y-74902081D01*
X89160862Y-75062992D01*
X89190071Y-75083444D01*
X89347266Y-75193512D01*
X89553504Y-75289683D01*
X89755247Y-75343739D01*
X89822041Y-75382303D01*
X89860605Y-75449098D01*
X89860605Y-75526226D01*
X89822041Y-75593021D01*
X89759936Y-75630246D01*
X89644716Y-75665198D01*
X89615273Y-75674130D01*
X89615272Y-75674130D01*
X89615267Y-75674132D01*
X89441473Y-75767027D01*
X89441465Y-75767032D01*
X89441463Y-75767033D01*
X89441462Y-75767034D01*
X89289117Y-75892061D01*
X89212282Y-75985685D01*
X89164088Y-76044409D01*
X89164083Y-76044417D01*
X89071187Y-76218212D01*
X89013976Y-76406809D01*
X88994659Y-76602944D01*
X89013976Y-76799078D01*
X89071187Y-76987675D01*
X89156630Y-77147527D01*
X89174144Y-77222640D01*
X89151755Y-77296447D01*
X89130583Y-77323124D01*
X86988445Y-79465262D01*
X86921650Y-79503826D01*
X86844522Y-79503826D01*
X86777727Y-79465262D01*
X86739163Y-79398467D01*
X86736348Y-79385769D01*
X86736207Y-79384975D01*
X86736207Y-79384967D01*
X86679575Y-79173614D01*
X86587102Y-78975306D01*
X86461598Y-78796067D01*
X86329691Y-78664160D01*
X86291127Y-78597365D01*
X86291127Y-78520237D01*
X86329691Y-78453442D01*
X86396486Y-78414878D01*
X86419123Y-78410655D01*
X86457377Y-78406542D01*
X86592084Y-78356298D01*
X86592094Y-78356293D01*
X86707187Y-78270134D01*
X86707190Y-78270131D01*
X86793349Y-78155038D01*
X86793354Y-78155028D01*
X86843598Y-78020321D01*
X86849998Y-77960786D01*
X86850000Y-77960766D01*
X86850000Y-77312944D01*
X85933012Y-77312944D01*
X85965925Y-77255937D01*
X86000000Y-77128770D01*
X86000000Y-76997118D01*
X85965925Y-76869951D01*
X85933012Y-76812944D01*
X86850000Y-76812944D01*
X86850000Y-76165121D01*
X86849998Y-76165101D01*
X86843598Y-76105566D01*
X86793354Y-75970859D01*
X86793349Y-75970849D01*
X86707190Y-75855756D01*
X86707187Y-75855753D01*
X86592094Y-75769594D01*
X86592084Y-75769589D01*
X86457376Y-75719345D01*
X86457378Y-75719345D01*
X86397842Y-75712945D01*
X86397823Y-75712944D01*
X85750000Y-75712944D01*
X85750000Y-76629932D01*
X85692993Y-76597019D01*
X85565826Y-76562944D01*
X85434174Y-76562944D01*
X85307007Y-76597019D01*
X85250000Y-76629932D01*
X85250000Y-75712944D01*
X84602177Y-75712944D01*
X84602157Y-75712945D01*
X84542622Y-75719345D01*
X84407915Y-75769589D01*
X84407905Y-75769594D01*
X84292812Y-75855753D01*
X84292809Y-75855756D01*
X84206650Y-75970849D01*
X84206645Y-75970859D01*
X84156401Y-76105566D01*
X84150001Y-76165101D01*
X84150000Y-76165121D01*
X84150000Y-76812944D01*
X85066988Y-76812944D01*
X85034075Y-76869951D01*
X85000000Y-76997118D01*
X85000000Y-77128770D01*
X85034075Y-77255937D01*
X85066988Y-77312944D01*
X84150000Y-77312944D01*
X84150000Y-77960766D01*
X84150001Y-77960786D01*
X84156401Y-78020321D01*
X84206645Y-78155028D01*
X84206650Y-78155038D01*
X84292809Y-78270131D01*
X84292812Y-78270134D01*
X84407905Y-78356293D01*
X84407915Y-78356298D01*
X84542622Y-78406542D01*
X84580877Y-78410655D01*
X84652816Y-78438466D01*
X84701211Y-78498522D01*
X84713095Y-78574729D01*
X84685284Y-78646668D01*
X84670308Y-78664160D01*
X84538404Y-78796064D01*
X84428207Y-78953443D01*
X84412898Y-78975306D01*
X84320603Y-79173233D01*
X84320424Y-79173617D01*
X84263793Y-79384965D01*
X84255592Y-79478702D01*
X84244723Y-79602944D01*
X84258688Y-79762568D01*
X84263793Y-79820921D01*
X84264923Y-79827330D01*
X84262318Y-79827789D01*
X84262264Y-79892589D01*
X84223733Y-79959263D01*
X83914195Y-80268803D01*
X83847401Y-80307367D01*
X83808836Y-80312444D01*
X83703276Y-80312444D01*
X83628776Y-80292482D01*
X83574238Y-80237944D01*
X83562637Y-80212655D01*
X83561693Y-80209958D01*
X83556622Y-80195465D01*
X83459151Y-80040340D01*
X83329604Y-79910793D01*
X83329602Y-79910792D01*
X83329600Y-79910790D01*
X83183684Y-79819106D01*
X83131223Y-79762568D01*
X83114060Y-79687373D01*
X83136794Y-79613672D01*
X83183684Y-79566782D01*
X83245929Y-79527671D01*
X83329604Y-79475095D01*
X83459151Y-79345548D01*
X83556622Y-79190423D01*
X83617131Y-79017498D01*
X83632500Y-78881097D01*
X83632499Y-77964792D01*
X83617131Y-77828390D01*
X83556622Y-77655465D01*
X83530927Y-77614572D01*
X83459153Y-77500343D01*
X83459150Y-77500339D01*
X83329605Y-77370794D01*
X83329600Y-77370790D01*
X83183684Y-77279106D01*
X83131223Y-77222568D01*
X83114060Y-77147373D01*
X83136794Y-77073672D01*
X83183684Y-77026782D01*
X83201404Y-77015648D01*
X83329604Y-76935095D01*
X83459151Y-76805548D01*
X83556622Y-76650423D01*
X83617131Y-76477498D01*
X83632500Y-76341097D01*
X83632499Y-75424792D01*
X83617131Y-75288390D01*
X83556622Y-75115465D01*
X83552472Y-75108861D01*
X83459153Y-74960343D01*
X83459150Y-74960339D01*
X83329604Y-74830793D01*
X83329596Y-74830788D01*
X83278506Y-74798686D01*
X83226047Y-74742148D01*
X83208884Y-74666954D01*
X83231618Y-74593252D01*
X83288157Y-74540792D01*
X83290136Y-74539765D01*
X83319213Y-74524949D01*
X83319225Y-74524941D01*
X83468286Y-74404235D01*
X83468291Y-74404230D01*
X83588997Y-74255169D01*
X83589003Y-74255161D01*
X83676083Y-74084255D01*
X83676085Y-74084252D01*
X83725729Y-73898979D01*
X83725730Y-73898975D01*
X83731999Y-73819302D01*
X83732000Y-73819299D01*
X83732000Y-73592944D01*
X80232001Y-73592944D01*
X80232001Y-73819305D01*
X80238269Y-73898973D01*
X80238270Y-73898978D01*
X80287914Y-74084252D01*
X80287916Y-74084255D01*
X80374996Y-74255161D01*
X80375002Y-74255169D01*
X80495708Y-74404230D01*
X80495713Y-74404235D01*
X80644774Y-74524941D01*
X80644783Y-74524947D01*
X80673864Y-74539765D01*
X80731181Y-74591374D01*
X80755015Y-74664728D01*
X80738979Y-74740170D01*
X80687370Y-74797487D01*
X80685492Y-74798686D01*
X80634402Y-74830788D01*
X80634395Y-74830794D01*
X80504850Y-74960339D01*
X80504849Y-74960339D01*
X80407378Y-75115464D01*
X80401363Y-75132655D01*
X80357915Y-75196382D01*
X80288425Y-75229846D01*
X80260724Y-75232444D01*
X78164236Y-75232444D01*
X78089736Y-75212482D01*
X78035198Y-75157944D01*
X78015236Y-75083444D01*
X78024917Y-75030613D01*
X78025162Y-75029964D01*
X78033515Y-75007939D01*
X78067472Y-74955416D01*
X79977643Y-73045245D01*
X80044436Y-73006683D01*
X80121564Y-73006683D01*
X80188359Y-73045247D01*
X80193899Y-73054843D01*
X80232000Y-73092944D01*
X83731999Y-73092944D01*
X83731999Y-72866590D01*
X83731998Y-72866582D01*
X83725730Y-72786914D01*
X83725729Y-72786909D01*
X83676085Y-72601635D01*
X83676083Y-72601632D01*
X83589003Y-72430726D01*
X83588997Y-72430718D01*
X83468291Y-72281657D01*
X83468286Y-72281652D01*
X83319225Y-72160946D01*
X83319216Y-72160940D01*
X83290133Y-72146121D01*
X83232817Y-72094511D01*
X83208984Y-72021158D01*
X83225021Y-71945715D01*
X83276631Y-71888399D01*
X83278419Y-71887256D01*
X83329604Y-71855095D01*
X83459151Y-71725548D01*
X83556622Y-71570423D01*
X83617131Y-71397498D01*
X83632500Y-71261097D01*
X83632499Y-70344792D01*
X83617131Y-70208390D01*
X83556622Y-70035465D01*
X83555896Y-70034310D01*
X83459153Y-69880343D01*
X83459150Y-69880339D01*
X83329604Y-69750793D01*
X83278507Y-69718687D01*
X83226047Y-69662148D01*
X83208884Y-69586954D01*
X83231618Y-69513252D01*
X83288157Y-69460792D01*
X83290136Y-69459765D01*
X83319213Y-69444949D01*
X83319225Y-69444941D01*
X83468286Y-69324235D01*
X83468291Y-69324230D01*
X83485528Y-69302944D01*
X106794355Y-69302944D01*
X106814860Y-69471818D01*
X106875181Y-69630873D01*
X106894669Y-69659106D01*
X106971817Y-69770873D01*
X106971819Y-69770874D01*
X106971820Y-69770876D01*
X107099146Y-69883676D01*
X107099148Y-69883678D01*
X107249775Y-69962734D01*
X107414944Y-70003444D01*
X107585056Y-70003444D01*
X107750225Y-69962734D01*
X107900852Y-69883678D01*
X108028183Y-69770873D01*
X108124818Y-69630874D01*
X108185140Y-69471816D01*
X108205645Y-69302944D01*
X108185140Y-69134072D01*
X108124818Y-68975014D01*
X108028183Y-68835015D01*
X108028180Y-68835012D01*
X108028179Y-68835011D01*
X107900853Y-68722211D01*
X107900854Y-68722211D01*
X107750224Y-68643153D01*
X107585056Y-68602444D01*
X107414944Y-68602444D01*
X107249775Y-68643153D01*
X107099145Y-68722211D01*
X106971820Y-68835011D01*
X106971817Y-68835015D01*
X106875181Y-68975014D01*
X106814860Y-69134069D01*
X106794355Y-69302944D01*
X83485528Y-69302944D01*
X83588997Y-69175169D01*
X83589003Y-69175161D01*
X83676083Y-69004255D01*
X83676085Y-69004252D01*
X83725729Y-68818979D01*
X83725730Y-68818975D01*
X83731999Y-68739302D01*
X83732000Y-68739299D01*
X83732000Y-68512944D01*
X80232001Y-68512944D01*
X80232001Y-68739305D01*
X80238269Y-68818973D01*
X80238270Y-68818978D01*
X80287914Y-69004252D01*
X80287916Y-69004255D01*
X80374996Y-69175161D01*
X80375002Y-69175169D01*
X80495708Y-69324230D01*
X80495713Y-69324235D01*
X80644774Y-69444941D01*
X80644783Y-69444947D01*
X80673864Y-69459765D01*
X80731181Y-69511374D01*
X80755015Y-69584728D01*
X80738979Y-69660170D01*
X80687370Y-69717487D01*
X80685492Y-69718686D01*
X80634402Y-69750788D01*
X80634395Y-69750794D01*
X80504846Y-69880343D01*
X80407378Y-70035464D01*
X80346869Y-70208390D01*
X80331500Y-70344791D01*
X80331500Y-70789779D01*
X80311538Y-70864279D01*
X80287859Y-70895138D01*
X80094908Y-71088088D01*
X80058795Y-71114661D01*
X79949145Y-71172211D01*
X79821820Y-71285011D01*
X79821817Y-71285015D01*
X79725182Y-71425013D01*
X79716481Y-71447954D01*
X79682524Y-71500472D01*
X77144908Y-74038088D01*
X77108795Y-74064661D01*
X76999145Y-74122211D01*
X76871820Y-74235011D01*
X76871817Y-74235015D01*
X76775181Y-74375014D01*
X76714860Y-74534069D01*
X76694355Y-74702944D01*
X76714860Y-74871818D01*
X76766485Y-75007942D01*
X76775182Y-75030874D01*
X76800420Y-75067437D01*
X76863457Y-75158762D01*
X76889349Y-75231414D01*
X76875446Y-75307278D01*
X76839638Y-75354931D01*
X76771817Y-75415015D01*
X76675181Y-75555014D01*
X76614860Y-75714069D01*
X76594355Y-75882944D01*
X76614860Y-76051818D01*
X76675181Y-76210873D01*
X76684664Y-76224611D01*
X76771817Y-76350873D01*
X76771819Y-76350874D01*
X76771820Y-76350876D01*
X76856673Y-76426049D01*
X76899200Y-76490393D01*
X76903857Y-76567381D01*
X76869396Y-76636382D01*
X76805052Y-76678909D01*
X76793526Y-76682247D01*
X76749275Y-76693153D01*
X76598645Y-76772211D01*
X76471320Y-76885011D01*
X76471317Y-76885015D01*
X76374681Y-77025014D01*
X76314360Y-77184069D01*
X76293855Y-77352944D01*
X76314360Y-77521818D01*
X76374681Y-77680873D01*
X76387656Y-77699670D01*
X76471317Y-77820873D01*
X76471319Y-77820874D01*
X76471320Y-77820876D01*
X76598646Y-77933676D01*
X76598648Y-77933678D01*
X76749275Y-78012734D01*
X76914444Y-78053444D01*
X77084556Y-78053444D01*
X77258476Y-78010577D01*
X77258654Y-78011299D01*
X77301526Y-78003444D01*
X78818836Y-78003444D01*
X78893336Y-78023406D01*
X78924195Y-78047085D01*
X79805331Y-78928221D01*
X79911874Y-78999410D01*
X79981217Y-79028131D01*
X79981221Y-79028134D01*
X79981221Y-79028133D01*
X80030256Y-79048445D01*
X80030255Y-79048445D01*
X80092247Y-79060776D01*
X80155931Y-79073444D01*
X80155932Y-79073444D01*
X80260724Y-79073444D01*
X80335224Y-79093406D01*
X80389762Y-79147944D01*
X80401362Y-79173232D01*
X80407378Y-79190423D01*
X80504849Y-79345548D01*
X80634396Y-79475095D01*
X80718071Y-79527671D01*
X80780316Y-79566782D01*
X80832776Y-79623321D01*
X80849939Y-79698515D01*
X80827205Y-79772217D01*
X80780316Y-79819106D01*
X80634395Y-79910793D01*
X80634395Y-79910794D01*
X80504846Y-80040343D01*
X80407378Y-80195464D01*
X80346869Y-80368390D01*
X80331500Y-80504791D01*
X80331500Y-81421095D01*
X80346868Y-81557496D01*
X80407378Y-81730424D01*
X80504846Y-81885544D01*
X80504849Y-81885548D01*
X80634396Y-82015095D01*
X80725296Y-82072211D01*
X80780316Y-82106782D01*
X80832776Y-82163321D01*
X80849939Y-82238515D01*
X80827205Y-82312217D01*
X80780316Y-82359106D01*
X80634395Y-82450793D01*
X80634395Y-82450794D01*
X80504846Y-82580343D01*
X80407378Y-82735464D01*
X80346869Y-82908390D01*
X80331500Y-83044791D01*
X80331500Y-83961095D01*
X80346868Y-84097496D01*
X80407378Y-84270424D01*
X80504846Y-84425544D01*
X80504850Y-84425549D01*
X80634395Y-84555094D01*
X80634399Y-84555097D01*
X80685491Y-84587200D01*
X80737952Y-84643738D01*
X80755115Y-84718932D01*
X80732381Y-84792634D01*
X80675843Y-84845095D01*
X80673867Y-84846120D01*
X80644788Y-84860937D01*
X80644774Y-84860946D01*
X80495713Y-84981652D01*
X80495708Y-84981657D01*
X80375002Y-85130718D01*
X80374996Y-85130726D01*
X80287916Y-85301632D01*
X80287914Y-85301635D01*
X80238270Y-85486908D01*
X80238269Y-85486912D01*
X80232000Y-85566585D01*
X80232000Y-85792944D01*
X83731999Y-85792944D01*
X83731999Y-85566590D01*
X83731998Y-85566582D01*
X83725730Y-85486914D01*
X83725729Y-85486909D01*
X83676085Y-85301635D01*
X83676083Y-85301632D01*
X83589003Y-85130726D01*
X83588997Y-85130718D01*
X83468291Y-84981657D01*
X83468286Y-84981652D01*
X83319225Y-84860946D01*
X83319216Y-84860940D01*
X83290133Y-84846121D01*
X83232817Y-84794511D01*
X83208984Y-84721158D01*
X83225021Y-84645715D01*
X83276631Y-84588399D01*
X83278419Y-84587256D01*
X83329604Y-84555095D01*
X83459151Y-84425548D01*
X83556622Y-84270423D01*
X83580132Y-84203233D01*
X83623580Y-84139507D01*
X83693070Y-84106043D01*
X83720771Y-84103445D01*
X83879052Y-84103445D01*
X83879057Y-84103445D01*
X84031785Y-84062521D01*
X84093634Y-84026812D01*
X84168716Y-83983464D01*
X84280520Y-83871660D01*
X84280520Y-83871659D01*
X84292787Y-83859393D01*
X84292791Y-83859387D01*
X84395142Y-83757037D01*
X84461937Y-83718473D01*
X84539065Y-83718473D01*
X84605859Y-83757038D01*
X84644423Y-83823833D01*
X84649500Y-83862396D01*
X84649500Y-87617491D01*
X84629538Y-87691991D01*
X84605859Y-87722850D01*
X84389906Y-87938803D01*
X84323111Y-87977367D01*
X84284547Y-87982444D01*
X83720771Y-87982444D01*
X83646271Y-87962482D01*
X83591733Y-87907944D01*
X83580134Y-87882660D01*
X83556622Y-87815465D01*
X83459151Y-87660340D01*
X83329604Y-87530793D01*
X83278506Y-87498686D01*
X83226047Y-87442148D01*
X83208884Y-87366954D01*
X83231618Y-87293252D01*
X83288157Y-87240792D01*
X83290136Y-87239765D01*
X83319213Y-87224949D01*
X83319225Y-87224941D01*
X83468286Y-87104235D01*
X83468291Y-87104230D01*
X83588997Y-86955169D01*
X83589003Y-86955161D01*
X83676083Y-86784255D01*
X83676085Y-86784252D01*
X83725729Y-86598979D01*
X83725730Y-86598975D01*
X83731999Y-86519302D01*
X83732000Y-86519299D01*
X83732000Y-86292944D01*
X80232001Y-86292944D01*
X80232001Y-86519305D01*
X80238269Y-86598973D01*
X80238270Y-86598978D01*
X80287914Y-86784252D01*
X80287916Y-86784255D01*
X80374996Y-86955161D01*
X80375002Y-86955169D01*
X80495708Y-87104230D01*
X80495713Y-87104235D01*
X80644774Y-87224941D01*
X80644783Y-87224947D01*
X80673864Y-87239765D01*
X80731181Y-87291374D01*
X80755015Y-87364728D01*
X80738979Y-87440170D01*
X80687370Y-87497487D01*
X80685492Y-87498686D01*
X80634402Y-87530788D01*
X80634395Y-87530794D01*
X80504846Y-87660343D01*
X80407378Y-87815464D01*
X80346869Y-87988390D01*
X80331500Y-88124791D01*
X80331500Y-89041095D01*
X80346868Y-89177496D01*
X80407378Y-89350424D01*
X80504131Y-89504406D01*
X80504849Y-89505548D01*
X80634396Y-89635095D01*
X80713034Y-89684506D01*
X80780316Y-89726782D01*
X80832776Y-89783321D01*
X80849939Y-89858515D01*
X80827205Y-89932217D01*
X80780316Y-89979106D01*
X80634395Y-90070793D01*
X80634395Y-90070794D01*
X80504846Y-90200343D01*
X80407378Y-90355464D01*
X80346869Y-90528390D01*
X80331500Y-90664791D01*
X80331500Y-91581095D01*
X80346868Y-91717496D01*
X80407378Y-91890424D01*
X80462064Y-91977456D01*
X80504849Y-92045548D01*
X80634396Y-92175095D01*
X80768154Y-92259140D01*
X80780316Y-92266782D01*
X80832776Y-92323321D01*
X80849939Y-92398515D01*
X80827205Y-92472217D01*
X80780316Y-92519106D01*
X80634395Y-92610793D01*
X80634395Y-92610794D01*
X80504846Y-92740343D01*
X80407378Y-92895464D01*
X80346869Y-93068390D01*
X80331500Y-93204791D01*
X80331500Y-94121095D01*
X80346868Y-94257496D01*
X80407378Y-94430424D01*
X80504846Y-94585544D01*
X80504849Y-94585548D01*
X80634396Y-94715095D01*
X80780316Y-94806782D01*
X80832776Y-94863321D01*
X80849939Y-94938515D01*
X80827205Y-95012217D01*
X80780316Y-95059106D01*
X80634395Y-95150793D01*
X80634395Y-95150794D01*
X80504846Y-95280343D01*
X80407378Y-95435464D01*
X80346869Y-95608390D01*
X80331500Y-95744791D01*
X80331500Y-96661095D01*
X80346868Y-96797496D01*
X80407378Y-96970424D01*
X80504846Y-97125544D01*
X80504850Y-97125549D01*
X80634395Y-97255094D01*
X80634399Y-97255097D01*
X80685491Y-97287200D01*
X80737952Y-97343738D01*
X80755115Y-97418932D01*
X80732381Y-97492634D01*
X80675843Y-97545095D01*
X80673867Y-97546120D01*
X80644788Y-97560937D01*
X80644774Y-97560946D01*
X80495713Y-97681652D01*
X80495708Y-97681657D01*
X80375002Y-97830718D01*
X80374996Y-97830726D01*
X80287916Y-98001632D01*
X80287914Y-98001635D01*
X80238270Y-98186908D01*
X80238269Y-98186912D01*
X80232000Y-98266585D01*
X80232000Y-98492944D01*
X83731999Y-98492944D01*
X83731999Y-98266590D01*
X83731998Y-98266582D01*
X83725730Y-98186914D01*
X83725729Y-98186909D01*
X83676085Y-98001635D01*
X83676083Y-98001632D01*
X83589003Y-97830726D01*
X83588997Y-97830718D01*
X83468291Y-97681657D01*
X83468286Y-97681652D01*
X83319225Y-97560946D01*
X83319216Y-97560940D01*
X83290133Y-97546121D01*
X83232817Y-97494511D01*
X83208984Y-97421158D01*
X83225021Y-97345715D01*
X83276631Y-97288399D01*
X83278419Y-97287256D01*
X83329604Y-97255095D01*
X83459151Y-97125548D01*
X83556622Y-96970423D01*
X83617131Y-96797498D01*
X83632500Y-96661097D01*
X83632499Y-96181395D01*
X83652461Y-96106896D01*
X83676136Y-96076041D01*
X87406448Y-92345730D01*
X87406453Y-92345726D01*
X87418714Y-92333464D01*
X87418716Y-92333464D01*
X87530520Y-92221660D01*
X87585644Y-92126182D01*
X87592638Y-92114069D01*
X87609576Y-92084731D01*
X87620075Y-92045549D01*
X87650501Y-91932001D01*
X87650501Y-91773887D01*
X87650501Y-91764759D01*
X87650500Y-91764741D01*
X87650500Y-86513397D01*
X87670462Y-86438897D01*
X87694141Y-86408038D01*
X88155094Y-85947085D01*
X88221889Y-85908521D01*
X88260453Y-85903444D01*
X88731966Y-85903444D01*
X88806466Y-85923406D01*
X88861004Y-85977944D01*
X88880966Y-86052444D01*
X88867007Y-86115410D01*
X88773261Y-86316448D01*
X88773260Y-86316451D01*
X88714365Y-86536250D01*
X88694532Y-86762944D01*
X88714365Y-86989637D01*
X88746220Y-87108521D01*
X88773261Y-87209440D01*
X88869432Y-87415678D01*
X88869435Y-87415682D01*
X88869437Y-87415685D01*
X88999951Y-87602081D01*
X88999953Y-87602083D01*
X89160861Y-87762991D01*
X89347266Y-87893512D01*
X89533030Y-87980135D01*
X89592111Y-88029712D01*
X89618490Y-88102188D01*
X89605097Y-88178145D01*
X89555519Y-88237228D01*
X89523882Y-88254112D01*
X89485210Y-88269093D01*
X89485206Y-88269095D01*
X89382992Y-88332383D01*
X89870590Y-88819981D01*
X89807007Y-88837019D01*
X89692993Y-88902845D01*
X89599901Y-88995937D01*
X89534075Y-89109951D01*
X89517037Y-89173534D01*
X89026835Y-88683332D01*
X89018062Y-88694950D01*
X88923062Y-88885739D01*
X88864737Y-89090731D01*
X88845073Y-89302939D01*
X88845073Y-89302948D01*
X88864737Y-89515156D01*
X88923062Y-89720148D01*
X89018062Y-89910936D01*
X89026836Y-89922553D01*
X89517037Y-89432351D01*
X89534075Y-89495937D01*
X89599901Y-89609951D01*
X89692993Y-89703043D01*
X89807007Y-89768869D01*
X89870590Y-89785906D01*
X89382992Y-90273504D01*
X89485203Y-90336791D01*
X89485208Y-90336794D01*
X89683934Y-90413780D01*
X89893432Y-90452943D01*
X89893440Y-90452944D01*
X90106560Y-90452944D01*
X90106567Y-90452943D01*
X90316065Y-90413780D01*
X90514789Y-90336794D01*
X90617006Y-90273503D01*
X90546447Y-90202944D01*
X91594355Y-90202944D01*
X91614860Y-90371818D01*
X91675181Y-90530873D01*
X91685949Y-90546473D01*
X91771817Y-90670873D01*
X91771819Y-90670874D01*
X91771820Y-90670876D01*
X91899146Y-90783676D01*
X91899148Y-90783678D01*
X92049775Y-90862734D01*
X92214944Y-90903444D01*
X92385056Y-90903444D01*
X92550225Y-90862734D01*
X92700852Y-90783678D01*
X92828183Y-90670873D01*
X92924818Y-90530874D01*
X92985140Y-90371816D01*
X93005645Y-90202944D01*
X92985140Y-90034072D01*
X92959699Y-89966990D01*
X92924818Y-89875014D01*
X92913429Y-89858515D01*
X92828183Y-89735015D01*
X92828180Y-89735012D01*
X92828179Y-89735011D01*
X92700853Y-89622211D01*
X92700854Y-89622211D01*
X92550224Y-89543153D01*
X92385056Y-89502444D01*
X92214944Y-89502444D01*
X92049775Y-89543153D01*
X91899145Y-89622211D01*
X91771820Y-89735011D01*
X91771817Y-89735015D01*
X91675181Y-89875014D01*
X91614860Y-90034069D01*
X91594355Y-90202944D01*
X90546447Y-90202944D01*
X90129409Y-89785906D01*
X90192993Y-89768869D01*
X90307007Y-89703043D01*
X90400099Y-89609951D01*
X90465925Y-89495937D01*
X90482962Y-89432353D01*
X90973162Y-89922553D01*
X90981936Y-89910938D01*
X90981940Y-89910931D01*
X91076936Y-89720153D01*
X91135262Y-89515156D01*
X91154927Y-89302948D01*
X91154927Y-89302939D01*
X91135262Y-89090731D01*
X91076937Y-88885739D01*
X90981935Y-88694946D01*
X90973164Y-88683333D01*
X90973162Y-88683333D01*
X90482962Y-89173533D01*
X90465925Y-89109951D01*
X90400099Y-88995937D01*
X90307007Y-88902845D01*
X90192993Y-88837019D01*
X90129407Y-88819981D01*
X90617006Y-88332382D01*
X90617007Y-88332382D01*
X90514796Y-88269096D01*
X90514797Y-88269096D01*
X90476116Y-88254111D01*
X90413859Y-88208583D01*
X90382706Y-88138026D01*
X90391005Y-88061346D01*
X90436533Y-87999089D01*
X90466964Y-87980138D01*
X90652734Y-87893512D01*
X90839139Y-87762991D01*
X91000047Y-87602083D01*
X91130568Y-87415678D01*
X91226739Y-87209440D01*
X91285635Y-86989636D01*
X91305468Y-86762944D01*
X91285635Y-86536252D01*
X91228816Y-86324199D01*
X91228816Y-86247072D01*
X91267380Y-86180277D01*
X91334175Y-86141713D01*
X91411303Y-86141713D01*
X91478097Y-86180276D01*
X92381284Y-87083464D01*
X92518216Y-87162521D01*
X92670943Y-87203445D01*
X92670948Y-87203445D01*
X92838187Y-87203445D01*
X92838203Y-87203444D01*
X93797977Y-87203444D01*
X93872477Y-87223406D01*
X93927015Y-87277944D01*
X93946977Y-87352444D01*
X93933018Y-87415408D01*
X93853261Y-87586448D01*
X93853260Y-87586451D01*
X93794365Y-87806250D01*
X93774532Y-88032944D01*
X93794365Y-88259637D01*
X93813857Y-88332382D01*
X93853261Y-88479440D01*
X93949432Y-88685678D01*
X93955924Y-88694950D01*
X94079951Y-88872081D01*
X94240862Y-89032992D01*
X94320899Y-89089034D01*
X94427266Y-89163512D01*
X94633504Y-89259683D01*
X94853307Y-89318578D01*
X94853307Y-89318579D01*
X94869847Y-89320026D01*
X94933426Y-89325588D01*
X95005902Y-89351967D01*
X95055480Y-89411050D01*
X95068873Y-89487006D01*
X95042494Y-89559483D01*
X95025799Y-89579380D01*
X83862483Y-100742696D01*
X83795688Y-100781260D01*
X83718560Y-100781260D01*
X83651765Y-100742696D01*
X83616488Y-100686553D01*
X83556622Y-100515465D01*
X83554220Y-100511643D01*
X83459153Y-100360343D01*
X83459150Y-100360339D01*
X83329604Y-100230793D01*
X83278507Y-100198687D01*
X83226047Y-100142148D01*
X83208884Y-100066954D01*
X83231618Y-99993252D01*
X83288157Y-99940792D01*
X83290136Y-99939765D01*
X83319213Y-99924949D01*
X83319225Y-99924941D01*
X83468286Y-99804235D01*
X83468291Y-99804230D01*
X83588997Y-99655169D01*
X83589003Y-99655161D01*
X83676083Y-99484255D01*
X83676085Y-99484252D01*
X83725729Y-99298979D01*
X83725730Y-99298975D01*
X83731999Y-99219302D01*
X83732000Y-99219299D01*
X83732000Y-98992944D01*
X80232001Y-98992944D01*
X80232001Y-99219305D01*
X80238269Y-99298973D01*
X80238270Y-99298978D01*
X80287914Y-99484252D01*
X80287916Y-99484255D01*
X80374996Y-99655161D01*
X80375002Y-99655169D01*
X80495708Y-99804230D01*
X80495713Y-99804235D01*
X80644774Y-99924941D01*
X80644783Y-99924947D01*
X80673864Y-99939765D01*
X80731181Y-99991374D01*
X80755015Y-100064728D01*
X80738979Y-100140170D01*
X80687370Y-100197487D01*
X80685492Y-100198686D01*
X80634402Y-100230788D01*
X80634395Y-100230794D01*
X80504846Y-100360343D01*
X80407378Y-100515464D01*
X80346869Y-100688390D01*
X80331500Y-100824791D01*
X80331500Y-101741095D01*
X80346868Y-101877496D01*
X80407378Y-102050424D01*
X80504846Y-102205544D01*
X80504849Y-102205548D01*
X80634396Y-102335095D01*
X80780316Y-102426782D01*
X80832776Y-102483321D01*
X80849939Y-102558515D01*
X80827205Y-102632217D01*
X80780316Y-102679106D01*
X80634395Y-102770793D01*
X80634395Y-102770794D01*
X80504846Y-102900343D01*
X80407378Y-103055464D01*
X80346869Y-103228390D01*
X80331500Y-103364791D01*
X80331500Y-104281095D01*
X80346868Y-104417496D01*
X80407378Y-104590424D01*
X80504846Y-104745544D01*
X80504850Y-104745549D01*
X80634395Y-104875094D01*
X80634399Y-104875097D01*
X80671050Y-104898126D01*
X80789521Y-104972566D01*
X80962446Y-105033075D01*
X81098847Y-105048444D01*
X82865152Y-105048443D01*
X83001554Y-105033075D01*
X83174479Y-104972566D01*
X83329604Y-104875095D01*
X83459151Y-104745548D01*
X83556622Y-104590423D01*
X83580133Y-104523231D01*
X83623580Y-104459507D01*
X83693069Y-104426042D01*
X83720771Y-104423444D01*
X83891798Y-104423444D01*
X83891814Y-104423445D01*
X83900943Y-104423445D01*
X84059052Y-104423445D01*
X84059057Y-104423445D01*
X84211785Y-104382521D01*
X84268940Y-104349522D01*
X84348716Y-104303464D01*
X84460520Y-104191660D01*
X84480520Y-104171660D01*
X84548030Y-104054728D01*
X84559577Y-104034729D01*
X84600500Y-103882002D01*
X84600500Y-103723887D01*
X84600500Y-102164463D01*
X84620462Y-102089963D01*
X84675000Y-102035425D01*
X84749500Y-102015463D01*
X84811835Y-102030828D01*
X84812056Y-102030248D01*
X84816841Y-102032062D01*
X84818747Y-102032532D01*
X84820486Y-102033445D01*
X84985655Y-102074155D01*
X85155767Y-102074155D01*
X85320936Y-102033445D01*
X85471563Y-101954389D01*
X85598894Y-101841584D01*
X85695529Y-101701585D01*
X85755851Y-101542527D01*
X85769858Y-101427160D01*
X85798655Y-101355612D01*
X85812406Y-101339771D01*
X87745643Y-99406535D01*
X87812436Y-99367973D01*
X87889564Y-99367973D01*
X87956359Y-99406537D01*
X87994923Y-99473332D01*
X88000000Y-99511896D01*
X88000000Y-107153944D01*
X87980038Y-107228444D01*
X87925500Y-107282982D01*
X87851000Y-107302944D01*
X79649000Y-107302944D01*
X79574500Y-107282982D01*
X79519962Y-107228444D01*
X79500000Y-107153944D01*
X79500000Y-87302944D01*
X63500000Y-87302944D01*
X63500000Y-107153944D01*
X63480038Y-107228444D01*
X63425500Y-107282982D01*
X63351000Y-107302944D01*
X46500000Y-107302944D01*
X45500000Y-107302944D01*
X36584654Y-107302944D01*
X36583611Y-107302940D01*
X36579394Y-107302910D01*
X36420014Y-107301793D01*
X36411662Y-107301500D01*
X36251657Y-107291389D01*
X36244372Y-107290749D01*
X36168529Y-107282204D01*
X36160253Y-107281036D01*
X35841208Y-107226829D01*
X35824918Y-107223111D01*
X35517973Y-107134683D01*
X35502206Y-107129165D01*
X35207104Y-107006931D01*
X35192052Y-106999683D01*
X34912470Y-106845166D01*
X34898322Y-106836276D01*
X34637818Y-106651441D01*
X34624754Y-106641023D01*
X34476145Y-106508220D01*
X34386557Y-106428160D01*
X34374751Y-106416354D01*
X34227980Y-106252119D01*
X34161907Y-106178184D01*
X34151489Y-106165121D01*
X33966645Y-105904612D01*
X33957755Y-105890464D01*
X33803241Y-105610898D01*
X33795991Y-105595844D01*
X33673744Y-105300721D01*
X33668226Y-105284950D01*
X33595659Y-105033075D01*
X33579798Y-104978022D01*
X33576081Y-104961735D01*
X33521871Y-104642706D01*
X33520702Y-104634431D01*
X33515743Y-104590424D01*
X33512153Y-104558576D01*
X33511514Y-104551284D01*
X33501422Y-104391286D01*
X33501130Y-104382932D01*
X33500004Y-104219344D01*
X33500000Y-104218318D01*
X33500000Y-102202944D01*
X35044355Y-102202944D01*
X35064860Y-102371816D01*
X35080337Y-102412627D01*
X35089818Y-102437625D01*
X35099500Y-102490460D01*
X35099500Y-103717016D01*
X35117643Y-103808221D01*
X35124498Y-103842686D01*
X35124499Y-103842688D01*
X35140785Y-103882005D01*
X35173532Y-103961065D01*
X35173533Y-103961067D01*
X35173535Y-103961071D01*
X35244723Y-104067613D01*
X37685331Y-106508221D01*
X37791873Y-106579409D01*
X37910256Y-106628445D01*
X38035931Y-106653444D01*
X38035935Y-106653444D01*
X58784065Y-106653444D01*
X58784069Y-106653444D01*
X58909744Y-106628445D01*
X59028127Y-106579409D01*
X59134669Y-106508221D01*
X60550805Y-105092083D01*
X60617600Y-105053520D01*
X60656164Y-105048443D01*
X61783152Y-105048443D01*
X61919554Y-105033075D01*
X62092479Y-104972566D01*
X62247604Y-104875095D01*
X62377151Y-104745548D01*
X62474622Y-104590423D01*
X62535131Y-104417498D01*
X62550500Y-104281097D01*
X62550499Y-103364792D01*
X62535131Y-103228390D01*
X62474622Y-103055465D01*
X62377151Y-102900340D01*
X62247604Y-102770793D01*
X62247602Y-102770792D01*
X62247600Y-102770790D01*
X62101684Y-102679106D01*
X62049223Y-102622568D01*
X62032060Y-102547373D01*
X62054794Y-102473672D01*
X62101684Y-102426782D01*
X62247604Y-102335095D01*
X62377151Y-102205548D01*
X62474622Y-102050423D01*
X62535131Y-101877498D01*
X62550500Y-101741097D01*
X62550499Y-100824792D01*
X62535131Y-100688390D01*
X62474622Y-100515465D01*
X62472220Y-100511643D01*
X62377153Y-100360343D01*
X62377150Y-100360339D01*
X62247604Y-100230793D01*
X62196507Y-100198687D01*
X62144047Y-100142148D01*
X62126884Y-100066954D01*
X62149618Y-99993252D01*
X62206157Y-99940792D01*
X62208136Y-99939765D01*
X62237213Y-99924949D01*
X62237225Y-99924941D01*
X62386286Y-99804235D01*
X62386291Y-99804230D01*
X62506997Y-99655169D01*
X62507003Y-99655161D01*
X62594083Y-99484255D01*
X62594085Y-99484252D01*
X62643729Y-99298979D01*
X62643730Y-99298975D01*
X62649999Y-99219302D01*
X62650000Y-99219299D01*
X62650000Y-98992944D01*
X59150001Y-98992944D01*
X59150001Y-99219305D01*
X59156269Y-99298973D01*
X59156270Y-99298978D01*
X59205914Y-99484252D01*
X59205916Y-99484255D01*
X59292996Y-99655161D01*
X59293002Y-99655169D01*
X59413708Y-99804230D01*
X59413713Y-99804235D01*
X59562774Y-99924941D01*
X59562783Y-99924947D01*
X59591864Y-99939765D01*
X59649181Y-99991374D01*
X59673015Y-100064728D01*
X59656979Y-100140170D01*
X59605370Y-100197487D01*
X59603492Y-100198686D01*
X59552402Y-100230788D01*
X59552395Y-100230794D01*
X59422846Y-100360343D01*
X59325378Y-100515464D01*
X59264869Y-100688390D01*
X59249500Y-100824791D01*
X59249500Y-101741095D01*
X59264868Y-101877496D01*
X59325378Y-102050424D01*
X59422846Y-102205544D01*
X59422849Y-102205548D01*
X59552396Y-102335095D01*
X59698316Y-102426782D01*
X59750776Y-102483321D01*
X59767939Y-102558515D01*
X59745205Y-102632217D01*
X59698316Y-102679106D01*
X59552395Y-102770793D01*
X59552395Y-102770794D01*
X59422846Y-102900343D01*
X59325378Y-103055464D01*
X59264869Y-103228390D01*
X59249500Y-103364791D01*
X59249500Y-104281095D01*
X59264868Y-104417493D01*
X59264870Y-104417501D01*
X59265218Y-104418495D01*
X59265276Y-104419282D01*
X59266732Y-104425658D01*
X59265770Y-104425877D01*
X59270978Y-104495408D01*
X59237511Y-104564896D01*
X59229936Y-104573060D01*
X58494195Y-105308803D01*
X58427400Y-105347367D01*
X58388836Y-105352444D01*
X38431164Y-105352444D01*
X38356664Y-105332482D01*
X38325805Y-105308803D01*
X36444141Y-103427139D01*
X36405577Y-103360344D01*
X36400500Y-103321780D01*
X36400500Y-102490460D01*
X36410182Y-102437625D01*
X36414294Y-102426782D01*
X36435140Y-102371816D01*
X36455645Y-102202944D01*
X36435140Y-102034072D01*
X36431608Y-102024760D01*
X36374818Y-101875014D01*
X36361832Y-101856201D01*
X36278183Y-101735015D01*
X36278180Y-101735012D01*
X36278179Y-101735011D01*
X36150853Y-101622211D01*
X36150854Y-101622211D01*
X36000224Y-101543153D01*
X35835056Y-101502444D01*
X35664944Y-101502444D01*
X35499775Y-101543153D01*
X35349145Y-101622211D01*
X35221820Y-101735011D01*
X35221817Y-101735015D01*
X35125181Y-101875014D01*
X35064860Y-102034069D01*
X35049027Y-102164463D01*
X35044355Y-102202944D01*
X33500000Y-102202944D01*
X33500000Y-101202944D01*
X39600000Y-101202944D01*
X47600000Y-101202944D01*
X47600000Y-93202944D01*
X39600000Y-93202944D01*
X39600000Y-101202944D01*
X33500000Y-101202944D01*
X33500000Y-84202942D01*
X35645305Y-84202942D01*
X35645305Y-84202945D01*
X35664053Y-84429206D01*
X35719790Y-84649309D01*
X35810992Y-84857228D01*
X35890486Y-84978902D01*
X36459469Y-84409918D01*
X36465548Y-84432605D01*
X36543882Y-84568282D01*
X36654662Y-84679062D01*
X36790339Y-84757396D01*
X36813022Y-84763474D01*
X36242578Y-85333919D01*
X36268112Y-85353792D01*
X36268115Y-85353794D01*
X36349757Y-85397976D01*
X36405778Y-85450990D01*
X36427785Y-85524912D01*
X36409884Y-85599933D01*
X36364306Y-85651071D01*
X36200218Y-85765967D01*
X36043024Y-85923161D01*
X35915513Y-86105266D01*
X35915512Y-86105267D01*
X35821560Y-86306747D01*
X35764021Y-86521481D01*
X35744647Y-86742943D01*
X35744647Y-86742944D01*
X35764021Y-86964406D01*
X35821560Y-87179140D01*
X35915509Y-87380615D01*
X35915516Y-87380628D01*
X36043021Y-87562723D01*
X36200220Y-87719922D01*
X36382315Y-87847427D01*
X36382320Y-87847430D01*
X36382323Y-87847432D01*
X36382325Y-87847433D01*
X36382332Y-87847437D01*
X36447670Y-87877904D01*
X36506754Y-87927480D01*
X36533134Y-87999957D01*
X36519741Y-88075913D01*
X36470165Y-88134997D01*
X36447672Y-88147983D01*
X36382329Y-88178453D01*
X36382322Y-88178457D01*
X36200217Y-88305968D01*
X36043024Y-88463161D01*
X35915513Y-88645266D01*
X35915512Y-88645267D01*
X35821560Y-88846747D01*
X35764021Y-89061481D01*
X35744647Y-89282943D01*
X35744647Y-89282944D01*
X35764021Y-89504406D01*
X35821560Y-89719140D01*
X35915509Y-89920615D01*
X35915516Y-89920628D01*
X36043021Y-90102723D01*
X36200220Y-90259922D01*
X36382315Y-90387427D01*
X36382320Y-90387430D01*
X36382323Y-90387432D01*
X36382325Y-90387433D01*
X36382332Y-90387437D01*
X36447670Y-90417904D01*
X36506754Y-90467480D01*
X36533134Y-90539957D01*
X36519741Y-90615913D01*
X36470165Y-90674997D01*
X36447672Y-90687983D01*
X36382329Y-90718453D01*
X36382322Y-90718457D01*
X36200217Y-90845968D01*
X36043024Y-91003161D01*
X35915513Y-91185266D01*
X35915512Y-91185267D01*
X35821560Y-91386747D01*
X35764021Y-91601481D01*
X35744647Y-91822943D01*
X35744647Y-91822944D01*
X35764021Y-92044406D01*
X35821560Y-92259140D01*
X35915509Y-92460615D01*
X35915516Y-92460628D01*
X36043021Y-92642723D01*
X36200220Y-92799922D01*
X36382315Y-92927427D01*
X36382318Y-92927429D01*
X36382323Y-92927432D01*
X36583804Y-93021384D01*
X36798537Y-93078922D01*
X37020000Y-93098297D01*
X37241463Y-93078922D01*
X37456196Y-93021384D01*
X37657677Y-92927432D01*
X37839781Y-92799921D01*
X37996977Y-92642725D01*
X38124488Y-92460621D01*
X38218440Y-92259140D01*
X38275978Y-92044407D01*
X38295353Y-91822944D01*
X38294840Y-91817085D01*
X38275978Y-91601481D01*
X38270516Y-91581096D01*
X38218440Y-91386748D01*
X38124488Y-91185268D01*
X37996977Y-91003163D01*
X37839781Y-90845967D01*
X37839779Y-90845965D01*
X37657684Y-90718460D01*
X37657667Y-90718450D01*
X37592330Y-90687984D01*
X37533246Y-90638408D01*
X37506866Y-90565931D01*
X37520259Y-90489975D01*
X37569835Y-90430891D01*
X37592330Y-90417904D01*
X37657667Y-90387437D01*
X37657669Y-90387435D01*
X37657677Y-90387432D01*
X37839781Y-90259921D01*
X37996977Y-90102725D01*
X38124488Y-89920621D01*
X38218440Y-89719140D01*
X38275978Y-89504407D01*
X38295353Y-89282944D01*
X38294840Y-89277085D01*
X38275978Y-89061481D01*
X38270516Y-89041096D01*
X38218440Y-88846748D01*
X38124488Y-88645268D01*
X37996977Y-88463163D01*
X37839781Y-88305967D01*
X37839779Y-88305965D01*
X37657684Y-88178460D01*
X37657667Y-88178450D01*
X37592330Y-88147984D01*
X37533246Y-88098408D01*
X37506866Y-88025931D01*
X37520259Y-87949975D01*
X37569835Y-87890891D01*
X37592330Y-87877904D01*
X37657667Y-87847437D01*
X37657669Y-87847435D01*
X37657677Y-87847432D01*
X37839781Y-87719921D01*
X37996977Y-87562725D01*
X38124488Y-87380621D01*
X38218440Y-87179140D01*
X38275978Y-86964407D01*
X38295353Y-86742944D01*
X38289130Y-86671818D01*
X38275978Y-86521481D01*
X38269427Y-86497033D01*
X38218440Y-86306748D01*
X38124488Y-86105268D01*
X37996977Y-85923163D01*
X37839781Y-85765967D01*
X37785479Y-85727944D01*
X37675694Y-85651071D01*
X37626118Y-85591987D01*
X37612725Y-85516031D01*
X37639105Y-85443554D01*
X37690243Y-85397976D01*
X37771884Y-85353795D01*
X37797421Y-85333918D01*
X37226977Y-84763474D01*
X37249661Y-84757396D01*
X37385338Y-84679062D01*
X37496118Y-84568282D01*
X37574452Y-84432605D01*
X37580530Y-84409920D01*
X38149513Y-84978902D01*
X38229008Y-84857224D01*
X38229010Y-84857221D01*
X38320209Y-84649309D01*
X38375946Y-84429206D01*
X38394695Y-84202945D01*
X38394695Y-84202942D01*
X38375946Y-83976681D01*
X38320209Y-83756578D01*
X38229007Y-83548659D01*
X38149513Y-83426983D01*
X37580529Y-83995966D01*
X37574452Y-83973283D01*
X37496118Y-83837606D01*
X37385338Y-83726826D01*
X37249661Y-83648492D01*
X37226974Y-83642413D01*
X37797420Y-83071968D01*
X37797420Y-83071967D01*
X37771889Y-83052096D01*
X37572207Y-82944034D01*
X37357473Y-82870315D01*
X37133518Y-82832944D01*
X36906481Y-82832944D01*
X36682526Y-82870315D01*
X36467792Y-82944034D01*
X36268110Y-83052096D01*
X36242578Y-83071967D01*
X36242578Y-83071968D01*
X36813023Y-83642413D01*
X36790339Y-83648492D01*
X36654662Y-83726826D01*
X36543882Y-83837606D01*
X36465548Y-83973283D01*
X36459469Y-83995967D01*
X35890486Y-83426984D01*
X35890485Y-83426984D01*
X35810992Y-83548659D01*
X35719790Y-83756578D01*
X35664053Y-83976681D01*
X35645305Y-84202942D01*
X33500000Y-84202942D01*
X33500000Y-75618871D01*
X34649500Y-75618871D01*
X34649500Y-77567016D01*
X34672149Y-77680874D01*
X34674498Y-77692686D01*
X34723532Y-77811065D01*
X34723533Y-77811067D01*
X34723535Y-77811071D01*
X34794723Y-77917613D01*
X35685331Y-78808221D01*
X35790191Y-78878285D01*
X35791873Y-78879409D01*
X35910256Y-78928445D01*
X36035931Y-78953444D01*
X36035935Y-78953444D01*
X37764065Y-78953444D01*
X37764069Y-78953444D01*
X37889744Y-78928445D01*
X38008127Y-78879409D01*
X38009809Y-78878285D01*
X38114669Y-78808221D01*
X40005276Y-76917614D01*
X40076465Y-76811071D01*
X40125501Y-76692688D01*
X40136297Y-76638412D01*
X40150500Y-76567013D01*
X40150500Y-74634107D01*
X40170462Y-74559607D01*
X40194137Y-74528752D01*
X47219944Y-67502944D01*
X47500000Y-67502944D01*
X47500000Y-67222888D01*
X47645141Y-67077747D01*
X47711936Y-67039184D01*
X47789064Y-67039184D01*
X47855859Y-67077748D01*
X47894423Y-67144543D01*
X47899500Y-67183107D01*
X47899500Y-67627935D01*
X47905908Y-67668391D01*
X47930784Y-67825459D01*
X47992581Y-68015648D01*
X48003259Y-68036603D01*
X48019500Y-68104250D01*
X48019500Y-75501637D01*
X48003261Y-75569280D01*
X47992584Y-75590234D01*
X47992579Y-75590247D01*
X47930785Y-75780428D01*
X47930784Y-75780428D01*
X47918854Y-75855756D01*
X47899500Y-75977953D01*
X47899500Y-76627935D01*
X47906590Y-76672700D01*
X47930784Y-76825459D01*
X47992581Y-77015648D01*
X48003259Y-77036603D01*
X48019500Y-77104250D01*
X48019500Y-84501637D01*
X48003261Y-84569280D01*
X47992584Y-84590234D01*
X47992579Y-84590247D01*
X47930785Y-84780428D01*
X47930784Y-84780428D01*
X47918033Y-84860940D01*
X47899500Y-84977953D01*
X47899500Y-85627935D01*
X47909184Y-85689076D01*
X47930784Y-85825459D01*
X47992581Y-86015648D01*
X48003259Y-86036603D01*
X48019500Y-86104250D01*
X48019500Y-93501637D01*
X48003261Y-93569280D01*
X47992584Y-93590234D01*
X47992579Y-93590247D01*
X47930785Y-93780428D01*
X47930784Y-93780428D01*
X47916649Y-93869679D01*
X47899500Y-93977953D01*
X47899500Y-94627935D01*
X47909489Y-94691004D01*
X47930784Y-94825459D01*
X47992581Y-95015648D01*
X48003259Y-95036603D01*
X48019500Y-95104250D01*
X48019500Y-102501637D01*
X48003261Y-102569280D01*
X47992584Y-102590234D01*
X47992579Y-102590247D01*
X47930785Y-102780428D01*
X47930784Y-102780428D01*
X47911793Y-102900339D01*
X47899500Y-102977953D01*
X47899500Y-103627935D01*
X47913404Y-103715721D01*
X47930784Y-103825459D01*
X47992581Y-104015649D01*
X48083371Y-104193832D01*
X48083372Y-104193833D01*
X48157489Y-104295846D01*
X48200917Y-104355619D01*
X48342325Y-104497027D01*
X48427040Y-104558576D01*
X48504110Y-104614571D01*
X48504111Y-104614572D01*
X48682294Y-104705362D01*
X48872484Y-104767158D01*
X48872484Y-104767159D01*
X48872489Y-104767159D01*
X48872490Y-104767160D01*
X49070009Y-104798444D01*
X49070013Y-104798444D01*
X49269987Y-104798444D01*
X49269991Y-104798444D01*
X49467510Y-104767160D01*
X49467511Y-104767159D01*
X49467515Y-104767159D01*
X49467515Y-104767158D01*
X49657703Y-104705363D01*
X49835887Y-104614573D01*
X49997675Y-104497027D01*
X50139083Y-104355619D01*
X50256629Y-104193831D01*
X50256639Y-104193809D01*
X50256871Y-104193434D01*
X50257020Y-104193291D01*
X50260070Y-104189095D01*
X50260847Y-104189659D01*
X50312808Y-104140333D01*
X50387802Y-104122315D01*
X50461758Y-104144209D01*
X50514859Y-104200146D01*
X50516686Y-104203619D01*
X50538268Y-104245976D01*
X50538273Y-104245984D01*
X50665020Y-104420435D01*
X50817508Y-104572923D01*
X50991959Y-104699670D01*
X50991962Y-104699671D01*
X51184102Y-104797572D01*
X51389189Y-104864209D01*
X51460000Y-104875424D01*
X51460000Y-103845653D01*
X51480339Y-103857396D01*
X51631667Y-103897944D01*
X51788333Y-103897944D01*
X51939661Y-103857396D01*
X51960000Y-103845653D01*
X51960000Y-104875424D01*
X52030809Y-104864209D01*
X52030811Y-104864209D01*
X52235897Y-104797572D01*
X52428037Y-104699671D01*
X52428040Y-104699670D01*
X52602491Y-104572923D01*
X52754979Y-104420435D01*
X52881726Y-104245984D01*
X52881730Y-104245977D01*
X52903310Y-104203623D01*
X52954917Y-104146305D01*
X53028270Y-104122469D01*
X53103713Y-104138504D01*
X53159914Y-104189106D01*
X53159930Y-104189095D01*
X53159981Y-104189166D01*
X53161031Y-104190111D01*
X53163107Y-104193400D01*
X53163372Y-104193833D01*
X53237489Y-104295846D01*
X53280917Y-104355619D01*
X53422325Y-104497027D01*
X53507040Y-104558576D01*
X53584110Y-104614571D01*
X53584111Y-104614572D01*
X53762294Y-104705362D01*
X53952484Y-104767158D01*
X53952484Y-104767159D01*
X53952489Y-104767159D01*
X53952490Y-104767160D01*
X54150009Y-104798444D01*
X54150013Y-104798444D01*
X54349987Y-104798444D01*
X54349991Y-104798444D01*
X54547510Y-104767160D01*
X54547511Y-104767159D01*
X54547515Y-104767159D01*
X54547515Y-104767158D01*
X54737703Y-104705363D01*
X54915887Y-104614573D01*
X55077675Y-104497027D01*
X55219083Y-104355619D01*
X55278800Y-104273424D01*
X55338738Y-104224888D01*
X55414916Y-104212822D01*
X55486921Y-104240462D01*
X55535460Y-104300402D01*
X55542425Y-104319435D01*
X55568255Y-104408341D01*
X55598515Y-104459507D01*
X55651919Y-104549809D01*
X55768135Y-104666025D01*
X55909602Y-104749688D01*
X56067428Y-104795541D01*
X56067427Y-104795541D01*
X56067431Y-104795542D01*
X56104306Y-104798444D01*
X56104313Y-104798444D01*
X57475687Y-104798444D01*
X57475694Y-104798444D01*
X57512569Y-104795542D01*
X57670398Y-104749688D01*
X57811865Y-104666025D01*
X57928081Y-104549809D01*
X58011744Y-104408342D01*
X58057598Y-104250513D01*
X58060500Y-104213638D01*
X58060500Y-102392250D01*
X58057598Y-102355375D01*
X58011744Y-102197546D01*
X57928081Y-102056079D01*
X57811865Y-101939863D01*
X57706411Y-101877498D01*
X57670400Y-101856201D01*
X57670399Y-101856200D01*
X57670398Y-101856200D01*
X57604279Y-101836990D01*
X57512571Y-101810346D01*
X57512572Y-101810346D01*
X57501506Y-101809475D01*
X57475694Y-101807444D01*
X56104306Y-101807444D01*
X56079722Y-101809378D01*
X56067428Y-101810346D01*
X55909599Y-101856201D01*
X55768136Y-101939862D01*
X55768133Y-101939864D01*
X55651920Y-102056077D01*
X55651918Y-102056080D01*
X55568256Y-102197545D01*
X55542425Y-102286453D01*
X55502470Y-102352425D01*
X55434882Y-102389580D01*
X55357770Y-102387964D01*
X55291798Y-102348009D01*
X55278799Y-102332461D01*
X55229930Y-102265199D01*
X55219083Y-102250269D01*
X55077675Y-102108861D01*
X54961919Y-102024759D01*
X54913382Y-101964821D01*
X54900500Y-101904217D01*
X54900500Y-101384107D01*
X54920462Y-101309607D01*
X54944137Y-101278752D01*
X59165128Y-97057760D01*
X59231921Y-97019198D01*
X59309049Y-97019198D01*
X59375844Y-97057762D01*
X59396646Y-97083848D01*
X59422844Y-97125541D01*
X59422850Y-97125549D01*
X59552395Y-97255094D01*
X59552399Y-97255097D01*
X59603491Y-97287200D01*
X59655952Y-97343738D01*
X59673115Y-97418932D01*
X59650381Y-97492634D01*
X59593843Y-97545095D01*
X59591867Y-97546120D01*
X59562788Y-97560937D01*
X59562774Y-97560946D01*
X59413713Y-97681652D01*
X59413708Y-97681657D01*
X59293002Y-97830718D01*
X59292996Y-97830726D01*
X59205916Y-98001632D01*
X59205914Y-98001635D01*
X59156270Y-98186908D01*
X59156269Y-98186912D01*
X59150000Y-98266585D01*
X59150000Y-98492944D01*
X62649999Y-98492944D01*
X62649999Y-98266590D01*
X62649998Y-98266582D01*
X62643730Y-98186914D01*
X62643729Y-98186909D01*
X62594085Y-98001635D01*
X62594083Y-98001632D01*
X62507003Y-97830726D01*
X62506997Y-97830718D01*
X62386291Y-97681657D01*
X62386286Y-97681652D01*
X62237225Y-97560946D01*
X62237216Y-97560940D01*
X62208133Y-97546121D01*
X62150817Y-97494511D01*
X62126984Y-97421158D01*
X62143021Y-97345715D01*
X62194631Y-97288399D01*
X62196419Y-97287256D01*
X62247604Y-97255095D01*
X62377151Y-97125548D01*
X62474622Y-96970423D01*
X62535131Y-96797498D01*
X62550500Y-96661097D01*
X62550499Y-95744792D01*
X62535131Y-95608390D01*
X62474622Y-95435465D01*
X62465174Y-95420429D01*
X62377153Y-95280343D01*
X62377150Y-95280339D01*
X62247605Y-95150794D01*
X62247600Y-95150790D01*
X62101684Y-95059106D01*
X62049223Y-95002568D01*
X62032060Y-94927373D01*
X62054794Y-94853672D01*
X62101684Y-94806782D01*
X62247604Y-94715095D01*
X62377151Y-94585548D01*
X62474622Y-94430423D01*
X62535131Y-94257498D01*
X62550500Y-94121097D01*
X62550499Y-93204792D01*
X62535131Y-93068390D01*
X62474622Y-92895465D01*
X62449950Y-92856200D01*
X62377153Y-92740343D01*
X62377150Y-92740339D01*
X62247605Y-92610794D01*
X62247600Y-92610790D01*
X62101684Y-92519106D01*
X62049223Y-92462568D01*
X62032060Y-92387373D01*
X62054794Y-92313672D01*
X62101684Y-92266782D01*
X62113846Y-92259140D01*
X62247604Y-92175095D01*
X62377151Y-92045548D01*
X62474622Y-91890423D01*
X62535131Y-91717498D01*
X62550500Y-91581097D01*
X62550499Y-90664792D01*
X62535131Y-90528390D01*
X62474622Y-90355465D01*
X62462890Y-90336794D01*
X62377153Y-90200343D01*
X62377150Y-90200339D01*
X62247605Y-90070794D01*
X62247600Y-90070790D01*
X62101684Y-89979106D01*
X62049223Y-89922568D01*
X62032060Y-89847373D01*
X62054794Y-89773672D01*
X62101684Y-89726782D01*
X62113846Y-89719140D01*
X62247604Y-89635095D01*
X62377151Y-89505548D01*
X62474622Y-89350423D01*
X62535131Y-89177498D01*
X62550500Y-89041097D01*
X62550499Y-88124792D01*
X62535131Y-87988390D01*
X62474622Y-87815465D01*
X62468832Y-87806251D01*
X62377153Y-87660343D01*
X62377150Y-87660339D01*
X62247604Y-87530793D01*
X62196507Y-87498687D01*
X62144047Y-87442148D01*
X62126884Y-87366954D01*
X62149618Y-87293252D01*
X62206157Y-87240792D01*
X62208136Y-87239765D01*
X62237213Y-87224949D01*
X62237225Y-87224941D01*
X62386286Y-87104235D01*
X62386291Y-87104230D01*
X62506997Y-86955169D01*
X62507003Y-86955161D01*
X62594083Y-86784255D01*
X62594085Y-86784252D01*
X62643729Y-86598979D01*
X62643730Y-86598975D01*
X62649999Y-86519302D01*
X62650000Y-86519299D01*
X62650000Y-86292944D01*
X59150001Y-86292944D01*
X59150001Y-86519305D01*
X59156269Y-86598973D01*
X59156270Y-86598978D01*
X59205914Y-86784252D01*
X59205916Y-86784255D01*
X59292996Y-86955161D01*
X59293002Y-86955169D01*
X59413708Y-87104230D01*
X59413713Y-87104235D01*
X59562774Y-87224941D01*
X59562783Y-87224947D01*
X59591864Y-87239765D01*
X59649181Y-87291374D01*
X59673015Y-87364728D01*
X59656979Y-87440170D01*
X59605370Y-87497487D01*
X59603492Y-87498686D01*
X59552402Y-87530788D01*
X59552395Y-87530794D01*
X59422850Y-87660339D01*
X59422849Y-87660339D01*
X59325378Y-87815464D01*
X59319363Y-87832655D01*
X59275915Y-87896382D01*
X59206425Y-87929846D01*
X59178724Y-87932444D01*
X58055927Y-87932444D01*
X57930257Y-87957442D01*
X57811878Y-88006476D01*
X57811870Y-88006481D01*
X57705332Y-88077666D01*
X57705330Y-88077667D01*
X56534908Y-89248088D01*
X56498795Y-89274661D01*
X56389145Y-89332211D01*
X56261820Y-89445011D01*
X56261817Y-89445015D01*
X56165181Y-89585014D01*
X56104860Y-89744069D01*
X56084355Y-89912944D01*
X56104860Y-90081818D01*
X56150797Y-90202944D01*
X56165182Y-90240874D01*
X56187705Y-90273504D01*
X56203739Y-90296733D01*
X56229631Y-90369385D01*
X56215728Y-90445250D01*
X56165755Y-90503999D01*
X56138135Y-90519031D01*
X56071884Y-90546473D01*
X56071874Y-90546478D01*
X56071873Y-90546479D01*
X56071870Y-90546480D01*
X56071870Y-90546481D01*
X55965332Y-90617666D01*
X55965330Y-90617667D01*
X53744725Y-92838273D01*
X53744724Y-92838273D01*
X53727751Y-92863676D01*
X53706513Y-92895463D01*
X53703131Y-92900524D01*
X53703127Y-92900530D01*
X53694186Y-92913910D01*
X53637946Y-92963884D01*
X53584125Y-92991307D01*
X53584107Y-92991318D01*
X53422334Y-93108854D01*
X53422323Y-93108863D01*
X53280919Y-93250267D01*
X53280910Y-93250278D01*
X53163373Y-93412054D01*
X53163112Y-93412480D01*
X53162956Y-93412627D01*
X53159930Y-93416793D01*
X53159157Y-93416231D01*
X53107162Y-93465569D01*
X53032164Y-93483571D01*
X52958214Y-93461662D01*
X52905125Y-93405712D01*
X52903312Y-93402267D01*
X52881727Y-93359906D01*
X52881726Y-93359903D01*
X52754979Y-93185452D01*
X52602491Y-93032964D01*
X52428040Y-92906217D01*
X52428037Y-92906216D01*
X52235897Y-92808315D01*
X52030814Y-92741679D01*
X52030809Y-92741678D01*
X51960000Y-92730461D01*
X51960000Y-93760234D01*
X51939661Y-93748492D01*
X51788333Y-93707944D01*
X51631667Y-93707944D01*
X51480339Y-93748492D01*
X51460000Y-93760234D01*
X51460000Y-92730461D01*
X51389190Y-92741678D01*
X51389185Y-92741679D01*
X51184102Y-92808315D01*
X50991962Y-92906216D01*
X50991959Y-92906217D01*
X50817508Y-93032964D01*
X50665020Y-93185452D01*
X50590043Y-93288650D01*
X50530103Y-93337188D01*
X50453924Y-93349253D01*
X50381919Y-93321612D01*
X50333381Y-93261672D01*
X50320500Y-93201069D01*
X50320500Y-86404818D01*
X50340462Y-86330318D01*
X50395000Y-86275780D01*
X50469500Y-86255818D01*
X50544000Y-86275780D01*
X50590043Y-86317238D01*
X50665016Y-86420429D01*
X50665025Y-86420440D01*
X50817508Y-86572923D01*
X50991959Y-86699670D01*
X50991962Y-86699671D01*
X51184102Y-86797572D01*
X51389189Y-86864209D01*
X51460000Y-86875424D01*
X51460000Y-85845653D01*
X51480339Y-85857396D01*
X51631667Y-85897944D01*
X51788333Y-85897944D01*
X51939661Y-85857396D01*
X51960000Y-85845653D01*
X51960000Y-86875424D01*
X52030809Y-86864209D01*
X52030811Y-86864209D01*
X52235897Y-86797572D01*
X52428037Y-86699671D01*
X52428040Y-86699670D01*
X52602491Y-86572923D01*
X52754979Y-86420435D01*
X52881726Y-86245984D01*
X52881730Y-86245977D01*
X52903310Y-86203623D01*
X52954917Y-86146305D01*
X53028270Y-86122469D01*
X53103713Y-86138504D01*
X53159914Y-86189106D01*
X53159930Y-86189095D01*
X53159981Y-86189166D01*
X53161031Y-86190111D01*
X53163107Y-86193400D01*
X53163372Y-86193833D01*
X53235381Y-86292944D01*
X53280917Y-86355619D01*
X53422325Y-86497027D01*
X53526787Y-86572923D01*
X53584110Y-86614571D01*
X53584111Y-86614572D01*
X53762294Y-86705362D01*
X53762296Y-86705362D01*
X53762297Y-86705363D01*
X53939514Y-86762944D01*
X53952484Y-86767158D01*
X53952484Y-86767159D01*
X53952489Y-86767159D01*
X53952490Y-86767160D01*
X54150009Y-86798444D01*
X54150013Y-86798444D01*
X54349987Y-86798444D01*
X54349991Y-86798444D01*
X54547510Y-86767160D01*
X54547511Y-86767159D01*
X54547515Y-86767159D01*
X54547515Y-86767158D01*
X54737703Y-86705363D01*
X54915887Y-86614573D01*
X55077675Y-86497027D01*
X55219083Y-86355619D01*
X55278800Y-86273424D01*
X55338738Y-86224888D01*
X55414916Y-86212822D01*
X55486921Y-86240462D01*
X55535460Y-86300402D01*
X55542425Y-86319435D01*
X55568255Y-86408341D01*
X55586326Y-86438897D01*
X55651919Y-86549809D01*
X55768135Y-86666025D01*
X55909602Y-86749688D01*
X56067428Y-86795541D01*
X56067427Y-86795541D01*
X56067431Y-86795542D01*
X56104306Y-86798444D01*
X56104313Y-86798444D01*
X57475687Y-86798444D01*
X57475694Y-86798444D01*
X57512569Y-86795542D01*
X57670398Y-86749688D01*
X57811865Y-86666025D01*
X57928081Y-86549809D01*
X58011744Y-86408342D01*
X58057598Y-86250513D01*
X58060500Y-86213638D01*
X58060500Y-84392250D01*
X58057598Y-84355375D01*
X58011744Y-84197546D01*
X57928081Y-84056079D01*
X57811865Y-83939863D01*
X57725583Y-83888836D01*
X57670400Y-83856201D01*
X57670399Y-83856200D01*
X57670398Y-83856200D01*
X57604279Y-83836990D01*
X57512571Y-83810346D01*
X57512572Y-83810346D01*
X57501506Y-83809475D01*
X57475694Y-83807444D01*
X56104306Y-83807444D01*
X56079722Y-83809378D01*
X56067428Y-83810346D01*
X55909599Y-83856201D01*
X55768136Y-83939862D01*
X55768133Y-83939864D01*
X55651920Y-84056077D01*
X55651918Y-84056080D01*
X55568256Y-84197545D01*
X55542425Y-84286453D01*
X55502470Y-84352425D01*
X55434882Y-84389580D01*
X55357770Y-84387964D01*
X55291798Y-84348009D01*
X55278799Y-84332461D01*
X55270917Y-84321612D01*
X55219083Y-84250269D01*
X55077675Y-84108861D01*
X54973212Y-84032964D01*
X54915889Y-83991316D01*
X54915888Y-83991315D01*
X54737705Y-83900525D01*
X54547515Y-83838729D01*
X54547515Y-83838728D01*
X54437777Y-83821348D01*
X54349991Y-83807444D01*
X54150009Y-83807444D01*
X54071001Y-83819957D01*
X53952484Y-83838728D01*
X53952484Y-83838729D01*
X53762294Y-83900525D01*
X53584111Y-83991315D01*
X53584110Y-83991316D01*
X53422334Y-84108854D01*
X53422323Y-84108863D01*
X53280919Y-84250267D01*
X53280910Y-84250278D01*
X53163373Y-84412054D01*
X53163112Y-84412480D01*
X53162956Y-84412627D01*
X53159930Y-84416793D01*
X53159157Y-84416231D01*
X53107162Y-84465569D01*
X53032164Y-84483571D01*
X52958214Y-84461662D01*
X52905125Y-84405712D01*
X52903312Y-84402267D01*
X52881727Y-84359906D01*
X52881726Y-84359903D01*
X52754979Y-84185452D01*
X52602491Y-84032964D01*
X52428040Y-83906217D01*
X52428037Y-83906216D01*
X52235897Y-83808315D01*
X52030814Y-83741679D01*
X52030809Y-83741678D01*
X51960000Y-83730461D01*
X51960000Y-84760234D01*
X51939661Y-84748492D01*
X51788333Y-84707944D01*
X51631667Y-84707944D01*
X51480339Y-84748492D01*
X51460000Y-84760234D01*
X51460000Y-83730461D01*
X51389190Y-83741678D01*
X51389185Y-83741679D01*
X51184102Y-83808315D01*
X50991962Y-83906216D01*
X50991959Y-83906217D01*
X50817508Y-84032964D01*
X50665020Y-84185452D01*
X50590043Y-84288650D01*
X50530103Y-84337188D01*
X50453924Y-84349253D01*
X50381919Y-84321612D01*
X50333381Y-84261672D01*
X50320500Y-84201069D01*
X50320500Y-81902944D01*
X55469355Y-81902944D01*
X55489860Y-82071818D01*
X55550181Y-82230873D01*
X55550182Y-82230874D01*
X55646817Y-82370873D01*
X55646819Y-82370874D01*
X55646820Y-82370876D01*
X55673393Y-82394417D01*
X55737029Y-82450794D01*
X55774146Y-82483676D01*
X55774148Y-82483678D01*
X55924775Y-82562734D01*
X56089944Y-82603444D01*
X56260056Y-82603444D01*
X56425225Y-82562734D01*
X56575852Y-82483678D01*
X56703183Y-82370873D01*
X56799818Y-82230874D01*
X56860140Y-82071816D01*
X56880645Y-81902944D01*
X56860140Y-81734072D01*
X56799818Y-81575014D01*
X56703183Y-81435015D01*
X56703180Y-81435012D01*
X56703179Y-81435011D01*
X56575853Y-81322211D01*
X56575854Y-81322211D01*
X56425224Y-81243153D01*
X56260056Y-81202444D01*
X56089944Y-81202444D01*
X55924775Y-81243153D01*
X55774145Y-81322211D01*
X55646820Y-81435011D01*
X55646817Y-81435015D01*
X55550181Y-81575014D01*
X55489860Y-81734069D01*
X55469355Y-81902944D01*
X50320500Y-81902944D01*
X50320500Y-77404818D01*
X50340462Y-77330318D01*
X50395000Y-77275780D01*
X50469500Y-77255818D01*
X50544000Y-77275780D01*
X50590043Y-77317238D01*
X50665016Y-77420429D01*
X50665025Y-77420440D01*
X50817508Y-77572923D01*
X50991959Y-77699670D01*
X50991962Y-77699671D01*
X51184102Y-77797572D01*
X51389189Y-77864209D01*
X51460000Y-77875424D01*
X51460000Y-76845653D01*
X51480339Y-76857396D01*
X51631667Y-76897944D01*
X51788333Y-76897944D01*
X51939661Y-76857396D01*
X51960000Y-76845653D01*
X51960000Y-77875424D01*
X52030809Y-77864209D01*
X52030811Y-77864209D01*
X52235897Y-77797572D01*
X52428037Y-77699671D01*
X52428040Y-77699670D01*
X52602491Y-77572923D01*
X52754979Y-77420435D01*
X52881726Y-77245984D01*
X52881730Y-77245977D01*
X52903310Y-77203623D01*
X52954917Y-77146305D01*
X53028270Y-77122469D01*
X53103713Y-77138504D01*
X53159914Y-77189106D01*
X53159930Y-77189095D01*
X53159981Y-77189166D01*
X53161031Y-77190111D01*
X53163107Y-77193400D01*
X53163372Y-77193833D01*
X53225327Y-77279106D01*
X53280917Y-77355619D01*
X53422325Y-77497027D01*
X53524364Y-77571163D01*
X53584110Y-77614571D01*
X53584111Y-77614572D01*
X53762294Y-77705362D01*
X53952484Y-77767158D01*
X53952484Y-77767159D01*
X53952489Y-77767159D01*
X53952490Y-77767160D01*
X54150009Y-77798444D01*
X54150013Y-77798444D01*
X54349987Y-77798444D01*
X54349991Y-77798444D01*
X54547510Y-77767160D01*
X54547511Y-77767159D01*
X54547515Y-77767159D01*
X54547515Y-77767158D01*
X54737703Y-77705363D01*
X54915887Y-77614573D01*
X55077675Y-77497027D01*
X55219083Y-77355619D01*
X55278800Y-77273424D01*
X55338738Y-77224888D01*
X55414916Y-77212822D01*
X55486921Y-77240462D01*
X55535460Y-77300402D01*
X55542425Y-77319435D01*
X55568255Y-77408341D01*
X55615491Y-77488212D01*
X55651919Y-77549809D01*
X55768135Y-77666025D01*
X55909602Y-77749688D01*
X56067428Y-77795541D01*
X56067427Y-77795541D01*
X56067431Y-77795542D01*
X56104306Y-77798444D01*
X56104313Y-77798444D01*
X57475687Y-77798444D01*
X57475694Y-77798444D01*
X57512569Y-77795542D01*
X57670398Y-77749688D01*
X57811865Y-77666025D01*
X57928081Y-77549809D01*
X58011744Y-77408342D01*
X58057598Y-77250513D01*
X58060500Y-77213638D01*
X58060500Y-76214192D01*
X58080462Y-76139692D01*
X58135000Y-76085154D01*
X58209500Y-76065192D01*
X58284000Y-76085154D01*
X58338538Y-76139692D01*
X58348818Y-76161357D01*
X58375182Y-76230874D01*
X58471817Y-76370873D01*
X58471819Y-76370874D01*
X58471820Y-76370876D01*
X58512384Y-76406812D01*
X58576378Y-76463506D01*
X58599146Y-76483676D01*
X58599148Y-76483678D01*
X58749775Y-76562734D01*
X58914944Y-76603444D01*
X59085054Y-76603444D01*
X59085056Y-76603444D01*
X59163055Y-76584219D01*
X59240162Y-76585771D01*
X59306167Y-76625672D01*
X59324871Y-76649616D01*
X59325377Y-76650422D01*
X59325378Y-76650423D01*
X59422849Y-76805548D01*
X59552396Y-76935095D01*
X59680596Y-77015648D01*
X59698316Y-77026782D01*
X59750776Y-77083321D01*
X59767939Y-77158515D01*
X59745205Y-77232217D01*
X59698316Y-77279106D01*
X59552395Y-77370793D01*
X59552395Y-77370794D01*
X59422846Y-77500343D01*
X59325378Y-77655464D01*
X59264869Y-77828390D01*
X59249500Y-77964791D01*
X59249500Y-78881095D01*
X59264868Y-79017496D01*
X59325378Y-79190424D01*
X59422846Y-79345544D01*
X59422849Y-79345548D01*
X59552396Y-79475095D01*
X59636071Y-79527671D01*
X59698316Y-79566782D01*
X59750776Y-79623321D01*
X59767939Y-79698515D01*
X59745205Y-79772217D01*
X59698316Y-79819106D01*
X59552395Y-79910793D01*
X59552395Y-79910794D01*
X59422846Y-80040343D01*
X59325378Y-80195464D01*
X59264869Y-80368390D01*
X59249500Y-80504791D01*
X59249500Y-81421095D01*
X59264868Y-81557496D01*
X59325378Y-81730424D01*
X59422846Y-81885544D01*
X59422849Y-81885548D01*
X59552396Y-82015095D01*
X59643296Y-82072211D01*
X59698316Y-82106782D01*
X59750776Y-82163321D01*
X59767939Y-82238515D01*
X59745205Y-82312217D01*
X59698316Y-82359106D01*
X59552395Y-82450793D01*
X59552395Y-82450794D01*
X59422846Y-82580343D01*
X59325378Y-82735464D01*
X59264869Y-82908390D01*
X59249500Y-83044791D01*
X59249500Y-83961095D01*
X59264868Y-84097496D01*
X59325378Y-84270424D01*
X59422846Y-84425544D01*
X59422850Y-84425549D01*
X59552395Y-84555094D01*
X59552399Y-84555097D01*
X59603491Y-84587200D01*
X59655952Y-84643738D01*
X59673115Y-84718932D01*
X59650381Y-84792634D01*
X59593843Y-84845095D01*
X59591867Y-84846120D01*
X59562788Y-84860937D01*
X59562774Y-84860946D01*
X59413713Y-84981652D01*
X59413708Y-84981657D01*
X59293002Y-85130718D01*
X59292996Y-85130726D01*
X59205916Y-85301632D01*
X59205914Y-85301635D01*
X59156270Y-85486908D01*
X59156269Y-85486912D01*
X59150000Y-85566585D01*
X59150000Y-85792944D01*
X62649999Y-85792944D01*
X62649999Y-85566590D01*
X62649998Y-85566582D01*
X62643730Y-85486914D01*
X62643729Y-85486909D01*
X62594085Y-85301635D01*
X62594083Y-85301632D01*
X62507003Y-85130726D01*
X62506997Y-85130718D01*
X62386291Y-84981657D01*
X62386286Y-84981652D01*
X62237225Y-84860946D01*
X62237216Y-84860940D01*
X62208133Y-84846121D01*
X62150817Y-84794511D01*
X62126984Y-84721158D01*
X62143021Y-84645715D01*
X62194631Y-84588399D01*
X62196419Y-84587256D01*
X62247604Y-84555095D01*
X62377151Y-84425548D01*
X62474622Y-84270423D01*
X62535131Y-84097498D01*
X62550500Y-83961097D01*
X62550499Y-83044792D01*
X62535131Y-82908390D01*
X62474622Y-82735465D01*
X62384930Y-82592721D01*
X62377153Y-82580343D01*
X62377150Y-82580339D01*
X62247605Y-82450794D01*
X62247600Y-82450790D01*
X62101684Y-82359106D01*
X62049223Y-82302568D01*
X62032060Y-82227373D01*
X62054794Y-82153672D01*
X62101684Y-82106782D01*
X62115525Y-82098085D01*
X62247604Y-82015095D01*
X62377151Y-81885548D01*
X62474622Y-81730423D01*
X62535131Y-81557498D01*
X62550500Y-81421097D01*
X62550499Y-80504792D01*
X62535131Y-80368390D01*
X62474622Y-80195465D01*
X62377151Y-80040340D01*
X62247604Y-79910793D01*
X62247602Y-79910792D01*
X62247600Y-79910790D01*
X62101684Y-79819106D01*
X62049223Y-79762568D01*
X62032060Y-79687373D01*
X62054794Y-79613672D01*
X62101684Y-79566782D01*
X62163929Y-79527671D01*
X62247604Y-79475095D01*
X62377151Y-79345548D01*
X62474622Y-79190423D01*
X62535131Y-79017498D01*
X62550500Y-78881097D01*
X62550499Y-77964792D01*
X62535131Y-77828390D01*
X62474622Y-77655465D01*
X62448927Y-77614572D01*
X62377153Y-77500343D01*
X62377150Y-77500339D01*
X62247605Y-77370794D01*
X62247600Y-77370790D01*
X62101684Y-77279106D01*
X62049223Y-77222568D01*
X62032060Y-77147373D01*
X62054794Y-77073672D01*
X62101684Y-77026782D01*
X62119404Y-77015648D01*
X62247604Y-76935095D01*
X62377151Y-76805548D01*
X62474622Y-76650423D01*
X62535131Y-76477498D01*
X62550500Y-76341097D01*
X62550499Y-75424792D01*
X62535131Y-75288390D01*
X62474622Y-75115465D01*
X62470472Y-75108861D01*
X62377153Y-74960343D01*
X62377150Y-74960339D01*
X62247604Y-74830793D01*
X62247596Y-74830788D01*
X62196506Y-74798686D01*
X62144047Y-74742148D01*
X62126884Y-74666954D01*
X62149618Y-74593252D01*
X62206157Y-74540792D01*
X62208136Y-74539765D01*
X62237213Y-74524949D01*
X62237225Y-74524941D01*
X62386286Y-74404235D01*
X62386291Y-74404230D01*
X62506997Y-74255169D01*
X62507003Y-74255161D01*
X62594083Y-74084255D01*
X62594085Y-74084252D01*
X62643729Y-73898979D01*
X62643730Y-73898975D01*
X62649999Y-73819302D01*
X62650000Y-73819299D01*
X62650000Y-73592944D01*
X59150001Y-73592944D01*
X59150001Y-73819305D01*
X59156269Y-73898973D01*
X59156270Y-73898978D01*
X59205914Y-74084252D01*
X59205916Y-74084255D01*
X59292996Y-74255161D01*
X59293002Y-74255169D01*
X59413708Y-74404230D01*
X59413713Y-74404235D01*
X59562774Y-74524941D01*
X59562783Y-74524947D01*
X59591864Y-74539765D01*
X59649181Y-74591374D01*
X59673015Y-74664728D01*
X59656979Y-74740170D01*
X59605370Y-74797487D01*
X59603492Y-74798686D01*
X59552402Y-74830788D01*
X59552395Y-74830794D01*
X59422846Y-74960343D01*
X59325377Y-75115464D01*
X59323024Y-75122191D01*
X59279574Y-75185915D01*
X59210083Y-75219377D01*
X59146731Y-75217645D01*
X59111211Y-75208890D01*
X59085056Y-75202444D01*
X58914944Y-75202444D01*
X58749775Y-75243153D01*
X58599145Y-75322211D01*
X58471820Y-75435011D01*
X58471817Y-75435015D01*
X58375181Y-75575014D01*
X58348818Y-75644531D01*
X58303735Y-75707111D01*
X58233402Y-75738765D01*
X58156664Y-75731013D01*
X58094084Y-75685930D01*
X58062430Y-75615597D01*
X58060500Y-75591695D01*
X58060500Y-75392257D01*
X58060500Y-75392250D01*
X58057598Y-75355375D01*
X58011744Y-75197546D01*
X57928081Y-75056079D01*
X57811865Y-74939863D01*
X57696807Y-74871818D01*
X57670400Y-74856201D01*
X57670399Y-74856200D01*
X57670398Y-74856200D01*
X57582951Y-74830794D01*
X57512571Y-74810346D01*
X57512572Y-74810346D01*
X57501506Y-74809475D01*
X57475694Y-74807444D01*
X56104306Y-74807444D01*
X56079722Y-74809378D01*
X56067428Y-74810346D01*
X55909599Y-74856201D01*
X55768136Y-74939862D01*
X55768133Y-74939864D01*
X55651920Y-75056077D01*
X55651918Y-75056080D01*
X55568256Y-75197545D01*
X55542425Y-75286453D01*
X55502470Y-75352425D01*
X55434882Y-75389580D01*
X55357770Y-75387964D01*
X55291798Y-75348009D01*
X55278799Y-75332461D01*
X55268589Y-75318408D01*
X55219083Y-75250269D01*
X55077675Y-75108861D01*
X54973212Y-75032964D01*
X54915889Y-74991316D01*
X54915888Y-74991315D01*
X54737705Y-74900525D01*
X54547515Y-74838729D01*
X54547515Y-74838728D01*
X54437777Y-74821348D01*
X54349991Y-74807444D01*
X54150009Y-74807444D01*
X54071001Y-74819957D01*
X53952484Y-74838728D01*
X53952484Y-74838729D01*
X53762294Y-74900525D01*
X53584111Y-74991315D01*
X53584110Y-74991316D01*
X53422334Y-75108854D01*
X53422323Y-75108863D01*
X53280919Y-75250267D01*
X53280910Y-75250278D01*
X53163373Y-75412054D01*
X53163112Y-75412480D01*
X53162956Y-75412627D01*
X53159930Y-75416793D01*
X53159157Y-75416231D01*
X53107162Y-75465569D01*
X53032164Y-75483571D01*
X52958214Y-75461662D01*
X52905125Y-75405712D01*
X52903312Y-75402267D01*
X52881727Y-75359906D01*
X52881726Y-75359903D01*
X52754979Y-75185452D01*
X52602491Y-75032964D01*
X52428040Y-74906217D01*
X52428037Y-74906216D01*
X52235897Y-74808315D01*
X52030814Y-74741679D01*
X52030809Y-74741678D01*
X51960000Y-74730461D01*
X51960000Y-75760234D01*
X51939661Y-75748492D01*
X51788333Y-75707944D01*
X51631667Y-75707944D01*
X51480339Y-75748492D01*
X51460000Y-75760234D01*
X51460000Y-74730461D01*
X51389190Y-74741678D01*
X51389185Y-74741679D01*
X51184102Y-74808315D01*
X50991962Y-74906216D01*
X50991959Y-74906217D01*
X50817508Y-75032964D01*
X50665020Y-75185452D01*
X50590043Y-75288650D01*
X50530103Y-75337188D01*
X50453924Y-75349253D01*
X50381919Y-75321612D01*
X50333381Y-75261672D01*
X50320500Y-75201069D01*
X50320500Y-68404818D01*
X50340462Y-68330318D01*
X50395000Y-68275780D01*
X50469500Y-68255818D01*
X50544000Y-68275780D01*
X50590043Y-68317238D01*
X50665016Y-68420429D01*
X50665025Y-68420440D01*
X50817508Y-68572923D01*
X50991959Y-68699670D01*
X50991962Y-68699671D01*
X51184102Y-68797572D01*
X51389189Y-68864209D01*
X51460000Y-68875424D01*
X51460000Y-67845653D01*
X51480339Y-67857396D01*
X51631667Y-67897944D01*
X51788333Y-67897944D01*
X51939661Y-67857396D01*
X51960000Y-67845653D01*
X51960000Y-68875424D01*
X52030809Y-68864209D01*
X52030811Y-68864209D01*
X52235897Y-68797572D01*
X52428037Y-68699671D01*
X52428040Y-68699670D01*
X52602491Y-68572923D01*
X52754979Y-68420435D01*
X52881726Y-68245984D01*
X52881730Y-68245977D01*
X52903310Y-68203623D01*
X52954917Y-68146305D01*
X53028270Y-68122469D01*
X53103713Y-68138504D01*
X53159914Y-68189106D01*
X53159930Y-68189095D01*
X53159981Y-68189166D01*
X53161031Y-68190111D01*
X53163107Y-68193400D01*
X53163372Y-68193833D01*
X53237489Y-68295846D01*
X53280917Y-68355619D01*
X53422325Y-68497027D01*
X53444233Y-68512944D01*
X53584110Y-68614571D01*
X53584111Y-68614572D01*
X53762294Y-68705362D01*
X53762296Y-68705362D01*
X53762297Y-68705363D01*
X53866760Y-68739305D01*
X53952484Y-68767158D01*
X53952484Y-68767159D01*
X53952489Y-68767159D01*
X53952490Y-68767160D01*
X54150009Y-68798444D01*
X54213836Y-68798444D01*
X54288336Y-68818406D01*
X54319195Y-68842085D01*
X56785329Y-71308219D01*
X56785336Y-71308225D01*
X56843455Y-71347058D01*
X56843456Y-71347058D01*
X56891873Y-71379409D01*
X56891875Y-71379410D01*
X56891877Y-71379411D01*
X56952723Y-71404614D01*
X57010256Y-71428445D01*
X57135931Y-71453444D01*
X59178724Y-71453444D01*
X59253224Y-71473406D01*
X59307762Y-71527944D01*
X59319363Y-71553233D01*
X59325378Y-71570423D01*
X59422849Y-71725548D01*
X59552395Y-71855094D01*
X59552399Y-71855097D01*
X59603491Y-71887200D01*
X59655952Y-71943738D01*
X59673115Y-72018932D01*
X59650381Y-72092634D01*
X59593843Y-72145095D01*
X59591867Y-72146120D01*
X59562788Y-72160937D01*
X59562774Y-72160946D01*
X59413713Y-72281652D01*
X59413708Y-72281657D01*
X59293002Y-72430718D01*
X59292996Y-72430726D01*
X59205916Y-72601632D01*
X59205914Y-72601635D01*
X59156270Y-72786908D01*
X59156269Y-72786912D01*
X59150000Y-72866585D01*
X59150000Y-73092944D01*
X62649999Y-73092944D01*
X62649999Y-72866590D01*
X62649998Y-72866582D01*
X62643730Y-72786914D01*
X62643729Y-72786909D01*
X62594085Y-72601635D01*
X62594083Y-72601632D01*
X62507003Y-72430726D01*
X62506997Y-72430718D01*
X62386291Y-72281657D01*
X62386286Y-72281652D01*
X62237225Y-72160946D01*
X62237216Y-72160940D01*
X62208133Y-72146121D01*
X62150817Y-72094511D01*
X62126984Y-72021158D01*
X62143021Y-71945715D01*
X62194631Y-71888399D01*
X62196419Y-71887256D01*
X62247604Y-71855095D01*
X62377151Y-71725548D01*
X62474622Y-71570423D01*
X62535131Y-71397498D01*
X62550500Y-71261097D01*
X62550499Y-70344792D01*
X62535131Y-70208390D01*
X62474622Y-70035465D01*
X62473896Y-70034310D01*
X62377153Y-69880343D01*
X62377150Y-69880339D01*
X62299754Y-69802943D01*
X71044355Y-69802943D01*
X71048414Y-69836371D01*
X71049500Y-69854331D01*
X71049500Y-69871938D01*
X71056697Y-69908122D01*
X71058473Y-69919226D01*
X71064858Y-69971808D01*
X71064859Y-69971812D01*
X71064860Y-69971816D01*
X71068891Y-69982444D01*
X71069939Y-69985207D01*
X71074262Y-70000275D01*
X71074295Y-70000266D01*
X71076421Y-70007275D01*
X71097895Y-70059118D01*
X71099554Y-70063299D01*
X71125182Y-70130874D01*
X71138851Y-70150677D01*
X71169863Y-70195606D01*
X71171126Y-70197466D01*
X71205886Y-70249487D01*
X71209306Y-70253654D01*
X71216755Y-70263540D01*
X71221813Y-70270868D01*
X71221820Y-70270876D01*
X71266266Y-70310251D01*
X71272821Y-70316421D01*
X71303458Y-70347058D01*
X71304494Y-70347750D01*
X71312740Y-70353260D01*
X71328765Y-70365621D01*
X71349146Y-70383677D01*
X71349149Y-70383679D01*
X71384657Y-70402315D01*
X71398191Y-70410357D01*
X71405467Y-70415218D01*
X71418189Y-70423719D01*
X71446341Y-70435380D01*
X71458564Y-70441105D01*
X71496888Y-70461219D01*
X71499775Y-70462734D01*
X71519959Y-70467708D01*
X71541314Y-70474718D01*
X71545670Y-70476523D01*
X71545672Y-70476524D01*
X71594488Y-70486233D01*
X71601028Y-70487689D01*
X71664944Y-70503444D01*
X71681007Y-70503444D01*
X75577991Y-70503444D01*
X75625845Y-70512963D01*
X75626168Y-70511899D01*
X75633170Y-70514023D01*
X75633172Y-70514024D01*
X75633174Y-70514024D01*
X75633176Y-70514025D01*
X75681962Y-70523729D01*
X75688545Y-70525194D01*
X75752444Y-70540944D01*
X75922555Y-70540944D01*
X75922556Y-70540944D01*
X75986477Y-70525188D01*
X75992999Y-70523736D01*
X76041828Y-70514024D01*
X76044389Y-70512963D01*
X76046171Y-70512225D01*
X76067550Y-70505206D01*
X76070042Y-70504591D01*
X76087725Y-70500234D01*
X76128952Y-70478595D01*
X76141149Y-70472883D01*
X76169311Y-70461219D01*
X76189308Y-70447856D01*
X76202844Y-70439814D01*
X76213226Y-70434365D01*
X76238352Y-70421178D01*
X76258736Y-70403118D01*
X76274755Y-70390763D01*
X76284043Y-70384558D01*
X76314690Y-70353909D01*
X76321209Y-70347771D01*
X76365683Y-70308373D01*
X76370747Y-70301035D01*
X76378196Y-70291149D01*
X76381597Y-70287003D01*
X76381614Y-70286987D01*
X76416444Y-70234858D01*
X76417559Y-70233216D01*
X76462318Y-70168374D01*
X76487966Y-70100742D01*
X76489566Y-70096708D01*
X76511080Y-70044772D01*
X76511081Y-70044768D01*
X76513208Y-70037758D01*
X76513240Y-70037767D01*
X76517561Y-70022706D01*
X76522640Y-70009316D01*
X76529025Y-69956721D01*
X76530798Y-69945639D01*
X76538000Y-69909438D01*
X76538000Y-69891831D01*
X76539086Y-69873871D01*
X76539321Y-69871937D01*
X76543145Y-69840444D01*
X76539086Y-69807014D01*
X76538000Y-69789055D01*
X76538000Y-69771452D01*
X76538000Y-69771450D01*
X76530799Y-69735254D01*
X76529023Y-69724146D01*
X76528360Y-69718686D01*
X76522640Y-69671572D01*
X76517560Y-69658178D01*
X76513239Y-69643114D01*
X76513206Y-69643125D01*
X76511081Y-69636121D01*
X76511080Y-69636120D01*
X76511080Y-69636116D01*
X76489574Y-69584198D01*
X76487930Y-69580050D01*
X76474510Y-69544664D01*
X76462318Y-69512514D01*
X76417549Y-69447655D01*
X76416436Y-69446017D01*
X76381614Y-69393901D01*
X76381613Y-69393899D01*
X76378185Y-69389722D01*
X76370743Y-69379844D01*
X76365686Y-69372518D01*
X76365683Y-69372515D01*
X76321222Y-69333126D01*
X76314685Y-69326972D01*
X76246546Y-69258833D01*
X76246544Y-69258831D01*
X76246543Y-69258830D01*
X76131811Y-69182169D01*
X76131808Y-69182167D01*
X76131802Y-69182164D01*
X76004329Y-69129364D01*
X76004327Y-69129363D01*
X75868997Y-69102444D01*
X75868994Y-69102444D01*
X75868993Y-69102444D01*
X71835056Y-69102444D01*
X71664944Y-69102444D01*
X71601035Y-69118194D01*
X71594453Y-69119659D01*
X71545677Y-69129362D01*
X71545672Y-69129363D01*
X71541306Y-69131172D01*
X71519960Y-69138178D01*
X71499779Y-69143152D01*
X71499774Y-69143154D01*
X71458561Y-69164784D01*
X71446346Y-69170505D01*
X71418187Y-69182170D01*
X71398190Y-69195530D01*
X71384667Y-69203566D01*
X71349150Y-69222208D01*
X71349144Y-69222212D01*
X71328756Y-69240273D01*
X71312749Y-69252621D01*
X71303460Y-69258829D01*
X71303457Y-69258831D01*
X71272826Y-69289461D01*
X71266277Y-69295626D01*
X71221819Y-69335012D01*
X71221812Y-69335021D01*
X71216748Y-69342357D01*
X71209314Y-69352225D01*
X71205883Y-69356406D01*
X71171124Y-69408423D01*
X71169864Y-69410279D01*
X71125183Y-69475011D01*
X71099567Y-69542554D01*
X71097909Y-69546732D01*
X71076420Y-69598612D01*
X71074293Y-69605626D01*
X71074261Y-69605616D01*
X71069940Y-69620676D01*
X71064861Y-69634068D01*
X71064859Y-69634076D01*
X71058473Y-69686661D01*
X71056698Y-69697763D01*
X71050339Y-69729736D01*
X71049500Y-69733953D01*
X71049500Y-69751555D01*
X71048414Y-69769514D01*
X71044355Y-69802943D01*
X62299754Y-69802943D01*
X62247605Y-69750794D01*
X62247600Y-69750790D01*
X62121522Y-69671571D01*
X62101683Y-69659105D01*
X62049223Y-69602568D01*
X62032060Y-69527373D01*
X62054794Y-69453672D01*
X62101684Y-69406782D01*
X62122184Y-69393901D01*
X62247604Y-69315095D01*
X62377151Y-69185548D01*
X62474622Y-69030423D01*
X62535131Y-68857498D01*
X62550500Y-68721097D01*
X62550499Y-67804792D01*
X62550291Y-67802944D01*
X63594355Y-67802944D01*
X63594579Y-67804792D01*
X63598414Y-67836371D01*
X63599500Y-67854331D01*
X63599500Y-67871938D01*
X63606697Y-67908122D01*
X63608473Y-67919226D01*
X63614858Y-67971808D01*
X63614859Y-67971812D01*
X63614860Y-67971816D01*
X63616073Y-67975014D01*
X63619939Y-67985207D01*
X63624262Y-68000275D01*
X63624295Y-68000266D01*
X63626421Y-68007275D01*
X63647895Y-68059118D01*
X63649554Y-68063299D01*
X63651518Y-68068478D01*
X63675182Y-68130874D01*
X63680449Y-68138504D01*
X63719863Y-68195606D01*
X63721126Y-68197466D01*
X63755886Y-68249487D01*
X63759306Y-68253654D01*
X63766755Y-68263540D01*
X63771813Y-68270868D01*
X63771815Y-68270870D01*
X63771817Y-68270873D01*
X63811397Y-68305938D01*
X63816266Y-68310251D01*
X63822821Y-68316421D01*
X63853458Y-68347058D01*
X63862731Y-68353254D01*
X63862740Y-68353260D01*
X63878765Y-68365621D01*
X63899146Y-68383677D01*
X63899149Y-68383679D01*
X63934657Y-68402315D01*
X63948191Y-68410357D01*
X63955467Y-68415218D01*
X63968189Y-68423719D01*
X63996341Y-68435380D01*
X64008564Y-68441105D01*
X64030152Y-68452435D01*
X64049775Y-68462734D01*
X64069959Y-68467708D01*
X64091314Y-68474718D01*
X64095670Y-68476523D01*
X64095672Y-68476524D01*
X64144488Y-68486233D01*
X64151028Y-68487689D01*
X64214944Y-68503444D01*
X64385055Y-68503444D01*
X64385056Y-68503444D01*
X64448994Y-68487684D01*
X64455514Y-68486232D01*
X64504328Y-68476524D01*
X64508671Y-68474724D01*
X64530051Y-68467706D01*
X64550218Y-68462736D01*
X64550218Y-68462735D01*
X64550225Y-68462734D01*
X64591452Y-68441095D01*
X64603649Y-68435383D01*
X64631811Y-68423719D01*
X64651808Y-68410357D01*
X64665333Y-68402319D01*
X64700852Y-68383678D01*
X64721244Y-68365612D01*
X64737246Y-68353268D01*
X64746542Y-68347058D01*
X64777182Y-68316416D01*
X64783701Y-68310278D01*
X64828183Y-68270873D01*
X64833247Y-68263535D01*
X64840701Y-68253643D01*
X64844108Y-68249491D01*
X64844114Y-68249486D01*
X64878875Y-68197460D01*
X64880087Y-68195675D01*
X64924818Y-68130874D01*
X64950466Y-68063242D01*
X64952066Y-68059208D01*
X64973580Y-68007272D01*
X64973581Y-68007268D01*
X64975708Y-68000258D01*
X64975741Y-68000268D01*
X64980061Y-67985207D01*
X64985140Y-67971816D01*
X64991525Y-67919218D01*
X64993299Y-67908130D01*
X65000500Y-67871937D01*
X65000500Y-67854331D01*
X65001586Y-67836371D01*
X65002911Y-67825459D01*
X65005645Y-67802944D01*
X65003659Y-67786585D01*
X80232000Y-67786585D01*
X80232000Y-68012944D01*
X83731999Y-68012944D01*
X83731999Y-67786590D01*
X83731998Y-67786582D01*
X83725730Y-67706914D01*
X83725729Y-67706909D01*
X83676085Y-67521635D01*
X83676083Y-67521632D01*
X83589003Y-67350726D01*
X83588997Y-67350718D01*
X83468291Y-67201657D01*
X83468286Y-67201652D01*
X83389977Y-67138239D01*
X83344642Y-67075841D01*
X83336579Y-66999136D01*
X83367950Y-66928676D01*
X83430348Y-66883341D01*
X83483745Y-66873444D01*
X83581729Y-66873444D01*
X83656229Y-66893406D01*
X83687088Y-66917085D01*
X85350499Y-68580496D01*
X85497004Y-68686938D01*
X85497004Y-68686939D01*
X85497006Y-68686940D01*
X85658361Y-68769155D01*
X85830591Y-68825115D01*
X86009454Y-68853445D01*
X86009459Y-68853445D01*
X86190542Y-68853445D01*
X86190547Y-68853445D01*
X86369409Y-68825115D01*
X86541639Y-68769155D01*
X86702994Y-68686940D01*
X86849501Y-68580496D01*
X86977552Y-68452445D01*
X87083996Y-68305938D01*
X87085522Y-68302944D01*
X104794355Y-68302944D01*
X104814860Y-68471818D01*
X104875181Y-68630873D01*
X104883658Y-68643154D01*
X104971817Y-68770873D01*
X104971819Y-68770874D01*
X104971820Y-68770876D01*
X105099146Y-68883676D01*
X105099148Y-68883678D01*
X105249775Y-68962734D01*
X105414944Y-69003444D01*
X105585056Y-69003444D01*
X105750225Y-68962734D01*
X105900852Y-68883678D01*
X106028183Y-68770873D01*
X106124818Y-68630874D01*
X106185140Y-68471816D01*
X106205645Y-68302944D01*
X106185140Y-68134072D01*
X106124818Y-67975014D01*
X106028183Y-67835015D01*
X106028180Y-67835012D01*
X106028179Y-67835011D01*
X105900853Y-67722211D01*
X105900854Y-67722211D01*
X105750224Y-67643153D01*
X105585056Y-67602444D01*
X105414944Y-67602444D01*
X105249775Y-67643153D01*
X105099145Y-67722211D01*
X104971820Y-67835011D01*
X104971817Y-67835015D01*
X104875181Y-67975014D01*
X104814860Y-68134069D01*
X104794355Y-68302944D01*
X87085522Y-68302944D01*
X87166211Y-68144583D01*
X87222171Y-67972353D01*
X87250501Y-67793491D01*
X87250501Y-67612398D01*
X87222171Y-67433535D01*
X87166211Y-67261305D01*
X87083996Y-67099950D01*
X86977552Y-66953443D01*
X86027053Y-66002944D01*
X91894355Y-66002944D01*
X91914860Y-66171818D01*
X91975181Y-66330873D01*
X91988986Y-66350872D01*
X92071817Y-66470873D01*
X92071819Y-66470874D01*
X92071820Y-66470876D01*
X92199146Y-66583676D01*
X92199148Y-66583678D01*
X92349775Y-66662734D01*
X92514944Y-66703444D01*
X92685056Y-66703444D01*
X92850225Y-66662734D01*
X93000852Y-66583678D01*
X93128183Y-66470873D01*
X93224818Y-66330874D01*
X93285140Y-66171816D01*
X93305645Y-66002944D01*
X93291074Y-65882944D01*
X94374355Y-65882944D01*
X94394860Y-66051818D01*
X94455181Y-66210873D01*
X94455182Y-66210874D01*
X94551817Y-66350873D01*
X94551819Y-66350874D01*
X94551820Y-66350876D01*
X94586856Y-66381915D01*
X94676872Y-66461662D01*
X94679146Y-66463676D01*
X94679148Y-66463678D01*
X94829775Y-66542734D01*
X94994944Y-66583444D01*
X95165056Y-66583444D01*
X95330225Y-66542734D01*
X95480852Y-66463678D01*
X95608183Y-66350873D01*
X95704818Y-66210874D01*
X95765140Y-66051816D01*
X95785645Y-65882944D01*
X95765140Y-65714072D01*
X95750327Y-65675014D01*
X95704818Y-65555014D01*
X95703486Y-65553085D01*
X95608183Y-65415015D01*
X95608180Y-65415012D01*
X95608179Y-65415011D01*
X95480853Y-65302211D01*
X95480854Y-65302211D01*
X95330224Y-65223153D01*
X95165056Y-65182444D01*
X94994944Y-65182444D01*
X94829775Y-65223153D01*
X94679145Y-65302211D01*
X94551820Y-65415011D01*
X94551817Y-65415015D01*
X94455181Y-65555014D01*
X94394860Y-65714069D01*
X94374355Y-65882944D01*
X93291074Y-65882944D01*
X93285140Y-65834072D01*
X93275041Y-65807444D01*
X93224818Y-65675014D01*
X93199085Y-65637734D01*
X93128183Y-65535015D01*
X93128180Y-65535012D01*
X93128179Y-65535011D01*
X93000853Y-65422211D01*
X93000854Y-65422211D01*
X92850224Y-65343153D01*
X92685056Y-65302444D01*
X92514944Y-65302444D01*
X92349775Y-65343153D01*
X92199145Y-65422211D01*
X92071820Y-65535011D01*
X92071817Y-65535015D01*
X91975181Y-65675014D01*
X91914860Y-65834069D01*
X91894355Y-66002944D01*
X86027053Y-66002944D01*
X84997555Y-64973446D01*
X84997553Y-64973443D01*
X84869501Y-64845391D01*
X84722994Y-64738948D01*
X84561639Y-64656733D01*
X84389409Y-64600773D01*
X84210546Y-64572443D01*
X84029454Y-64572443D01*
X84023311Y-64572443D01*
X84023287Y-64572444D01*
X83483745Y-64572444D01*
X83409245Y-64552482D01*
X83354707Y-64497944D01*
X83334745Y-64423444D01*
X83354707Y-64348944D01*
X83389977Y-64307649D01*
X83468286Y-64244235D01*
X83468291Y-64244230D01*
X83588997Y-64095169D01*
X83589003Y-64095161D01*
X83676083Y-63924255D01*
X83676085Y-63924252D01*
X83725729Y-63738979D01*
X83725730Y-63738975D01*
X83731999Y-63659302D01*
X83732000Y-63659299D01*
X83732000Y-63432944D01*
X80232001Y-63432944D01*
X80232001Y-63659305D01*
X80238269Y-63738973D01*
X80238270Y-63738978D01*
X80287914Y-63924252D01*
X80287916Y-63924255D01*
X80374996Y-64095161D01*
X80375002Y-64095169D01*
X80495708Y-64244230D01*
X80495713Y-64244235D01*
X80644774Y-64364941D01*
X80644783Y-64364947D01*
X80673864Y-64379765D01*
X80731181Y-64431374D01*
X80755015Y-64504728D01*
X80738979Y-64580170D01*
X80687370Y-64637487D01*
X80685492Y-64638686D01*
X80634402Y-64670788D01*
X80634395Y-64670794D01*
X80504846Y-64800343D01*
X80407378Y-64955464D01*
X80346869Y-65128390D01*
X80331500Y-65264791D01*
X80331500Y-66181095D01*
X80346868Y-66317496D01*
X80407378Y-66490424D01*
X80504846Y-66645544D01*
X80504850Y-66645549D01*
X80634395Y-66775094D01*
X80634399Y-66775097D01*
X80685491Y-66807200D01*
X80737952Y-66863738D01*
X80755115Y-66938932D01*
X80732381Y-67012634D01*
X80675843Y-67065095D01*
X80673867Y-67066120D01*
X80644788Y-67080937D01*
X80644774Y-67080946D01*
X80495713Y-67201652D01*
X80495708Y-67201657D01*
X80375002Y-67350718D01*
X80374996Y-67350726D01*
X80287916Y-67521632D01*
X80287914Y-67521635D01*
X80238270Y-67706908D01*
X80238269Y-67706912D01*
X80232000Y-67786585D01*
X65003659Y-67786585D01*
X65001586Y-67769514D01*
X65000500Y-67751555D01*
X65000500Y-63354819D01*
X65020462Y-63280319D01*
X65044141Y-63249460D01*
X65545141Y-62748460D01*
X65611936Y-62709896D01*
X65689064Y-62709896D01*
X65755859Y-62748460D01*
X65794423Y-62815255D01*
X65799500Y-62853819D01*
X65799500Y-64871935D01*
X65799651Y-64872695D01*
X65799698Y-64873951D01*
X65800217Y-64879216D01*
X65799898Y-64879247D01*
X65801425Y-64919707D01*
X65794355Y-64977942D01*
X65814860Y-65146818D01*
X65875181Y-65305873D01*
X65875182Y-65305874D01*
X65971817Y-65445873D01*
X65971819Y-65445874D01*
X65971820Y-65445876D01*
X66048215Y-65513556D01*
X66072433Y-65535011D01*
X66099146Y-65558676D01*
X66099148Y-65558678D01*
X66249775Y-65637734D01*
X66414944Y-65678444D01*
X66585056Y-65678444D01*
X66750225Y-65637734D01*
X66900852Y-65558678D01*
X67028183Y-65445873D01*
X67124818Y-65305874D01*
X67185140Y-65146816D01*
X67205645Y-64977944D01*
X67198574Y-64919707D01*
X67200103Y-64879254D01*
X67199782Y-64879223D01*
X67200305Y-64873908D01*
X67200351Y-64872681D01*
X67200500Y-64871937D01*
X67200500Y-62706585D01*
X80232000Y-62706585D01*
X80232000Y-62932944D01*
X81732000Y-62932944D01*
X82232000Y-62932944D01*
X83731999Y-62932944D01*
X83731999Y-62706590D01*
X83731998Y-62706582D01*
X83725730Y-62626914D01*
X83725729Y-62626909D01*
X83676085Y-62441635D01*
X83676083Y-62441632D01*
X83589003Y-62270726D01*
X83588997Y-62270718D01*
X83468291Y-62121657D01*
X83468286Y-62121652D01*
X83353547Y-62028739D01*
X83308212Y-61966341D01*
X83300149Y-61889636D01*
X83331520Y-61819176D01*
X83353547Y-61797149D01*
X83468286Y-61704235D01*
X83468291Y-61704230D01*
X83588997Y-61555169D01*
X83589003Y-61555161D01*
X83676083Y-61384255D01*
X83676085Y-61384252D01*
X83725729Y-61198979D01*
X83725730Y-61198975D01*
X83731999Y-61119302D01*
X83732000Y-61119299D01*
X83732000Y-60892944D01*
X82232000Y-60892944D01*
X82232000Y-62932944D01*
X81732000Y-62932944D01*
X81732000Y-60892944D01*
X80232001Y-60892944D01*
X80232001Y-61119305D01*
X80238269Y-61198973D01*
X80238270Y-61198978D01*
X80287914Y-61384252D01*
X80287916Y-61384255D01*
X80374996Y-61555161D01*
X80375002Y-61555169D01*
X80495708Y-61704230D01*
X80495709Y-61704231D01*
X80610453Y-61797149D01*
X80655787Y-61859547D01*
X80663850Y-61936253D01*
X80632479Y-62006713D01*
X80610453Y-62028739D01*
X80495709Y-62121656D01*
X80495708Y-62121657D01*
X80375002Y-62270718D01*
X80374996Y-62270726D01*
X80287916Y-62441632D01*
X80287914Y-62441635D01*
X80238270Y-62626908D01*
X80238269Y-62626912D01*
X80232000Y-62706585D01*
X67200500Y-62706585D01*
X67200500Y-62654818D01*
X67220462Y-62580318D01*
X67244141Y-62549459D01*
X68246515Y-61547085D01*
X68313310Y-61508521D01*
X68351874Y-61503444D01*
X70585055Y-61503444D01*
X70585056Y-61503444D01*
X70648994Y-61487684D01*
X70655514Y-61486232D01*
X70704328Y-61476524D01*
X70708671Y-61474724D01*
X70730051Y-61467706D01*
X70750218Y-61462736D01*
X70750218Y-61462735D01*
X70750225Y-61462734D01*
X70791452Y-61441095D01*
X70803649Y-61435383D01*
X70831811Y-61423719D01*
X70851804Y-61410359D01*
X70865333Y-61402319D01*
X70900852Y-61383678D01*
X70921244Y-61365612D01*
X70937246Y-61353268D01*
X70946542Y-61347058D01*
X70977182Y-61316416D01*
X70983701Y-61310278D01*
X71028183Y-61270873D01*
X71033247Y-61263535D01*
X71040701Y-61253643D01*
X71044108Y-61249491D01*
X71044114Y-61249486D01*
X71078875Y-61197460D01*
X71080087Y-61195675D01*
X71124818Y-61130874D01*
X71150466Y-61063242D01*
X71152066Y-61059208D01*
X71173580Y-61007272D01*
X71173581Y-61007268D01*
X71175708Y-61000258D01*
X71175741Y-61000268D01*
X71180060Y-60985209D01*
X71185140Y-60971816D01*
X71191525Y-60919218D01*
X71193299Y-60908130D01*
X71200500Y-60871937D01*
X71200500Y-60854331D01*
X71201586Y-60836371D01*
X71205645Y-60802944D01*
X71201586Y-60769514D01*
X71200500Y-60751555D01*
X71200500Y-60733954D01*
X71200499Y-60733946D01*
X71193302Y-60697769D01*
X71191524Y-60686655D01*
X71187431Y-60652944D01*
X71185140Y-60634072D01*
X71180060Y-60620678D01*
X71175739Y-60605614D01*
X71175706Y-60605625D01*
X71173581Y-60598621D01*
X71173580Y-60598620D01*
X71173580Y-60598616D01*
X71152074Y-60546698D01*
X71150430Y-60542550D01*
X71124819Y-60475017D01*
X71124818Y-60475014D01*
X71080056Y-60410167D01*
X71078908Y-60408475D01*
X71044114Y-60356402D01*
X71044110Y-60356398D01*
X71040684Y-60352222D01*
X71033242Y-60342344D01*
X71028184Y-60335017D01*
X71028183Y-60335015D01*
X70983714Y-60295619D01*
X70977177Y-60289465D01*
X70945515Y-60257803D01*
X70906951Y-60191008D01*
X70906951Y-60166585D01*
X80232000Y-60166585D01*
X80232000Y-60392944D01*
X83731999Y-60392944D01*
X83731999Y-60166590D01*
X83731998Y-60166582D01*
X83725730Y-60086914D01*
X83725729Y-60086909D01*
X83676085Y-59901635D01*
X83676083Y-59901632D01*
X83589003Y-59730726D01*
X83588997Y-59730718D01*
X83468291Y-59581657D01*
X83468286Y-59581652D01*
X83319225Y-59460946D01*
X83319216Y-59460940D01*
X83290133Y-59446121D01*
X83232817Y-59394511D01*
X83208984Y-59321158D01*
X83225021Y-59245715D01*
X83276631Y-59188399D01*
X83278419Y-59187256D01*
X83329604Y-59155095D01*
X83459151Y-59025548D01*
X83556622Y-58870423D01*
X83617131Y-58697498D01*
X83632500Y-58561097D01*
X83632499Y-57644792D01*
X83617131Y-57508390D01*
X83556622Y-57335465D01*
X83554734Y-57332461D01*
X83459153Y-57180343D01*
X83459150Y-57180339D01*
X83329605Y-57050794D01*
X83329600Y-57050790D01*
X83183684Y-56959106D01*
X83131223Y-56902568D01*
X83114060Y-56827373D01*
X83136794Y-56753672D01*
X83183684Y-56706782D01*
X83194086Y-56700246D01*
X83329604Y-56615095D01*
X83459151Y-56485548D01*
X83556622Y-56330423D01*
X83617131Y-56157498D01*
X83632500Y-56021097D01*
X83632499Y-55104792D01*
X83617131Y-54968390D01*
X83556622Y-54795465D01*
X83497412Y-54701233D01*
X83459153Y-54640343D01*
X83459150Y-54640339D01*
X83329605Y-54510794D01*
X83329600Y-54510790D01*
X83174479Y-54413322D01*
X83001554Y-54352813D01*
X82865153Y-54337444D01*
X82865152Y-54337444D01*
X81098848Y-54337444D01*
X80962447Y-54352812D01*
X80789519Y-54413322D01*
X80634399Y-54510790D01*
X80504846Y-54640343D01*
X80407378Y-54795464D01*
X80346869Y-54968390D01*
X80331500Y-55104791D01*
X80331500Y-56021095D01*
X80346868Y-56157496D01*
X80407378Y-56330424D01*
X80504846Y-56485544D01*
X80504849Y-56485548D01*
X80634396Y-56615095D01*
X80769914Y-56700246D01*
X80780316Y-56706782D01*
X80832776Y-56763321D01*
X80849939Y-56838515D01*
X80827205Y-56912217D01*
X80780316Y-56959106D01*
X80634395Y-57050793D01*
X80634395Y-57050794D01*
X80504846Y-57180343D01*
X80407378Y-57335464D01*
X80346869Y-57508390D01*
X80331500Y-57644791D01*
X80331500Y-58561095D01*
X80346868Y-58697496D01*
X80407378Y-58870424D01*
X80504846Y-59025544D01*
X80504850Y-59025549D01*
X80634395Y-59155094D01*
X80634399Y-59155097D01*
X80685491Y-59187200D01*
X80737952Y-59243738D01*
X80755115Y-59318932D01*
X80732381Y-59392634D01*
X80675843Y-59445095D01*
X80673867Y-59446120D01*
X80644788Y-59460937D01*
X80644774Y-59460946D01*
X80495713Y-59581652D01*
X80495708Y-59581657D01*
X80375002Y-59730718D01*
X80374996Y-59730726D01*
X80287916Y-59901632D01*
X80287914Y-59901635D01*
X80238270Y-60086908D01*
X80238269Y-60086912D01*
X80232000Y-60166585D01*
X70906951Y-60166585D01*
X70906951Y-60113880D01*
X70945515Y-60047085D01*
X71012310Y-60008521D01*
X71050874Y-60003444D01*
X71885055Y-60003444D01*
X71885056Y-60003444D01*
X71948994Y-59987684D01*
X71955514Y-59986232D01*
X72004328Y-59976524D01*
X72008671Y-59974724D01*
X72030051Y-59967706D01*
X72050218Y-59962736D01*
X72050218Y-59962735D01*
X72050225Y-59962734D01*
X72091452Y-59941095D01*
X72103649Y-59935383D01*
X72131811Y-59923719D01*
X72151804Y-59910359D01*
X72165333Y-59902319D01*
X72200852Y-59883678D01*
X72221244Y-59865612D01*
X72237246Y-59853268D01*
X72246542Y-59847058D01*
X72277182Y-59816416D01*
X72283701Y-59810278D01*
X72328183Y-59770873D01*
X72333247Y-59763535D01*
X72340701Y-59753643D01*
X72344108Y-59749491D01*
X72344114Y-59749486D01*
X72378875Y-59697460D01*
X72380087Y-59695675D01*
X72424818Y-59630874D01*
X72450466Y-59563242D01*
X72452066Y-59559208D01*
X72473580Y-59507272D01*
X72473581Y-59507268D01*
X72475708Y-59500258D01*
X72475741Y-59500268D01*
X72480060Y-59485209D01*
X72485140Y-59471816D01*
X72491525Y-59419218D01*
X72493299Y-59408130D01*
X72500500Y-59371937D01*
X72500500Y-59354331D01*
X72501586Y-59336371D01*
X72505645Y-59302944D01*
X72501586Y-59269514D01*
X72500500Y-59251555D01*
X72500500Y-59233954D01*
X72500499Y-59233946D01*
X72496458Y-59213631D01*
X72493300Y-59197761D01*
X72491524Y-59186655D01*
X72485140Y-59134072D01*
X72480060Y-59120678D01*
X72475739Y-59105614D01*
X72475706Y-59105625D01*
X72473581Y-59098621D01*
X72473580Y-59098620D01*
X72473580Y-59098616D01*
X72452074Y-59046698D01*
X72450430Y-59042550D01*
X72440227Y-59015647D01*
X72424818Y-58975014D01*
X72380056Y-58910167D01*
X72378908Y-58908475D01*
X72344114Y-58856402D01*
X72344110Y-58856398D01*
X72340684Y-58852222D01*
X72333242Y-58842344D01*
X72328184Y-58835017D01*
X72328183Y-58835015D01*
X72283714Y-58795619D01*
X72277177Y-58789465D01*
X72246542Y-58758830D01*
X72237252Y-58752622D01*
X72221237Y-58740268D01*
X72200854Y-58722211D01*
X72165341Y-58703572D01*
X72151805Y-58695528D01*
X72131819Y-58682173D01*
X72131812Y-58682170D01*
X72131811Y-58682169D01*
X72103654Y-58670505D01*
X72091434Y-58664782D01*
X72050224Y-58643153D01*
X72030048Y-58638181D01*
X72008681Y-58631167D01*
X72004329Y-58629364D01*
X72004330Y-58629364D01*
X71955550Y-58619661D01*
X71948966Y-58618195D01*
X71897337Y-58605471D01*
X71885056Y-58602444D01*
X71868993Y-58602444D01*
X67931007Y-58602444D01*
X67822590Y-58624008D01*
X67822591Y-58624009D01*
X67795671Y-58629363D01*
X67668191Y-58682167D01*
X67553458Y-58758829D01*
X67553453Y-58758833D01*
X63755889Y-62556397D01*
X63755885Y-62556402D01*
X63679228Y-62671128D01*
X63679220Y-62671141D01*
X63626421Y-62798612D01*
X63626420Y-62798616D01*
X63611263Y-62874816D01*
X63599500Y-62933947D01*
X63599500Y-67751555D01*
X63598414Y-67769514D01*
X63595503Y-67793491D01*
X63594355Y-67802944D01*
X62550291Y-67802944D01*
X62535131Y-67668390D01*
X62474622Y-67495465D01*
X62435708Y-67433534D01*
X62377153Y-67340343D01*
X62377150Y-67340339D01*
X62247605Y-67210794D01*
X62247600Y-67210790D01*
X62132134Y-67138239D01*
X62101683Y-67119105D01*
X62049223Y-67062568D01*
X62032060Y-66987373D01*
X62054794Y-66913672D01*
X62101684Y-66866782D01*
X62106529Y-66863738D01*
X62247604Y-66775095D01*
X62377151Y-66645548D01*
X62474622Y-66490423D01*
X62535131Y-66317498D01*
X62550500Y-66181097D01*
X62550499Y-65264792D01*
X62535131Y-65128390D01*
X62474622Y-64955465D01*
X62422614Y-64872695D01*
X62377153Y-64800343D01*
X62377150Y-64800339D01*
X62247605Y-64670794D01*
X62247600Y-64670790D01*
X62135125Y-64600118D01*
X62101683Y-64579105D01*
X62049223Y-64522568D01*
X62032060Y-64447373D01*
X62054794Y-64373672D01*
X62101684Y-64326782D01*
X62148113Y-64297609D01*
X62247604Y-64235095D01*
X62377151Y-64105548D01*
X62474622Y-63950423D01*
X62535131Y-63777498D01*
X62550500Y-63641097D01*
X62550499Y-62724792D01*
X62535131Y-62588390D01*
X62474622Y-62415465D01*
X62408969Y-62310979D01*
X62377153Y-62260343D01*
X62377150Y-62260339D01*
X62247604Y-62130793D01*
X62196507Y-62098687D01*
X62144047Y-62042148D01*
X62126884Y-61966954D01*
X62149618Y-61893252D01*
X62206157Y-61840792D01*
X62208136Y-61839765D01*
X62237213Y-61824949D01*
X62237225Y-61824941D01*
X62386286Y-61704235D01*
X62386291Y-61704230D01*
X62506997Y-61555169D01*
X62507003Y-61555161D01*
X62594083Y-61384255D01*
X62594085Y-61384252D01*
X62643729Y-61198979D01*
X62643730Y-61198975D01*
X62649999Y-61119302D01*
X62650000Y-61119299D01*
X62650000Y-60892944D01*
X59150001Y-60892944D01*
X59150001Y-61119305D01*
X59156269Y-61198973D01*
X59156270Y-61198978D01*
X59205914Y-61384252D01*
X59205916Y-61384255D01*
X59292996Y-61555161D01*
X59293002Y-61555169D01*
X59413708Y-61704230D01*
X59413713Y-61704235D01*
X59562774Y-61824941D01*
X59562783Y-61824947D01*
X59591864Y-61839765D01*
X59649181Y-61891374D01*
X59673015Y-61964728D01*
X59656979Y-62040170D01*
X59605370Y-62097487D01*
X59603492Y-62098686D01*
X59552402Y-62130788D01*
X59552395Y-62130794D01*
X59422850Y-62260339D01*
X59422849Y-62260339D01*
X59325378Y-62415464D01*
X59319363Y-62432655D01*
X59275915Y-62496382D01*
X59206425Y-62529846D01*
X59178724Y-62532444D01*
X49565977Y-62532444D01*
X49440307Y-62557442D01*
X49321928Y-62606476D01*
X49321920Y-62606481D01*
X49215381Y-62677667D01*
X49215379Y-62677668D01*
X47500000Y-64393046D01*
X47500000Y-60166585D01*
X59150000Y-60166585D01*
X59150000Y-60392944D01*
X62649999Y-60392944D01*
X62649999Y-60166590D01*
X62649998Y-60166582D01*
X62643730Y-60086914D01*
X62643729Y-60086909D01*
X62594085Y-59901635D01*
X62594083Y-59901632D01*
X62507003Y-59730726D01*
X62506997Y-59730718D01*
X62386291Y-59581657D01*
X62386286Y-59581652D01*
X62237225Y-59460946D01*
X62237216Y-59460940D01*
X62208133Y-59446121D01*
X62150817Y-59394511D01*
X62126984Y-59321158D01*
X62143021Y-59245715D01*
X62194631Y-59188399D01*
X62196419Y-59187256D01*
X62247604Y-59155095D01*
X62377151Y-59025548D01*
X62474622Y-58870423D01*
X62535131Y-58697498D01*
X62550500Y-58561097D01*
X62550499Y-57644792D01*
X62535131Y-57508390D01*
X62474622Y-57335465D01*
X62472734Y-57332461D01*
X62377153Y-57180343D01*
X62377150Y-57180339D01*
X62247605Y-57050794D01*
X62247600Y-57050790D01*
X62101684Y-56959106D01*
X62049223Y-56902568D01*
X62032060Y-56827373D01*
X62054794Y-56753672D01*
X62101684Y-56706782D01*
X62112086Y-56700246D01*
X62247604Y-56615095D01*
X62377151Y-56485548D01*
X62474622Y-56330423D01*
X62535131Y-56157498D01*
X62550500Y-56021097D01*
X62550499Y-55104792D01*
X62535131Y-54968390D01*
X62474622Y-54795465D01*
X62415412Y-54701233D01*
X62377153Y-54640343D01*
X62377150Y-54640339D01*
X62247605Y-54510794D01*
X62247600Y-54510790D01*
X62092479Y-54413322D01*
X61919554Y-54352813D01*
X61783153Y-54337444D01*
X61783152Y-54337444D01*
X60016848Y-54337444D01*
X59880447Y-54352812D01*
X59707519Y-54413322D01*
X59552399Y-54510790D01*
X59422846Y-54640343D01*
X59325378Y-54795464D01*
X59264869Y-54968390D01*
X59249500Y-55104791D01*
X59249500Y-56021095D01*
X59264868Y-56157496D01*
X59325378Y-56330424D01*
X59422846Y-56485544D01*
X59422849Y-56485548D01*
X59552396Y-56615095D01*
X59687914Y-56700246D01*
X59698316Y-56706782D01*
X59750776Y-56763321D01*
X59767939Y-56838515D01*
X59745205Y-56912217D01*
X59698316Y-56959106D01*
X59552395Y-57050793D01*
X59552395Y-57050794D01*
X59422846Y-57180343D01*
X59325378Y-57335464D01*
X59264869Y-57508390D01*
X59249500Y-57644791D01*
X59249500Y-58561095D01*
X59264868Y-58697496D01*
X59325378Y-58870424D01*
X59422846Y-59025544D01*
X59422850Y-59025549D01*
X59552395Y-59155094D01*
X59552399Y-59155097D01*
X59603491Y-59187200D01*
X59655952Y-59243738D01*
X59673115Y-59318932D01*
X59650381Y-59392634D01*
X59593843Y-59445095D01*
X59591867Y-59446120D01*
X59562788Y-59460937D01*
X59562774Y-59460946D01*
X59413713Y-59581652D01*
X59413708Y-59581657D01*
X59293002Y-59730718D01*
X59292996Y-59730726D01*
X59205916Y-59901632D01*
X59205914Y-59901635D01*
X59156270Y-60086908D01*
X59156269Y-60086912D01*
X59150000Y-60166585D01*
X47500000Y-60166585D01*
X47500000Y-59502944D01*
X39687085Y-59502944D01*
X39850225Y-59462734D01*
X40000852Y-59383678D01*
X40128183Y-59270873D01*
X40224818Y-59130874D01*
X40285140Y-58971816D01*
X40305645Y-58802944D01*
X40285140Y-58634072D01*
X40224818Y-58475014D01*
X40224817Y-58475011D01*
X40220630Y-58467034D01*
X40222599Y-58466000D01*
X40200983Y-58405334D01*
X40200500Y-58393352D01*
X40200500Y-58383862D01*
X40220462Y-58309362D01*
X40246781Y-58279199D01*
X40245236Y-58277654D01*
X40301607Y-58221283D01*
X40368081Y-58154809D01*
X40451744Y-58013342D01*
X40462026Y-57977953D01*
X47899500Y-57977953D01*
X47899500Y-58627935D01*
X47910518Y-58697497D01*
X47930784Y-58825459D01*
X47992581Y-59015649D01*
X48083371Y-59193832D01*
X48083372Y-59193833D01*
X48141201Y-59273427D01*
X48200917Y-59355619D01*
X48342325Y-59497027D01*
X48427801Y-59559129D01*
X48504110Y-59614571D01*
X48504111Y-59614572D01*
X48682294Y-59705362D01*
X48872484Y-59767158D01*
X48872484Y-59767159D01*
X48872489Y-59767159D01*
X48872490Y-59767160D01*
X49070009Y-59798444D01*
X49070013Y-59798444D01*
X49269987Y-59798444D01*
X49269991Y-59798444D01*
X49467510Y-59767160D01*
X49467511Y-59767159D01*
X49467515Y-59767159D01*
X49467515Y-59767158D01*
X49657703Y-59705363D01*
X49835887Y-59614573D01*
X49997675Y-59497027D01*
X50139083Y-59355619D01*
X50256629Y-59193831D01*
X50256639Y-59193809D01*
X50256871Y-59193434D01*
X50257020Y-59193291D01*
X50260070Y-59189095D01*
X50260847Y-59189659D01*
X50312808Y-59140333D01*
X50387802Y-59122315D01*
X50461758Y-59144209D01*
X50514859Y-59200146D01*
X50516686Y-59203619D01*
X50538268Y-59245976D01*
X50538273Y-59245984D01*
X50665020Y-59420435D01*
X50817508Y-59572923D01*
X50991959Y-59699670D01*
X50991962Y-59699671D01*
X51184102Y-59797572D01*
X51389189Y-59864209D01*
X51460000Y-59875424D01*
X51460000Y-58845653D01*
X51480339Y-58857396D01*
X51631667Y-58897944D01*
X51788333Y-58897944D01*
X51939661Y-58857396D01*
X51960000Y-58845653D01*
X51960000Y-59875424D01*
X52030809Y-59864209D01*
X52030811Y-59864209D01*
X52235897Y-59797572D01*
X52428037Y-59699671D01*
X52428040Y-59699670D01*
X52602491Y-59572923D01*
X52754979Y-59420435D01*
X52881726Y-59245984D01*
X52881730Y-59245977D01*
X52903310Y-59203623D01*
X52954917Y-59146305D01*
X53028270Y-59122469D01*
X53103713Y-59138504D01*
X53159914Y-59189106D01*
X53159930Y-59189095D01*
X53159981Y-59189166D01*
X53161031Y-59190111D01*
X53163107Y-59193400D01*
X53163372Y-59193833D01*
X53221201Y-59273427D01*
X53280917Y-59355619D01*
X53422325Y-59497027D01*
X53507801Y-59559129D01*
X53584110Y-59614571D01*
X53584111Y-59614572D01*
X53762294Y-59705362D01*
X53952484Y-59767158D01*
X53952484Y-59767159D01*
X53952489Y-59767159D01*
X53952490Y-59767160D01*
X54150009Y-59798444D01*
X54150013Y-59798444D01*
X54349987Y-59798444D01*
X54349991Y-59798444D01*
X54547510Y-59767160D01*
X54547511Y-59767159D01*
X54547515Y-59767159D01*
X54547515Y-59767158D01*
X54737703Y-59705363D01*
X54915887Y-59614573D01*
X55077675Y-59497027D01*
X55219083Y-59355619D01*
X55278800Y-59273424D01*
X55338738Y-59224888D01*
X55414916Y-59212822D01*
X55486921Y-59240462D01*
X55535460Y-59300402D01*
X55542425Y-59319435D01*
X55568255Y-59408341D01*
X55590598Y-59446120D01*
X55651919Y-59549809D01*
X55768135Y-59666025D01*
X55909602Y-59749688D01*
X56067428Y-59795541D01*
X56067427Y-59795541D01*
X56067431Y-59795542D01*
X56104306Y-59798444D01*
X56104313Y-59798444D01*
X57475687Y-59798444D01*
X57475694Y-59798444D01*
X57512569Y-59795542D01*
X57670398Y-59749688D01*
X57811865Y-59666025D01*
X57928081Y-59549809D01*
X58011744Y-59408342D01*
X58057598Y-59250513D01*
X58060500Y-59213638D01*
X58060500Y-57392250D01*
X58057598Y-57355375D01*
X58011744Y-57197546D01*
X57928081Y-57056079D01*
X57811865Y-56939863D01*
X57732307Y-56892813D01*
X57670400Y-56856201D01*
X57670399Y-56856200D01*
X57670398Y-56856200D01*
X57571176Y-56827373D01*
X57512571Y-56810346D01*
X57512572Y-56810346D01*
X57501506Y-56809475D01*
X57475694Y-56807444D01*
X56104306Y-56807444D01*
X56079722Y-56809378D01*
X56067428Y-56810346D01*
X55909599Y-56856201D01*
X55768136Y-56939862D01*
X55768133Y-56939864D01*
X55651920Y-57056077D01*
X55651918Y-57056080D01*
X55568256Y-57197545D01*
X55542425Y-57286453D01*
X55502470Y-57352425D01*
X55434882Y-57389580D01*
X55357770Y-57387964D01*
X55291798Y-57348009D01*
X55278799Y-57332461D01*
X55245372Y-57286453D01*
X55219083Y-57250269D01*
X55077675Y-57108861D01*
X54973212Y-57032964D01*
X54915889Y-56991316D01*
X54915888Y-56991315D01*
X54737705Y-56900525D01*
X54547515Y-56838729D01*
X54547515Y-56838728D01*
X54437777Y-56821348D01*
X54349991Y-56807444D01*
X54150009Y-56807444D01*
X54071001Y-56819957D01*
X53952484Y-56838728D01*
X53952484Y-56838729D01*
X53762294Y-56900525D01*
X53584111Y-56991315D01*
X53584110Y-56991316D01*
X53422334Y-57108854D01*
X53422323Y-57108863D01*
X53280919Y-57250267D01*
X53280910Y-57250278D01*
X53163373Y-57412054D01*
X53163112Y-57412480D01*
X53162956Y-57412627D01*
X53159930Y-57416793D01*
X53159157Y-57416231D01*
X53107162Y-57465569D01*
X53032164Y-57483571D01*
X52958214Y-57461662D01*
X52905125Y-57405712D01*
X52903312Y-57402267D01*
X52881727Y-57359906D01*
X52881726Y-57359903D01*
X52754979Y-57185452D01*
X52602491Y-57032964D01*
X52428040Y-56906217D01*
X52428037Y-56906216D01*
X52235897Y-56808315D01*
X52030814Y-56741679D01*
X52030809Y-56741678D01*
X51960000Y-56730461D01*
X51960000Y-57760234D01*
X51939661Y-57748492D01*
X51788333Y-57707944D01*
X51631667Y-57707944D01*
X51480339Y-57748492D01*
X51460000Y-57760234D01*
X51460000Y-56730461D01*
X51389190Y-56741678D01*
X51389185Y-56741679D01*
X51184102Y-56808315D01*
X50991962Y-56906216D01*
X50991959Y-56906217D01*
X50817508Y-57032964D01*
X50665020Y-57185452D01*
X50538273Y-57359903D01*
X50538268Y-57359912D01*
X50516685Y-57402270D01*
X50465075Y-57459586D01*
X50391722Y-57483418D01*
X50316279Y-57467380D01*
X50260086Y-57416781D01*
X50260070Y-57416793D01*
X50260014Y-57416717D01*
X50258963Y-57415770D01*
X50256877Y-57412463D01*
X50256634Y-57412067D01*
X50256629Y-57412057D01*
X50139083Y-57250269D01*
X49997675Y-57108861D01*
X49893212Y-57032964D01*
X49835889Y-56991316D01*
X49835888Y-56991315D01*
X49657705Y-56900525D01*
X49467515Y-56838729D01*
X49467515Y-56838728D01*
X49357777Y-56821348D01*
X49269991Y-56807444D01*
X49070009Y-56807444D01*
X48991001Y-56819957D01*
X48872484Y-56838728D01*
X48872484Y-56838729D01*
X48682294Y-56900525D01*
X48504111Y-56991315D01*
X48504110Y-56991316D01*
X48342334Y-57108854D01*
X48342323Y-57108863D01*
X48200919Y-57250267D01*
X48200910Y-57250278D01*
X48083372Y-57412054D01*
X48083371Y-57412055D01*
X47992581Y-57590238D01*
X47930785Y-57780428D01*
X47930784Y-57780428D01*
X47918892Y-57855515D01*
X47899500Y-57977953D01*
X40462026Y-57977953D01*
X40497598Y-57855513D01*
X40500500Y-57818638D01*
X40500500Y-56787250D01*
X40497598Y-56750375D01*
X40451744Y-56592546D01*
X40368081Y-56451079D01*
X40251865Y-56334863D01*
X40110398Y-56251200D01*
X40013200Y-56222961D01*
X39952571Y-56205346D01*
X39952572Y-56205346D01*
X39941506Y-56204475D01*
X39915694Y-56202444D01*
X39134306Y-56202444D01*
X39109722Y-56204378D01*
X39097428Y-56205346D01*
X38939599Y-56251201D01*
X38798136Y-56334862D01*
X38798133Y-56334864D01*
X38681920Y-56451077D01*
X38676173Y-56458487D01*
X38673593Y-56456485D01*
X38630612Y-56498522D01*
X38555894Y-56517655D01*
X38481621Y-56496865D01*
X38430734Y-56446884D01*
X38392321Y-56384606D01*
X38392319Y-56384603D01*
X38268340Y-56260624D01*
X38119121Y-56168586D01*
X37952697Y-56113438D01*
X37952688Y-56113436D01*
X37849989Y-56102944D01*
X37725000Y-56102944D01*
X37725000Y-58502943D01*
X37849974Y-58502943D01*
X37952696Y-58492449D01*
X38119121Y-58437301D01*
X38268340Y-58345263D01*
X38392319Y-58221284D01*
X38392319Y-58221283D01*
X38430733Y-58159004D01*
X38486833Y-58106074D01*
X38561882Y-58088286D01*
X38635770Y-58110405D01*
X38673859Y-58149195D01*
X38676173Y-58147401D01*
X38681920Y-58154810D01*
X38798133Y-58271023D01*
X38798139Y-58271028D01*
X38897997Y-58330083D01*
X38951961Y-58385189D01*
X38971143Y-58459893D01*
X38961469Y-58511169D01*
X38914861Y-58634067D01*
X38914861Y-58634069D01*
X38914860Y-58634072D01*
X38894355Y-58802944D01*
X38914860Y-58971818D01*
X38975181Y-59130873D01*
X38985833Y-59146305D01*
X39071817Y-59270873D01*
X39071819Y-59270874D01*
X39071820Y-59270876D01*
X39199146Y-59383676D01*
X39199148Y-59383678D01*
X39349775Y-59462734D01*
X39512915Y-59502944D01*
X39500000Y-59502944D01*
X39500000Y-67502944D01*
X44390103Y-67502944D01*
X38415929Y-73477119D01*
X38349134Y-73515683D01*
X38272006Y-73515683D01*
X38205211Y-73477119D01*
X38175533Y-73434734D01*
X38124488Y-73325268D01*
X37996977Y-73143163D01*
X37839781Y-72985967D01*
X37778044Y-72942738D01*
X37675694Y-72871071D01*
X37626118Y-72811987D01*
X37612725Y-72736031D01*
X37639105Y-72663554D01*
X37690243Y-72617976D01*
X37771884Y-72573795D01*
X37797421Y-72553918D01*
X37226977Y-71983474D01*
X37249661Y-71977396D01*
X37385338Y-71899062D01*
X37496118Y-71788282D01*
X37574452Y-71652605D01*
X37580530Y-71629920D01*
X38149513Y-72198902D01*
X38229008Y-72077224D01*
X38229010Y-72077221D01*
X38320209Y-71869309D01*
X38375946Y-71649206D01*
X38394695Y-71422945D01*
X38394695Y-71422942D01*
X38375946Y-71196681D01*
X38320209Y-70976578D01*
X38229007Y-70768659D01*
X38149513Y-70646983D01*
X37580529Y-71215966D01*
X37574452Y-71193283D01*
X37496118Y-71057606D01*
X37385338Y-70946826D01*
X37249661Y-70868492D01*
X37226974Y-70862413D01*
X37797421Y-70291967D01*
X37796413Y-70275733D01*
X37811718Y-70200139D01*
X37862771Y-70142325D01*
X37909166Y-70121902D01*
X37969818Y-70106819D01*
X38132627Y-70026073D01*
X38274272Y-69912216D01*
X38388129Y-69770571D01*
X38468875Y-69607762D01*
X38512733Y-69431402D01*
X38515500Y-69390599D01*
X38515499Y-68375290D01*
X38512733Y-68334486D01*
X38468875Y-68158126D01*
X38388129Y-67995317D01*
X38274272Y-67853672D01*
X38132627Y-67739815D01*
X38132623Y-67739813D01*
X38132622Y-67739812D01*
X37969818Y-67659069D01*
X37793454Y-67615210D01*
X37793455Y-67615210D01*
X37769179Y-67613564D01*
X37752655Y-67612444D01*
X37752647Y-67612444D01*
X36287351Y-67612444D01*
X36246540Y-67615211D01*
X36070181Y-67659069D01*
X35907377Y-67739812D01*
X35907373Y-67739814D01*
X35907373Y-67739815D01*
X35765728Y-67853672D01*
X35713035Y-67919226D01*
X35651868Y-67995321D01*
X35571125Y-68158125D01*
X35527266Y-68334489D01*
X35525834Y-68355619D01*
X35525156Y-68365623D01*
X35524500Y-68375296D01*
X35524500Y-69390592D01*
X35527267Y-69431403D01*
X35571125Y-69607762D01*
X35651868Y-69770566D01*
X35651869Y-69770567D01*
X35651871Y-69770571D01*
X35765728Y-69912216D01*
X35907373Y-70026073D01*
X36070182Y-70106819D01*
X36130830Y-70121901D01*
X36198311Y-70159252D01*
X36238075Y-70225340D01*
X36243586Y-70275731D01*
X36242577Y-70291967D01*
X36813023Y-70862413D01*
X36790339Y-70868492D01*
X36654662Y-70946826D01*
X36543882Y-71057606D01*
X36465548Y-71193283D01*
X36459469Y-71215967D01*
X35890486Y-70646984D01*
X35890485Y-70646984D01*
X35810992Y-70768659D01*
X35719790Y-70976578D01*
X35664053Y-71196681D01*
X35645305Y-71422942D01*
X35645305Y-71422945D01*
X35664053Y-71649206D01*
X35719790Y-71869309D01*
X35810992Y-72077228D01*
X35890486Y-72198902D01*
X36459469Y-71629918D01*
X36465548Y-71652605D01*
X36543882Y-71788282D01*
X36654662Y-71899062D01*
X36790339Y-71977396D01*
X36813022Y-71983474D01*
X36242578Y-72553919D01*
X36268112Y-72573792D01*
X36268115Y-72573794D01*
X36349757Y-72617976D01*
X36405778Y-72670990D01*
X36427785Y-72744912D01*
X36409884Y-72819933D01*
X36364306Y-72871071D01*
X36200218Y-72985967D01*
X36043024Y-73143161D01*
X35915513Y-73325266D01*
X35915512Y-73325267D01*
X35821560Y-73526747D01*
X35764021Y-73741481D01*
X35744647Y-73962943D01*
X35744647Y-73962944D01*
X35764022Y-74184408D01*
X35764023Y-74184417D01*
X35765969Y-74191679D01*
X35765965Y-74268807D01*
X35727403Y-74335593D01*
X34794725Y-75268272D01*
X34794718Y-75268280D01*
X34727814Y-75368412D01*
X34727812Y-75368416D01*
X34723536Y-75374814D01*
X34723535Y-75374815D01*
X34674498Y-75493201D01*
X34649500Y-75618871D01*
X33500000Y-75618871D01*
X33500000Y-57802917D01*
X36400001Y-57802917D01*
X36410494Y-57905640D01*
X36465642Y-58072065D01*
X36557680Y-58221284D01*
X36681659Y-58345263D01*
X36830878Y-58437301D01*
X36997302Y-58492449D01*
X36997311Y-58492451D01*
X37100015Y-58502943D01*
X37224999Y-58502943D01*
X37225000Y-58502942D01*
X37225000Y-57552944D01*
X36400001Y-57552944D01*
X36400001Y-57802917D01*
X33500000Y-57802917D01*
X33500000Y-56802954D01*
X36400000Y-56802954D01*
X36400000Y-57052944D01*
X37225000Y-57052944D01*
X37225000Y-56102944D01*
X37100026Y-56102944D01*
X36997303Y-56113438D01*
X36830878Y-56168586D01*
X36681659Y-56260624D01*
X36557680Y-56384603D01*
X36465642Y-56533822D01*
X36410494Y-56700246D01*
X36410492Y-56700255D01*
X36400000Y-56802954D01*
X33500000Y-56802954D01*
X33500000Y-56387533D01*
X33500004Y-56386487D01*
X33501152Y-56222935D01*
X33501445Y-56214611D01*
X33511561Y-56054581D01*
X33512196Y-56047353D01*
X33520751Y-55971435D01*
X33521913Y-55963215D01*
X33576131Y-55644152D01*
X33579849Y-55627863D01*
X33668277Y-55320942D01*
X33673790Y-55305186D01*
X33796049Y-55010036D01*
X33799465Y-55002944D01*
X54894355Y-55002944D01*
X54914860Y-55171818D01*
X54975181Y-55330873D01*
X54975182Y-55330874D01*
X55071817Y-55470873D01*
X55071819Y-55470874D01*
X55071820Y-55470876D01*
X55199146Y-55583676D01*
X55199148Y-55583678D01*
X55349775Y-55662734D01*
X55514944Y-55703444D01*
X55685056Y-55703444D01*
X55850225Y-55662734D01*
X56000852Y-55583678D01*
X56128183Y-55470873D01*
X56224818Y-55330874D01*
X56285140Y-55171816D01*
X56305645Y-55002944D01*
X56285140Y-54834072D01*
X56270498Y-54795465D01*
X56224818Y-54675014D01*
X56200883Y-54640339D01*
X56128183Y-54535015D01*
X56128180Y-54535012D01*
X56128179Y-54535011D01*
X56007092Y-54427738D01*
X56000853Y-54422211D01*
X56000854Y-54422211D01*
X55850224Y-54343153D01*
X55685056Y-54302444D01*
X55514944Y-54302444D01*
X55349775Y-54343153D01*
X55199145Y-54422211D01*
X55071820Y-54535011D01*
X55071817Y-54535015D01*
X54975181Y-54675014D01*
X54914860Y-54834069D01*
X54894355Y-55002944D01*
X33799465Y-55002944D01*
X33803277Y-54995029D01*
X33957803Y-54715441D01*
X33966685Y-54701305D01*
X34151535Y-54440786D01*
X34161940Y-54427738D01*
X34374806Y-54189542D01*
X34386605Y-54177744D01*
X34624787Y-53964893D01*
X34637841Y-53954481D01*
X34898360Y-53769631D01*
X34912491Y-53760752D01*
X35192068Y-53606232D01*
X35207108Y-53598990D01*
X35502224Y-53476744D01*
X35517981Y-53471231D01*
X35518356Y-53471123D01*
X35824927Y-53382795D01*
X35841208Y-53379080D01*
X35876460Y-53373089D01*
X36160245Y-53324867D01*
X36168507Y-53323700D01*
X36244420Y-53315145D01*
X36251622Y-53314512D01*
X36411690Y-53304390D01*
X36419987Y-53304099D01*
X36581106Y-53302965D01*
X36583613Y-53302948D01*
X36584661Y-53302944D01*
X87851000Y-53302944D01*
X87925500Y-53322906D01*
G37*
%TD.AperFunction*%
%TA.AperFunction,Conductor*%
G36*
X92304047Y-83573406D02*
G01*
X92334906Y-83597085D01*
X94038824Y-85301003D01*
X94077388Y-85367798D01*
X94081748Y-85420965D01*
X94074659Y-85492943D01*
X94093976Y-85689078D01*
X94130716Y-85810191D01*
X94133240Y-85887278D01*
X94096882Y-85955299D01*
X94031385Y-85996028D01*
X93988132Y-86002444D01*
X93060454Y-86002444D01*
X92985954Y-85982482D01*
X92955095Y-85958803D01*
X91939015Y-84942724D01*
X91939013Y-84942721D01*
X91818715Y-84822423D01*
X91731906Y-84772305D01*
X91731905Y-84772304D01*
X91681786Y-84743367D01*
X91529057Y-84702443D01*
X91370943Y-84702443D01*
X91361814Y-84702443D01*
X91361798Y-84702444D01*
X91100968Y-84702444D01*
X91026468Y-84682482D01*
X90971930Y-84627944D01*
X90951968Y-84553444D01*
X90958384Y-84510191D01*
X90959377Y-84506920D01*
X90986024Y-84419076D01*
X91005341Y-84222944D01*
X90986024Y-84026812D01*
X90928814Y-83838217D01*
X90912831Y-83808315D01*
X90893785Y-83772681D01*
X90876272Y-83697568D01*
X90898661Y-83623761D01*
X90954955Y-83571037D01*
X91025192Y-83553444D01*
X92229547Y-83553444D01*
X92304047Y-83573406D01*
G37*
%TD.AperFunction*%
%TA.AperFunction,Conductor*%
G36*
X92294047Y-81023406D02*
G01*
X92324906Y-81047085D01*
X94038824Y-82761004D01*
X94077388Y-82827799D01*
X94081748Y-82880967D01*
X94074659Y-82952943D01*
X94093976Y-83149080D01*
X94142768Y-83309923D01*
X94145292Y-83387009D01*
X94108934Y-83455030D01*
X94043436Y-83495759D01*
X93966350Y-83498283D01*
X93898329Y-83461925D01*
X93894825Y-83458534D01*
X93029015Y-82592724D01*
X93029013Y-82592721D01*
X92908715Y-82472423D01*
X92819563Y-82420952D01*
X92771785Y-82393367D01*
X92771782Y-82393366D01*
X92619057Y-82352443D01*
X92460943Y-82352443D01*
X92451814Y-82352443D01*
X92451798Y-82352444D01*
X91025192Y-82352444D01*
X90950692Y-82332482D01*
X90896154Y-82277944D01*
X90876192Y-82203444D01*
X90893785Y-82133207D01*
X90926387Y-82072211D01*
X90928814Y-82067671D01*
X90986024Y-81879076D01*
X91005341Y-81682944D01*
X90986024Y-81486812D01*
X90928814Y-81298217D01*
X90928813Y-81298216D01*
X90928813Y-81298214D01*
X90888440Y-81222683D01*
X90870926Y-81147569D01*
X90893315Y-81073762D01*
X90949607Y-81021038D01*
X91019846Y-81003444D01*
X92219547Y-81003444D01*
X92294047Y-81023406D01*
G37*
%TD.AperFunction*%
%TA.AperFunction,Conductor*%
G36*
X80335224Y-76553406D02*
G01*
X80389762Y-76607944D01*
X80401362Y-76633232D01*
X80407378Y-76650423D01*
X80504849Y-76805548D01*
X80634396Y-76935095D01*
X80762596Y-77015648D01*
X80780316Y-77026782D01*
X80832776Y-77083321D01*
X80849939Y-77158515D01*
X80827205Y-77232217D01*
X80780316Y-77279106D01*
X80634395Y-77370793D01*
X80634395Y-77370794D01*
X80504850Y-77500339D01*
X80504849Y-77500339D01*
X80493310Y-77518704D01*
X80436770Y-77571163D01*
X80361575Y-77588325D01*
X80287874Y-77565590D01*
X80261790Y-77544788D01*
X79564669Y-76847667D01*
X79502809Y-76806334D01*
X79451954Y-76748346D01*
X79436907Y-76672700D01*
X79461698Y-76599665D01*
X79519686Y-76548810D01*
X79585588Y-76533444D01*
X80260724Y-76533444D01*
X80335224Y-76553406D01*
G37*
%TD.AperFunction*%
%TD*%
%TA.AperFunction,Conductor*%
%TO.N,GND*%
G36*
X112500000Y-67302944D02*
G01*
X104500000Y-67302944D01*
X104500000Y-62302944D01*
X105500000Y-62302944D01*
X105500000Y-59302944D01*
X112500000Y-59302944D01*
X112500000Y-67302944D01*
G37*
%TD.AperFunction*%
%TD*%
M02*
