%TF.GenerationSoftware,KiCad,Pcbnew,8.0.3*%
%TF.CreationDate,2024-06-26T22:05:55-03:00*%
%TF.ProjectId,PECDR,50454344-522e-46b6-9963-61645f706362,rev?*%
%TF.SameCoordinates,Original*%
%TF.FileFunction,Copper,L3,Inr*%
%TF.FilePolarity,Positive*%
%FSLAX46Y46*%
G04 Gerber Fmt 4.6, Leading zero omitted, Abs format (unit mm)*
G04 Created by KiCad (PCBNEW 8.0.3) date 2024-06-26 22:05:55*
%MOMM*%
%LPD*%
G01*
G04 APERTURE LIST*
G04 Aperture macros list*
%AMRoundRect*
0 Rectangle with rounded corners*
0 $1 Rounding radius*
0 $2 $3 $4 $5 $6 $7 $8 $9 X,Y pos of 4 corners*
0 Add a 4 corners polygon primitive as box body*
4,1,4,$2,$3,$4,$5,$6,$7,$8,$9,$2,$3,0*
0 Add four circle primitives for the rounded corners*
1,1,$1+$1,$2,$3*
1,1,$1+$1,$4,$5*
1,1,$1+$1,$6,$7*
1,1,$1+$1,$8,$9*
0 Add four rect primitives between the rounded corners*
20,1,$1+$1,$2,$3,$4,$5,0*
20,1,$1+$1,$4,$5,$6,$7,0*
20,1,$1+$1,$6,$7,$8,$9,0*
20,1,$1+$1,$8,$9,$2,$3,0*%
G04 Aperture macros list end*
%TA.AperFunction,ComponentPad*%
%ADD10RoundRect,0.250000X0.620000X0.845000X-0.620000X0.845000X-0.620000X-0.845000X0.620000X-0.845000X0*%
%TD*%
%TA.AperFunction,ComponentPad*%
%ADD11O,1.740000X2.190000*%
%TD*%
%TA.AperFunction,ComponentPad*%
%ADD12C,0.800000*%
%TD*%
%TA.AperFunction,ComponentPad*%
%ADD13C,6.400000*%
%TD*%
%TA.AperFunction,ComponentPad*%
%ADD14C,1.700000*%
%TD*%
%TA.AperFunction,ComponentPad*%
%ADD15O,1.700000X1.700000*%
%TD*%
%TA.AperFunction,ComponentPad*%
%ADD16C,1.740000*%
%TD*%
%TA.AperFunction,ComponentPad*%
%ADD17RoundRect,0.435000X0.660000X-0.435000X0.660000X0.435000X-0.660000X0.435000X-0.660000X-0.435000X0*%
%TD*%
%TA.AperFunction,ComponentPad*%
%ADD18C,1.300000*%
%TD*%
%TA.AperFunction,ComponentPad*%
%ADD19C,1.800000*%
%TD*%
%TA.AperFunction,ComponentPad*%
%ADD20C,1.200000*%
%TD*%
%TA.AperFunction,ComponentPad*%
%ADD21C,2.500000*%
%TD*%
%TA.AperFunction,ComponentPad*%
%ADD22R,1.700000X1.700000*%
%TD*%
%TA.AperFunction,ViaPad*%
%ADD23C,0.600000*%
%TD*%
%TA.AperFunction,Conductor*%
%ADD24C,1.500000*%
%TD*%
%TA.AperFunction,Conductor*%
%ADD25C,2.350000*%
%TD*%
%TA.AperFunction,Conductor*%
%ADD26C,1.800000*%
%TD*%
G04 APERTURE END LIST*
D10*
%TO.N,/TXD1-SDA0-RX0-GP4*%
%TO.C,J5*%
X56790000Y-58302944D03*
D11*
%TO.N,/RXD1-SCL0-CS0-GP5*%
X54250000Y-58302944D03*
%TO.N,GND*%
X51710000Y-58302944D03*
%TO.N,+3V3*%
X49170000Y-58302944D03*
%TD*%
D12*
%TO.N,/A*%
%TO.C,J14*%
X111100000Y-80302944D03*
X111802944Y-78605888D03*
X111802944Y-82000000D03*
X113500000Y-77902944D03*
D13*
X113500000Y-80302944D03*
D12*
X113500000Y-82702944D03*
X115197056Y-78605888D03*
X115197056Y-82000000D03*
X115900000Y-80302944D03*
%TD*%
D14*
%TO.N,+3V3*%
%TO.C,J16*%
X98000000Y-65802944D03*
D15*
%TO.N,VS*%
X100540000Y-65802944D03*
%TO.N,VCC*%
X103080000Y-65802944D03*
%TD*%
D16*
%TO.N,unconnected-(J7-Pin_1-Pad1)*%
%TO.C,J7*%
X37020000Y-91822944D03*
%TO.N,+3V3*%
X37020000Y-89282944D03*
%TO.N,/IN1*%
X37020000Y-86742944D03*
%TO.N,GND*%
X37020000Y-84202944D03*
%TD*%
D12*
%TO.N,/OUT4*%
%TO.C,J2*%
X99100000Y-102302944D03*
X99802944Y-100605888D03*
X99802944Y-104000000D03*
X101500000Y-99902944D03*
D13*
X101500000Y-102302944D03*
D12*
X101500000Y-104702944D03*
X103197056Y-100605888D03*
X103197056Y-104000000D03*
X103900000Y-102302944D03*
%TD*%
D10*
%TO.N,/TXD0-SDA0-RX1-GP12*%
%TO.C,J11*%
X56790000Y-103302944D03*
D11*
%TO.N,/RXD0-SCL0-CS1-GP13*%
X54250000Y-103302944D03*
%TO.N,GND*%
X51710000Y-103302944D03*
%TO.N,+3V3*%
X49170000Y-103302944D03*
%TD*%
D10*
%TO.N,/SDA1-SCK1-GP10*%
%TO.C,J10*%
X56790000Y-94302944D03*
D11*
%TO.N,/SCL1-TX1-GP11*%
X54250000Y-94302944D03*
%TO.N,GND*%
X51710000Y-94302944D03*
%TO.N,+3V3*%
X49170000Y-94302944D03*
%TD*%
D12*
%TO.N,/OUT1*%
%TO.C,J3*%
X99100000Y-58302944D03*
X99802944Y-56605888D03*
X99802944Y-60000000D03*
X101500000Y-55902944D03*
D13*
X101500000Y-58302944D03*
D12*
X101500000Y-60702944D03*
X103197056Y-56605888D03*
X103197056Y-60000000D03*
X103900000Y-58302944D03*
%TD*%
%TO.N,/B*%
%TO.C,J15*%
X111100000Y-88802944D03*
X111802944Y-87105888D03*
X111802944Y-90500000D03*
X113500000Y-86402944D03*
D13*
X113500000Y-88802944D03*
D12*
X113500000Y-91202944D03*
X115197056Y-87105888D03*
X115197056Y-90500000D03*
X115900000Y-88802944D03*
%TD*%
%TO.N,GND*%
%TO.C,J13*%
X45900000Y-97302944D03*
X45197056Y-99000000D03*
X45197056Y-95605888D03*
X43500000Y-99702944D03*
D13*
X43500000Y-97302944D03*
D12*
X43500000Y-94902944D03*
X41802944Y-99000000D03*
X41802944Y-95605888D03*
X41100000Y-97302944D03*
%TD*%
D10*
%TO.N,/TXD1-SDA0-RX0-GP4*%
%TO.C,J6*%
X56790000Y-67302944D03*
D11*
%TO.N,/RXD1-SCL0-CS0-GP5*%
X54250000Y-67302944D03*
%TO.N,GND*%
X51710000Y-67302944D03*
%TO.N,+3V3*%
X49170000Y-67302944D03*
%TD*%
D12*
%TO.N,GND*%
%TO.C,J13*%
X110900000Y-97302944D03*
X110197056Y-99000000D03*
X110197056Y-95605888D03*
X108500000Y-99702944D03*
D13*
X108500000Y-97302944D03*
D12*
X108500000Y-94902944D03*
X106802944Y-99000000D03*
X106802944Y-95605888D03*
X106100000Y-97302944D03*
%TD*%
D10*
%TO.N,/GP26-ADC0-SDA1*%
%TO.C,J9*%
X56790000Y-85302944D03*
D11*
%TO.N,/GP27-ADC1-SCL1*%
X54250000Y-85302944D03*
%TO.N,GND*%
X51710000Y-85302944D03*
%TO.N,+3V3*%
X49170000Y-85302944D03*
%TD*%
D12*
%TO.N,GND*%
%TO.C,J13*%
X45900000Y-63302944D03*
X45197056Y-65000000D03*
X45197056Y-61605888D03*
X43500000Y-65702944D03*
D13*
X43500000Y-63302944D03*
D12*
X43500000Y-60902944D03*
X41802944Y-65000000D03*
X41802944Y-61605888D03*
X41100000Y-63302944D03*
%TD*%
D16*
%TO.N,/SDA1-SCK0-GP2*%
%TO.C,J17*%
X37020000Y-76502944D03*
%TO.N,/SCL1-TX0-GP3*%
X37020000Y-73962944D03*
%TO.N,GND*%
X37020000Y-71422944D03*
D17*
%TO.N,+3V3*%
X37020000Y-68882944D03*
%TD*%
D12*
%TO.N,/OUT2*%
%TO.C,J1*%
X89600000Y-58302944D03*
X90302944Y-56605888D03*
X90302944Y-60000000D03*
X92000000Y-55902944D03*
D13*
X92000000Y-58302944D03*
D12*
X92000000Y-60702944D03*
X93697056Y-56605888D03*
X93697056Y-60000000D03*
X94400000Y-58302944D03*
%TD*%
%TO.N,/OUT3*%
%TO.C,J12*%
X89600000Y-102302944D03*
X90302944Y-100605888D03*
X90302944Y-104000000D03*
X92000000Y-99902944D03*
D13*
X92000000Y-102302944D03*
D12*
X92000000Y-104702944D03*
X93697056Y-100605888D03*
X93697056Y-104000000D03*
X94400000Y-102302944D03*
%TD*%
D18*
%TO.N,GND*%
%TO.C,U5*%
X90000000Y-71522944D03*
D19*
%TO.N,/OUT1*%
X95080000Y-72792944D03*
%TO.N,/OUT2*%
X90000000Y-74062944D03*
%TO.N,VS*%
X95080000Y-75332944D03*
D20*
%TO.N,/GP22*%
X90000000Y-76602944D03*
%TO.N,+3V3*%
X95080000Y-77872944D03*
%TO.N,/GP21*%
X90000000Y-79142944D03*
D21*
%TO.N,GND*%
X101210000Y-71422944D03*
D20*
X95080000Y-80412944D03*
D21*
X101110000Y-89422944D03*
D20*
%TO.N,+3V3*%
X90000000Y-81682944D03*
%TO.N,/GP20*%
X95080000Y-82952944D03*
%TO.N,+3V3*%
X90000000Y-84222944D03*
%TO.N,/GP19*%
X95080000Y-85492944D03*
D19*
%TO.N,/OUT3*%
X90000000Y-86762944D03*
%TO.N,/OUT4*%
X95080000Y-88032944D03*
D18*
%TO.N,GND*%
X90000000Y-89302944D03*
%TD*%
D12*
%TO.N,VCC*%
%TO.C,J4*%
X111100000Y-71802944D03*
X111802944Y-70105888D03*
X111802944Y-73500000D03*
X113500000Y-69402944D03*
D13*
X113500000Y-71802944D03*
D12*
X113500000Y-74202944D03*
X115197056Y-70105888D03*
X115197056Y-73500000D03*
X115900000Y-71802944D03*
%TD*%
D10*
%TO.N,/ADC2*%
%TO.C,J8*%
X56790000Y-76302944D03*
D11*
%TO.N,/IN2*%
X54250000Y-76302944D03*
%TO.N,GND*%
X51710000Y-76302944D03*
%TO.N,+3V3*%
X49170000Y-76302944D03*
%TD*%
D12*
%TO.N,GND*%
%TO.C,J13*%
X110900000Y-63302944D03*
X110197056Y-65000000D03*
X110197056Y-61605888D03*
X108500000Y-65702944D03*
D13*
X108500000Y-63302944D03*
D12*
X108500000Y-60902944D03*
X106802944Y-65000000D03*
X106802944Y-61605888D03*
X106100000Y-63302944D03*
%TD*%
D22*
%TO.N,GND*%
%TO.C,JP1*%
X85500000Y-77062944D03*
D15*
%TO.N,/RUN*%
X85500000Y-79602944D03*
%TD*%
D23*
%TO.N,GND*%
X104300000Y-89902944D03*
X47500000Y-80552944D03*
X51250000Y-89302944D03*
X72250000Y-64552944D03*
X40000000Y-70802944D03*
X93100000Y-75302944D03*
X51750000Y-61302944D03*
X75500000Y-86302944D03*
X89100000Y-70302944D03*
X100750000Y-93802944D03*
X79800000Y-79602944D03*
X88500000Y-93552944D03*
X74500000Y-75302944D03*
X106500000Y-82702944D03*
X117500000Y-55802944D03*
X115000000Y-63302944D03*
X115000000Y-105802944D03*
X90700000Y-67502944D03*
X43500000Y-79302944D03*
X90000000Y-91802944D03*
X108000000Y-76302944D03*
X63500000Y-86302944D03*
X47250000Y-59802944D03*
X109100000Y-81502944D03*
X58700000Y-60702944D03*
X87300000Y-78102944D03*
X115000000Y-65802944D03*
X84100000Y-98702944D03*
X42500000Y-55802944D03*
X72250000Y-66052944D03*
X110000000Y-58302944D03*
X84300000Y-68302944D03*
X108000000Y-92552944D03*
X50750000Y-78052944D03*
X58500000Y-72102944D03*
X112500000Y-60802944D03*
X117500000Y-95802944D03*
X90700000Y-64702944D03*
X69500000Y-82302944D03*
X50250000Y-104802944D03*
X70000000Y-66052944D03*
X68100000Y-65302944D03*
X77500000Y-86302944D03*
X78400000Y-75002944D03*
X86250000Y-105302944D03*
X71100000Y-66102944D03*
X79250000Y-58302944D03*
X35000000Y-55802944D03*
X69500000Y-86302944D03*
X112500000Y-95802944D03*
X67500000Y-82302944D03*
X84100000Y-86002944D03*
X40000000Y-83302944D03*
X41250000Y-104802944D03*
X43500000Y-90302944D03*
X74300000Y-62302944D03*
X83700000Y-74702944D03*
X112500000Y-100802944D03*
X83700000Y-69602944D03*
X92500000Y-82102944D03*
X112500000Y-103302944D03*
X117500000Y-58302944D03*
X107500000Y-103302944D03*
X88100000Y-89302944D03*
X58500000Y-98702944D03*
X112500000Y-93302944D03*
X79500000Y-86302944D03*
X79900000Y-98802944D03*
X112500000Y-65802944D03*
X71100000Y-64502944D03*
X50750000Y-83302944D03*
X63500000Y-82302944D03*
X67500000Y-74302944D03*
X84500000Y-73302944D03*
X80300000Y-77302944D03*
X92300000Y-84502944D03*
X35000000Y-60802944D03*
X105500000Y-93302944D03*
X65500000Y-69302944D03*
X110000000Y-105802944D03*
X74500000Y-71302944D03*
X117500000Y-60802944D03*
X110000000Y-55802944D03*
X74500000Y-77302944D03*
X115000000Y-93302944D03*
X57600000Y-80802944D03*
X84000000Y-78302944D03*
X37500000Y-63302944D03*
X117500000Y-100802944D03*
X62700000Y-71902944D03*
X35000000Y-58302944D03*
X102900000Y-91502944D03*
X107500000Y-55802944D03*
X103900000Y-77302944D03*
X73500000Y-86302944D03*
X70000000Y-64552944D03*
X67700000Y-57302944D03*
X74750000Y-59802944D03*
X112500000Y-98302944D03*
X53000000Y-73802944D03*
X117500000Y-65802944D03*
X117500000Y-93302944D03*
X51700000Y-69202944D03*
X78500000Y-83802944D03*
X86250000Y-95802944D03*
X37500000Y-60802944D03*
X117500000Y-103302944D03*
X47250000Y-100802944D03*
X76500000Y-73302944D03*
X71500000Y-86302944D03*
X117500000Y-63302944D03*
X65500000Y-86302944D03*
X63100000Y-98702944D03*
X97750000Y-92802944D03*
X63300000Y-60702944D03*
X112500000Y-58302944D03*
X102500000Y-75302944D03*
X74500000Y-79302944D03*
X83700000Y-77102944D03*
X83700000Y-72002944D03*
X67500000Y-86302944D03*
X67500000Y-78302944D03*
X58600000Y-86502944D03*
X86500000Y-65302944D03*
X35700000Y-98602944D03*
X107500000Y-105802944D03*
X79700000Y-68302944D03*
X35000000Y-70802944D03*
X112500000Y-63302944D03*
X63600000Y-78102944D03*
X51000000Y-97802944D03*
X112500000Y-55802944D03*
X47500000Y-83302944D03*
X110000000Y-103302944D03*
X115000000Y-55802944D03*
X110000000Y-93302944D03*
X112500000Y-105802944D03*
X105250000Y-75552944D03*
X83900000Y-61902944D03*
X35000000Y-63302944D03*
X35500000Y-105802944D03*
X79100000Y-63102944D03*
X46400000Y-72802944D03*
X78500000Y-71302944D03*
X65500000Y-82302944D03*
X47250000Y-89802944D03*
X40000000Y-101052944D03*
X117500000Y-98302944D03*
%TO.N,+3V3*%
X55600000Y-55002944D03*
X101075000Y-77827944D03*
X86100000Y-67702944D03*
X84100000Y-65702944D03*
%TO.N,VCC*%
X109500000Y-69302944D03*
X107500000Y-69302944D03*
X116500000Y-75052944D03*
X85750000Y-63302944D03*
X116500000Y-68802944D03*
X107500000Y-71302944D03*
X105500000Y-68302944D03*
X109500000Y-71302944D03*
X109500000Y-73302944D03*
%TO.N,/OUT1*%
X98000000Y-61802944D03*
X95080000Y-70682944D03*
X95080000Y-65882944D03*
%TO.N,/OUT2*%
X92600000Y-66002944D03*
X92300000Y-72702944D03*
%TO.N,/OUT3*%
X92700000Y-97102944D03*
X92300000Y-90202944D03*
%TO.N,/OUT4*%
X95080000Y-92282944D03*
X97400000Y-97702944D03*
%TO.N,/GP26-ADC0-SDA1*%
X76999500Y-77352944D03*
%TO.N,Net-(D10-A)*%
X39600000Y-58802944D03*
%TO.N,/GP27-ADC1-SCL1*%
X77300000Y-75882944D03*
%TO.N,VS*%
X101500000Y-96802944D03*
X88250000Y-60552944D03*
X89500000Y-98302944D03*
%TO.N,/ReceiverOutput*%
X104350000Y-86502944D03*
X85070711Y-101373655D03*
X82000000Y-101302944D03*
%TO.N,/InputOutputEnable*%
X102875000Y-84552944D03*
%TO.N,/DriverInput*%
X104450000Y-82652944D03*
%TO.N,/GP28-ADC2*%
X56175000Y-81902944D03*
X80350000Y-71752944D03*
X77400000Y-74702944D03*
%TO.N,/G15*%
X35750000Y-102202944D03*
%TO.N,/GP6*%
X59000000Y-75902944D03*
%TO.N,/TXD0-SDA0-RX1-GP12*%
X59000000Y-93702944D03*
%TO.N,/SDA1-SCK1-GP10*%
X56790000Y-89912944D03*
%TO.N,Net-(U2-VIN)*%
X66500000Y-64977944D03*
X70500000Y-60802944D03*
%TO.N,Net-(U2-LX)*%
X64300000Y-67802944D03*
X71800000Y-59302944D03*
%TO.N,Net-(U2-PG)*%
X75837500Y-69840444D03*
X71750000Y-69802944D03*
%TD*%
D24*
%TO.N,GND*%
X51710000Y-58302944D02*
X51710000Y-94302944D01*
%TO.N,+3V3*%
X84100000Y-65702944D02*
X86100000Y-67702944D01*
X73450000Y-55052944D02*
X84100000Y-65702944D01*
X49170000Y-58302944D02*
X49170000Y-57211774D01*
X51328830Y-55052944D02*
X73450000Y-55052944D01*
X49170000Y-57211774D02*
X51328830Y-55052944D01*
D25*
%TO.N,/OUT1*%
X95080000Y-64722944D02*
X95080000Y-72792944D01*
X101500000Y-58302944D02*
X95080000Y-64722944D01*
%TO.N,/OUT2*%
X90990000Y-74062944D02*
X92375000Y-72677944D01*
D26*
X93000000Y-59302944D02*
X92000000Y-58302944D01*
D25*
X90000000Y-74062944D02*
X90990000Y-74062944D01*
X92375000Y-58677944D02*
X92000000Y-58302944D01*
X92375000Y-72677944D02*
X92375000Y-58677944D01*
%TO.N,/OUT3*%
X90000000Y-86762944D02*
X91080000Y-86762944D01*
D26*
X93000000Y-101302944D02*
X92000000Y-102302944D01*
D25*
X92300000Y-102002944D02*
X92000000Y-102302944D01*
X91080000Y-86762944D02*
X92300000Y-87982944D01*
X92300000Y-87982944D02*
X92300000Y-102002944D01*
%TO.N,/OUT4*%
X95080000Y-88032944D02*
X95080000Y-95882944D01*
X95080000Y-95882944D02*
X101500000Y-102302944D01*
%TD*%
%TA.AperFunction,Conductor*%
%TO.N,GND*%
G36*
X47600000Y-101202944D02*
G01*
X39600000Y-101202944D01*
X39600000Y-93202944D01*
X47600000Y-93202944D01*
X47600000Y-101202944D01*
G37*
%TD.AperFunction*%
%TD*%
%TA.AperFunction,Conductor*%
%TO.N,GND*%
G36*
X112500000Y-101302944D02*
G01*
X106905500Y-101302944D01*
X106905500Y-100378132D01*
X106894295Y-100283466D01*
X106878054Y-100215820D01*
X106854200Y-100145550D01*
X106785101Y-100039150D01*
X106785100Y-100039149D01*
X106785099Y-100039147D01*
X106733499Y-99981841D01*
X106733496Y-99981838D01*
X106733494Y-99981836D01*
X106653005Y-99913092D01*
X106652999Y-99913088D01*
X106652995Y-99913085D01*
X106625992Y-99895548D01*
X106613378Y-99886384D01*
X106365261Y-99685463D01*
X106353671Y-99675027D01*
X106127915Y-99449271D01*
X106117479Y-99437681D01*
X106013445Y-99309210D01*
X105916553Y-99189558D01*
X105907392Y-99176948D01*
X105836304Y-99067483D01*
X105752509Y-98938450D01*
X105733494Y-98909169D01*
X105725696Y-98895662D01*
X105580766Y-98611220D01*
X105574422Y-98596973D01*
X105459998Y-98298888D01*
X105455182Y-98284064D01*
X105372554Y-97975690D01*
X105369311Y-97960435D01*
X105319361Y-97645067D01*
X105317731Y-97629556D01*
X105301023Y-97310728D01*
X105301023Y-97295157D01*
X105317731Y-96976325D01*
X105319361Y-96960819D01*
X105328199Y-96905023D01*
X105369311Y-96645446D01*
X105372554Y-96630195D01*
X105455183Y-96321815D01*
X105459993Y-96307011D01*
X105574423Y-96008909D01*
X105580756Y-95994686D01*
X105725709Y-95710200D01*
X105733506Y-95696698D01*
X105907393Y-95428934D01*
X105916539Y-95416344D01*
X106117490Y-95168191D01*
X106127908Y-95156621D01*
X106353677Y-94930852D01*
X106365247Y-94920434D01*
X106613396Y-94719487D01*
X106626004Y-94710327D01*
X106653003Y-94692796D01*
X106726290Y-94631844D01*
X106774176Y-94581383D01*
X106820120Y-94523104D01*
X106871721Y-94407204D01*
X106891683Y-94332704D01*
X106905500Y-94227754D01*
X106905500Y-93341975D01*
X106902779Y-93315046D01*
X106902962Y-93302944D01*
X112500000Y-93302944D01*
X112500000Y-101302944D01*
G37*
%TD.AperFunction*%
%TD*%
%TA.AperFunction,Conductor*%
%TO.N,GND*%
G36*
X39514944Y-59503444D02*
G01*
X39685056Y-59503444D01*
X39687085Y-59502944D01*
X47500000Y-59502944D01*
X47500000Y-67502944D01*
X39500000Y-67502944D01*
X39500000Y-59502944D01*
X39512915Y-59502944D01*
X39514944Y-59503444D01*
G37*
%TD.AperFunction*%
%TD*%
%TA.AperFunction,Conductor*%
%TO.N,GND*%
G36*
X87155054Y-53322906D02*
G01*
X87209592Y-53377444D01*
X87229554Y-53451944D01*
X87209592Y-53526444D01*
X87199928Y-53540906D01*
X87199946Y-53540919D01*
X87199463Y-53541602D01*
X87198761Y-53542653D01*
X87198248Y-53543321D01*
X87179883Y-53569306D01*
X87179881Y-53569309D01*
X87128278Y-53685213D01*
X87108317Y-53759710D01*
X87108314Y-53759727D01*
X87094500Y-53864656D01*
X87094500Y-66710673D01*
X87074538Y-66785173D01*
X87020000Y-66839711D01*
X86945500Y-66859673D01*
X86871000Y-66839711D01*
X86840141Y-66816032D01*
X83327053Y-63302944D01*
X85044355Y-63302944D01*
X85064860Y-63471818D01*
X85125181Y-63630873D01*
X85125182Y-63630874D01*
X85221817Y-63770873D01*
X85221819Y-63770874D01*
X85221820Y-63770876D01*
X85349146Y-63883676D01*
X85349148Y-63883678D01*
X85499775Y-63962734D01*
X85664944Y-64003444D01*
X85835056Y-64003444D01*
X86000225Y-63962734D01*
X86150852Y-63883678D01*
X86278183Y-63770873D01*
X86374818Y-63630874D01*
X86435140Y-63471816D01*
X86455645Y-63302944D01*
X86435140Y-63134072D01*
X86374818Y-62975014D01*
X86278183Y-62835015D01*
X86278180Y-62835012D01*
X86278179Y-62835011D01*
X86150853Y-62722211D01*
X86150854Y-62722211D01*
X86000224Y-62643153D01*
X85835056Y-62602444D01*
X85664944Y-62602444D01*
X85499775Y-62643153D01*
X85349145Y-62722211D01*
X85221820Y-62835011D01*
X85221817Y-62835015D01*
X85125181Y-62975014D01*
X85064860Y-63134069D01*
X85044355Y-63302944D01*
X83327053Y-63302944D01*
X74327555Y-54303446D01*
X74327553Y-54303443D01*
X74199501Y-54175391D01*
X74052994Y-54068948D01*
X73891639Y-53986733D01*
X73719410Y-53930773D01*
X73719380Y-53930768D01*
X73540547Y-53902443D01*
X73540546Y-53902443D01*
X73359454Y-53902443D01*
X73353311Y-53902443D01*
X73353287Y-53902444D01*
X51425544Y-53902444D01*
X51425520Y-53902443D01*
X51419377Y-53902443D01*
X51238284Y-53902443D01*
X51059446Y-53930768D01*
X51059421Y-53930772D01*
X50887188Y-53986733D01*
X50725834Y-54068949D01*
X50725833Y-54068949D01*
X50579330Y-54175390D01*
X50579327Y-54175392D01*
X48292448Y-56462271D01*
X48292446Y-56462274D01*
X48234654Y-56541819D01*
X48234653Y-56541819D01*
X48186010Y-56608769D01*
X48186005Y-56608778D01*
X48103789Y-56770134D01*
X48048642Y-56939864D01*
X48047829Y-56942365D01*
X48019499Y-57121228D01*
X48019499Y-57121232D01*
X48019499Y-57308462D01*
X48019500Y-57308487D01*
X48019500Y-57501637D01*
X48003261Y-57569280D01*
X47992584Y-57590234D01*
X47992579Y-57590247D01*
X47930785Y-57780428D01*
X47930784Y-57780428D01*
X47923436Y-57826826D01*
X47899500Y-57977953D01*
X47899500Y-58627935D01*
X47913404Y-58715721D01*
X47930784Y-58825459D01*
X47992581Y-59015649D01*
X48083371Y-59193832D01*
X48083372Y-59193833D01*
X48141201Y-59273427D01*
X48200917Y-59355619D01*
X48342325Y-59497027D01*
X48446787Y-59572923D01*
X48504110Y-59614571D01*
X48504111Y-59614572D01*
X48682294Y-59705362D01*
X48872484Y-59767158D01*
X48872484Y-59767159D01*
X48872489Y-59767159D01*
X48872490Y-59767160D01*
X49070009Y-59798444D01*
X49070013Y-59798444D01*
X49269987Y-59798444D01*
X49269991Y-59798444D01*
X49467510Y-59767160D01*
X49467511Y-59767159D01*
X49467515Y-59767159D01*
X49467515Y-59767158D01*
X49657703Y-59705363D01*
X49835887Y-59614573D01*
X49997675Y-59497027D01*
X50139083Y-59355619D01*
X50256629Y-59193831D01*
X50256639Y-59193809D01*
X50256871Y-59193434D01*
X50257020Y-59193291D01*
X50260070Y-59189095D01*
X50260847Y-59189659D01*
X50312808Y-59140333D01*
X50387802Y-59122315D01*
X50461758Y-59144209D01*
X50514859Y-59200146D01*
X50516686Y-59203619D01*
X50538268Y-59245976D01*
X50538273Y-59245984D01*
X50665020Y-59420435D01*
X50817508Y-59572923D01*
X50991959Y-59699670D01*
X50991962Y-59699671D01*
X51184102Y-59797572D01*
X51389189Y-59864209D01*
X51460000Y-59875424D01*
X51460000Y-58845653D01*
X51480339Y-58857396D01*
X51631667Y-58897944D01*
X51788333Y-58897944D01*
X51939661Y-58857396D01*
X51960000Y-58845653D01*
X51960000Y-59875424D01*
X52030809Y-59864209D01*
X52030811Y-59864209D01*
X52235897Y-59797572D01*
X52428037Y-59699671D01*
X52428040Y-59699670D01*
X52602491Y-59572923D01*
X52754979Y-59420435D01*
X52881726Y-59245984D01*
X52881730Y-59245977D01*
X52903310Y-59203623D01*
X52954917Y-59146305D01*
X53028270Y-59122469D01*
X53103713Y-59138504D01*
X53159914Y-59189106D01*
X53159930Y-59189095D01*
X53159981Y-59189166D01*
X53161031Y-59190111D01*
X53163107Y-59193400D01*
X53163372Y-59193833D01*
X53221201Y-59273427D01*
X53280917Y-59355619D01*
X53422325Y-59497027D01*
X53526787Y-59572923D01*
X53584110Y-59614571D01*
X53584111Y-59614572D01*
X53762294Y-59705362D01*
X53952484Y-59767158D01*
X53952484Y-59767159D01*
X53952489Y-59767159D01*
X53952490Y-59767160D01*
X54150009Y-59798444D01*
X54150013Y-59798444D01*
X54349987Y-59798444D01*
X54349991Y-59798444D01*
X54547510Y-59767160D01*
X54547511Y-59767159D01*
X54547515Y-59767159D01*
X54547515Y-59767158D01*
X54737703Y-59705363D01*
X54915887Y-59614573D01*
X55077675Y-59497027D01*
X55219083Y-59355619D01*
X55278800Y-59273424D01*
X55338738Y-59224888D01*
X55414916Y-59212822D01*
X55486921Y-59240462D01*
X55535460Y-59300402D01*
X55542425Y-59319435D01*
X55568255Y-59408341D01*
X55600423Y-59462734D01*
X55651919Y-59549809D01*
X55768135Y-59666025D01*
X55909602Y-59749688D01*
X56067428Y-59795541D01*
X56067427Y-59795541D01*
X56067431Y-59795542D01*
X56104306Y-59798444D01*
X56104313Y-59798444D01*
X57475687Y-59798444D01*
X57475694Y-59798444D01*
X57512569Y-59795542D01*
X57670398Y-59749688D01*
X57811865Y-59666025D01*
X57928081Y-59549809D01*
X58011744Y-59408342D01*
X58042365Y-59302944D01*
X71094355Y-59302944D01*
X71114860Y-59471818D01*
X71175181Y-59630873D01*
X71175182Y-59630874D01*
X71271817Y-59770873D01*
X71271819Y-59770874D01*
X71271820Y-59770876D01*
X71399146Y-59883676D01*
X71399148Y-59883678D01*
X71549775Y-59962734D01*
X71714944Y-60003444D01*
X71885056Y-60003444D01*
X72050225Y-59962734D01*
X72200852Y-59883678D01*
X72328183Y-59770873D01*
X72424818Y-59630874D01*
X72485140Y-59471816D01*
X72505645Y-59302944D01*
X72485140Y-59134072D01*
X72424818Y-58975014D01*
X72328183Y-58835015D01*
X72328180Y-58835012D01*
X72328179Y-58835011D01*
X72200853Y-58722211D01*
X72200854Y-58722211D01*
X72050224Y-58643153D01*
X71885056Y-58602444D01*
X71714944Y-58602444D01*
X71549775Y-58643153D01*
X71399145Y-58722211D01*
X71271820Y-58835011D01*
X71271817Y-58835015D01*
X71175181Y-58975014D01*
X71114860Y-59134069D01*
X71094355Y-59302944D01*
X58042365Y-59302944D01*
X58057598Y-59250513D01*
X58060500Y-59213638D01*
X58060500Y-57392250D01*
X58057598Y-57355375D01*
X58011744Y-57197546D01*
X57928081Y-57056079D01*
X57811865Y-56939863D01*
X57670398Y-56856200D01*
X57604279Y-56836990D01*
X57512571Y-56810346D01*
X57512572Y-56810346D01*
X57501506Y-56809475D01*
X57475694Y-56807444D01*
X56104306Y-56807444D01*
X56079722Y-56809378D01*
X56067428Y-56810346D01*
X55909599Y-56856201D01*
X55768136Y-56939862D01*
X55768133Y-56939864D01*
X55651920Y-57056077D01*
X55651918Y-57056080D01*
X55568256Y-57197545D01*
X55542425Y-57286453D01*
X55502470Y-57352425D01*
X55434882Y-57389580D01*
X55357770Y-57387964D01*
X55291798Y-57348009D01*
X55278799Y-57332461D01*
X55261363Y-57308462D01*
X55219083Y-57250269D01*
X55077675Y-57108861D01*
X54973212Y-57032964D01*
X54915889Y-56991316D01*
X54915888Y-56991315D01*
X54737705Y-56900525D01*
X54547515Y-56838729D01*
X54547515Y-56838728D01*
X54437777Y-56821348D01*
X54349991Y-56807444D01*
X54150009Y-56807444D01*
X54071001Y-56819957D01*
X53952484Y-56838728D01*
X53952484Y-56838729D01*
X53762294Y-56900525D01*
X53584111Y-56991315D01*
X53584110Y-56991316D01*
X53422334Y-57108854D01*
X53422323Y-57108863D01*
X53280919Y-57250267D01*
X53280910Y-57250278D01*
X53163373Y-57412054D01*
X53163112Y-57412480D01*
X53162956Y-57412627D01*
X53159930Y-57416793D01*
X53159157Y-57416231D01*
X53107162Y-57465569D01*
X53032164Y-57483571D01*
X52958214Y-57461662D01*
X52905125Y-57405712D01*
X52903312Y-57402267D01*
X52881727Y-57359906D01*
X52881726Y-57359903D01*
X52754979Y-57185452D01*
X52602491Y-57032964D01*
X52428040Y-56906217D01*
X52428037Y-56906216D01*
X52235897Y-56808315D01*
X52030814Y-56741679D01*
X52030809Y-56741678D01*
X51960000Y-56730461D01*
X51960000Y-57760234D01*
X51939661Y-57748492D01*
X51788333Y-57707944D01*
X51631667Y-57707944D01*
X51480339Y-57748492D01*
X51460000Y-57760234D01*
X51460000Y-56715676D01*
X51440917Y-56687911D01*
X51434865Y-56611021D01*
X51468069Y-56541406D01*
X51475998Y-56532827D01*
X51761741Y-56247085D01*
X51828536Y-56208521D01*
X51867100Y-56203444D01*
X72911729Y-56203444D01*
X72986229Y-56223406D01*
X73017088Y-56247085D01*
X83222447Y-66452444D01*
X83222448Y-66452445D01*
X85350499Y-68580496D01*
X85497004Y-68686938D01*
X85497004Y-68686939D01*
X85497006Y-68686940D01*
X85658361Y-68769155D01*
X85830591Y-68825115D01*
X86009453Y-68853445D01*
X86009458Y-68853445D01*
X86190541Y-68853445D01*
X86190546Y-68853445D01*
X86369409Y-68825115D01*
X86541639Y-68769155D01*
X86702994Y-68686940D01*
X86849501Y-68580496D01*
X86849501Y-68580495D01*
X86854237Y-68577055D01*
X86855031Y-68578149D01*
X86918337Y-68547949D01*
X86995228Y-68553995D01*
X87058794Y-68597677D01*
X87092003Y-68667289D01*
X87094500Y-68694452D01*
X87094500Y-75952410D01*
X87074538Y-76026910D01*
X87020000Y-76081448D01*
X86945500Y-76101410D01*
X86871000Y-76081448D01*
X86816462Y-76026910D01*
X86805895Y-76004481D01*
X86793353Y-75970857D01*
X86793349Y-75970849D01*
X86707190Y-75855756D01*
X86707187Y-75855753D01*
X86592094Y-75769594D01*
X86592084Y-75769589D01*
X86457376Y-75719345D01*
X86457378Y-75719345D01*
X86397842Y-75712945D01*
X86397823Y-75712944D01*
X85750000Y-75712944D01*
X85750000Y-76629932D01*
X85692993Y-76597019D01*
X85565826Y-76562944D01*
X85434174Y-76562944D01*
X85307007Y-76597019D01*
X85250000Y-76629932D01*
X85250000Y-75712944D01*
X84602177Y-75712944D01*
X84602157Y-75712945D01*
X84542622Y-75719345D01*
X84407915Y-75769589D01*
X84407905Y-75769594D01*
X84292812Y-75855753D01*
X84292809Y-75855756D01*
X84206650Y-75970849D01*
X84206645Y-75970859D01*
X84156401Y-76105566D01*
X84150001Y-76165101D01*
X84150000Y-76165121D01*
X84150000Y-76812944D01*
X85066988Y-76812944D01*
X85034075Y-76869951D01*
X85000000Y-76997118D01*
X85000000Y-77128770D01*
X85034075Y-77255937D01*
X85066988Y-77312944D01*
X84150000Y-77312944D01*
X84150000Y-77960766D01*
X84150001Y-77960786D01*
X84156401Y-78020321D01*
X84206645Y-78155028D01*
X84206650Y-78155038D01*
X84292809Y-78270131D01*
X84292812Y-78270134D01*
X84407905Y-78356293D01*
X84407915Y-78356298D01*
X84542622Y-78406542D01*
X84580877Y-78410655D01*
X84652816Y-78438466D01*
X84701211Y-78498522D01*
X84713095Y-78574729D01*
X84685284Y-78646668D01*
X84670308Y-78664160D01*
X84538404Y-78796064D01*
X84538402Y-78796067D01*
X84412898Y-78975306D01*
X84320425Y-79173614D01*
X84320424Y-79173617D01*
X84263793Y-79384965D01*
X84244723Y-79602943D01*
X84244723Y-79602944D01*
X84263793Y-79820922D01*
X84320424Y-80032272D01*
X84320425Y-80032274D01*
X84412894Y-80230577D01*
X84412897Y-80230582D01*
X84412898Y-80230583D01*
X84538402Y-80409821D01*
X84693123Y-80564542D01*
X84803372Y-80641739D01*
X84872361Y-80690046D01*
X84872366Y-80690049D01*
X84936492Y-80719951D01*
X85070670Y-80782519D01*
X85282023Y-80839151D01*
X85500000Y-80858221D01*
X85717977Y-80839151D01*
X85929330Y-80782519D01*
X86127639Y-80690046D01*
X86306877Y-80564542D01*
X86461598Y-80409821D01*
X86587102Y-80230583D01*
X86679575Y-80032274D01*
X86736207Y-79820921D01*
X86755277Y-79602944D01*
X86736207Y-79384967D01*
X86679575Y-79173614D01*
X86587102Y-78975306D01*
X86461598Y-78796067D01*
X86329691Y-78664160D01*
X86291127Y-78597365D01*
X86291127Y-78520237D01*
X86329691Y-78453442D01*
X86396486Y-78414878D01*
X86419123Y-78410655D01*
X86457377Y-78406542D01*
X86592084Y-78356298D01*
X86592094Y-78356293D01*
X86707187Y-78270134D01*
X86707190Y-78270131D01*
X86793349Y-78155038D01*
X86793354Y-78155028D01*
X86843598Y-78020321D01*
X86849998Y-77960786D01*
X86850000Y-77960766D01*
X86850000Y-77585745D01*
X86869962Y-77511245D01*
X86924500Y-77456707D01*
X86999000Y-77436745D01*
X87073500Y-77456707D01*
X87128038Y-77511245D01*
X87135841Y-77526791D01*
X87135922Y-77526980D01*
X87135925Y-77526988D01*
X87169469Y-77604847D01*
X87177152Y-77614573D01*
X87245728Y-77701383D01*
X87248112Y-77704400D01*
X87304801Y-77756697D01*
X87391308Y-77817703D01*
X87397354Y-77820876D01*
X87452786Y-77849969D01*
X87482338Y-77870366D01*
X87485241Y-77872937D01*
X87485244Y-77872942D01*
X87485245Y-77872942D01*
X87508892Y-77893891D01*
X87532713Y-77920779D01*
X87552850Y-77949953D01*
X87569543Y-77981758D01*
X87581253Y-78012635D01*
X87581327Y-78012833D01*
X87582118Y-78014918D01*
X87590711Y-78049786D01*
X87594985Y-78084983D01*
X87594985Y-78120906D01*
X87590711Y-78156101D01*
X87582115Y-78190976D01*
X87569542Y-78224128D01*
X87552850Y-78255932D01*
X87532710Y-78285110D01*
X87508890Y-78311998D01*
X87482349Y-78335511D01*
X87452790Y-78355914D01*
X87391292Y-78388191D01*
X87385565Y-78391270D01*
X87384063Y-78392079D01*
X87379978Y-78394329D01*
X87378835Y-78394959D01*
X87287767Y-78463397D01*
X87233233Y-78517931D01*
X87179879Y-78583818D01*
X87128278Y-78699718D01*
X87108317Y-78774215D01*
X87108314Y-78774232D01*
X87094500Y-78879161D01*
X87094500Y-78879167D01*
X87094500Y-79142943D01*
X87094500Y-80412943D01*
X87094500Y-81682943D01*
X87094500Y-82952943D01*
X87094500Y-88580254D01*
X87106283Y-88677296D01*
X87123350Y-88746540D01*
X87148646Y-88818897D01*
X87219025Y-88924455D01*
X87271323Y-88981144D01*
X87271330Y-88981150D01*
X87271332Y-88981153D01*
X87334995Y-89037096D01*
X87334996Y-89037096D01*
X87334998Y-89037098D01*
X87448726Y-89093326D01*
X87522361Y-89116272D01*
X87522363Y-89116272D01*
X87522365Y-89116273D01*
X87536228Y-89119044D01*
X87605488Y-89132894D01*
X87732093Y-89124725D01*
X87807337Y-89107779D01*
X87906692Y-89071238D01*
X87978604Y-89033493D01*
X88012187Y-89020757D01*
X88046619Y-89012271D01*
X88082270Y-89007944D01*
X88117726Y-89007944D01*
X88153382Y-89012273D01*
X88187809Y-89020758D01*
X88221396Y-89033495D01*
X88228256Y-89037096D01*
X88252791Y-89049973D01*
X88282351Y-89070377D01*
X88308255Y-89093326D01*
X88308890Y-89093888D01*
X88332710Y-89120775D01*
X88391568Y-89206045D01*
X88395381Y-89211854D01*
X88403411Y-89224733D01*
X88425888Y-89298513D01*
X88408464Y-89373647D01*
X88399597Y-89388209D01*
X88369865Y-89431282D01*
X88368168Y-89433691D01*
X88367705Y-89434333D01*
X88367531Y-89434664D01*
X88332713Y-89485107D01*
X88308893Y-89511994D01*
X88282349Y-89535510D01*
X88252788Y-89555915D01*
X88221390Y-89572394D01*
X88187806Y-89585130D01*
X88153386Y-89593614D01*
X88117731Y-89597944D01*
X88082271Y-89597944D01*
X88046609Y-89593613D01*
X88012188Y-89585128D01*
X87978608Y-89572393D01*
X87906689Y-89534647D01*
X87906675Y-89534641D01*
X87815285Y-89499982D01*
X87815276Y-89499979D01*
X87746050Y-89482917D01*
X87746054Y-89482917D01*
X87670223Y-89471689D01*
X87544051Y-89484949D01*
X87469553Y-89504911D01*
X87469540Y-89504915D01*
X87390406Y-89535292D01*
X87390405Y-89535292D01*
X87287774Y-89609857D01*
X87287766Y-89609864D01*
X87233233Y-89664397D01*
X87179879Y-89730284D01*
X87128278Y-89846184D01*
X87108317Y-89920681D01*
X87108314Y-89920698D01*
X87094500Y-90025627D01*
X87094500Y-93513922D01*
X87097220Y-93540837D01*
X87096700Y-93575260D01*
X87094500Y-93591968D01*
X87094500Y-106741233D01*
X87097968Y-106794149D01*
X87103046Y-106832719D01*
X87108438Y-106864099D01*
X87108438Y-106864100D01*
X87153902Y-106982538D01*
X87185101Y-107036578D01*
X87192467Y-107049335D01*
X87203135Y-107063238D01*
X87232651Y-107134494D01*
X87222585Y-107210962D01*
X87175633Y-107272153D01*
X87104376Y-107301669D01*
X87084926Y-107302944D01*
X79649000Y-107302944D01*
X79574500Y-107282982D01*
X79519962Y-107228444D01*
X79500000Y-107153944D01*
X79500000Y-101302944D01*
X81294355Y-101302944D01*
X81314860Y-101471818D01*
X81375181Y-101630873D01*
X81375182Y-101630874D01*
X81471817Y-101770873D01*
X81589368Y-101875014D01*
X81599146Y-101883676D01*
X81599148Y-101883678D01*
X81749775Y-101962734D01*
X81914944Y-102003444D01*
X82085056Y-102003444D01*
X82250225Y-101962734D01*
X82400852Y-101883678D01*
X82528183Y-101770873D01*
X82624818Y-101630874D01*
X82685140Y-101471816D01*
X82697059Y-101373655D01*
X84365066Y-101373655D01*
X84385571Y-101542529D01*
X84445892Y-101701584D01*
X84445893Y-101701585D01*
X84542528Y-101841584D01*
X84653462Y-101939863D01*
X84669857Y-101954387D01*
X84669859Y-101954389D01*
X84820486Y-102033445D01*
X84985655Y-102074155D01*
X85155767Y-102074155D01*
X85320936Y-102033445D01*
X85471563Y-101954389D01*
X85598894Y-101841584D01*
X85695529Y-101701585D01*
X85755851Y-101542527D01*
X85776356Y-101373655D01*
X85755851Y-101204783D01*
X85695529Y-101045725D01*
X85598894Y-100905726D01*
X85598891Y-100905723D01*
X85598890Y-100905722D01*
X85471564Y-100792922D01*
X85471565Y-100792922D01*
X85320935Y-100713864D01*
X85155767Y-100673155D01*
X84985655Y-100673155D01*
X84820486Y-100713864D01*
X84669856Y-100792922D01*
X84542531Y-100905722D01*
X84542528Y-100905726D01*
X84445892Y-101045725D01*
X84385571Y-101204780D01*
X84365066Y-101373655D01*
X82697059Y-101373655D01*
X82705645Y-101302944D01*
X82685140Y-101134072D01*
X82624818Y-100975014D01*
X82528183Y-100835015D01*
X82528180Y-100835012D01*
X82528179Y-100835011D01*
X82400853Y-100722211D01*
X82400854Y-100722211D01*
X82250224Y-100643153D01*
X82085056Y-100602444D01*
X81914944Y-100602444D01*
X81749775Y-100643153D01*
X81599145Y-100722211D01*
X81471820Y-100835011D01*
X81471817Y-100835015D01*
X81375181Y-100975014D01*
X81314860Y-101134069D01*
X81294355Y-101302944D01*
X79500000Y-101302944D01*
X79500000Y-87302944D01*
X63500000Y-87302944D01*
X63500000Y-107153944D01*
X63480038Y-107228444D01*
X63425500Y-107282982D01*
X63351000Y-107302944D01*
X46500000Y-107302944D01*
X45500000Y-107302944D01*
X36584654Y-107302944D01*
X36583611Y-107302940D01*
X36579394Y-107302910D01*
X36420014Y-107301793D01*
X36411662Y-107301500D01*
X36251657Y-107291389D01*
X36244372Y-107290749D01*
X36168529Y-107282204D01*
X36160253Y-107281036D01*
X35841208Y-107226829D01*
X35824918Y-107223111D01*
X35517973Y-107134683D01*
X35502206Y-107129165D01*
X35207104Y-107006931D01*
X35192052Y-106999683D01*
X34912470Y-106845166D01*
X34898322Y-106836276D01*
X34637818Y-106651441D01*
X34624754Y-106641023D01*
X34547956Y-106572393D01*
X34386557Y-106428160D01*
X34374751Y-106416354D01*
X34227980Y-106252119D01*
X34161907Y-106178184D01*
X34151489Y-106165121D01*
X33966645Y-105904612D01*
X33957755Y-105890464D01*
X33803241Y-105610898D01*
X33795991Y-105595844D01*
X33673744Y-105300721D01*
X33668226Y-105284950D01*
X33579806Y-104978050D01*
X33579798Y-104978022D01*
X33576081Y-104961735D01*
X33521871Y-104642706D01*
X33520702Y-104634431D01*
X33518464Y-104614571D01*
X33512153Y-104558576D01*
X33511514Y-104551284D01*
X33501422Y-104391286D01*
X33501130Y-104382932D01*
X33500004Y-104219344D01*
X33500000Y-104218318D01*
X33500000Y-102977953D01*
X47899500Y-102977953D01*
X47899500Y-103627935D01*
X47913404Y-103715721D01*
X47930784Y-103825459D01*
X47992581Y-104015649D01*
X48083371Y-104193832D01*
X48083372Y-104193833D01*
X48121257Y-104245977D01*
X48200917Y-104355619D01*
X48342325Y-104497027D01*
X48427040Y-104558576D01*
X48504110Y-104614571D01*
X48504111Y-104614572D01*
X48682294Y-104705362D01*
X48872484Y-104767158D01*
X48872484Y-104767159D01*
X48872489Y-104767159D01*
X48872490Y-104767160D01*
X49070009Y-104798444D01*
X49070013Y-104798444D01*
X49269987Y-104798444D01*
X49269991Y-104798444D01*
X49467510Y-104767160D01*
X49467511Y-104767159D01*
X49467515Y-104767159D01*
X49467515Y-104767158D01*
X49657703Y-104705363D01*
X49835887Y-104614573D01*
X49997675Y-104497027D01*
X50139083Y-104355619D01*
X50256629Y-104193831D01*
X50256639Y-104193809D01*
X50256871Y-104193434D01*
X50257020Y-104193291D01*
X50260070Y-104189095D01*
X50260847Y-104189659D01*
X50312808Y-104140333D01*
X50387802Y-104122315D01*
X50461758Y-104144209D01*
X50514859Y-104200146D01*
X50516686Y-104203619D01*
X50538268Y-104245976D01*
X50538273Y-104245984D01*
X50665020Y-104420435D01*
X50817508Y-104572923D01*
X50991959Y-104699670D01*
X50991962Y-104699671D01*
X51184102Y-104797572D01*
X51389189Y-104864209D01*
X51460000Y-104875424D01*
X51460000Y-103845653D01*
X51480339Y-103857396D01*
X51631667Y-103897944D01*
X51788333Y-103897944D01*
X51939661Y-103857396D01*
X51960000Y-103845653D01*
X51960000Y-104875424D01*
X52030809Y-104864209D01*
X52030811Y-104864209D01*
X52235897Y-104797572D01*
X52428037Y-104699671D01*
X52428040Y-104699670D01*
X52602491Y-104572923D01*
X52754979Y-104420435D01*
X52881726Y-104245984D01*
X52881730Y-104245977D01*
X52903310Y-104203623D01*
X52954917Y-104146305D01*
X53028270Y-104122469D01*
X53103713Y-104138504D01*
X53159914Y-104189106D01*
X53159930Y-104189095D01*
X53159981Y-104189166D01*
X53161031Y-104190111D01*
X53163107Y-104193400D01*
X53163372Y-104193833D01*
X53201257Y-104245977D01*
X53280917Y-104355619D01*
X53422325Y-104497027D01*
X53507040Y-104558576D01*
X53584110Y-104614571D01*
X53584111Y-104614572D01*
X53762294Y-104705362D01*
X53952484Y-104767158D01*
X53952484Y-104767159D01*
X53952489Y-104767159D01*
X53952490Y-104767160D01*
X54150009Y-104798444D01*
X54150013Y-104798444D01*
X54349987Y-104798444D01*
X54349991Y-104798444D01*
X54547510Y-104767160D01*
X54547511Y-104767159D01*
X54547515Y-104767159D01*
X54547515Y-104767158D01*
X54737703Y-104705363D01*
X54915887Y-104614573D01*
X55077675Y-104497027D01*
X55219083Y-104355619D01*
X55278800Y-104273424D01*
X55338738Y-104224888D01*
X55414916Y-104212822D01*
X55486921Y-104240462D01*
X55535460Y-104300402D01*
X55542425Y-104319435D01*
X55568255Y-104408341D01*
X55620702Y-104497024D01*
X55651919Y-104549809D01*
X55768135Y-104666025D01*
X55909602Y-104749688D01*
X56067428Y-104795541D01*
X56067427Y-104795541D01*
X56067431Y-104795542D01*
X56104306Y-104798444D01*
X56104313Y-104798444D01*
X57475687Y-104798444D01*
X57475694Y-104798444D01*
X57512569Y-104795542D01*
X57670398Y-104749688D01*
X57811865Y-104666025D01*
X57928081Y-104549809D01*
X58011744Y-104408342D01*
X58057598Y-104250513D01*
X58060500Y-104213638D01*
X58060500Y-102392250D01*
X58057598Y-102355375D01*
X58011744Y-102197546D01*
X57928081Y-102056079D01*
X57811865Y-101939863D01*
X57670398Y-101856200D01*
X57604279Y-101836990D01*
X57512571Y-101810346D01*
X57512572Y-101810346D01*
X57501506Y-101809475D01*
X57475694Y-101807444D01*
X56104306Y-101807444D01*
X56079722Y-101809378D01*
X56067428Y-101810346D01*
X55909599Y-101856201D01*
X55768136Y-101939862D01*
X55768133Y-101939864D01*
X55651920Y-102056077D01*
X55651918Y-102056080D01*
X55568256Y-102197545D01*
X55542425Y-102286453D01*
X55502470Y-102352425D01*
X55434882Y-102389580D01*
X55357770Y-102387964D01*
X55291798Y-102348009D01*
X55278799Y-102332461D01*
X55245372Y-102286453D01*
X55219083Y-102250269D01*
X55077675Y-102108861D01*
X54973212Y-102032964D01*
X54915889Y-101991316D01*
X54915888Y-101991315D01*
X54737705Y-101900525D01*
X54547515Y-101838729D01*
X54547515Y-101838728D01*
X54437777Y-101821348D01*
X54349991Y-101807444D01*
X54150009Y-101807444D01*
X54071001Y-101819957D01*
X53952484Y-101838728D01*
X53952484Y-101838729D01*
X53762294Y-101900525D01*
X53584111Y-101991315D01*
X53584110Y-101991316D01*
X53422334Y-102108854D01*
X53422323Y-102108863D01*
X53280919Y-102250267D01*
X53280910Y-102250278D01*
X53163373Y-102412054D01*
X53163112Y-102412480D01*
X53162956Y-102412627D01*
X53159930Y-102416793D01*
X53159157Y-102416231D01*
X53107162Y-102465569D01*
X53032164Y-102483571D01*
X52958214Y-102461662D01*
X52905125Y-102405712D01*
X52903312Y-102402267D01*
X52881727Y-102359906D01*
X52881726Y-102359903D01*
X52754979Y-102185452D01*
X52602491Y-102032964D01*
X52428040Y-101906217D01*
X52428037Y-101906216D01*
X52235897Y-101808315D01*
X52030814Y-101741679D01*
X52030809Y-101741678D01*
X51960000Y-101730461D01*
X51960000Y-102760234D01*
X51939661Y-102748492D01*
X51788333Y-102707944D01*
X51631667Y-102707944D01*
X51480339Y-102748492D01*
X51460000Y-102760234D01*
X51460000Y-101730461D01*
X51389190Y-101741678D01*
X51389185Y-101741679D01*
X51184102Y-101808315D01*
X50991962Y-101906216D01*
X50991959Y-101906217D01*
X50817508Y-102032964D01*
X50665020Y-102185452D01*
X50538273Y-102359903D01*
X50538268Y-102359912D01*
X50516685Y-102402270D01*
X50465075Y-102459586D01*
X50391722Y-102483418D01*
X50316279Y-102467380D01*
X50260086Y-102416781D01*
X50260070Y-102416793D01*
X50260014Y-102416717D01*
X50258963Y-102415770D01*
X50256877Y-102412463D01*
X50256634Y-102412067D01*
X50256629Y-102412057D01*
X50139083Y-102250269D01*
X49997675Y-102108861D01*
X49893212Y-102032964D01*
X49835889Y-101991316D01*
X49835888Y-101991315D01*
X49657705Y-101900525D01*
X49467515Y-101838729D01*
X49467515Y-101838728D01*
X49357777Y-101821348D01*
X49269991Y-101807444D01*
X49070009Y-101807444D01*
X48991001Y-101819957D01*
X48872484Y-101838728D01*
X48872484Y-101838729D01*
X48682294Y-101900525D01*
X48504111Y-101991315D01*
X48504110Y-101991316D01*
X48342334Y-102108854D01*
X48342323Y-102108863D01*
X48200919Y-102250267D01*
X48200910Y-102250278D01*
X48083372Y-102412054D01*
X48083371Y-102412055D01*
X47992581Y-102590238D01*
X47930785Y-102780428D01*
X47930784Y-102780428D01*
X47923436Y-102826826D01*
X47899500Y-102977953D01*
X33500000Y-102977953D01*
X33500000Y-102202944D01*
X35044355Y-102202944D01*
X35064860Y-102371818D01*
X35125181Y-102530873D01*
X35125182Y-102530874D01*
X35221817Y-102670873D01*
X35221819Y-102670874D01*
X35221820Y-102670876D01*
X35298215Y-102738556D01*
X35345486Y-102780434D01*
X35349146Y-102783676D01*
X35349148Y-102783678D01*
X35499775Y-102862734D01*
X35664944Y-102903444D01*
X35835056Y-102903444D01*
X36000225Y-102862734D01*
X36150852Y-102783678D01*
X36278183Y-102670873D01*
X36374818Y-102530874D01*
X36435140Y-102371816D01*
X36455645Y-102202944D01*
X36435140Y-102034072D01*
X36423524Y-102003444D01*
X36374818Y-101875014D01*
X36361832Y-101856201D01*
X36278183Y-101735015D01*
X36278180Y-101735012D01*
X36278179Y-101735011D01*
X36160632Y-101630874D01*
X36150853Y-101622211D01*
X36150854Y-101622211D01*
X36000224Y-101543153D01*
X35835056Y-101502444D01*
X35664944Y-101502444D01*
X35499775Y-101543153D01*
X35349145Y-101622211D01*
X35221820Y-101735011D01*
X35221817Y-101735015D01*
X35125181Y-101875014D01*
X35064860Y-102034069D01*
X35044355Y-102202944D01*
X33500000Y-102202944D01*
X33500000Y-101202944D01*
X39600000Y-101202944D01*
X47600000Y-101202944D01*
X47600000Y-93977953D01*
X47899500Y-93977953D01*
X47899500Y-94627935D01*
X47909489Y-94691004D01*
X47930784Y-94825459D01*
X47992581Y-95015649D01*
X48083371Y-95193832D01*
X48083372Y-95193833D01*
X48121257Y-95245977D01*
X48200917Y-95355619D01*
X48342325Y-95497027D01*
X48446787Y-95572923D01*
X48504110Y-95614571D01*
X48504111Y-95614572D01*
X48682294Y-95705362D01*
X48682296Y-95705362D01*
X48682297Y-95705363D01*
X48811988Y-95747502D01*
X48872484Y-95767158D01*
X48872484Y-95767159D01*
X48872489Y-95767159D01*
X48872490Y-95767160D01*
X49070009Y-95798444D01*
X49070013Y-95798444D01*
X49269987Y-95798444D01*
X49269991Y-95798444D01*
X49467510Y-95767160D01*
X49467511Y-95767159D01*
X49467515Y-95767159D01*
X49467515Y-95767158D01*
X49657703Y-95705363D01*
X49835887Y-95614573D01*
X49997675Y-95497027D01*
X50139083Y-95355619D01*
X50256629Y-95193831D01*
X50256639Y-95193809D01*
X50256871Y-95193434D01*
X50257020Y-95193291D01*
X50260070Y-95189095D01*
X50260847Y-95189659D01*
X50312808Y-95140333D01*
X50387802Y-95122315D01*
X50461758Y-95144209D01*
X50514859Y-95200146D01*
X50516686Y-95203619D01*
X50538268Y-95245976D01*
X50538273Y-95245984D01*
X50665020Y-95420435D01*
X50817508Y-95572923D01*
X50991959Y-95699670D01*
X50991962Y-95699671D01*
X51184102Y-95797572D01*
X51389189Y-95864209D01*
X51460000Y-95875424D01*
X51460000Y-94845653D01*
X51480339Y-94857396D01*
X51631667Y-94897944D01*
X51788333Y-94897944D01*
X51939661Y-94857396D01*
X51960000Y-94845653D01*
X51960000Y-95875424D01*
X52030809Y-95864209D01*
X52030811Y-95864209D01*
X52235897Y-95797572D01*
X52428037Y-95699671D01*
X52428040Y-95699670D01*
X52602491Y-95572923D01*
X52754979Y-95420435D01*
X52881726Y-95245984D01*
X52881730Y-95245977D01*
X52903310Y-95203623D01*
X52954917Y-95146305D01*
X53028270Y-95122469D01*
X53103713Y-95138504D01*
X53159914Y-95189106D01*
X53159930Y-95189095D01*
X53159981Y-95189166D01*
X53161031Y-95190111D01*
X53163107Y-95193400D01*
X53163372Y-95193833D01*
X53201257Y-95245977D01*
X53280917Y-95355619D01*
X53422325Y-95497027D01*
X53526787Y-95572923D01*
X53584110Y-95614571D01*
X53584111Y-95614572D01*
X53762294Y-95705362D01*
X53762296Y-95705362D01*
X53762297Y-95705363D01*
X53891988Y-95747502D01*
X53952484Y-95767158D01*
X53952484Y-95767159D01*
X53952489Y-95767159D01*
X53952490Y-95767160D01*
X54150009Y-95798444D01*
X54150013Y-95798444D01*
X54349987Y-95798444D01*
X54349991Y-95798444D01*
X54547510Y-95767160D01*
X54547511Y-95767159D01*
X54547515Y-95767159D01*
X54547515Y-95767158D01*
X54737703Y-95705363D01*
X54915887Y-95614573D01*
X55077675Y-95497027D01*
X55219083Y-95355619D01*
X55278800Y-95273424D01*
X55338738Y-95224888D01*
X55414916Y-95212822D01*
X55486921Y-95240462D01*
X55535460Y-95300402D01*
X55542425Y-95319435D01*
X55568255Y-95408341D01*
X55601334Y-95464274D01*
X55651919Y-95549809D01*
X55768135Y-95666025D01*
X55909602Y-95749688D01*
X56067428Y-95795541D01*
X56067427Y-95795541D01*
X56067431Y-95795542D01*
X56104306Y-95798444D01*
X56104313Y-95798444D01*
X57475687Y-95798444D01*
X57475694Y-95798444D01*
X57512569Y-95795542D01*
X57670398Y-95749688D01*
X57811865Y-95666025D01*
X57928081Y-95549809D01*
X58011744Y-95408342D01*
X58057598Y-95250513D01*
X58060500Y-95213638D01*
X58060500Y-94014192D01*
X58080462Y-93939692D01*
X58135000Y-93885154D01*
X58209500Y-93865192D01*
X58284000Y-93885154D01*
X58338538Y-93939692D01*
X58348818Y-93961357D01*
X58363473Y-94000001D01*
X58375182Y-94030874D01*
X58471817Y-94170873D01*
X58471819Y-94170874D01*
X58471820Y-94170876D01*
X58599146Y-94283676D01*
X58599148Y-94283678D01*
X58749775Y-94362734D01*
X58914944Y-94403444D01*
X59085056Y-94403444D01*
X59250225Y-94362734D01*
X59400852Y-94283678D01*
X59528183Y-94170873D01*
X59624818Y-94030874D01*
X59685140Y-93871816D01*
X59705645Y-93702944D01*
X59685140Y-93534072D01*
X59681732Y-93525087D01*
X59624818Y-93375014D01*
X59614390Y-93359906D01*
X59528183Y-93235015D01*
X59528180Y-93235012D01*
X59528179Y-93235011D01*
X59400853Y-93122211D01*
X59400854Y-93122211D01*
X59250224Y-93043153D01*
X59085056Y-93002444D01*
X58914944Y-93002444D01*
X58749775Y-93043153D01*
X58599145Y-93122211D01*
X58471820Y-93235011D01*
X58471817Y-93235015D01*
X58375181Y-93375014D01*
X58348818Y-93444531D01*
X58303735Y-93507111D01*
X58233402Y-93538765D01*
X58156664Y-93531013D01*
X58094084Y-93485930D01*
X58062430Y-93415597D01*
X58060780Y-93395174D01*
X58060615Y-93395181D01*
X58060500Y-93392281D01*
X58060500Y-93392250D01*
X58057598Y-93355375D01*
X58011744Y-93197546D01*
X57928081Y-93056079D01*
X57811865Y-92939863D01*
X57700598Y-92874060D01*
X57670400Y-92856201D01*
X57670399Y-92856200D01*
X57670398Y-92856200D01*
X57604279Y-92836990D01*
X57512571Y-92810346D01*
X57512572Y-92810346D01*
X57501506Y-92809475D01*
X57475694Y-92807444D01*
X56104306Y-92807444D01*
X56079722Y-92809378D01*
X56067428Y-92810346D01*
X55909599Y-92856201D01*
X55768136Y-92939862D01*
X55768133Y-92939864D01*
X55651920Y-93056077D01*
X55651918Y-93056080D01*
X55568256Y-93197545D01*
X55542425Y-93286453D01*
X55502470Y-93352425D01*
X55434882Y-93389580D01*
X55357770Y-93387964D01*
X55291798Y-93348009D01*
X55278799Y-93332461D01*
X55245372Y-93286453D01*
X55219083Y-93250269D01*
X55077675Y-93108861D01*
X54973212Y-93032964D01*
X54915889Y-92991316D01*
X54915888Y-92991315D01*
X54737705Y-92900525D01*
X54547515Y-92838729D01*
X54547515Y-92838728D01*
X54437777Y-92821348D01*
X54349991Y-92807444D01*
X54150009Y-92807444D01*
X54071001Y-92819957D01*
X53952484Y-92838728D01*
X53952484Y-92838729D01*
X53762294Y-92900525D01*
X53584111Y-92991315D01*
X53584110Y-92991316D01*
X53422334Y-93108854D01*
X53422323Y-93108863D01*
X53280919Y-93250267D01*
X53280910Y-93250278D01*
X53163373Y-93412054D01*
X53163112Y-93412480D01*
X53162956Y-93412627D01*
X53159930Y-93416793D01*
X53159157Y-93416231D01*
X53107162Y-93465569D01*
X53032164Y-93483571D01*
X52958214Y-93461662D01*
X52905125Y-93405712D01*
X52903312Y-93402267D01*
X52881727Y-93359906D01*
X52881726Y-93359903D01*
X52754979Y-93185452D01*
X52602491Y-93032964D01*
X52428040Y-92906217D01*
X52428037Y-92906216D01*
X52235897Y-92808315D01*
X52030814Y-92741679D01*
X52030809Y-92741678D01*
X51960000Y-92730461D01*
X51960000Y-93760234D01*
X51939661Y-93748492D01*
X51788333Y-93707944D01*
X51631667Y-93707944D01*
X51480339Y-93748492D01*
X51460000Y-93760234D01*
X51460000Y-92730461D01*
X51389190Y-92741678D01*
X51389185Y-92741679D01*
X51184102Y-92808315D01*
X50991962Y-92906216D01*
X50991959Y-92906217D01*
X50817508Y-93032964D01*
X50665020Y-93185452D01*
X50538273Y-93359903D01*
X50538268Y-93359912D01*
X50516685Y-93402270D01*
X50465075Y-93459586D01*
X50391722Y-93483418D01*
X50316279Y-93467380D01*
X50260086Y-93416781D01*
X50260070Y-93416793D01*
X50260014Y-93416717D01*
X50258963Y-93415770D01*
X50256877Y-93412463D01*
X50256634Y-93412067D01*
X50256629Y-93412057D01*
X50139083Y-93250269D01*
X49997675Y-93108861D01*
X49893212Y-93032964D01*
X49835889Y-92991316D01*
X49835888Y-92991315D01*
X49657705Y-92900525D01*
X49467515Y-92838729D01*
X49467515Y-92838728D01*
X49357777Y-92821348D01*
X49269991Y-92807444D01*
X49070009Y-92807444D01*
X48991001Y-92819957D01*
X48872484Y-92838728D01*
X48872484Y-92838729D01*
X48682294Y-92900525D01*
X48504111Y-92991315D01*
X48504110Y-92991316D01*
X48342334Y-93108854D01*
X48342323Y-93108863D01*
X48200919Y-93250267D01*
X48200910Y-93250278D01*
X48083372Y-93412054D01*
X48083371Y-93412055D01*
X47992581Y-93590238D01*
X47930785Y-93780428D01*
X47930784Y-93780428D01*
X47916310Y-93871816D01*
X47899500Y-93977953D01*
X47600000Y-93977953D01*
X47600000Y-93202944D01*
X39600000Y-93202944D01*
X39600000Y-101202944D01*
X33500000Y-101202944D01*
X33500000Y-84202942D01*
X35645305Y-84202942D01*
X35645305Y-84202945D01*
X35664053Y-84429206D01*
X35719790Y-84649309D01*
X35810992Y-84857228D01*
X35890486Y-84978902D01*
X36459469Y-84409918D01*
X36465548Y-84432605D01*
X36543882Y-84568282D01*
X36654662Y-84679062D01*
X36790339Y-84757396D01*
X36813022Y-84763474D01*
X36242578Y-85333919D01*
X36268112Y-85353792D01*
X36268115Y-85353794D01*
X36349757Y-85397976D01*
X36405778Y-85450990D01*
X36427785Y-85524912D01*
X36409884Y-85599933D01*
X36364306Y-85651071D01*
X36200218Y-85765967D01*
X36043024Y-85923161D01*
X35915513Y-86105266D01*
X35915512Y-86105267D01*
X35821560Y-86306747D01*
X35764021Y-86521481D01*
X35744647Y-86742943D01*
X35744647Y-86742944D01*
X35764021Y-86964406D01*
X35821560Y-87179140D01*
X35915509Y-87380615D01*
X35915516Y-87380628D01*
X36043021Y-87562723D01*
X36200220Y-87719922D01*
X36382315Y-87847427D01*
X36382320Y-87847430D01*
X36382323Y-87847432D01*
X36382325Y-87847433D01*
X36382332Y-87847437D01*
X36447670Y-87877904D01*
X36506754Y-87927480D01*
X36533134Y-87999957D01*
X36519741Y-88075913D01*
X36470165Y-88134997D01*
X36447672Y-88147983D01*
X36382329Y-88178453D01*
X36382322Y-88178457D01*
X36200217Y-88305968D01*
X36043024Y-88463161D01*
X35915513Y-88645266D01*
X35915512Y-88645267D01*
X35821560Y-88846747D01*
X35764021Y-89061481D01*
X35744647Y-89282943D01*
X35744647Y-89282944D01*
X35764021Y-89504406D01*
X35821560Y-89719140D01*
X35915509Y-89920615D01*
X35915516Y-89920628D01*
X36043021Y-90102723D01*
X36200220Y-90259922D01*
X36382315Y-90387427D01*
X36382320Y-90387430D01*
X36382323Y-90387432D01*
X36382325Y-90387433D01*
X36382332Y-90387437D01*
X36447670Y-90417904D01*
X36506754Y-90467480D01*
X36533134Y-90539957D01*
X36519741Y-90615913D01*
X36470165Y-90674997D01*
X36447672Y-90687983D01*
X36382329Y-90718453D01*
X36382322Y-90718457D01*
X36200217Y-90845968D01*
X36043024Y-91003161D01*
X35915513Y-91185266D01*
X35915512Y-91185267D01*
X35821560Y-91386747D01*
X35764021Y-91601481D01*
X35744647Y-91822943D01*
X35744647Y-91822944D01*
X35764021Y-92044406D01*
X35821560Y-92259140D01*
X35915509Y-92460615D01*
X35915516Y-92460628D01*
X36043021Y-92642723D01*
X36200220Y-92799922D01*
X36382315Y-92927427D01*
X36382318Y-92927429D01*
X36382323Y-92927432D01*
X36583804Y-93021384D01*
X36798537Y-93078922D01*
X37020000Y-93098297D01*
X37241463Y-93078922D01*
X37456196Y-93021384D01*
X37657677Y-92927432D01*
X37839781Y-92799921D01*
X37996977Y-92642725D01*
X38124488Y-92460621D01*
X38218440Y-92259140D01*
X38275978Y-92044407D01*
X38295353Y-91822944D01*
X38279439Y-91641047D01*
X38275978Y-91601481D01*
X38273685Y-91592922D01*
X38218440Y-91386748D01*
X38124488Y-91185268D01*
X37996977Y-91003163D01*
X37839781Y-90845967D01*
X37839779Y-90845965D01*
X37657684Y-90718460D01*
X37657667Y-90718450D01*
X37592330Y-90687984D01*
X37533246Y-90638408D01*
X37506866Y-90565931D01*
X37520259Y-90489975D01*
X37569835Y-90430891D01*
X37592330Y-90417904D01*
X37657667Y-90387437D01*
X37657669Y-90387435D01*
X37657677Y-90387432D01*
X37839781Y-90259921D01*
X37996977Y-90102725D01*
X38124488Y-89920621D01*
X38128068Y-89912944D01*
X56084355Y-89912944D01*
X56104860Y-90081818D01*
X56165181Y-90240873D01*
X56165182Y-90240874D01*
X56261817Y-90380873D01*
X56261819Y-90380874D01*
X56261820Y-90380876D01*
X56318276Y-90430891D01*
X56359576Y-90467480D01*
X56389146Y-90493676D01*
X56389148Y-90493678D01*
X56539775Y-90572734D01*
X56704944Y-90613444D01*
X56875056Y-90613444D01*
X57040225Y-90572734D01*
X57190852Y-90493678D01*
X57318183Y-90380873D01*
X57414818Y-90240874D01*
X57475140Y-90081816D01*
X57495645Y-89912944D01*
X57475140Y-89744072D01*
X57430015Y-89625087D01*
X57414818Y-89585014D01*
X57394732Y-89555915D01*
X57318183Y-89445015D01*
X57318180Y-89445012D01*
X57318179Y-89445011D01*
X57190853Y-89332211D01*
X57190854Y-89332211D01*
X57040224Y-89253153D01*
X56875056Y-89212444D01*
X56704944Y-89212444D01*
X56539775Y-89253153D01*
X56389145Y-89332211D01*
X56261820Y-89445011D01*
X56261817Y-89445015D01*
X56165181Y-89585014D01*
X56104860Y-89744069D01*
X56084355Y-89912944D01*
X38128068Y-89912944D01*
X38218440Y-89719140D01*
X38275978Y-89504407D01*
X38295353Y-89282944D01*
X38275978Y-89061481D01*
X38218440Y-88846748D01*
X38124488Y-88645268D01*
X37996977Y-88463163D01*
X37839781Y-88305967D01*
X37839779Y-88305965D01*
X37657684Y-88178460D01*
X37657667Y-88178450D01*
X37592330Y-88147984D01*
X37533246Y-88098408D01*
X37506866Y-88025931D01*
X37520259Y-87949975D01*
X37569835Y-87890891D01*
X37592330Y-87877904D01*
X37657667Y-87847437D01*
X37657669Y-87847435D01*
X37657677Y-87847432D01*
X37839781Y-87719921D01*
X37996977Y-87562725D01*
X38124488Y-87380621D01*
X38218440Y-87179140D01*
X38275978Y-86964407D01*
X38295353Y-86742944D01*
X38288623Y-86666023D01*
X38275978Y-86521481D01*
X38269427Y-86497033D01*
X38218440Y-86306748D01*
X38124488Y-86105268D01*
X37996977Y-85923163D01*
X37839781Y-85765967D01*
X37717785Y-85680544D01*
X37675694Y-85651071D01*
X37626118Y-85591987D01*
X37612725Y-85516031D01*
X37639105Y-85443554D01*
X37690243Y-85397976D01*
X37771884Y-85353795D01*
X37797421Y-85333918D01*
X37226977Y-84763474D01*
X37249661Y-84757396D01*
X37385338Y-84679062D01*
X37496118Y-84568282D01*
X37574452Y-84432605D01*
X37580530Y-84409920D01*
X38149513Y-84978902D01*
X38150133Y-84977953D01*
X47899500Y-84977953D01*
X47899500Y-85627935D01*
X47913404Y-85715721D01*
X47930784Y-85825459D01*
X47992581Y-86015649D01*
X48083371Y-86193832D01*
X48083372Y-86193833D01*
X48121257Y-86245977D01*
X48200917Y-86355619D01*
X48342325Y-86497027D01*
X48446787Y-86572923D01*
X48504110Y-86614571D01*
X48504111Y-86614572D01*
X48682294Y-86705362D01*
X48872484Y-86767158D01*
X48872484Y-86767159D01*
X48872489Y-86767159D01*
X48872490Y-86767160D01*
X49070009Y-86798444D01*
X49070013Y-86798444D01*
X49269987Y-86798444D01*
X49269991Y-86798444D01*
X49467510Y-86767160D01*
X49467511Y-86767159D01*
X49467515Y-86767159D01*
X49467515Y-86767158D01*
X49657703Y-86705363D01*
X49835887Y-86614573D01*
X49997675Y-86497027D01*
X50139083Y-86355619D01*
X50256629Y-86193831D01*
X50256639Y-86193809D01*
X50256871Y-86193434D01*
X50257020Y-86193291D01*
X50260070Y-86189095D01*
X50260847Y-86189659D01*
X50312808Y-86140333D01*
X50387802Y-86122315D01*
X50461758Y-86144209D01*
X50514859Y-86200146D01*
X50516686Y-86203619D01*
X50538268Y-86245976D01*
X50538273Y-86245984D01*
X50665020Y-86420435D01*
X50817508Y-86572923D01*
X50991959Y-86699670D01*
X50991962Y-86699671D01*
X51184102Y-86797572D01*
X51389189Y-86864209D01*
X51460000Y-86875424D01*
X51460000Y-85845653D01*
X51480339Y-85857396D01*
X51631667Y-85897944D01*
X51788333Y-85897944D01*
X51939661Y-85857396D01*
X51960000Y-85845653D01*
X51960000Y-86875424D01*
X52030809Y-86864209D01*
X52030811Y-86864209D01*
X52235897Y-86797572D01*
X52428037Y-86699671D01*
X52428040Y-86699670D01*
X52602491Y-86572923D01*
X52754979Y-86420435D01*
X52881726Y-86245984D01*
X52881730Y-86245977D01*
X52903310Y-86203623D01*
X52954917Y-86146305D01*
X53028270Y-86122469D01*
X53103713Y-86138504D01*
X53159914Y-86189106D01*
X53159930Y-86189095D01*
X53159981Y-86189166D01*
X53161031Y-86190111D01*
X53163107Y-86193400D01*
X53163372Y-86193833D01*
X53201257Y-86245977D01*
X53280917Y-86355619D01*
X53422325Y-86497027D01*
X53526787Y-86572923D01*
X53584110Y-86614571D01*
X53584111Y-86614572D01*
X53762294Y-86705362D01*
X53952484Y-86767158D01*
X53952484Y-86767159D01*
X53952489Y-86767159D01*
X53952490Y-86767160D01*
X54150009Y-86798444D01*
X54150013Y-86798444D01*
X54349987Y-86798444D01*
X54349991Y-86798444D01*
X54547510Y-86767160D01*
X54547511Y-86767159D01*
X54547515Y-86767159D01*
X54547515Y-86767158D01*
X54737703Y-86705363D01*
X54915887Y-86614573D01*
X55077675Y-86497027D01*
X55219083Y-86355619D01*
X55278800Y-86273424D01*
X55338738Y-86224888D01*
X55414916Y-86212822D01*
X55486921Y-86240462D01*
X55535460Y-86300402D01*
X55542425Y-86319435D01*
X55568255Y-86408341D01*
X55620702Y-86497024D01*
X55651919Y-86549809D01*
X55768135Y-86666025D01*
X55909602Y-86749688D01*
X56067428Y-86795541D01*
X56067427Y-86795541D01*
X56067431Y-86795542D01*
X56104306Y-86798444D01*
X56104313Y-86798444D01*
X57475687Y-86798444D01*
X57475694Y-86798444D01*
X57512569Y-86795542D01*
X57670398Y-86749688D01*
X57811865Y-86666025D01*
X57928081Y-86549809D01*
X58011744Y-86408342D01*
X58057598Y-86250513D01*
X58060500Y-86213638D01*
X58060500Y-84392250D01*
X58057598Y-84355375D01*
X58011744Y-84197546D01*
X57928081Y-84056079D01*
X57811865Y-83939863D01*
X57670398Y-83856200D01*
X57578824Y-83829595D01*
X57512571Y-83810346D01*
X57512572Y-83810346D01*
X57501506Y-83809475D01*
X57475694Y-83807444D01*
X56104306Y-83807444D01*
X56079722Y-83809378D01*
X56067428Y-83810346D01*
X55909599Y-83856201D01*
X55768136Y-83939862D01*
X55768133Y-83939864D01*
X55651920Y-84056077D01*
X55651918Y-84056080D01*
X55568256Y-84197545D01*
X55542425Y-84286453D01*
X55502470Y-84352425D01*
X55434882Y-84389580D01*
X55357770Y-84387964D01*
X55291798Y-84348009D01*
X55278799Y-84332461D01*
X55245372Y-84286453D01*
X55219083Y-84250269D01*
X55077675Y-84108861D01*
X54973212Y-84032964D01*
X54915889Y-83991316D01*
X54915888Y-83991315D01*
X54737705Y-83900525D01*
X54547515Y-83838729D01*
X54547515Y-83838728D01*
X54437777Y-83821348D01*
X54349991Y-83807444D01*
X54150009Y-83807444D01*
X54071001Y-83819957D01*
X53952484Y-83838728D01*
X53952484Y-83838729D01*
X53762294Y-83900525D01*
X53584111Y-83991315D01*
X53584110Y-83991316D01*
X53422334Y-84108854D01*
X53422323Y-84108863D01*
X53280919Y-84250267D01*
X53280910Y-84250278D01*
X53163373Y-84412054D01*
X53163112Y-84412480D01*
X53162956Y-84412627D01*
X53159930Y-84416793D01*
X53159157Y-84416231D01*
X53107162Y-84465569D01*
X53032164Y-84483571D01*
X52958214Y-84461662D01*
X52905125Y-84405712D01*
X52903312Y-84402267D01*
X52881727Y-84359906D01*
X52881726Y-84359903D01*
X52754979Y-84185452D01*
X52602491Y-84032964D01*
X52428040Y-83906217D01*
X52428037Y-83906216D01*
X52235897Y-83808315D01*
X52030814Y-83741679D01*
X52030809Y-83741678D01*
X51960000Y-83730461D01*
X51960000Y-84760234D01*
X51939661Y-84748492D01*
X51788333Y-84707944D01*
X51631667Y-84707944D01*
X51480339Y-84748492D01*
X51460000Y-84760234D01*
X51460000Y-83730461D01*
X51389190Y-83741678D01*
X51389185Y-83741679D01*
X51184102Y-83808315D01*
X50991962Y-83906216D01*
X50991959Y-83906217D01*
X50817508Y-84032964D01*
X50665020Y-84185452D01*
X50538273Y-84359903D01*
X50538268Y-84359912D01*
X50516685Y-84402270D01*
X50465075Y-84459586D01*
X50391722Y-84483418D01*
X50316279Y-84467380D01*
X50260086Y-84416781D01*
X50260070Y-84416793D01*
X50260014Y-84416717D01*
X50258963Y-84415770D01*
X50256877Y-84412463D01*
X50256634Y-84412067D01*
X50256629Y-84412057D01*
X50139083Y-84250269D01*
X49997675Y-84108861D01*
X49893212Y-84032964D01*
X49835889Y-83991316D01*
X49835888Y-83991315D01*
X49657705Y-83900525D01*
X49467515Y-83838729D01*
X49467515Y-83838728D01*
X49357777Y-83821348D01*
X49269991Y-83807444D01*
X49070009Y-83807444D01*
X48991001Y-83819957D01*
X48872484Y-83838728D01*
X48872484Y-83838729D01*
X48682294Y-83900525D01*
X48504111Y-83991315D01*
X48504110Y-83991316D01*
X48342334Y-84108854D01*
X48342323Y-84108863D01*
X48200919Y-84250267D01*
X48200910Y-84250278D01*
X48083372Y-84412054D01*
X48083371Y-84412055D01*
X47992581Y-84590238D01*
X47930785Y-84780428D01*
X47930784Y-84780428D01*
X47918621Y-84857228D01*
X47899500Y-84977953D01*
X38150133Y-84977953D01*
X38229008Y-84857224D01*
X38229010Y-84857221D01*
X38320209Y-84649309D01*
X38375946Y-84429206D01*
X38394695Y-84202945D01*
X38394695Y-84202942D01*
X38375946Y-83976681D01*
X38320209Y-83756578D01*
X38229007Y-83548659D01*
X38149513Y-83426983D01*
X37580529Y-83995966D01*
X37574452Y-83973283D01*
X37496118Y-83837606D01*
X37385338Y-83726826D01*
X37249661Y-83648492D01*
X37226974Y-83642413D01*
X37797420Y-83071968D01*
X37797420Y-83071967D01*
X37771889Y-83052096D01*
X37572207Y-82944034D01*
X37357473Y-82870315D01*
X37133518Y-82832944D01*
X36906481Y-82832944D01*
X36682526Y-82870315D01*
X36467792Y-82944034D01*
X36268110Y-83052096D01*
X36242578Y-83071967D01*
X36242578Y-83071968D01*
X36813023Y-83642413D01*
X36790339Y-83648492D01*
X36654662Y-83726826D01*
X36543882Y-83837606D01*
X36465548Y-83973283D01*
X36459469Y-83995967D01*
X35890486Y-83426984D01*
X35890485Y-83426984D01*
X35810992Y-83548659D01*
X35719790Y-83756578D01*
X35664053Y-83976681D01*
X35645305Y-84202942D01*
X33500000Y-84202942D01*
X33500000Y-81902944D01*
X55469355Y-81902944D01*
X55489860Y-82071818D01*
X55550181Y-82230873D01*
X55557204Y-82241047D01*
X55646817Y-82370873D01*
X55646819Y-82370874D01*
X55646820Y-82370876D01*
X55677374Y-82397944D01*
X55759136Y-82470379D01*
X55774146Y-82483676D01*
X55774148Y-82483678D01*
X55924775Y-82562734D01*
X56089944Y-82603444D01*
X56260056Y-82603444D01*
X56425225Y-82562734D01*
X56575852Y-82483678D01*
X56703183Y-82370873D01*
X56799818Y-82230874D01*
X56860140Y-82071816D01*
X56880645Y-81902944D01*
X56860140Y-81734072D01*
X56799818Y-81575014D01*
X56703183Y-81435015D01*
X56703180Y-81435012D01*
X56703179Y-81435011D01*
X56575853Y-81322211D01*
X56575854Y-81322211D01*
X56425224Y-81243153D01*
X56260056Y-81202444D01*
X56089944Y-81202444D01*
X55924775Y-81243153D01*
X55774145Y-81322211D01*
X55646820Y-81435011D01*
X55646817Y-81435015D01*
X55550181Y-81575014D01*
X55489860Y-81734069D01*
X55469355Y-81902944D01*
X33500000Y-81902944D01*
X33500000Y-68375296D01*
X35524500Y-68375296D01*
X35524500Y-69390592D01*
X35527267Y-69431403D01*
X35571125Y-69607762D01*
X35651868Y-69770566D01*
X35651869Y-69770567D01*
X35651871Y-69770571D01*
X35765728Y-69912216D01*
X35907373Y-70026073D01*
X36070182Y-70106819D01*
X36130830Y-70121901D01*
X36198311Y-70159252D01*
X36238075Y-70225340D01*
X36243586Y-70275731D01*
X36242577Y-70291967D01*
X36813023Y-70862413D01*
X36790339Y-70868492D01*
X36654662Y-70946826D01*
X36543882Y-71057606D01*
X36465548Y-71193283D01*
X36459469Y-71215967D01*
X35890486Y-70646984D01*
X35890485Y-70646984D01*
X35810992Y-70768659D01*
X35719790Y-70976578D01*
X35664053Y-71196681D01*
X35645305Y-71422942D01*
X35645305Y-71422945D01*
X35664053Y-71649206D01*
X35719790Y-71869309D01*
X35810992Y-72077228D01*
X35890486Y-72198902D01*
X36459469Y-71629918D01*
X36465548Y-71652605D01*
X36543882Y-71788282D01*
X36654662Y-71899062D01*
X36790339Y-71977396D01*
X36813022Y-71983474D01*
X36242578Y-72553919D01*
X36268112Y-72573792D01*
X36268115Y-72573794D01*
X36349757Y-72617976D01*
X36405778Y-72670990D01*
X36427785Y-72744912D01*
X36409884Y-72819933D01*
X36364306Y-72871071D01*
X36200218Y-72985967D01*
X36043024Y-73143161D01*
X35915513Y-73325266D01*
X35915512Y-73325267D01*
X35821560Y-73526747D01*
X35764021Y-73741481D01*
X35744647Y-73962943D01*
X35744647Y-73962944D01*
X35764021Y-74184406D01*
X35821560Y-74399140D01*
X35915509Y-74600615D01*
X35915516Y-74600628D01*
X36043021Y-74782723D01*
X36200220Y-74939922D01*
X36382315Y-75067427D01*
X36382320Y-75067430D01*
X36382323Y-75067432D01*
X36382325Y-75067433D01*
X36382332Y-75067437D01*
X36447670Y-75097904D01*
X36506754Y-75147480D01*
X36533134Y-75219957D01*
X36519741Y-75295913D01*
X36470165Y-75354997D01*
X36447672Y-75367983D01*
X36382329Y-75398453D01*
X36382322Y-75398457D01*
X36200217Y-75525968D01*
X36043024Y-75683161D01*
X35915513Y-75865266D01*
X35915512Y-75865267D01*
X35821560Y-76066747D01*
X35764021Y-76281481D01*
X35744647Y-76502943D01*
X35744647Y-76502944D01*
X35764021Y-76724406D01*
X35821560Y-76939140D01*
X35915509Y-77140615D01*
X35915516Y-77140628D01*
X36043021Y-77322723D01*
X36200220Y-77479922D01*
X36382315Y-77607427D01*
X36382318Y-77607429D01*
X36382323Y-77607432D01*
X36583804Y-77701384D01*
X36798537Y-77758922D01*
X37020000Y-77778297D01*
X37241463Y-77758922D01*
X37456196Y-77701384D01*
X37657677Y-77607432D01*
X37839781Y-77479921D01*
X37996977Y-77322725D01*
X38124488Y-77140621D01*
X38218440Y-76939140D01*
X38275978Y-76724407D01*
X38295353Y-76502944D01*
X38293667Y-76483678D01*
X38275978Y-76281481D01*
X38262418Y-76230874D01*
X38218440Y-76066748D01*
X38177034Y-75977953D01*
X47899500Y-75977953D01*
X47899500Y-76627935D01*
X47905926Y-76668506D01*
X47930784Y-76825459D01*
X47992581Y-77015649D01*
X48083371Y-77193832D01*
X48083372Y-77193833D01*
X48157489Y-77295846D01*
X48200917Y-77355619D01*
X48342325Y-77497027D01*
X48433052Y-77562944D01*
X48504110Y-77614571D01*
X48504111Y-77614572D01*
X48682294Y-77705362D01*
X48872484Y-77767158D01*
X48872484Y-77767159D01*
X48872489Y-77767159D01*
X48872490Y-77767160D01*
X49070009Y-77798444D01*
X49070013Y-77798444D01*
X49269987Y-77798444D01*
X49269991Y-77798444D01*
X49467510Y-77767160D01*
X49467511Y-77767159D01*
X49467515Y-77767159D01*
X49467515Y-77767158D01*
X49657703Y-77705363D01*
X49835887Y-77614573D01*
X49997675Y-77497027D01*
X50139083Y-77355619D01*
X50256629Y-77193831D01*
X50256639Y-77193809D01*
X50256871Y-77193434D01*
X50257020Y-77193291D01*
X50260070Y-77189095D01*
X50260847Y-77189659D01*
X50312808Y-77140333D01*
X50387802Y-77122315D01*
X50461758Y-77144209D01*
X50514859Y-77200146D01*
X50516686Y-77203619D01*
X50538268Y-77245976D01*
X50538273Y-77245984D01*
X50665020Y-77420435D01*
X50817508Y-77572923D01*
X50991959Y-77699670D01*
X50991962Y-77699671D01*
X51184102Y-77797572D01*
X51389189Y-77864209D01*
X51460000Y-77875424D01*
X51460000Y-76845653D01*
X51480339Y-76857396D01*
X51631667Y-76897944D01*
X51788333Y-76897944D01*
X51939661Y-76857396D01*
X51960000Y-76845653D01*
X51960000Y-77875424D01*
X52030809Y-77864209D01*
X52030811Y-77864209D01*
X52235897Y-77797572D01*
X52428037Y-77699671D01*
X52428040Y-77699670D01*
X52602491Y-77572923D01*
X52754979Y-77420435D01*
X52881726Y-77245984D01*
X52881730Y-77245977D01*
X52903310Y-77203623D01*
X52954917Y-77146305D01*
X53028270Y-77122469D01*
X53103713Y-77138504D01*
X53159914Y-77189106D01*
X53159930Y-77189095D01*
X53159981Y-77189166D01*
X53161031Y-77190111D01*
X53163107Y-77193400D01*
X53163372Y-77193833D01*
X53237489Y-77295846D01*
X53280917Y-77355619D01*
X53422325Y-77497027D01*
X53513052Y-77562944D01*
X53584110Y-77614571D01*
X53584111Y-77614572D01*
X53762294Y-77705362D01*
X53952484Y-77767158D01*
X53952484Y-77767159D01*
X53952489Y-77767159D01*
X53952490Y-77767160D01*
X54150009Y-77798444D01*
X54150013Y-77798444D01*
X54349987Y-77798444D01*
X54349991Y-77798444D01*
X54547510Y-77767160D01*
X54547511Y-77767159D01*
X54547515Y-77767159D01*
X54547515Y-77767158D01*
X54737703Y-77705363D01*
X54915887Y-77614573D01*
X55077675Y-77497027D01*
X55219083Y-77355619D01*
X55278800Y-77273424D01*
X55338738Y-77224888D01*
X55414916Y-77212822D01*
X55486921Y-77240462D01*
X55535460Y-77300402D01*
X55542425Y-77319435D01*
X55568255Y-77408341D01*
X55610588Y-77479922D01*
X55651919Y-77549809D01*
X55768135Y-77666025D01*
X55909602Y-77749688D01*
X56067428Y-77795541D01*
X56067427Y-77795541D01*
X56067431Y-77795542D01*
X56104306Y-77798444D01*
X56104313Y-77798444D01*
X57475687Y-77798444D01*
X57475694Y-77798444D01*
X57512569Y-77795542D01*
X57670398Y-77749688D01*
X57811865Y-77666025D01*
X57928081Y-77549809D01*
X58011744Y-77408342D01*
X58027839Y-77352944D01*
X76293855Y-77352944D01*
X76314360Y-77521818D01*
X76374681Y-77680873D01*
X76390921Y-77704400D01*
X76471317Y-77820873D01*
X76471319Y-77820874D01*
X76471320Y-77820876D01*
X76598646Y-77933676D01*
X76598648Y-77933678D01*
X76749275Y-78012734D01*
X76914444Y-78053444D01*
X77084556Y-78053444D01*
X77249725Y-78012734D01*
X77400352Y-77933678D01*
X77527683Y-77820873D01*
X77624318Y-77680874D01*
X77684640Y-77521816D01*
X77705145Y-77352944D01*
X77684640Y-77184072D01*
X77683299Y-77180537D01*
X77624318Y-77025014D01*
X77612535Y-77007944D01*
X77527683Y-76885015D01*
X77527680Y-76885012D01*
X77527679Y-76885011D01*
X77442826Y-76809838D01*
X77400299Y-76745494D01*
X77395642Y-76668506D01*
X77430103Y-76599505D01*
X77494447Y-76556978D01*
X77505946Y-76553647D01*
X77550225Y-76542734D01*
X77700852Y-76463678D01*
X77828183Y-76350873D01*
X77924818Y-76210874D01*
X77985140Y-76051816D01*
X78005645Y-75882944D01*
X77985140Y-75714072D01*
X77956458Y-75638444D01*
X77924818Y-75555014D01*
X77911354Y-75535508D01*
X77836542Y-75427125D01*
X77810650Y-75354475D01*
X77824553Y-75278610D01*
X77860359Y-75230958D01*
X77928183Y-75170873D01*
X78024818Y-75030874D01*
X78085140Y-74871816D01*
X78105645Y-74702944D01*
X78085140Y-74534072D01*
X78024818Y-74375014D01*
X77928183Y-74235015D01*
X77928180Y-74235012D01*
X77928179Y-74235011D01*
X77800853Y-74122211D01*
X77800854Y-74122211D01*
X77650224Y-74043153D01*
X77485056Y-74002444D01*
X77314944Y-74002444D01*
X77149775Y-74043153D01*
X76999145Y-74122211D01*
X76871820Y-74235011D01*
X76871817Y-74235015D01*
X76775181Y-74375014D01*
X76714860Y-74534069D01*
X76694355Y-74702944D01*
X76714860Y-74871818D01*
X76775181Y-75030872D01*
X76775182Y-75030874D01*
X76800420Y-75067437D01*
X76863457Y-75158762D01*
X76889349Y-75231414D01*
X76875446Y-75307278D01*
X76839638Y-75354931D01*
X76771817Y-75415015D01*
X76675181Y-75555014D01*
X76614860Y-75714069D01*
X76594355Y-75882944D01*
X76614860Y-76051818D01*
X76675181Y-76210873D01*
X76688986Y-76230872D01*
X76771817Y-76350873D01*
X76771819Y-76350874D01*
X76771820Y-76350876D01*
X76856673Y-76426049D01*
X76899200Y-76490393D01*
X76903857Y-76567381D01*
X76869396Y-76636382D01*
X76805052Y-76678909D01*
X76793526Y-76682247D01*
X76749275Y-76693153D01*
X76598645Y-76772211D01*
X76471320Y-76885011D01*
X76471317Y-76885015D01*
X76374681Y-77025014D01*
X76314360Y-77184069D01*
X76293855Y-77352944D01*
X58027839Y-77352944D01*
X58057598Y-77250513D01*
X58060500Y-77213638D01*
X58060500Y-76214192D01*
X58080462Y-76139692D01*
X58135000Y-76085154D01*
X58209500Y-76065192D01*
X58284000Y-76085154D01*
X58338538Y-76139692D01*
X58348818Y-76161357D01*
X58366675Y-76208444D01*
X58375182Y-76230874D01*
X58471817Y-76370873D01*
X58471819Y-76370874D01*
X58471820Y-76370876D01*
X58599146Y-76483676D01*
X58599148Y-76483678D01*
X58749775Y-76562734D01*
X58914944Y-76603444D01*
X59085056Y-76603444D01*
X59250225Y-76562734D01*
X59400852Y-76483678D01*
X59528183Y-76370873D01*
X59624818Y-76230874D01*
X59685140Y-76071816D01*
X59705645Y-75902944D01*
X59685140Y-75734072D01*
X59643418Y-75624060D01*
X59624818Y-75575014D01*
X59597547Y-75535506D01*
X59528183Y-75435015D01*
X59528180Y-75435012D01*
X59528179Y-75435011D01*
X59400853Y-75322211D01*
X59400854Y-75322211D01*
X59250224Y-75243153D01*
X59085056Y-75202444D01*
X58914944Y-75202444D01*
X58749775Y-75243153D01*
X58599145Y-75322211D01*
X58471820Y-75435011D01*
X58471817Y-75435015D01*
X58375181Y-75575014D01*
X58348818Y-75644531D01*
X58303735Y-75707111D01*
X58233402Y-75738765D01*
X58156664Y-75731013D01*
X58094084Y-75685930D01*
X58062430Y-75615597D01*
X58060500Y-75591695D01*
X58060500Y-75392257D01*
X58060500Y-75392250D01*
X58057598Y-75355375D01*
X58011744Y-75197546D01*
X57928081Y-75056079D01*
X57811865Y-74939863D01*
X57696807Y-74871818D01*
X57670400Y-74856201D01*
X57670399Y-74856200D01*
X57670398Y-74856200D01*
X57604279Y-74836990D01*
X57512571Y-74810346D01*
X57512572Y-74810346D01*
X57501506Y-74809475D01*
X57475694Y-74807444D01*
X56104306Y-74807444D01*
X56079722Y-74809378D01*
X56067428Y-74810346D01*
X55909599Y-74856201D01*
X55768136Y-74939862D01*
X55768133Y-74939864D01*
X55651920Y-75056077D01*
X55651918Y-75056080D01*
X55568256Y-75197545D01*
X55542425Y-75286453D01*
X55502470Y-75352425D01*
X55434882Y-75389580D01*
X55357770Y-75387964D01*
X55291798Y-75348009D01*
X55278799Y-75332461D01*
X55219083Y-75250269D01*
X55077675Y-75108861D01*
X54973212Y-75032964D01*
X54915889Y-74991316D01*
X54915888Y-74991315D01*
X54737705Y-74900525D01*
X54547515Y-74838729D01*
X54547515Y-74838728D01*
X54437777Y-74821348D01*
X54349991Y-74807444D01*
X54150009Y-74807444D01*
X54071001Y-74819957D01*
X53952484Y-74838728D01*
X53952484Y-74838729D01*
X53762294Y-74900525D01*
X53584111Y-74991315D01*
X53584110Y-74991316D01*
X53422334Y-75108854D01*
X53422323Y-75108863D01*
X53280919Y-75250267D01*
X53280910Y-75250278D01*
X53163373Y-75412054D01*
X53163112Y-75412480D01*
X53162956Y-75412627D01*
X53159930Y-75416793D01*
X53159157Y-75416231D01*
X53107162Y-75465569D01*
X53032164Y-75483571D01*
X52958214Y-75461662D01*
X52905125Y-75405712D01*
X52903312Y-75402267D01*
X52881727Y-75359906D01*
X52881726Y-75359903D01*
X52754979Y-75185452D01*
X52602491Y-75032964D01*
X52428040Y-74906217D01*
X52428037Y-74906216D01*
X52235897Y-74808315D01*
X52030814Y-74741679D01*
X52030809Y-74741678D01*
X51960000Y-74730461D01*
X51960000Y-75760234D01*
X51939661Y-75748492D01*
X51788333Y-75707944D01*
X51631667Y-75707944D01*
X51480339Y-75748492D01*
X51460000Y-75760234D01*
X51460000Y-74730461D01*
X51389190Y-74741678D01*
X51389185Y-74741679D01*
X51184102Y-74808315D01*
X50991962Y-74906216D01*
X50991959Y-74906217D01*
X50817508Y-75032964D01*
X50665020Y-75185452D01*
X50538273Y-75359903D01*
X50538268Y-75359912D01*
X50516685Y-75402270D01*
X50465075Y-75459586D01*
X50391722Y-75483418D01*
X50316279Y-75467380D01*
X50260086Y-75416781D01*
X50260070Y-75416793D01*
X50260014Y-75416717D01*
X50258963Y-75415770D01*
X50256877Y-75412463D01*
X50256634Y-75412067D01*
X50256629Y-75412057D01*
X50139083Y-75250269D01*
X49997675Y-75108861D01*
X49893212Y-75032964D01*
X49835889Y-74991316D01*
X49835888Y-74991315D01*
X49657705Y-74900525D01*
X49467515Y-74838729D01*
X49467515Y-74838728D01*
X49357777Y-74821348D01*
X49269991Y-74807444D01*
X49070009Y-74807444D01*
X48991001Y-74819957D01*
X48872484Y-74838728D01*
X48872484Y-74838729D01*
X48682294Y-74900525D01*
X48504111Y-74991315D01*
X48504110Y-74991316D01*
X48342334Y-75108854D01*
X48342323Y-75108863D01*
X48200919Y-75250267D01*
X48200910Y-75250278D01*
X48083372Y-75412054D01*
X48083371Y-75412055D01*
X47992581Y-75590238D01*
X47930785Y-75780428D01*
X47930784Y-75780428D01*
X47914548Y-75882944D01*
X47899500Y-75977953D01*
X38177034Y-75977953D01*
X38124488Y-75865268D01*
X37996977Y-75683163D01*
X37839781Y-75525967D01*
X37839779Y-75525965D01*
X37657684Y-75398460D01*
X37657667Y-75398450D01*
X37592330Y-75367984D01*
X37533246Y-75318408D01*
X37506866Y-75245931D01*
X37520259Y-75169975D01*
X37569835Y-75110891D01*
X37592330Y-75097904D01*
X37657667Y-75067437D01*
X37657669Y-75067435D01*
X37657677Y-75067432D01*
X37839781Y-74939921D01*
X37996977Y-74782725D01*
X38124488Y-74600621D01*
X38218440Y-74399140D01*
X38275978Y-74184407D01*
X38295353Y-73962944D01*
X38275978Y-73741481D01*
X38218440Y-73526748D01*
X38124488Y-73325268D01*
X37996977Y-73143163D01*
X37839781Y-72985967D01*
X37818078Y-72970770D01*
X37675694Y-72871071D01*
X37626118Y-72811987D01*
X37612725Y-72736031D01*
X37639105Y-72663554D01*
X37690243Y-72617976D01*
X37771884Y-72573795D01*
X37797421Y-72553918D01*
X37226977Y-71983474D01*
X37249661Y-71977396D01*
X37385338Y-71899062D01*
X37496118Y-71788282D01*
X37574452Y-71652605D01*
X37580530Y-71629920D01*
X38149513Y-72198902D01*
X38229008Y-72077224D01*
X38229010Y-72077221D01*
X38320209Y-71869309D01*
X38349676Y-71752944D01*
X79644355Y-71752944D01*
X79664860Y-71921818D01*
X79725181Y-72080873D01*
X79725182Y-72080874D01*
X79821817Y-72220873D01*
X79927745Y-72314717D01*
X79949146Y-72333676D01*
X79949148Y-72333678D01*
X80099775Y-72412734D01*
X80264944Y-72453444D01*
X80435056Y-72453444D01*
X80600225Y-72412734D01*
X80750852Y-72333678D01*
X80878183Y-72220873D01*
X80974818Y-72080874D01*
X81035140Y-71921816D01*
X81055645Y-71752944D01*
X81035140Y-71584072D01*
X80974818Y-71425014D01*
X80878183Y-71285015D01*
X80878180Y-71285012D01*
X80878179Y-71285011D01*
X80750853Y-71172211D01*
X80750854Y-71172211D01*
X80600224Y-71093153D01*
X80435056Y-71052444D01*
X80264944Y-71052444D01*
X80099775Y-71093153D01*
X79949145Y-71172211D01*
X79821820Y-71285011D01*
X79821817Y-71285015D01*
X79725181Y-71425014D01*
X79664860Y-71584069D01*
X79644355Y-71752944D01*
X38349676Y-71752944D01*
X38375946Y-71649206D01*
X38394695Y-71422945D01*
X38394695Y-71422942D01*
X38375946Y-71196681D01*
X38320209Y-70976578D01*
X38229007Y-70768659D01*
X38149513Y-70646983D01*
X37580529Y-71215966D01*
X37574452Y-71193283D01*
X37496118Y-71057606D01*
X37385338Y-70946826D01*
X37249661Y-70868492D01*
X37226974Y-70862413D01*
X37797421Y-70291967D01*
X37796413Y-70275733D01*
X37811718Y-70200139D01*
X37862771Y-70142325D01*
X37909166Y-70121902D01*
X37969818Y-70106819D01*
X38132627Y-70026073D01*
X38274272Y-69912216D01*
X38362107Y-69802944D01*
X71044355Y-69802944D01*
X71064860Y-69971818D01*
X71125181Y-70130873D01*
X71125182Y-70130874D01*
X71221817Y-70270873D01*
X71221819Y-70270874D01*
X71221820Y-70270876D01*
X71281866Y-70324072D01*
X71338291Y-70374060D01*
X71349146Y-70383676D01*
X71349148Y-70383678D01*
X71499775Y-70462734D01*
X71664944Y-70503444D01*
X71835056Y-70503444D01*
X72000225Y-70462734D01*
X72150852Y-70383678D01*
X72278183Y-70270873D01*
X72374818Y-70130874D01*
X72435140Y-69971816D01*
X72451092Y-69840444D01*
X75131855Y-69840444D01*
X75152360Y-70009318D01*
X75212681Y-70168373D01*
X75221920Y-70181758D01*
X75309317Y-70308373D01*
X75309319Y-70308374D01*
X75309320Y-70308376D01*
X75436646Y-70421176D01*
X75436648Y-70421178D01*
X75587275Y-70500234D01*
X75752444Y-70540944D01*
X75922556Y-70540944D01*
X76087725Y-70500234D01*
X76238352Y-70421178D01*
X76365683Y-70308373D01*
X76462318Y-70168374D01*
X76522640Y-70009316D01*
X76543145Y-69840444D01*
X76522640Y-69671572D01*
X76462318Y-69512514D01*
X76365683Y-69372515D01*
X76365680Y-69372512D01*
X76365679Y-69372511D01*
X76238353Y-69259711D01*
X76238354Y-69259711D01*
X76087724Y-69180653D01*
X75922556Y-69139944D01*
X75752444Y-69139944D01*
X75587275Y-69180653D01*
X75436645Y-69259711D01*
X75309320Y-69372511D01*
X75309317Y-69372515D01*
X75212681Y-69512514D01*
X75152360Y-69671569D01*
X75131855Y-69840444D01*
X72451092Y-69840444D01*
X72455645Y-69802944D01*
X72435140Y-69634072D01*
X72374818Y-69475014D01*
X72278183Y-69335015D01*
X72278180Y-69335012D01*
X72278179Y-69335011D01*
X72150853Y-69222211D01*
X72150854Y-69222211D01*
X72000224Y-69143153D01*
X71835056Y-69102444D01*
X71664944Y-69102444D01*
X71499775Y-69143153D01*
X71349145Y-69222211D01*
X71221820Y-69335011D01*
X71221817Y-69335015D01*
X71125181Y-69475014D01*
X71064860Y-69634069D01*
X71044355Y-69802944D01*
X38362107Y-69802944D01*
X38388129Y-69770571D01*
X38468875Y-69607762D01*
X38512733Y-69431402D01*
X38515500Y-69390599D01*
X38515499Y-68375290D01*
X38512733Y-68334486D01*
X38468875Y-68158126D01*
X38388129Y-67995317D01*
X38274272Y-67853672D01*
X38132627Y-67739815D01*
X38132623Y-67739813D01*
X38132622Y-67739812D01*
X37969818Y-67659069D01*
X37793454Y-67615210D01*
X37793455Y-67615210D01*
X37769179Y-67613564D01*
X37752655Y-67612444D01*
X37752647Y-67612444D01*
X36287351Y-67612444D01*
X36246540Y-67615211D01*
X36070181Y-67659069D01*
X35907377Y-67739812D01*
X35907373Y-67739814D01*
X35907373Y-67739815D01*
X35856384Y-67780801D01*
X35765728Y-67853672D01*
X35651868Y-67995321D01*
X35571125Y-68158125D01*
X35527266Y-68334489D01*
X35524500Y-68375296D01*
X33500000Y-68375296D01*
X33500000Y-58802944D01*
X38894355Y-58802944D01*
X38914860Y-58971818D01*
X38975181Y-59130873D01*
X38985833Y-59146305D01*
X39071817Y-59270873D01*
X39071819Y-59270874D01*
X39071820Y-59270876D01*
X39199146Y-59383676D01*
X39199148Y-59383678D01*
X39349775Y-59462734D01*
X39512915Y-59502944D01*
X39500000Y-59502944D01*
X39500000Y-67502944D01*
X47500000Y-67502944D01*
X47500000Y-66977953D01*
X47899500Y-66977953D01*
X47899500Y-67627935D01*
X47910914Y-67700001D01*
X47930784Y-67825459D01*
X47992581Y-68015649D01*
X48083371Y-68193832D01*
X48083372Y-68193833D01*
X48141201Y-68273427D01*
X48200917Y-68355619D01*
X48342325Y-68497027D01*
X48420735Y-68553995D01*
X48504110Y-68614571D01*
X48504111Y-68614572D01*
X48682294Y-68705362D01*
X48872484Y-68767158D01*
X48872484Y-68767159D01*
X48872489Y-68767159D01*
X48872490Y-68767160D01*
X49070009Y-68798444D01*
X49070013Y-68798444D01*
X49269987Y-68798444D01*
X49269991Y-68798444D01*
X49467510Y-68767160D01*
X49467511Y-68767159D01*
X49467515Y-68767159D01*
X49467515Y-68767158D01*
X49657703Y-68705363D01*
X49835887Y-68614573D01*
X49997675Y-68497027D01*
X50139083Y-68355619D01*
X50256629Y-68193831D01*
X50256639Y-68193809D01*
X50256871Y-68193434D01*
X50257020Y-68193291D01*
X50260070Y-68189095D01*
X50260847Y-68189659D01*
X50312808Y-68140333D01*
X50387802Y-68122315D01*
X50461758Y-68144209D01*
X50514859Y-68200146D01*
X50516686Y-68203619D01*
X50538268Y-68245976D01*
X50538273Y-68245984D01*
X50665020Y-68420435D01*
X50817508Y-68572923D01*
X50991959Y-68699670D01*
X50991962Y-68699671D01*
X51184102Y-68797572D01*
X51389189Y-68864209D01*
X51460000Y-68875424D01*
X51460000Y-67845653D01*
X51480339Y-67857396D01*
X51631667Y-67897944D01*
X51788333Y-67897944D01*
X51939661Y-67857396D01*
X51960000Y-67845653D01*
X51960000Y-68875424D01*
X52030809Y-68864209D01*
X52030811Y-68864209D01*
X52235897Y-68797572D01*
X52428037Y-68699671D01*
X52428040Y-68699670D01*
X52602491Y-68572923D01*
X52754979Y-68420435D01*
X52881726Y-68245984D01*
X52881730Y-68245977D01*
X52903310Y-68203623D01*
X52954917Y-68146305D01*
X53028270Y-68122469D01*
X53103713Y-68138504D01*
X53159914Y-68189106D01*
X53159930Y-68189095D01*
X53159981Y-68189166D01*
X53161031Y-68190111D01*
X53163107Y-68193400D01*
X53163372Y-68193833D01*
X53221201Y-68273427D01*
X53280917Y-68355619D01*
X53422325Y-68497027D01*
X53500735Y-68553995D01*
X53584110Y-68614571D01*
X53584111Y-68614572D01*
X53762294Y-68705362D01*
X53952484Y-68767158D01*
X53952484Y-68767159D01*
X53952489Y-68767159D01*
X53952490Y-68767160D01*
X54150009Y-68798444D01*
X54150013Y-68798444D01*
X54349987Y-68798444D01*
X54349991Y-68798444D01*
X54547510Y-68767160D01*
X54547511Y-68767159D01*
X54547515Y-68767159D01*
X54547515Y-68767158D01*
X54737703Y-68705363D01*
X54915887Y-68614573D01*
X55077675Y-68497027D01*
X55219083Y-68355619D01*
X55278800Y-68273424D01*
X55338738Y-68224888D01*
X55414916Y-68212822D01*
X55486921Y-68240462D01*
X55535460Y-68300402D01*
X55542425Y-68319435D01*
X55568255Y-68408341D01*
X55594338Y-68452445D01*
X55651919Y-68549809D01*
X55768135Y-68666025D01*
X55909602Y-68749688D01*
X56067428Y-68795541D01*
X56067427Y-68795541D01*
X56067431Y-68795542D01*
X56104306Y-68798444D01*
X56104313Y-68798444D01*
X57475687Y-68798444D01*
X57475694Y-68798444D01*
X57512569Y-68795542D01*
X57670398Y-68749688D01*
X57811865Y-68666025D01*
X57928081Y-68549809D01*
X58011744Y-68408342D01*
X58057598Y-68250513D01*
X58060500Y-68213638D01*
X58060500Y-67802944D01*
X63594355Y-67802944D01*
X63614860Y-67971818D01*
X63675181Y-68130873D01*
X63685833Y-68146305D01*
X63771817Y-68270873D01*
X63771819Y-68270874D01*
X63771820Y-68270876D01*
X63899146Y-68383676D01*
X63899148Y-68383678D01*
X64049775Y-68462734D01*
X64214944Y-68503444D01*
X64385056Y-68503444D01*
X64550225Y-68462734D01*
X64700852Y-68383678D01*
X64828183Y-68270873D01*
X64924818Y-68130874D01*
X64985140Y-67971816D01*
X65005645Y-67802944D01*
X64985140Y-67634072D01*
X64961957Y-67572944D01*
X64924818Y-67475014D01*
X64895008Y-67431827D01*
X64828183Y-67335015D01*
X64828180Y-67335012D01*
X64828179Y-67335011D01*
X64700853Y-67222211D01*
X64700854Y-67222211D01*
X64550224Y-67143153D01*
X64385056Y-67102444D01*
X64214944Y-67102444D01*
X64049775Y-67143153D01*
X63899145Y-67222211D01*
X63771820Y-67335011D01*
X63771817Y-67335015D01*
X63675181Y-67475014D01*
X63614860Y-67634069D01*
X63594355Y-67802944D01*
X58060500Y-67802944D01*
X58060500Y-66392250D01*
X58057598Y-66355375D01*
X58011744Y-66197546D01*
X57928081Y-66056079D01*
X57811865Y-65939863D01*
X57670398Y-65856200D01*
X57604279Y-65836990D01*
X57512571Y-65810346D01*
X57512572Y-65810346D01*
X57501506Y-65809475D01*
X57475694Y-65807444D01*
X56104306Y-65807444D01*
X56079722Y-65809378D01*
X56067428Y-65810346D01*
X55909599Y-65856201D01*
X55768136Y-65939862D01*
X55768133Y-65939864D01*
X55651920Y-66056077D01*
X55651918Y-66056080D01*
X55568256Y-66197545D01*
X55542425Y-66286453D01*
X55502470Y-66352425D01*
X55434882Y-66389580D01*
X55357770Y-66387964D01*
X55291798Y-66348009D01*
X55278799Y-66332461D01*
X55255518Y-66300418D01*
X55219083Y-66250269D01*
X55077675Y-66108861D01*
X54937019Y-66006668D01*
X54915889Y-65991316D01*
X54915888Y-65991315D01*
X54737705Y-65900525D01*
X54547515Y-65838729D01*
X54547515Y-65838728D01*
X54437777Y-65821348D01*
X54349991Y-65807444D01*
X54150009Y-65807444D01*
X54071001Y-65819957D01*
X53952484Y-65838728D01*
X53952484Y-65838729D01*
X53762294Y-65900525D01*
X53584111Y-65991315D01*
X53584110Y-65991316D01*
X53422334Y-66108854D01*
X53422323Y-66108863D01*
X53280919Y-66250267D01*
X53280910Y-66250278D01*
X53163373Y-66412054D01*
X53163112Y-66412480D01*
X53162956Y-66412627D01*
X53159930Y-66416793D01*
X53159157Y-66416231D01*
X53107162Y-66465569D01*
X53032164Y-66483571D01*
X52958214Y-66461662D01*
X52905125Y-66405712D01*
X52903312Y-66402267D01*
X52881727Y-66359906D01*
X52881726Y-66359903D01*
X52754979Y-66185452D01*
X52602491Y-66032964D01*
X52428040Y-65906217D01*
X52428037Y-65906216D01*
X52235897Y-65808315D01*
X52030814Y-65741679D01*
X52030809Y-65741678D01*
X51960000Y-65730461D01*
X51960000Y-66760234D01*
X51939661Y-66748492D01*
X51788333Y-66707944D01*
X51631667Y-66707944D01*
X51480339Y-66748492D01*
X51460000Y-66760234D01*
X51460000Y-65730461D01*
X51389190Y-65741678D01*
X51389185Y-65741679D01*
X51184102Y-65808315D01*
X50991962Y-65906216D01*
X50991959Y-65906217D01*
X50817508Y-66032964D01*
X50665020Y-66185452D01*
X50538273Y-66359903D01*
X50538268Y-66359912D01*
X50516685Y-66402270D01*
X50465075Y-66459586D01*
X50391722Y-66483418D01*
X50316279Y-66467380D01*
X50260086Y-66416781D01*
X50260070Y-66416793D01*
X50260014Y-66416717D01*
X50258963Y-66415770D01*
X50256877Y-66412463D01*
X50256634Y-66412067D01*
X50256629Y-66412057D01*
X50139083Y-66250269D01*
X49997675Y-66108861D01*
X49857019Y-66006668D01*
X49835889Y-65991316D01*
X49835888Y-65991315D01*
X49657705Y-65900525D01*
X49467515Y-65838729D01*
X49467515Y-65838728D01*
X49357777Y-65821348D01*
X49269991Y-65807444D01*
X49070009Y-65807444D01*
X48991001Y-65819957D01*
X48872484Y-65838728D01*
X48872484Y-65838729D01*
X48682294Y-65900525D01*
X48504111Y-65991315D01*
X48504110Y-65991316D01*
X48342334Y-66108854D01*
X48342323Y-66108863D01*
X48200919Y-66250267D01*
X48200910Y-66250278D01*
X48083372Y-66412054D01*
X48083371Y-66412055D01*
X47992581Y-66590238D01*
X47930785Y-66780428D01*
X47930784Y-66780428D01*
X47912686Y-66894699D01*
X47899500Y-66977953D01*
X47500000Y-66977953D01*
X47500000Y-64977944D01*
X65794355Y-64977944D01*
X65814860Y-65146818D01*
X65875181Y-65305873D01*
X65875182Y-65305874D01*
X65971817Y-65445873D01*
X65971819Y-65445874D01*
X65971820Y-65445876D01*
X66099146Y-65558676D01*
X66099148Y-65558678D01*
X66249775Y-65637734D01*
X66414944Y-65678444D01*
X66585056Y-65678444D01*
X66750225Y-65637734D01*
X66900852Y-65558678D01*
X67028183Y-65445873D01*
X67124818Y-65305874D01*
X67185140Y-65146816D01*
X67205645Y-64977944D01*
X67185140Y-64809072D01*
X67124818Y-64650014D01*
X67028183Y-64510015D01*
X67028180Y-64510012D01*
X67028179Y-64510011D01*
X66900853Y-64397211D01*
X66900854Y-64397211D01*
X66750224Y-64318153D01*
X66585056Y-64277444D01*
X66414944Y-64277444D01*
X66249775Y-64318153D01*
X66099145Y-64397211D01*
X65971820Y-64510011D01*
X65971817Y-64510015D01*
X65875181Y-64650014D01*
X65814860Y-64809069D01*
X65794355Y-64977944D01*
X47500000Y-64977944D01*
X47500000Y-60802944D01*
X69794355Y-60802944D01*
X69814860Y-60971818D01*
X69875181Y-61130873D01*
X69875182Y-61130874D01*
X69971817Y-61270873D01*
X70067779Y-61355888D01*
X70099146Y-61383676D01*
X70099148Y-61383678D01*
X70249775Y-61462734D01*
X70414944Y-61503444D01*
X70585056Y-61503444D01*
X70750225Y-61462734D01*
X70900852Y-61383678D01*
X71028183Y-61270873D01*
X71124818Y-61130874D01*
X71185140Y-60971816D01*
X71205645Y-60802944D01*
X71185140Y-60634072D01*
X71124818Y-60475014D01*
X71028183Y-60335015D01*
X71028180Y-60335012D01*
X71028179Y-60335011D01*
X70900853Y-60222211D01*
X70900854Y-60222211D01*
X70750224Y-60143153D01*
X70585056Y-60102444D01*
X70414944Y-60102444D01*
X70249775Y-60143153D01*
X70099145Y-60222211D01*
X69971820Y-60335011D01*
X69971817Y-60335015D01*
X69875181Y-60475014D01*
X69814860Y-60634069D01*
X69794355Y-60802944D01*
X47500000Y-60802944D01*
X47500000Y-59502944D01*
X39687085Y-59502944D01*
X39850225Y-59462734D01*
X40000852Y-59383678D01*
X40128183Y-59270873D01*
X40224818Y-59130874D01*
X40285140Y-58971816D01*
X40305645Y-58802944D01*
X40285140Y-58634072D01*
X40224818Y-58475014D01*
X40128183Y-58335015D01*
X40128180Y-58335012D01*
X40128179Y-58335011D01*
X40000853Y-58222211D01*
X40000854Y-58222211D01*
X39850224Y-58143153D01*
X39685056Y-58102444D01*
X39514944Y-58102444D01*
X39349775Y-58143153D01*
X39199145Y-58222211D01*
X39071820Y-58335011D01*
X39071817Y-58335015D01*
X38975181Y-58475014D01*
X38914860Y-58634069D01*
X38894355Y-58802944D01*
X33500000Y-58802944D01*
X33500000Y-56387600D01*
X33500004Y-56386554D01*
X33501149Y-56223406D01*
X33501152Y-56222935D01*
X33501445Y-56214611D01*
X33511561Y-56054581D01*
X33512196Y-56047353D01*
X33520751Y-55971435D01*
X33521913Y-55963215D01*
X33576131Y-55644152D01*
X33579849Y-55627863D01*
X33668277Y-55320942D01*
X33673790Y-55305186D01*
X33796049Y-55010036D01*
X33803277Y-54995029D01*
X33957803Y-54715441D01*
X33966685Y-54701305D01*
X34151535Y-54440786D01*
X34161940Y-54427738D01*
X34374806Y-54189542D01*
X34386605Y-54177744D01*
X34624787Y-53964893D01*
X34637841Y-53954481D01*
X34898360Y-53769631D01*
X34912491Y-53760752D01*
X35192068Y-53606232D01*
X35207108Y-53598990D01*
X35502224Y-53476744D01*
X35517981Y-53471231D01*
X35518356Y-53471123D01*
X35824927Y-53382795D01*
X35841208Y-53379080D01*
X35876460Y-53373089D01*
X36160245Y-53324867D01*
X36168507Y-53323700D01*
X36244420Y-53315145D01*
X36251622Y-53314512D01*
X36411690Y-53304390D01*
X36419987Y-53304099D01*
X36581106Y-53302965D01*
X36583613Y-53302948D01*
X36584661Y-53302944D01*
X87080554Y-53302944D01*
X87155054Y-53322906D01*
G37*
%TD.AperFunction*%
%TA.AperFunction,Conductor*%
G36*
X107129000Y-73230020D02*
G01*
X107165249Y-73259381D01*
X109656025Y-76026910D01*
X109661655Y-76033165D01*
X109661662Y-76033172D01*
X109700405Y-76070836D01*
X109700409Y-76070839D01*
X109700412Y-76070842D01*
X109725541Y-76092205D01*
X109759302Y-76117986D01*
X109873940Y-76172333D01*
X109873944Y-76172334D01*
X109873948Y-76172336D01*
X109940967Y-76192015D01*
X109940975Y-76192017D01*
X109940979Y-76192018D01*
X109940980Y-76192018D01*
X109940984Y-76192019D01*
X109990764Y-76199176D01*
X110055225Y-76208444D01*
X110055229Y-76208444D01*
X118351000Y-76208444D01*
X118425500Y-76228406D01*
X118480038Y-76282944D01*
X118500000Y-76357444D01*
X118500000Y-77273306D01*
X118488658Y-77330326D01*
X118157788Y-78129115D01*
X118125489Y-78177454D01*
X117853552Y-78449391D01*
X117500000Y-79302943D01*
X117500000Y-81302944D01*
X117853552Y-82156496D01*
X118125489Y-82428433D01*
X118157788Y-82476772D01*
X118305320Y-82832944D01*
X118439271Y-83156332D01*
X118488658Y-83275561D01*
X118500000Y-83332581D01*
X118500000Y-85773306D01*
X118488658Y-85830326D01*
X118157788Y-86629115D01*
X118125489Y-86677454D01*
X117853552Y-86949391D01*
X117500000Y-87802943D01*
X117500000Y-89802944D01*
X117853552Y-90656496D01*
X118125489Y-90928433D01*
X118157788Y-90976772D01*
X118244150Y-91185267D01*
X118424542Y-91620773D01*
X118488658Y-91775561D01*
X118500000Y-91832581D01*
X118500000Y-104218203D01*
X118499997Y-104219208D01*
X118498893Y-104382941D01*
X118498602Y-104391292D01*
X118488536Y-104551282D01*
X118487893Y-104558608D01*
X118479351Y-104634425D01*
X118478183Y-104642699D01*
X118423977Y-104961759D01*
X118420259Y-104978050D01*
X118331833Y-105284993D01*
X118326314Y-105300765D01*
X118204079Y-105595872D01*
X118196829Y-105610927D01*
X118042306Y-105890516D01*
X118033416Y-105904665D01*
X117848569Y-106165180D01*
X117838151Y-106178243D01*
X117625310Y-106416410D01*
X117613495Y-106428226D01*
X117375298Y-106641088D01*
X117362233Y-106651506D01*
X117101717Y-106836347D01*
X117087577Y-106845231D01*
X116951070Y-106920674D01*
X116808005Y-106999740D01*
X116792951Y-107006989D01*
X116500376Y-107128172D01*
X116497983Y-107129164D01*
X116497828Y-107129228D01*
X116482056Y-107134746D01*
X116175085Y-107223174D01*
X116158798Y-107226891D01*
X115839775Y-107281086D01*
X115831498Y-107282255D01*
X115755641Y-107290799D01*
X115748338Y-107291440D01*
X115588361Y-107301525D01*
X115580011Y-107301816D01*
X115416401Y-107302940D01*
X115415377Y-107302944D01*
X106919446Y-107302944D01*
X106844946Y-107282982D01*
X106790408Y-107228444D01*
X106770446Y-107153944D01*
X106790408Y-107079444D01*
X106800071Y-107064981D01*
X106800054Y-107064969D01*
X106800536Y-107064285D01*
X106801239Y-107063235D01*
X106801379Y-107063051D01*
X106801742Y-107062579D01*
X106820120Y-107036576D01*
X106871721Y-106920676D01*
X106891683Y-106846176D01*
X106905500Y-106741226D01*
X106905500Y-101302944D01*
X112500000Y-101302944D01*
X112500000Y-93302944D01*
X106902962Y-93302944D01*
X106903299Y-93280619D01*
X106905500Y-93263912D01*
X106905500Y-88802944D01*
X109894559Y-88802944D01*
X109914309Y-89179809D01*
X109919478Y-89212444D01*
X109970612Y-89535292D01*
X109973348Y-89552563D01*
X109973349Y-89552566D01*
X110071020Y-89917082D01*
X110071027Y-89917102D01*
X110206260Y-90269395D01*
X110206271Y-90269419D01*
X110377589Y-90605651D01*
X110377600Y-90605671D01*
X110583133Y-90922163D01*
X110583137Y-90922169D01*
X110820635Y-91215455D01*
X111087489Y-91482309D01*
X111380775Y-91719807D01*
X111399284Y-91731827D01*
X111697272Y-91925343D01*
X111697292Y-91925354D01*
X111843796Y-92000001D01*
X112033535Y-92096678D01*
X112385857Y-92231922D01*
X112750387Y-92329597D01*
X113123129Y-92388634D01*
X113500000Y-92408385D01*
X113876871Y-92388634D01*
X114249613Y-92329597D01*
X114614143Y-92231922D01*
X114966465Y-92096678D01*
X115302721Y-91925347D01*
X115619225Y-91719807D01*
X115912511Y-91482309D01*
X116179365Y-91215455D01*
X116416863Y-90922169D01*
X116622403Y-90605665D01*
X116793734Y-90269409D01*
X116928978Y-89917087D01*
X117026653Y-89552557D01*
X117085690Y-89179815D01*
X117105441Y-88802944D01*
X117085690Y-88426073D01*
X117026653Y-88053331D01*
X116928978Y-87688801D01*
X116793734Y-87336479D01*
X116622403Y-87000224D01*
X116622401Y-87000221D01*
X116622399Y-87000217D01*
X116427222Y-86699671D01*
X116416863Y-86683719D01*
X116179365Y-86390433D01*
X115912511Y-86123579D01*
X115619225Y-85886081D01*
X115533370Y-85830326D01*
X115302727Y-85680544D01*
X115302707Y-85680533D01*
X114966475Y-85509215D01*
X114966473Y-85509214D01*
X114966465Y-85509210D01*
X114966459Y-85509207D01*
X114966451Y-85509204D01*
X114614158Y-85373971D01*
X114614138Y-85373964D01*
X114249622Y-85276293D01*
X114249619Y-85276292D01*
X113876865Y-85217253D01*
X113500000Y-85197503D01*
X113123134Y-85217253D01*
X112750380Y-85276292D01*
X112750377Y-85276293D01*
X112385861Y-85373964D01*
X112385841Y-85373971D01*
X112033548Y-85509204D01*
X112033532Y-85509211D01*
X111697286Y-85680537D01*
X111697273Y-85680544D01*
X111380780Y-85886077D01*
X111087485Y-86123582D01*
X110820638Y-86390429D01*
X110583133Y-86683724D01*
X110377600Y-87000217D01*
X110377593Y-87000230D01*
X110206267Y-87336476D01*
X110206260Y-87336492D01*
X110071027Y-87688785D01*
X110071020Y-87688805D01*
X109973349Y-88053321D01*
X109973348Y-88053324D01*
X109914309Y-88426078D01*
X109894559Y-88802944D01*
X106905500Y-88802944D01*
X106905500Y-83541142D01*
X106901477Y-83484167D01*
X106895594Y-83442712D01*
X106888978Y-83407411D01*
X106841137Y-83289908D01*
X106801236Y-83223903D01*
X106750032Y-83156332D01*
X106649848Y-83078494D01*
X106582290Y-83041284D01*
X106582288Y-83041283D01*
X106582286Y-83041282D01*
X106582272Y-83041276D01*
X106483710Y-83002759D01*
X106483694Y-83002753D01*
X106412191Y-82985129D01*
X106378607Y-82972392D01*
X106347205Y-82955911D01*
X106317646Y-82935508D01*
X106291110Y-82912000D01*
X106267288Y-82885111D01*
X106247146Y-82855930D01*
X106230457Y-82824132D01*
X106217880Y-82790971D01*
X106209287Y-82756108D01*
X106205012Y-82720897D01*
X106205012Y-82684988D01*
X106209287Y-82649776D01*
X106217879Y-82614917D01*
X106230458Y-82581750D01*
X106247145Y-82549957D01*
X106267293Y-82520767D01*
X106291105Y-82493889D01*
X106317647Y-82470375D01*
X106347200Y-82449976D01*
X106378607Y-82433492D01*
X106412187Y-82420757D01*
X106483699Y-82403132D01*
X106538051Y-82385594D01*
X106576893Y-82369962D01*
X106609593Y-82355086D01*
X106712232Y-82280515D01*
X106766770Y-82225977D01*
X106820120Y-82160095D01*
X106871721Y-82044195D01*
X106891683Y-81969695D01*
X106905500Y-81864745D01*
X106905500Y-80302944D01*
X109894559Y-80302944D01*
X109914309Y-80679809D01*
X109973348Y-81052563D01*
X109973349Y-81052566D01*
X110071020Y-81417082D01*
X110071027Y-81417102D01*
X110206260Y-81769395D01*
X110206271Y-81769419D01*
X110377589Y-82105651D01*
X110377600Y-82105671D01*
X110559383Y-82385591D01*
X110583137Y-82422169D01*
X110820635Y-82715455D01*
X111087489Y-82982309D01*
X111380775Y-83219807D01*
X111466629Y-83275561D01*
X111697272Y-83425343D01*
X111697292Y-83425354D01*
X111812698Y-83484156D01*
X112033535Y-83596678D01*
X112385857Y-83731922D01*
X112750387Y-83829597D01*
X113123129Y-83888634D01*
X113500000Y-83908385D01*
X113876871Y-83888634D01*
X114249613Y-83829597D01*
X114614143Y-83731922D01*
X114966465Y-83596678D01*
X115302721Y-83425347D01*
X115619225Y-83219807D01*
X115912511Y-82982309D01*
X116179365Y-82715455D01*
X116416863Y-82422169D01*
X116622403Y-82105665D01*
X116793734Y-81769409D01*
X116928978Y-81417087D01*
X117026653Y-81052557D01*
X117085690Y-80679815D01*
X117105441Y-80302944D01*
X117085690Y-79926073D01*
X117026653Y-79553331D01*
X116928978Y-79188801D01*
X116923149Y-79173617D01*
X116793739Y-78836492D01*
X116793738Y-78836491D01*
X116793734Y-78836479D01*
X116622403Y-78500224D01*
X116622401Y-78500221D01*
X116622399Y-78500217D01*
X116416866Y-78183724D01*
X116416863Y-78183719D01*
X116179365Y-77890433D01*
X115912511Y-77623579D01*
X115619225Y-77386081D01*
X115619219Y-77386077D01*
X115302727Y-77180544D01*
X115302707Y-77180533D01*
X114966475Y-77009215D01*
X114966473Y-77009214D01*
X114966465Y-77009210D01*
X114966459Y-77009207D01*
X114966451Y-77009204D01*
X114614158Y-76873971D01*
X114614138Y-76873964D01*
X114249622Y-76776293D01*
X114249619Y-76776292D01*
X113876865Y-76717253D01*
X113500000Y-76697503D01*
X113123134Y-76717253D01*
X112750380Y-76776292D01*
X112750377Y-76776293D01*
X112385861Y-76873964D01*
X112385841Y-76873971D01*
X112033548Y-77009204D01*
X112033532Y-77009211D01*
X111697286Y-77180537D01*
X111697273Y-77180544D01*
X111380780Y-77386077D01*
X111087485Y-77623582D01*
X110820638Y-77890429D01*
X110719829Y-78014918D01*
X110606371Y-78155028D01*
X110583133Y-78183724D01*
X110377600Y-78500217D01*
X110377593Y-78500230D01*
X110206267Y-78836476D01*
X110206260Y-78836492D01*
X110071027Y-79188785D01*
X110071020Y-79188805D01*
X109973349Y-79553321D01*
X109973348Y-79553324D01*
X109914309Y-79926078D01*
X109894559Y-80302944D01*
X106905500Y-80302944D01*
X106905500Y-73359058D01*
X106925462Y-73284558D01*
X106980000Y-73230020D01*
X107054500Y-73210058D01*
X107129000Y-73230020D01*
G37*
%TD.AperFunction*%
%TA.AperFunction,Conductor*%
G36*
X90053382Y-91512273D02*
G01*
X90087809Y-91520758D01*
X90121396Y-91533496D01*
X90152789Y-91549972D01*
X90182346Y-91570373D01*
X90207799Y-91592922D01*
X90239667Y-91618410D01*
X90239671Y-91618413D01*
X90263962Y-91635914D01*
X90280146Y-91646990D01*
X90280149Y-91646991D01*
X90280150Y-91646992D01*
X90324605Y-91666784D01*
X90384545Y-91715322D01*
X90412186Y-91787327D01*
X90400121Y-91863506D01*
X90351583Y-91923446D01*
X90330576Y-91936203D01*
X90295523Y-91953709D01*
X90295521Y-91953710D01*
X90207799Y-92012963D01*
X90207793Y-92012969D01*
X90182348Y-92035511D01*
X90152786Y-92055916D01*
X90121389Y-92072394D01*
X90087810Y-92085129D01*
X90063125Y-92091214D01*
X90053391Y-92093613D01*
X90017731Y-92097944D01*
X89982268Y-92097944D01*
X89946614Y-92093614D01*
X89912191Y-92085130D01*
X89878608Y-92072393D01*
X89847205Y-92055911D01*
X89817646Y-92035508D01*
X89791108Y-92011998D01*
X89767285Y-91985107D01*
X89747146Y-91955929D01*
X89730457Y-91924130D01*
X89717884Y-91890980D01*
X89709287Y-91856106D01*
X89705012Y-91820897D01*
X89705012Y-91784988D01*
X89709287Y-91749776D01*
X89717879Y-91714917D01*
X89730458Y-91681750D01*
X89747145Y-91649957D01*
X89767293Y-91620767D01*
X89791101Y-91593893D01*
X89817654Y-91570370D01*
X89847197Y-91549977D01*
X89878608Y-91533491D01*
X89912183Y-91520758D01*
X89946621Y-91512271D01*
X89982270Y-91507944D01*
X90017726Y-91507944D01*
X90053382Y-91512273D01*
G37*
%TD.AperFunction*%
%TA.AperFunction,Conductor*%
G36*
X93038311Y-75007944D02*
G01*
X93117726Y-75007944D01*
X93153382Y-75012273D01*
X93187809Y-75020758D01*
X93221397Y-75033496D01*
X93252791Y-75049973D01*
X93282351Y-75070377D01*
X93308889Y-75093887D01*
X93332709Y-75120774D01*
X93352850Y-75149953D01*
X93369542Y-75181757D01*
X93375529Y-75197543D01*
X93382115Y-75214907D01*
X93390711Y-75249783D01*
X93394985Y-75284980D01*
X93394986Y-75320902D01*
X93390712Y-75356100D01*
X93382115Y-75390976D01*
X93369542Y-75424128D01*
X93352849Y-75455933D01*
X93332710Y-75485109D01*
X93308893Y-75511993D01*
X93282351Y-75535508D01*
X93252788Y-75555915D01*
X93221390Y-75572394D01*
X93187806Y-75585130D01*
X93153386Y-75593614D01*
X93117731Y-75597944D01*
X93082268Y-75597944D01*
X93046612Y-75593614D01*
X93012191Y-75585130D01*
X92978606Y-75572393D01*
X92947205Y-75555912D01*
X92917643Y-75535506D01*
X92891109Y-75511998D01*
X92867292Y-75485114D01*
X92847147Y-75455929D01*
X92830453Y-75424121D01*
X92817884Y-75390978D01*
X92809288Y-75356102D01*
X92809262Y-75355885D01*
X92806750Y-75335196D01*
X92806749Y-75335193D01*
X92803848Y-75311308D01*
X92802810Y-75289600D01*
X92802890Y-75286453D01*
X92803813Y-75249783D01*
X92804330Y-75229236D01*
X92804329Y-75229233D01*
X92804330Y-75229227D01*
X92800339Y-75172705D01*
X92799536Y-75167005D01*
X92808910Y-75090448D01*
X92855306Y-75028835D01*
X92926292Y-74998675D01*
X92966524Y-74998493D01*
X93038311Y-75007944D01*
G37*
%TD.AperFunction*%
%TA.AperFunction,Conductor*%
G36*
X89153382Y-70012273D02*
G01*
X89187809Y-70020758D01*
X89221397Y-70033496D01*
X89252791Y-70049973D01*
X89282349Y-70070375D01*
X89308888Y-70093886D01*
X89308889Y-70093887D01*
X89332707Y-70120772D01*
X89352849Y-70149952D01*
X89369542Y-70181758D01*
X89382115Y-70214910D01*
X89390712Y-70249788D01*
X89398544Y-70314294D01*
X89399427Y-70330118D01*
X89399604Y-70330115D01*
X89399640Y-70332217D01*
X89399640Y-70332239D01*
X89400029Y-70354773D01*
X89400040Y-70355409D01*
X89400040Y-70355410D01*
X89413089Y-70418838D01*
X89408548Y-70495833D01*
X89366118Y-70560241D01*
X89345585Y-70575543D01*
X89304004Y-70601289D01*
X89304000Y-70601292D01*
X89292476Y-70611798D01*
X89223970Y-70647234D01*
X89146925Y-70643670D01*
X89120213Y-70632195D01*
X89099815Y-70620960D01*
X89099806Y-70620955D01*
X89001211Y-70582423D01*
X89001203Y-70582421D01*
X88996669Y-70580649D01*
X88996833Y-70580228D01*
X88980728Y-70573506D01*
X88947206Y-70555912D01*
X88917652Y-70535513D01*
X88891104Y-70511995D01*
X88867289Y-70485112D01*
X88847145Y-70455929D01*
X88830455Y-70424127D01*
X88828449Y-70418838D01*
X88817882Y-70390975D01*
X88809287Y-70356106D01*
X88805012Y-70320897D01*
X88805012Y-70284988D01*
X88809287Y-70249776D01*
X88817879Y-70214917D01*
X88830458Y-70181750D01*
X88847145Y-70149957D01*
X88867293Y-70120767D01*
X88891101Y-70093893D01*
X88917654Y-70070370D01*
X88947197Y-70049977D01*
X88978608Y-70033491D01*
X89012183Y-70020758D01*
X89046621Y-70012271D01*
X89082270Y-70007944D01*
X89117726Y-70007944D01*
X89153382Y-70012273D01*
G37*
%TD.AperFunction*%
%TA.AperFunction,Conductor*%
G36*
X115416261Y-53302947D02*
G01*
X115417856Y-53302957D01*
X115580032Y-53304053D01*
X115588347Y-53304342D01*
X115748352Y-53314412D01*
X115755643Y-53315052D01*
X115831491Y-53323598D01*
X115839741Y-53324763D01*
X116158805Y-53378974D01*
X116175069Y-53382686D01*
X116482039Y-53471123D01*
X116497810Y-53476642D01*
X116792924Y-53598883D01*
X116807979Y-53606133D01*
X117087549Y-53760647D01*
X117101696Y-53769537D01*
X117362217Y-53954388D01*
X117375268Y-53964795D01*
X117491815Y-54068949D01*
X117613466Y-54177665D01*
X117625280Y-54189480D01*
X117838119Y-54427650D01*
X117848537Y-54440714D01*
X118033382Y-54701233D01*
X118042272Y-54715381D01*
X118196784Y-54994957D01*
X118204034Y-55010012D01*
X118326271Y-55305127D01*
X118331789Y-55320898D01*
X118420215Y-55627842D01*
X118423933Y-55644132D01*
X118478139Y-55963188D01*
X118479307Y-55971463D01*
X118487850Y-56047288D01*
X118488492Y-56054595D01*
X118498580Y-56214611D01*
X118498871Y-56222961D01*
X118499996Y-56386542D01*
X118500000Y-56387567D01*
X118500000Y-67498444D01*
X118480038Y-67572944D01*
X118425500Y-67627482D01*
X118351000Y-67647444D01*
X107713950Y-67647444D01*
X107639450Y-67627482D01*
X107613868Y-67608828D01*
X107276496Y-67302944D01*
X112500000Y-67302944D01*
X112500000Y-59302944D01*
X106905500Y-59302944D01*
X106905500Y-53864676D01*
X106905500Y-53864662D01*
X106902031Y-53811734D01*
X106896954Y-53773170D01*
X106891562Y-53741790D01*
X106846097Y-53623348D01*
X106807533Y-53556553D01*
X106796864Y-53542649D01*
X106767349Y-53471394D01*
X106777415Y-53394926D01*
X106824367Y-53333735D01*
X106895624Y-53304219D01*
X106915074Y-53302944D01*
X115415256Y-53302944D01*
X115416261Y-53302947D01*
G37*
%TD.AperFunction*%
%TD*%
%TA.AperFunction,Conductor*%
%TO.N,GND*%
G36*
X112500000Y-67302944D02*
G01*
X107276496Y-67302944D01*
X105796369Y-65960962D01*
X105754586Y-65896133D01*
X105750815Y-65819097D01*
X105785722Y-65750878D01*
X105813137Y-65720432D01*
X105862966Y-65651848D01*
X105908432Y-65533407D01*
X105924468Y-65457964D01*
X105933329Y-65373654D01*
X105913482Y-65248348D01*
X105889648Y-65174995D01*
X105844076Y-65079451D01*
X105763072Y-64954715D01*
X105733502Y-64909181D01*
X105725704Y-64895675D01*
X105580764Y-64611216D01*
X105574420Y-64596968D01*
X105562088Y-64564842D01*
X105459995Y-64298880D01*
X105455182Y-64284064D01*
X105372554Y-63975690D01*
X105369311Y-63960435D01*
X105319361Y-63645067D01*
X105317731Y-63629556D01*
X105305046Y-63387504D01*
X105301023Y-63310728D01*
X105301023Y-63295157D01*
X105317731Y-62976325D01*
X105319361Y-62960819D01*
X105369311Y-62645450D01*
X105372554Y-62630195D01*
X105455183Y-62321815D01*
X105459993Y-62307011D01*
X105574423Y-62008909D01*
X105580756Y-61994686D01*
X105725709Y-61710200D01*
X105733506Y-61696698D01*
X105787902Y-61612935D01*
X105907393Y-61428934D01*
X105916539Y-61416344D01*
X106117490Y-61168191D01*
X106127908Y-61156621D01*
X106353677Y-60930852D01*
X106365247Y-60920434D01*
X106613396Y-60719487D01*
X106626004Y-60710327D01*
X106653003Y-60692796D01*
X106726290Y-60631844D01*
X106774176Y-60581383D01*
X106820120Y-60523104D01*
X106871721Y-60407204D01*
X106891683Y-60332704D01*
X106905500Y-60227754D01*
X106905500Y-59302944D01*
X112500000Y-59302944D01*
X112500000Y-67302944D01*
G37*
%TD.AperFunction*%
%TD*%
%TA.AperFunction,Conductor*%
%TO.N,VCC*%
G36*
X103769195Y-64672629D02*
G01*
X103785445Y-64685081D01*
X107499998Y-68052943D01*
X107499999Y-68052943D01*
X107500000Y-68052944D01*
X118376000Y-68052944D01*
X118443039Y-68072629D01*
X118488794Y-68125433D01*
X118500000Y-68176944D01*
X118500000Y-69251582D01*
X118480315Y-69318621D01*
X118463681Y-69339263D01*
X117500000Y-70302943D01*
X117500000Y-73302944D01*
X118463681Y-74266625D01*
X118497166Y-74327948D01*
X118500000Y-74354306D01*
X118500000Y-75678944D01*
X118480315Y-75745983D01*
X118427511Y-75791738D01*
X118376000Y-75802944D01*
X110055225Y-75802944D01*
X109988186Y-75783259D01*
X109963057Y-75761896D01*
X101931832Y-66838312D01*
X101901616Y-66775313D01*
X101900000Y-66755360D01*
X101900000Y-64776944D01*
X101919685Y-64709905D01*
X101972489Y-64664150D01*
X102024000Y-64652944D01*
X103702156Y-64652944D01*
X103769195Y-64672629D01*
G37*
%TD.AperFunction*%
%TD*%
%TA.AperFunction,Conductor*%
%TO.N,VS*%
G36*
X89027382Y-53314286D02*
G01*
X89826171Y-53645155D01*
X89874510Y-53677454D01*
X90146447Y-53949391D01*
X91000000Y-54302944D01*
X93000000Y-54302944D01*
X93853553Y-53949391D01*
X94125492Y-53677451D01*
X94173826Y-53645156D01*
X94972618Y-53314286D01*
X95029638Y-53302944D01*
X98470362Y-53302944D01*
X98527382Y-53314286D01*
X99326171Y-53645155D01*
X99374510Y-53677454D01*
X99646447Y-53949391D01*
X100500000Y-54302944D01*
X102500000Y-54302944D01*
X103353553Y-53949391D01*
X103625492Y-53677451D01*
X103673826Y-53645156D01*
X104472618Y-53314286D01*
X104529638Y-53302944D01*
X105938282Y-53302944D01*
X106012782Y-53322906D01*
X106043641Y-53346585D01*
X106456359Y-53759303D01*
X106494923Y-53826098D01*
X106500000Y-53864662D01*
X106500000Y-60227754D01*
X106480038Y-60302254D01*
X106432152Y-60352715D01*
X106380782Y-60386075D01*
X106087485Y-60623582D01*
X105820638Y-60890429D01*
X105583133Y-61183724D01*
X105377600Y-61500217D01*
X105377593Y-61500230D01*
X105206267Y-61836476D01*
X105206260Y-61836492D01*
X105071027Y-62188785D01*
X105071020Y-62188805D01*
X104973349Y-62553321D01*
X104973348Y-62553324D01*
X104914309Y-62926078D01*
X104894559Y-63302944D01*
X104914309Y-63679809D01*
X104973348Y-64052563D01*
X104973349Y-64052566D01*
X105071020Y-64417082D01*
X105071027Y-64417102D01*
X105206260Y-64769395D01*
X105206271Y-64769419D01*
X105377589Y-65105651D01*
X105377600Y-65105671D01*
X105503995Y-65300302D01*
X105527829Y-65373655D01*
X105511793Y-65449098D01*
X105460184Y-65506415D01*
X105386831Y-65530249D01*
X105311388Y-65514213D01*
X105278953Y-65491838D01*
X104057815Y-64384673D01*
X104057807Y-64384666D01*
X104032093Y-64363219D01*
X104015830Y-64350757D01*
X103998078Y-64337901D01*
X103898373Y-64290634D01*
X103883441Y-64283555D01*
X103883438Y-64283554D01*
X103883432Y-64283551D01*
X103816413Y-64263872D01*
X103816396Y-64263868D01*
X103702168Y-64247445D01*
X103702159Y-64247444D01*
X103702156Y-64247444D01*
X102024000Y-64247444D01*
X102023986Y-64247444D01*
X101937808Y-64256710D01*
X101886290Y-64267917D01*
X101814641Y-64290633D01*
X101706944Y-64357692D01*
X101654142Y-64403446D01*
X101654140Y-64403448D01*
X101584956Y-64481023D01*
X101530610Y-64595661D01*
X101530607Y-64595667D01*
X101510928Y-64662686D01*
X101510924Y-64662703D01*
X101494501Y-64776931D01*
X101494500Y-64776948D01*
X101494500Y-66755371D01*
X101495821Y-66788078D01*
X101497438Y-66808041D01*
X101499699Y-66829107D01*
X101535995Y-66950674D01*
X101566212Y-67013676D01*
X101566216Y-67013683D01*
X101630423Y-67109574D01*
X104040757Y-69787723D01*
X106392372Y-72400629D01*
X106461751Y-72477716D01*
X106496751Y-72546446D01*
X106500000Y-72577392D01*
X106500000Y-81864745D01*
X106480038Y-81939245D01*
X106425500Y-81993783D01*
X106386658Y-82009415D01*
X106249775Y-82043153D01*
X106099145Y-82122211D01*
X105971820Y-82235011D01*
X105971817Y-82235015D01*
X105875181Y-82375014D01*
X105814860Y-82534069D01*
X105794355Y-82702944D01*
X105814860Y-82871818D01*
X105875181Y-83030873D01*
X105875182Y-83030874D01*
X105971817Y-83170873D01*
X105971819Y-83170874D01*
X105971820Y-83170876D01*
X106099146Y-83283676D01*
X106099148Y-83283678D01*
X106249775Y-83362734D01*
X106386658Y-83396472D01*
X106454216Y-83433682D01*
X106494117Y-83499687D01*
X106500000Y-83541142D01*
X106500000Y-93263912D01*
X106490954Y-93297669D01*
X106500000Y-93341975D01*
X106500000Y-94227754D01*
X106480038Y-94302254D01*
X106432152Y-94352715D01*
X106380782Y-94386075D01*
X106087485Y-94623582D01*
X105820638Y-94890429D01*
X105583133Y-95183724D01*
X105377600Y-95500217D01*
X105377593Y-95500230D01*
X105206267Y-95836476D01*
X105206260Y-95836492D01*
X105071027Y-96188785D01*
X105071020Y-96188805D01*
X104973349Y-96553321D01*
X104973348Y-96553324D01*
X104914309Y-96926078D01*
X104894559Y-97302944D01*
X104914309Y-97679809D01*
X104973348Y-98052563D01*
X104973349Y-98052566D01*
X105071020Y-98417082D01*
X105071027Y-98417102D01*
X105206260Y-98769395D01*
X105206271Y-98769419D01*
X105377589Y-99105651D01*
X105377600Y-99105671D01*
X105559701Y-99386081D01*
X105583137Y-99422169D01*
X105820635Y-99715455D01*
X106087489Y-99982309D01*
X106380775Y-100219807D01*
X106432152Y-100253172D01*
X106483759Y-100310486D01*
X106500000Y-100378132D01*
X106500000Y-106741226D01*
X106480038Y-106815726D01*
X106456359Y-106846585D01*
X106043641Y-107259303D01*
X105976846Y-107297867D01*
X105938282Y-107302944D01*
X104529638Y-107302944D01*
X104472618Y-107291602D01*
X103673828Y-106960732D01*
X103625489Y-106928433D01*
X103353552Y-106656496D01*
X102500000Y-106302944D01*
X100500000Y-106302944D01*
X99646447Y-106656496D01*
X99374510Y-106928433D01*
X99326171Y-106960732D01*
X98527382Y-107291602D01*
X98470362Y-107302944D01*
X95029638Y-107302944D01*
X94972618Y-107291602D01*
X94173828Y-106960732D01*
X94125489Y-106928433D01*
X93853552Y-106656496D01*
X93000000Y-106302944D01*
X91000000Y-106302944D01*
X90146447Y-106656496D01*
X89874510Y-106928433D01*
X89826171Y-106960732D01*
X89027382Y-107291602D01*
X88970362Y-107302944D01*
X88061718Y-107302944D01*
X87987218Y-107282982D01*
X87956359Y-107259303D01*
X87543641Y-106846585D01*
X87505077Y-106779790D01*
X87500000Y-106741226D01*
X87500000Y-93591975D01*
X87509045Y-93558217D01*
X87507567Y-93550979D01*
X87789223Y-93550979D01*
X87796913Y-93574012D01*
X87804206Y-93634072D01*
X87814860Y-93721818D01*
X87875181Y-93880873D01*
X87875182Y-93880874D01*
X87971817Y-94020873D01*
X87971819Y-94020874D01*
X87971820Y-94020876D01*
X88099146Y-94133676D01*
X88099148Y-94133678D01*
X88249775Y-94212734D01*
X88414944Y-94253444D01*
X88585056Y-94253444D01*
X88750225Y-94212734D01*
X88900852Y-94133678D01*
X89028183Y-94020873D01*
X89124818Y-93880874D01*
X89185140Y-93721816D01*
X89205645Y-93552944D01*
X89185140Y-93384072D01*
X89124818Y-93225014D01*
X89028183Y-93085015D01*
X89028180Y-93085012D01*
X89028179Y-93085011D01*
X88900853Y-92972211D01*
X88900854Y-92972211D01*
X88750224Y-92893153D01*
X88585056Y-92852444D01*
X88414944Y-92852444D01*
X88249775Y-92893153D01*
X88099145Y-92972211D01*
X87971820Y-93085011D01*
X87971817Y-93085015D01*
X87875181Y-93225014D01*
X87814860Y-93384069D01*
X87814860Y-93384072D01*
X87799095Y-93513912D01*
X87796914Y-93531872D01*
X87789223Y-93550979D01*
X87507567Y-93550979D01*
X87500000Y-93513912D01*
X87500000Y-90025633D01*
X87519962Y-89951133D01*
X87574500Y-89896595D01*
X87649000Y-89876633D01*
X87718242Y-89893699D01*
X87849775Y-89962734D01*
X88014944Y-90003444D01*
X88185056Y-90003444D01*
X88350225Y-89962734D01*
X88500852Y-89883678D01*
X88628183Y-89770873D01*
X88724818Y-89630874D01*
X88724819Y-89630870D01*
X88724821Y-89630868D01*
X88729011Y-89622887D01*
X88730910Y-89623884D01*
X88768713Y-89571394D01*
X88839041Y-89539728D01*
X88915779Y-89547469D01*
X88978366Y-89592543D01*
X89005549Y-89643542D01*
X89024768Y-89706900D01*
X89122310Y-89889386D01*
X89122313Y-89889390D01*
X89122315Y-89889394D01*
X89253590Y-90049354D01*
X89413550Y-90180629D01*
X89596046Y-90278176D01*
X89794063Y-90338243D01*
X89794066Y-90338244D01*
X90000000Y-90358527D01*
X90205934Y-90338244D01*
X90403954Y-90278176D01*
X90505264Y-90224023D01*
X90580374Y-90206511D01*
X90654181Y-90228899D01*
X90706906Y-90285191D01*
X90724500Y-90355431D01*
X90724500Y-91177872D01*
X90704538Y-91252372D01*
X90650000Y-91306910D01*
X90575500Y-91326872D01*
X90501000Y-91306910D01*
X90476695Y-91289400D01*
X90400854Y-91222211D01*
X90250224Y-91143153D01*
X90085056Y-91102444D01*
X89914944Y-91102444D01*
X89749775Y-91143153D01*
X89599145Y-91222211D01*
X89471820Y-91335011D01*
X89471817Y-91335015D01*
X89375181Y-91475014D01*
X89314860Y-91634069D01*
X89294355Y-91802944D01*
X89314860Y-91971818D01*
X89375181Y-92130873D01*
X89405113Y-92174237D01*
X89471817Y-92270873D01*
X89471819Y-92270874D01*
X89471820Y-92270876D01*
X89599146Y-92383676D01*
X89599148Y-92383678D01*
X89749775Y-92462734D01*
X89914944Y-92503444D01*
X90085056Y-92503444D01*
X90250225Y-92462734D01*
X90400852Y-92383678D01*
X90476696Y-92316485D01*
X90545696Y-92282026D01*
X90622683Y-92286683D01*
X90687028Y-92329209D01*
X90721489Y-92398211D01*
X90724500Y-92428015D01*
X90724500Y-98833500D01*
X90704538Y-98908000D01*
X90650000Y-98962538D01*
X90628897Y-98972603D01*
X90533543Y-99009206D01*
X90197286Y-99180537D01*
X90197273Y-99180544D01*
X89880780Y-99386077D01*
X89587485Y-99623582D01*
X89320638Y-99890429D01*
X89083133Y-100183724D01*
X88877600Y-100500217D01*
X88877593Y-100500230D01*
X88706267Y-100836476D01*
X88706260Y-100836492D01*
X88571027Y-101188785D01*
X88571020Y-101188805D01*
X88473349Y-101553321D01*
X88473348Y-101553324D01*
X88414309Y-101926078D01*
X88394559Y-102302944D01*
X88414309Y-102679809D01*
X88473348Y-103052563D01*
X88473349Y-103052566D01*
X88571020Y-103417082D01*
X88571027Y-103417102D01*
X88706260Y-103769395D01*
X88706271Y-103769419D01*
X88877589Y-104105651D01*
X88877600Y-104105671D01*
X89083133Y-104422163D01*
X89083137Y-104422169D01*
X89320635Y-104715455D01*
X89587489Y-104982309D01*
X89880775Y-105219807D01*
X89880780Y-105219810D01*
X90197272Y-105425343D01*
X90197292Y-105425354D01*
X90361256Y-105508897D01*
X90533535Y-105596678D01*
X90885857Y-105731922D01*
X91250387Y-105829597D01*
X91623129Y-105888634D01*
X92000000Y-105908385D01*
X92376871Y-105888634D01*
X92749613Y-105829597D01*
X93114143Y-105731922D01*
X93466465Y-105596678D01*
X93802721Y-105425347D01*
X94119225Y-105219807D01*
X94412511Y-104982309D01*
X94679365Y-104715455D01*
X94916863Y-104422169D01*
X95122403Y-104105665D01*
X95293734Y-103769409D01*
X95428978Y-103417087D01*
X95526653Y-103052557D01*
X95585690Y-102679815D01*
X95605441Y-102302944D01*
X95585690Y-101926073D01*
X95526653Y-101553331D01*
X95428978Y-101188801D01*
X95293734Y-100836479D01*
X95122403Y-100500224D01*
X95122401Y-100500221D01*
X95122399Y-100500217D01*
X94916866Y-100183724D01*
X94916863Y-100183719D01*
X94679365Y-99890433D01*
X94412511Y-99623579D01*
X94119225Y-99386081D01*
X93943348Y-99271865D01*
X93891740Y-99214547D01*
X93875500Y-99146903D01*
X93875500Y-97266255D01*
X93895462Y-97191755D01*
X93950000Y-97137217D01*
X94024500Y-97117255D01*
X94099000Y-97137217D01*
X94129859Y-97160896D01*
X98028523Y-101059560D01*
X98067087Y-101126355D01*
X98067087Y-101203483D01*
X97973349Y-101553321D01*
X97973348Y-101553324D01*
X97914309Y-101926078D01*
X97894559Y-102302944D01*
X97914309Y-102679809D01*
X97973348Y-103052563D01*
X97973349Y-103052566D01*
X98071020Y-103417082D01*
X98071027Y-103417102D01*
X98206260Y-103769395D01*
X98206271Y-103769419D01*
X98377589Y-104105651D01*
X98377600Y-104105671D01*
X98583133Y-104422163D01*
X98583137Y-104422169D01*
X98820635Y-104715455D01*
X99087489Y-104982309D01*
X99380775Y-105219807D01*
X99380780Y-105219810D01*
X99697272Y-105425343D01*
X99697292Y-105425354D01*
X99861256Y-105508897D01*
X100033535Y-105596678D01*
X100385857Y-105731922D01*
X100750387Y-105829597D01*
X101123129Y-105888634D01*
X101500000Y-105908385D01*
X101876871Y-105888634D01*
X102249613Y-105829597D01*
X102614143Y-105731922D01*
X102966465Y-105596678D01*
X103302721Y-105425347D01*
X103619225Y-105219807D01*
X103912511Y-104982309D01*
X104179365Y-104715455D01*
X104416863Y-104422169D01*
X104622403Y-104105665D01*
X104793734Y-103769409D01*
X104928978Y-103417087D01*
X105026653Y-103052557D01*
X105085690Y-102679815D01*
X105105441Y-102302944D01*
X105085690Y-101926073D01*
X105026653Y-101553331D01*
X104928978Y-101188801D01*
X104793734Y-100836479D01*
X104622403Y-100500224D01*
X104622401Y-100500221D01*
X104622399Y-100500217D01*
X104416866Y-100183724D01*
X104416863Y-100183719D01*
X104179365Y-99890433D01*
X103912511Y-99623579D01*
X103619225Y-99386081D01*
X103619219Y-99386077D01*
X103302727Y-99180544D01*
X103302707Y-99180533D01*
X102966475Y-99009215D01*
X102966473Y-99009214D01*
X102966465Y-99009210D01*
X102966455Y-99009206D01*
X102966451Y-99009204D01*
X102614158Y-98873971D01*
X102614138Y-98873964D01*
X102249622Y-98776293D01*
X102249619Y-98776292D01*
X102206073Y-98769395D01*
X101876871Y-98717254D01*
X101876865Y-98717253D01*
X101500000Y-98697503D01*
X101123134Y-98717253D01*
X100750380Y-98776292D01*
X100750377Y-98776293D01*
X100400539Y-98870031D01*
X100323410Y-98870031D01*
X100256616Y-98831467D01*
X96699141Y-95273992D01*
X96660577Y-95207197D01*
X96655500Y-95168633D01*
X96655500Y-93802944D01*
X100044355Y-93802944D01*
X100064860Y-93971818D01*
X100125181Y-94130873D01*
X100125182Y-94130874D01*
X100221817Y-94270873D01*
X100221819Y-94270874D01*
X100221820Y-94270876D01*
X100349146Y-94383676D01*
X100349148Y-94383678D01*
X100499775Y-94462734D01*
X100664944Y-94503444D01*
X100835056Y-94503444D01*
X101000225Y-94462734D01*
X101150852Y-94383678D01*
X101278183Y-94270873D01*
X101374818Y-94130874D01*
X101435140Y-93971816D01*
X101455645Y-93802944D01*
X101435140Y-93634072D01*
X101374818Y-93475014D01*
X101278183Y-93335015D01*
X101278180Y-93335012D01*
X101278179Y-93335011D01*
X101241983Y-93302944D01*
X104794355Y-93302944D01*
X104814860Y-93471818D01*
X104875181Y-93630873D01*
X104875182Y-93630874D01*
X104971817Y-93770873D01*
X104971819Y-93770874D01*
X104971820Y-93770876D01*
X105008018Y-93802944D01*
X105088185Y-93873966D01*
X105099146Y-93883676D01*
X105099148Y-93883678D01*
X105249775Y-93962734D01*
X105414944Y-94003444D01*
X105585056Y-94003444D01*
X105750225Y-93962734D01*
X105900852Y-93883678D01*
X106028183Y-93770873D01*
X106124818Y-93630874D01*
X106185140Y-93471816D01*
X106203086Y-93324013D01*
X106210776Y-93304907D01*
X106203086Y-93281872D01*
X106201751Y-93270876D01*
X106185140Y-93134072D01*
X106124818Y-92975014D01*
X106028183Y-92835015D01*
X106028180Y-92835012D01*
X106028179Y-92835011D01*
X105900853Y-92722211D01*
X105900854Y-92722211D01*
X105750224Y-92643153D01*
X105585056Y-92602444D01*
X105414944Y-92602444D01*
X105249775Y-92643153D01*
X105099145Y-92722211D01*
X104971820Y-92835011D01*
X104971817Y-92835015D01*
X104875181Y-92975014D01*
X104814860Y-93134069D01*
X104794355Y-93302944D01*
X101241983Y-93302944D01*
X101150853Y-93222211D01*
X101150854Y-93222211D01*
X101000224Y-93143153D01*
X100835056Y-93102444D01*
X100664944Y-93102444D01*
X100499775Y-93143153D01*
X100349145Y-93222211D01*
X100221820Y-93335011D01*
X100221817Y-93335015D01*
X100125181Y-93475014D01*
X100064860Y-93634069D01*
X100044355Y-93802944D01*
X96655500Y-93802944D01*
X96655500Y-92802944D01*
X97044355Y-92802944D01*
X97064860Y-92971818D01*
X97125181Y-93130873D01*
X97133658Y-93143154D01*
X97221817Y-93270873D01*
X97221819Y-93270874D01*
X97221820Y-93270876D01*
X97349146Y-93383676D01*
X97349148Y-93383678D01*
X97499775Y-93462734D01*
X97664944Y-93503444D01*
X97835056Y-93503444D01*
X98000225Y-93462734D01*
X98150852Y-93383678D01*
X98278183Y-93270873D01*
X98374818Y-93130874D01*
X98435140Y-92971816D01*
X98455645Y-92802944D01*
X98435140Y-92634072D01*
X98374818Y-92475014D01*
X98278183Y-92335015D01*
X98278180Y-92335012D01*
X98278179Y-92335011D01*
X98150853Y-92222211D01*
X98150854Y-92222211D01*
X98000224Y-92143153D01*
X97835056Y-92102444D01*
X97664944Y-92102444D01*
X97499775Y-92143153D01*
X97349145Y-92222211D01*
X97221820Y-92335011D01*
X97221817Y-92335015D01*
X97125181Y-92475014D01*
X97064860Y-92634069D01*
X97044355Y-92802944D01*
X96655500Y-92802944D01*
X96655500Y-91502944D01*
X102194355Y-91502944D01*
X102214860Y-91671818D01*
X102275181Y-91830873D01*
X102275182Y-91830874D01*
X102371817Y-91970873D01*
X102371819Y-91970874D01*
X102371820Y-91970876D01*
X102499146Y-92083676D01*
X102499148Y-92083678D01*
X102649775Y-92162734D01*
X102814944Y-92203444D01*
X102985056Y-92203444D01*
X103150225Y-92162734D01*
X103300852Y-92083678D01*
X103428183Y-91970873D01*
X103524818Y-91830874D01*
X103585140Y-91671816D01*
X103605645Y-91502944D01*
X103585140Y-91334072D01*
X103582409Y-91326872D01*
X103524818Y-91175014D01*
X103474726Y-91102444D01*
X103428183Y-91035015D01*
X103428180Y-91035012D01*
X103428179Y-91035011D01*
X103300853Y-90922211D01*
X103300854Y-90922211D01*
X103150224Y-90843153D01*
X102985056Y-90802444D01*
X102814944Y-90802444D01*
X102649775Y-90843153D01*
X102499145Y-90922211D01*
X102371820Y-91035011D01*
X102371817Y-91035015D01*
X102275181Y-91175014D01*
X102214860Y-91334069D01*
X102194355Y-91502944D01*
X96655500Y-91502944D01*
X96655500Y-89422944D01*
X99454396Y-89422944D01*
X99474779Y-89681940D01*
X99474780Y-89681945D01*
X99487295Y-89734072D01*
X99535427Y-89934554D01*
X99547100Y-89962734D01*
X99634844Y-90174569D01*
X99770589Y-90396086D01*
X99845399Y-90483676D01*
X99939311Y-90593633D01*
X100038085Y-90677994D01*
X100136857Y-90762354D01*
X100136859Y-90762355D01*
X100136860Y-90762356D01*
X100358372Y-90898098D01*
X100598390Y-90997517D01*
X100851006Y-91058165D01*
X101110000Y-91078548D01*
X101368994Y-91058165D01*
X101621610Y-90997517D01*
X101861628Y-90898098D01*
X102083140Y-90762356D01*
X102280689Y-90593633D01*
X102449412Y-90396084D01*
X102585154Y-90174572D01*
X102684573Y-89934554D01*
X102692162Y-89902944D01*
X103594355Y-89902944D01*
X103614860Y-90071818D01*
X103675181Y-90230873D01*
X103675182Y-90230874D01*
X103771817Y-90370873D01*
X103771819Y-90370874D01*
X103771820Y-90370876D01*
X103899146Y-90483676D01*
X103899148Y-90483678D01*
X104049775Y-90562734D01*
X104214944Y-90603444D01*
X104385056Y-90603444D01*
X104550225Y-90562734D01*
X104700852Y-90483678D01*
X104828183Y-90370873D01*
X104924818Y-90230874D01*
X104985140Y-90071816D01*
X105005645Y-89902944D01*
X104985140Y-89734072D01*
X104974834Y-89706898D01*
X104924818Y-89575014D01*
X104905805Y-89547469D01*
X104828183Y-89435015D01*
X104828180Y-89435012D01*
X104828179Y-89435011D01*
X104700853Y-89322211D01*
X104700854Y-89322211D01*
X104550224Y-89243153D01*
X104385056Y-89202444D01*
X104214944Y-89202444D01*
X104049775Y-89243153D01*
X103899145Y-89322211D01*
X103771820Y-89435011D01*
X103771817Y-89435015D01*
X103675181Y-89575014D01*
X103614860Y-89734069D01*
X103594355Y-89902944D01*
X102692162Y-89902944D01*
X102745221Y-89681938D01*
X102765604Y-89422944D01*
X102745221Y-89163950D01*
X102684573Y-88911334D01*
X102585154Y-88671316D01*
X102449412Y-88449804D01*
X102449411Y-88449803D01*
X102449410Y-88449801D01*
X102321168Y-88299650D01*
X102280689Y-88252255D01*
X102207547Y-88189786D01*
X102083142Y-88083533D01*
X101861625Y-87947788D01*
X101706467Y-87883520D01*
X101621610Y-87848371D01*
X101555735Y-87832555D01*
X101369001Y-87787724D01*
X101368996Y-87787723D01*
X101110000Y-87767340D01*
X100851003Y-87787723D01*
X100850998Y-87787724D01*
X100598390Y-87848371D01*
X100358374Y-87947788D01*
X100136857Y-88083533D01*
X99939314Y-88252252D01*
X99939308Y-88252258D01*
X99770589Y-88449801D01*
X99634844Y-88671318D01*
X99535427Y-88911334D01*
X99474780Y-89163942D01*
X99474779Y-89163947D01*
X99454396Y-89422944D01*
X96655500Y-89422944D01*
X96655500Y-87908952D01*
X96636551Y-87789314D01*
X96616706Y-87664013D01*
X96540073Y-87428162D01*
X96427489Y-87207202D01*
X96427487Y-87207199D01*
X96427486Y-87207197D01*
X96281726Y-87006577D01*
X96281724Y-87006574D01*
X96106370Y-86831220D01*
X96105894Y-86830874D01*
X95905746Y-86685457D01*
X95905738Y-86685453D01*
X95679566Y-86570213D01*
X95680230Y-86568908D01*
X95624924Y-86526468D01*
X95615180Y-86502944D01*
X103644355Y-86502944D01*
X103664860Y-86671818D01*
X103725181Y-86830873D01*
X103725421Y-86831220D01*
X103821817Y-86970873D01*
X103821819Y-86970874D01*
X103821820Y-86970876D01*
X103949146Y-87083676D01*
X103949148Y-87083678D01*
X104099775Y-87162734D01*
X104264944Y-87203444D01*
X104435056Y-87203444D01*
X104600225Y-87162734D01*
X104750852Y-87083678D01*
X104878183Y-86970873D01*
X104974818Y-86830874D01*
X105035140Y-86671816D01*
X105055645Y-86502944D01*
X105035140Y-86334072D01*
X105030025Y-86320586D01*
X104974818Y-86175014D01*
X104963186Y-86158162D01*
X104878183Y-86035015D01*
X104878180Y-86035012D01*
X104878179Y-86035011D01*
X104767778Y-85937205D01*
X104750853Y-85922211D01*
X104750854Y-85922211D01*
X104600224Y-85843153D01*
X104435056Y-85802444D01*
X104264944Y-85802444D01*
X104099775Y-85843153D01*
X103949145Y-85922211D01*
X103821820Y-86035011D01*
X103821817Y-86035015D01*
X103725181Y-86175014D01*
X103664860Y-86334069D01*
X103644355Y-86502944D01*
X95615180Y-86502944D01*
X95595409Y-86455211D01*
X95605478Y-86378743D01*
X95648608Y-86320589D01*
X95790883Y-86203827D01*
X95915910Y-86051482D01*
X96008814Y-85877671D01*
X96066024Y-85689076D01*
X96085341Y-85492944D01*
X96066024Y-85296812D01*
X96008814Y-85108217D01*
X96008812Y-85108214D01*
X96008812Y-85108212D01*
X95915916Y-84934417D01*
X95915915Y-84934415D01*
X95915910Y-84934406D01*
X95790883Y-84782061D01*
X95638538Y-84657034D01*
X95638532Y-84657031D01*
X95638526Y-84657027D01*
X95464731Y-84564131D01*
X95427853Y-84552944D01*
X102169355Y-84552944D01*
X102189860Y-84721818D01*
X102250181Y-84880873D01*
X102250182Y-84880874D01*
X102346817Y-85020873D01*
X102346819Y-85020874D01*
X102346820Y-85020876D01*
X102474146Y-85133676D01*
X102474148Y-85133678D01*
X102624775Y-85212734D01*
X102789944Y-85253444D01*
X102960056Y-85253444D01*
X103125225Y-85212734D01*
X103275852Y-85133678D01*
X103403183Y-85020873D01*
X103499818Y-84880874D01*
X103560140Y-84721816D01*
X103580645Y-84552944D01*
X103560140Y-84384072D01*
X103499818Y-84225014D01*
X103403183Y-84085015D01*
X103403180Y-84085012D01*
X103403179Y-84085011D01*
X103275853Y-83972211D01*
X103275854Y-83972211D01*
X103125224Y-83893153D01*
X102960056Y-83852444D01*
X102789944Y-83852444D01*
X102624775Y-83893153D01*
X102474145Y-83972211D01*
X102346820Y-84085011D01*
X102346817Y-84085015D01*
X102250181Y-84225014D01*
X102189860Y-84384069D01*
X102169355Y-84552944D01*
X95427853Y-84552944D01*
X95276134Y-84506920D01*
X95080000Y-84487603D01*
X94883865Y-84506920D01*
X94695268Y-84564131D01*
X94521473Y-84657027D01*
X94521465Y-84657032D01*
X94521463Y-84657033D01*
X94521462Y-84657034D01*
X94369117Y-84782061D01*
X94244566Y-84933827D01*
X94244088Y-84934409D01*
X94244083Y-84934417D01*
X94151187Y-85108212D01*
X94093976Y-85296809D01*
X94074659Y-85492944D01*
X94093976Y-85689078D01*
X94151187Y-85877675D01*
X94244083Y-86051470D01*
X94244087Y-86051476D01*
X94244090Y-86051482D01*
X94369117Y-86203827D01*
X94511391Y-86320589D01*
X94556314Y-86383280D01*
X94563874Y-86460036D01*
X94532043Y-86530290D01*
X94479826Y-86569020D01*
X94480434Y-86570213D01*
X94254261Y-86685453D01*
X94254253Y-86685457D01*
X94053633Y-86831217D01*
X93878278Y-87006572D01*
X93878271Y-87006580D01*
X93828705Y-87074801D01*
X93768765Y-87123338D01*
X93692586Y-87135403D01*
X93620581Y-87107761D01*
X93587620Y-87074799D01*
X93552286Y-87026166D01*
X93501724Y-86956574D01*
X93326370Y-86781220D01*
X93326369Y-86781219D01*
X92281726Y-85736577D01*
X92281724Y-85736574D01*
X92106370Y-85561220D01*
X92012396Y-85492944D01*
X91921088Y-85426604D01*
X91872550Y-85366664D01*
X91865457Y-85321887D01*
X91845717Y-85334935D01*
X91768729Y-85339592D01*
X91730889Y-85326363D01*
X91684793Y-85302876D01*
X91684787Y-85302874D01*
X91684782Y-85302871D01*
X91616607Y-85280719D01*
X91448930Y-85226237D01*
X91305015Y-85203444D01*
X91203995Y-85187444D01*
X91203991Y-85187444D01*
X90816984Y-85187444D01*
X90742484Y-85167482D01*
X90687946Y-85112944D01*
X90667984Y-85038444D01*
X90687946Y-84963944D01*
X90706530Y-84939724D01*
X90706239Y-84939485D01*
X90710881Y-84933828D01*
X90710883Y-84933827D01*
X90835910Y-84781482D01*
X90928814Y-84607671D01*
X90960583Y-84502944D01*
X91594355Y-84502944D01*
X91614860Y-84671818D01*
X91675181Y-84830873D01*
X91675182Y-84830874D01*
X91771817Y-84970873D01*
X91771819Y-84970874D01*
X91771820Y-84970876D01*
X91897338Y-85082075D01*
X91939865Y-85146419D01*
X91941604Y-85175174D01*
X91948065Y-85169943D01*
X92024243Y-85157877D01*
X92044326Y-85161391D01*
X92079023Y-85169943D01*
X92214944Y-85203444D01*
X92385056Y-85203444D01*
X92550225Y-85162734D01*
X92700852Y-85083678D01*
X92828183Y-84970873D01*
X92924818Y-84830874D01*
X92985140Y-84671816D01*
X93005645Y-84502944D01*
X92985140Y-84334072D01*
X92924818Y-84175014D01*
X92828183Y-84035015D01*
X92828180Y-84035012D01*
X92828179Y-84035011D01*
X92700853Y-83922211D01*
X92700854Y-83922211D01*
X92550224Y-83843153D01*
X92385056Y-83802444D01*
X92214944Y-83802444D01*
X92049775Y-83843153D01*
X91899145Y-83922211D01*
X91771820Y-84035011D01*
X91771817Y-84035015D01*
X91675181Y-84175014D01*
X91614860Y-84334069D01*
X91594355Y-84502944D01*
X90960583Y-84502944D01*
X90986024Y-84419076D01*
X91005341Y-84222944D01*
X90986024Y-84026812D01*
X90928814Y-83838217D01*
X90928812Y-83838214D01*
X90928812Y-83838212D01*
X90835916Y-83664417D01*
X90835915Y-83664415D01*
X90835910Y-83664406D01*
X90710883Y-83512061D01*
X90558538Y-83387034D01*
X90558532Y-83387031D01*
X90558526Y-83387027D01*
X90384731Y-83294131D01*
X90196134Y-83236920D01*
X90000000Y-83217603D01*
X89803865Y-83236920D01*
X89615268Y-83294131D01*
X89441473Y-83387027D01*
X89441465Y-83387032D01*
X89441463Y-83387033D01*
X89441462Y-83387034D01*
X89289117Y-83512061D01*
X89164566Y-83663827D01*
X89164088Y-83664409D01*
X89164083Y-83664417D01*
X89071187Y-83838212D01*
X89013976Y-84026809D01*
X88994659Y-84222944D01*
X89013976Y-84419078D01*
X89071187Y-84607675D01*
X89164083Y-84781470D01*
X89164087Y-84781476D01*
X89164090Y-84781482D01*
X89289117Y-84933827D01*
X89431391Y-85050589D01*
X89476314Y-85113280D01*
X89483874Y-85190036D01*
X89452043Y-85260290D01*
X89399826Y-85299020D01*
X89400434Y-85300213D01*
X89174261Y-85415453D01*
X89174253Y-85415457D01*
X88973633Y-85561217D01*
X88798273Y-85736577D01*
X88652513Y-85937197D01*
X88652509Y-85937205D01*
X88539932Y-86158150D01*
X88539925Y-86158168D01*
X88463293Y-86394013D01*
X88450889Y-86472333D01*
X88424500Y-86638949D01*
X88424500Y-86886939D01*
X88435529Y-86956571D01*
X88463293Y-87131874D01*
X88487769Y-87207202D01*
X88539927Y-87367726D01*
X88539930Y-87367731D01*
X88539932Y-87367737D01*
X88652509Y-87588682D01*
X88652513Y-87588690D01*
X88707239Y-87664013D01*
X88798276Y-87789314D01*
X88973630Y-87964668D01*
X88973633Y-87964670D01*
X89174253Y-88110430D01*
X89174255Y-88110431D01*
X89174258Y-88110433D01*
X89284456Y-88166581D01*
X89355590Y-88202826D01*
X89412908Y-88254435D01*
X89436742Y-88327788D01*
X89420706Y-88403230D01*
X89382470Y-88450765D01*
X89253591Y-88556532D01*
X89253589Y-88556534D01*
X89122317Y-88716491D01*
X89122310Y-88716501D01*
X89024769Y-88898986D01*
X89005549Y-88962346D01*
X88964819Y-89027843D01*
X88896798Y-89064200D01*
X88819711Y-89061676D01*
X88754214Y-89020946D01*
X88730174Y-88982390D01*
X88729011Y-88983001D01*
X88724821Y-88975019D01*
X88724818Y-88975014D01*
X88628183Y-88835015D01*
X88628180Y-88835012D01*
X88628179Y-88835011D01*
X88500853Y-88722211D01*
X88500854Y-88722211D01*
X88350224Y-88643153D01*
X88185056Y-88602444D01*
X88014944Y-88602444D01*
X87849775Y-88643153D01*
X87718244Y-88712187D01*
X87643000Y-88729133D01*
X87569365Y-88706187D01*
X87517067Y-88649498D01*
X87500000Y-88580254D01*
X87500000Y-82952944D01*
X94074659Y-82952944D01*
X94093976Y-83149078D01*
X94151187Y-83337675D01*
X94244083Y-83511470D01*
X94244087Y-83511476D01*
X94244090Y-83511482D01*
X94369117Y-83663827D01*
X94521462Y-83788854D01*
X94521471Y-83788859D01*
X94521473Y-83788860D01*
X94695268Y-83881756D01*
X94695270Y-83881756D01*
X94695273Y-83881758D01*
X94883868Y-83938968D01*
X95080000Y-83958285D01*
X95276132Y-83938968D01*
X95464727Y-83881758D01*
X95638538Y-83788854D01*
X95790883Y-83663827D01*
X95915910Y-83511482D01*
X96008814Y-83337671D01*
X96066024Y-83149076D01*
X96085341Y-82952944D01*
X96066024Y-82756812D01*
X96034516Y-82652944D01*
X103744355Y-82652944D01*
X103764860Y-82821818D01*
X103825181Y-82980873D01*
X103825182Y-82980874D01*
X103921817Y-83120873D01*
X103921819Y-83120874D01*
X103921820Y-83120876D01*
X104049146Y-83233676D01*
X104049148Y-83233678D01*
X104199775Y-83312734D01*
X104364944Y-83353444D01*
X104535056Y-83353444D01*
X104700225Y-83312734D01*
X104850852Y-83233678D01*
X104978183Y-83120873D01*
X105074818Y-82980874D01*
X105135140Y-82821816D01*
X105155645Y-82652944D01*
X105135140Y-82484072D01*
X105074818Y-82325014D01*
X104978183Y-82185015D01*
X104978180Y-82185012D01*
X104978179Y-82185011D01*
X104850853Y-82072211D01*
X104850854Y-82072211D01*
X104700224Y-81993153D01*
X104535056Y-81952444D01*
X104364944Y-81952444D01*
X104199775Y-81993153D01*
X104049145Y-82072211D01*
X103921820Y-82185011D01*
X103921817Y-82185015D01*
X103825181Y-82325014D01*
X103764860Y-82484069D01*
X103744355Y-82652944D01*
X96034516Y-82652944D01*
X96008814Y-82568217D01*
X96008812Y-82568214D01*
X96008812Y-82568212D01*
X95915916Y-82394417D01*
X95915915Y-82394415D01*
X95915910Y-82394406D01*
X95790883Y-82242061D01*
X95638538Y-82117034D01*
X95638532Y-82117031D01*
X95638526Y-82117027D01*
X95464731Y-82024131D01*
X95276134Y-81966920D01*
X95080000Y-81947603D01*
X94883865Y-81966920D01*
X94695268Y-82024131D01*
X94521473Y-82117027D01*
X94521465Y-82117032D01*
X94521463Y-82117033D01*
X94521462Y-82117034D01*
X94369117Y-82242061D01*
X94244566Y-82393827D01*
X94244088Y-82394409D01*
X94244083Y-82394417D01*
X94151187Y-82568212D01*
X94093976Y-82756809D01*
X94074659Y-82952944D01*
X87500000Y-82952944D01*
X87500000Y-81682944D01*
X88994659Y-81682944D01*
X89013976Y-81879078D01*
X89071187Y-82067675D01*
X89164083Y-82241470D01*
X89164087Y-82241476D01*
X89164090Y-82241482D01*
X89289117Y-82393827D01*
X89441462Y-82518854D01*
X89441471Y-82518859D01*
X89441473Y-82518860D01*
X89615268Y-82611756D01*
X89615270Y-82611756D01*
X89615273Y-82611758D01*
X89803868Y-82668968D01*
X90000000Y-82688285D01*
X90196132Y-82668968D01*
X90384727Y-82611758D01*
X90558538Y-82518854D01*
X90710883Y-82393827D01*
X90835910Y-82241482D01*
X90909960Y-82102944D01*
X91794355Y-82102944D01*
X91814860Y-82271818D01*
X91875181Y-82430873D01*
X91875182Y-82430874D01*
X91971817Y-82570873D01*
X91971819Y-82570874D01*
X91971820Y-82570876D01*
X92099146Y-82683676D01*
X92099148Y-82683678D01*
X92249775Y-82762734D01*
X92414944Y-82803444D01*
X92585056Y-82803444D01*
X92750225Y-82762734D01*
X92900852Y-82683678D01*
X93028183Y-82570873D01*
X93124818Y-82430874D01*
X93185140Y-82271816D01*
X93205645Y-82102944D01*
X93185140Y-81934072D01*
X93124818Y-81775014D01*
X93028183Y-81635015D01*
X93028180Y-81635012D01*
X93028179Y-81635011D01*
X92900853Y-81522211D01*
X92900854Y-81522211D01*
X92750224Y-81443153D01*
X92585056Y-81402444D01*
X92414944Y-81402444D01*
X92249775Y-81443153D01*
X92099145Y-81522211D01*
X91971820Y-81635011D01*
X91971817Y-81635015D01*
X91875181Y-81775014D01*
X91814860Y-81934069D01*
X91794355Y-82102944D01*
X90909960Y-82102944D01*
X90928814Y-82067671D01*
X90986024Y-81879076D01*
X91005341Y-81682944D01*
X90986024Y-81486812D01*
X90928814Y-81298217D01*
X90928812Y-81298214D01*
X90928812Y-81298212D01*
X90835916Y-81124417D01*
X90835915Y-81124415D01*
X90835910Y-81124406D01*
X90710883Y-80972061D01*
X90558538Y-80847034D01*
X90558532Y-80847031D01*
X90558526Y-80847027D01*
X90384731Y-80754131D01*
X90196134Y-80696920D01*
X90000000Y-80677603D01*
X89803865Y-80696920D01*
X89615268Y-80754131D01*
X89441473Y-80847027D01*
X89441465Y-80847032D01*
X89441463Y-80847033D01*
X89441462Y-80847034D01*
X89289117Y-80972061D01*
X89164566Y-81123827D01*
X89164088Y-81124409D01*
X89164083Y-81124417D01*
X89071187Y-81298212D01*
X89013976Y-81486809D01*
X88994659Y-81682944D01*
X87500000Y-81682944D01*
X87500000Y-80412944D01*
X94074659Y-80412944D01*
X94093976Y-80609078D01*
X94151187Y-80797675D01*
X94244083Y-80971470D01*
X94244087Y-80971476D01*
X94244090Y-80971482D01*
X94369117Y-81123827D01*
X94521462Y-81248854D01*
X94521471Y-81248859D01*
X94521473Y-81248860D01*
X94695268Y-81341756D01*
X94695270Y-81341756D01*
X94695273Y-81341758D01*
X94883868Y-81398968D01*
X95080000Y-81418285D01*
X95276132Y-81398968D01*
X95464727Y-81341758D01*
X95638538Y-81248854D01*
X95790883Y-81123827D01*
X95915910Y-80971482D01*
X96008814Y-80797671D01*
X96066024Y-80609076D01*
X96085341Y-80412944D01*
X96066024Y-80216812D01*
X96008814Y-80028217D01*
X96008812Y-80028214D01*
X96008812Y-80028212D01*
X95915916Y-79854417D01*
X95915915Y-79854415D01*
X95915910Y-79854406D01*
X95790883Y-79702061D01*
X95638538Y-79577034D01*
X95638532Y-79577031D01*
X95638526Y-79577027D01*
X95464731Y-79484131D01*
X95276134Y-79426920D01*
X95080000Y-79407603D01*
X94883865Y-79426920D01*
X94695268Y-79484131D01*
X94521473Y-79577027D01*
X94521465Y-79577032D01*
X94521463Y-79577033D01*
X94521462Y-79577034D01*
X94369117Y-79702061D01*
X94244566Y-79853827D01*
X94244088Y-79854409D01*
X94244083Y-79854417D01*
X94151187Y-80028212D01*
X94093976Y-80216809D01*
X94074659Y-80412944D01*
X87500000Y-80412944D01*
X87500000Y-79142944D01*
X88994659Y-79142944D01*
X89013976Y-79339078D01*
X89071187Y-79527675D01*
X89164083Y-79701470D01*
X89164087Y-79701476D01*
X89164090Y-79701482D01*
X89289117Y-79853827D01*
X89441462Y-79978854D01*
X89441471Y-79978859D01*
X89441473Y-79978860D01*
X89615268Y-80071756D01*
X89615270Y-80071756D01*
X89615273Y-80071758D01*
X89803868Y-80128968D01*
X90000000Y-80148285D01*
X90196132Y-80128968D01*
X90384727Y-80071758D01*
X90558538Y-79978854D01*
X90710883Y-79853827D01*
X90835910Y-79701482D01*
X90928814Y-79527671D01*
X90986024Y-79339076D01*
X91005341Y-79142944D01*
X90986024Y-78946812D01*
X90928814Y-78758217D01*
X90928812Y-78758214D01*
X90928812Y-78758212D01*
X90835916Y-78584417D01*
X90835915Y-78584415D01*
X90835910Y-78584406D01*
X90710883Y-78432061D01*
X90558538Y-78307034D01*
X90558532Y-78307031D01*
X90558526Y-78307027D01*
X90384731Y-78214131D01*
X90196134Y-78156920D01*
X90000000Y-78137603D01*
X89803865Y-78156920D01*
X89615268Y-78214131D01*
X89441473Y-78307027D01*
X89441465Y-78307032D01*
X89441463Y-78307033D01*
X89441462Y-78307034D01*
X89289117Y-78432061D01*
X89164566Y-78583827D01*
X89164088Y-78584409D01*
X89164083Y-78584417D01*
X89071187Y-78758212D01*
X89013976Y-78946809D01*
X88994659Y-79142944D01*
X87500000Y-79142944D01*
X87500000Y-78879167D01*
X87519962Y-78804667D01*
X87574500Y-78750129D01*
X87579726Y-78747250D01*
X87700852Y-78683678D01*
X87828183Y-78570873D01*
X87924818Y-78430874D01*
X87985140Y-78271816D01*
X88005645Y-78102944D01*
X87985140Y-77934072D01*
X87961957Y-77872944D01*
X94074659Y-77872944D01*
X94093976Y-78069078D01*
X94151187Y-78257675D01*
X94244083Y-78431470D01*
X94244087Y-78431476D01*
X94244090Y-78431482D01*
X94369117Y-78583827D01*
X94521462Y-78708854D01*
X94521471Y-78708859D01*
X94521473Y-78708860D01*
X94695268Y-78801756D01*
X94695270Y-78801756D01*
X94695273Y-78801758D01*
X94883868Y-78858968D01*
X95080000Y-78878285D01*
X95276132Y-78858968D01*
X95464727Y-78801758D01*
X95638538Y-78708854D01*
X95790883Y-78583827D01*
X95915910Y-78431482D01*
X96008814Y-78257671D01*
X96066024Y-78069076D01*
X96085341Y-77872944D01*
X96080909Y-77827944D01*
X100369355Y-77827944D01*
X100389860Y-77996818D01*
X100450181Y-78155873D01*
X100450182Y-78155874D01*
X100546817Y-78295873D01*
X100546819Y-78295874D01*
X100546820Y-78295876D01*
X100674146Y-78408676D01*
X100674148Y-78408678D01*
X100824775Y-78487734D01*
X100989944Y-78528444D01*
X101160056Y-78528444D01*
X101325225Y-78487734D01*
X101475852Y-78408678D01*
X101603183Y-78295873D01*
X101699818Y-78155874D01*
X101760140Y-77996816D01*
X101780645Y-77827944D01*
X101760140Y-77659072D01*
X101751016Y-77635015D01*
X101699818Y-77500014D01*
X101691672Y-77488212D01*
X101603183Y-77360015D01*
X101603180Y-77360012D01*
X101603179Y-77360011D01*
X101538763Y-77302944D01*
X103194355Y-77302944D01*
X103214860Y-77471818D01*
X103275181Y-77630873D01*
X103278040Y-77635015D01*
X103371817Y-77770873D01*
X103371819Y-77770874D01*
X103371820Y-77770876D01*
X103499146Y-77883676D01*
X103499148Y-77883678D01*
X103649775Y-77962734D01*
X103814944Y-78003444D01*
X103985056Y-78003444D01*
X104150225Y-77962734D01*
X104300852Y-77883678D01*
X104428183Y-77770873D01*
X104524818Y-77630874D01*
X104585140Y-77471816D01*
X104605645Y-77302944D01*
X104585140Y-77134072D01*
X104524818Y-76975014D01*
X104428183Y-76835015D01*
X104428180Y-76835012D01*
X104428179Y-76835011D01*
X104300853Y-76722211D01*
X104300854Y-76722211D01*
X104150224Y-76643153D01*
X103985056Y-76602444D01*
X103814944Y-76602444D01*
X103649775Y-76643153D01*
X103499145Y-76722211D01*
X103371820Y-76835011D01*
X103371817Y-76835015D01*
X103275181Y-76975014D01*
X103214860Y-77134069D01*
X103194355Y-77302944D01*
X101538763Y-77302944D01*
X101475853Y-77247211D01*
X101475854Y-77247211D01*
X101325224Y-77168153D01*
X101160056Y-77127444D01*
X100989944Y-77127444D01*
X100824775Y-77168153D01*
X100674145Y-77247211D01*
X100546820Y-77360011D01*
X100546817Y-77360015D01*
X100450181Y-77500014D01*
X100389860Y-77659069D01*
X100369355Y-77827944D01*
X96080909Y-77827944D01*
X96066024Y-77676812D01*
X96008814Y-77488217D01*
X96008812Y-77488214D01*
X96008812Y-77488212D01*
X95915916Y-77314417D01*
X95915915Y-77314415D01*
X95915910Y-77314406D01*
X95790883Y-77162061D01*
X95638538Y-77037034D01*
X95638532Y-77037031D01*
X95638526Y-77037027D01*
X95464731Y-76944131D01*
X95276134Y-76886920D01*
X95080000Y-76867603D01*
X94883865Y-76886920D01*
X94695268Y-76944131D01*
X94521473Y-77037027D01*
X94521465Y-77037032D01*
X94521463Y-77037033D01*
X94521462Y-77037034D01*
X94369117Y-77162061D01*
X94244566Y-77313827D01*
X94244088Y-77314409D01*
X94244083Y-77314417D01*
X94151187Y-77488212D01*
X94093976Y-77676809D01*
X94074659Y-77872944D01*
X87961957Y-77872944D01*
X87924818Y-77775014D01*
X87921959Y-77770872D01*
X87828183Y-77635015D01*
X87828180Y-77635012D01*
X87828179Y-77635011D01*
X87726318Y-77544771D01*
X87700852Y-77522210D01*
X87700851Y-77522209D01*
X87579755Y-77458652D01*
X87523066Y-77406355D01*
X87500121Y-77332719D01*
X87500000Y-77326720D01*
X87500000Y-70302944D01*
X88394355Y-70302944D01*
X88414860Y-70471818D01*
X88475181Y-70630873D01*
X88482827Y-70641950D01*
X88571817Y-70770873D01*
X88571819Y-70770874D01*
X88571820Y-70770876D01*
X88699146Y-70883676D01*
X88699148Y-70883678D01*
X88849775Y-70962734D01*
X88904171Y-70976141D01*
X88971726Y-71013350D01*
X89011628Y-71079354D01*
X89013182Y-71156466D01*
X89011095Y-71164061D01*
X88964701Y-71317004D01*
X88964700Y-71317006D01*
X88944417Y-71522944D01*
X88964700Y-71728881D01*
X89024768Y-71926899D01*
X89122310Y-72109386D01*
X89122313Y-72109390D01*
X89122315Y-72109394D01*
X89253590Y-72269354D01*
X89382470Y-72375123D01*
X89427396Y-72437815D01*
X89434956Y-72514572D01*
X89403125Y-72584825D01*
X89355591Y-72623061D01*
X89174256Y-72715456D01*
X89174253Y-72715457D01*
X88973633Y-72861217D01*
X88798273Y-73036577D01*
X88652513Y-73237197D01*
X88652509Y-73237205D01*
X88539932Y-73458150D01*
X88539925Y-73458168D01*
X88463293Y-73694013D01*
X88443449Y-73819309D01*
X88424500Y-73938949D01*
X88424500Y-74186939D01*
X88434965Y-74253011D01*
X88463293Y-74431874D01*
X88470302Y-74453444D01*
X88539927Y-74667726D01*
X88539930Y-74667731D01*
X88539932Y-74667737D01*
X88652509Y-74888682D01*
X88652513Y-74888690D01*
X88798273Y-75089310D01*
X88798276Y-75089314D01*
X88973630Y-75264668D01*
X88973633Y-75264670D01*
X89174253Y-75410430D01*
X89174255Y-75410431D01*
X89174258Y-75410433D01*
X89294730Y-75471816D01*
X89400434Y-75525675D01*
X89399767Y-75526983D01*
X89455064Y-75569404D01*
X89484587Y-75640658D01*
X89474528Y-75717127D01*
X89431389Y-75775300D01*
X89289119Y-75892058D01*
X89289117Y-75892061D01*
X89221160Y-75974867D01*
X89164088Y-76044409D01*
X89164083Y-76044417D01*
X89071187Y-76218212D01*
X89013976Y-76406809D01*
X88994659Y-76602944D01*
X89013976Y-76799078D01*
X89071187Y-76987675D01*
X89164083Y-77161470D01*
X89164087Y-77161476D01*
X89164090Y-77161482D01*
X89289117Y-77313827D01*
X89441462Y-77438854D01*
X89441471Y-77438859D01*
X89441473Y-77438860D01*
X89615268Y-77531756D01*
X89615270Y-77531756D01*
X89615273Y-77531758D01*
X89803868Y-77588968D01*
X90000000Y-77608285D01*
X90196132Y-77588968D01*
X90384727Y-77531758D01*
X90558538Y-77438854D01*
X90710883Y-77313827D01*
X90835910Y-77161482D01*
X90928814Y-76987671D01*
X90986024Y-76799076D01*
X91005341Y-76602944D01*
X90986024Y-76406812D01*
X90928814Y-76218217D01*
X90928812Y-76218214D01*
X90928812Y-76218212D01*
X90835916Y-76044417D01*
X90835915Y-76044415D01*
X90835910Y-76044406D01*
X90710883Y-75892061D01*
X90710881Y-75892059D01*
X90706239Y-75886403D01*
X90707386Y-75885461D01*
X90673061Y-75826008D01*
X90673061Y-75748880D01*
X90711625Y-75682085D01*
X90778420Y-75643521D01*
X90816984Y-75638444D01*
X91113991Y-75638444D01*
X91113994Y-75638444D01*
X91113995Y-75638444D01*
X91358931Y-75599650D01*
X91594782Y-75523017D01*
X91815742Y-75410433D01*
X92016370Y-75264668D01*
X92146568Y-75134469D01*
X92213358Y-75095908D01*
X92290487Y-75095908D01*
X92357282Y-75134472D01*
X92395846Y-75201266D01*
X92399837Y-75257788D01*
X92394355Y-75302941D01*
X92394355Y-75302944D01*
X92404206Y-75384072D01*
X92414860Y-75471818D01*
X92475181Y-75630873D01*
X92505040Y-75674130D01*
X92571817Y-75770873D01*
X92672679Y-75860229D01*
X92699146Y-75883676D01*
X92699148Y-75883678D01*
X92849775Y-75962734D01*
X93014944Y-76003444D01*
X93185056Y-76003444D01*
X93350225Y-75962734D01*
X93500852Y-75883678D01*
X93628183Y-75770873D01*
X93724818Y-75630874D01*
X93785140Y-75471816D01*
X93805645Y-75302944D01*
X101794355Y-75302944D01*
X101814860Y-75471818D01*
X101875181Y-75630873D01*
X101905040Y-75674130D01*
X101971817Y-75770873D01*
X102072679Y-75860229D01*
X102099146Y-75883676D01*
X102099148Y-75883678D01*
X102249775Y-75962734D01*
X102414944Y-76003444D01*
X102585056Y-76003444D01*
X102750225Y-75962734D01*
X102900852Y-75883678D01*
X103028183Y-75770873D01*
X103124818Y-75630874D01*
X103154373Y-75552944D01*
X104544355Y-75552944D01*
X104564860Y-75721818D01*
X104625181Y-75880873D01*
X104625182Y-75880874D01*
X104721817Y-76020873D01*
X104721819Y-76020874D01*
X104721820Y-76020876D01*
X104798215Y-76088556D01*
X104802334Y-76092205D01*
X104849146Y-76133676D01*
X104849148Y-76133678D01*
X104999775Y-76212734D01*
X105164944Y-76253444D01*
X105335056Y-76253444D01*
X105500225Y-76212734D01*
X105650852Y-76133678D01*
X105778183Y-76020873D01*
X105874818Y-75880874D01*
X105935140Y-75721816D01*
X105955645Y-75552944D01*
X105935140Y-75384072D01*
X105904371Y-75302941D01*
X105874818Y-75225014D01*
X105858426Y-75201266D01*
X105778183Y-75085015D01*
X105778180Y-75085012D01*
X105778179Y-75085011D01*
X105650853Y-74972211D01*
X105650854Y-74972211D01*
X105500224Y-74893153D01*
X105335056Y-74852444D01*
X105164944Y-74852444D01*
X104999775Y-74893153D01*
X104849145Y-74972211D01*
X104721820Y-75085011D01*
X104721817Y-75085015D01*
X104625181Y-75225014D01*
X104564860Y-75384069D01*
X104544355Y-75552944D01*
X103154373Y-75552944D01*
X103185140Y-75471816D01*
X103205645Y-75302944D01*
X103185140Y-75134072D01*
X103170666Y-75095908D01*
X103124818Y-74975014D01*
X103122883Y-74972210D01*
X103028183Y-74835015D01*
X103028180Y-74835012D01*
X103028179Y-74835011D01*
X102900853Y-74722211D01*
X102900854Y-74722211D01*
X102750224Y-74643153D01*
X102585056Y-74602444D01*
X102414944Y-74602444D01*
X102249775Y-74643153D01*
X102099145Y-74722211D01*
X101971820Y-74835011D01*
X101971817Y-74835015D01*
X101875181Y-74975014D01*
X101814860Y-75134069D01*
X101794355Y-75302944D01*
X93805645Y-75302944D01*
X93785140Y-75134072D01*
X93770666Y-75095908D01*
X93724818Y-74975014D01*
X93722883Y-74972210D01*
X93628183Y-74835015D01*
X93628180Y-74835012D01*
X93628179Y-74835011D01*
X93500853Y-74722211D01*
X93500854Y-74722211D01*
X93350224Y-74643153D01*
X93185056Y-74602444D01*
X93038311Y-74602444D01*
X92963811Y-74582482D01*
X92909273Y-74527944D01*
X92889311Y-74453444D01*
X92909273Y-74378944D01*
X92932952Y-74348085D01*
X93208748Y-74072289D01*
X93576725Y-73704313D01*
X93576730Y-73704305D01*
X93579627Y-73701409D01*
X93646422Y-73662845D01*
X93723550Y-73662845D01*
X93790345Y-73701409D01*
X93805529Y-73719187D01*
X93878276Y-73819314D01*
X94053630Y-73994668D01*
X94053633Y-73994670D01*
X94254253Y-74140430D01*
X94254255Y-74140431D01*
X94254258Y-74140433D01*
X94475218Y-74253017D01*
X94711069Y-74329650D01*
X94956005Y-74368444D01*
X94956009Y-74368444D01*
X95203991Y-74368444D01*
X95203995Y-74368444D01*
X95448931Y-74329650D01*
X95684782Y-74253017D01*
X95905742Y-74140433D01*
X96106370Y-73994668D01*
X96281724Y-73819314D01*
X96427489Y-73618686D01*
X96540073Y-73397726D01*
X96616706Y-73161875D01*
X96655500Y-72916939D01*
X96655500Y-71422944D01*
X99554396Y-71422944D01*
X99574779Y-71681940D01*
X99574780Y-71681945D01*
X99635427Y-71934553D01*
X99734844Y-72174569D01*
X99870589Y-72396086D01*
X99940308Y-72477716D01*
X100039311Y-72593633D01*
X100073767Y-72623061D01*
X100236857Y-72762354D01*
X100236859Y-72762355D01*
X100236860Y-72762356D01*
X100458372Y-72898098D01*
X100698390Y-72997517D01*
X100951006Y-73058165D01*
X101210000Y-73078548D01*
X101468994Y-73058165D01*
X101721610Y-72997517D01*
X101961628Y-72898098D01*
X102183140Y-72762356D01*
X102380689Y-72593633D01*
X102549412Y-72396084D01*
X102685154Y-72174572D01*
X102784573Y-71934554D01*
X102845221Y-71681938D01*
X102865604Y-71422944D01*
X102845221Y-71163950D01*
X102784573Y-70911334D01*
X102685154Y-70671316D01*
X102549412Y-70449804D01*
X102549411Y-70449803D01*
X102549410Y-70449801D01*
X102425106Y-70304261D01*
X102380689Y-70252255D01*
X102242315Y-70134072D01*
X102183142Y-70083533D01*
X101961625Y-69947788D01*
X101806467Y-69883520D01*
X101721610Y-69848371D01*
X101655735Y-69832555D01*
X101469001Y-69787724D01*
X101468996Y-69787723D01*
X101210000Y-69767340D01*
X100951003Y-69787723D01*
X100950998Y-69787724D01*
X100698390Y-69848371D01*
X100458374Y-69947788D01*
X100236857Y-70083533D01*
X100039314Y-70252252D01*
X100039308Y-70252258D01*
X99870589Y-70449801D01*
X99734844Y-70671318D01*
X99635427Y-70911334D01*
X99574780Y-71163942D01*
X99574779Y-71163947D01*
X99554396Y-71422944D01*
X96655500Y-71422944D01*
X96655500Y-66535548D01*
X96675462Y-66461048D01*
X96730000Y-66406510D01*
X96804500Y-66386548D01*
X96879000Y-66406510D01*
X96926552Y-66450083D01*
X97038402Y-66609821D01*
X97193123Y-66764542D01*
X97370344Y-66888634D01*
X97372361Y-66890046D01*
X97372366Y-66890049D01*
X97441339Y-66922211D01*
X97570670Y-66982519D01*
X97782023Y-67039151D01*
X98000000Y-67058221D01*
X98217977Y-67039151D01*
X98429330Y-66982519D01*
X98627639Y-66890046D01*
X98806877Y-66764542D01*
X98961598Y-66609821D01*
X99087102Y-66430583D01*
X99179575Y-66232274D01*
X99236207Y-66020921D01*
X99255277Y-65802944D01*
X99236207Y-65584967D01*
X99179575Y-65373614D01*
X99087102Y-65175306D01*
X98961598Y-64996067D01*
X98806877Y-64841346D01*
X98704155Y-64769419D01*
X98627638Y-64715841D01*
X98627633Y-64715838D01*
X98429330Y-64623369D01*
X98429328Y-64623368D01*
X98217977Y-64566737D01*
X98217978Y-64566737D01*
X98000000Y-64547667D01*
X97841653Y-64561520D01*
X97765696Y-64548127D01*
X97706613Y-64498549D01*
X97680234Y-64426073D01*
X97693627Y-64350116D01*
X97723306Y-64307730D01*
X100256618Y-61774417D01*
X100323411Y-61735855D01*
X100400535Y-61735855D01*
X100750387Y-61829597D01*
X101123129Y-61888634D01*
X101500000Y-61908385D01*
X101876871Y-61888634D01*
X102249613Y-61829597D01*
X102614143Y-61731922D01*
X102966465Y-61596678D01*
X103302721Y-61425347D01*
X103619225Y-61219807D01*
X103912511Y-60982309D01*
X104179365Y-60715455D01*
X104416863Y-60422169D01*
X104622403Y-60105665D01*
X104793734Y-59769409D01*
X104928978Y-59417087D01*
X105026653Y-59052557D01*
X105085690Y-58679815D01*
X105105441Y-58302944D01*
X105085690Y-57926073D01*
X105026653Y-57553331D01*
X104928978Y-57188801D01*
X104793734Y-56836479D01*
X104622403Y-56500224D01*
X104622401Y-56500221D01*
X104622399Y-56500217D01*
X104416866Y-56183724D01*
X104416863Y-56183719D01*
X104179365Y-55890433D01*
X103912511Y-55623579D01*
X103619225Y-55386081D01*
X103619219Y-55386077D01*
X103302727Y-55180544D01*
X103302707Y-55180533D01*
X102966475Y-55009215D01*
X102966473Y-55009214D01*
X102966465Y-55009210D01*
X102966459Y-55009207D01*
X102966451Y-55009204D01*
X102614158Y-54873971D01*
X102614138Y-54873964D01*
X102249622Y-54776293D01*
X102249619Y-54776292D01*
X101876865Y-54717253D01*
X101500000Y-54697503D01*
X101123134Y-54717253D01*
X100750380Y-54776292D01*
X100750377Y-54776293D01*
X100385861Y-54873964D01*
X100385841Y-54873971D01*
X100033548Y-55009204D01*
X100033532Y-55009211D01*
X99697286Y-55180537D01*
X99697273Y-55180544D01*
X99380780Y-55386077D01*
X99087485Y-55623582D01*
X98820638Y-55890429D01*
X98583133Y-56183724D01*
X98377600Y-56500217D01*
X98377593Y-56500230D01*
X98206267Y-56836476D01*
X98206260Y-56836492D01*
X98071027Y-57188785D01*
X98071020Y-57188805D01*
X97973349Y-57553321D01*
X97973348Y-57553324D01*
X97914309Y-57926078D01*
X97894559Y-58302944D01*
X97914309Y-58679809D01*
X97973348Y-59052563D01*
X97973349Y-59052566D01*
X98067087Y-59402403D01*
X98067087Y-59479531D01*
X98028523Y-59546326D01*
X94204859Y-63369991D01*
X94138064Y-63408555D01*
X94060936Y-63408555D01*
X93994141Y-63369991D01*
X93955577Y-63303196D01*
X93950500Y-63264632D01*
X93950500Y-61410278D01*
X93970462Y-61335778D01*
X94018347Y-61285317D01*
X94119225Y-61219807D01*
X94412511Y-60982309D01*
X94679365Y-60715455D01*
X94916863Y-60422169D01*
X95122403Y-60105665D01*
X95293734Y-59769409D01*
X95428978Y-59417087D01*
X95526653Y-59052557D01*
X95585690Y-58679815D01*
X95605441Y-58302944D01*
X95585690Y-57926073D01*
X95526653Y-57553331D01*
X95428978Y-57188801D01*
X95293734Y-56836479D01*
X95122403Y-56500224D01*
X95122401Y-56500221D01*
X95122399Y-56500217D01*
X94916866Y-56183724D01*
X94916863Y-56183719D01*
X94679365Y-55890433D01*
X94412511Y-55623579D01*
X94119225Y-55386081D01*
X94119219Y-55386077D01*
X93802727Y-55180544D01*
X93802707Y-55180533D01*
X93466475Y-55009215D01*
X93466473Y-55009214D01*
X93466465Y-55009210D01*
X93466459Y-55009207D01*
X93466451Y-55009204D01*
X93114158Y-54873971D01*
X93114138Y-54873964D01*
X92749622Y-54776293D01*
X92749619Y-54776292D01*
X92376865Y-54717253D01*
X92000000Y-54697503D01*
X91623134Y-54717253D01*
X91250380Y-54776292D01*
X91250377Y-54776293D01*
X90885861Y-54873964D01*
X90885841Y-54873971D01*
X90533548Y-55009204D01*
X90533532Y-55009211D01*
X90197286Y-55180537D01*
X90197273Y-55180544D01*
X89880780Y-55386077D01*
X89587485Y-55623582D01*
X89320638Y-55890429D01*
X89083133Y-56183724D01*
X88877600Y-56500217D01*
X88877593Y-56500230D01*
X88706267Y-56836476D01*
X88706260Y-56836492D01*
X88571027Y-57188785D01*
X88571020Y-57188805D01*
X88473349Y-57553321D01*
X88473348Y-57553324D01*
X88414309Y-57926078D01*
X88394559Y-58302944D01*
X88414309Y-58679809D01*
X88473348Y-59052563D01*
X88473349Y-59052566D01*
X88571020Y-59417082D01*
X88571027Y-59417102D01*
X88706260Y-59769395D01*
X88706271Y-59769419D01*
X88877589Y-60105651D01*
X88877600Y-60105671D01*
X88956882Y-60227754D01*
X89083137Y-60422169D01*
X89320635Y-60715455D01*
X89587489Y-60982309D01*
X89880775Y-61219807D01*
X89880780Y-61219810D01*
X90197272Y-61425343D01*
X90197292Y-61425354D01*
X90344220Y-61500217D01*
X90533535Y-61596678D01*
X90533547Y-61596682D01*
X90533548Y-61596683D01*
X90703897Y-61662074D01*
X90766295Y-61707408D01*
X90797666Y-61777868D01*
X90799500Y-61801177D01*
X90799500Y-63853444D01*
X90779538Y-63927944D01*
X90725000Y-63982482D01*
X90650500Y-64002444D01*
X90614944Y-64002444D01*
X90449775Y-64043153D01*
X90299145Y-64122211D01*
X90171820Y-64235011D01*
X90171817Y-64235015D01*
X90075181Y-64375014D01*
X90014860Y-64534069D01*
X89994355Y-64702944D01*
X90014860Y-64871818D01*
X90075181Y-65030873D01*
X90075182Y-65030874D01*
X90171817Y-65170873D01*
X90171819Y-65170874D01*
X90171820Y-65170876D01*
X90299146Y-65283676D01*
X90299148Y-65283678D01*
X90449775Y-65362734D01*
X90614944Y-65403444D01*
X90650500Y-65403444D01*
X90725000Y-65423406D01*
X90779538Y-65477944D01*
X90799500Y-65552444D01*
X90799500Y-66653444D01*
X90779538Y-66727944D01*
X90725000Y-66782482D01*
X90650500Y-66802444D01*
X90614944Y-66802444D01*
X90449775Y-66843153D01*
X90299145Y-66922211D01*
X90171820Y-67035011D01*
X90171817Y-67035015D01*
X90075181Y-67175014D01*
X90014860Y-67334069D01*
X89994355Y-67502944D01*
X90014860Y-67671818D01*
X90075181Y-67830873D01*
X90075182Y-67830874D01*
X90171817Y-67970873D01*
X90171819Y-67970874D01*
X90171820Y-67970876D01*
X90299146Y-68083676D01*
X90299148Y-68083678D01*
X90449775Y-68162734D01*
X90614944Y-68203444D01*
X90650500Y-68203444D01*
X90725000Y-68223406D01*
X90779538Y-68277944D01*
X90799500Y-68352444D01*
X90799500Y-70510544D01*
X90779538Y-70585044D01*
X90725000Y-70639582D01*
X90650500Y-70659544D01*
X90580262Y-70641950D01*
X90403957Y-70547713D01*
X90205936Y-70487644D01*
X90205937Y-70487644D01*
X90045232Y-70471816D01*
X90000000Y-70467361D01*
X89999999Y-70467361D01*
X89992668Y-70468083D01*
X89967999Y-70470512D01*
X89891904Y-70457949D01*
X89832283Y-70409019D01*
X89805114Y-70336834D01*
X89805483Y-70304270D01*
X89805645Y-70302944D01*
X89785140Y-70134072D01*
X89724818Y-69975014D01*
X89628183Y-69835015D01*
X89628180Y-69835012D01*
X89628179Y-69835011D01*
X89500853Y-69722211D01*
X89500854Y-69722211D01*
X89350224Y-69643153D01*
X89185056Y-69602444D01*
X89014944Y-69602444D01*
X88849775Y-69643153D01*
X88699145Y-69722211D01*
X88571820Y-69835011D01*
X88571817Y-69835015D01*
X88475181Y-69975014D01*
X88414860Y-70134069D01*
X88394355Y-70302944D01*
X87500000Y-70302944D01*
X87500000Y-53864662D01*
X87519962Y-53790162D01*
X87543641Y-53759303D01*
X87956359Y-53346585D01*
X88023154Y-53308021D01*
X88061718Y-53302944D01*
X88970362Y-53302944D01*
X89027382Y-53314286D01*
G37*
%TD.AperFunction*%
%TD*%
M02*
