%TF.GenerationSoftware,KiCad,Pcbnew,7.0.8*%
%TF.CreationDate,2023-11-04T19:46:57-03:00*%
%TF.ProjectId,PECDR,50454344-522e-46b6-9963-61645f706362,rev?*%
%TF.SameCoordinates,Original*%
%TF.FileFunction,Drillmap*%
%TF.FilePolarity,Positive*%
%FSLAX45Y45*%
G04 Gerber Fmt 4.5, Leading zero omitted, Abs format (unit mm)*
G04 Created by KiCad (PCBNEW 7.0.8) date 2023-11-04 19:46:57*
%MOMM*%
%LPD*%
G01*
G04 APERTURE LIST*
%ADD10C,0.100000*%
%ADD11C,0.200000*%
%ADD12C,0.040000*%
%ADD13C,0.050000*%
%ADD14C,0.119000*%
%ADD15C,0.150000*%
%ADD16C,0.320000*%
G04 APERTURE END LIST*
D10*
X11850000Y-7780294D02*
X11850000Y-7430294D01*
X9450000Y-5330294D02*
X9900000Y-5330294D01*
X10000000Y-10630294D02*
X9900000Y-10730294D01*
X10300000Y-5430294D02*
X10400000Y-5330294D01*
X4600000Y-10730294D02*
X8950000Y-10730294D01*
X9050000Y-10630294D02*
X8950000Y-10730294D01*
X11750000Y-8730294D02*
X11750000Y-9030294D01*
X11550000Y-5330294D02*
X10400000Y-5330294D01*
X11750000Y-7880294D02*
X11850000Y-7780294D01*
X10300000Y-10630294D02*
X10000000Y-10630294D01*
X11750000Y-8730294D02*
X11850000Y-8630294D01*
X11850000Y-9130294D02*
X11850000Y-10430294D01*
X11750000Y-8180294D02*
X11850000Y-8280294D01*
X11750000Y-7330294D02*
X11850000Y-7430294D01*
X9350000Y-10630294D02*
X9050000Y-10630294D01*
X3350000Y-10430294D02*
X3350000Y-5630294D01*
X11849996Y-5630294D02*
G75*
G03*
X11550000Y-5330294I-299996J4D01*
G01*
X11750000Y-7030294D02*
X11750000Y-7330294D01*
X11750000Y-7880294D02*
X11750000Y-8180294D01*
X11750000Y-9030294D02*
X11850000Y-9130294D01*
X9050000Y-5430294D02*
X8950000Y-5330294D01*
X10000000Y-5430294D02*
X10300000Y-5430294D01*
X11850000Y-8630294D02*
X11850000Y-8280294D01*
X9350000Y-5430294D02*
X9450000Y-5330294D01*
X10300000Y-10630294D02*
X10400000Y-10730294D01*
X8950000Y-5330294D02*
X3650000Y-5330294D01*
X9350000Y-10630294D02*
X9450000Y-10730294D01*
X10400000Y-10730294D02*
X11550000Y-10730294D01*
X3650000Y-10730294D02*
X4600000Y-10730294D01*
X11850000Y-6930294D02*
X11850000Y-5630294D01*
X10000000Y-5430294D02*
X9900000Y-5330294D01*
X11750000Y-7030294D02*
X11850000Y-6930294D01*
X9050000Y-5430294D02*
X9350000Y-5430294D01*
X9450000Y-10730294D02*
X9900000Y-10730294D01*
X3650000Y-5330295D02*
G75*
G03*
X3350000Y-5630294I7J-300007D01*
G01*
X3349996Y-10430294D02*
G75*
G03*
X3650000Y-10730294I300004J4D01*
G01*
X11550000Y-10730290D02*
G75*
G03*
X11850000Y-10430294I10J299990D01*
G01*
D11*
D12*
X3480000Y-5560294D02*
X3520000Y-5600294D01*
X3520000Y-5560294D02*
X3480000Y-5600294D01*
X3480000Y-5810294D02*
X3520000Y-5850294D01*
X3520000Y-5810294D02*
X3480000Y-5850294D01*
X3480000Y-6060294D02*
X3520000Y-6100294D01*
X3520000Y-6060294D02*
X3480000Y-6100294D01*
X3480000Y-6310294D02*
X3520000Y-6350294D01*
X3520000Y-6310294D02*
X3480000Y-6350294D01*
X3480000Y-7060294D02*
X3520000Y-7100294D01*
X3520000Y-7060294D02*
X3480000Y-7100294D01*
X3530000Y-10560294D02*
X3570000Y-10600294D01*
X3570000Y-10560294D02*
X3530000Y-10600294D01*
X3550000Y-9840294D02*
X3590000Y-9880294D01*
X3590000Y-9840294D02*
X3550000Y-9880294D01*
X3555000Y-10200294D02*
X3595000Y-10240294D01*
X3595000Y-10200294D02*
X3555000Y-10240294D01*
X3730000Y-6060294D02*
X3770000Y-6100294D01*
X3770000Y-6060294D02*
X3730000Y-6100294D01*
X3730000Y-6310294D02*
X3770000Y-6350294D01*
X3770000Y-6310294D02*
X3730000Y-6350294D01*
X3940000Y-5860294D02*
X3980000Y-5900294D01*
X3980000Y-5860294D02*
X3940000Y-5900294D01*
X3980000Y-7060294D02*
X4020000Y-7100294D01*
X4020000Y-7060294D02*
X3980000Y-7100294D01*
X3980000Y-8310294D02*
X4020000Y-8350294D01*
X4020000Y-8310294D02*
X3980000Y-8350294D01*
X3980000Y-10085294D02*
X4020000Y-10125294D01*
X4020000Y-10085294D02*
X3980000Y-10125294D01*
X4105000Y-10460294D02*
X4145000Y-10500294D01*
X4145000Y-10460294D02*
X4105000Y-10500294D01*
X4230000Y-5560294D02*
X4270000Y-5600294D01*
X4270000Y-5560294D02*
X4230000Y-5600294D01*
X4330000Y-7910294D02*
X4370000Y-7950294D01*
X4370000Y-7910294D02*
X4330000Y-7950294D01*
X4330000Y-9010294D02*
X4370000Y-9050294D01*
X4370000Y-9010294D02*
X4330000Y-9050294D01*
X4620000Y-7260294D02*
X4660000Y-7300294D01*
X4660000Y-7260294D02*
X4620000Y-7300294D01*
X4705000Y-5960294D02*
X4745000Y-6000294D01*
X4745000Y-5960294D02*
X4705000Y-6000294D01*
X4705000Y-8960294D02*
X4745000Y-9000294D01*
X4745000Y-8960294D02*
X4705000Y-9000294D01*
X4705000Y-10060294D02*
X4745000Y-10100294D01*
X4745000Y-10060294D02*
X4705000Y-10100294D01*
X4730000Y-8035294D02*
X4770000Y-8075294D01*
X4770000Y-8035294D02*
X4730000Y-8075294D01*
X4730000Y-8310294D02*
X4770000Y-8350294D01*
X4770000Y-8310294D02*
X4730000Y-8350294D01*
X5005000Y-10460294D02*
X5045000Y-10500294D01*
X5045000Y-10460294D02*
X5005000Y-10500294D01*
X5055000Y-7785294D02*
X5095000Y-7825294D01*
X5095000Y-7785294D02*
X5055000Y-7825294D01*
X5055000Y-8310294D02*
X5095000Y-8350294D01*
X5095000Y-8310294D02*
X5055000Y-8350294D01*
X5080000Y-9760294D02*
X5120000Y-9800294D01*
X5120000Y-9760294D02*
X5080000Y-9800294D01*
X5105000Y-8910294D02*
X5145000Y-8950294D01*
X5145000Y-8910294D02*
X5105000Y-8950294D01*
X5150000Y-6900294D02*
X5190000Y-6940294D01*
X5190000Y-6900294D02*
X5150000Y-6940294D01*
X5155000Y-6110294D02*
X5195000Y-6150294D01*
X5195000Y-6110294D02*
X5155000Y-6150294D01*
X5280000Y-7360294D02*
X5320000Y-7400294D01*
X5320000Y-7360294D02*
X5280000Y-7400294D01*
X5540000Y-5480294D02*
X5580000Y-5520294D01*
X5580000Y-5480294D02*
X5540000Y-5520294D01*
X5597500Y-8170294D02*
X5637500Y-8210294D01*
X5637500Y-8170294D02*
X5597500Y-8210294D01*
X5659000Y-8971294D02*
X5699000Y-9011294D01*
X5699000Y-8971294D02*
X5659000Y-9011294D01*
X5740000Y-8060294D02*
X5780000Y-8100294D01*
X5780000Y-8060294D02*
X5740000Y-8100294D01*
X5830000Y-7190294D02*
X5870000Y-7230294D01*
X5870000Y-7190294D02*
X5830000Y-7230294D01*
X5830000Y-9850294D02*
X5870000Y-9890294D01*
X5870000Y-9850294D02*
X5830000Y-9890294D01*
X5840000Y-8630294D02*
X5880000Y-8670294D01*
X5880000Y-8630294D02*
X5840000Y-8670294D01*
X5850000Y-6050294D02*
X5890000Y-6090294D01*
X5890000Y-6050294D02*
X5850000Y-6090294D01*
X5880000Y-7570294D02*
X5920000Y-7610294D01*
X5920000Y-7570294D02*
X5880000Y-7610294D01*
X5880000Y-9350294D02*
X5920000Y-9390294D01*
X5920000Y-9350294D02*
X5880000Y-9390294D01*
X6250000Y-7170294D02*
X6290000Y-7210294D01*
X6290000Y-7170294D02*
X6250000Y-7210294D01*
X6290000Y-9850294D02*
X6330000Y-9890294D01*
X6330000Y-9850294D02*
X6290000Y-9890294D01*
X6310000Y-6050294D02*
X6350000Y-6090294D01*
X6350000Y-6050294D02*
X6310000Y-6090294D01*
X6330000Y-8210294D02*
X6370000Y-8250294D01*
X6370000Y-8210294D02*
X6330000Y-8250294D01*
X6330000Y-8610294D02*
X6370000Y-8650294D01*
X6370000Y-8610294D02*
X6330000Y-8650294D01*
X6340000Y-7790294D02*
X6380000Y-7830294D01*
X6380000Y-7790294D02*
X6340000Y-7830294D01*
X6410000Y-6760294D02*
X6450000Y-6800294D01*
X6450000Y-6760294D02*
X6410000Y-6800294D01*
X6530000Y-6910294D02*
X6570000Y-6950294D01*
X6570000Y-6910294D02*
X6530000Y-6950294D01*
X6530000Y-8210294D02*
X6570000Y-8250294D01*
X6570000Y-8210294D02*
X6530000Y-8250294D01*
X6530000Y-8610294D02*
X6570000Y-8650294D01*
X6570000Y-8610294D02*
X6530000Y-8650294D01*
X6630000Y-6477794D02*
X6670000Y-6517794D01*
X6670000Y-6477794D02*
X6630000Y-6517794D01*
X6730000Y-7410294D02*
X6770000Y-7450294D01*
X6770000Y-7410294D02*
X6730000Y-7450294D01*
X6730000Y-7810294D02*
X6770000Y-7850294D01*
X6770000Y-7810294D02*
X6730000Y-7850294D01*
X6730000Y-8210294D02*
X6770000Y-8250294D01*
X6770000Y-8210294D02*
X6730000Y-8250294D01*
X6730000Y-8610294D02*
X6770000Y-8650294D01*
X6770000Y-8610294D02*
X6730000Y-8650294D01*
X6750000Y-5710294D02*
X6790000Y-5750294D01*
X6790000Y-5710294D02*
X6750000Y-5750294D01*
X6790000Y-6510294D02*
X6830000Y-6550294D01*
X6830000Y-6510294D02*
X6790000Y-6550294D01*
X6930000Y-8210294D02*
X6970000Y-8250294D01*
X6970000Y-8210294D02*
X6930000Y-8250294D01*
X6930000Y-8610294D02*
X6970000Y-8650294D01*
X6970000Y-8610294D02*
X6930000Y-8650294D01*
X6980000Y-6435294D02*
X7020000Y-6475294D01*
X7020000Y-6435294D02*
X6980000Y-6475294D01*
X6980000Y-6585294D02*
X7020000Y-6625294D01*
X7020000Y-6585294D02*
X6980000Y-6625294D01*
X7030000Y-6060294D02*
X7070000Y-6100294D01*
X7070000Y-6060294D02*
X7030000Y-6100294D01*
X7090000Y-6430294D02*
X7130000Y-6470294D01*
X7130000Y-6430294D02*
X7090000Y-6470294D01*
X7090000Y-6590294D02*
X7130000Y-6630294D01*
X7130000Y-6590294D02*
X7090000Y-6630294D01*
X7130000Y-8610294D02*
X7170000Y-8650294D01*
X7170000Y-8610294D02*
X7130000Y-8650294D01*
X7155000Y-6960294D02*
X7195000Y-7000294D01*
X7195000Y-6960294D02*
X7155000Y-7000294D01*
X7160000Y-5910294D02*
X7200000Y-5950294D01*
X7200000Y-5910294D02*
X7160000Y-5950294D01*
X7205000Y-6435294D02*
X7245000Y-6475294D01*
X7245000Y-6435294D02*
X7205000Y-6475294D01*
X7205000Y-6585294D02*
X7245000Y-6625294D01*
X7245000Y-6585294D02*
X7205000Y-6625294D01*
X7330000Y-8610294D02*
X7370000Y-8650294D01*
X7370000Y-8610294D02*
X7330000Y-8650294D01*
X7410000Y-6210294D02*
X7450000Y-6250294D01*
X7450000Y-6210294D02*
X7410000Y-6250294D01*
X7430000Y-7110294D02*
X7470000Y-7150294D01*
X7470000Y-7110294D02*
X7430000Y-7150294D01*
X7430000Y-7510294D02*
X7470000Y-7550294D01*
X7470000Y-7510294D02*
X7430000Y-7550294D01*
X7430000Y-7710294D02*
X7470000Y-7750294D01*
X7470000Y-7710294D02*
X7430000Y-7750294D01*
X7430000Y-7910294D02*
X7470000Y-7950294D01*
X7470000Y-7910294D02*
X7430000Y-7950294D01*
X7455000Y-5960294D02*
X7495000Y-6000294D01*
X7495000Y-5960294D02*
X7455000Y-6000294D01*
X7530000Y-8610294D02*
X7570000Y-8650294D01*
X7570000Y-8610294D02*
X7530000Y-8650294D01*
X7563750Y-6964044D02*
X7603750Y-7004044D01*
X7603750Y-6964044D02*
X7563750Y-7004044D01*
X7630000Y-7310294D02*
X7670000Y-7350294D01*
X7670000Y-7310294D02*
X7630000Y-7350294D01*
X7679950Y-7715294D02*
X7719950Y-7755294D01*
X7719950Y-7715294D02*
X7679950Y-7755294D01*
X7710000Y-7568294D02*
X7750000Y-7608294D01*
X7750000Y-7568294D02*
X7710000Y-7608294D01*
X7720000Y-7450294D02*
X7760000Y-7490294D01*
X7760000Y-7450294D02*
X7720000Y-7490294D01*
X7730000Y-8610294D02*
X7770000Y-8650294D01*
X7770000Y-8610294D02*
X7730000Y-8650294D01*
X7820000Y-7480294D02*
X7860000Y-7520294D01*
X7860000Y-7480294D02*
X7820000Y-7520294D01*
X7830000Y-7110294D02*
X7870000Y-7150294D01*
X7870000Y-7110294D02*
X7830000Y-7150294D01*
X7830000Y-8360294D02*
X7870000Y-8400294D01*
X7870000Y-8360294D02*
X7830000Y-8400294D01*
X7890000Y-6290294D02*
X7930000Y-6330294D01*
X7930000Y-6290294D02*
X7890000Y-6330294D01*
X7905000Y-5810294D02*
X7945000Y-5850294D01*
X7945000Y-5810294D02*
X7905000Y-5850294D01*
X7930000Y-8610294D02*
X7970000Y-8650294D01*
X7970000Y-8610294D02*
X7930000Y-8650294D01*
X7950000Y-6810294D02*
X7990000Y-6850294D01*
X7990000Y-6810294D02*
X7950000Y-6850294D01*
X7960000Y-7940294D02*
X8000000Y-7980294D01*
X8000000Y-7940294D02*
X7960000Y-7980294D01*
X7970000Y-9860294D02*
X8010000Y-9900294D01*
X8010000Y-9860294D02*
X7970000Y-9900294D01*
X8010000Y-7710294D02*
X8050000Y-7750294D01*
X8050000Y-7710294D02*
X8010000Y-7750294D01*
X8015000Y-7155294D02*
X8055000Y-7195294D01*
X8055000Y-7155294D02*
X8015000Y-7195294D01*
X8350000Y-6940294D02*
X8390000Y-6980294D01*
X8390000Y-6940294D02*
X8350000Y-6980294D01*
X8350000Y-7180294D02*
X8390000Y-7220294D01*
X8390000Y-7180294D02*
X8350000Y-7220294D01*
X8350000Y-7450294D02*
X8390000Y-7490294D01*
X8390000Y-7450294D02*
X8350000Y-7490294D01*
X8350000Y-7690294D02*
X8390000Y-7730294D01*
X8390000Y-7690294D02*
X8350000Y-7730294D01*
X8370000Y-6170294D02*
X8410000Y-6210294D01*
X8410000Y-6170294D02*
X8370000Y-6210294D01*
X8380000Y-7810294D02*
X8420000Y-7850294D01*
X8420000Y-7810294D02*
X8380000Y-7850294D01*
X8390000Y-6550294D02*
X8430000Y-6590294D01*
X8430000Y-6550294D02*
X8390000Y-6590294D01*
X8390000Y-8580294D02*
X8430000Y-8620294D01*
X8430000Y-8580294D02*
X8390000Y-8620294D01*
X8390000Y-9850294D02*
X8430000Y-9890294D01*
X8430000Y-9850294D02*
X8390000Y-9890294D01*
X8410000Y-6810294D02*
X8450000Y-6850294D01*
X8450000Y-6810294D02*
X8410000Y-6850294D01*
X8430000Y-7310294D02*
X8470000Y-7350294D01*
X8470000Y-7310294D02*
X8430000Y-7350294D01*
X8555000Y-6310294D02*
X8595000Y-6350294D01*
X8595000Y-6310294D02*
X8555000Y-6350294D01*
X8590000Y-6750294D02*
X8630000Y-6790294D01*
X8630000Y-6750294D02*
X8590000Y-6790294D01*
X8605000Y-9560294D02*
X8645000Y-9600294D01*
X8645000Y-9560294D02*
X8605000Y-9600294D01*
X8605000Y-10510294D02*
X8645000Y-10550294D01*
X8645000Y-10510294D02*
X8605000Y-10550294D01*
X8630000Y-6510294D02*
X8670000Y-6550294D01*
X8670000Y-6510294D02*
X8630000Y-6550294D01*
X8710000Y-7790294D02*
X8750000Y-7830294D01*
X8750000Y-7790294D02*
X8710000Y-7830294D01*
X8790000Y-8910294D02*
X8830000Y-8950294D01*
X8830000Y-8910294D02*
X8790000Y-8950294D01*
X8805000Y-6035294D02*
X8845000Y-6075294D01*
X8845000Y-6035294D02*
X8805000Y-6075294D01*
X8805000Y-10585294D02*
X8845000Y-10625294D01*
X8845000Y-10585294D02*
X8805000Y-10625294D01*
X8830000Y-5460294D02*
X8870000Y-5500294D01*
X8870000Y-5460294D02*
X8830000Y-5500294D01*
X8830000Y-9335294D02*
X8870000Y-9375294D01*
X8870000Y-9335294D02*
X8830000Y-9375294D01*
X8890000Y-7010294D02*
X8930000Y-7050294D01*
X8930000Y-7010294D02*
X8890000Y-7050294D01*
X8930000Y-9810294D02*
X8970000Y-9850294D01*
X8970000Y-9810294D02*
X8930000Y-9850294D01*
X8980000Y-9160294D02*
X9020000Y-9200294D01*
X9020000Y-9160294D02*
X8980000Y-9200294D01*
X9050000Y-6450294D02*
X9090000Y-6490294D01*
X9090000Y-6450294D02*
X9050000Y-6490294D01*
X9050000Y-6730294D02*
X9090000Y-6770294D01*
X9090000Y-6730294D02*
X9050000Y-6770294D01*
X9210000Y-7250294D02*
X9250000Y-7290294D01*
X9250000Y-7250294D02*
X9210000Y-7290294D01*
X9210000Y-8430294D02*
X9250000Y-8470294D01*
X9250000Y-8430294D02*
X9210000Y-8470294D01*
X9210000Y-9000294D02*
X9250000Y-9040294D01*
X9250000Y-9000294D02*
X9210000Y-9040294D01*
X9230000Y-8190294D02*
X9270000Y-8230294D01*
X9270000Y-8190294D02*
X9230000Y-8230294D01*
X9240000Y-6580294D02*
X9280000Y-6620294D01*
X9280000Y-6580294D02*
X9240000Y-6620294D01*
X9250000Y-9690294D02*
X9290000Y-9730294D01*
X9290000Y-9690294D02*
X9250000Y-9730294D01*
X9290000Y-7510294D02*
X9330000Y-7550294D01*
X9330000Y-7510294D02*
X9290000Y-7550294D01*
X9488000Y-6568294D02*
X9528000Y-6608294D01*
X9528000Y-6568294D02*
X9488000Y-6608294D01*
X9488000Y-7048294D02*
X9528000Y-7088294D01*
X9528000Y-7048294D02*
X9488000Y-7088294D01*
X9488000Y-9208294D02*
X9528000Y-9248294D01*
X9528000Y-9208294D02*
X9488000Y-9248294D01*
X9490000Y-6150294D02*
X9530000Y-6190294D01*
X9530000Y-6150294D02*
X9490000Y-6190294D01*
X9655000Y-10235294D02*
X9695000Y-10275294D01*
X9695000Y-10235294D02*
X9655000Y-10275294D01*
X9670000Y-5710294D02*
X9710000Y-5750294D01*
X9710000Y-5710294D02*
X9670000Y-5750294D01*
X9670000Y-8030294D02*
X9710000Y-8070294D01*
X9710000Y-8030294D02*
X9670000Y-8070294D01*
X9670000Y-9750294D02*
X9710000Y-9790294D01*
X9710000Y-9750294D02*
X9670000Y-9790294D01*
X9755000Y-9260294D02*
X9795000Y-9300294D01*
X9795000Y-9260294D02*
X9755000Y-9300294D01*
X9780000Y-6160294D02*
X9820000Y-6200294D01*
X9820000Y-6160294D02*
X9780000Y-6200294D01*
X9880000Y-8010294D02*
X9920000Y-8050294D01*
X9920000Y-8010294D02*
X9880000Y-8050294D01*
X10055000Y-9360294D02*
X10095000Y-9400294D01*
X10095000Y-9360294D02*
X10055000Y-9400294D01*
X10130000Y-9660294D02*
X10170000Y-9700294D01*
X10170000Y-9660294D02*
X10130000Y-9700294D01*
X10230000Y-7510294D02*
X10270000Y-7550294D01*
X10270000Y-7510294D02*
X10230000Y-7550294D01*
X10267500Y-8435294D02*
X10307500Y-8475294D01*
X10307500Y-8435294D02*
X10267500Y-8475294D01*
X10270000Y-9130294D02*
X10310000Y-9170294D01*
X10310000Y-9130294D02*
X10270000Y-9170294D01*
X10415000Y-8630294D02*
X10455000Y-8670294D01*
X10455000Y-8630294D02*
X10415000Y-8670294D01*
X10425000Y-8245294D02*
X10465000Y-8285294D01*
X10465000Y-8245294D02*
X10425000Y-8285294D01*
X10430000Y-7910294D02*
X10470000Y-7950294D01*
X10470000Y-7910294D02*
X10430000Y-7950294D01*
X10505000Y-5485294D02*
X10545000Y-5525294D01*
X10545000Y-5485294D02*
X10505000Y-5525294D01*
X10505000Y-7535294D02*
X10545000Y-7575294D01*
X10545000Y-7535294D02*
X10505000Y-7575294D01*
X10505000Y-10535294D02*
X10545000Y-10575294D01*
X10545000Y-10535294D02*
X10505000Y-10575294D01*
X10530000Y-6810294D02*
X10570000Y-6850294D01*
X10570000Y-6810294D02*
X10530000Y-6850294D01*
X10530000Y-9310294D02*
X10570000Y-9350294D01*
X10570000Y-9310294D02*
X10530000Y-9350294D01*
X10550000Y-9030294D02*
X10590000Y-9070294D01*
X10590000Y-9030294D02*
X10550000Y-9070294D01*
X10730000Y-5560294D02*
X10770000Y-5600294D01*
X10770000Y-5560294D02*
X10730000Y-5600294D01*
X10730000Y-6910294D02*
X10770000Y-6950294D01*
X10770000Y-6910294D02*
X10730000Y-6950294D01*
X10730000Y-7110294D02*
X10770000Y-7150294D01*
X10770000Y-7110294D02*
X10730000Y-7150294D01*
X10730000Y-10310294D02*
X10770000Y-10350294D01*
X10770000Y-10310294D02*
X10730000Y-10350294D01*
X10730000Y-10560294D02*
X10770000Y-10600294D01*
X10770000Y-10560294D02*
X10730000Y-10600294D01*
X10780000Y-7610294D02*
X10820000Y-7650294D01*
X10820000Y-7610294D02*
X10780000Y-7650294D01*
X10780000Y-9235294D02*
X10820000Y-9275294D01*
X10820000Y-9235294D02*
X10780000Y-9275294D01*
X10790000Y-8130294D02*
X10830000Y-8170294D01*
X10830000Y-8130294D02*
X10790000Y-8170294D01*
X10930000Y-6910294D02*
X10970000Y-6950294D01*
X10970000Y-6910294D02*
X10930000Y-6950294D01*
X10930000Y-7110294D02*
X10970000Y-7150294D01*
X10970000Y-7110294D02*
X10930000Y-7150294D01*
X10930000Y-7310294D02*
X10970000Y-7350294D01*
X10970000Y-7310294D02*
X10930000Y-7350294D01*
X10955000Y-8210294D02*
X10995000Y-8250294D01*
X10995000Y-8210294D02*
X10955000Y-8250294D01*
X10980000Y-5560294D02*
X11020000Y-5600294D01*
X11020000Y-5560294D02*
X10980000Y-5600294D01*
X10980000Y-5810294D02*
X11020000Y-5850294D01*
X11020000Y-5810294D02*
X10980000Y-5850294D01*
X10980000Y-9060294D02*
X11020000Y-9100294D01*
X11020000Y-9060294D02*
X10980000Y-9100294D01*
X10980000Y-9310294D02*
X11020000Y-9350294D01*
X11020000Y-9310294D02*
X10980000Y-9350294D01*
X10980000Y-10310294D02*
X11020000Y-10350294D01*
X11020000Y-10310294D02*
X10980000Y-10350294D01*
X10980000Y-10560294D02*
X11020000Y-10600294D01*
X11020000Y-10560294D02*
X10980000Y-10600294D01*
X11230000Y-5560294D02*
X11270000Y-5600294D01*
X11270000Y-5560294D02*
X11230000Y-5600294D01*
X11230000Y-5810294D02*
X11270000Y-5850294D01*
X11270000Y-5810294D02*
X11230000Y-5850294D01*
X11230000Y-6060294D02*
X11270000Y-6100294D01*
X11270000Y-6060294D02*
X11230000Y-6100294D01*
X11230000Y-6310294D02*
X11270000Y-6350294D01*
X11270000Y-6310294D02*
X11230000Y-6350294D01*
X11230000Y-6560294D02*
X11270000Y-6600294D01*
X11270000Y-6560294D02*
X11230000Y-6600294D01*
X11230000Y-9310294D02*
X11270000Y-9350294D01*
X11270000Y-9310294D02*
X11230000Y-9350294D01*
X11230000Y-9560294D02*
X11270000Y-9600294D01*
X11270000Y-9560294D02*
X11230000Y-9600294D01*
X11230000Y-9810294D02*
X11270000Y-9850294D01*
X11270000Y-9810294D02*
X11230000Y-9850294D01*
X11230000Y-10060294D02*
X11270000Y-10100294D01*
X11270000Y-10060294D02*
X11230000Y-10100294D01*
X11230000Y-10310294D02*
X11270000Y-10350294D01*
X11270000Y-10310294D02*
X11230000Y-10350294D01*
X11230000Y-10560294D02*
X11270000Y-10600294D01*
X11270000Y-10560294D02*
X11230000Y-10600294D01*
X11480000Y-5560294D02*
X11520000Y-5600294D01*
X11520000Y-5560294D02*
X11480000Y-5600294D01*
X11480000Y-6310294D02*
X11520000Y-6350294D01*
X11520000Y-6310294D02*
X11480000Y-6350294D01*
X11480000Y-6560294D02*
X11520000Y-6600294D01*
X11520000Y-6560294D02*
X11480000Y-6600294D01*
X11480000Y-9310294D02*
X11520000Y-9350294D01*
X11520000Y-9310294D02*
X11480000Y-9350294D01*
X11480000Y-10560294D02*
X11520000Y-10600294D01*
X11520000Y-10560294D02*
X11480000Y-10600294D01*
X11630000Y-6860294D02*
X11670000Y-6900294D01*
X11670000Y-6860294D02*
X11630000Y-6900294D01*
X11630000Y-7485294D02*
X11670000Y-7525294D01*
X11670000Y-7485294D02*
X11630000Y-7525294D01*
X11730000Y-5560294D02*
X11770000Y-5600294D01*
X11770000Y-5560294D02*
X11730000Y-5600294D01*
X11730000Y-5810294D02*
X11770000Y-5850294D01*
X11770000Y-5810294D02*
X11730000Y-5850294D01*
X11730000Y-6060294D02*
X11770000Y-6100294D01*
X11770000Y-6060294D02*
X11730000Y-6100294D01*
X11730000Y-6310294D02*
X11770000Y-6350294D01*
X11770000Y-6310294D02*
X11730000Y-6350294D01*
X11730000Y-6560294D02*
X11770000Y-6600294D01*
X11770000Y-6560294D02*
X11730000Y-6600294D01*
X11730000Y-9310294D02*
X11770000Y-9350294D01*
X11770000Y-9310294D02*
X11730000Y-9350294D01*
X11730000Y-9560294D02*
X11770000Y-9600294D01*
X11770000Y-9560294D02*
X11730000Y-9600294D01*
X11730000Y-9810294D02*
X11770000Y-9850294D01*
X11770000Y-9810294D02*
X11730000Y-9850294D01*
X11730000Y-10060294D02*
X11770000Y-10100294D01*
X11770000Y-10060294D02*
X11730000Y-10100294D01*
X11730000Y-10310294D02*
X11770000Y-10350294D01*
X11770000Y-10310294D02*
X11730000Y-10350294D01*
D13*
X4135000Y-6330294D02*
G75*
G03*
X4135000Y-6330294I-25000J0D01*
G01*
X4135000Y-9730294D02*
G75*
G03*
X4135000Y-9730294I-25000J0D01*
G01*
X4205294Y-6160589D02*
G75*
G03*
X4205294Y-6160589I-25000J0D01*
G01*
X4205294Y-6500000D02*
G75*
G03*
X4205294Y-6500000I-25000J0D01*
G01*
X4205294Y-9560589D02*
G75*
G03*
X4205294Y-9560589I-25000J0D01*
G01*
X4205294Y-9900000D02*
G75*
G03*
X4205294Y-9900000I-25000J0D01*
G01*
X4375000Y-6090294D02*
G75*
G03*
X4375000Y-6090294I-25000J0D01*
G01*
X4375000Y-6570294D02*
G75*
G03*
X4375000Y-6570294I-25000J0D01*
G01*
X4375000Y-9490294D02*
G75*
G03*
X4375000Y-9490294I-25000J0D01*
G01*
X4375000Y-9970294D02*
G75*
G03*
X4375000Y-9970294I-25000J0D01*
G01*
X4544706Y-6160589D02*
G75*
G03*
X4544706Y-6160589I-25000J0D01*
G01*
X4544706Y-6500000D02*
G75*
G03*
X4544706Y-6500000I-25000J0D01*
G01*
X4544706Y-9560589D02*
G75*
G03*
X4544706Y-9560589I-25000J0D01*
G01*
X4544706Y-9900000D02*
G75*
G03*
X4544706Y-9900000I-25000J0D01*
G01*
X4615000Y-6330294D02*
G75*
G03*
X4615000Y-6330294I-25000J0D01*
G01*
X4615000Y-9730294D02*
G75*
G03*
X4615000Y-9730294I-25000J0D01*
G01*
X8985000Y-5830294D02*
G75*
G03*
X8985000Y-5830294I-25000J0D01*
G01*
X8985000Y-10230294D02*
G75*
G03*
X8985000Y-10230294I-25000J0D01*
G01*
X9055294Y-5660589D02*
G75*
G03*
X9055294Y-5660589I-25000J0D01*
G01*
X9055294Y-6000000D02*
G75*
G03*
X9055294Y-6000000I-25000J0D01*
G01*
X9055294Y-10060589D02*
G75*
G03*
X9055294Y-10060589I-25000J0D01*
G01*
X9055294Y-10400000D02*
G75*
G03*
X9055294Y-10400000I-25000J0D01*
G01*
X9225000Y-5590294D02*
G75*
G03*
X9225000Y-5590294I-25000J0D01*
G01*
X9225000Y-6070294D02*
G75*
G03*
X9225000Y-6070294I-25000J0D01*
G01*
X9225000Y-9990294D02*
G75*
G03*
X9225000Y-9990294I-25000J0D01*
G01*
X9225000Y-10470294D02*
G75*
G03*
X9225000Y-10470294I-25000J0D01*
G01*
X9394706Y-5660589D02*
G75*
G03*
X9394706Y-5660589I-25000J0D01*
G01*
X9394706Y-6000000D02*
G75*
G03*
X9394706Y-6000000I-25000J0D01*
G01*
X9394706Y-10060589D02*
G75*
G03*
X9394706Y-10060589I-25000J0D01*
G01*
X9394706Y-10400000D02*
G75*
G03*
X9394706Y-10400000I-25000J0D01*
G01*
X9465000Y-5830294D02*
G75*
G03*
X9465000Y-5830294I-25000J0D01*
G01*
X9465000Y-10230294D02*
G75*
G03*
X9465000Y-10230294I-25000J0D01*
G01*
X9935000Y-5830294D02*
G75*
G03*
X9935000Y-5830294I-25000J0D01*
G01*
X9935000Y-10230294D02*
G75*
G03*
X9935000Y-10230294I-25000J0D01*
G01*
X10005294Y-5660589D02*
G75*
G03*
X10005294Y-5660589I-25000J0D01*
G01*
X10005294Y-6000000D02*
G75*
G03*
X10005294Y-6000000I-25000J0D01*
G01*
X10005294Y-10060589D02*
G75*
G03*
X10005294Y-10060589I-25000J0D01*
G01*
X10005294Y-10400000D02*
G75*
G03*
X10005294Y-10400000I-25000J0D01*
G01*
X10175000Y-5590294D02*
G75*
G03*
X10175000Y-5590294I-25000J0D01*
G01*
X10175000Y-6070294D02*
G75*
G03*
X10175000Y-6070294I-25000J0D01*
G01*
X10175000Y-9990294D02*
G75*
G03*
X10175000Y-9990294I-25000J0D01*
G01*
X10175000Y-10470294D02*
G75*
G03*
X10175000Y-10470294I-25000J0D01*
G01*
X10344706Y-5660589D02*
G75*
G03*
X10344706Y-5660589I-25000J0D01*
G01*
X10344706Y-6000000D02*
G75*
G03*
X10344706Y-6000000I-25000J0D01*
G01*
X10344706Y-10060589D02*
G75*
G03*
X10344706Y-10060589I-25000J0D01*
G01*
X10344706Y-10400000D02*
G75*
G03*
X10344706Y-10400000I-25000J0D01*
G01*
X10415000Y-5830294D02*
G75*
G03*
X10415000Y-5830294I-25000J0D01*
G01*
X10415000Y-10230294D02*
G75*
G03*
X10415000Y-10230294I-25000J0D01*
G01*
X10635000Y-6330294D02*
G75*
G03*
X10635000Y-6330294I-25000J0D01*
G01*
X10635000Y-9730294D02*
G75*
G03*
X10635000Y-9730294I-25000J0D01*
G01*
X10705294Y-6160589D02*
G75*
G03*
X10705294Y-6160589I-25000J0D01*
G01*
X10705294Y-6500000D02*
G75*
G03*
X10705294Y-6500000I-25000J0D01*
G01*
X10705294Y-9560589D02*
G75*
G03*
X10705294Y-9560589I-25000J0D01*
G01*
X10705294Y-9900000D02*
G75*
G03*
X10705294Y-9900000I-25000J0D01*
G01*
X10875000Y-6090294D02*
G75*
G03*
X10875000Y-6090294I-25000J0D01*
G01*
X10875000Y-6570294D02*
G75*
G03*
X10875000Y-6570294I-25000J0D01*
G01*
X10875000Y-9490294D02*
G75*
G03*
X10875000Y-9490294I-25000J0D01*
G01*
X10875000Y-9970294D02*
G75*
G03*
X10875000Y-9970294I-25000J0D01*
G01*
X11044706Y-6160589D02*
G75*
G03*
X11044706Y-6160589I-25000J0D01*
G01*
X11044706Y-6500000D02*
G75*
G03*
X11044706Y-6500000I-25000J0D01*
G01*
X11044706Y-9560589D02*
G75*
G03*
X11044706Y-9560589I-25000J0D01*
G01*
X11044706Y-9900000D02*
G75*
G03*
X11044706Y-9900000I-25000J0D01*
G01*
X11115000Y-6330294D02*
G75*
G03*
X11115000Y-6330294I-25000J0D01*
G01*
X11115000Y-9730294D02*
G75*
G03*
X11115000Y-9730294I-25000J0D01*
G01*
X11135000Y-7180294D02*
G75*
G03*
X11135000Y-7180294I-25000J0D01*
G01*
X11135000Y-8030294D02*
G75*
G03*
X11135000Y-8030294I-25000J0D01*
G01*
X11135000Y-8880294D02*
G75*
G03*
X11135000Y-8880294I-25000J0D01*
G01*
X11205294Y-7010589D02*
G75*
G03*
X11205294Y-7010589I-25000J0D01*
G01*
X11205294Y-7350000D02*
G75*
G03*
X11205294Y-7350000I-25000J0D01*
G01*
X11205294Y-7860589D02*
G75*
G03*
X11205294Y-7860589I-25000J0D01*
G01*
X11205294Y-8200000D02*
G75*
G03*
X11205294Y-8200000I-25000J0D01*
G01*
X11205294Y-8710589D02*
G75*
G03*
X11205294Y-8710589I-25000J0D01*
G01*
X11205294Y-9050000D02*
G75*
G03*
X11205294Y-9050000I-25000J0D01*
G01*
X11375000Y-6940294D02*
G75*
G03*
X11375000Y-6940294I-25000J0D01*
G01*
X11375000Y-7420294D02*
G75*
G03*
X11375000Y-7420294I-25000J0D01*
G01*
X11375000Y-7790294D02*
G75*
G03*
X11375000Y-7790294I-25000J0D01*
G01*
X11375000Y-8270294D02*
G75*
G03*
X11375000Y-8270294I-25000J0D01*
G01*
X11375000Y-8640294D02*
G75*
G03*
X11375000Y-8640294I-25000J0D01*
G01*
X11375000Y-9120294D02*
G75*
G03*
X11375000Y-9120294I-25000J0D01*
G01*
X11544706Y-7010589D02*
G75*
G03*
X11544706Y-7010589I-25000J0D01*
G01*
X11544706Y-7350000D02*
G75*
G03*
X11544706Y-7350000I-25000J0D01*
G01*
X11544706Y-7860589D02*
G75*
G03*
X11544706Y-7860589I-25000J0D01*
G01*
X11544706Y-8200000D02*
G75*
G03*
X11544706Y-8200000I-25000J0D01*
G01*
X11544706Y-8710589D02*
G75*
G03*
X11544706Y-8710589I-25000J0D01*
G01*
X11544706Y-9050000D02*
G75*
G03*
X11544706Y-9050000I-25000J0D01*
G01*
X11615000Y-7180294D02*
G75*
G03*
X11615000Y-7180294I-25000J0D01*
G01*
X11615000Y-8030294D02*
G75*
G03*
X11615000Y-8030294I-25000J0D01*
G01*
X11615000Y-8880294D02*
G75*
G03*
X11615000Y-8880294I-25000J0D01*
G01*
D10*
X8550000Y-7656294D02*
X8550000Y-7756294D01*
X8500000Y-7706294D02*
X8600000Y-7706294D01*
X8550000Y-7910294D02*
X8550000Y-8010294D01*
X8500000Y-7960294D02*
X8600000Y-7960294D01*
X9000000Y-7102294D02*
X9000000Y-7202294D01*
X8950000Y-7152294D02*
X9050000Y-7152294D01*
X9000000Y-7356294D02*
X9000000Y-7456294D01*
X8950000Y-7406294D02*
X9050000Y-7406294D01*
X9000000Y-7610294D02*
X9000000Y-7710294D01*
X8950000Y-7660294D02*
X9050000Y-7660294D01*
X9000000Y-7864294D02*
X9000000Y-7964294D01*
X8950000Y-7914294D02*
X9050000Y-7914294D01*
X9000000Y-8118294D02*
X9000000Y-8218294D01*
X8950000Y-8168294D02*
X9050000Y-8168294D01*
X9000000Y-8372294D02*
X9000000Y-8472294D01*
X8950000Y-8422294D02*
X9050000Y-8422294D01*
X9000000Y-8626294D02*
X9000000Y-8726294D01*
X8950000Y-8676294D02*
X9050000Y-8676294D01*
X9000000Y-8880294D02*
X9000000Y-8980294D01*
X8950000Y-8930294D02*
X9050000Y-8930294D01*
X9508000Y-7229294D02*
X9508000Y-7329294D01*
X9458000Y-7279294D02*
X9558000Y-7279294D01*
X9508000Y-7483294D02*
X9508000Y-7583294D01*
X9458000Y-7533294D02*
X9558000Y-7533294D01*
X9508000Y-7737294D02*
X9508000Y-7837294D01*
X9458000Y-7787294D02*
X9558000Y-7787294D01*
X9508000Y-7991294D02*
X9508000Y-8091294D01*
X9458000Y-8041294D02*
X9558000Y-8041294D01*
X9508000Y-8245294D02*
X9508000Y-8345294D01*
X9458000Y-8295294D02*
X9558000Y-8295294D01*
X9508000Y-8499294D02*
X9508000Y-8599294D01*
X9458000Y-8549294D02*
X9558000Y-8549294D01*
X9508000Y-8753294D02*
X9508000Y-8853294D01*
X9458000Y-8803294D02*
X9558000Y-8803294D01*
X9800000Y-6530294D02*
X9800000Y-6630294D01*
X9750000Y-6580294D02*
X9850000Y-6580294D01*
X10054000Y-6530294D02*
X10054000Y-6630294D01*
X10004000Y-6580294D02*
X10104000Y-6580294D01*
X10308000Y-6530294D02*
X10308000Y-6630294D01*
X10258000Y-6580294D02*
X10358000Y-6580294D01*
D14*
X3744073Y-6930368D02*
X3744073Y-6846221D01*
X3659927Y-6846221D01*
X3659927Y-6930368D01*
X3744073Y-6930368D01*
X3744073Y-7184368D02*
X3744073Y-7100221D01*
X3659927Y-7100221D01*
X3659927Y-7184368D01*
X3744073Y-7184368D01*
X3744073Y-7438368D02*
X3744073Y-7354221D01*
X3659927Y-7354221D01*
X3659927Y-7438368D01*
X3744073Y-7438368D01*
X3744073Y-7692368D02*
X3744073Y-7608221D01*
X3659927Y-7608221D01*
X3659927Y-7692368D01*
X3744073Y-7692368D01*
X3744073Y-8462368D02*
X3744073Y-8378221D01*
X3659927Y-8378221D01*
X3659927Y-8462368D01*
X3744073Y-8462368D01*
X3744073Y-8716368D02*
X3744073Y-8632221D01*
X3659927Y-8632221D01*
X3659927Y-8716368D01*
X3744073Y-8716368D01*
X3744073Y-8970368D02*
X3744073Y-8886221D01*
X3659927Y-8886221D01*
X3659927Y-8970368D01*
X3744073Y-8970368D01*
X3744073Y-9224368D02*
X3744073Y-9140221D01*
X3659927Y-9140221D01*
X3659927Y-9224368D01*
X3744073Y-9224368D01*
X4959073Y-5872368D02*
X4959073Y-5788221D01*
X4874927Y-5788221D01*
X4874927Y-5872368D01*
X4959073Y-5872368D01*
X4959073Y-6772368D02*
X4959073Y-6688221D01*
X4874927Y-6688221D01*
X4874927Y-6772368D01*
X4959073Y-6772368D01*
X4959073Y-7672368D02*
X4959073Y-7588221D01*
X4874927Y-7588221D01*
X4874927Y-7672368D01*
X4959073Y-7672368D01*
X4959073Y-8572368D02*
X4959073Y-8488221D01*
X4874927Y-8488221D01*
X4874927Y-8572368D01*
X4959073Y-8572368D01*
X4959073Y-9472368D02*
X4959073Y-9388221D01*
X4874927Y-9388221D01*
X4874927Y-9472368D01*
X4959073Y-9472368D01*
X4959073Y-10372368D02*
X4959073Y-10288221D01*
X4874927Y-10288221D01*
X4874927Y-10372368D01*
X4959073Y-10372368D01*
X5213073Y-5872368D02*
X5213073Y-5788221D01*
X5128927Y-5788221D01*
X5128927Y-5872368D01*
X5213073Y-5872368D01*
X5213073Y-6772368D02*
X5213073Y-6688221D01*
X5128927Y-6688221D01*
X5128927Y-6772368D01*
X5213073Y-6772368D01*
X5213073Y-7672368D02*
X5213073Y-7588221D01*
X5128927Y-7588221D01*
X5128927Y-7672368D01*
X5213073Y-7672368D01*
X5213073Y-8572368D02*
X5213073Y-8488221D01*
X5128927Y-8488221D01*
X5128927Y-8572368D01*
X5213073Y-8572368D01*
X5213073Y-9472368D02*
X5213073Y-9388221D01*
X5128927Y-9388221D01*
X5128927Y-9472368D01*
X5213073Y-9472368D01*
X5213073Y-10372368D02*
X5213073Y-10288221D01*
X5128927Y-10288221D01*
X5128927Y-10372368D01*
X5213073Y-10372368D01*
X5467073Y-5872368D02*
X5467073Y-5788221D01*
X5382927Y-5788221D01*
X5382927Y-5872368D01*
X5467073Y-5872368D01*
X5467073Y-6772368D02*
X5467073Y-6688221D01*
X5382927Y-6688221D01*
X5382927Y-6772368D01*
X5467073Y-6772368D01*
X5467073Y-7672368D02*
X5467073Y-7588221D01*
X5382927Y-7588221D01*
X5382927Y-7672368D01*
X5467073Y-7672368D01*
X5467073Y-8572368D02*
X5467073Y-8488221D01*
X5382927Y-8488221D01*
X5382927Y-8572368D01*
X5467073Y-8572368D01*
X5467073Y-9472368D02*
X5467073Y-9388221D01*
X5382927Y-9388221D01*
X5382927Y-9472368D01*
X5467073Y-9472368D01*
X5467073Y-10372368D02*
X5467073Y-10288221D01*
X5382927Y-10288221D01*
X5382927Y-10372368D01*
X5467073Y-10372368D01*
X5721073Y-5872368D02*
X5721073Y-5788221D01*
X5636927Y-5788221D01*
X5636927Y-5872368D01*
X5721073Y-5872368D01*
X5721073Y-6772368D02*
X5721073Y-6688221D01*
X5636927Y-6688221D01*
X5636927Y-6772368D01*
X5721073Y-6772368D01*
X5721073Y-7672368D02*
X5721073Y-7588221D01*
X5636927Y-7588221D01*
X5636927Y-7672368D01*
X5721073Y-7672368D01*
X5721073Y-8572368D02*
X5721073Y-8488221D01*
X5636927Y-8488221D01*
X5636927Y-8572368D01*
X5721073Y-8572368D01*
X5721073Y-9472368D02*
X5721073Y-9388221D01*
X5636927Y-9388221D01*
X5636927Y-9472368D01*
X5721073Y-9472368D01*
X5721073Y-10372368D02*
X5721073Y-10288221D01*
X5636927Y-10288221D01*
X5636927Y-10372368D01*
X5721073Y-10372368D01*
D15*
X10111000Y-9017294D02*
X10186000Y-8942294D01*
X10111000Y-8867294D01*
X10036000Y-8942294D01*
X10111000Y-9017294D01*
X10121000Y-7217294D02*
X10196000Y-7142294D01*
X10121000Y-7067294D01*
X10046000Y-7142294D01*
X10121000Y-7217294D01*
D16*
X4190000Y-6170294D02*
X4510000Y-6490294D01*
X4510000Y-6170294D02*
X4190000Y-6490294D01*
X4510000Y-6330294D02*
G75*
G03*
X4510000Y-6330294I-160000J0D01*
G01*
X4190000Y-9570294D02*
X4510000Y-9890294D01*
X4510000Y-9570294D02*
X4190000Y-9890294D01*
X4510000Y-9730294D02*
G75*
G03*
X4510000Y-9730294I-160000J0D01*
G01*
X9040000Y-5670294D02*
X9360000Y-5990294D01*
X9360000Y-5670294D02*
X9040000Y-5990294D01*
X9360000Y-5830294D02*
G75*
G03*
X9360000Y-5830294I-160000J0D01*
G01*
X9040000Y-10070294D02*
X9360000Y-10390294D01*
X9360000Y-10070294D02*
X9040000Y-10390294D01*
X9360000Y-10230294D02*
G75*
G03*
X9360000Y-10230294I-160000J0D01*
G01*
X9990000Y-5670294D02*
X10310000Y-5990294D01*
X10310000Y-5670294D02*
X9990000Y-5990294D01*
X10310000Y-5830294D02*
G75*
G03*
X10310000Y-5830294I-160000J0D01*
G01*
X9990000Y-10070294D02*
X10310000Y-10390294D01*
X10310000Y-10070294D02*
X9990000Y-10390294D01*
X10310000Y-10230294D02*
G75*
G03*
X10310000Y-10230294I-160000J0D01*
G01*
X10690000Y-6170294D02*
X11010000Y-6490294D01*
X11010000Y-6170294D02*
X10690000Y-6490294D01*
X11010000Y-6330294D02*
G75*
G03*
X11010000Y-6330294I-160000J0D01*
G01*
X10690000Y-9570294D02*
X11010000Y-9890294D01*
X11010000Y-9570294D02*
X10690000Y-9890294D01*
X11010000Y-9730294D02*
G75*
G03*
X11010000Y-9730294I-160000J0D01*
G01*
X11190000Y-7020294D02*
X11510000Y-7340294D01*
X11510000Y-7020294D02*
X11190000Y-7340294D01*
X11510000Y-7180294D02*
G75*
G03*
X11510000Y-7180294I-160000J0D01*
G01*
X11190000Y-7870294D02*
X11510000Y-8190294D01*
X11510000Y-7870294D02*
X11190000Y-8190294D01*
X11510000Y-8030294D02*
G75*
G03*
X11510000Y-8030294I-160000J0D01*
G01*
X11190000Y-8720294D02*
X11510000Y-9040294D01*
X11510000Y-8720294D02*
X11190000Y-9040294D01*
X11510000Y-8880294D02*
G75*
G03*
X11510000Y-8880294I-160000J0D01*
G01*
D11*
X3605777Y-11046778D02*
X3605777Y-10846778D01*
X3605777Y-10846778D02*
X3653396Y-10846778D01*
X3653396Y-10846778D02*
X3681967Y-10856302D01*
X3681967Y-10856302D02*
X3701015Y-10875350D01*
X3701015Y-10875350D02*
X3710539Y-10894397D01*
X3710539Y-10894397D02*
X3720062Y-10932492D01*
X3720062Y-10932492D02*
X3720062Y-10961064D01*
X3720062Y-10961064D02*
X3710539Y-10999159D01*
X3710539Y-10999159D02*
X3701015Y-11018207D01*
X3701015Y-11018207D02*
X3681967Y-11037254D01*
X3681967Y-11037254D02*
X3653396Y-11046778D01*
X3653396Y-11046778D02*
X3605777Y-11046778D01*
X3805777Y-11046778D02*
X3805777Y-10913445D01*
X3805777Y-10951540D02*
X3815301Y-10932492D01*
X3815301Y-10932492D02*
X3824824Y-10922969D01*
X3824824Y-10922969D02*
X3843872Y-10913445D01*
X3843872Y-10913445D02*
X3862920Y-10913445D01*
X3929586Y-11046778D02*
X3929586Y-10913445D01*
X3929586Y-10846778D02*
X3920062Y-10856302D01*
X3920062Y-10856302D02*
X3929586Y-10865826D01*
X3929586Y-10865826D02*
X3939110Y-10856302D01*
X3939110Y-10856302D02*
X3929586Y-10846778D01*
X3929586Y-10846778D02*
X3929586Y-10865826D01*
X4053396Y-11046778D02*
X4034348Y-11037254D01*
X4034348Y-11037254D02*
X4024824Y-11018207D01*
X4024824Y-11018207D02*
X4024824Y-10846778D01*
X4158158Y-11046778D02*
X4139110Y-11037254D01*
X4139110Y-11037254D02*
X4129586Y-11018207D01*
X4129586Y-11018207D02*
X4129586Y-10846778D01*
X4386729Y-11046778D02*
X4386729Y-10846778D01*
X4386729Y-10846778D02*
X4453396Y-10989635D01*
X4453396Y-10989635D02*
X4520063Y-10846778D01*
X4520063Y-10846778D02*
X4520063Y-11046778D01*
X4701015Y-11046778D02*
X4701015Y-10942016D01*
X4701015Y-10942016D02*
X4691491Y-10922969D01*
X4691491Y-10922969D02*
X4672444Y-10913445D01*
X4672444Y-10913445D02*
X4634348Y-10913445D01*
X4634348Y-10913445D02*
X4615301Y-10922969D01*
X4701015Y-11037254D02*
X4681967Y-11046778D01*
X4681967Y-11046778D02*
X4634348Y-11046778D01*
X4634348Y-11046778D02*
X4615301Y-11037254D01*
X4615301Y-11037254D02*
X4605777Y-11018207D01*
X4605777Y-11018207D02*
X4605777Y-10999159D01*
X4605777Y-10999159D02*
X4615301Y-10980112D01*
X4615301Y-10980112D02*
X4634348Y-10970588D01*
X4634348Y-10970588D02*
X4681967Y-10970588D01*
X4681967Y-10970588D02*
X4701015Y-10961064D01*
X4796253Y-10913445D02*
X4796253Y-11113445D01*
X4796253Y-10922969D02*
X4815301Y-10913445D01*
X4815301Y-10913445D02*
X4853396Y-10913445D01*
X4853396Y-10913445D02*
X4872444Y-10922969D01*
X4872444Y-10922969D02*
X4881967Y-10932492D01*
X4881967Y-10932492D02*
X4891491Y-10951540D01*
X4891491Y-10951540D02*
X4891491Y-11008683D01*
X4891491Y-11008683D02*
X4881967Y-11027731D01*
X4881967Y-11027731D02*
X4872444Y-11037254D01*
X4872444Y-11037254D02*
X4853396Y-11046778D01*
X4853396Y-11046778D02*
X4815301Y-11046778D01*
X4815301Y-11046778D02*
X4796253Y-11037254D01*
X4977205Y-11027731D02*
X4986729Y-11037254D01*
X4986729Y-11037254D02*
X4977205Y-11046778D01*
X4977205Y-11046778D02*
X4967682Y-11037254D01*
X4967682Y-11037254D02*
X4977205Y-11027731D01*
X4977205Y-11027731D02*
X4977205Y-11046778D01*
X4977205Y-10922969D02*
X4986729Y-10932492D01*
X4986729Y-10932492D02*
X4977205Y-10942016D01*
X4977205Y-10942016D02*
X4967682Y-10932492D01*
X4967682Y-10932492D02*
X4977205Y-10922969D01*
X4977205Y-10922969D02*
X4977205Y-10942016D01*
D12*
X3305000Y-11355294D02*
X3345000Y-11395294D01*
X3345000Y-11355294D02*
X3305000Y-11395294D01*
D11*
X3643872Y-11266778D02*
X3662920Y-11266778D01*
X3662920Y-11266778D02*
X3681967Y-11276302D01*
X3681967Y-11276302D02*
X3691491Y-11285826D01*
X3691491Y-11285826D02*
X3701015Y-11304873D01*
X3701015Y-11304873D02*
X3710539Y-11342969D01*
X3710539Y-11342969D02*
X3710539Y-11390588D01*
X3710539Y-11390588D02*
X3701015Y-11428683D01*
X3701015Y-11428683D02*
X3691491Y-11447730D01*
X3691491Y-11447730D02*
X3681967Y-11457254D01*
X3681967Y-11457254D02*
X3662920Y-11466778D01*
X3662920Y-11466778D02*
X3643872Y-11466778D01*
X3643872Y-11466778D02*
X3624824Y-11457254D01*
X3624824Y-11457254D02*
X3615301Y-11447730D01*
X3615301Y-11447730D02*
X3605777Y-11428683D01*
X3605777Y-11428683D02*
X3596253Y-11390588D01*
X3596253Y-11390588D02*
X3596253Y-11342969D01*
X3596253Y-11342969D02*
X3605777Y-11304873D01*
X3605777Y-11304873D02*
X3615301Y-11285826D01*
X3615301Y-11285826D02*
X3624824Y-11276302D01*
X3624824Y-11276302D02*
X3643872Y-11266778D01*
X3796253Y-11447730D02*
X3805777Y-11457254D01*
X3805777Y-11457254D02*
X3796253Y-11466778D01*
X3796253Y-11466778D02*
X3786729Y-11457254D01*
X3786729Y-11457254D02*
X3796253Y-11447730D01*
X3796253Y-11447730D02*
X3796253Y-11466778D01*
X3977205Y-11333445D02*
X3977205Y-11466778D01*
X3929586Y-11257254D02*
X3881967Y-11400111D01*
X3881967Y-11400111D02*
X4005777Y-11400111D01*
X4120062Y-11266778D02*
X4139110Y-11266778D01*
X4139110Y-11266778D02*
X4158158Y-11276302D01*
X4158158Y-11276302D02*
X4167682Y-11285826D01*
X4167682Y-11285826D02*
X4177205Y-11304873D01*
X4177205Y-11304873D02*
X4186729Y-11342969D01*
X4186729Y-11342969D02*
X4186729Y-11390588D01*
X4186729Y-11390588D02*
X4177205Y-11428683D01*
X4177205Y-11428683D02*
X4167682Y-11447730D01*
X4167682Y-11447730D02*
X4158158Y-11457254D01*
X4158158Y-11457254D02*
X4139110Y-11466778D01*
X4139110Y-11466778D02*
X4120062Y-11466778D01*
X4120062Y-11466778D02*
X4101015Y-11457254D01*
X4101015Y-11457254D02*
X4091491Y-11447730D01*
X4091491Y-11447730D02*
X4081967Y-11428683D01*
X4081967Y-11428683D02*
X4072443Y-11390588D01*
X4072443Y-11390588D02*
X4072443Y-11342969D01*
X4072443Y-11342969D02*
X4081967Y-11304873D01*
X4081967Y-11304873D02*
X4091491Y-11285826D01*
X4091491Y-11285826D02*
X4101015Y-11276302D01*
X4101015Y-11276302D02*
X4120062Y-11266778D01*
X4310539Y-11266778D02*
X4329586Y-11266778D01*
X4329586Y-11266778D02*
X4348634Y-11276302D01*
X4348634Y-11276302D02*
X4358158Y-11285826D01*
X4358158Y-11285826D02*
X4367682Y-11304873D01*
X4367682Y-11304873D02*
X4377205Y-11342969D01*
X4377205Y-11342969D02*
X4377205Y-11390588D01*
X4377205Y-11390588D02*
X4367682Y-11428683D01*
X4367682Y-11428683D02*
X4358158Y-11447730D01*
X4358158Y-11447730D02*
X4348634Y-11457254D01*
X4348634Y-11457254D02*
X4329586Y-11466778D01*
X4329586Y-11466778D02*
X4310539Y-11466778D01*
X4310539Y-11466778D02*
X4291491Y-11457254D01*
X4291491Y-11457254D02*
X4281967Y-11447730D01*
X4281967Y-11447730D02*
X4272444Y-11428683D01*
X4272444Y-11428683D02*
X4262920Y-11390588D01*
X4262920Y-11390588D02*
X4262920Y-11342969D01*
X4262920Y-11342969D02*
X4272444Y-11304873D01*
X4272444Y-11304873D02*
X4281967Y-11285826D01*
X4281967Y-11285826D02*
X4291491Y-11276302D01*
X4291491Y-11276302D02*
X4310539Y-11266778D01*
X4462920Y-11466778D02*
X4462920Y-11333445D01*
X4462920Y-11352492D02*
X4472444Y-11342969D01*
X4472444Y-11342969D02*
X4491491Y-11333445D01*
X4491491Y-11333445D02*
X4520063Y-11333445D01*
X4520063Y-11333445D02*
X4539110Y-11342969D01*
X4539110Y-11342969D02*
X4548634Y-11362016D01*
X4548634Y-11362016D02*
X4548634Y-11466778D01*
X4548634Y-11362016D02*
X4558158Y-11342969D01*
X4558158Y-11342969D02*
X4577205Y-11333445D01*
X4577205Y-11333445D02*
X4605777Y-11333445D01*
X4605777Y-11333445D02*
X4624825Y-11342969D01*
X4624825Y-11342969D02*
X4634348Y-11362016D01*
X4634348Y-11362016D02*
X4634348Y-11466778D01*
X4729586Y-11466778D02*
X4729586Y-11333445D01*
X4729586Y-11352492D02*
X4739110Y-11342969D01*
X4739110Y-11342969D02*
X4758158Y-11333445D01*
X4758158Y-11333445D02*
X4786729Y-11333445D01*
X4786729Y-11333445D02*
X4805777Y-11342969D01*
X4805777Y-11342969D02*
X4815301Y-11362016D01*
X4815301Y-11362016D02*
X4815301Y-11466778D01*
X4815301Y-11362016D02*
X4824825Y-11342969D01*
X4824825Y-11342969D02*
X4843872Y-11333445D01*
X4843872Y-11333445D02*
X4872444Y-11333445D01*
X4872444Y-11333445D02*
X4891491Y-11342969D01*
X4891491Y-11342969D02*
X4901015Y-11362016D01*
X4901015Y-11362016D02*
X4901015Y-11466778D01*
X5291491Y-11257254D02*
X5120063Y-11514397D01*
X5548634Y-11266778D02*
X5567682Y-11266778D01*
X5567682Y-11266778D02*
X5586729Y-11276302D01*
X5586729Y-11276302D02*
X5596253Y-11285826D01*
X5596253Y-11285826D02*
X5605777Y-11304873D01*
X5605777Y-11304873D02*
X5615301Y-11342969D01*
X5615301Y-11342969D02*
X5615301Y-11390588D01*
X5615301Y-11390588D02*
X5605777Y-11428683D01*
X5605777Y-11428683D02*
X5596253Y-11447730D01*
X5596253Y-11447730D02*
X5586729Y-11457254D01*
X5586729Y-11457254D02*
X5567682Y-11466778D01*
X5567682Y-11466778D02*
X5548634Y-11466778D01*
X5548634Y-11466778D02*
X5529587Y-11457254D01*
X5529587Y-11457254D02*
X5520063Y-11447730D01*
X5520063Y-11447730D02*
X5510539Y-11428683D01*
X5510539Y-11428683D02*
X5501015Y-11390588D01*
X5501015Y-11390588D02*
X5501015Y-11342969D01*
X5501015Y-11342969D02*
X5510539Y-11304873D01*
X5510539Y-11304873D02*
X5520063Y-11285826D01*
X5520063Y-11285826D02*
X5529587Y-11276302D01*
X5529587Y-11276302D02*
X5548634Y-11266778D01*
X5701015Y-11447730D02*
X5710539Y-11457254D01*
X5710539Y-11457254D02*
X5701015Y-11466778D01*
X5701015Y-11466778D02*
X5691491Y-11457254D01*
X5691491Y-11457254D02*
X5701015Y-11447730D01*
X5701015Y-11447730D02*
X5701015Y-11466778D01*
X5834348Y-11266778D02*
X5853396Y-11266778D01*
X5853396Y-11266778D02*
X5872444Y-11276302D01*
X5872444Y-11276302D02*
X5881967Y-11285826D01*
X5881967Y-11285826D02*
X5891491Y-11304873D01*
X5891491Y-11304873D02*
X5901015Y-11342969D01*
X5901015Y-11342969D02*
X5901015Y-11390588D01*
X5901015Y-11390588D02*
X5891491Y-11428683D01*
X5891491Y-11428683D02*
X5881967Y-11447730D01*
X5881967Y-11447730D02*
X5872444Y-11457254D01*
X5872444Y-11457254D02*
X5853396Y-11466778D01*
X5853396Y-11466778D02*
X5834348Y-11466778D01*
X5834348Y-11466778D02*
X5815301Y-11457254D01*
X5815301Y-11457254D02*
X5805777Y-11447730D01*
X5805777Y-11447730D02*
X5796253Y-11428683D01*
X5796253Y-11428683D02*
X5786729Y-11390588D01*
X5786729Y-11390588D02*
X5786729Y-11342969D01*
X5786729Y-11342969D02*
X5796253Y-11304873D01*
X5796253Y-11304873D02*
X5805777Y-11285826D01*
X5805777Y-11285826D02*
X5815301Y-11276302D01*
X5815301Y-11276302D02*
X5834348Y-11266778D01*
X6091491Y-11466778D02*
X5977206Y-11466778D01*
X6034348Y-11466778D02*
X6034348Y-11266778D01*
X6034348Y-11266778D02*
X6015301Y-11295350D01*
X6015301Y-11295350D02*
X5996253Y-11314397D01*
X5996253Y-11314397D02*
X5977206Y-11323921D01*
X6272444Y-11266778D02*
X6177206Y-11266778D01*
X6177206Y-11266778D02*
X6167682Y-11362016D01*
X6167682Y-11362016D02*
X6177206Y-11352492D01*
X6177206Y-11352492D02*
X6196253Y-11342969D01*
X6196253Y-11342969D02*
X6243872Y-11342969D01*
X6243872Y-11342969D02*
X6262920Y-11352492D01*
X6262920Y-11352492D02*
X6272444Y-11362016D01*
X6272444Y-11362016D02*
X6281967Y-11381064D01*
X6281967Y-11381064D02*
X6281967Y-11428683D01*
X6281967Y-11428683D02*
X6272444Y-11447730D01*
X6272444Y-11447730D02*
X6262920Y-11457254D01*
X6262920Y-11457254D02*
X6243872Y-11466778D01*
X6243872Y-11466778D02*
X6196253Y-11466778D01*
X6196253Y-11466778D02*
X6177206Y-11457254D01*
X6177206Y-11457254D02*
X6167682Y-11447730D01*
X6348634Y-11266778D02*
X6481967Y-11266778D01*
X6481967Y-11266778D02*
X6396253Y-11466778D01*
X6548634Y-11266778D02*
X6548634Y-11304873D01*
X6624825Y-11266778D02*
X6624825Y-11304873D01*
X6920063Y-11542969D02*
X6910539Y-11533445D01*
X6910539Y-11533445D02*
X6891491Y-11504873D01*
X6891491Y-11504873D02*
X6881968Y-11485826D01*
X6881968Y-11485826D02*
X6872444Y-11457254D01*
X6872444Y-11457254D02*
X6862920Y-11409635D01*
X6862920Y-11409635D02*
X6862920Y-11371540D01*
X6862920Y-11371540D02*
X6872444Y-11323921D01*
X6872444Y-11323921D02*
X6881968Y-11295350D01*
X6881968Y-11295350D02*
X6891491Y-11276302D01*
X6891491Y-11276302D02*
X6910539Y-11247730D01*
X6910539Y-11247730D02*
X6920063Y-11238207D01*
X6986729Y-11285826D02*
X6996253Y-11276302D01*
X6996253Y-11276302D02*
X7015301Y-11266778D01*
X7015301Y-11266778D02*
X7062920Y-11266778D01*
X7062920Y-11266778D02*
X7081968Y-11276302D01*
X7081968Y-11276302D02*
X7091491Y-11285826D01*
X7091491Y-11285826D02*
X7101015Y-11304873D01*
X7101015Y-11304873D02*
X7101015Y-11323921D01*
X7101015Y-11323921D02*
X7091491Y-11352492D01*
X7091491Y-11352492D02*
X6977206Y-11466778D01*
X6977206Y-11466778D02*
X7101015Y-11466778D01*
X7224825Y-11266778D02*
X7243872Y-11266778D01*
X7243872Y-11266778D02*
X7262920Y-11276302D01*
X7262920Y-11276302D02*
X7272444Y-11285826D01*
X7272444Y-11285826D02*
X7281968Y-11304873D01*
X7281968Y-11304873D02*
X7291491Y-11342969D01*
X7291491Y-11342969D02*
X7291491Y-11390588D01*
X7291491Y-11390588D02*
X7281968Y-11428683D01*
X7281968Y-11428683D02*
X7272444Y-11447730D01*
X7272444Y-11447730D02*
X7262920Y-11457254D01*
X7262920Y-11457254D02*
X7243872Y-11466778D01*
X7243872Y-11466778D02*
X7224825Y-11466778D01*
X7224825Y-11466778D02*
X7205777Y-11457254D01*
X7205777Y-11457254D02*
X7196253Y-11447730D01*
X7196253Y-11447730D02*
X7186729Y-11428683D01*
X7186729Y-11428683D02*
X7177206Y-11390588D01*
X7177206Y-11390588D02*
X7177206Y-11342969D01*
X7177206Y-11342969D02*
X7186729Y-11304873D01*
X7186729Y-11304873D02*
X7196253Y-11285826D01*
X7196253Y-11285826D02*
X7205777Y-11276302D01*
X7205777Y-11276302D02*
X7224825Y-11266778D01*
X7481968Y-11466778D02*
X7367682Y-11466778D01*
X7424825Y-11466778D02*
X7424825Y-11266778D01*
X7424825Y-11266778D02*
X7405777Y-11295350D01*
X7405777Y-11295350D02*
X7386729Y-11314397D01*
X7386729Y-11314397D02*
X7367682Y-11323921D01*
X7720063Y-11466778D02*
X7720063Y-11266778D01*
X7805777Y-11466778D02*
X7805777Y-11362016D01*
X7805777Y-11362016D02*
X7796253Y-11342969D01*
X7796253Y-11342969D02*
X7777206Y-11333445D01*
X7777206Y-11333445D02*
X7748634Y-11333445D01*
X7748634Y-11333445D02*
X7729587Y-11342969D01*
X7729587Y-11342969D02*
X7720063Y-11352492D01*
X7929587Y-11466778D02*
X7910539Y-11457254D01*
X7910539Y-11457254D02*
X7901015Y-11447730D01*
X7901015Y-11447730D02*
X7891491Y-11428683D01*
X7891491Y-11428683D02*
X7891491Y-11371540D01*
X7891491Y-11371540D02*
X7901015Y-11352492D01*
X7901015Y-11352492D02*
X7910539Y-11342969D01*
X7910539Y-11342969D02*
X7929587Y-11333445D01*
X7929587Y-11333445D02*
X7958158Y-11333445D01*
X7958158Y-11333445D02*
X7977206Y-11342969D01*
X7977206Y-11342969D02*
X7986730Y-11352492D01*
X7986730Y-11352492D02*
X7996253Y-11371540D01*
X7996253Y-11371540D02*
X7996253Y-11428683D01*
X7996253Y-11428683D02*
X7986730Y-11447730D01*
X7986730Y-11447730D02*
X7977206Y-11457254D01*
X7977206Y-11457254D02*
X7958158Y-11466778D01*
X7958158Y-11466778D02*
X7929587Y-11466778D01*
X8110539Y-11466778D02*
X8091491Y-11457254D01*
X8091491Y-11457254D02*
X8081968Y-11438207D01*
X8081968Y-11438207D02*
X8081968Y-11266778D01*
X8262920Y-11457254D02*
X8243872Y-11466778D01*
X8243872Y-11466778D02*
X8205777Y-11466778D01*
X8205777Y-11466778D02*
X8186730Y-11457254D01*
X8186730Y-11457254D02*
X8177206Y-11438207D01*
X8177206Y-11438207D02*
X8177206Y-11362016D01*
X8177206Y-11362016D02*
X8186730Y-11342969D01*
X8186730Y-11342969D02*
X8205777Y-11333445D01*
X8205777Y-11333445D02*
X8243872Y-11333445D01*
X8243872Y-11333445D02*
X8262920Y-11342969D01*
X8262920Y-11342969D02*
X8272444Y-11362016D01*
X8272444Y-11362016D02*
X8272444Y-11381064D01*
X8272444Y-11381064D02*
X8177206Y-11400111D01*
X8348634Y-11457254D02*
X8367682Y-11466778D01*
X8367682Y-11466778D02*
X8405777Y-11466778D01*
X8405777Y-11466778D02*
X8424825Y-11457254D01*
X8424825Y-11457254D02*
X8434349Y-11438207D01*
X8434349Y-11438207D02*
X8434349Y-11428683D01*
X8434349Y-11428683D02*
X8424825Y-11409635D01*
X8424825Y-11409635D02*
X8405777Y-11400111D01*
X8405777Y-11400111D02*
X8377206Y-11400111D01*
X8377206Y-11400111D02*
X8358158Y-11390588D01*
X8358158Y-11390588D02*
X8348634Y-11371540D01*
X8348634Y-11371540D02*
X8348634Y-11362016D01*
X8348634Y-11362016D02*
X8358158Y-11342969D01*
X8358158Y-11342969D02*
X8377206Y-11333445D01*
X8377206Y-11333445D02*
X8405777Y-11333445D01*
X8405777Y-11333445D02*
X8424825Y-11342969D01*
X8501015Y-11542969D02*
X8510539Y-11533445D01*
X8510539Y-11533445D02*
X8529587Y-11504873D01*
X8529587Y-11504873D02*
X8539111Y-11485826D01*
X8539111Y-11485826D02*
X8548634Y-11457254D01*
X8548634Y-11457254D02*
X8558158Y-11409635D01*
X8558158Y-11409635D02*
X8558158Y-11371540D01*
X8558158Y-11371540D02*
X8548634Y-11323921D01*
X8548634Y-11323921D02*
X8539111Y-11295350D01*
X8539111Y-11295350D02*
X8529587Y-11276302D01*
X8529587Y-11276302D02*
X8510539Y-11247730D01*
X8510539Y-11247730D02*
X8501015Y-11238207D01*
D13*
X3345000Y-11639294D02*
G75*
G03*
X3345000Y-11639294I-25000J0D01*
G01*
D11*
X3643872Y-11530778D02*
X3662920Y-11530778D01*
X3662920Y-11530778D02*
X3681967Y-11540302D01*
X3681967Y-11540302D02*
X3691491Y-11549826D01*
X3691491Y-11549826D02*
X3701015Y-11568873D01*
X3701015Y-11568873D02*
X3710539Y-11606969D01*
X3710539Y-11606969D02*
X3710539Y-11654588D01*
X3710539Y-11654588D02*
X3701015Y-11692683D01*
X3701015Y-11692683D02*
X3691491Y-11711730D01*
X3691491Y-11711730D02*
X3681967Y-11721254D01*
X3681967Y-11721254D02*
X3662920Y-11730778D01*
X3662920Y-11730778D02*
X3643872Y-11730778D01*
X3643872Y-11730778D02*
X3624824Y-11721254D01*
X3624824Y-11721254D02*
X3615301Y-11711730D01*
X3615301Y-11711730D02*
X3605777Y-11692683D01*
X3605777Y-11692683D02*
X3596253Y-11654588D01*
X3596253Y-11654588D02*
X3596253Y-11606969D01*
X3596253Y-11606969D02*
X3605777Y-11568873D01*
X3605777Y-11568873D02*
X3615301Y-11549826D01*
X3615301Y-11549826D02*
X3624824Y-11540302D01*
X3624824Y-11540302D02*
X3643872Y-11530778D01*
X3796253Y-11711730D02*
X3805777Y-11721254D01*
X3805777Y-11721254D02*
X3796253Y-11730778D01*
X3796253Y-11730778D02*
X3786729Y-11721254D01*
X3786729Y-11721254D02*
X3796253Y-11711730D01*
X3796253Y-11711730D02*
X3796253Y-11730778D01*
X3986729Y-11530778D02*
X3891491Y-11530778D01*
X3891491Y-11530778D02*
X3881967Y-11626016D01*
X3881967Y-11626016D02*
X3891491Y-11616492D01*
X3891491Y-11616492D02*
X3910539Y-11606969D01*
X3910539Y-11606969D02*
X3958158Y-11606969D01*
X3958158Y-11606969D02*
X3977205Y-11616492D01*
X3977205Y-11616492D02*
X3986729Y-11626016D01*
X3986729Y-11626016D02*
X3996253Y-11645064D01*
X3996253Y-11645064D02*
X3996253Y-11692683D01*
X3996253Y-11692683D02*
X3986729Y-11711730D01*
X3986729Y-11711730D02*
X3977205Y-11721254D01*
X3977205Y-11721254D02*
X3958158Y-11730778D01*
X3958158Y-11730778D02*
X3910539Y-11730778D01*
X3910539Y-11730778D02*
X3891491Y-11721254D01*
X3891491Y-11721254D02*
X3881967Y-11711730D01*
X4120062Y-11530778D02*
X4139110Y-11530778D01*
X4139110Y-11530778D02*
X4158158Y-11540302D01*
X4158158Y-11540302D02*
X4167682Y-11549826D01*
X4167682Y-11549826D02*
X4177205Y-11568873D01*
X4177205Y-11568873D02*
X4186729Y-11606969D01*
X4186729Y-11606969D02*
X4186729Y-11654588D01*
X4186729Y-11654588D02*
X4177205Y-11692683D01*
X4177205Y-11692683D02*
X4167682Y-11711730D01*
X4167682Y-11711730D02*
X4158158Y-11721254D01*
X4158158Y-11721254D02*
X4139110Y-11730778D01*
X4139110Y-11730778D02*
X4120062Y-11730778D01*
X4120062Y-11730778D02*
X4101015Y-11721254D01*
X4101015Y-11721254D02*
X4091491Y-11711730D01*
X4091491Y-11711730D02*
X4081967Y-11692683D01*
X4081967Y-11692683D02*
X4072443Y-11654588D01*
X4072443Y-11654588D02*
X4072443Y-11606969D01*
X4072443Y-11606969D02*
X4081967Y-11568873D01*
X4081967Y-11568873D02*
X4091491Y-11549826D01*
X4091491Y-11549826D02*
X4101015Y-11540302D01*
X4101015Y-11540302D02*
X4120062Y-11530778D01*
X4310539Y-11530778D02*
X4329586Y-11530778D01*
X4329586Y-11530778D02*
X4348634Y-11540302D01*
X4348634Y-11540302D02*
X4358158Y-11549826D01*
X4358158Y-11549826D02*
X4367682Y-11568873D01*
X4367682Y-11568873D02*
X4377205Y-11606969D01*
X4377205Y-11606969D02*
X4377205Y-11654588D01*
X4377205Y-11654588D02*
X4367682Y-11692683D01*
X4367682Y-11692683D02*
X4358158Y-11711730D01*
X4358158Y-11711730D02*
X4348634Y-11721254D01*
X4348634Y-11721254D02*
X4329586Y-11730778D01*
X4329586Y-11730778D02*
X4310539Y-11730778D01*
X4310539Y-11730778D02*
X4291491Y-11721254D01*
X4291491Y-11721254D02*
X4281967Y-11711730D01*
X4281967Y-11711730D02*
X4272444Y-11692683D01*
X4272444Y-11692683D02*
X4262920Y-11654588D01*
X4262920Y-11654588D02*
X4262920Y-11606969D01*
X4262920Y-11606969D02*
X4272444Y-11568873D01*
X4272444Y-11568873D02*
X4281967Y-11549826D01*
X4281967Y-11549826D02*
X4291491Y-11540302D01*
X4291491Y-11540302D02*
X4310539Y-11530778D01*
X4462920Y-11730778D02*
X4462920Y-11597445D01*
X4462920Y-11616492D02*
X4472444Y-11606969D01*
X4472444Y-11606969D02*
X4491491Y-11597445D01*
X4491491Y-11597445D02*
X4520063Y-11597445D01*
X4520063Y-11597445D02*
X4539110Y-11606969D01*
X4539110Y-11606969D02*
X4548634Y-11626016D01*
X4548634Y-11626016D02*
X4548634Y-11730778D01*
X4548634Y-11626016D02*
X4558158Y-11606969D01*
X4558158Y-11606969D02*
X4577205Y-11597445D01*
X4577205Y-11597445D02*
X4605777Y-11597445D01*
X4605777Y-11597445D02*
X4624825Y-11606969D01*
X4624825Y-11606969D02*
X4634348Y-11626016D01*
X4634348Y-11626016D02*
X4634348Y-11730778D01*
X4729586Y-11730778D02*
X4729586Y-11597445D01*
X4729586Y-11616492D02*
X4739110Y-11606969D01*
X4739110Y-11606969D02*
X4758158Y-11597445D01*
X4758158Y-11597445D02*
X4786729Y-11597445D01*
X4786729Y-11597445D02*
X4805777Y-11606969D01*
X4805777Y-11606969D02*
X4815301Y-11626016D01*
X4815301Y-11626016D02*
X4815301Y-11730778D01*
X4815301Y-11626016D02*
X4824825Y-11606969D01*
X4824825Y-11606969D02*
X4843872Y-11597445D01*
X4843872Y-11597445D02*
X4872444Y-11597445D01*
X4872444Y-11597445D02*
X4891491Y-11606969D01*
X4891491Y-11606969D02*
X4901015Y-11626016D01*
X4901015Y-11626016D02*
X4901015Y-11730778D01*
X5291491Y-11521254D02*
X5120063Y-11778397D01*
X5548634Y-11530778D02*
X5567682Y-11530778D01*
X5567682Y-11530778D02*
X5586729Y-11540302D01*
X5586729Y-11540302D02*
X5596253Y-11549826D01*
X5596253Y-11549826D02*
X5605777Y-11568873D01*
X5605777Y-11568873D02*
X5615301Y-11606969D01*
X5615301Y-11606969D02*
X5615301Y-11654588D01*
X5615301Y-11654588D02*
X5605777Y-11692683D01*
X5605777Y-11692683D02*
X5596253Y-11711730D01*
X5596253Y-11711730D02*
X5586729Y-11721254D01*
X5586729Y-11721254D02*
X5567682Y-11730778D01*
X5567682Y-11730778D02*
X5548634Y-11730778D01*
X5548634Y-11730778D02*
X5529587Y-11721254D01*
X5529587Y-11721254D02*
X5520063Y-11711730D01*
X5520063Y-11711730D02*
X5510539Y-11692683D01*
X5510539Y-11692683D02*
X5501015Y-11654588D01*
X5501015Y-11654588D02*
X5501015Y-11606969D01*
X5501015Y-11606969D02*
X5510539Y-11568873D01*
X5510539Y-11568873D02*
X5520063Y-11549826D01*
X5520063Y-11549826D02*
X5529587Y-11540302D01*
X5529587Y-11540302D02*
X5548634Y-11530778D01*
X5701015Y-11711730D02*
X5710539Y-11721254D01*
X5710539Y-11721254D02*
X5701015Y-11730778D01*
X5701015Y-11730778D02*
X5691491Y-11721254D01*
X5691491Y-11721254D02*
X5701015Y-11711730D01*
X5701015Y-11711730D02*
X5701015Y-11730778D01*
X5834348Y-11530778D02*
X5853396Y-11530778D01*
X5853396Y-11530778D02*
X5872444Y-11540302D01*
X5872444Y-11540302D02*
X5881967Y-11549826D01*
X5881967Y-11549826D02*
X5891491Y-11568873D01*
X5891491Y-11568873D02*
X5901015Y-11606969D01*
X5901015Y-11606969D02*
X5901015Y-11654588D01*
X5901015Y-11654588D02*
X5891491Y-11692683D01*
X5891491Y-11692683D02*
X5881967Y-11711730D01*
X5881967Y-11711730D02*
X5872444Y-11721254D01*
X5872444Y-11721254D02*
X5853396Y-11730778D01*
X5853396Y-11730778D02*
X5834348Y-11730778D01*
X5834348Y-11730778D02*
X5815301Y-11721254D01*
X5815301Y-11721254D02*
X5805777Y-11711730D01*
X5805777Y-11711730D02*
X5796253Y-11692683D01*
X5796253Y-11692683D02*
X5786729Y-11654588D01*
X5786729Y-11654588D02*
X5786729Y-11606969D01*
X5786729Y-11606969D02*
X5796253Y-11568873D01*
X5796253Y-11568873D02*
X5805777Y-11549826D01*
X5805777Y-11549826D02*
X5815301Y-11540302D01*
X5815301Y-11540302D02*
X5834348Y-11530778D01*
X6091491Y-11730778D02*
X5977206Y-11730778D01*
X6034348Y-11730778D02*
X6034348Y-11530778D01*
X6034348Y-11530778D02*
X6015301Y-11559350D01*
X6015301Y-11559350D02*
X5996253Y-11578397D01*
X5996253Y-11578397D02*
X5977206Y-11587921D01*
X6186729Y-11730778D02*
X6224825Y-11730778D01*
X6224825Y-11730778D02*
X6243872Y-11721254D01*
X6243872Y-11721254D02*
X6253396Y-11711730D01*
X6253396Y-11711730D02*
X6272444Y-11683159D01*
X6272444Y-11683159D02*
X6281967Y-11645064D01*
X6281967Y-11645064D02*
X6281967Y-11568873D01*
X6281967Y-11568873D02*
X6272444Y-11549826D01*
X6272444Y-11549826D02*
X6262920Y-11540302D01*
X6262920Y-11540302D02*
X6243872Y-11530778D01*
X6243872Y-11530778D02*
X6205777Y-11530778D01*
X6205777Y-11530778D02*
X6186729Y-11540302D01*
X6186729Y-11540302D02*
X6177206Y-11549826D01*
X6177206Y-11549826D02*
X6167682Y-11568873D01*
X6167682Y-11568873D02*
X6167682Y-11616492D01*
X6167682Y-11616492D02*
X6177206Y-11635540D01*
X6177206Y-11635540D02*
X6186729Y-11645064D01*
X6186729Y-11645064D02*
X6205777Y-11654588D01*
X6205777Y-11654588D02*
X6243872Y-11654588D01*
X6243872Y-11654588D02*
X6262920Y-11645064D01*
X6262920Y-11645064D02*
X6272444Y-11635540D01*
X6272444Y-11635540D02*
X6281967Y-11616492D01*
X6348634Y-11530778D02*
X6481967Y-11530778D01*
X6481967Y-11530778D02*
X6396253Y-11730778D01*
X6548634Y-11530778D02*
X6548634Y-11568873D01*
X6624825Y-11530778D02*
X6624825Y-11568873D01*
X6920063Y-11806969D02*
X6910539Y-11797445D01*
X6910539Y-11797445D02*
X6891491Y-11768873D01*
X6891491Y-11768873D02*
X6881968Y-11749826D01*
X6881968Y-11749826D02*
X6872444Y-11721254D01*
X6872444Y-11721254D02*
X6862920Y-11673635D01*
X6862920Y-11673635D02*
X6862920Y-11635540D01*
X6862920Y-11635540D02*
X6872444Y-11587921D01*
X6872444Y-11587921D02*
X6881968Y-11559350D01*
X6881968Y-11559350D02*
X6891491Y-11540302D01*
X6891491Y-11540302D02*
X6910539Y-11511730D01*
X6910539Y-11511730D02*
X6920063Y-11502207D01*
X7024825Y-11616492D02*
X7005777Y-11606969D01*
X7005777Y-11606969D02*
X6996253Y-11597445D01*
X6996253Y-11597445D02*
X6986729Y-11578397D01*
X6986729Y-11578397D02*
X6986729Y-11568873D01*
X6986729Y-11568873D02*
X6996253Y-11549826D01*
X6996253Y-11549826D02*
X7005777Y-11540302D01*
X7005777Y-11540302D02*
X7024825Y-11530778D01*
X7024825Y-11530778D02*
X7062920Y-11530778D01*
X7062920Y-11530778D02*
X7081968Y-11540302D01*
X7081968Y-11540302D02*
X7091491Y-11549826D01*
X7091491Y-11549826D02*
X7101015Y-11568873D01*
X7101015Y-11568873D02*
X7101015Y-11578397D01*
X7101015Y-11578397D02*
X7091491Y-11597445D01*
X7091491Y-11597445D02*
X7081968Y-11606969D01*
X7081968Y-11606969D02*
X7062920Y-11616492D01*
X7062920Y-11616492D02*
X7024825Y-11616492D01*
X7024825Y-11616492D02*
X7005777Y-11626016D01*
X7005777Y-11626016D02*
X6996253Y-11635540D01*
X6996253Y-11635540D02*
X6986729Y-11654588D01*
X6986729Y-11654588D02*
X6986729Y-11692683D01*
X6986729Y-11692683D02*
X6996253Y-11711730D01*
X6996253Y-11711730D02*
X7005777Y-11721254D01*
X7005777Y-11721254D02*
X7024825Y-11730778D01*
X7024825Y-11730778D02*
X7062920Y-11730778D01*
X7062920Y-11730778D02*
X7081968Y-11721254D01*
X7081968Y-11721254D02*
X7091491Y-11711730D01*
X7091491Y-11711730D02*
X7101015Y-11692683D01*
X7101015Y-11692683D02*
X7101015Y-11654588D01*
X7101015Y-11654588D02*
X7091491Y-11635540D01*
X7091491Y-11635540D02*
X7081968Y-11626016D01*
X7081968Y-11626016D02*
X7062920Y-11616492D01*
X7215301Y-11616492D02*
X7196253Y-11606969D01*
X7196253Y-11606969D02*
X7186729Y-11597445D01*
X7186729Y-11597445D02*
X7177206Y-11578397D01*
X7177206Y-11578397D02*
X7177206Y-11568873D01*
X7177206Y-11568873D02*
X7186729Y-11549826D01*
X7186729Y-11549826D02*
X7196253Y-11540302D01*
X7196253Y-11540302D02*
X7215301Y-11530778D01*
X7215301Y-11530778D02*
X7253396Y-11530778D01*
X7253396Y-11530778D02*
X7272444Y-11540302D01*
X7272444Y-11540302D02*
X7281968Y-11549826D01*
X7281968Y-11549826D02*
X7291491Y-11568873D01*
X7291491Y-11568873D02*
X7291491Y-11578397D01*
X7291491Y-11578397D02*
X7281968Y-11597445D01*
X7281968Y-11597445D02*
X7272444Y-11606969D01*
X7272444Y-11606969D02*
X7253396Y-11616492D01*
X7253396Y-11616492D02*
X7215301Y-11616492D01*
X7215301Y-11616492D02*
X7196253Y-11626016D01*
X7196253Y-11626016D02*
X7186729Y-11635540D01*
X7186729Y-11635540D02*
X7177206Y-11654588D01*
X7177206Y-11654588D02*
X7177206Y-11692683D01*
X7177206Y-11692683D02*
X7186729Y-11711730D01*
X7186729Y-11711730D02*
X7196253Y-11721254D01*
X7196253Y-11721254D02*
X7215301Y-11730778D01*
X7215301Y-11730778D02*
X7253396Y-11730778D01*
X7253396Y-11730778D02*
X7272444Y-11721254D01*
X7272444Y-11721254D02*
X7281968Y-11711730D01*
X7281968Y-11711730D02*
X7291491Y-11692683D01*
X7291491Y-11692683D02*
X7291491Y-11654588D01*
X7291491Y-11654588D02*
X7281968Y-11635540D01*
X7281968Y-11635540D02*
X7272444Y-11626016D01*
X7272444Y-11626016D02*
X7253396Y-11616492D01*
X7529587Y-11730778D02*
X7529587Y-11530778D01*
X7615301Y-11730778D02*
X7615301Y-11626016D01*
X7615301Y-11626016D02*
X7605777Y-11606969D01*
X7605777Y-11606969D02*
X7586730Y-11597445D01*
X7586730Y-11597445D02*
X7558158Y-11597445D01*
X7558158Y-11597445D02*
X7539110Y-11606969D01*
X7539110Y-11606969D02*
X7529587Y-11616492D01*
X7739110Y-11730778D02*
X7720063Y-11721254D01*
X7720063Y-11721254D02*
X7710539Y-11711730D01*
X7710539Y-11711730D02*
X7701015Y-11692683D01*
X7701015Y-11692683D02*
X7701015Y-11635540D01*
X7701015Y-11635540D02*
X7710539Y-11616492D01*
X7710539Y-11616492D02*
X7720063Y-11606969D01*
X7720063Y-11606969D02*
X7739110Y-11597445D01*
X7739110Y-11597445D02*
X7767682Y-11597445D01*
X7767682Y-11597445D02*
X7786730Y-11606969D01*
X7786730Y-11606969D02*
X7796253Y-11616492D01*
X7796253Y-11616492D02*
X7805777Y-11635540D01*
X7805777Y-11635540D02*
X7805777Y-11692683D01*
X7805777Y-11692683D02*
X7796253Y-11711730D01*
X7796253Y-11711730D02*
X7786730Y-11721254D01*
X7786730Y-11721254D02*
X7767682Y-11730778D01*
X7767682Y-11730778D02*
X7739110Y-11730778D01*
X7920063Y-11730778D02*
X7901015Y-11721254D01*
X7901015Y-11721254D02*
X7891491Y-11702207D01*
X7891491Y-11702207D02*
X7891491Y-11530778D01*
X8072444Y-11721254D02*
X8053396Y-11730778D01*
X8053396Y-11730778D02*
X8015301Y-11730778D01*
X8015301Y-11730778D02*
X7996253Y-11721254D01*
X7996253Y-11721254D02*
X7986730Y-11702207D01*
X7986730Y-11702207D02*
X7986730Y-11626016D01*
X7986730Y-11626016D02*
X7996253Y-11606969D01*
X7996253Y-11606969D02*
X8015301Y-11597445D01*
X8015301Y-11597445D02*
X8053396Y-11597445D01*
X8053396Y-11597445D02*
X8072444Y-11606969D01*
X8072444Y-11606969D02*
X8081968Y-11626016D01*
X8081968Y-11626016D02*
X8081968Y-11645064D01*
X8081968Y-11645064D02*
X7986730Y-11664111D01*
X8158158Y-11721254D02*
X8177206Y-11730778D01*
X8177206Y-11730778D02*
X8215301Y-11730778D01*
X8215301Y-11730778D02*
X8234349Y-11721254D01*
X8234349Y-11721254D02*
X8243872Y-11702207D01*
X8243872Y-11702207D02*
X8243872Y-11692683D01*
X8243872Y-11692683D02*
X8234349Y-11673635D01*
X8234349Y-11673635D02*
X8215301Y-11664111D01*
X8215301Y-11664111D02*
X8186730Y-11664111D01*
X8186730Y-11664111D02*
X8167682Y-11654588D01*
X8167682Y-11654588D02*
X8158158Y-11635540D01*
X8158158Y-11635540D02*
X8158158Y-11626016D01*
X8158158Y-11626016D02*
X8167682Y-11606969D01*
X8167682Y-11606969D02*
X8186730Y-11597445D01*
X8186730Y-11597445D02*
X8215301Y-11597445D01*
X8215301Y-11597445D02*
X8234349Y-11606969D01*
X8310539Y-11806969D02*
X8320063Y-11797445D01*
X8320063Y-11797445D02*
X8339111Y-11768873D01*
X8339111Y-11768873D02*
X8348634Y-11749826D01*
X8348634Y-11749826D02*
X8358158Y-11721254D01*
X8358158Y-11721254D02*
X8367682Y-11673635D01*
X8367682Y-11673635D02*
X8367682Y-11635540D01*
X8367682Y-11635540D02*
X8358158Y-11587921D01*
X8358158Y-11587921D02*
X8348634Y-11559350D01*
X8348634Y-11559350D02*
X8339111Y-11540302D01*
X8339111Y-11540302D02*
X8320063Y-11511730D01*
X8320063Y-11511730D02*
X8310539Y-11502207D01*
D10*
X3295000Y-11853294D02*
X3295000Y-11953294D01*
X3245000Y-11903294D02*
X3345000Y-11903294D01*
D11*
X3710539Y-11994778D02*
X3596253Y-11994778D01*
X3653396Y-11994778D02*
X3653396Y-11794778D01*
X3653396Y-11794778D02*
X3634348Y-11823350D01*
X3634348Y-11823350D02*
X3615301Y-11842397D01*
X3615301Y-11842397D02*
X3596253Y-11851921D01*
X3796253Y-11975730D02*
X3805777Y-11985254D01*
X3805777Y-11985254D02*
X3796253Y-11994778D01*
X3796253Y-11994778D02*
X3786729Y-11985254D01*
X3786729Y-11985254D02*
X3796253Y-11975730D01*
X3796253Y-11975730D02*
X3796253Y-11994778D01*
X3929586Y-11794778D02*
X3948634Y-11794778D01*
X3948634Y-11794778D02*
X3967682Y-11804302D01*
X3967682Y-11804302D02*
X3977205Y-11813826D01*
X3977205Y-11813826D02*
X3986729Y-11832873D01*
X3986729Y-11832873D02*
X3996253Y-11870969D01*
X3996253Y-11870969D02*
X3996253Y-11918588D01*
X3996253Y-11918588D02*
X3986729Y-11956683D01*
X3986729Y-11956683D02*
X3977205Y-11975730D01*
X3977205Y-11975730D02*
X3967682Y-11985254D01*
X3967682Y-11985254D02*
X3948634Y-11994778D01*
X3948634Y-11994778D02*
X3929586Y-11994778D01*
X3929586Y-11994778D02*
X3910539Y-11985254D01*
X3910539Y-11985254D02*
X3901015Y-11975730D01*
X3901015Y-11975730D02*
X3891491Y-11956683D01*
X3891491Y-11956683D02*
X3881967Y-11918588D01*
X3881967Y-11918588D02*
X3881967Y-11870969D01*
X3881967Y-11870969D02*
X3891491Y-11832873D01*
X3891491Y-11832873D02*
X3901015Y-11813826D01*
X3901015Y-11813826D02*
X3910539Y-11804302D01*
X3910539Y-11804302D02*
X3929586Y-11794778D01*
X4120062Y-11794778D02*
X4139110Y-11794778D01*
X4139110Y-11794778D02*
X4158158Y-11804302D01*
X4158158Y-11804302D02*
X4167682Y-11813826D01*
X4167682Y-11813826D02*
X4177205Y-11832873D01*
X4177205Y-11832873D02*
X4186729Y-11870969D01*
X4186729Y-11870969D02*
X4186729Y-11918588D01*
X4186729Y-11918588D02*
X4177205Y-11956683D01*
X4177205Y-11956683D02*
X4167682Y-11975730D01*
X4167682Y-11975730D02*
X4158158Y-11985254D01*
X4158158Y-11985254D02*
X4139110Y-11994778D01*
X4139110Y-11994778D02*
X4120062Y-11994778D01*
X4120062Y-11994778D02*
X4101015Y-11985254D01*
X4101015Y-11985254D02*
X4091491Y-11975730D01*
X4091491Y-11975730D02*
X4081967Y-11956683D01*
X4081967Y-11956683D02*
X4072443Y-11918588D01*
X4072443Y-11918588D02*
X4072443Y-11870969D01*
X4072443Y-11870969D02*
X4081967Y-11832873D01*
X4081967Y-11832873D02*
X4091491Y-11813826D01*
X4091491Y-11813826D02*
X4101015Y-11804302D01*
X4101015Y-11804302D02*
X4120062Y-11794778D01*
X4310539Y-11794778D02*
X4329586Y-11794778D01*
X4329586Y-11794778D02*
X4348634Y-11804302D01*
X4348634Y-11804302D02*
X4358158Y-11813826D01*
X4358158Y-11813826D02*
X4367682Y-11832873D01*
X4367682Y-11832873D02*
X4377205Y-11870969D01*
X4377205Y-11870969D02*
X4377205Y-11918588D01*
X4377205Y-11918588D02*
X4367682Y-11956683D01*
X4367682Y-11956683D02*
X4358158Y-11975730D01*
X4358158Y-11975730D02*
X4348634Y-11985254D01*
X4348634Y-11985254D02*
X4329586Y-11994778D01*
X4329586Y-11994778D02*
X4310539Y-11994778D01*
X4310539Y-11994778D02*
X4291491Y-11985254D01*
X4291491Y-11985254D02*
X4281967Y-11975730D01*
X4281967Y-11975730D02*
X4272444Y-11956683D01*
X4272444Y-11956683D02*
X4262920Y-11918588D01*
X4262920Y-11918588D02*
X4262920Y-11870969D01*
X4262920Y-11870969D02*
X4272444Y-11832873D01*
X4272444Y-11832873D02*
X4281967Y-11813826D01*
X4281967Y-11813826D02*
X4291491Y-11804302D01*
X4291491Y-11804302D02*
X4310539Y-11794778D01*
X4462920Y-11994778D02*
X4462920Y-11861445D01*
X4462920Y-11880492D02*
X4472444Y-11870969D01*
X4472444Y-11870969D02*
X4491491Y-11861445D01*
X4491491Y-11861445D02*
X4520063Y-11861445D01*
X4520063Y-11861445D02*
X4539110Y-11870969D01*
X4539110Y-11870969D02*
X4548634Y-11890016D01*
X4548634Y-11890016D02*
X4548634Y-11994778D01*
X4548634Y-11890016D02*
X4558158Y-11870969D01*
X4558158Y-11870969D02*
X4577205Y-11861445D01*
X4577205Y-11861445D02*
X4605777Y-11861445D01*
X4605777Y-11861445D02*
X4624825Y-11870969D01*
X4624825Y-11870969D02*
X4634348Y-11890016D01*
X4634348Y-11890016D02*
X4634348Y-11994778D01*
X4729586Y-11994778D02*
X4729586Y-11861445D01*
X4729586Y-11880492D02*
X4739110Y-11870969D01*
X4739110Y-11870969D02*
X4758158Y-11861445D01*
X4758158Y-11861445D02*
X4786729Y-11861445D01*
X4786729Y-11861445D02*
X4805777Y-11870969D01*
X4805777Y-11870969D02*
X4815301Y-11890016D01*
X4815301Y-11890016D02*
X4815301Y-11994778D01*
X4815301Y-11890016D02*
X4824825Y-11870969D01*
X4824825Y-11870969D02*
X4843872Y-11861445D01*
X4843872Y-11861445D02*
X4872444Y-11861445D01*
X4872444Y-11861445D02*
X4891491Y-11870969D01*
X4891491Y-11870969D02*
X4901015Y-11890016D01*
X4901015Y-11890016D02*
X4901015Y-11994778D01*
X5291491Y-11785254D02*
X5120063Y-12042397D01*
X5548634Y-11794778D02*
X5567682Y-11794778D01*
X5567682Y-11794778D02*
X5586729Y-11804302D01*
X5586729Y-11804302D02*
X5596253Y-11813826D01*
X5596253Y-11813826D02*
X5605777Y-11832873D01*
X5605777Y-11832873D02*
X5615301Y-11870969D01*
X5615301Y-11870969D02*
X5615301Y-11918588D01*
X5615301Y-11918588D02*
X5605777Y-11956683D01*
X5605777Y-11956683D02*
X5596253Y-11975730D01*
X5596253Y-11975730D02*
X5586729Y-11985254D01*
X5586729Y-11985254D02*
X5567682Y-11994778D01*
X5567682Y-11994778D02*
X5548634Y-11994778D01*
X5548634Y-11994778D02*
X5529587Y-11985254D01*
X5529587Y-11985254D02*
X5520063Y-11975730D01*
X5520063Y-11975730D02*
X5510539Y-11956683D01*
X5510539Y-11956683D02*
X5501015Y-11918588D01*
X5501015Y-11918588D02*
X5501015Y-11870969D01*
X5501015Y-11870969D02*
X5510539Y-11832873D01*
X5510539Y-11832873D02*
X5520063Y-11813826D01*
X5520063Y-11813826D02*
X5529587Y-11804302D01*
X5529587Y-11804302D02*
X5548634Y-11794778D01*
X5701015Y-11975730D02*
X5710539Y-11985254D01*
X5710539Y-11985254D02*
X5701015Y-11994778D01*
X5701015Y-11994778D02*
X5691491Y-11985254D01*
X5691491Y-11985254D02*
X5701015Y-11975730D01*
X5701015Y-11975730D02*
X5701015Y-11994778D01*
X5834348Y-11794778D02*
X5853396Y-11794778D01*
X5853396Y-11794778D02*
X5872444Y-11804302D01*
X5872444Y-11804302D02*
X5881967Y-11813826D01*
X5881967Y-11813826D02*
X5891491Y-11832873D01*
X5891491Y-11832873D02*
X5901015Y-11870969D01*
X5901015Y-11870969D02*
X5901015Y-11918588D01*
X5901015Y-11918588D02*
X5891491Y-11956683D01*
X5891491Y-11956683D02*
X5881967Y-11975730D01*
X5881967Y-11975730D02*
X5872444Y-11985254D01*
X5872444Y-11985254D02*
X5853396Y-11994778D01*
X5853396Y-11994778D02*
X5834348Y-11994778D01*
X5834348Y-11994778D02*
X5815301Y-11985254D01*
X5815301Y-11985254D02*
X5805777Y-11975730D01*
X5805777Y-11975730D02*
X5796253Y-11956683D01*
X5796253Y-11956683D02*
X5786729Y-11918588D01*
X5786729Y-11918588D02*
X5786729Y-11870969D01*
X5786729Y-11870969D02*
X5796253Y-11832873D01*
X5796253Y-11832873D02*
X5805777Y-11813826D01*
X5805777Y-11813826D02*
X5815301Y-11804302D01*
X5815301Y-11804302D02*
X5834348Y-11794778D01*
X5967682Y-11794778D02*
X6091491Y-11794778D01*
X6091491Y-11794778D02*
X6024825Y-11870969D01*
X6024825Y-11870969D02*
X6053396Y-11870969D01*
X6053396Y-11870969D02*
X6072444Y-11880492D01*
X6072444Y-11880492D02*
X6081967Y-11890016D01*
X6081967Y-11890016D02*
X6091491Y-11909064D01*
X6091491Y-11909064D02*
X6091491Y-11956683D01*
X6091491Y-11956683D02*
X6081967Y-11975730D01*
X6081967Y-11975730D02*
X6072444Y-11985254D01*
X6072444Y-11985254D02*
X6053396Y-11994778D01*
X6053396Y-11994778D02*
X5996253Y-11994778D01*
X5996253Y-11994778D02*
X5977206Y-11985254D01*
X5977206Y-11985254D02*
X5967682Y-11975730D01*
X6186729Y-11994778D02*
X6224825Y-11994778D01*
X6224825Y-11994778D02*
X6243872Y-11985254D01*
X6243872Y-11985254D02*
X6253396Y-11975730D01*
X6253396Y-11975730D02*
X6272444Y-11947159D01*
X6272444Y-11947159D02*
X6281967Y-11909064D01*
X6281967Y-11909064D02*
X6281967Y-11832873D01*
X6281967Y-11832873D02*
X6272444Y-11813826D01*
X6272444Y-11813826D02*
X6262920Y-11804302D01*
X6262920Y-11804302D02*
X6243872Y-11794778D01*
X6243872Y-11794778D02*
X6205777Y-11794778D01*
X6205777Y-11794778D02*
X6186729Y-11804302D01*
X6186729Y-11804302D02*
X6177206Y-11813826D01*
X6177206Y-11813826D02*
X6167682Y-11832873D01*
X6167682Y-11832873D02*
X6167682Y-11880492D01*
X6167682Y-11880492D02*
X6177206Y-11899540D01*
X6177206Y-11899540D02*
X6186729Y-11909064D01*
X6186729Y-11909064D02*
X6205777Y-11918588D01*
X6205777Y-11918588D02*
X6243872Y-11918588D01*
X6243872Y-11918588D02*
X6262920Y-11909064D01*
X6262920Y-11909064D02*
X6272444Y-11899540D01*
X6272444Y-11899540D02*
X6281967Y-11880492D01*
X6453396Y-11861445D02*
X6453396Y-11994778D01*
X6405777Y-11785254D02*
X6358158Y-11928111D01*
X6358158Y-11928111D02*
X6481967Y-11928111D01*
X6548634Y-11794778D02*
X6548634Y-11832873D01*
X6624825Y-11794778D02*
X6624825Y-11832873D01*
X6920063Y-12070969D02*
X6910539Y-12061445D01*
X6910539Y-12061445D02*
X6891491Y-12032873D01*
X6891491Y-12032873D02*
X6881968Y-12013826D01*
X6881968Y-12013826D02*
X6872444Y-11985254D01*
X6872444Y-11985254D02*
X6862920Y-11937635D01*
X6862920Y-11937635D02*
X6862920Y-11899540D01*
X6862920Y-11899540D02*
X6872444Y-11851921D01*
X6872444Y-11851921D02*
X6881968Y-11823350D01*
X6881968Y-11823350D02*
X6891491Y-11804302D01*
X6891491Y-11804302D02*
X6910539Y-11775730D01*
X6910539Y-11775730D02*
X6920063Y-11766207D01*
X6986729Y-11813826D02*
X6996253Y-11804302D01*
X6996253Y-11804302D02*
X7015301Y-11794778D01*
X7015301Y-11794778D02*
X7062920Y-11794778D01*
X7062920Y-11794778D02*
X7081968Y-11804302D01*
X7081968Y-11804302D02*
X7091491Y-11813826D01*
X7091491Y-11813826D02*
X7101015Y-11832873D01*
X7101015Y-11832873D02*
X7101015Y-11851921D01*
X7101015Y-11851921D02*
X7091491Y-11880492D01*
X7091491Y-11880492D02*
X6977206Y-11994778D01*
X6977206Y-11994778D02*
X7101015Y-11994778D01*
X7224825Y-11794778D02*
X7243872Y-11794778D01*
X7243872Y-11794778D02*
X7262920Y-11804302D01*
X7262920Y-11804302D02*
X7272444Y-11813826D01*
X7272444Y-11813826D02*
X7281968Y-11832873D01*
X7281968Y-11832873D02*
X7291491Y-11870969D01*
X7291491Y-11870969D02*
X7291491Y-11918588D01*
X7291491Y-11918588D02*
X7281968Y-11956683D01*
X7281968Y-11956683D02*
X7272444Y-11975730D01*
X7272444Y-11975730D02*
X7262920Y-11985254D01*
X7262920Y-11985254D02*
X7243872Y-11994778D01*
X7243872Y-11994778D02*
X7224825Y-11994778D01*
X7224825Y-11994778D02*
X7205777Y-11985254D01*
X7205777Y-11985254D02*
X7196253Y-11975730D01*
X7196253Y-11975730D02*
X7186729Y-11956683D01*
X7186729Y-11956683D02*
X7177206Y-11918588D01*
X7177206Y-11918588D02*
X7177206Y-11870969D01*
X7177206Y-11870969D02*
X7186729Y-11832873D01*
X7186729Y-11832873D02*
X7196253Y-11813826D01*
X7196253Y-11813826D02*
X7205777Y-11804302D01*
X7205777Y-11804302D02*
X7224825Y-11794778D01*
X7529587Y-11994778D02*
X7529587Y-11794778D01*
X7615301Y-11994778D02*
X7615301Y-11890016D01*
X7615301Y-11890016D02*
X7605777Y-11870969D01*
X7605777Y-11870969D02*
X7586730Y-11861445D01*
X7586730Y-11861445D02*
X7558158Y-11861445D01*
X7558158Y-11861445D02*
X7539110Y-11870969D01*
X7539110Y-11870969D02*
X7529587Y-11880492D01*
X7739110Y-11994778D02*
X7720063Y-11985254D01*
X7720063Y-11985254D02*
X7710539Y-11975730D01*
X7710539Y-11975730D02*
X7701015Y-11956683D01*
X7701015Y-11956683D02*
X7701015Y-11899540D01*
X7701015Y-11899540D02*
X7710539Y-11880492D01*
X7710539Y-11880492D02*
X7720063Y-11870969D01*
X7720063Y-11870969D02*
X7739110Y-11861445D01*
X7739110Y-11861445D02*
X7767682Y-11861445D01*
X7767682Y-11861445D02*
X7786730Y-11870969D01*
X7786730Y-11870969D02*
X7796253Y-11880492D01*
X7796253Y-11880492D02*
X7805777Y-11899540D01*
X7805777Y-11899540D02*
X7805777Y-11956683D01*
X7805777Y-11956683D02*
X7796253Y-11975730D01*
X7796253Y-11975730D02*
X7786730Y-11985254D01*
X7786730Y-11985254D02*
X7767682Y-11994778D01*
X7767682Y-11994778D02*
X7739110Y-11994778D01*
X7920063Y-11994778D02*
X7901015Y-11985254D01*
X7901015Y-11985254D02*
X7891491Y-11966207D01*
X7891491Y-11966207D02*
X7891491Y-11794778D01*
X8072444Y-11985254D02*
X8053396Y-11994778D01*
X8053396Y-11994778D02*
X8015301Y-11994778D01*
X8015301Y-11994778D02*
X7996253Y-11985254D01*
X7996253Y-11985254D02*
X7986730Y-11966207D01*
X7986730Y-11966207D02*
X7986730Y-11890016D01*
X7986730Y-11890016D02*
X7996253Y-11870969D01*
X7996253Y-11870969D02*
X8015301Y-11861445D01*
X8015301Y-11861445D02*
X8053396Y-11861445D01*
X8053396Y-11861445D02*
X8072444Y-11870969D01*
X8072444Y-11870969D02*
X8081968Y-11890016D01*
X8081968Y-11890016D02*
X8081968Y-11909064D01*
X8081968Y-11909064D02*
X7986730Y-11928111D01*
X8158158Y-11985254D02*
X8177206Y-11994778D01*
X8177206Y-11994778D02*
X8215301Y-11994778D01*
X8215301Y-11994778D02*
X8234349Y-11985254D01*
X8234349Y-11985254D02*
X8243872Y-11966207D01*
X8243872Y-11966207D02*
X8243872Y-11956683D01*
X8243872Y-11956683D02*
X8234349Y-11937635D01*
X8234349Y-11937635D02*
X8215301Y-11928111D01*
X8215301Y-11928111D02*
X8186730Y-11928111D01*
X8186730Y-11928111D02*
X8167682Y-11918588D01*
X8167682Y-11918588D02*
X8158158Y-11899540D01*
X8158158Y-11899540D02*
X8158158Y-11890016D01*
X8158158Y-11890016D02*
X8167682Y-11870969D01*
X8167682Y-11870969D02*
X8186730Y-11861445D01*
X8186730Y-11861445D02*
X8215301Y-11861445D01*
X8215301Y-11861445D02*
X8234349Y-11870969D01*
X8310539Y-12070969D02*
X8320063Y-12061445D01*
X8320063Y-12061445D02*
X8339111Y-12032873D01*
X8339111Y-12032873D02*
X8348634Y-12013826D01*
X8348634Y-12013826D02*
X8358158Y-11985254D01*
X8358158Y-11985254D02*
X8367682Y-11937635D01*
X8367682Y-11937635D02*
X8367682Y-11899540D01*
X8367682Y-11899540D02*
X8358158Y-11851921D01*
X8358158Y-11851921D02*
X8348634Y-11823350D01*
X8348634Y-11823350D02*
X8339111Y-11804302D01*
X8339111Y-11804302D02*
X8320063Y-11775730D01*
X8320063Y-11775730D02*
X8310539Y-11766207D01*
D14*
X3327573Y-12209368D02*
X3327573Y-12125221D01*
X3243427Y-12125221D01*
X3243427Y-12209368D01*
X3327573Y-12209368D01*
D11*
X3710539Y-12258778D02*
X3596253Y-12258778D01*
X3653396Y-12258778D02*
X3653396Y-12058778D01*
X3653396Y-12058778D02*
X3634348Y-12087350D01*
X3634348Y-12087350D02*
X3615301Y-12106397D01*
X3615301Y-12106397D02*
X3596253Y-12115921D01*
X3796253Y-12239730D02*
X3805777Y-12249254D01*
X3805777Y-12249254D02*
X3796253Y-12258778D01*
X3796253Y-12258778D02*
X3786729Y-12249254D01*
X3786729Y-12249254D02*
X3796253Y-12239730D01*
X3796253Y-12239730D02*
X3796253Y-12258778D01*
X3996253Y-12258778D02*
X3881967Y-12258778D01*
X3939110Y-12258778D02*
X3939110Y-12058778D01*
X3939110Y-12058778D02*
X3920062Y-12087350D01*
X3920062Y-12087350D02*
X3901015Y-12106397D01*
X3901015Y-12106397D02*
X3881967Y-12115921D01*
X4091491Y-12258778D02*
X4129586Y-12258778D01*
X4129586Y-12258778D02*
X4148634Y-12249254D01*
X4148634Y-12249254D02*
X4158158Y-12239730D01*
X4158158Y-12239730D02*
X4177205Y-12211159D01*
X4177205Y-12211159D02*
X4186729Y-12173064D01*
X4186729Y-12173064D02*
X4186729Y-12096873D01*
X4186729Y-12096873D02*
X4177205Y-12077826D01*
X4177205Y-12077826D02*
X4167682Y-12068302D01*
X4167682Y-12068302D02*
X4148634Y-12058778D01*
X4148634Y-12058778D02*
X4110539Y-12058778D01*
X4110539Y-12058778D02*
X4091491Y-12068302D01*
X4091491Y-12068302D02*
X4081967Y-12077826D01*
X4081967Y-12077826D02*
X4072443Y-12096873D01*
X4072443Y-12096873D02*
X4072443Y-12144492D01*
X4072443Y-12144492D02*
X4081967Y-12163540D01*
X4081967Y-12163540D02*
X4091491Y-12173064D01*
X4091491Y-12173064D02*
X4110539Y-12182588D01*
X4110539Y-12182588D02*
X4148634Y-12182588D01*
X4148634Y-12182588D02*
X4167682Y-12173064D01*
X4167682Y-12173064D02*
X4177205Y-12163540D01*
X4177205Y-12163540D02*
X4186729Y-12144492D01*
X4310539Y-12058778D02*
X4329586Y-12058778D01*
X4329586Y-12058778D02*
X4348634Y-12068302D01*
X4348634Y-12068302D02*
X4358158Y-12077826D01*
X4358158Y-12077826D02*
X4367682Y-12096873D01*
X4367682Y-12096873D02*
X4377205Y-12134969D01*
X4377205Y-12134969D02*
X4377205Y-12182588D01*
X4377205Y-12182588D02*
X4367682Y-12220683D01*
X4367682Y-12220683D02*
X4358158Y-12239730D01*
X4358158Y-12239730D02*
X4348634Y-12249254D01*
X4348634Y-12249254D02*
X4329586Y-12258778D01*
X4329586Y-12258778D02*
X4310539Y-12258778D01*
X4310539Y-12258778D02*
X4291491Y-12249254D01*
X4291491Y-12249254D02*
X4281967Y-12239730D01*
X4281967Y-12239730D02*
X4272444Y-12220683D01*
X4272444Y-12220683D02*
X4262920Y-12182588D01*
X4262920Y-12182588D02*
X4262920Y-12134969D01*
X4262920Y-12134969D02*
X4272444Y-12096873D01*
X4272444Y-12096873D02*
X4281967Y-12077826D01*
X4281967Y-12077826D02*
X4291491Y-12068302D01*
X4291491Y-12068302D02*
X4310539Y-12058778D01*
X4462920Y-12258778D02*
X4462920Y-12125445D01*
X4462920Y-12144492D02*
X4472444Y-12134969D01*
X4472444Y-12134969D02*
X4491491Y-12125445D01*
X4491491Y-12125445D02*
X4520063Y-12125445D01*
X4520063Y-12125445D02*
X4539110Y-12134969D01*
X4539110Y-12134969D02*
X4548634Y-12154016D01*
X4548634Y-12154016D02*
X4548634Y-12258778D01*
X4548634Y-12154016D02*
X4558158Y-12134969D01*
X4558158Y-12134969D02*
X4577205Y-12125445D01*
X4577205Y-12125445D02*
X4605777Y-12125445D01*
X4605777Y-12125445D02*
X4624825Y-12134969D01*
X4624825Y-12134969D02*
X4634348Y-12154016D01*
X4634348Y-12154016D02*
X4634348Y-12258778D01*
X4729586Y-12258778D02*
X4729586Y-12125445D01*
X4729586Y-12144492D02*
X4739110Y-12134969D01*
X4739110Y-12134969D02*
X4758158Y-12125445D01*
X4758158Y-12125445D02*
X4786729Y-12125445D01*
X4786729Y-12125445D02*
X4805777Y-12134969D01*
X4805777Y-12134969D02*
X4815301Y-12154016D01*
X4815301Y-12154016D02*
X4815301Y-12258778D01*
X4815301Y-12154016D02*
X4824825Y-12134969D01*
X4824825Y-12134969D02*
X4843872Y-12125445D01*
X4843872Y-12125445D02*
X4872444Y-12125445D01*
X4872444Y-12125445D02*
X4891491Y-12134969D01*
X4891491Y-12134969D02*
X4901015Y-12154016D01*
X4901015Y-12154016D02*
X4901015Y-12258778D01*
X5291491Y-12049254D02*
X5120063Y-12306397D01*
X5548634Y-12058778D02*
X5567682Y-12058778D01*
X5567682Y-12058778D02*
X5586729Y-12068302D01*
X5586729Y-12068302D02*
X5596253Y-12077826D01*
X5596253Y-12077826D02*
X5605777Y-12096873D01*
X5605777Y-12096873D02*
X5615301Y-12134969D01*
X5615301Y-12134969D02*
X5615301Y-12182588D01*
X5615301Y-12182588D02*
X5605777Y-12220683D01*
X5605777Y-12220683D02*
X5596253Y-12239730D01*
X5596253Y-12239730D02*
X5586729Y-12249254D01*
X5586729Y-12249254D02*
X5567682Y-12258778D01*
X5567682Y-12258778D02*
X5548634Y-12258778D01*
X5548634Y-12258778D02*
X5529587Y-12249254D01*
X5529587Y-12249254D02*
X5520063Y-12239730D01*
X5520063Y-12239730D02*
X5510539Y-12220683D01*
X5510539Y-12220683D02*
X5501015Y-12182588D01*
X5501015Y-12182588D02*
X5501015Y-12134969D01*
X5501015Y-12134969D02*
X5510539Y-12096873D01*
X5510539Y-12096873D02*
X5520063Y-12077826D01*
X5520063Y-12077826D02*
X5529587Y-12068302D01*
X5529587Y-12068302D02*
X5548634Y-12058778D01*
X5701015Y-12239730D02*
X5710539Y-12249254D01*
X5710539Y-12249254D02*
X5701015Y-12258778D01*
X5701015Y-12258778D02*
X5691491Y-12249254D01*
X5691491Y-12249254D02*
X5701015Y-12239730D01*
X5701015Y-12239730D02*
X5701015Y-12258778D01*
X5834348Y-12058778D02*
X5853396Y-12058778D01*
X5853396Y-12058778D02*
X5872444Y-12068302D01*
X5872444Y-12068302D02*
X5881967Y-12077826D01*
X5881967Y-12077826D02*
X5891491Y-12096873D01*
X5891491Y-12096873D02*
X5901015Y-12134969D01*
X5901015Y-12134969D02*
X5901015Y-12182588D01*
X5901015Y-12182588D02*
X5891491Y-12220683D01*
X5891491Y-12220683D02*
X5881967Y-12239730D01*
X5881967Y-12239730D02*
X5872444Y-12249254D01*
X5872444Y-12249254D02*
X5853396Y-12258778D01*
X5853396Y-12258778D02*
X5834348Y-12258778D01*
X5834348Y-12258778D02*
X5815301Y-12249254D01*
X5815301Y-12249254D02*
X5805777Y-12239730D01*
X5805777Y-12239730D02*
X5796253Y-12220683D01*
X5796253Y-12220683D02*
X5786729Y-12182588D01*
X5786729Y-12182588D02*
X5786729Y-12134969D01*
X5786729Y-12134969D02*
X5796253Y-12096873D01*
X5796253Y-12096873D02*
X5805777Y-12077826D01*
X5805777Y-12077826D02*
X5815301Y-12068302D01*
X5815301Y-12068302D02*
X5834348Y-12058778D01*
X6072444Y-12125445D02*
X6072444Y-12258778D01*
X6024825Y-12049254D02*
X5977206Y-12192111D01*
X5977206Y-12192111D02*
X6101015Y-12192111D01*
X6262920Y-12058778D02*
X6224825Y-12058778D01*
X6224825Y-12058778D02*
X6205777Y-12068302D01*
X6205777Y-12068302D02*
X6196253Y-12077826D01*
X6196253Y-12077826D02*
X6177206Y-12106397D01*
X6177206Y-12106397D02*
X6167682Y-12144492D01*
X6167682Y-12144492D02*
X6167682Y-12220683D01*
X6167682Y-12220683D02*
X6177206Y-12239730D01*
X6177206Y-12239730D02*
X6186729Y-12249254D01*
X6186729Y-12249254D02*
X6205777Y-12258778D01*
X6205777Y-12258778D02*
X6243872Y-12258778D01*
X6243872Y-12258778D02*
X6262920Y-12249254D01*
X6262920Y-12249254D02*
X6272444Y-12239730D01*
X6272444Y-12239730D02*
X6281967Y-12220683D01*
X6281967Y-12220683D02*
X6281967Y-12173064D01*
X6281967Y-12173064D02*
X6272444Y-12154016D01*
X6272444Y-12154016D02*
X6262920Y-12144492D01*
X6262920Y-12144492D02*
X6243872Y-12134969D01*
X6243872Y-12134969D02*
X6205777Y-12134969D01*
X6205777Y-12134969D02*
X6186729Y-12144492D01*
X6186729Y-12144492D02*
X6177206Y-12154016D01*
X6177206Y-12154016D02*
X6167682Y-12173064D01*
X6377206Y-12258778D02*
X6415301Y-12258778D01*
X6415301Y-12258778D02*
X6434348Y-12249254D01*
X6434348Y-12249254D02*
X6443872Y-12239730D01*
X6443872Y-12239730D02*
X6462920Y-12211159D01*
X6462920Y-12211159D02*
X6472444Y-12173064D01*
X6472444Y-12173064D02*
X6472444Y-12096873D01*
X6472444Y-12096873D02*
X6462920Y-12077826D01*
X6462920Y-12077826D02*
X6453396Y-12068302D01*
X6453396Y-12068302D02*
X6434348Y-12058778D01*
X6434348Y-12058778D02*
X6396253Y-12058778D01*
X6396253Y-12058778D02*
X6377206Y-12068302D01*
X6377206Y-12068302D02*
X6367682Y-12077826D01*
X6367682Y-12077826D02*
X6358158Y-12096873D01*
X6358158Y-12096873D02*
X6358158Y-12144492D01*
X6358158Y-12144492D02*
X6367682Y-12163540D01*
X6367682Y-12163540D02*
X6377206Y-12173064D01*
X6377206Y-12173064D02*
X6396253Y-12182588D01*
X6396253Y-12182588D02*
X6434348Y-12182588D01*
X6434348Y-12182588D02*
X6453396Y-12173064D01*
X6453396Y-12173064D02*
X6462920Y-12163540D01*
X6462920Y-12163540D02*
X6472444Y-12144492D01*
X6548634Y-12058778D02*
X6548634Y-12096873D01*
X6624825Y-12058778D02*
X6624825Y-12096873D01*
X6920063Y-12334969D02*
X6910539Y-12325445D01*
X6910539Y-12325445D02*
X6891491Y-12296873D01*
X6891491Y-12296873D02*
X6881968Y-12277826D01*
X6881968Y-12277826D02*
X6872444Y-12249254D01*
X6872444Y-12249254D02*
X6862920Y-12201635D01*
X6862920Y-12201635D02*
X6862920Y-12163540D01*
X6862920Y-12163540D02*
X6872444Y-12115921D01*
X6872444Y-12115921D02*
X6881968Y-12087350D01*
X6881968Y-12087350D02*
X6891491Y-12068302D01*
X6891491Y-12068302D02*
X6910539Y-12039730D01*
X6910539Y-12039730D02*
X6920063Y-12030207D01*
X6977206Y-12058778D02*
X7101015Y-12058778D01*
X7101015Y-12058778D02*
X7034348Y-12134969D01*
X7034348Y-12134969D02*
X7062920Y-12134969D01*
X7062920Y-12134969D02*
X7081968Y-12144492D01*
X7081968Y-12144492D02*
X7091491Y-12154016D01*
X7091491Y-12154016D02*
X7101015Y-12173064D01*
X7101015Y-12173064D02*
X7101015Y-12220683D01*
X7101015Y-12220683D02*
X7091491Y-12239730D01*
X7091491Y-12239730D02*
X7081968Y-12249254D01*
X7081968Y-12249254D02*
X7062920Y-12258778D01*
X7062920Y-12258778D02*
X7005777Y-12258778D01*
X7005777Y-12258778D02*
X6986729Y-12249254D01*
X6986729Y-12249254D02*
X6977206Y-12239730D01*
X7177206Y-12077826D02*
X7186729Y-12068302D01*
X7186729Y-12068302D02*
X7205777Y-12058778D01*
X7205777Y-12058778D02*
X7253396Y-12058778D01*
X7253396Y-12058778D02*
X7272444Y-12068302D01*
X7272444Y-12068302D02*
X7281968Y-12077826D01*
X7281968Y-12077826D02*
X7291491Y-12096873D01*
X7291491Y-12096873D02*
X7291491Y-12115921D01*
X7291491Y-12115921D02*
X7281968Y-12144492D01*
X7281968Y-12144492D02*
X7167682Y-12258778D01*
X7167682Y-12258778D02*
X7291491Y-12258778D01*
X7529587Y-12258778D02*
X7529587Y-12058778D01*
X7615301Y-12258778D02*
X7615301Y-12154016D01*
X7615301Y-12154016D02*
X7605777Y-12134969D01*
X7605777Y-12134969D02*
X7586730Y-12125445D01*
X7586730Y-12125445D02*
X7558158Y-12125445D01*
X7558158Y-12125445D02*
X7539110Y-12134969D01*
X7539110Y-12134969D02*
X7529587Y-12144492D01*
X7739110Y-12258778D02*
X7720063Y-12249254D01*
X7720063Y-12249254D02*
X7710539Y-12239730D01*
X7710539Y-12239730D02*
X7701015Y-12220683D01*
X7701015Y-12220683D02*
X7701015Y-12163540D01*
X7701015Y-12163540D02*
X7710539Y-12144492D01*
X7710539Y-12144492D02*
X7720063Y-12134969D01*
X7720063Y-12134969D02*
X7739110Y-12125445D01*
X7739110Y-12125445D02*
X7767682Y-12125445D01*
X7767682Y-12125445D02*
X7786730Y-12134969D01*
X7786730Y-12134969D02*
X7796253Y-12144492D01*
X7796253Y-12144492D02*
X7805777Y-12163540D01*
X7805777Y-12163540D02*
X7805777Y-12220683D01*
X7805777Y-12220683D02*
X7796253Y-12239730D01*
X7796253Y-12239730D02*
X7786730Y-12249254D01*
X7786730Y-12249254D02*
X7767682Y-12258778D01*
X7767682Y-12258778D02*
X7739110Y-12258778D01*
X7920063Y-12258778D02*
X7901015Y-12249254D01*
X7901015Y-12249254D02*
X7891491Y-12230207D01*
X7891491Y-12230207D02*
X7891491Y-12058778D01*
X8072444Y-12249254D02*
X8053396Y-12258778D01*
X8053396Y-12258778D02*
X8015301Y-12258778D01*
X8015301Y-12258778D02*
X7996253Y-12249254D01*
X7996253Y-12249254D02*
X7986730Y-12230207D01*
X7986730Y-12230207D02*
X7986730Y-12154016D01*
X7986730Y-12154016D02*
X7996253Y-12134969D01*
X7996253Y-12134969D02*
X8015301Y-12125445D01*
X8015301Y-12125445D02*
X8053396Y-12125445D01*
X8053396Y-12125445D02*
X8072444Y-12134969D01*
X8072444Y-12134969D02*
X8081968Y-12154016D01*
X8081968Y-12154016D02*
X8081968Y-12173064D01*
X8081968Y-12173064D02*
X7986730Y-12192111D01*
X8158158Y-12249254D02*
X8177206Y-12258778D01*
X8177206Y-12258778D02*
X8215301Y-12258778D01*
X8215301Y-12258778D02*
X8234349Y-12249254D01*
X8234349Y-12249254D02*
X8243872Y-12230207D01*
X8243872Y-12230207D02*
X8243872Y-12220683D01*
X8243872Y-12220683D02*
X8234349Y-12201635D01*
X8234349Y-12201635D02*
X8215301Y-12192111D01*
X8215301Y-12192111D02*
X8186730Y-12192111D01*
X8186730Y-12192111D02*
X8167682Y-12182588D01*
X8167682Y-12182588D02*
X8158158Y-12163540D01*
X8158158Y-12163540D02*
X8158158Y-12154016D01*
X8158158Y-12154016D02*
X8167682Y-12134969D01*
X8167682Y-12134969D02*
X8186730Y-12125445D01*
X8186730Y-12125445D02*
X8215301Y-12125445D01*
X8215301Y-12125445D02*
X8234349Y-12134969D01*
X8310539Y-12334969D02*
X8320063Y-12325445D01*
X8320063Y-12325445D02*
X8339111Y-12296873D01*
X8339111Y-12296873D02*
X8348634Y-12277826D01*
X8348634Y-12277826D02*
X8358158Y-12249254D01*
X8358158Y-12249254D02*
X8367682Y-12201635D01*
X8367682Y-12201635D02*
X8367682Y-12163540D01*
X8367682Y-12163540D02*
X8358158Y-12115921D01*
X8358158Y-12115921D02*
X8348634Y-12087350D01*
X8348634Y-12087350D02*
X8339111Y-12068302D01*
X8339111Y-12068302D02*
X8320063Y-12039730D01*
X8320063Y-12039730D02*
X8310539Y-12030207D01*
D15*
X3270000Y-12506294D02*
X3345000Y-12431294D01*
X3270000Y-12356294D01*
X3195000Y-12431294D01*
X3270000Y-12506294D01*
D11*
X3710539Y-12522778D02*
X3596253Y-12522778D01*
X3653396Y-12522778D02*
X3653396Y-12322778D01*
X3653396Y-12322778D02*
X3634348Y-12351350D01*
X3634348Y-12351350D02*
X3615301Y-12370397D01*
X3615301Y-12370397D02*
X3596253Y-12379921D01*
X3796253Y-12503730D02*
X3805777Y-12513254D01*
X3805777Y-12513254D02*
X3796253Y-12522778D01*
X3796253Y-12522778D02*
X3786729Y-12513254D01*
X3786729Y-12513254D02*
X3796253Y-12503730D01*
X3796253Y-12503730D02*
X3796253Y-12522778D01*
X3986729Y-12322778D02*
X3891491Y-12322778D01*
X3891491Y-12322778D02*
X3881967Y-12418016D01*
X3881967Y-12418016D02*
X3891491Y-12408492D01*
X3891491Y-12408492D02*
X3910539Y-12398969D01*
X3910539Y-12398969D02*
X3958158Y-12398969D01*
X3958158Y-12398969D02*
X3977205Y-12408492D01*
X3977205Y-12408492D02*
X3986729Y-12418016D01*
X3986729Y-12418016D02*
X3996253Y-12437064D01*
X3996253Y-12437064D02*
X3996253Y-12484683D01*
X3996253Y-12484683D02*
X3986729Y-12503730D01*
X3986729Y-12503730D02*
X3977205Y-12513254D01*
X3977205Y-12513254D02*
X3958158Y-12522778D01*
X3958158Y-12522778D02*
X3910539Y-12522778D01*
X3910539Y-12522778D02*
X3891491Y-12513254D01*
X3891491Y-12513254D02*
X3881967Y-12503730D01*
X4120062Y-12322778D02*
X4139110Y-12322778D01*
X4139110Y-12322778D02*
X4158158Y-12332302D01*
X4158158Y-12332302D02*
X4167682Y-12341826D01*
X4167682Y-12341826D02*
X4177205Y-12360873D01*
X4177205Y-12360873D02*
X4186729Y-12398969D01*
X4186729Y-12398969D02*
X4186729Y-12446588D01*
X4186729Y-12446588D02*
X4177205Y-12484683D01*
X4177205Y-12484683D02*
X4167682Y-12503730D01*
X4167682Y-12503730D02*
X4158158Y-12513254D01*
X4158158Y-12513254D02*
X4139110Y-12522778D01*
X4139110Y-12522778D02*
X4120062Y-12522778D01*
X4120062Y-12522778D02*
X4101015Y-12513254D01*
X4101015Y-12513254D02*
X4091491Y-12503730D01*
X4091491Y-12503730D02*
X4081967Y-12484683D01*
X4081967Y-12484683D02*
X4072443Y-12446588D01*
X4072443Y-12446588D02*
X4072443Y-12398969D01*
X4072443Y-12398969D02*
X4081967Y-12360873D01*
X4081967Y-12360873D02*
X4091491Y-12341826D01*
X4091491Y-12341826D02*
X4101015Y-12332302D01*
X4101015Y-12332302D02*
X4120062Y-12322778D01*
X4310539Y-12322778D02*
X4329586Y-12322778D01*
X4329586Y-12322778D02*
X4348634Y-12332302D01*
X4348634Y-12332302D02*
X4358158Y-12341826D01*
X4358158Y-12341826D02*
X4367682Y-12360873D01*
X4367682Y-12360873D02*
X4377205Y-12398969D01*
X4377205Y-12398969D02*
X4377205Y-12446588D01*
X4377205Y-12446588D02*
X4367682Y-12484683D01*
X4367682Y-12484683D02*
X4358158Y-12503730D01*
X4358158Y-12503730D02*
X4348634Y-12513254D01*
X4348634Y-12513254D02*
X4329586Y-12522778D01*
X4329586Y-12522778D02*
X4310539Y-12522778D01*
X4310539Y-12522778D02*
X4291491Y-12513254D01*
X4291491Y-12513254D02*
X4281967Y-12503730D01*
X4281967Y-12503730D02*
X4272444Y-12484683D01*
X4272444Y-12484683D02*
X4262920Y-12446588D01*
X4262920Y-12446588D02*
X4262920Y-12398969D01*
X4262920Y-12398969D02*
X4272444Y-12360873D01*
X4272444Y-12360873D02*
X4281967Y-12341826D01*
X4281967Y-12341826D02*
X4291491Y-12332302D01*
X4291491Y-12332302D02*
X4310539Y-12322778D01*
X4462920Y-12522778D02*
X4462920Y-12389445D01*
X4462920Y-12408492D02*
X4472444Y-12398969D01*
X4472444Y-12398969D02*
X4491491Y-12389445D01*
X4491491Y-12389445D02*
X4520063Y-12389445D01*
X4520063Y-12389445D02*
X4539110Y-12398969D01*
X4539110Y-12398969D02*
X4548634Y-12418016D01*
X4548634Y-12418016D02*
X4548634Y-12522778D01*
X4548634Y-12418016D02*
X4558158Y-12398969D01*
X4558158Y-12398969D02*
X4577205Y-12389445D01*
X4577205Y-12389445D02*
X4605777Y-12389445D01*
X4605777Y-12389445D02*
X4624825Y-12398969D01*
X4624825Y-12398969D02*
X4634348Y-12418016D01*
X4634348Y-12418016D02*
X4634348Y-12522778D01*
X4729586Y-12522778D02*
X4729586Y-12389445D01*
X4729586Y-12408492D02*
X4739110Y-12398969D01*
X4739110Y-12398969D02*
X4758158Y-12389445D01*
X4758158Y-12389445D02*
X4786729Y-12389445D01*
X4786729Y-12389445D02*
X4805777Y-12398969D01*
X4805777Y-12398969D02*
X4815301Y-12418016D01*
X4815301Y-12418016D02*
X4815301Y-12522778D01*
X4815301Y-12418016D02*
X4824825Y-12398969D01*
X4824825Y-12398969D02*
X4843872Y-12389445D01*
X4843872Y-12389445D02*
X4872444Y-12389445D01*
X4872444Y-12389445D02*
X4891491Y-12398969D01*
X4891491Y-12398969D02*
X4901015Y-12418016D01*
X4901015Y-12418016D02*
X4901015Y-12522778D01*
X5291491Y-12313254D02*
X5120063Y-12570397D01*
X5548634Y-12322778D02*
X5567682Y-12322778D01*
X5567682Y-12322778D02*
X5586729Y-12332302D01*
X5586729Y-12332302D02*
X5596253Y-12341826D01*
X5596253Y-12341826D02*
X5605777Y-12360873D01*
X5605777Y-12360873D02*
X5615301Y-12398969D01*
X5615301Y-12398969D02*
X5615301Y-12446588D01*
X5615301Y-12446588D02*
X5605777Y-12484683D01*
X5605777Y-12484683D02*
X5596253Y-12503730D01*
X5596253Y-12503730D02*
X5586729Y-12513254D01*
X5586729Y-12513254D02*
X5567682Y-12522778D01*
X5567682Y-12522778D02*
X5548634Y-12522778D01*
X5548634Y-12522778D02*
X5529587Y-12513254D01*
X5529587Y-12513254D02*
X5520063Y-12503730D01*
X5520063Y-12503730D02*
X5510539Y-12484683D01*
X5510539Y-12484683D02*
X5501015Y-12446588D01*
X5501015Y-12446588D02*
X5501015Y-12398969D01*
X5501015Y-12398969D02*
X5510539Y-12360873D01*
X5510539Y-12360873D02*
X5520063Y-12341826D01*
X5520063Y-12341826D02*
X5529587Y-12332302D01*
X5529587Y-12332302D02*
X5548634Y-12322778D01*
X5701015Y-12503730D02*
X5710539Y-12513254D01*
X5710539Y-12513254D02*
X5701015Y-12522778D01*
X5701015Y-12522778D02*
X5691491Y-12513254D01*
X5691491Y-12513254D02*
X5701015Y-12503730D01*
X5701015Y-12503730D02*
X5701015Y-12522778D01*
X5834348Y-12322778D02*
X5853396Y-12322778D01*
X5853396Y-12322778D02*
X5872444Y-12332302D01*
X5872444Y-12332302D02*
X5881967Y-12341826D01*
X5881967Y-12341826D02*
X5891491Y-12360873D01*
X5891491Y-12360873D02*
X5901015Y-12398969D01*
X5901015Y-12398969D02*
X5901015Y-12446588D01*
X5901015Y-12446588D02*
X5891491Y-12484683D01*
X5891491Y-12484683D02*
X5881967Y-12503730D01*
X5881967Y-12503730D02*
X5872444Y-12513254D01*
X5872444Y-12513254D02*
X5853396Y-12522778D01*
X5853396Y-12522778D02*
X5834348Y-12522778D01*
X5834348Y-12522778D02*
X5815301Y-12513254D01*
X5815301Y-12513254D02*
X5805777Y-12503730D01*
X5805777Y-12503730D02*
X5796253Y-12484683D01*
X5796253Y-12484683D02*
X5786729Y-12446588D01*
X5786729Y-12446588D02*
X5786729Y-12398969D01*
X5786729Y-12398969D02*
X5796253Y-12360873D01*
X5796253Y-12360873D02*
X5805777Y-12341826D01*
X5805777Y-12341826D02*
X5815301Y-12332302D01*
X5815301Y-12332302D02*
X5834348Y-12322778D01*
X6081967Y-12322778D02*
X5986729Y-12322778D01*
X5986729Y-12322778D02*
X5977206Y-12418016D01*
X5977206Y-12418016D02*
X5986729Y-12408492D01*
X5986729Y-12408492D02*
X6005777Y-12398969D01*
X6005777Y-12398969D02*
X6053396Y-12398969D01*
X6053396Y-12398969D02*
X6072444Y-12408492D01*
X6072444Y-12408492D02*
X6081967Y-12418016D01*
X6081967Y-12418016D02*
X6091491Y-12437064D01*
X6091491Y-12437064D02*
X6091491Y-12484683D01*
X6091491Y-12484683D02*
X6081967Y-12503730D01*
X6081967Y-12503730D02*
X6072444Y-12513254D01*
X6072444Y-12513254D02*
X6053396Y-12522778D01*
X6053396Y-12522778D02*
X6005777Y-12522778D01*
X6005777Y-12522778D02*
X5986729Y-12513254D01*
X5986729Y-12513254D02*
X5977206Y-12503730D01*
X6186729Y-12522778D02*
X6224825Y-12522778D01*
X6224825Y-12522778D02*
X6243872Y-12513254D01*
X6243872Y-12513254D02*
X6253396Y-12503730D01*
X6253396Y-12503730D02*
X6272444Y-12475159D01*
X6272444Y-12475159D02*
X6281967Y-12437064D01*
X6281967Y-12437064D02*
X6281967Y-12360873D01*
X6281967Y-12360873D02*
X6272444Y-12341826D01*
X6272444Y-12341826D02*
X6262920Y-12332302D01*
X6262920Y-12332302D02*
X6243872Y-12322778D01*
X6243872Y-12322778D02*
X6205777Y-12322778D01*
X6205777Y-12322778D02*
X6186729Y-12332302D01*
X6186729Y-12332302D02*
X6177206Y-12341826D01*
X6177206Y-12341826D02*
X6167682Y-12360873D01*
X6167682Y-12360873D02*
X6167682Y-12408492D01*
X6167682Y-12408492D02*
X6177206Y-12427540D01*
X6177206Y-12427540D02*
X6186729Y-12437064D01*
X6186729Y-12437064D02*
X6205777Y-12446588D01*
X6205777Y-12446588D02*
X6243872Y-12446588D01*
X6243872Y-12446588D02*
X6262920Y-12437064D01*
X6262920Y-12437064D02*
X6272444Y-12427540D01*
X6272444Y-12427540D02*
X6281967Y-12408492D01*
X6472444Y-12522778D02*
X6358158Y-12522778D01*
X6415301Y-12522778D02*
X6415301Y-12322778D01*
X6415301Y-12322778D02*
X6396253Y-12351350D01*
X6396253Y-12351350D02*
X6377206Y-12370397D01*
X6377206Y-12370397D02*
X6358158Y-12379921D01*
X6548634Y-12322778D02*
X6548634Y-12360873D01*
X6624825Y-12322778D02*
X6624825Y-12360873D01*
X6920063Y-12598969D02*
X6910539Y-12589445D01*
X6910539Y-12589445D02*
X6891491Y-12560873D01*
X6891491Y-12560873D02*
X6881968Y-12541826D01*
X6881968Y-12541826D02*
X6872444Y-12513254D01*
X6872444Y-12513254D02*
X6862920Y-12465635D01*
X6862920Y-12465635D02*
X6862920Y-12427540D01*
X6862920Y-12427540D02*
X6872444Y-12379921D01*
X6872444Y-12379921D02*
X6881968Y-12351350D01*
X6881968Y-12351350D02*
X6891491Y-12332302D01*
X6891491Y-12332302D02*
X6910539Y-12303730D01*
X6910539Y-12303730D02*
X6920063Y-12294207D01*
X6986729Y-12341826D02*
X6996253Y-12332302D01*
X6996253Y-12332302D02*
X7015301Y-12322778D01*
X7015301Y-12322778D02*
X7062920Y-12322778D01*
X7062920Y-12322778D02*
X7081968Y-12332302D01*
X7081968Y-12332302D02*
X7091491Y-12341826D01*
X7091491Y-12341826D02*
X7101015Y-12360873D01*
X7101015Y-12360873D02*
X7101015Y-12379921D01*
X7101015Y-12379921D02*
X7091491Y-12408492D01*
X7091491Y-12408492D02*
X6977206Y-12522778D01*
X6977206Y-12522778D02*
X7101015Y-12522778D01*
X7339110Y-12522778D02*
X7339110Y-12322778D01*
X7424825Y-12522778D02*
X7424825Y-12418016D01*
X7424825Y-12418016D02*
X7415301Y-12398969D01*
X7415301Y-12398969D02*
X7396253Y-12389445D01*
X7396253Y-12389445D02*
X7367682Y-12389445D01*
X7367682Y-12389445D02*
X7348634Y-12398969D01*
X7348634Y-12398969D02*
X7339110Y-12408492D01*
X7548634Y-12522778D02*
X7529587Y-12513254D01*
X7529587Y-12513254D02*
X7520063Y-12503730D01*
X7520063Y-12503730D02*
X7510539Y-12484683D01*
X7510539Y-12484683D02*
X7510539Y-12427540D01*
X7510539Y-12427540D02*
X7520063Y-12408492D01*
X7520063Y-12408492D02*
X7529587Y-12398969D01*
X7529587Y-12398969D02*
X7548634Y-12389445D01*
X7548634Y-12389445D02*
X7577206Y-12389445D01*
X7577206Y-12389445D02*
X7596253Y-12398969D01*
X7596253Y-12398969D02*
X7605777Y-12408492D01*
X7605777Y-12408492D02*
X7615301Y-12427540D01*
X7615301Y-12427540D02*
X7615301Y-12484683D01*
X7615301Y-12484683D02*
X7605777Y-12503730D01*
X7605777Y-12503730D02*
X7596253Y-12513254D01*
X7596253Y-12513254D02*
X7577206Y-12522778D01*
X7577206Y-12522778D02*
X7548634Y-12522778D01*
X7729587Y-12522778D02*
X7710539Y-12513254D01*
X7710539Y-12513254D02*
X7701015Y-12494207D01*
X7701015Y-12494207D02*
X7701015Y-12322778D01*
X7881968Y-12513254D02*
X7862920Y-12522778D01*
X7862920Y-12522778D02*
X7824825Y-12522778D01*
X7824825Y-12522778D02*
X7805777Y-12513254D01*
X7805777Y-12513254D02*
X7796253Y-12494207D01*
X7796253Y-12494207D02*
X7796253Y-12418016D01*
X7796253Y-12418016D02*
X7805777Y-12398969D01*
X7805777Y-12398969D02*
X7824825Y-12389445D01*
X7824825Y-12389445D02*
X7862920Y-12389445D01*
X7862920Y-12389445D02*
X7881968Y-12398969D01*
X7881968Y-12398969D02*
X7891491Y-12418016D01*
X7891491Y-12418016D02*
X7891491Y-12437064D01*
X7891491Y-12437064D02*
X7796253Y-12456111D01*
X7967682Y-12513254D02*
X7986730Y-12522778D01*
X7986730Y-12522778D02*
X8024825Y-12522778D01*
X8024825Y-12522778D02*
X8043872Y-12513254D01*
X8043872Y-12513254D02*
X8053396Y-12494207D01*
X8053396Y-12494207D02*
X8053396Y-12484683D01*
X8053396Y-12484683D02*
X8043872Y-12465635D01*
X8043872Y-12465635D02*
X8024825Y-12456111D01*
X8024825Y-12456111D02*
X7996253Y-12456111D01*
X7996253Y-12456111D02*
X7977206Y-12446588D01*
X7977206Y-12446588D02*
X7967682Y-12427540D01*
X7967682Y-12427540D02*
X7967682Y-12418016D01*
X7967682Y-12418016D02*
X7977206Y-12398969D01*
X7977206Y-12398969D02*
X7996253Y-12389445D01*
X7996253Y-12389445D02*
X8024825Y-12389445D01*
X8024825Y-12389445D02*
X8043872Y-12398969D01*
X8120063Y-12598969D02*
X8129587Y-12589445D01*
X8129587Y-12589445D02*
X8148634Y-12560873D01*
X8148634Y-12560873D02*
X8158158Y-12541826D01*
X8158158Y-12541826D02*
X8167682Y-12513254D01*
X8167682Y-12513254D02*
X8177206Y-12465635D01*
X8177206Y-12465635D02*
X8177206Y-12427540D01*
X8177206Y-12427540D02*
X8167682Y-12379921D01*
X8167682Y-12379921D02*
X8158158Y-12351350D01*
X8158158Y-12351350D02*
X8148634Y-12332302D01*
X8148634Y-12332302D02*
X8129587Y-12303730D01*
X8129587Y-12303730D02*
X8120063Y-12294207D01*
X3145000Y-12601294D02*
X3345000Y-12801294D01*
X3345000Y-12601294D02*
X3145000Y-12801294D01*
X3345000Y-12701294D02*
G75*
G03*
X3345000Y-12701294I-100000J0D01*
G01*
X3586729Y-12592778D02*
X3710539Y-12592778D01*
X3710539Y-12592778D02*
X3643872Y-12668969D01*
X3643872Y-12668969D02*
X3672443Y-12668969D01*
X3672443Y-12668969D02*
X3691491Y-12678492D01*
X3691491Y-12678492D02*
X3701015Y-12688016D01*
X3701015Y-12688016D02*
X3710539Y-12707064D01*
X3710539Y-12707064D02*
X3710539Y-12754683D01*
X3710539Y-12754683D02*
X3701015Y-12773730D01*
X3701015Y-12773730D02*
X3691491Y-12783254D01*
X3691491Y-12783254D02*
X3672443Y-12792778D01*
X3672443Y-12792778D02*
X3615301Y-12792778D01*
X3615301Y-12792778D02*
X3596253Y-12783254D01*
X3596253Y-12783254D02*
X3586729Y-12773730D01*
X3796253Y-12773730D02*
X3805777Y-12783254D01*
X3805777Y-12783254D02*
X3796253Y-12792778D01*
X3796253Y-12792778D02*
X3786729Y-12783254D01*
X3786729Y-12783254D02*
X3796253Y-12773730D01*
X3796253Y-12773730D02*
X3796253Y-12792778D01*
X3881967Y-12611826D02*
X3891491Y-12602302D01*
X3891491Y-12602302D02*
X3910539Y-12592778D01*
X3910539Y-12592778D02*
X3958158Y-12592778D01*
X3958158Y-12592778D02*
X3977205Y-12602302D01*
X3977205Y-12602302D02*
X3986729Y-12611826D01*
X3986729Y-12611826D02*
X3996253Y-12630873D01*
X3996253Y-12630873D02*
X3996253Y-12649921D01*
X3996253Y-12649921D02*
X3986729Y-12678492D01*
X3986729Y-12678492D02*
X3872443Y-12792778D01*
X3872443Y-12792778D02*
X3996253Y-12792778D01*
X4120062Y-12592778D02*
X4139110Y-12592778D01*
X4139110Y-12592778D02*
X4158158Y-12602302D01*
X4158158Y-12602302D02*
X4167682Y-12611826D01*
X4167682Y-12611826D02*
X4177205Y-12630873D01*
X4177205Y-12630873D02*
X4186729Y-12668969D01*
X4186729Y-12668969D02*
X4186729Y-12716588D01*
X4186729Y-12716588D02*
X4177205Y-12754683D01*
X4177205Y-12754683D02*
X4167682Y-12773730D01*
X4167682Y-12773730D02*
X4158158Y-12783254D01*
X4158158Y-12783254D02*
X4139110Y-12792778D01*
X4139110Y-12792778D02*
X4120062Y-12792778D01*
X4120062Y-12792778D02*
X4101015Y-12783254D01*
X4101015Y-12783254D02*
X4091491Y-12773730D01*
X4091491Y-12773730D02*
X4081967Y-12754683D01*
X4081967Y-12754683D02*
X4072443Y-12716588D01*
X4072443Y-12716588D02*
X4072443Y-12668969D01*
X4072443Y-12668969D02*
X4081967Y-12630873D01*
X4081967Y-12630873D02*
X4091491Y-12611826D01*
X4091491Y-12611826D02*
X4101015Y-12602302D01*
X4101015Y-12602302D02*
X4120062Y-12592778D01*
X4310539Y-12592778D02*
X4329586Y-12592778D01*
X4329586Y-12592778D02*
X4348634Y-12602302D01*
X4348634Y-12602302D02*
X4358158Y-12611826D01*
X4358158Y-12611826D02*
X4367682Y-12630873D01*
X4367682Y-12630873D02*
X4377205Y-12668969D01*
X4377205Y-12668969D02*
X4377205Y-12716588D01*
X4377205Y-12716588D02*
X4367682Y-12754683D01*
X4367682Y-12754683D02*
X4358158Y-12773730D01*
X4358158Y-12773730D02*
X4348634Y-12783254D01*
X4348634Y-12783254D02*
X4329586Y-12792778D01*
X4329586Y-12792778D02*
X4310539Y-12792778D01*
X4310539Y-12792778D02*
X4291491Y-12783254D01*
X4291491Y-12783254D02*
X4281967Y-12773730D01*
X4281967Y-12773730D02*
X4272444Y-12754683D01*
X4272444Y-12754683D02*
X4262920Y-12716588D01*
X4262920Y-12716588D02*
X4262920Y-12668969D01*
X4262920Y-12668969D02*
X4272444Y-12630873D01*
X4272444Y-12630873D02*
X4281967Y-12611826D01*
X4281967Y-12611826D02*
X4291491Y-12602302D01*
X4291491Y-12602302D02*
X4310539Y-12592778D01*
X4462920Y-12792778D02*
X4462920Y-12659445D01*
X4462920Y-12678492D02*
X4472444Y-12668969D01*
X4472444Y-12668969D02*
X4491491Y-12659445D01*
X4491491Y-12659445D02*
X4520063Y-12659445D01*
X4520063Y-12659445D02*
X4539110Y-12668969D01*
X4539110Y-12668969D02*
X4548634Y-12688016D01*
X4548634Y-12688016D02*
X4548634Y-12792778D01*
X4548634Y-12688016D02*
X4558158Y-12668969D01*
X4558158Y-12668969D02*
X4577205Y-12659445D01*
X4577205Y-12659445D02*
X4605777Y-12659445D01*
X4605777Y-12659445D02*
X4624825Y-12668969D01*
X4624825Y-12668969D02*
X4634348Y-12688016D01*
X4634348Y-12688016D02*
X4634348Y-12792778D01*
X4729586Y-12792778D02*
X4729586Y-12659445D01*
X4729586Y-12678492D02*
X4739110Y-12668969D01*
X4739110Y-12668969D02*
X4758158Y-12659445D01*
X4758158Y-12659445D02*
X4786729Y-12659445D01*
X4786729Y-12659445D02*
X4805777Y-12668969D01*
X4805777Y-12668969D02*
X4815301Y-12688016D01*
X4815301Y-12688016D02*
X4815301Y-12792778D01*
X4815301Y-12688016D02*
X4824825Y-12668969D01*
X4824825Y-12668969D02*
X4843872Y-12659445D01*
X4843872Y-12659445D02*
X4872444Y-12659445D01*
X4872444Y-12659445D02*
X4891491Y-12668969D01*
X4891491Y-12668969D02*
X4901015Y-12688016D01*
X4901015Y-12688016D02*
X4901015Y-12792778D01*
X5291491Y-12583254D02*
X5120063Y-12840397D01*
X5548634Y-12592778D02*
X5567682Y-12592778D01*
X5567682Y-12592778D02*
X5586729Y-12602302D01*
X5586729Y-12602302D02*
X5596253Y-12611826D01*
X5596253Y-12611826D02*
X5605777Y-12630873D01*
X5605777Y-12630873D02*
X5615301Y-12668969D01*
X5615301Y-12668969D02*
X5615301Y-12716588D01*
X5615301Y-12716588D02*
X5605777Y-12754683D01*
X5605777Y-12754683D02*
X5596253Y-12773730D01*
X5596253Y-12773730D02*
X5586729Y-12783254D01*
X5586729Y-12783254D02*
X5567682Y-12792778D01*
X5567682Y-12792778D02*
X5548634Y-12792778D01*
X5548634Y-12792778D02*
X5529587Y-12783254D01*
X5529587Y-12783254D02*
X5520063Y-12773730D01*
X5520063Y-12773730D02*
X5510539Y-12754683D01*
X5510539Y-12754683D02*
X5501015Y-12716588D01*
X5501015Y-12716588D02*
X5501015Y-12668969D01*
X5501015Y-12668969D02*
X5510539Y-12630873D01*
X5510539Y-12630873D02*
X5520063Y-12611826D01*
X5520063Y-12611826D02*
X5529587Y-12602302D01*
X5529587Y-12602302D02*
X5548634Y-12592778D01*
X5701015Y-12773730D02*
X5710539Y-12783254D01*
X5710539Y-12783254D02*
X5701015Y-12792778D01*
X5701015Y-12792778D02*
X5691491Y-12783254D01*
X5691491Y-12783254D02*
X5701015Y-12773730D01*
X5701015Y-12773730D02*
X5701015Y-12792778D01*
X5901015Y-12792778D02*
X5786729Y-12792778D01*
X5843872Y-12792778D02*
X5843872Y-12592778D01*
X5843872Y-12592778D02*
X5824825Y-12621350D01*
X5824825Y-12621350D02*
X5805777Y-12640397D01*
X5805777Y-12640397D02*
X5786729Y-12649921D01*
X5977206Y-12611826D02*
X5986729Y-12602302D01*
X5986729Y-12602302D02*
X6005777Y-12592778D01*
X6005777Y-12592778D02*
X6053396Y-12592778D01*
X6053396Y-12592778D02*
X6072444Y-12602302D01*
X6072444Y-12602302D02*
X6081967Y-12611826D01*
X6081967Y-12611826D02*
X6091491Y-12630873D01*
X6091491Y-12630873D02*
X6091491Y-12649921D01*
X6091491Y-12649921D02*
X6081967Y-12678492D01*
X6081967Y-12678492D02*
X5967682Y-12792778D01*
X5967682Y-12792778D02*
X6091491Y-12792778D01*
X6262920Y-12592778D02*
X6224825Y-12592778D01*
X6224825Y-12592778D02*
X6205777Y-12602302D01*
X6205777Y-12602302D02*
X6196253Y-12611826D01*
X6196253Y-12611826D02*
X6177206Y-12640397D01*
X6177206Y-12640397D02*
X6167682Y-12678492D01*
X6167682Y-12678492D02*
X6167682Y-12754683D01*
X6167682Y-12754683D02*
X6177206Y-12773730D01*
X6177206Y-12773730D02*
X6186729Y-12783254D01*
X6186729Y-12783254D02*
X6205777Y-12792778D01*
X6205777Y-12792778D02*
X6243872Y-12792778D01*
X6243872Y-12792778D02*
X6262920Y-12783254D01*
X6262920Y-12783254D02*
X6272444Y-12773730D01*
X6272444Y-12773730D02*
X6281967Y-12754683D01*
X6281967Y-12754683D02*
X6281967Y-12707064D01*
X6281967Y-12707064D02*
X6272444Y-12688016D01*
X6272444Y-12688016D02*
X6262920Y-12678492D01*
X6262920Y-12678492D02*
X6243872Y-12668969D01*
X6243872Y-12668969D02*
X6205777Y-12668969D01*
X6205777Y-12668969D02*
X6186729Y-12678492D01*
X6186729Y-12678492D02*
X6177206Y-12688016D01*
X6177206Y-12688016D02*
X6167682Y-12707064D01*
X6405777Y-12592778D02*
X6424825Y-12592778D01*
X6424825Y-12592778D02*
X6443872Y-12602302D01*
X6443872Y-12602302D02*
X6453396Y-12611826D01*
X6453396Y-12611826D02*
X6462920Y-12630873D01*
X6462920Y-12630873D02*
X6472444Y-12668969D01*
X6472444Y-12668969D02*
X6472444Y-12716588D01*
X6472444Y-12716588D02*
X6462920Y-12754683D01*
X6462920Y-12754683D02*
X6453396Y-12773730D01*
X6453396Y-12773730D02*
X6443872Y-12783254D01*
X6443872Y-12783254D02*
X6424825Y-12792778D01*
X6424825Y-12792778D02*
X6405777Y-12792778D01*
X6405777Y-12792778D02*
X6386729Y-12783254D01*
X6386729Y-12783254D02*
X6377206Y-12773730D01*
X6377206Y-12773730D02*
X6367682Y-12754683D01*
X6367682Y-12754683D02*
X6358158Y-12716588D01*
X6358158Y-12716588D02*
X6358158Y-12668969D01*
X6358158Y-12668969D02*
X6367682Y-12630873D01*
X6367682Y-12630873D02*
X6377206Y-12611826D01*
X6377206Y-12611826D02*
X6386729Y-12602302D01*
X6386729Y-12602302D02*
X6405777Y-12592778D01*
X6548634Y-12592778D02*
X6548634Y-12630873D01*
X6624825Y-12592778D02*
X6624825Y-12630873D01*
X6920063Y-12868969D02*
X6910539Y-12859445D01*
X6910539Y-12859445D02*
X6891491Y-12830873D01*
X6891491Y-12830873D02*
X6881968Y-12811826D01*
X6881968Y-12811826D02*
X6872444Y-12783254D01*
X6872444Y-12783254D02*
X6862920Y-12735635D01*
X6862920Y-12735635D02*
X6862920Y-12697540D01*
X6862920Y-12697540D02*
X6872444Y-12649921D01*
X6872444Y-12649921D02*
X6881968Y-12621350D01*
X6881968Y-12621350D02*
X6891491Y-12602302D01*
X6891491Y-12602302D02*
X6910539Y-12573730D01*
X6910539Y-12573730D02*
X6920063Y-12564207D01*
X7101015Y-12792778D02*
X6986729Y-12792778D01*
X7043872Y-12792778D02*
X7043872Y-12592778D01*
X7043872Y-12592778D02*
X7024825Y-12621350D01*
X7024825Y-12621350D02*
X7005777Y-12640397D01*
X7005777Y-12640397D02*
X6986729Y-12649921D01*
X7291491Y-12792778D02*
X7177206Y-12792778D01*
X7234348Y-12792778D02*
X7234348Y-12592778D01*
X7234348Y-12592778D02*
X7215301Y-12621350D01*
X7215301Y-12621350D02*
X7196253Y-12640397D01*
X7196253Y-12640397D02*
X7177206Y-12649921D01*
X7529587Y-12792778D02*
X7529587Y-12592778D01*
X7615301Y-12792778D02*
X7615301Y-12688016D01*
X7615301Y-12688016D02*
X7605777Y-12668969D01*
X7605777Y-12668969D02*
X7586730Y-12659445D01*
X7586730Y-12659445D02*
X7558158Y-12659445D01*
X7558158Y-12659445D02*
X7539110Y-12668969D01*
X7539110Y-12668969D02*
X7529587Y-12678492D01*
X7739110Y-12792778D02*
X7720063Y-12783254D01*
X7720063Y-12783254D02*
X7710539Y-12773730D01*
X7710539Y-12773730D02*
X7701015Y-12754683D01*
X7701015Y-12754683D02*
X7701015Y-12697540D01*
X7701015Y-12697540D02*
X7710539Y-12678492D01*
X7710539Y-12678492D02*
X7720063Y-12668969D01*
X7720063Y-12668969D02*
X7739110Y-12659445D01*
X7739110Y-12659445D02*
X7767682Y-12659445D01*
X7767682Y-12659445D02*
X7786730Y-12668969D01*
X7786730Y-12668969D02*
X7796253Y-12678492D01*
X7796253Y-12678492D02*
X7805777Y-12697540D01*
X7805777Y-12697540D02*
X7805777Y-12754683D01*
X7805777Y-12754683D02*
X7796253Y-12773730D01*
X7796253Y-12773730D02*
X7786730Y-12783254D01*
X7786730Y-12783254D02*
X7767682Y-12792778D01*
X7767682Y-12792778D02*
X7739110Y-12792778D01*
X7920063Y-12792778D02*
X7901015Y-12783254D01*
X7901015Y-12783254D02*
X7891491Y-12764207D01*
X7891491Y-12764207D02*
X7891491Y-12592778D01*
X8072444Y-12783254D02*
X8053396Y-12792778D01*
X8053396Y-12792778D02*
X8015301Y-12792778D01*
X8015301Y-12792778D02*
X7996253Y-12783254D01*
X7996253Y-12783254D02*
X7986730Y-12764207D01*
X7986730Y-12764207D02*
X7986730Y-12688016D01*
X7986730Y-12688016D02*
X7996253Y-12668969D01*
X7996253Y-12668969D02*
X8015301Y-12659445D01*
X8015301Y-12659445D02*
X8053396Y-12659445D01*
X8053396Y-12659445D02*
X8072444Y-12668969D01*
X8072444Y-12668969D02*
X8081968Y-12688016D01*
X8081968Y-12688016D02*
X8081968Y-12707064D01*
X8081968Y-12707064D02*
X7986730Y-12726111D01*
X8158158Y-12783254D02*
X8177206Y-12792778D01*
X8177206Y-12792778D02*
X8215301Y-12792778D01*
X8215301Y-12792778D02*
X8234349Y-12783254D01*
X8234349Y-12783254D02*
X8243872Y-12764207D01*
X8243872Y-12764207D02*
X8243872Y-12754683D01*
X8243872Y-12754683D02*
X8234349Y-12735635D01*
X8234349Y-12735635D02*
X8215301Y-12726111D01*
X8215301Y-12726111D02*
X8186730Y-12726111D01*
X8186730Y-12726111D02*
X8167682Y-12716588D01*
X8167682Y-12716588D02*
X8158158Y-12697540D01*
X8158158Y-12697540D02*
X8158158Y-12688016D01*
X8158158Y-12688016D02*
X8167682Y-12668969D01*
X8167682Y-12668969D02*
X8186730Y-12659445D01*
X8186730Y-12659445D02*
X8215301Y-12659445D01*
X8215301Y-12659445D02*
X8234349Y-12668969D01*
X8310539Y-12868969D02*
X8320063Y-12859445D01*
X8320063Y-12859445D02*
X8339111Y-12830873D01*
X8339111Y-12830873D02*
X8348634Y-12811826D01*
X8348634Y-12811826D02*
X8358158Y-12783254D01*
X8358158Y-12783254D02*
X8367682Y-12735635D01*
X8367682Y-12735635D02*
X8367682Y-12697540D01*
X8367682Y-12697540D02*
X8358158Y-12649921D01*
X8358158Y-12649921D02*
X8348634Y-12621350D01*
X8348634Y-12621350D02*
X8339111Y-12602302D01*
X8339111Y-12602302D02*
X8320063Y-12573730D01*
X8320063Y-12573730D02*
X8310539Y-12564207D01*
M02*
