%TF.GenerationSoftware,KiCad,Pcbnew,8.0.3*%
%TF.CreationDate,2024-06-26T22:05:55-03:00*%
%TF.ProjectId,PECDR,50454344-522e-46b6-9963-61645f706362,rev?*%
%TF.SameCoordinates,Original*%
%TF.FileFunction,Soldermask,Top*%
%TF.FilePolarity,Negative*%
%FSLAX46Y46*%
G04 Gerber Fmt 4.6, Leading zero omitted, Abs format (unit mm)*
G04 Created by KiCad (PCBNEW 8.0.3) date 2024-06-26 22:05:55*
%MOMM*%
%LPD*%
G01*
G04 APERTURE LIST*
G04 Aperture macros list*
%AMRoundRect*
0 Rectangle with rounded corners*
0 $1 Rounding radius*
0 $2 $3 $4 $5 $6 $7 $8 $9 X,Y pos of 4 corners*
0 Add a 4 corners polygon primitive as box body*
4,1,4,$2,$3,$4,$5,$6,$7,$8,$9,$2,$3,0*
0 Add four circle primitives for the rounded corners*
1,1,$1+$1,$2,$3*
1,1,$1+$1,$4,$5*
1,1,$1+$1,$6,$7*
1,1,$1+$1,$8,$9*
0 Add four rect primitives between the rounded corners*
20,1,$1+$1,$2,$3,$4,$5,0*
20,1,$1+$1,$4,$5,$6,$7,0*
20,1,$1+$1,$6,$7,$8,$9,0*
20,1,$1+$1,$8,$9,$2,$3,0*%
G04 Aperture macros list end*
%ADD10RoundRect,0.250000X0.620000X0.845000X-0.620000X0.845000X-0.620000X-0.845000X0.620000X-0.845000X0*%
%ADD11O,1.740000X2.190000*%
%ADD12C,0.800000*%
%ADD13C,6.400000*%
%ADD14C,1.700000*%
%ADD15O,1.700000X1.700000*%
%ADD16C,1.740000*%
%ADD17RoundRect,0.435000X0.660000X-0.435000X0.660000X0.435000X-0.660000X0.435000X-0.660000X-0.435000X0*%
%ADD18RoundRect,0.412500X-0.837500X-0.412500X0.837500X-0.412500X0.837500X0.412500X-0.837500X0.412500X0*%
%ADD19C,1.300000*%
%ADD20C,1.800000*%
%ADD21C,1.200000*%
%ADD22C,2.500000*%
%ADD23RoundRect,0.250000X-0.325000X-0.450000X0.325000X-0.450000X0.325000X0.450000X-0.325000X0.450000X0*%
%ADD24R,1.700000X1.700000*%
G04 APERTURE END LIST*
D10*
%TO.C,J5*%
X56790000Y-58302944D03*
D11*
X54250000Y-58302944D03*
X51710000Y-58302944D03*
X49170000Y-58302944D03*
%TD*%
D12*
%TO.C,J14*%
X111100000Y-80302944D03*
X111802944Y-78605888D03*
X111802944Y-82000000D03*
X113500000Y-77902944D03*
D13*
X113500000Y-80302944D03*
D12*
X113500000Y-82702944D03*
X115197056Y-78605888D03*
X115197056Y-82000000D03*
X115900000Y-80302944D03*
%TD*%
D14*
%TO.C,J16*%
X98000000Y-65802944D03*
D15*
X100540000Y-65802944D03*
X103080000Y-65802944D03*
%TD*%
D16*
%TO.C,J7*%
X37020000Y-91822944D03*
X37020000Y-89282944D03*
X37020000Y-86742944D03*
X37020000Y-84202944D03*
%TD*%
D12*
%TO.C,J2*%
X99100000Y-102302944D03*
X99802944Y-100605888D03*
X99802944Y-104000000D03*
X101500000Y-99902944D03*
D13*
X101500000Y-102302944D03*
D12*
X101500000Y-104702944D03*
X103197056Y-100605888D03*
X103197056Y-104000000D03*
X103900000Y-102302944D03*
%TD*%
D10*
%TO.C,J11*%
X56790000Y-103302944D03*
D11*
X54250000Y-103302944D03*
X51710000Y-103302944D03*
X49170000Y-103302944D03*
%TD*%
D10*
%TO.C,J10*%
X56790000Y-94302944D03*
D11*
X54250000Y-94302944D03*
X51710000Y-94302944D03*
X49170000Y-94302944D03*
%TD*%
D12*
%TO.C,J3*%
X99100000Y-58302944D03*
X99802944Y-56605888D03*
X99802944Y-60000000D03*
X101500000Y-55902944D03*
D13*
X101500000Y-58302944D03*
D12*
X101500000Y-60702944D03*
X103197056Y-56605888D03*
X103197056Y-60000000D03*
X103900000Y-58302944D03*
%TD*%
%TO.C,J15*%
X111100000Y-88802944D03*
X111802944Y-87105888D03*
X111802944Y-90500000D03*
X113500000Y-86402944D03*
D13*
X113500000Y-88802944D03*
D12*
X113500000Y-91202944D03*
X115197056Y-87105888D03*
X115197056Y-90500000D03*
X115900000Y-88802944D03*
%TD*%
%TO.C,J13*%
X45900000Y-97302944D03*
X45197056Y-99000000D03*
X45197056Y-95605888D03*
X43500000Y-99702944D03*
D13*
X43500000Y-97302944D03*
D12*
X43500000Y-94902944D03*
X41802944Y-99000000D03*
X41802944Y-95605888D03*
X41100000Y-97302944D03*
%TD*%
D10*
%TO.C,J6*%
X56790000Y-67302944D03*
D11*
X54250000Y-67302944D03*
X51710000Y-67302944D03*
X49170000Y-67302944D03*
%TD*%
D12*
%TO.C,J13*%
X110900000Y-97302944D03*
X110197056Y-99000000D03*
X110197056Y-95605888D03*
X108500000Y-99702944D03*
D13*
X108500000Y-97302944D03*
D12*
X108500000Y-94902944D03*
X106802944Y-99000000D03*
X106802944Y-95605888D03*
X106100000Y-97302944D03*
%TD*%
D10*
%TO.C,J9*%
X56790000Y-85302944D03*
D11*
X54250000Y-85302944D03*
X51710000Y-85302944D03*
X49170000Y-85302944D03*
%TD*%
D12*
%TO.C,J13*%
X45900000Y-63302944D03*
X45197056Y-65000000D03*
X45197056Y-61605888D03*
X43500000Y-65702944D03*
D13*
X43500000Y-63302944D03*
D12*
X43500000Y-60902944D03*
X41802944Y-65000000D03*
X41802944Y-61605888D03*
X41100000Y-63302944D03*
%TD*%
D16*
%TO.C,J17*%
X37020000Y-76502944D03*
X37020000Y-73962944D03*
X37020000Y-71422944D03*
D17*
X37020000Y-68882944D03*
%TD*%
D18*
%TO.C,U3*%
X60900000Y-55562944D03*
X60900000Y-58102944D03*
X60900000Y-60642944D03*
X60900000Y-63182944D03*
X60900000Y-65722944D03*
X60900000Y-68262944D03*
X60900000Y-70802944D03*
X60900000Y-73342944D03*
X60900000Y-75882944D03*
X60900000Y-78422944D03*
X60900000Y-80962944D03*
X60900000Y-83502944D03*
X60900000Y-86042944D03*
X60900000Y-88582944D03*
X60900000Y-91122944D03*
X60900000Y-93662944D03*
X60900000Y-96202944D03*
X60900000Y-98742944D03*
X60900000Y-101282944D03*
X60900000Y-103822944D03*
X81982000Y-103822944D03*
X81982000Y-101282944D03*
X81982000Y-98742944D03*
X81982000Y-96202944D03*
X81982000Y-93662944D03*
X81982000Y-91122944D03*
X81982000Y-88582944D03*
X81982000Y-86042944D03*
X81982000Y-83502944D03*
X81982000Y-80962944D03*
X81982000Y-78422944D03*
X81982000Y-75882944D03*
X81982000Y-73342944D03*
X81982000Y-70802944D03*
X81982000Y-68262944D03*
X81982000Y-65722944D03*
X81982000Y-63182944D03*
X81982000Y-60642944D03*
X81982000Y-58102944D03*
X81982000Y-55562944D03*
%TD*%
D12*
%TO.C,J1*%
X89600000Y-58302944D03*
X90302944Y-56605888D03*
X90302944Y-60000000D03*
X92000000Y-55902944D03*
D13*
X92000000Y-58302944D03*
D12*
X92000000Y-60702944D03*
X93697056Y-56605888D03*
X93697056Y-60000000D03*
X94400000Y-58302944D03*
%TD*%
%TO.C,J12*%
X89600000Y-102302944D03*
X90302944Y-100605888D03*
X90302944Y-104000000D03*
X92000000Y-99902944D03*
D13*
X92000000Y-102302944D03*
D12*
X92000000Y-104702944D03*
X93697056Y-100605888D03*
X93697056Y-104000000D03*
X94400000Y-102302944D03*
%TD*%
D19*
%TO.C,U5*%
X90000000Y-71522944D03*
D20*
X95080000Y-72792944D03*
X90000000Y-74062944D03*
X95080000Y-75332944D03*
D21*
X90000000Y-76602944D03*
X95080000Y-77872944D03*
X90000000Y-79142944D03*
D22*
X101210000Y-71422944D03*
D21*
X95080000Y-80412944D03*
D22*
X101110000Y-89422944D03*
D21*
X90000000Y-81682944D03*
X95080000Y-82952944D03*
X90000000Y-84222944D03*
X95080000Y-85492944D03*
D20*
X90000000Y-86762944D03*
X95080000Y-88032944D03*
D19*
X90000000Y-89302944D03*
%TD*%
D23*
%TO.C,D10*%
X37475000Y-57302944D03*
X39525000Y-57302944D03*
%TD*%
D12*
%TO.C,J4*%
X111100000Y-71802944D03*
X111802944Y-70105888D03*
X111802944Y-73500000D03*
X113500000Y-69402944D03*
D13*
X113500000Y-71802944D03*
D12*
X113500000Y-74202944D03*
X115197056Y-70105888D03*
X115197056Y-73500000D03*
X115900000Y-71802944D03*
%TD*%
D10*
%TO.C,J8*%
X56790000Y-76302944D03*
D11*
X54250000Y-76302944D03*
X51710000Y-76302944D03*
X49170000Y-76302944D03*
%TD*%
D12*
%TO.C,J13*%
X110900000Y-63302944D03*
X110197056Y-65000000D03*
X110197056Y-61605888D03*
X108500000Y-65702944D03*
D13*
X108500000Y-63302944D03*
D12*
X108500000Y-60902944D03*
X106802944Y-65000000D03*
X106802944Y-61605888D03*
X106100000Y-63302944D03*
%TD*%
D24*
%TO.C,JP1*%
X85500000Y-77062944D03*
D15*
X85500000Y-79602944D03*
%TD*%
M02*
