%TF.GenerationSoftware,KiCad,Pcbnew,8.0.3*%
%TF.CreationDate,2024-06-26T22:05:55-03:00*%
%TF.ProjectId,PECDR,50454344-522e-46b6-9963-61645f706362,rev?*%
%TF.SameCoordinates,Original*%
%TF.FileFunction,Soldermask,Bot*%
%TF.FilePolarity,Negative*%
%FSLAX46Y46*%
G04 Gerber Fmt 4.6, Leading zero omitted, Abs format (unit mm)*
G04 Created by KiCad (PCBNEW 8.0.3) date 2024-06-26 22:05:55*
%MOMM*%
%LPD*%
G01*
G04 APERTURE LIST*
G04 Aperture macros list*
%AMRoundRect*
0 Rectangle with rounded corners*
0 $1 Rounding radius*
0 $2 $3 $4 $5 $6 $7 $8 $9 X,Y pos of 4 corners*
0 Add a 4 corners polygon primitive as box body*
4,1,4,$2,$3,$4,$5,$6,$7,$8,$9,$2,$3,0*
0 Add four circle primitives for the rounded corners*
1,1,$1+$1,$2,$3*
1,1,$1+$1,$4,$5*
1,1,$1+$1,$6,$7*
1,1,$1+$1,$8,$9*
0 Add four rect primitives between the rounded corners*
20,1,$1+$1,$2,$3,$4,$5,0*
20,1,$1+$1,$4,$5,$6,$7,0*
20,1,$1+$1,$6,$7,$8,$9,0*
20,1,$1+$1,$8,$9,$2,$3,0*%
G04 Aperture macros list end*
%ADD10RoundRect,0.250000X0.620000X0.845000X-0.620000X0.845000X-0.620000X-0.845000X0.620000X-0.845000X0*%
%ADD11O,1.740000X2.190000*%
%ADD12C,0.800000*%
%ADD13C,6.400000*%
%ADD14C,1.700000*%
%ADD15O,1.700000X1.700000*%
%ADD16C,1.740000*%
%ADD17RoundRect,0.435000X0.660000X-0.435000X0.660000X0.435000X-0.660000X0.435000X-0.660000X-0.435000X0*%
%ADD18C,1.300000*%
%ADD19C,1.800000*%
%ADD20C,1.200000*%
%ADD21C,2.500000*%
%ADD22R,1.700000X1.700000*%
%ADD23RoundRect,0.237500X0.250000X0.237500X-0.250000X0.237500X-0.250000X-0.237500X0.250000X-0.237500X0*%
%ADD24RoundRect,0.237500X-0.237500X0.250000X-0.237500X-0.250000X0.237500X-0.250000X0.237500X0.250000X0*%
%ADD25R,2.000000X0.700000*%
%ADD26RoundRect,0.237500X0.237500X-0.250000X0.237500X0.250000X-0.237500X0.250000X-0.237500X-0.250000X0*%
%ADD27RoundRect,0.237500X-0.250000X-0.237500X0.250000X-0.237500X0.250000X0.237500X-0.250000X0.237500X0*%
%ADD28RoundRect,0.250000X1.500000X0.550000X-1.500000X0.550000X-1.500000X-0.550000X1.500000X-0.550000X0*%
%ADD29RoundRect,0.250000X-1.500000X-0.550000X1.500000X-0.550000X1.500000X0.550000X-1.500000X0.550000X0*%
%ADD30RoundRect,0.237500X0.237500X-0.300000X0.237500X0.300000X-0.237500X0.300000X-0.237500X-0.300000X0*%
%ADD31RoundRect,0.237500X0.300000X0.237500X-0.300000X0.237500X-0.300000X-0.237500X0.300000X-0.237500X0*%
%ADD32RoundRect,0.237500X-0.300000X-0.237500X0.300000X-0.237500X0.300000X0.237500X-0.300000X0.237500X0*%
%ADD33RoundRect,0.250000X-0.325000X-0.450000X0.325000X-0.450000X0.325000X0.450000X-0.325000X0.450000X0*%
%ADD34RoundRect,0.250000X-1.500000X-0.650000X1.500000X-0.650000X1.500000X0.650000X-1.500000X0.650000X0*%
%ADD35RoundRect,0.237500X-0.287500X-0.237500X0.287500X-0.237500X0.287500X0.237500X-0.287500X0.237500X0*%
%ADD36RoundRect,0.250000X-0.088388X0.548008X-0.548008X0.088388X0.088388X-0.548008X0.548008X-0.088388X0*%
%ADD37RoundRect,0.250000X0.325000X0.450000X-0.325000X0.450000X-0.325000X-0.450000X0.325000X-0.450000X0*%
%ADD38R,0.700000X2.000000*%
%ADD39R,1.600000X2.200000*%
%ADD40R,0.650000X1.500000*%
%ADD41R,1.800000X1.350000*%
%ADD42RoundRect,0.250000X0.088388X-0.548008X0.548008X-0.088388X-0.088388X0.548008X-0.548008X0.088388X0*%
%ADD43RoundRect,0.150000X-0.675000X-0.150000X0.675000X-0.150000X0.675000X0.150000X-0.675000X0.150000X0*%
%ADD44RoundRect,0.237500X-0.237500X0.300000X-0.237500X-0.300000X0.237500X-0.300000X0.237500X0.300000X0*%
G04 APERTURE END LIST*
D10*
%TO.C,J5*%
X56790000Y-58302944D03*
D11*
X54250000Y-58302944D03*
X51710000Y-58302944D03*
X49170000Y-58302944D03*
%TD*%
D12*
%TO.C,J14*%
X111100000Y-80302944D03*
X111802944Y-78605888D03*
X111802944Y-82000000D03*
X113500000Y-77902944D03*
D13*
X113500000Y-80302944D03*
D12*
X113500000Y-82702944D03*
X115197056Y-78605888D03*
X115197056Y-82000000D03*
X115900000Y-80302944D03*
%TD*%
D14*
%TO.C,J16*%
X98000000Y-65802944D03*
D15*
X100540000Y-65802944D03*
X103080000Y-65802944D03*
%TD*%
D16*
%TO.C,J7*%
X37020000Y-91822944D03*
X37020000Y-89282944D03*
X37020000Y-86742944D03*
X37020000Y-84202944D03*
%TD*%
D12*
%TO.C,J2*%
X99100000Y-102302944D03*
X99802944Y-100605888D03*
X99802944Y-104000000D03*
X101500000Y-99902944D03*
D13*
X101500000Y-102302944D03*
D12*
X101500000Y-104702944D03*
X103197056Y-100605888D03*
X103197056Y-104000000D03*
X103900000Y-102302944D03*
%TD*%
D10*
%TO.C,J11*%
X56790000Y-103302944D03*
D11*
X54250000Y-103302944D03*
X51710000Y-103302944D03*
X49170000Y-103302944D03*
%TD*%
D10*
%TO.C,J10*%
X56790000Y-94302944D03*
D11*
X54250000Y-94302944D03*
X51710000Y-94302944D03*
X49170000Y-94302944D03*
%TD*%
D12*
%TO.C,J3*%
X99100000Y-58302944D03*
X99802944Y-56605888D03*
X99802944Y-60000000D03*
X101500000Y-55902944D03*
D13*
X101500000Y-58302944D03*
D12*
X101500000Y-60702944D03*
X103197056Y-56605888D03*
X103197056Y-60000000D03*
X103900000Y-58302944D03*
%TD*%
%TO.C,J15*%
X111100000Y-88802944D03*
X111802944Y-87105888D03*
X111802944Y-90500000D03*
X113500000Y-86402944D03*
D13*
X113500000Y-88802944D03*
D12*
X113500000Y-91202944D03*
X115197056Y-87105888D03*
X115197056Y-90500000D03*
X115900000Y-88802944D03*
%TD*%
%TO.C,J13*%
X45900000Y-97302944D03*
X45197056Y-99000000D03*
X45197056Y-95605888D03*
X43500000Y-99702944D03*
D13*
X43500000Y-97302944D03*
D12*
X43500000Y-94902944D03*
X41802944Y-99000000D03*
X41802944Y-95605888D03*
X41100000Y-97302944D03*
%TD*%
D10*
%TO.C,J6*%
X56790000Y-67302944D03*
D11*
X54250000Y-67302944D03*
X51710000Y-67302944D03*
X49170000Y-67302944D03*
%TD*%
D12*
%TO.C,J13*%
X110900000Y-97302944D03*
X110197056Y-99000000D03*
X110197056Y-95605888D03*
X108500000Y-99702944D03*
D13*
X108500000Y-97302944D03*
D12*
X108500000Y-94902944D03*
X106802944Y-99000000D03*
X106802944Y-95605888D03*
X106100000Y-97302944D03*
%TD*%
D10*
%TO.C,J9*%
X56790000Y-85302944D03*
D11*
X54250000Y-85302944D03*
X51710000Y-85302944D03*
X49170000Y-85302944D03*
%TD*%
D12*
%TO.C,J13*%
X45900000Y-63302944D03*
X45197056Y-65000000D03*
X45197056Y-61605888D03*
X43500000Y-65702944D03*
D13*
X43500000Y-63302944D03*
D12*
X43500000Y-60902944D03*
X41802944Y-65000000D03*
X41802944Y-61605888D03*
X41100000Y-63302944D03*
%TD*%
D16*
%TO.C,J17*%
X37020000Y-76502944D03*
X37020000Y-73962944D03*
X37020000Y-71422944D03*
D17*
X37020000Y-68882944D03*
%TD*%
D12*
%TO.C,J1*%
X89600000Y-58302944D03*
X90302944Y-56605888D03*
X90302944Y-60000000D03*
X92000000Y-55902944D03*
D13*
X92000000Y-58302944D03*
D12*
X92000000Y-60702944D03*
X93697056Y-56605888D03*
X93697056Y-60000000D03*
X94400000Y-58302944D03*
%TD*%
%TO.C,J12*%
X89600000Y-102302944D03*
X90302944Y-100605888D03*
X90302944Y-104000000D03*
X92000000Y-99902944D03*
D13*
X92000000Y-102302944D03*
D12*
X92000000Y-104702944D03*
X93697056Y-100605888D03*
X93697056Y-104000000D03*
X94400000Y-102302944D03*
%TD*%
D18*
%TO.C,U5*%
X90000000Y-71522944D03*
D19*
X95080000Y-72792944D03*
X90000000Y-74062944D03*
X95080000Y-75332944D03*
D20*
X90000000Y-76602944D03*
X95080000Y-77872944D03*
X90000000Y-79142944D03*
D21*
X101210000Y-71422944D03*
D20*
X95080000Y-80412944D03*
D21*
X101110000Y-89422944D03*
D20*
X90000000Y-81682944D03*
X95080000Y-82952944D03*
X90000000Y-84222944D03*
X95080000Y-85492944D03*
D19*
X90000000Y-86762944D03*
X95080000Y-88032944D03*
D18*
X90000000Y-89302944D03*
%TD*%
D12*
%TO.C,J4*%
X111100000Y-71802944D03*
X111802944Y-70105888D03*
X111802944Y-73500000D03*
X113500000Y-69402944D03*
D13*
X113500000Y-71802944D03*
D12*
X113500000Y-74202944D03*
X115197056Y-70105888D03*
X115197056Y-73500000D03*
X115900000Y-71802944D03*
%TD*%
D10*
%TO.C,J8*%
X56790000Y-76302944D03*
D11*
X54250000Y-76302944D03*
X51710000Y-76302944D03*
X49170000Y-76302944D03*
%TD*%
D12*
%TO.C,J13*%
X110900000Y-63302944D03*
X110197056Y-65000000D03*
X110197056Y-61605888D03*
X108500000Y-65702944D03*
D13*
X108500000Y-63302944D03*
D12*
X108500000Y-60902944D03*
X106802944Y-65000000D03*
X106802944Y-61605888D03*
X106100000Y-63302944D03*
%TD*%
D22*
%TO.C,JP1*%
X85500000Y-77062944D03*
D15*
X85500000Y-79602944D03*
%TD*%
D23*
%TO.C,R19*%
X40925000Y-76302944D03*
X39100000Y-76302944D03*
%TD*%
D24*
%TO.C,R16*%
X51700000Y-71877944D03*
X51700000Y-73702944D03*
%TD*%
D25*
%TO.C,Q2*%
X48000000Y-71902944D03*
X48000000Y-73802944D03*
X44600000Y-72852944D03*
%TD*%
D26*
%TO.C,R21*%
X85500000Y-83527944D03*
X85500000Y-81702944D03*
%TD*%
D27*
%TO.C,R5*%
X75837500Y-67802944D03*
X77662500Y-67802944D03*
%TD*%
D24*
%TO.C,R10*%
X34800000Y-86802944D03*
X34800000Y-88627944D03*
%TD*%
D28*
%TO.C,C4*%
X70400000Y-57302944D03*
X65000000Y-57302944D03*
%TD*%
D29*
%TO.C,C9*%
X73000000Y-81302944D03*
X78400000Y-81302944D03*
%TD*%
D30*
%TO.C,C6*%
X87900000Y-76402944D03*
X87900000Y-74677944D03*
%TD*%
D31*
%TO.C,C3*%
X108100000Y-88702944D03*
X106375000Y-88702944D03*
%TD*%
D32*
%TO.C,C8*%
X77750000Y-69752944D03*
X79475000Y-69752944D03*
%TD*%
D24*
%TO.C,R18*%
X54300000Y-54077944D03*
X54300000Y-55902944D03*
%TD*%
D23*
%TO.C,R20*%
X40925000Y-73902944D03*
X39100000Y-73902944D03*
%TD*%
D33*
%TO.C,D4*%
X90700000Y-63302944D03*
X92750000Y-63302944D03*
%TD*%
D24*
%TO.C,R8*%
X75500000Y-63477944D03*
X75500000Y-65302944D03*
%TD*%
D34*
%TO.C,D1*%
X80750000Y-55552944D03*
X85750000Y-55552944D03*
%TD*%
D30*
%TO.C,C7*%
X64250000Y-66802944D03*
X64250000Y-65077944D03*
%TD*%
D24*
%TO.C,R6*%
X66500000Y-64977944D03*
X66500000Y-66802944D03*
%TD*%
D35*
%TO.C,FB1*%
X75250000Y-55552944D03*
X77000000Y-55552944D03*
%TD*%
D27*
%TO.C,R2*%
X105700000Y-80502944D03*
X107525000Y-80502944D03*
%TD*%
D36*
%TO.C,D8*%
X99449568Y-96853376D03*
X98000000Y-98302944D03*
%TD*%
D37*
%TO.C,D5*%
X92750000Y-66052944D03*
X90700000Y-66052944D03*
%TD*%
D38*
%TO.C,Q1*%
X34800000Y-97002944D03*
X36700000Y-97002944D03*
X35750000Y-100402944D03*
%TD*%
D37*
%TO.C,D2*%
X101750000Y-63302944D03*
X99700000Y-63302944D03*
%TD*%
D23*
%TO.C,R14*%
X46425000Y-76302944D03*
X44600000Y-76302944D03*
%TD*%
D27*
%TO.C,R11*%
X34800000Y-94302944D03*
X36625000Y-94302944D03*
%TD*%
D26*
%TO.C,R15*%
X54300000Y-73702944D03*
X54300000Y-71877944D03*
%TD*%
D24*
%TO.C,R1*%
X110250000Y-83640444D03*
X110250000Y-85465444D03*
%TD*%
D33*
%TO.C,D6*%
X90700000Y-97052944D03*
X92750000Y-97052944D03*
%TD*%
D39*
%TO.C,L1*%
X64300000Y-74302944D03*
X70700000Y-74302944D03*
%TD*%
D24*
%TO.C,R17*%
X56800000Y-54077944D03*
X56800000Y-55902944D03*
%TD*%
D40*
%TO.C,U2*%
X69230000Y-62702944D03*
X70500000Y-62702944D03*
X71770000Y-62702944D03*
X73040000Y-62702944D03*
X73040000Y-68102944D03*
X71770000Y-68102944D03*
X70500000Y-68102944D03*
X69230000Y-68102944D03*
D41*
X72035000Y-64727944D03*
X70235000Y-64727944D03*
X72035000Y-66077944D03*
X70235000Y-66077944D03*
%TD*%
D23*
%TO.C,R13*%
X54975000Y-80702944D03*
X53150000Y-80702944D03*
%TD*%
D35*
%TO.C,FB2*%
X77750000Y-65702944D03*
X79500000Y-65702944D03*
%TD*%
D23*
%TO.C,R9*%
X37600000Y-103402944D03*
X35775000Y-103402944D03*
%TD*%
D37*
%TO.C,D7*%
X92750000Y-94552944D03*
X90700000Y-94552944D03*
%TD*%
D26*
%TO.C,R4*%
X39600000Y-68802944D03*
X39600000Y-66977944D03*
%TD*%
D23*
%TO.C,R3*%
X108100000Y-90702944D03*
X106275000Y-90702944D03*
%TD*%
D37*
%TO.C,D3*%
X97525000Y-63302944D03*
X95475000Y-63302944D03*
%TD*%
D24*
%TO.C,R7*%
X73000000Y-72477944D03*
X73000000Y-74302944D03*
%TD*%
D42*
%TO.C,D9*%
X96000000Y-96302944D03*
X97449568Y-94853376D03*
%TD*%
D23*
%TO.C,R12*%
X56800000Y-78702944D03*
X54975000Y-78702944D03*
%TD*%
D43*
%TO.C,U1*%
X102875000Y-86457944D03*
X102875000Y-85187944D03*
X102875000Y-83917944D03*
X102875000Y-82647944D03*
X108125000Y-82647944D03*
X108125000Y-83917944D03*
X108125000Y-85187944D03*
X108125000Y-86457944D03*
%TD*%
D44*
%TO.C,C1*%
X79500000Y-74440444D03*
X79500000Y-76165444D03*
%TD*%
M02*
