M48
; DRILL file {KiCad 8.0.3} date 2024-06-26T22:06:08-0300
; FORMAT={-:-/ absolute / inch / decimal}
; #@! TF.CreationDate,2024-06-26T22:06:08-03:00
; #@! TF.GenerationSoftware,Kicad,Pcbnew,8.0.3
; #@! TF.FileFunction,Plated,1,4,PTH
FMAT,2
INCH
; #@! TA.AperFunction,Plated,PTH,ViaDrill
T1C0.0157
; #@! TA.AperFunction,Plated,PTH,ComponentDrill
T2C0.0197
; #@! TA.AperFunction,Plated,PTH,ComponentDrill
T3C0.0394
; #@! TA.AperFunction,Plated,PTH,ComponentDrill
T4C0.0469
; #@! TA.AperFunction,Plated,PTH,ComponentDrill
T5C0.0591
; #@! TA.AperFunction,Plated,PTH,ComponentDrill
T6C0.1260
%
G90
G05
T1
X1.378Y-2.197
X1.378Y-2.2954
X1.378Y-2.3938
X1.378Y-2.4922
X1.378Y-2.7875
X1.3976Y-4.1655
X1.4055Y-3.882
X1.4075Y-4.0237
X1.4764Y-2.3938
X1.4764Y-2.4922
X1.5591Y-2.3151
X1.5748Y-2.7875
X1.5748Y-3.2796
X1.5748Y-3.9785
X1.624Y-4.1261
X1.6732Y-2.197
X1.7126Y-3.1222
X1.7126Y-3.5552
X1.8268Y-2.8663
X1.8602Y-2.3544
X1.8602Y-3.5355
X1.8602Y-3.9686
X1.8701Y-3.1714
X1.8701Y-3.2796
X1.9783Y-4.1261
X1.998Y-3.073
X1.998Y-3.2796
X2.0079Y-3.8505
X2.0177Y-3.5159
X2.0354Y-2.7245
X2.0374Y-2.4135
X2.0866Y-2.9056
X2.189Y-2.1655
X2.2116Y-3.2245
X2.2358Y-3.5399
X2.2677Y-3.1812
X2.3031Y-2.8387
X2.3031Y-3.8859
X2.3071Y-3.4056
X2.311Y-2.3899
X2.3228Y-2.9883
X2.3228Y-3.6891
X2.4685Y-2.8308
X2.4843Y-3.8859
X2.4921Y-2.3899
X2.5Y-3.2403
X2.5Y-3.3978
X2.5039Y-3.0749
X2.5315Y-2.6694
X2.5787Y-2.7285
X2.5787Y-3.2403
X2.5787Y-3.3978
X2.6181Y-2.5582
X2.6575Y-2.9253
X2.6575Y-3.0828
X2.6575Y-3.2403
X2.6575Y-3.3978
X2.6654Y-2.256
X2.6811Y-2.571
X2.7362Y-3.2403
X2.7362Y-3.3978
X2.7559Y-2.5415
X2.7559Y-2.6005
X2.7756Y-2.3938
X2.7992Y-2.5395
X2.7992Y-2.6025
X2.815Y-3.3978
X2.8248Y-2.7481
X2.8268Y-2.3348
X2.8445Y-2.5415
X2.8445Y-2.6005
X2.8937Y-3.3978
X2.9252Y-2.4529
X2.9331Y-2.8072
X2.9331Y-2.9647
X2.9331Y-3.0434
X2.9331Y-3.1222
X2.9429Y-2.3544
X2.9724Y-3.3978
X2.9857Y-2.7496
X3.0118Y-2.8859
X3.0315Y-3.0454
X3.0433Y-2.9875
X3.0472Y-2.9411
X3.0512Y-3.3978
X3.0866Y-2.9529
X3.0906Y-2.8072
X3.0906Y-3.2993
X3.1142Y-2.4844
X3.1201Y-2.2954
X3.1299Y-3.3978
X3.1378Y-2.6891
X3.1417Y-3.134
X3.1457Y-3.8899
X3.1614Y-3.0434
X3.1634Y-2.8249
X3.2283Y-3.9883
X3.2953Y-2.7403
X3.2953Y-2.8348
X3.2953Y-2.9411
X3.2953Y-3.0355
X3.3031Y-2.4371
X3.3071Y-3.0828
X3.311Y-2.5867
X3.311Y-3.3859
X3.311Y-3.8859
X3.3189Y-2.6891
X3.3268Y-2.8859
X3.3492Y-3.9911
X3.376Y-2.4922
X3.3898Y-2.6655
X3.3957Y-3.7718
X3.3957Y-4.1458
X3.4055Y-2.571
X3.437Y-3.0749
X3.4685Y-3.5159
X3.4744Y-2.384
X3.4843Y-3.6832
X3.5079Y-2.7678
X3.5236Y-3.8702
X3.5433Y-3.6143
X3.5709Y-2.5474
X3.5709Y-2.6576
X3.6339Y-2.8623
X3.6339Y-3.3269
X3.6339Y-3.5513
X3.6417Y-3.2324
X3.6457Y-2.5985
X3.6496Y-3.823
X3.6654Y-2.9647
X3.7433Y-2.5938
X3.7433Y-2.7828
X3.7433Y-3.6332
X3.8346Y-3.8466
X3.8484Y-3.6537
X3.8583Y-2.4332
X3.9665Y-3.693
X3.9793Y-3.0641
X3.9961Y-3.8111
X4.0354Y-2.9647
X4.0502Y-3.3289
X4.0512Y-3.6025
X4.0906Y-3.0434
X4.1063Y-3.5395
X4.1083Y-3.4056
X4.1122Y-3.2541
X4.1437Y-2.9745
X4.1535Y-2.6891
X4.1535Y-3.6733
X4.1929Y-3.256
X4.2323Y-2.197
X4.2323Y-2.7285
X4.2323Y-2.8072
X4.2323Y-4.067
X4.2323Y-4.1655
X4.252Y-3.0041
X4.252Y-3.6438
X4.2953Y-3.2088
X4.311Y-2.7285
X4.311Y-2.8072
X4.311Y-2.8859
X4.3307Y-2.197
X4.3307Y-2.2954
X4.3307Y-3.6733
X4.3307Y-4.067
X4.3307Y-4.1655
X4.4291Y-2.197
X4.4291Y-2.2954
X4.4291Y-2.3938
X4.4291Y-2.4922
X4.4291Y-2.5907
X4.4291Y-3.6733
X4.4291Y-3.7718
X4.4291Y-3.8702
X4.4291Y-3.9686
X4.4291Y-4.067
X4.4291Y-4.1655
X4.5276Y-2.197
X4.5276Y-2.4922
X4.5276Y-2.5907
X4.5276Y-3.6733
X4.5276Y-4.1655
X4.5866Y-2.7088
X4.5866Y-2.9548
X4.626Y-2.197
X4.626Y-2.2954
X4.626Y-2.3938
X4.626Y-2.4922
X4.626Y-2.5907
X4.626Y-3.6733
X4.626Y-3.7718
X4.626Y-3.8702
X4.626Y-3.9686
X4.626Y-4.067
T2
X1.6181Y-2.4922
X1.6181Y-3.8308
X1.6458Y-2.4254
X1.6458Y-2.5591
X1.6458Y-3.764
X1.6458Y-3.8976
X1.7126Y-2.3978
X1.7126Y-2.5867
X1.7126Y-3.7363
X1.7126Y-3.9253
X1.7794Y-2.4254
X1.7794Y-2.5591
X1.7794Y-3.764
X1.7794Y-3.8976
X1.8071Y-2.4922
X1.8071Y-3.8308
X3.5276Y-2.2954
X3.5276Y-4.0277
X3.5552Y-2.2286
X3.5552Y-2.3622
X3.5552Y-3.9609
X3.5552Y-4.0945
X3.622Y-2.2009
X3.622Y-2.3899
X3.622Y-3.9332
X3.622Y-4.1222
X3.6889Y-2.2286
X3.6889Y-2.3622
X3.6889Y-3.9609
X3.6889Y-4.0945
X3.7165Y-2.2954
X3.7165Y-4.0277
X3.9016Y-2.2954
X3.9016Y-4.0277
X3.9292Y-2.2286
X3.9292Y-2.3622
X3.9292Y-3.9609
X3.9292Y-4.0945
X3.9961Y-2.2009
X3.9961Y-2.3899
X3.9961Y-3.9332
X3.9961Y-4.1222
X4.0629Y-2.2286
X4.0629Y-2.3622
X4.0629Y-3.9609
X4.0629Y-4.0945
X4.0906Y-2.2954
X4.0906Y-4.0277
X4.1772Y-2.4922
X4.1772Y-3.8308
X4.2048Y-2.4254
X4.2048Y-2.5591
X4.2048Y-3.764
X4.2048Y-3.8976
X4.2717Y-2.3978
X4.2717Y-2.5867
X4.2717Y-3.7363
X4.2717Y-3.9253
X4.3385Y-2.4254
X4.3385Y-2.5591
X4.3385Y-3.764
X4.3385Y-3.8976
X4.3661Y-2.4922
X4.3661Y-3.8308
X4.374Y-2.8269
X4.374Y-3.1615
X4.374Y-3.4962
X4.4017Y-2.7601
X4.4017Y-2.8937
X4.4017Y-3.0947
X4.4017Y-3.2283
X4.4017Y-3.4294
X4.4017Y-3.563
X4.4685Y-2.7324
X4.4685Y-2.9214
X4.4685Y-3.067
X4.4685Y-3.256
X4.4685Y-3.4017
X4.4685Y-3.5907
X4.5353Y-2.7601
X4.5353Y-2.8937
X4.5353Y-3.0947
X4.5353Y-3.2283
X4.5353Y-3.4294
X4.5353Y-3.563
X4.563Y-2.8269
X4.563Y-3.1615
X4.563Y-3.4962
T3
X3.3661Y-3.034
X3.3661Y-3.134
X3.5433Y-2.8159
X3.5433Y-2.9159
X3.5433Y-3.0159
X3.5433Y-3.1159
X3.5433Y-3.2159
X3.5433Y-3.3159
X3.5433Y-3.4159
X3.5433Y-3.5159
X3.7433Y-2.8659
X3.7433Y-2.9659
X3.7433Y-3.0659
X3.7433Y-3.1659
X3.7433Y-3.2659
X3.7433Y-3.3659
X3.7433Y-3.4659
X3.8583Y-2.5907
X3.9583Y-2.5907
X4.0583Y-2.5907
T4
X1.4575Y-2.7119
X1.4575Y-2.8119
X1.4575Y-2.9119
X1.4575Y-3.0119
X1.4575Y-3.3151
X1.4575Y-3.4151
X1.4575Y-3.5151
X1.4575Y-3.6151
X1.9358Y-2.2954
X1.9358Y-2.6497
X1.9358Y-3.0041
X1.9358Y-3.3584
X1.9358Y-3.7127
X1.9358Y-4.067
X2.0358Y-2.2954
X2.0358Y-2.6497
X2.0358Y-3.0041
X2.0358Y-3.3584
X2.0358Y-3.7127
X2.0358Y-4.067
X2.1358Y-2.2954
X2.1358Y-2.6497
X2.1358Y-3.0041
X2.1358Y-3.3584
X2.1358Y-3.7127
X2.1358Y-4.067
X2.2358Y-2.2954
X2.2358Y-2.6497
X2.2358Y-3.0041
X2.2358Y-3.3584
X2.2358Y-3.7127
X2.2358Y-4.067
T5
X3.9807Y-3.5206
X3.9846Y-2.8119
T6
X1.7126Y-2.4922
X1.7126Y-3.8308
X3.622Y-2.2954
X3.622Y-4.0277
X3.9961Y-2.2954
X3.9961Y-4.0277
X4.2717Y-2.4922
X4.2717Y-3.8308
X4.4685Y-2.8269
X4.4685Y-3.1615
X4.4685Y-3.4962
M30
