%TF.GenerationSoftware,KiCad,Pcbnew,7.0.8*%
%TF.CreationDate,2023-11-04T19:47:02-03:00*%
%TF.ProjectId,PECDR,50454344-522e-46b6-9963-61645f706362,rev?*%
%TF.SameCoordinates,Original*%
%TF.FileFunction,Legend,Top*%
%TF.FilePolarity,Positive*%
%FSLAX46Y46*%
G04 Gerber Fmt 4.6, Leading zero omitted, Abs format (unit mm)*
G04 Created by KiCad (PCBNEW 7.0.8) date 2023-11-04 19:47:02*
%MOMM*%
%LPD*%
G01*
G04 APERTURE LIST*
%ADD10C,0.150000*%
%ADD11C,0.200000*%
%ADD12C,0.100000*%
%ADD13C,0.120000*%
G04 APERTURE END LIST*
D10*
X56289160Y-72387048D02*
X56765350Y-72387048D01*
X56193922Y-72672763D02*
X56527255Y-71672763D01*
X56527255Y-71672763D02*
X56860588Y-72672763D01*
X57146303Y-71768001D02*
X57193922Y-71720382D01*
X57193922Y-71720382D02*
X57289160Y-71672763D01*
X57289160Y-71672763D02*
X57527255Y-71672763D01*
X57527255Y-71672763D02*
X57622493Y-71720382D01*
X57622493Y-71720382D02*
X57670112Y-71768001D01*
X57670112Y-71768001D02*
X57717731Y-71863239D01*
X57717731Y-71863239D02*
X57717731Y-71958477D01*
X57717731Y-71958477D02*
X57670112Y-72101334D01*
X57670112Y-72101334D02*
X57098684Y-72672763D01*
X57098684Y-72672763D02*
X57717731Y-72672763D01*
X58289160Y-71672763D02*
X58289160Y-71910858D01*
X58051065Y-71815620D02*
X58289160Y-71910858D01*
X58289160Y-71910858D02*
X58527255Y-71815620D01*
X58146303Y-72101334D02*
X58289160Y-71910858D01*
X58289160Y-71910858D02*
X58432017Y-72101334D01*
X54360588Y-90672763D02*
X53789160Y-90672763D01*
X54074874Y-90672763D02*
X54074874Y-89672763D01*
X54074874Y-89672763D02*
X53979636Y-89815620D01*
X53979636Y-89815620D02*
X53884398Y-89910858D01*
X53884398Y-89910858D02*
X53789160Y-89958477D01*
X55312969Y-90672763D02*
X54741541Y-90672763D01*
X55027255Y-90672763D02*
X55027255Y-89672763D01*
X55027255Y-89672763D02*
X54932017Y-89815620D01*
X54932017Y-89815620D02*
X54836779Y-89910858D01*
X54836779Y-89910858D02*
X54741541Y-89958477D01*
X116420112Y-84648953D02*
X116562969Y-84696572D01*
X116562969Y-84696572D02*
X116610588Y-84744191D01*
X116610588Y-84744191D02*
X116658207Y-84839429D01*
X116658207Y-84839429D02*
X116658207Y-84982286D01*
X116658207Y-84982286D02*
X116610588Y-85077524D01*
X116610588Y-85077524D02*
X116562969Y-85125144D01*
X116562969Y-85125144D02*
X116467731Y-85172763D01*
X116467731Y-85172763D02*
X116086779Y-85172763D01*
X116086779Y-85172763D02*
X116086779Y-84172763D01*
X116086779Y-84172763D02*
X116420112Y-84172763D01*
X116420112Y-84172763D02*
X116515350Y-84220382D01*
X116515350Y-84220382D02*
X116562969Y-84268001D01*
X116562969Y-84268001D02*
X116610588Y-84363239D01*
X116610588Y-84363239D02*
X116610588Y-84458477D01*
X116610588Y-84458477D02*
X116562969Y-84553715D01*
X116562969Y-84553715D02*
X116515350Y-84601334D01*
X116515350Y-84601334D02*
X116420112Y-84648953D01*
X116420112Y-84648953D02*
X116086779Y-84648953D01*
X48693922Y-89672763D02*
X49027255Y-90672763D01*
X49027255Y-90672763D02*
X49360588Y-89672763D01*
X51860588Y-53720382D02*
X51765350Y-53672763D01*
X51765350Y-53672763D02*
X51622493Y-53672763D01*
X51622493Y-53672763D02*
X51479636Y-53720382D01*
X51479636Y-53720382D02*
X51384398Y-53815620D01*
X51384398Y-53815620D02*
X51336779Y-53910858D01*
X51336779Y-53910858D02*
X51289160Y-54101334D01*
X51289160Y-54101334D02*
X51289160Y-54244191D01*
X51289160Y-54244191D02*
X51336779Y-54434667D01*
X51336779Y-54434667D02*
X51384398Y-54529905D01*
X51384398Y-54529905D02*
X51479636Y-54625144D01*
X51479636Y-54625144D02*
X51622493Y-54672763D01*
X51622493Y-54672763D02*
X51717731Y-54672763D01*
X51717731Y-54672763D02*
X51860588Y-54625144D01*
X51860588Y-54625144D02*
X51908207Y-54577524D01*
X51908207Y-54577524D02*
X51908207Y-54244191D01*
X51908207Y-54244191D02*
X51717731Y-54244191D01*
X48693922Y-71672763D02*
X49027255Y-72672763D01*
X49027255Y-72672763D02*
X49360588Y-71672763D01*
X47072200Y-93513783D02*
X47119819Y-93370926D01*
X47119819Y-93370926D02*
X47119819Y-93132831D01*
X47119819Y-93132831D02*
X47072200Y-93037593D01*
X47072200Y-93037593D02*
X47024580Y-92989974D01*
X47024580Y-92989974D02*
X46929342Y-92942355D01*
X46929342Y-92942355D02*
X46834104Y-92942355D01*
X46834104Y-92942355D02*
X46738866Y-92989974D01*
X46738866Y-92989974D02*
X46691247Y-93037593D01*
X46691247Y-93037593D02*
X46643628Y-93132831D01*
X46643628Y-93132831D02*
X46596009Y-93323307D01*
X46596009Y-93323307D02*
X46548390Y-93418545D01*
X46548390Y-93418545D02*
X46500771Y-93466164D01*
X46500771Y-93466164D02*
X46405533Y-93513783D01*
X46405533Y-93513783D02*
X46310295Y-93513783D01*
X46310295Y-93513783D02*
X46215057Y-93466164D01*
X46215057Y-93466164D02*
X46167438Y-93418545D01*
X46167438Y-93418545D02*
X46119819Y-93323307D01*
X46119819Y-93323307D02*
X46119819Y-93085212D01*
X46119819Y-93085212D02*
X46167438Y-92942355D01*
X47119819Y-92513783D02*
X46119819Y-92513783D01*
X46119819Y-92513783D02*
X46119819Y-92132831D01*
X46119819Y-92132831D02*
X46167438Y-92037593D01*
X46167438Y-92037593D02*
X46215057Y-91989974D01*
X46215057Y-91989974D02*
X46310295Y-91942355D01*
X46310295Y-91942355D02*
X46453152Y-91942355D01*
X46453152Y-91942355D02*
X46548390Y-91989974D01*
X46548390Y-91989974D02*
X46596009Y-92037593D01*
X46596009Y-92037593D02*
X46643628Y-92132831D01*
X46643628Y-92132831D02*
X46643628Y-92513783D01*
X47119819Y-91513783D02*
X46119819Y-91513783D01*
X85969819Y-74794736D02*
X85493628Y-75128069D01*
X85969819Y-75366164D02*
X84969819Y-75366164D01*
X84969819Y-75366164D02*
X84969819Y-74985212D01*
X84969819Y-74985212D02*
X85017438Y-74889974D01*
X85017438Y-74889974D02*
X85065057Y-74842355D01*
X85065057Y-74842355D02*
X85160295Y-74794736D01*
X85160295Y-74794736D02*
X85303152Y-74794736D01*
X85303152Y-74794736D02*
X85398390Y-74842355D01*
X85398390Y-74842355D02*
X85446009Y-74889974D01*
X85446009Y-74889974D02*
X85493628Y-74985212D01*
X85493628Y-74985212D02*
X85493628Y-75366164D01*
X84969819Y-74366164D02*
X85779342Y-74366164D01*
X85779342Y-74366164D02*
X85874580Y-74318545D01*
X85874580Y-74318545D02*
X85922200Y-74270926D01*
X85922200Y-74270926D02*
X85969819Y-74175688D01*
X85969819Y-74175688D02*
X85969819Y-73985212D01*
X85969819Y-73985212D02*
X85922200Y-73889974D01*
X85922200Y-73889974D02*
X85874580Y-73842355D01*
X85874580Y-73842355D02*
X85779342Y-73794736D01*
X85779342Y-73794736D02*
X84969819Y-73794736D01*
X85969819Y-73318545D02*
X84969819Y-73318545D01*
X84969819Y-73318545D02*
X85969819Y-72747117D01*
X85969819Y-72747117D02*
X84969819Y-72747117D01*
X46834104Y-79013783D02*
X46834104Y-78537593D01*
X47119819Y-79109021D02*
X46119819Y-78775688D01*
X46119819Y-78775688D02*
X47119819Y-78442355D01*
X47119819Y-78109021D02*
X46119819Y-78109021D01*
X46119819Y-78109021D02*
X46119819Y-77870926D01*
X46119819Y-77870926D02*
X46167438Y-77728069D01*
X46167438Y-77728069D02*
X46262676Y-77632831D01*
X46262676Y-77632831D02*
X46357914Y-77585212D01*
X46357914Y-77585212D02*
X46548390Y-77537593D01*
X46548390Y-77537593D02*
X46691247Y-77537593D01*
X46691247Y-77537593D02*
X46881723Y-77585212D01*
X46881723Y-77585212D02*
X46976961Y-77632831D01*
X46976961Y-77632831D02*
X47072200Y-77728069D01*
X47072200Y-77728069D02*
X47119819Y-77870926D01*
X47119819Y-77870926D02*
X47119819Y-78109021D01*
X47024580Y-76537593D02*
X47072200Y-76585212D01*
X47072200Y-76585212D02*
X47119819Y-76728069D01*
X47119819Y-76728069D02*
X47119819Y-76823307D01*
X47119819Y-76823307D02*
X47072200Y-76966164D01*
X47072200Y-76966164D02*
X46976961Y-77061402D01*
X46976961Y-77061402D02*
X46881723Y-77109021D01*
X46881723Y-77109021D02*
X46691247Y-77156640D01*
X46691247Y-77156640D02*
X46548390Y-77156640D01*
X46548390Y-77156640D02*
X46357914Y-77109021D01*
X46357914Y-77109021D02*
X46262676Y-77061402D01*
X46262676Y-77061402D02*
X46167438Y-76966164D01*
X46167438Y-76966164D02*
X46119819Y-76823307D01*
X46119819Y-76823307D02*
X46119819Y-76728069D01*
X46119819Y-76728069D02*
X46167438Y-76585212D01*
X46167438Y-76585212D02*
X46215057Y-76537593D01*
X46738866Y-76109021D02*
X46738866Y-75347117D01*
X47119819Y-74870926D02*
X46119819Y-74870926D01*
X47119819Y-74394736D02*
X46119819Y-74394736D01*
X46119819Y-74394736D02*
X47119819Y-73823308D01*
X47119819Y-73823308D02*
X46119819Y-73823308D01*
X42860588Y-101220382D02*
X42765350Y-101172763D01*
X42765350Y-101172763D02*
X42622493Y-101172763D01*
X42622493Y-101172763D02*
X42479636Y-101220382D01*
X42479636Y-101220382D02*
X42384398Y-101315620D01*
X42384398Y-101315620D02*
X42336779Y-101410858D01*
X42336779Y-101410858D02*
X42289160Y-101601334D01*
X42289160Y-101601334D02*
X42289160Y-101744191D01*
X42289160Y-101744191D02*
X42336779Y-101934667D01*
X42336779Y-101934667D02*
X42384398Y-102029905D01*
X42384398Y-102029905D02*
X42479636Y-102125144D01*
X42479636Y-102125144D02*
X42622493Y-102172763D01*
X42622493Y-102172763D02*
X42717731Y-102172763D01*
X42717731Y-102172763D02*
X42860588Y-102125144D01*
X42860588Y-102125144D02*
X42908207Y-102077524D01*
X42908207Y-102077524D02*
X42908207Y-101744191D01*
X42908207Y-101744191D02*
X42717731Y-101744191D01*
X43336779Y-102172763D02*
X43336779Y-101172763D01*
X43336779Y-101172763D02*
X43908207Y-102172763D01*
X43908207Y-102172763D02*
X43908207Y-101172763D01*
X44384398Y-102172763D02*
X44384398Y-101172763D01*
X44384398Y-101172763D02*
X44622493Y-101172763D01*
X44622493Y-101172763D02*
X44765350Y-101220382D01*
X44765350Y-101220382D02*
X44860588Y-101315620D01*
X44860588Y-101315620D02*
X44908207Y-101410858D01*
X44908207Y-101410858D02*
X44955826Y-101601334D01*
X44955826Y-101601334D02*
X44955826Y-101744191D01*
X44955826Y-101744191D02*
X44908207Y-101934667D01*
X44908207Y-101934667D02*
X44860588Y-102029905D01*
X44860588Y-102029905D02*
X44765350Y-102125144D01*
X44765350Y-102125144D02*
X44622493Y-102172763D01*
X44622493Y-102172763D02*
X44384398Y-102172763D01*
X114759819Y-103993420D02*
X114759819Y-104564848D01*
X114759819Y-104279134D02*
X113759819Y-104279134D01*
X113759819Y-104279134D02*
X113902676Y-104374372D01*
X113902676Y-104374372D02*
X113997914Y-104469610D01*
X113997914Y-104469610D02*
X114045533Y-104564848D01*
X114759819Y-103517229D02*
X114759819Y-103326753D01*
X114759819Y-103326753D02*
X114712200Y-103231515D01*
X114712200Y-103231515D02*
X114664580Y-103183896D01*
X114664580Y-103183896D02*
X114521723Y-103088658D01*
X114521723Y-103088658D02*
X114331247Y-103041039D01*
X114331247Y-103041039D02*
X113950295Y-103041039D01*
X113950295Y-103041039D02*
X113855057Y-103088658D01*
X113855057Y-103088658D02*
X113807438Y-103136277D01*
X113807438Y-103136277D02*
X113759819Y-103231515D01*
X113759819Y-103231515D02*
X113759819Y-103421991D01*
X113759819Y-103421991D02*
X113807438Y-103517229D01*
X113807438Y-103517229D02*
X113855057Y-103564848D01*
X113855057Y-103564848D02*
X113950295Y-103612467D01*
X113950295Y-103612467D02*
X114188390Y-103612467D01*
X114188390Y-103612467D02*
X114283628Y-103564848D01*
X114283628Y-103564848D02*
X114331247Y-103517229D01*
X114331247Y-103517229D02*
X114378866Y-103421991D01*
X114378866Y-103421991D02*
X114378866Y-103231515D01*
X114378866Y-103231515D02*
X114331247Y-103136277D01*
X114331247Y-103136277D02*
X114283628Y-103088658D01*
X114283628Y-103088658D02*
X114188390Y-103041039D01*
X113855057Y-101898181D02*
X113807438Y-101850562D01*
X113807438Y-101850562D02*
X113759819Y-101755324D01*
X113759819Y-101755324D02*
X113759819Y-101517229D01*
X113759819Y-101517229D02*
X113807438Y-101421991D01*
X113807438Y-101421991D02*
X113855057Y-101374372D01*
X113855057Y-101374372D02*
X113950295Y-101326753D01*
X113950295Y-101326753D02*
X114045533Y-101326753D01*
X114045533Y-101326753D02*
X114188390Y-101374372D01*
X114188390Y-101374372D02*
X114759819Y-101945800D01*
X114759819Y-101945800D02*
X114759819Y-101326753D01*
X113759819Y-100707705D02*
X113759819Y-100612467D01*
X113759819Y-100612467D02*
X113807438Y-100517229D01*
X113807438Y-100517229D02*
X113855057Y-100469610D01*
X113855057Y-100469610D02*
X113950295Y-100421991D01*
X113950295Y-100421991D02*
X114140771Y-100374372D01*
X114140771Y-100374372D02*
X114378866Y-100374372D01*
X114378866Y-100374372D02*
X114569342Y-100421991D01*
X114569342Y-100421991D02*
X114664580Y-100469610D01*
X114664580Y-100469610D02*
X114712200Y-100517229D01*
X114712200Y-100517229D02*
X114759819Y-100612467D01*
X114759819Y-100612467D02*
X114759819Y-100707705D01*
X114759819Y-100707705D02*
X114712200Y-100802943D01*
X114712200Y-100802943D02*
X114664580Y-100850562D01*
X114664580Y-100850562D02*
X114569342Y-100898181D01*
X114569342Y-100898181D02*
X114378866Y-100945800D01*
X114378866Y-100945800D02*
X114140771Y-100945800D01*
X114140771Y-100945800D02*
X113950295Y-100898181D01*
X113950295Y-100898181D02*
X113855057Y-100850562D01*
X113855057Y-100850562D02*
X113807438Y-100802943D01*
X113807438Y-100802943D02*
X113759819Y-100707705D01*
X113855057Y-99231514D02*
X113807438Y-99183895D01*
X113807438Y-99183895D02*
X113759819Y-99088657D01*
X113759819Y-99088657D02*
X113759819Y-98850562D01*
X113759819Y-98850562D02*
X113807438Y-98755324D01*
X113807438Y-98755324D02*
X113855057Y-98707705D01*
X113855057Y-98707705D02*
X113950295Y-98660086D01*
X113950295Y-98660086D02*
X114045533Y-98660086D01*
X114045533Y-98660086D02*
X114188390Y-98707705D01*
X114188390Y-98707705D02*
X114759819Y-99279133D01*
X114759819Y-99279133D02*
X114759819Y-98660086D01*
X114759819Y-97707705D02*
X114759819Y-98279133D01*
X114759819Y-97993419D02*
X113759819Y-97993419D01*
X113759819Y-97993419D02*
X113902676Y-98088657D01*
X113902676Y-98088657D02*
X113997914Y-98183895D01*
X113997914Y-98183895D02*
X114045533Y-98279133D01*
X113855057Y-96564847D02*
X113807438Y-96517228D01*
X113807438Y-96517228D02*
X113759819Y-96421990D01*
X113759819Y-96421990D02*
X113759819Y-96183895D01*
X113759819Y-96183895D02*
X113807438Y-96088657D01*
X113807438Y-96088657D02*
X113855057Y-96041038D01*
X113855057Y-96041038D02*
X113950295Y-95993419D01*
X113950295Y-95993419D02*
X114045533Y-95993419D01*
X114045533Y-95993419D02*
X114188390Y-96041038D01*
X114188390Y-96041038D02*
X114759819Y-96612466D01*
X114759819Y-96612466D02*
X114759819Y-95993419D01*
X113855057Y-95612466D02*
X113807438Y-95564847D01*
X113807438Y-95564847D02*
X113759819Y-95469609D01*
X113759819Y-95469609D02*
X113759819Y-95231514D01*
X113759819Y-95231514D02*
X113807438Y-95136276D01*
X113807438Y-95136276D02*
X113855057Y-95088657D01*
X113855057Y-95088657D02*
X113950295Y-95041038D01*
X113950295Y-95041038D02*
X114045533Y-95041038D01*
X114045533Y-95041038D02*
X114188390Y-95088657D01*
X114188390Y-95088657D02*
X114759819Y-95660085D01*
X114759819Y-95660085D02*
X114759819Y-95041038D01*
X115369819Y-105136277D02*
X115369819Y-104945801D01*
X115369819Y-104945801D02*
X115417438Y-104850563D01*
X115417438Y-104850563D02*
X115512676Y-104755325D01*
X115512676Y-104755325D02*
X115703152Y-104707706D01*
X115703152Y-104707706D02*
X116036485Y-104707706D01*
X116036485Y-104707706D02*
X116226961Y-104755325D01*
X116226961Y-104755325D02*
X116322200Y-104850563D01*
X116322200Y-104850563D02*
X116369819Y-104945801D01*
X116369819Y-104945801D02*
X116369819Y-105136277D01*
X116369819Y-105136277D02*
X116322200Y-105231515D01*
X116322200Y-105231515D02*
X116226961Y-105326753D01*
X116226961Y-105326753D02*
X116036485Y-105374372D01*
X116036485Y-105374372D02*
X115703152Y-105374372D01*
X115703152Y-105374372D02*
X115512676Y-105326753D01*
X115512676Y-105326753D02*
X115417438Y-105231515D01*
X115417438Y-105231515D02*
X115369819Y-105136277D01*
X115369819Y-104279134D02*
X116179342Y-104279134D01*
X116179342Y-104279134D02*
X116274580Y-104231515D01*
X116274580Y-104231515D02*
X116322200Y-104183896D01*
X116322200Y-104183896D02*
X116369819Y-104088658D01*
X116369819Y-104088658D02*
X116369819Y-103898182D01*
X116369819Y-103898182D02*
X116322200Y-103802944D01*
X116322200Y-103802944D02*
X116274580Y-103755325D01*
X116274580Y-103755325D02*
X116179342Y-103707706D01*
X116179342Y-103707706D02*
X115369819Y-103707706D01*
X115369819Y-103374372D02*
X115369819Y-102802944D01*
X116369819Y-103088658D02*
X115369819Y-103088658D01*
X116369819Y-102469610D02*
X115369819Y-102469610D01*
X115369819Y-102469610D02*
X115369819Y-102088658D01*
X115369819Y-102088658D02*
X115417438Y-101993420D01*
X115417438Y-101993420D02*
X115465057Y-101945801D01*
X115465057Y-101945801D02*
X115560295Y-101898182D01*
X115560295Y-101898182D02*
X115703152Y-101898182D01*
X115703152Y-101898182D02*
X115798390Y-101945801D01*
X115798390Y-101945801D02*
X115846009Y-101993420D01*
X115846009Y-101993420D02*
X115893628Y-102088658D01*
X115893628Y-102088658D02*
X115893628Y-102469610D01*
X115369819Y-101469610D02*
X116179342Y-101469610D01*
X116179342Y-101469610D02*
X116274580Y-101421991D01*
X116274580Y-101421991D02*
X116322200Y-101374372D01*
X116322200Y-101374372D02*
X116369819Y-101279134D01*
X116369819Y-101279134D02*
X116369819Y-101088658D01*
X116369819Y-101088658D02*
X116322200Y-100993420D01*
X116322200Y-100993420D02*
X116274580Y-100945801D01*
X116274580Y-100945801D02*
X116179342Y-100898182D01*
X116179342Y-100898182D02*
X115369819Y-100898182D01*
X115369819Y-100564848D02*
X115369819Y-99993420D01*
X116369819Y-100279134D02*
X115369819Y-100279134D01*
X116369819Y-98898181D02*
X115369819Y-98898181D01*
X115369819Y-98898181D02*
X115369819Y-98517229D01*
X115369819Y-98517229D02*
X115417438Y-98421991D01*
X115417438Y-98421991D02*
X115465057Y-98374372D01*
X115465057Y-98374372D02*
X115560295Y-98326753D01*
X115560295Y-98326753D02*
X115703152Y-98326753D01*
X115703152Y-98326753D02*
X115798390Y-98374372D01*
X115798390Y-98374372D02*
X115846009Y-98421991D01*
X115846009Y-98421991D02*
X115893628Y-98517229D01*
X115893628Y-98517229D02*
X115893628Y-98898181D01*
X115369819Y-97707705D02*
X115369819Y-97517229D01*
X115369819Y-97517229D02*
X115417438Y-97421991D01*
X115417438Y-97421991D02*
X115512676Y-97326753D01*
X115512676Y-97326753D02*
X115703152Y-97279134D01*
X115703152Y-97279134D02*
X116036485Y-97279134D01*
X116036485Y-97279134D02*
X116226961Y-97326753D01*
X116226961Y-97326753D02*
X116322200Y-97421991D01*
X116322200Y-97421991D02*
X116369819Y-97517229D01*
X116369819Y-97517229D02*
X116369819Y-97707705D01*
X116369819Y-97707705D02*
X116322200Y-97802943D01*
X116322200Y-97802943D02*
X116226961Y-97898181D01*
X116226961Y-97898181D02*
X116036485Y-97945800D01*
X116036485Y-97945800D02*
X115703152Y-97945800D01*
X115703152Y-97945800D02*
X115512676Y-97898181D01*
X115512676Y-97898181D02*
X115417438Y-97802943D01*
X115417438Y-97802943D02*
X115369819Y-97707705D01*
X115369819Y-96945800D02*
X116369819Y-96707705D01*
X116369819Y-96707705D02*
X115655533Y-96517229D01*
X115655533Y-96517229D02*
X116369819Y-96326753D01*
X116369819Y-96326753D02*
X115369819Y-96088658D01*
X115846009Y-95707705D02*
X115846009Y-95374372D01*
X116369819Y-95231515D02*
X116369819Y-95707705D01*
X116369819Y-95707705D02*
X115369819Y-95707705D01*
X115369819Y-95707705D02*
X115369819Y-95231515D01*
X116369819Y-94231515D02*
X115893628Y-94564848D01*
X116369819Y-94802943D02*
X115369819Y-94802943D01*
X115369819Y-94802943D02*
X115369819Y-94421991D01*
X115369819Y-94421991D02*
X115417438Y-94326753D01*
X115417438Y-94326753D02*
X115465057Y-94279134D01*
X115465057Y-94279134D02*
X115560295Y-94231515D01*
X115560295Y-94231515D02*
X115703152Y-94231515D01*
X115703152Y-94231515D02*
X115798390Y-94279134D01*
X115798390Y-94279134D02*
X115846009Y-94326753D01*
X115846009Y-94326753D02*
X115893628Y-94421991D01*
X115893628Y-94421991D02*
X115893628Y-94802943D01*
X56039160Y-54625144D02*
X56182017Y-54672763D01*
X56182017Y-54672763D02*
X56420112Y-54672763D01*
X56420112Y-54672763D02*
X56515350Y-54625144D01*
X56515350Y-54625144D02*
X56562969Y-54577524D01*
X56562969Y-54577524D02*
X56610588Y-54482286D01*
X56610588Y-54482286D02*
X56610588Y-54387048D01*
X56610588Y-54387048D02*
X56562969Y-54291810D01*
X56562969Y-54291810D02*
X56515350Y-54244191D01*
X56515350Y-54244191D02*
X56420112Y-54196572D01*
X56420112Y-54196572D02*
X56229636Y-54148953D01*
X56229636Y-54148953D02*
X56134398Y-54101334D01*
X56134398Y-54101334D02*
X56086779Y-54053715D01*
X56086779Y-54053715D02*
X56039160Y-53958477D01*
X56039160Y-53958477D02*
X56039160Y-53863239D01*
X56039160Y-53863239D02*
X56086779Y-53768001D01*
X56086779Y-53768001D02*
X56134398Y-53720382D01*
X56134398Y-53720382D02*
X56229636Y-53672763D01*
X56229636Y-53672763D02*
X56467731Y-53672763D01*
X56467731Y-53672763D02*
X56610588Y-53720382D01*
X57039160Y-54672763D02*
X57039160Y-53672763D01*
X57039160Y-53672763D02*
X57277255Y-53672763D01*
X57277255Y-53672763D02*
X57420112Y-53720382D01*
X57420112Y-53720382D02*
X57515350Y-53815620D01*
X57515350Y-53815620D02*
X57562969Y-53910858D01*
X57562969Y-53910858D02*
X57610588Y-54101334D01*
X57610588Y-54101334D02*
X57610588Y-54244191D01*
X57610588Y-54244191D02*
X57562969Y-54434667D01*
X57562969Y-54434667D02*
X57515350Y-54529905D01*
X57515350Y-54529905D02*
X57420112Y-54625144D01*
X57420112Y-54625144D02*
X57277255Y-54672763D01*
X57277255Y-54672763D02*
X57039160Y-54672763D01*
X57991541Y-54387048D02*
X58467731Y-54387048D01*
X57896303Y-54672763D02*
X58229636Y-53672763D01*
X58229636Y-53672763D02*
X58562969Y-54672763D01*
X48693922Y-62672763D02*
X49027255Y-63672763D01*
X49027255Y-63672763D02*
X49360588Y-62672763D01*
X114993922Y-66922763D02*
X115327255Y-67922763D01*
X115327255Y-67922763D02*
X115660588Y-66922763D01*
X116565350Y-67827524D02*
X116517731Y-67875144D01*
X116517731Y-67875144D02*
X116374874Y-67922763D01*
X116374874Y-67922763D02*
X116279636Y-67922763D01*
X116279636Y-67922763D02*
X116136779Y-67875144D01*
X116136779Y-67875144D02*
X116041541Y-67779905D01*
X116041541Y-67779905D02*
X115993922Y-67684667D01*
X115993922Y-67684667D02*
X115946303Y-67494191D01*
X115946303Y-67494191D02*
X115946303Y-67351334D01*
X115946303Y-67351334D02*
X115993922Y-67160858D01*
X115993922Y-67160858D02*
X116041541Y-67065620D01*
X116041541Y-67065620D02*
X116136779Y-66970382D01*
X116136779Y-66970382D02*
X116279636Y-66922763D01*
X116279636Y-66922763D02*
X116374874Y-66922763D01*
X116374874Y-66922763D02*
X116517731Y-66970382D01*
X116517731Y-66970382D02*
X116565350Y-67018001D01*
X117565350Y-67827524D02*
X117517731Y-67875144D01*
X117517731Y-67875144D02*
X117374874Y-67922763D01*
X117374874Y-67922763D02*
X117279636Y-67922763D01*
X117279636Y-67922763D02*
X117136779Y-67875144D01*
X117136779Y-67875144D02*
X117041541Y-67779905D01*
X117041541Y-67779905D02*
X116993922Y-67684667D01*
X116993922Y-67684667D02*
X116946303Y-67494191D01*
X116946303Y-67494191D02*
X116946303Y-67351334D01*
X116946303Y-67351334D02*
X116993922Y-67160858D01*
X116993922Y-67160858D02*
X117041541Y-67065620D01*
X117041541Y-67065620D02*
X117136779Y-66970382D01*
X117136779Y-66970382D02*
X117279636Y-66922763D01*
X117279636Y-66922763D02*
X117374874Y-66922763D01*
X117374874Y-66922763D02*
X117517731Y-66970382D01*
X117517731Y-66970382D02*
X117565350Y-67018001D01*
D11*
X35967219Y-81810086D02*
X34967219Y-81810086D01*
X34967219Y-81810086D02*
X35681504Y-81476753D01*
X35681504Y-81476753D02*
X34967219Y-81143420D01*
X34967219Y-81143420D02*
X35967219Y-81143420D01*
X35967219Y-80667229D02*
X34967219Y-80667229D01*
X34967219Y-80667229D02*
X34967219Y-80286277D01*
X34967219Y-80286277D02*
X35014838Y-80191039D01*
X35014838Y-80191039D02*
X35062457Y-80143420D01*
X35062457Y-80143420D02*
X35157695Y-80095801D01*
X35157695Y-80095801D02*
X35300552Y-80095801D01*
X35300552Y-80095801D02*
X35395790Y-80143420D01*
X35395790Y-80143420D02*
X35443409Y-80191039D01*
X35443409Y-80191039D02*
X35491028Y-80286277D01*
X35491028Y-80286277D02*
X35491028Y-80667229D01*
X34967219Y-79667229D02*
X35776742Y-79667229D01*
X35776742Y-79667229D02*
X35871980Y-79619610D01*
X35871980Y-79619610D02*
X35919600Y-79571991D01*
X35919600Y-79571991D02*
X35967219Y-79476753D01*
X35967219Y-79476753D02*
X35967219Y-79286277D01*
X35967219Y-79286277D02*
X35919600Y-79191039D01*
X35919600Y-79191039D02*
X35871980Y-79143420D01*
X35871980Y-79143420D02*
X35776742Y-79095801D01*
X35776742Y-79095801D02*
X34967219Y-79095801D01*
X37577219Y-82071991D02*
X37577219Y-81881515D01*
X37577219Y-81881515D02*
X37529600Y-81786277D01*
X37529600Y-81786277D02*
X37481980Y-81738658D01*
X37481980Y-81738658D02*
X37339123Y-81643420D01*
X37339123Y-81643420D02*
X37148647Y-81595801D01*
X37148647Y-81595801D02*
X36767695Y-81595801D01*
X36767695Y-81595801D02*
X36672457Y-81643420D01*
X36672457Y-81643420D02*
X36624838Y-81691039D01*
X36624838Y-81691039D02*
X36577219Y-81786277D01*
X36577219Y-81786277D02*
X36577219Y-81976753D01*
X36577219Y-81976753D02*
X36624838Y-82071991D01*
X36624838Y-82071991D02*
X36672457Y-82119610D01*
X36672457Y-82119610D02*
X36767695Y-82167229D01*
X36767695Y-82167229D02*
X37005790Y-82167229D01*
X37005790Y-82167229D02*
X37101028Y-82119610D01*
X37101028Y-82119610D02*
X37148647Y-82071991D01*
X37148647Y-82071991D02*
X37196266Y-81976753D01*
X37196266Y-81976753D02*
X37196266Y-81786277D01*
X37196266Y-81786277D02*
X37148647Y-81691039D01*
X37148647Y-81691039D02*
X37101028Y-81643420D01*
X37101028Y-81643420D02*
X37005790Y-81595801D01*
X36672457Y-81214848D02*
X36624838Y-81167229D01*
X36624838Y-81167229D02*
X36577219Y-81071991D01*
X36577219Y-81071991D02*
X36577219Y-80833896D01*
X36577219Y-80833896D02*
X36624838Y-80738658D01*
X36624838Y-80738658D02*
X36672457Y-80691039D01*
X36672457Y-80691039D02*
X36767695Y-80643420D01*
X36767695Y-80643420D02*
X36862933Y-80643420D01*
X36862933Y-80643420D02*
X37005790Y-80691039D01*
X37005790Y-80691039D02*
X37577219Y-81262467D01*
X37577219Y-81262467D02*
X37577219Y-80643420D01*
X36577219Y-79738658D02*
X36577219Y-80214848D01*
X36577219Y-80214848D02*
X37053409Y-80262467D01*
X37053409Y-80262467D02*
X37005790Y-80214848D01*
X37005790Y-80214848D02*
X36958171Y-80119610D01*
X36958171Y-80119610D02*
X36958171Y-79881515D01*
X36958171Y-79881515D02*
X37005790Y-79786277D01*
X37005790Y-79786277D02*
X37053409Y-79738658D01*
X37053409Y-79738658D02*
X37148647Y-79691039D01*
X37148647Y-79691039D02*
X37386742Y-79691039D01*
X37386742Y-79691039D02*
X37481980Y-79738658D01*
X37481980Y-79738658D02*
X37529600Y-79786277D01*
X37529600Y-79786277D02*
X37577219Y-79881515D01*
X37577219Y-79881515D02*
X37577219Y-80119610D01*
X37577219Y-80119610D02*
X37529600Y-80214848D01*
X37529600Y-80214848D02*
X37481980Y-80262467D01*
X36577219Y-79071991D02*
X36577219Y-78976753D01*
X36577219Y-78976753D02*
X36624838Y-78881515D01*
X36624838Y-78881515D02*
X36672457Y-78833896D01*
X36672457Y-78833896D02*
X36767695Y-78786277D01*
X36767695Y-78786277D02*
X36958171Y-78738658D01*
X36958171Y-78738658D02*
X37196266Y-78738658D01*
X37196266Y-78738658D02*
X37386742Y-78786277D01*
X37386742Y-78786277D02*
X37481980Y-78833896D01*
X37481980Y-78833896D02*
X37529600Y-78881515D01*
X37529600Y-78881515D02*
X37577219Y-78976753D01*
X37577219Y-78976753D02*
X37577219Y-79071991D01*
X37577219Y-79071991D02*
X37529600Y-79167229D01*
X37529600Y-79167229D02*
X37481980Y-79214848D01*
X37481980Y-79214848D02*
X37386742Y-79262467D01*
X37386742Y-79262467D02*
X37196266Y-79310086D01*
X37196266Y-79310086D02*
X36958171Y-79310086D01*
X36958171Y-79310086D02*
X36767695Y-79262467D01*
X36767695Y-79262467D02*
X36672457Y-79214848D01*
X36672457Y-79214848D02*
X36624838Y-79167229D01*
X36624838Y-79167229D02*
X36577219Y-79071991D01*
X38187219Y-81691039D02*
X38187219Y-81881515D01*
X38187219Y-81881515D02*
X38234838Y-81976753D01*
X38234838Y-81976753D02*
X38282457Y-82024372D01*
X38282457Y-82024372D02*
X38425314Y-82119610D01*
X38425314Y-82119610D02*
X38615790Y-82167229D01*
X38615790Y-82167229D02*
X38996742Y-82167229D01*
X38996742Y-82167229D02*
X39091980Y-82119610D01*
X39091980Y-82119610D02*
X39139600Y-82071991D01*
X39139600Y-82071991D02*
X39187219Y-81976753D01*
X39187219Y-81976753D02*
X39187219Y-81786277D01*
X39187219Y-81786277D02*
X39139600Y-81691039D01*
X39139600Y-81691039D02*
X39091980Y-81643420D01*
X39091980Y-81643420D02*
X38996742Y-81595801D01*
X38996742Y-81595801D02*
X38758647Y-81595801D01*
X38758647Y-81595801D02*
X38663409Y-81643420D01*
X38663409Y-81643420D02*
X38615790Y-81691039D01*
X38615790Y-81691039D02*
X38568171Y-81786277D01*
X38568171Y-81786277D02*
X38568171Y-81976753D01*
X38568171Y-81976753D02*
X38615790Y-82071991D01*
X38615790Y-82071991D02*
X38663409Y-82119610D01*
X38663409Y-82119610D02*
X38758647Y-82167229D01*
X38187219Y-80691039D02*
X38187219Y-81167229D01*
X38187219Y-81167229D02*
X38663409Y-81214848D01*
X38663409Y-81214848D02*
X38615790Y-81167229D01*
X38615790Y-81167229D02*
X38568171Y-81071991D01*
X38568171Y-81071991D02*
X38568171Y-80833896D01*
X38568171Y-80833896D02*
X38615790Y-80738658D01*
X38615790Y-80738658D02*
X38663409Y-80691039D01*
X38663409Y-80691039D02*
X38758647Y-80643420D01*
X38758647Y-80643420D02*
X38996742Y-80643420D01*
X38996742Y-80643420D02*
X39091980Y-80691039D01*
X39091980Y-80691039D02*
X39139600Y-80738658D01*
X39139600Y-80738658D02*
X39187219Y-80833896D01*
X39187219Y-80833896D02*
X39187219Y-81071991D01*
X39187219Y-81071991D02*
X39139600Y-81167229D01*
X39139600Y-81167229D02*
X39091980Y-81214848D01*
X38187219Y-80024372D02*
X38187219Y-79929134D01*
X38187219Y-79929134D02*
X38234838Y-79833896D01*
X38234838Y-79833896D02*
X38282457Y-79786277D01*
X38282457Y-79786277D02*
X38377695Y-79738658D01*
X38377695Y-79738658D02*
X38568171Y-79691039D01*
X38568171Y-79691039D02*
X38806266Y-79691039D01*
X38806266Y-79691039D02*
X38996742Y-79738658D01*
X38996742Y-79738658D02*
X39091980Y-79786277D01*
X39091980Y-79786277D02*
X39139600Y-79833896D01*
X39139600Y-79833896D02*
X39187219Y-79929134D01*
X39187219Y-79929134D02*
X39187219Y-80024372D01*
X39187219Y-80024372D02*
X39139600Y-80119610D01*
X39139600Y-80119610D02*
X39091980Y-80167229D01*
X39091980Y-80167229D02*
X38996742Y-80214848D01*
X38996742Y-80214848D02*
X38806266Y-80262467D01*
X38806266Y-80262467D02*
X38568171Y-80262467D01*
X38568171Y-80262467D02*
X38377695Y-80214848D01*
X38377695Y-80214848D02*
X38282457Y-80167229D01*
X38282457Y-80167229D02*
X38234838Y-80119610D01*
X38234838Y-80119610D02*
X38187219Y-80024372D01*
X38187219Y-79071991D02*
X38187219Y-78976753D01*
X38187219Y-78976753D02*
X38234838Y-78881515D01*
X38234838Y-78881515D02*
X38282457Y-78833896D01*
X38282457Y-78833896D02*
X38377695Y-78786277D01*
X38377695Y-78786277D02*
X38568171Y-78738658D01*
X38568171Y-78738658D02*
X38806266Y-78738658D01*
X38806266Y-78738658D02*
X38996742Y-78786277D01*
X38996742Y-78786277D02*
X39091980Y-78833896D01*
X39091980Y-78833896D02*
X39139600Y-78881515D01*
X39139600Y-78881515D02*
X39187219Y-78976753D01*
X39187219Y-78976753D02*
X39187219Y-79071991D01*
X39187219Y-79071991D02*
X39139600Y-79167229D01*
X39139600Y-79167229D02*
X39091980Y-79214848D01*
X39091980Y-79214848D02*
X38996742Y-79262467D01*
X38996742Y-79262467D02*
X38806266Y-79310086D01*
X38806266Y-79310086D02*
X38568171Y-79310086D01*
X38568171Y-79310086D02*
X38377695Y-79262467D01*
X38377695Y-79262467D02*
X38282457Y-79214848D01*
X38282457Y-79214848D02*
X38234838Y-79167229D01*
X38234838Y-79167229D02*
X38187219Y-79071991D01*
D10*
X51860588Y-98720382D02*
X51765350Y-98672763D01*
X51765350Y-98672763D02*
X51622493Y-98672763D01*
X51622493Y-98672763D02*
X51479636Y-98720382D01*
X51479636Y-98720382D02*
X51384398Y-98815620D01*
X51384398Y-98815620D02*
X51336779Y-98910858D01*
X51336779Y-98910858D02*
X51289160Y-99101334D01*
X51289160Y-99101334D02*
X51289160Y-99244191D01*
X51289160Y-99244191D02*
X51336779Y-99434667D01*
X51336779Y-99434667D02*
X51384398Y-99529905D01*
X51384398Y-99529905D02*
X51479636Y-99625144D01*
X51479636Y-99625144D02*
X51622493Y-99672763D01*
X51622493Y-99672763D02*
X51717731Y-99672763D01*
X51717731Y-99672763D02*
X51860588Y-99625144D01*
X51860588Y-99625144D02*
X51908207Y-99577524D01*
X51908207Y-99577524D02*
X51908207Y-99244191D01*
X51908207Y-99244191D02*
X51717731Y-99244191D01*
X56289160Y-81387048D02*
X56765350Y-81387048D01*
X56193922Y-81672763D02*
X56527255Y-80672763D01*
X56527255Y-80672763D02*
X56860588Y-81672763D01*
X57384398Y-80672763D02*
X57479636Y-80672763D01*
X57479636Y-80672763D02*
X57574874Y-80720382D01*
X57574874Y-80720382D02*
X57622493Y-80768001D01*
X57622493Y-80768001D02*
X57670112Y-80863239D01*
X57670112Y-80863239D02*
X57717731Y-81053715D01*
X57717731Y-81053715D02*
X57717731Y-81291810D01*
X57717731Y-81291810D02*
X57670112Y-81482286D01*
X57670112Y-81482286D02*
X57622493Y-81577524D01*
X57622493Y-81577524D02*
X57574874Y-81625144D01*
X57574874Y-81625144D02*
X57479636Y-81672763D01*
X57479636Y-81672763D02*
X57384398Y-81672763D01*
X57384398Y-81672763D02*
X57289160Y-81625144D01*
X57289160Y-81625144D02*
X57241541Y-81577524D01*
X57241541Y-81577524D02*
X57193922Y-81482286D01*
X57193922Y-81482286D02*
X57146303Y-81291810D01*
X57146303Y-81291810D02*
X57146303Y-81053715D01*
X57146303Y-81053715D02*
X57193922Y-80863239D01*
X57193922Y-80863239D02*
X57241541Y-80768001D01*
X57241541Y-80768001D02*
X57289160Y-80720382D01*
X57289160Y-80720382D02*
X57384398Y-80672763D01*
X42759819Y-86231515D02*
X42759819Y-86421991D01*
X42759819Y-86421991D02*
X42807438Y-86517229D01*
X42807438Y-86517229D02*
X42855057Y-86564848D01*
X42855057Y-86564848D02*
X42997914Y-86660086D01*
X42997914Y-86660086D02*
X43188390Y-86707705D01*
X43188390Y-86707705D02*
X43569342Y-86707705D01*
X43569342Y-86707705D02*
X43664580Y-86660086D01*
X43664580Y-86660086D02*
X43712200Y-86612467D01*
X43712200Y-86612467D02*
X43759819Y-86517229D01*
X43759819Y-86517229D02*
X43759819Y-86326753D01*
X43759819Y-86326753D02*
X43712200Y-86231515D01*
X43712200Y-86231515D02*
X43664580Y-86183896D01*
X43664580Y-86183896D02*
X43569342Y-86136277D01*
X43569342Y-86136277D02*
X43331247Y-86136277D01*
X43331247Y-86136277D02*
X43236009Y-86183896D01*
X43236009Y-86183896D02*
X43188390Y-86231515D01*
X43188390Y-86231515D02*
X43140771Y-86326753D01*
X43140771Y-86326753D02*
X43140771Y-86517229D01*
X43140771Y-86517229D02*
X43188390Y-86612467D01*
X43188390Y-86612467D02*
X43236009Y-86660086D01*
X43236009Y-86660086D02*
X43331247Y-86707705D01*
X43474104Y-84993419D02*
X43474104Y-84517229D01*
X43759819Y-85088657D02*
X42759819Y-84755324D01*
X42759819Y-84755324D02*
X43759819Y-84421991D01*
X42855057Y-84136276D02*
X42807438Y-84088657D01*
X42807438Y-84088657D02*
X42759819Y-83993419D01*
X42759819Y-83993419D02*
X42759819Y-83755324D01*
X42759819Y-83755324D02*
X42807438Y-83660086D01*
X42807438Y-83660086D02*
X42855057Y-83612467D01*
X42855057Y-83612467D02*
X42950295Y-83564848D01*
X42950295Y-83564848D02*
X43045533Y-83564848D01*
X43045533Y-83564848D02*
X43188390Y-83612467D01*
X43188390Y-83612467D02*
X43759819Y-84183895D01*
X43759819Y-84183895D02*
X43759819Y-83564848D01*
X43759819Y-81850562D02*
X43759819Y-82421990D01*
X43759819Y-82136276D02*
X42759819Y-82136276D01*
X42759819Y-82136276D02*
X42902676Y-82231514D01*
X42902676Y-82231514D02*
X42997914Y-82326752D01*
X42997914Y-82326752D02*
X43045533Y-82421990D01*
X42759819Y-80945800D02*
X42759819Y-81421990D01*
X42759819Y-81421990D02*
X43236009Y-81469609D01*
X43236009Y-81469609D02*
X43188390Y-81421990D01*
X43188390Y-81421990D02*
X43140771Y-81326752D01*
X43140771Y-81326752D02*
X43140771Y-81088657D01*
X43140771Y-81088657D02*
X43188390Y-80993419D01*
X43188390Y-80993419D02*
X43236009Y-80945800D01*
X43236009Y-80945800D02*
X43331247Y-80898181D01*
X43331247Y-80898181D02*
X43569342Y-80898181D01*
X43569342Y-80898181D02*
X43664580Y-80945800D01*
X43664580Y-80945800D02*
X43712200Y-80993419D01*
X43712200Y-80993419D02*
X43759819Y-81088657D01*
X43759819Y-81088657D02*
X43759819Y-81326752D01*
X43759819Y-81326752D02*
X43712200Y-81421990D01*
X43712200Y-81421990D02*
X43664580Y-81469609D01*
X44369819Y-87802943D02*
X44369819Y-87183896D01*
X44369819Y-87183896D02*
X44750771Y-87517229D01*
X44750771Y-87517229D02*
X44750771Y-87374372D01*
X44750771Y-87374372D02*
X44798390Y-87279134D01*
X44798390Y-87279134D02*
X44846009Y-87231515D01*
X44846009Y-87231515D02*
X44941247Y-87183896D01*
X44941247Y-87183896D02*
X45179342Y-87183896D01*
X45179342Y-87183896D02*
X45274580Y-87231515D01*
X45274580Y-87231515D02*
X45322200Y-87279134D01*
X45322200Y-87279134D02*
X45369819Y-87374372D01*
X45369819Y-87374372D02*
X45369819Y-87660086D01*
X45369819Y-87660086D02*
X45322200Y-87755324D01*
X45322200Y-87755324D02*
X45274580Y-87802943D01*
X44369819Y-86898181D02*
X45369819Y-86564848D01*
X45369819Y-86564848D02*
X44369819Y-86231515D01*
X44369819Y-85993419D02*
X44369819Y-85374372D01*
X44369819Y-85374372D02*
X44750771Y-85707705D01*
X44750771Y-85707705D02*
X44750771Y-85564848D01*
X44750771Y-85564848D02*
X44798390Y-85469610D01*
X44798390Y-85469610D02*
X44846009Y-85421991D01*
X44846009Y-85421991D02*
X44941247Y-85374372D01*
X44941247Y-85374372D02*
X45179342Y-85374372D01*
X45179342Y-85374372D02*
X45274580Y-85421991D01*
X45274580Y-85421991D02*
X45322200Y-85469610D01*
X45322200Y-85469610D02*
X45369819Y-85564848D01*
X45369819Y-85564848D02*
X45369819Y-85850562D01*
X45369819Y-85850562D02*
X45322200Y-85945800D01*
X45322200Y-85945800D02*
X45274580Y-85993419D01*
X44988866Y-84183895D02*
X44988866Y-83421991D01*
X44369819Y-82279133D02*
X44369819Y-81660086D01*
X44369819Y-81660086D02*
X44750771Y-81993419D01*
X44750771Y-81993419D02*
X44750771Y-81850562D01*
X44750771Y-81850562D02*
X44798390Y-81755324D01*
X44798390Y-81755324D02*
X44846009Y-81707705D01*
X44846009Y-81707705D02*
X44941247Y-81660086D01*
X44941247Y-81660086D02*
X45179342Y-81660086D01*
X45179342Y-81660086D02*
X45274580Y-81707705D01*
X45274580Y-81707705D02*
X45322200Y-81755324D01*
X45322200Y-81755324D02*
X45369819Y-81850562D01*
X45369819Y-81850562D02*
X45369819Y-82136276D01*
X45369819Y-82136276D02*
X45322200Y-82231514D01*
X45322200Y-82231514D02*
X45274580Y-82279133D01*
X44369819Y-81041038D02*
X44369819Y-80945800D01*
X44369819Y-80945800D02*
X44417438Y-80850562D01*
X44417438Y-80850562D02*
X44465057Y-80802943D01*
X44465057Y-80802943D02*
X44560295Y-80755324D01*
X44560295Y-80755324D02*
X44750771Y-80707705D01*
X44750771Y-80707705D02*
X44988866Y-80707705D01*
X44988866Y-80707705D02*
X45179342Y-80755324D01*
X45179342Y-80755324D02*
X45274580Y-80802943D01*
X45274580Y-80802943D02*
X45322200Y-80850562D01*
X45322200Y-80850562D02*
X45369819Y-80945800D01*
X45369819Y-80945800D02*
X45369819Y-81041038D01*
X45369819Y-81041038D02*
X45322200Y-81136276D01*
X45322200Y-81136276D02*
X45274580Y-81183895D01*
X45274580Y-81183895D02*
X45179342Y-81231514D01*
X45179342Y-81231514D02*
X44988866Y-81279133D01*
X44988866Y-81279133D02*
X44750771Y-81279133D01*
X44750771Y-81279133D02*
X44560295Y-81231514D01*
X44560295Y-81231514D02*
X44465057Y-81183895D01*
X44465057Y-81183895D02*
X44417438Y-81136276D01*
X44417438Y-81136276D02*
X44369819Y-81041038D01*
X44369819Y-80421990D02*
X45369819Y-80088657D01*
X45369819Y-80088657D02*
X44369819Y-79755324D01*
X116039160Y-76387048D02*
X116515350Y-76387048D01*
X115943922Y-76672763D02*
X116277255Y-75672763D01*
X116277255Y-75672763D02*
X116610588Y-76672763D01*
X53039160Y-63625144D02*
X53182017Y-63672763D01*
X53182017Y-63672763D02*
X53420112Y-63672763D01*
X53420112Y-63672763D02*
X53515350Y-63625144D01*
X53515350Y-63625144D02*
X53562969Y-63577524D01*
X53562969Y-63577524D02*
X53610588Y-63482286D01*
X53610588Y-63482286D02*
X53610588Y-63387048D01*
X53610588Y-63387048D02*
X53562969Y-63291810D01*
X53562969Y-63291810D02*
X53515350Y-63244191D01*
X53515350Y-63244191D02*
X53420112Y-63196572D01*
X53420112Y-63196572D02*
X53229636Y-63148953D01*
X53229636Y-63148953D02*
X53134398Y-63101334D01*
X53134398Y-63101334D02*
X53086779Y-63053715D01*
X53086779Y-63053715D02*
X53039160Y-62958477D01*
X53039160Y-62958477D02*
X53039160Y-62863239D01*
X53039160Y-62863239D02*
X53086779Y-62768001D01*
X53086779Y-62768001D02*
X53134398Y-62720382D01*
X53134398Y-62720382D02*
X53229636Y-62672763D01*
X53229636Y-62672763D02*
X53467731Y-62672763D01*
X53467731Y-62672763D02*
X53610588Y-62720382D01*
X54610588Y-63577524D02*
X54562969Y-63625144D01*
X54562969Y-63625144D02*
X54420112Y-63672763D01*
X54420112Y-63672763D02*
X54324874Y-63672763D01*
X54324874Y-63672763D02*
X54182017Y-63625144D01*
X54182017Y-63625144D02*
X54086779Y-63529905D01*
X54086779Y-63529905D02*
X54039160Y-63434667D01*
X54039160Y-63434667D02*
X53991541Y-63244191D01*
X53991541Y-63244191D02*
X53991541Y-63101334D01*
X53991541Y-63101334D02*
X54039160Y-62910858D01*
X54039160Y-62910858D02*
X54086779Y-62815620D01*
X54086779Y-62815620D02*
X54182017Y-62720382D01*
X54182017Y-62720382D02*
X54324874Y-62672763D01*
X54324874Y-62672763D02*
X54420112Y-62672763D01*
X54420112Y-62672763D02*
X54562969Y-62720382D01*
X54562969Y-62720382D02*
X54610588Y-62768001D01*
X55515350Y-63672763D02*
X55039160Y-63672763D01*
X55039160Y-63672763D02*
X55039160Y-62672763D01*
X51860588Y-71720382D02*
X51765350Y-71672763D01*
X51765350Y-71672763D02*
X51622493Y-71672763D01*
X51622493Y-71672763D02*
X51479636Y-71720382D01*
X51479636Y-71720382D02*
X51384398Y-71815620D01*
X51384398Y-71815620D02*
X51336779Y-71910858D01*
X51336779Y-71910858D02*
X51289160Y-72101334D01*
X51289160Y-72101334D02*
X51289160Y-72244191D01*
X51289160Y-72244191D02*
X51336779Y-72434667D01*
X51336779Y-72434667D02*
X51384398Y-72529905D01*
X51384398Y-72529905D02*
X51479636Y-72625144D01*
X51479636Y-72625144D02*
X51622493Y-72672763D01*
X51622493Y-72672763D02*
X51717731Y-72672763D01*
X51717731Y-72672763D02*
X51860588Y-72625144D01*
X51860588Y-72625144D02*
X51908207Y-72577524D01*
X51908207Y-72577524D02*
X51908207Y-72244191D01*
X51908207Y-72244191D02*
X51717731Y-72244191D01*
X53039160Y-54625144D02*
X53182017Y-54672763D01*
X53182017Y-54672763D02*
X53420112Y-54672763D01*
X53420112Y-54672763D02*
X53515350Y-54625144D01*
X53515350Y-54625144D02*
X53562969Y-54577524D01*
X53562969Y-54577524D02*
X53610588Y-54482286D01*
X53610588Y-54482286D02*
X53610588Y-54387048D01*
X53610588Y-54387048D02*
X53562969Y-54291810D01*
X53562969Y-54291810D02*
X53515350Y-54244191D01*
X53515350Y-54244191D02*
X53420112Y-54196572D01*
X53420112Y-54196572D02*
X53229636Y-54148953D01*
X53229636Y-54148953D02*
X53134398Y-54101334D01*
X53134398Y-54101334D02*
X53086779Y-54053715D01*
X53086779Y-54053715D02*
X53039160Y-53958477D01*
X53039160Y-53958477D02*
X53039160Y-53863239D01*
X53039160Y-53863239D02*
X53086779Y-53768001D01*
X53086779Y-53768001D02*
X53134398Y-53720382D01*
X53134398Y-53720382D02*
X53229636Y-53672763D01*
X53229636Y-53672763D02*
X53467731Y-53672763D01*
X53467731Y-53672763D02*
X53610588Y-53720382D01*
X54610588Y-54577524D02*
X54562969Y-54625144D01*
X54562969Y-54625144D02*
X54420112Y-54672763D01*
X54420112Y-54672763D02*
X54324874Y-54672763D01*
X54324874Y-54672763D02*
X54182017Y-54625144D01*
X54182017Y-54625144D02*
X54086779Y-54529905D01*
X54086779Y-54529905D02*
X54039160Y-54434667D01*
X54039160Y-54434667D02*
X53991541Y-54244191D01*
X53991541Y-54244191D02*
X53991541Y-54101334D01*
X53991541Y-54101334D02*
X54039160Y-53910858D01*
X54039160Y-53910858D02*
X54086779Y-53815620D01*
X54086779Y-53815620D02*
X54182017Y-53720382D01*
X54182017Y-53720382D02*
X54324874Y-53672763D01*
X54324874Y-53672763D02*
X54420112Y-53672763D01*
X54420112Y-53672763D02*
X54562969Y-53720382D01*
X54562969Y-53720382D02*
X54610588Y-53768001D01*
X55515350Y-54672763D02*
X55039160Y-54672763D01*
X55039160Y-54672763D02*
X55039160Y-53672763D01*
X96799999Y-67535001D02*
X97357142Y-67535001D01*
X97357142Y-67535001D02*
X97057142Y-67877858D01*
X97057142Y-67877858D02*
X97185713Y-67877858D01*
X97185713Y-67877858D02*
X97271428Y-67920715D01*
X97271428Y-67920715D02*
X97314285Y-67963572D01*
X97314285Y-67963572D02*
X97357142Y-68049286D01*
X97357142Y-68049286D02*
X97357142Y-68263572D01*
X97357142Y-68263572D02*
X97314285Y-68349286D01*
X97314285Y-68349286D02*
X97271428Y-68392144D01*
X97271428Y-68392144D02*
X97185713Y-68435001D01*
X97185713Y-68435001D02*
X96928570Y-68435001D01*
X96928570Y-68435001D02*
X96842856Y-68392144D01*
X96842856Y-68392144D02*
X96799999Y-68349286D01*
X97614285Y-67535001D02*
X97914285Y-68435001D01*
X97914285Y-68435001D02*
X98214285Y-67535001D01*
X98428571Y-67535001D02*
X98985714Y-67535001D01*
X98985714Y-67535001D02*
X98685714Y-67877858D01*
X98685714Y-67877858D02*
X98814285Y-67877858D01*
X98814285Y-67877858D02*
X98900000Y-67920715D01*
X98900000Y-67920715D02*
X98942857Y-67963572D01*
X98942857Y-67963572D02*
X98985714Y-68049286D01*
X98985714Y-68049286D02*
X98985714Y-68263572D01*
X98985714Y-68263572D02*
X98942857Y-68349286D01*
X98942857Y-68349286D02*
X98900000Y-68392144D01*
X98900000Y-68392144D02*
X98814285Y-68435001D01*
X98814285Y-68435001D02*
X98557142Y-68435001D01*
X98557142Y-68435001D02*
X98471428Y-68392144D01*
X98471428Y-68392144D02*
X98428571Y-68349286D01*
X99928571Y-67535001D02*
X100228571Y-68435001D01*
X100228571Y-68435001D02*
X100528571Y-67535001D01*
X100785714Y-68392144D02*
X100914286Y-68435001D01*
X100914286Y-68435001D02*
X101128571Y-68435001D01*
X101128571Y-68435001D02*
X101214286Y-68392144D01*
X101214286Y-68392144D02*
X101257143Y-68349286D01*
X101257143Y-68349286D02*
X101300000Y-68263572D01*
X101300000Y-68263572D02*
X101300000Y-68177858D01*
X101300000Y-68177858D02*
X101257143Y-68092144D01*
X101257143Y-68092144D02*
X101214286Y-68049286D01*
X101214286Y-68049286D02*
X101128571Y-68006429D01*
X101128571Y-68006429D02*
X100957143Y-67963572D01*
X100957143Y-67963572D02*
X100871428Y-67920715D01*
X100871428Y-67920715D02*
X100828571Y-67877858D01*
X100828571Y-67877858D02*
X100785714Y-67792144D01*
X100785714Y-67792144D02*
X100785714Y-67706429D01*
X100785714Y-67706429D02*
X100828571Y-67620715D01*
X100828571Y-67620715D02*
X100871428Y-67577858D01*
X100871428Y-67577858D02*
X100957143Y-67535001D01*
X100957143Y-67535001D02*
X101171428Y-67535001D01*
X101171428Y-67535001D02*
X101300000Y-67577858D01*
X102242857Y-67535001D02*
X102542857Y-68435001D01*
X102542857Y-68435001D02*
X102842857Y-67535001D01*
X103657143Y-68349286D02*
X103614286Y-68392144D01*
X103614286Y-68392144D02*
X103485714Y-68435001D01*
X103485714Y-68435001D02*
X103400000Y-68435001D01*
X103400000Y-68435001D02*
X103271429Y-68392144D01*
X103271429Y-68392144D02*
X103185714Y-68306429D01*
X103185714Y-68306429D02*
X103142857Y-68220715D01*
X103142857Y-68220715D02*
X103100000Y-68049286D01*
X103100000Y-68049286D02*
X103100000Y-67920715D01*
X103100000Y-67920715D02*
X103142857Y-67749286D01*
X103142857Y-67749286D02*
X103185714Y-67663572D01*
X103185714Y-67663572D02*
X103271429Y-67577858D01*
X103271429Y-67577858D02*
X103400000Y-67535001D01*
X103400000Y-67535001D02*
X103485714Y-67535001D01*
X103485714Y-67535001D02*
X103614286Y-67577858D01*
X103614286Y-67577858D02*
X103657143Y-67620715D01*
X104557143Y-68349286D02*
X104514286Y-68392144D01*
X104514286Y-68392144D02*
X104385714Y-68435001D01*
X104385714Y-68435001D02*
X104300000Y-68435001D01*
X104300000Y-68435001D02*
X104171429Y-68392144D01*
X104171429Y-68392144D02*
X104085714Y-68306429D01*
X104085714Y-68306429D02*
X104042857Y-68220715D01*
X104042857Y-68220715D02*
X104000000Y-68049286D01*
X104000000Y-68049286D02*
X104000000Y-67920715D01*
X104000000Y-67920715D02*
X104042857Y-67749286D01*
X104042857Y-67749286D02*
X104085714Y-67663572D01*
X104085714Y-67663572D02*
X104171429Y-67577858D01*
X104171429Y-67577858D02*
X104300000Y-67535001D01*
X104300000Y-67535001D02*
X104385714Y-67535001D01*
X104385714Y-67535001D02*
X104514286Y-67577858D01*
X104514286Y-67577858D02*
X104557143Y-67620715D01*
X54265350Y-71672763D02*
X54074874Y-71672763D01*
X54074874Y-71672763D02*
X53979636Y-71720382D01*
X53979636Y-71720382D02*
X53932017Y-71768001D01*
X53932017Y-71768001D02*
X53836779Y-71910858D01*
X53836779Y-71910858D02*
X53789160Y-72101334D01*
X53789160Y-72101334D02*
X53789160Y-72482286D01*
X53789160Y-72482286D02*
X53836779Y-72577524D01*
X53836779Y-72577524D02*
X53884398Y-72625144D01*
X53884398Y-72625144D02*
X53979636Y-72672763D01*
X53979636Y-72672763D02*
X54170112Y-72672763D01*
X54170112Y-72672763D02*
X54265350Y-72625144D01*
X54265350Y-72625144D02*
X54312969Y-72577524D01*
X54312969Y-72577524D02*
X54360588Y-72482286D01*
X54360588Y-72482286D02*
X54360588Y-72244191D01*
X54360588Y-72244191D02*
X54312969Y-72148953D01*
X54312969Y-72148953D02*
X54265350Y-72101334D01*
X54265350Y-72101334D02*
X54170112Y-72053715D01*
X54170112Y-72053715D02*
X53979636Y-72053715D01*
X53979636Y-72053715D02*
X53884398Y-72101334D01*
X53884398Y-72101334D02*
X53836779Y-72148953D01*
X53836779Y-72148953D02*
X53789160Y-72244191D01*
X54932017Y-71672763D02*
X54932017Y-71910858D01*
X54693922Y-71815620D02*
X54932017Y-71910858D01*
X54932017Y-71910858D02*
X55170112Y-71815620D01*
X54789160Y-72101334D02*
X54932017Y-71910858D01*
X54932017Y-71910858D02*
X55074874Y-72101334D01*
X107860588Y-58470382D02*
X107765350Y-58422763D01*
X107765350Y-58422763D02*
X107622493Y-58422763D01*
X107622493Y-58422763D02*
X107479636Y-58470382D01*
X107479636Y-58470382D02*
X107384398Y-58565620D01*
X107384398Y-58565620D02*
X107336779Y-58660858D01*
X107336779Y-58660858D02*
X107289160Y-58851334D01*
X107289160Y-58851334D02*
X107289160Y-58994191D01*
X107289160Y-58994191D02*
X107336779Y-59184667D01*
X107336779Y-59184667D02*
X107384398Y-59279905D01*
X107384398Y-59279905D02*
X107479636Y-59375144D01*
X107479636Y-59375144D02*
X107622493Y-59422763D01*
X107622493Y-59422763D02*
X107717731Y-59422763D01*
X107717731Y-59422763D02*
X107860588Y-59375144D01*
X107860588Y-59375144D02*
X107908207Y-59327524D01*
X107908207Y-59327524D02*
X107908207Y-58994191D01*
X107908207Y-58994191D02*
X107717731Y-58994191D01*
X108336779Y-59422763D02*
X108336779Y-58422763D01*
X108336779Y-58422763D02*
X108908207Y-59422763D01*
X108908207Y-59422763D02*
X108908207Y-58422763D01*
X109384398Y-59422763D02*
X109384398Y-58422763D01*
X109384398Y-58422763D02*
X109622493Y-58422763D01*
X109622493Y-58422763D02*
X109765350Y-58470382D01*
X109765350Y-58470382D02*
X109860588Y-58565620D01*
X109860588Y-58565620D02*
X109908207Y-58660858D01*
X109908207Y-58660858D02*
X109955826Y-58851334D01*
X109955826Y-58851334D02*
X109955826Y-58994191D01*
X109955826Y-58994191D02*
X109908207Y-59184667D01*
X109908207Y-59184667D02*
X109860588Y-59279905D01*
X109860588Y-59279905D02*
X109765350Y-59375144D01*
X109765350Y-59375144D02*
X109622493Y-59422763D01*
X109622493Y-59422763D02*
X109384398Y-59422763D01*
X56860588Y-90672763D02*
X56289160Y-90672763D01*
X56574874Y-90672763D02*
X56574874Y-89672763D01*
X56574874Y-89672763D02*
X56479636Y-89815620D01*
X56479636Y-89815620D02*
X56384398Y-89910858D01*
X56384398Y-89910858D02*
X56289160Y-89958477D01*
X57479636Y-89672763D02*
X57574874Y-89672763D01*
X57574874Y-89672763D02*
X57670112Y-89720382D01*
X57670112Y-89720382D02*
X57717731Y-89768001D01*
X57717731Y-89768001D02*
X57765350Y-89863239D01*
X57765350Y-89863239D02*
X57812969Y-90053715D01*
X57812969Y-90053715D02*
X57812969Y-90291810D01*
X57812969Y-90291810D02*
X57765350Y-90482286D01*
X57765350Y-90482286D02*
X57717731Y-90577524D01*
X57717731Y-90577524D02*
X57670112Y-90625144D01*
X57670112Y-90625144D02*
X57574874Y-90672763D01*
X57574874Y-90672763D02*
X57479636Y-90672763D01*
X57479636Y-90672763D02*
X57384398Y-90625144D01*
X57384398Y-90625144D02*
X57336779Y-90577524D01*
X57336779Y-90577524D02*
X57289160Y-90482286D01*
X57289160Y-90482286D02*
X57241541Y-90291810D01*
X57241541Y-90291810D02*
X57241541Y-90053715D01*
X57241541Y-90053715D02*
X57289160Y-89863239D01*
X57289160Y-89863239D02*
X57336779Y-89768001D01*
X57336779Y-89768001D02*
X57384398Y-89720382D01*
X57384398Y-89720382D02*
X57479636Y-89672763D01*
X40789160Y-74125144D02*
X40932017Y-74172763D01*
X40932017Y-74172763D02*
X41170112Y-74172763D01*
X41170112Y-74172763D02*
X41265350Y-74125144D01*
X41265350Y-74125144D02*
X41312969Y-74077524D01*
X41312969Y-74077524D02*
X41360588Y-73982286D01*
X41360588Y-73982286D02*
X41360588Y-73887048D01*
X41360588Y-73887048D02*
X41312969Y-73791810D01*
X41312969Y-73791810D02*
X41265350Y-73744191D01*
X41265350Y-73744191D02*
X41170112Y-73696572D01*
X41170112Y-73696572D02*
X40979636Y-73648953D01*
X40979636Y-73648953D02*
X40884398Y-73601334D01*
X40884398Y-73601334D02*
X40836779Y-73553715D01*
X40836779Y-73553715D02*
X40789160Y-73458477D01*
X40789160Y-73458477D02*
X40789160Y-73363239D01*
X40789160Y-73363239D02*
X40836779Y-73268001D01*
X40836779Y-73268001D02*
X40884398Y-73220382D01*
X40884398Y-73220382D02*
X40979636Y-73172763D01*
X40979636Y-73172763D02*
X41217731Y-73172763D01*
X41217731Y-73172763D02*
X41360588Y-73220382D01*
X42360588Y-74077524D02*
X42312969Y-74125144D01*
X42312969Y-74125144D02*
X42170112Y-74172763D01*
X42170112Y-74172763D02*
X42074874Y-74172763D01*
X42074874Y-74172763D02*
X41932017Y-74125144D01*
X41932017Y-74125144D02*
X41836779Y-74029905D01*
X41836779Y-74029905D02*
X41789160Y-73934667D01*
X41789160Y-73934667D02*
X41741541Y-73744191D01*
X41741541Y-73744191D02*
X41741541Y-73601334D01*
X41741541Y-73601334D02*
X41789160Y-73410858D01*
X41789160Y-73410858D02*
X41836779Y-73315620D01*
X41836779Y-73315620D02*
X41932017Y-73220382D01*
X41932017Y-73220382D02*
X42074874Y-73172763D01*
X42074874Y-73172763D02*
X42170112Y-73172763D01*
X42170112Y-73172763D02*
X42312969Y-73220382D01*
X42312969Y-73220382D02*
X42360588Y-73268001D01*
X43265350Y-74172763D02*
X42789160Y-74172763D01*
X42789160Y-74172763D02*
X42789160Y-73172763D01*
X46834104Y-88013783D02*
X46834104Y-87537593D01*
X47119819Y-88109021D02*
X46119819Y-87775688D01*
X46119819Y-87775688D02*
X47119819Y-87442355D01*
X47119819Y-87109021D02*
X46119819Y-87109021D01*
X46119819Y-87109021D02*
X46119819Y-86870926D01*
X46119819Y-86870926D02*
X46167438Y-86728069D01*
X46167438Y-86728069D02*
X46262676Y-86632831D01*
X46262676Y-86632831D02*
X46357914Y-86585212D01*
X46357914Y-86585212D02*
X46548390Y-86537593D01*
X46548390Y-86537593D02*
X46691247Y-86537593D01*
X46691247Y-86537593D02*
X46881723Y-86585212D01*
X46881723Y-86585212D02*
X46976961Y-86632831D01*
X46976961Y-86632831D02*
X47072200Y-86728069D01*
X47072200Y-86728069D02*
X47119819Y-86870926D01*
X47119819Y-86870926D02*
X47119819Y-87109021D01*
X47024580Y-85537593D02*
X47072200Y-85585212D01*
X47072200Y-85585212D02*
X47119819Y-85728069D01*
X47119819Y-85728069D02*
X47119819Y-85823307D01*
X47119819Y-85823307D02*
X47072200Y-85966164D01*
X47072200Y-85966164D02*
X46976961Y-86061402D01*
X46976961Y-86061402D02*
X46881723Y-86109021D01*
X46881723Y-86109021D02*
X46691247Y-86156640D01*
X46691247Y-86156640D02*
X46548390Y-86156640D01*
X46548390Y-86156640D02*
X46357914Y-86109021D01*
X46357914Y-86109021D02*
X46262676Y-86061402D01*
X46262676Y-86061402D02*
X46167438Y-85966164D01*
X46167438Y-85966164D02*
X46119819Y-85823307D01*
X46119819Y-85823307D02*
X46119819Y-85728069D01*
X46119819Y-85728069D02*
X46167438Y-85585212D01*
X46167438Y-85585212D02*
X46215057Y-85537593D01*
X47119819Y-57966164D02*
X46119819Y-57966164D01*
X46215057Y-57537593D02*
X46167438Y-57489974D01*
X46167438Y-57489974D02*
X46119819Y-57394736D01*
X46119819Y-57394736D02*
X46119819Y-57156641D01*
X46119819Y-57156641D02*
X46167438Y-57061403D01*
X46167438Y-57061403D02*
X46215057Y-57013784D01*
X46215057Y-57013784D02*
X46310295Y-56966165D01*
X46310295Y-56966165D02*
X46405533Y-56966165D01*
X46405533Y-56966165D02*
X46548390Y-57013784D01*
X46548390Y-57013784D02*
X47119819Y-57585212D01*
X47119819Y-57585212D02*
X47119819Y-56966165D01*
X47024580Y-55966165D02*
X47072200Y-56013784D01*
X47072200Y-56013784D02*
X47119819Y-56156641D01*
X47119819Y-56156641D02*
X47119819Y-56251879D01*
X47119819Y-56251879D02*
X47072200Y-56394736D01*
X47072200Y-56394736D02*
X46976961Y-56489974D01*
X46976961Y-56489974D02*
X46881723Y-56537593D01*
X46881723Y-56537593D02*
X46691247Y-56585212D01*
X46691247Y-56585212D02*
X46548390Y-56585212D01*
X46548390Y-56585212D02*
X46357914Y-56537593D01*
X46357914Y-56537593D02*
X46262676Y-56489974D01*
X46262676Y-56489974D02*
X46167438Y-56394736D01*
X46167438Y-56394736D02*
X46119819Y-56251879D01*
X46119819Y-56251879D02*
X46119819Y-56156641D01*
X46119819Y-56156641D02*
X46167438Y-56013784D01*
X46167438Y-56013784D02*
X46215057Y-55966165D01*
X46119819Y-55347117D02*
X46119819Y-55251879D01*
X46119819Y-55251879D02*
X46167438Y-55156641D01*
X46167438Y-55156641D02*
X46215057Y-55109022D01*
X46215057Y-55109022D02*
X46310295Y-55061403D01*
X46310295Y-55061403D02*
X46500771Y-55013784D01*
X46500771Y-55013784D02*
X46738866Y-55013784D01*
X46738866Y-55013784D02*
X46929342Y-55061403D01*
X46929342Y-55061403D02*
X47024580Y-55109022D01*
X47024580Y-55109022D02*
X47072200Y-55156641D01*
X47072200Y-55156641D02*
X47119819Y-55251879D01*
X47119819Y-55251879D02*
X47119819Y-55347117D01*
X47119819Y-55347117D02*
X47072200Y-55442355D01*
X47072200Y-55442355D02*
X47024580Y-55489974D01*
X47024580Y-55489974D02*
X46929342Y-55537593D01*
X46929342Y-55537593D02*
X46738866Y-55585212D01*
X46738866Y-55585212D02*
X46500771Y-55585212D01*
X46500771Y-55585212D02*
X46310295Y-55537593D01*
X46310295Y-55537593D02*
X46215057Y-55489974D01*
X46215057Y-55489974D02*
X46167438Y-55442355D01*
X46167438Y-55442355D02*
X46119819Y-55347117D01*
X42860588Y-58220382D02*
X42765350Y-58172763D01*
X42765350Y-58172763D02*
X42622493Y-58172763D01*
X42622493Y-58172763D02*
X42479636Y-58220382D01*
X42479636Y-58220382D02*
X42384398Y-58315620D01*
X42384398Y-58315620D02*
X42336779Y-58410858D01*
X42336779Y-58410858D02*
X42289160Y-58601334D01*
X42289160Y-58601334D02*
X42289160Y-58744191D01*
X42289160Y-58744191D02*
X42336779Y-58934667D01*
X42336779Y-58934667D02*
X42384398Y-59029905D01*
X42384398Y-59029905D02*
X42479636Y-59125144D01*
X42479636Y-59125144D02*
X42622493Y-59172763D01*
X42622493Y-59172763D02*
X42717731Y-59172763D01*
X42717731Y-59172763D02*
X42860588Y-59125144D01*
X42860588Y-59125144D02*
X42908207Y-59077524D01*
X42908207Y-59077524D02*
X42908207Y-58744191D01*
X42908207Y-58744191D02*
X42717731Y-58744191D01*
X43336779Y-59172763D02*
X43336779Y-58172763D01*
X43336779Y-58172763D02*
X43908207Y-59172763D01*
X43908207Y-59172763D02*
X43908207Y-58172763D01*
X44384398Y-59172763D02*
X44384398Y-58172763D01*
X44384398Y-58172763D02*
X44622493Y-58172763D01*
X44622493Y-58172763D02*
X44765350Y-58220382D01*
X44765350Y-58220382D02*
X44860588Y-58315620D01*
X44860588Y-58315620D02*
X44908207Y-58410858D01*
X44908207Y-58410858D02*
X44955826Y-58601334D01*
X44955826Y-58601334D02*
X44955826Y-58744191D01*
X44955826Y-58744191D02*
X44908207Y-58934667D01*
X44908207Y-58934667D02*
X44860588Y-59029905D01*
X44860588Y-59029905D02*
X44765350Y-59125144D01*
X44765350Y-59125144D02*
X44622493Y-59172763D01*
X44622493Y-59172763D02*
X44384398Y-59172763D01*
X86034819Y-74824736D02*
X85558628Y-75158069D01*
X86034819Y-75396164D02*
X85034819Y-75396164D01*
X85034819Y-75396164D02*
X85034819Y-75015212D01*
X85034819Y-75015212D02*
X85082438Y-74919974D01*
X85082438Y-74919974D02*
X85130057Y-74872355D01*
X85130057Y-74872355D02*
X85225295Y-74824736D01*
X85225295Y-74824736D02*
X85368152Y-74824736D01*
X85368152Y-74824736D02*
X85463390Y-74872355D01*
X85463390Y-74872355D02*
X85511009Y-74919974D01*
X85511009Y-74919974D02*
X85558628Y-75015212D01*
X85558628Y-75015212D02*
X85558628Y-75396164D01*
X85034819Y-74396164D02*
X85844342Y-74396164D01*
X85844342Y-74396164D02*
X85939580Y-74348545D01*
X85939580Y-74348545D02*
X85987200Y-74300926D01*
X85987200Y-74300926D02*
X86034819Y-74205688D01*
X86034819Y-74205688D02*
X86034819Y-74015212D01*
X86034819Y-74015212D02*
X85987200Y-73919974D01*
X85987200Y-73919974D02*
X85939580Y-73872355D01*
X85939580Y-73872355D02*
X85844342Y-73824736D01*
X85844342Y-73824736D02*
X85034819Y-73824736D01*
X86034819Y-73348545D02*
X85034819Y-73348545D01*
X85034819Y-73348545D02*
X86034819Y-72777117D01*
X86034819Y-72777117D02*
X85034819Y-72777117D01*
X51860588Y-80720382D02*
X51765350Y-80672763D01*
X51765350Y-80672763D02*
X51622493Y-80672763D01*
X51622493Y-80672763D02*
X51479636Y-80720382D01*
X51479636Y-80720382D02*
X51384398Y-80815620D01*
X51384398Y-80815620D02*
X51336779Y-80910858D01*
X51336779Y-80910858D02*
X51289160Y-81101334D01*
X51289160Y-81101334D02*
X51289160Y-81244191D01*
X51289160Y-81244191D02*
X51336779Y-81434667D01*
X51336779Y-81434667D02*
X51384398Y-81529905D01*
X51384398Y-81529905D02*
X51479636Y-81625144D01*
X51479636Y-81625144D02*
X51622493Y-81672763D01*
X51622493Y-81672763D02*
X51717731Y-81672763D01*
X51717731Y-81672763D02*
X51860588Y-81625144D01*
X51860588Y-81625144D02*
X51908207Y-81577524D01*
X51908207Y-81577524D02*
X51908207Y-81244191D01*
X51908207Y-81244191D02*
X51717731Y-81244191D01*
X51860588Y-89720382D02*
X51765350Y-89672763D01*
X51765350Y-89672763D02*
X51622493Y-89672763D01*
X51622493Y-89672763D02*
X51479636Y-89720382D01*
X51479636Y-89720382D02*
X51384398Y-89815620D01*
X51384398Y-89815620D02*
X51336779Y-89910858D01*
X51336779Y-89910858D02*
X51289160Y-90101334D01*
X51289160Y-90101334D02*
X51289160Y-90244191D01*
X51289160Y-90244191D02*
X51336779Y-90434667D01*
X51336779Y-90434667D02*
X51384398Y-90529905D01*
X51384398Y-90529905D02*
X51479636Y-90625144D01*
X51479636Y-90625144D02*
X51622493Y-90672763D01*
X51622493Y-90672763D02*
X51717731Y-90672763D01*
X51717731Y-90672763D02*
X51860588Y-90625144D01*
X51860588Y-90625144D02*
X51908207Y-90577524D01*
X51908207Y-90577524D02*
X51908207Y-90244191D01*
X51908207Y-90244191D02*
X51717731Y-90244191D01*
X114474104Y-60671991D02*
X114474104Y-60195801D01*
X114759819Y-60767229D02*
X113759819Y-60433896D01*
X113759819Y-60433896D02*
X114759819Y-60100563D01*
X114236009Y-58671991D02*
X114283628Y-58529134D01*
X114283628Y-58529134D02*
X114331247Y-58481515D01*
X114331247Y-58481515D02*
X114426485Y-58433896D01*
X114426485Y-58433896D02*
X114569342Y-58433896D01*
X114569342Y-58433896D02*
X114664580Y-58481515D01*
X114664580Y-58481515D02*
X114712200Y-58529134D01*
X114712200Y-58529134D02*
X114759819Y-58624372D01*
X114759819Y-58624372D02*
X114759819Y-59005324D01*
X114759819Y-59005324D02*
X113759819Y-59005324D01*
X113759819Y-59005324D02*
X113759819Y-58671991D01*
X113759819Y-58671991D02*
X113807438Y-58576753D01*
X113807438Y-58576753D02*
X113855057Y-58529134D01*
X113855057Y-58529134D02*
X113950295Y-58481515D01*
X113950295Y-58481515D02*
X114045533Y-58481515D01*
X114045533Y-58481515D02*
X114140771Y-58529134D01*
X114140771Y-58529134D02*
X114188390Y-58576753D01*
X114188390Y-58576753D02*
X114236009Y-58671991D01*
X114236009Y-58671991D02*
X114236009Y-59005324D01*
X116369819Y-61148182D02*
X115893628Y-61481515D01*
X116369819Y-61719610D02*
X115369819Y-61719610D01*
X115369819Y-61719610D02*
X115369819Y-61338658D01*
X115369819Y-61338658D02*
X115417438Y-61243420D01*
X115417438Y-61243420D02*
X115465057Y-61195801D01*
X115465057Y-61195801D02*
X115560295Y-61148182D01*
X115560295Y-61148182D02*
X115703152Y-61148182D01*
X115703152Y-61148182D02*
X115798390Y-61195801D01*
X115798390Y-61195801D02*
X115846009Y-61243420D01*
X115846009Y-61243420D02*
X115893628Y-61338658D01*
X115893628Y-61338658D02*
X115893628Y-61719610D01*
X116322200Y-60767229D02*
X116369819Y-60624372D01*
X116369819Y-60624372D02*
X116369819Y-60386277D01*
X116369819Y-60386277D02*
X116322200Y-60291039D01*
X116322200Y-60291039D02*
X116274580Y-60243420D01*
X116274580Y-60243420D02*
X116179342Y-60195801D01*
X116179342Y-60195801D02*
X116084104Y-60195801D01*
X116084104Y-60195801D02*
X115988866Y-60243420D01*
X115988866Y-60243420D02*
X115941247Y-60291039D01*
X115941247Y-60291039D02*
X115893628Y-60386277D01*
X115893628Y-60386277D02*
X115846009Y-60576753D01*
X115846009Y-60576753D02*
X115798390Y-60671991D01*
X115798390Y-60671991D02*
X115750771Y-60719610D01*
X115750771Y-60719610D02*
X115655533Y-60767229D01*
X115655533Y-60767229D02*
X115560295Y-60767229D01*
X115560295Y-60767229D02*
X115465057Y-60719610D01*
X115465057Y-60719610D02*
X115417438Y-60671991D01*
X115417438Y-60671991D02*
X115369819Y-60576753D01*
X115369819Y-60576753D02*
X115369819Y-60338658D01*
X115369819Y-60338658D02*
X115417438Y-60195801D01*
X115703152Y-59338658D02*
X116369819Y-59338658D01*
X115322200Y-59576753D02*
X116036485Y-59814848D01*
X116036485Y-59814848D02*
X116036485Y-59195801D01*
X115798390Y-58671991D02*
X115750771Y-58767229D01*
X115750771Y-58767229D02*
X115703152Y-58814848D01*
X115703152Y-58814848D02*
X115607914Y-58862467D01*
X115607914Y-58862467D02*
X115560295Y-58862467D01*
X115560295Y-58862467D02*
X115465057Y-58814848D01*
X115465057Y-58814848D02*
X115417438Y-58767229D01*
X115417438Y-58767229D02*
X115369819Y-58671991D01*
X115369819Y-58671991D02*
X115369819Y-58481515D01*
X115369819Y-58481515D02*
X115417438Y-58386277D01*
X115417438Y-58386277D02*
X115465057Y-58338658D01*
X115465057Y-58338658D02*
X115560295Y-58291039D01*
X115560295Y-58291039D02*
X115607914Y-58291039D01*
X115607914Y-58291039D02*
X115703152Y-58338658D01*
X115703152Y-58338658D02*
X115750771Y-58386277D01*
X115750771Y-58386277D02*
X115798390Y-58481515D01*
X115798390Y-58481515D02*
X115798390Y-58671991D01*
X115798390Y-58671991D02*
X115846009Y-58767229D01*
X115846009Y-58767229D02*
X115893628Y-58814848D01*
X115893628Y-58814848D02*
X115988866Y-58862467D01*
X115988866Y-58862467D02*
X116179342Y-58862467D01*
X116179342Y-58862467D02*
X116274580Y-58814848D01*
X116274580Y-58814848D02*
X116322200Y-58767229D01*
X116322200Y-58767229D02*
X116369819Y-58671991D01*
X116369819Y-58671991D02*
X116369819Y-58481515D01*
X116369819Y-58481515D02*
X116322200Y-58386277D01*
X116322200Y-58386277D02*
X116274580Y-58338658D01*
X116274580Y-58338658D02*
X116179342Y-58291039D01*
X116179342Y-58291039D02*
X115988866Y-58291039D01*
X115988866Y-58291039D02*
X115893628Y-58338658D01*
X115893628Y-58338658D02*
X115846009Y-58386277D01*
X115846009Y-58386277D02*
X115798390Y-58481515D01*
X115369819Y-57386277D02*
X115369819Y-57862467D01*
X115369819Y-57862467D02*
X115846009Y-57910086D01*
X115846009Y-57910086D02*
X115798390Y-57862467D01*
X115798390Y-57862467D02*
X115750771Y-57767229D01*
X115750771Y-57767229D02*
X115750771Y-57529134D01*
X115750771Y-57529134D02*
X115798390Y-57433896D01*
X115798390Y-57433896D02*
X115846009Y-57386277D01*
X115846009Y-57386277D02*
X115941247Y-57338658D01*
X115941247Y-57338658D02*
X116179342Y-57338658D01*
X116179342Y-57338658D02*
X116274580Y-57386277D01*
X116274580Y-57386277D02*
X116322200Y-57433896D01*
X116322200Y-57433896D02*
X116369819Y-57529134D01*
X116369819Y-57529134D02*
X116369819Y-57767229D01*
X116369819Y-57767229D02*
X116322200Y-57862467D01*
X116322200Y-57862467D02*
X116274580Y-57910086D01*
X56039160Y-63625144D02*
X56182017Y-63672763D01*
X56182017Y-63672763D02*
X56420112Y-63672763D01*
X56420112Y-63672763D02*
X56515350Y-63625144D01*
X56515350Y-63625144D02*
X56562969Y-63577524D01*
X56562969Y-63577524D02*
X56610588Y-63482286D01*
X56610588Y-63482286D02*
X56610588Y-63387048D01*
X56610588Y-63387048D02*
X56562969Y-63291810D01*
X56562969Y-63291810D02*
X56515350Y-63244191D01*
X56515350Y-63244191D02*
X56420112Y-63196572D01*
X56420112Y-63196572D02*
X56229636Y-63148953D01*
X56229636Y-63148953D02*
X56134398Y-63101334D01*
X56134398Y-63101334D02*
X56086779Y-63053715D01*
X56086779Y-63053715D02*
X56039160Y-62958477D01*
X56039160Y-62958477D02*
X56039160Y-62863239D01*
X56039160Y-62863239D02*
X56086779Y-62768001D01*
X56086779Y-62768001D02*
X56134398Y-62720382D01*
X56134398Y-62720382D02*
X56229636Y-62672763D01*
X56229636Y-62672763D02*
X56467731Y-62672763D01*
X56467731Y-62672763D02*
X56610588Y-62720382D01*
X57039160Y-63672763D02*
X57039160Y-62672763D01*
X57039160Y-62672763D02*
X57277255Y-62672763D01*
X57277255Y-62672763D02*
X57420112Y-62720382D01*
X57420112Y-62720382D02*
X57515350Y-62815620D01*
X57515350Y-62815620D02*
X57562969Y-62910858D01*
X57562969Y-62910858D02*
X57610588Y-63101334D01*
X57610588Y-63101334D02*
X57610588Y-63244191D01*
X57610588Y-63244191D02*
X57562969Y-63434667D01*
X57562969Y-63434667D02*
X57515350Y-63529905D01*
X57515350Y-63529905D02*
X57420112Y-63625144D01*
X57420112Y-63625144D02*
X57277255Y-63672763D01*
X57277255Y-63672763D02*
X57039160Y-63672763D01*
X57991541Y-63387048D02*
X58467731Y-63387048D01*
X57896303Y-63672763D02*
X58229636Y-62672763D01*
X58229636Y-62672763D02*
X58562969Y-63672763D01*
X40630180Y-86163532D02*
X40630180Y-85592104D01*
X40630180Y-85877818D02*
X41630180Y-85877818D01*
X41630180Y-85877818D02*
X41487323Y-85782580D01*
X41487323Y-85782580D02*
X41392085Y-85687342D01*
X41392085Y-85687342D02*
X41344466Y-85592104D01*
X41630180Y-87068294D02*
X41630180Y-86592104D01*
X41630180Y-86592104D02*
X41153990Y-86544485D01*
X41153990Y-86544485D02*
X41201609Y-86592104D01*
X41201609Y-86592104D02*
X41249228Y-86687342D01*
X41249228Y-86687342D02*
X41249228Y-86925437D01*
X41249228Y-86925437D02*
X41201609Y-87020675D01*
X41201609Y-87020675D02*
X41153990Y-87068294D01*
X41153990Y-87068294D02*
X41058752Y-87115913D01*
X41058752Y-87115913D02*
X40820657Y-87115913D01*
X40820657Y-87115913D02*
X40725419Y-87068294D01*
X40725419Y-87068294D02*
X40677800Y-87020675D01*
X40677800Y-87020675D02*
X40630180Y-86925437D01*
X40630180Y-86925437D02*
X40630180Y-86687342D01*
X40630180Y-86687342D02*
X40677800Y-86592104D01*
X40677800Y-86592104D02*
X40725419Y-86544485D01*
X41630180Y-87687342D02*
X41392085Y-87687342D01*
X41487323Y-87449247D02*
X41392085Y-87687342D01*
X41392085Y-87687342D02*
X41487323Y-87925437D01*
X41201609Y-87544485D02*
X41392085Y-87687342D01*
X41392085Y-87687342D02*
X41201609Y-87830199D01*
X53789160Y-81387048D02*
X54265350Y-81387048D01*
X53693922Y-81672763D02*
X54027255Y-80672763D01*
X54027255Y-80672763D02*
X54360588Y-81672763D01*
X55217731Y-81672763D02*
X54646303Y-81672763D01*
X54932017Y-81672763D02*
X54932017Y-80672763D01*
X54932017Y-80672763D02*
X54836779Y-80815620D01*
X54836779Y-80815620D02*
X54741541Y-80910858D01*
X54741541Y-80910858D02*
X54646303Y-80958477D01*
X94539160Y-105268001D02*
X94586779Y-105220382D01*
X94586779Y-105220382D02*
X94682017Y-105172763D01*
X94682017Y-105172763D02*
X94920112Y-105172763D01*
X94920112Y-105172763D02*
X95015350Y-105220382D01*
X95015350Y-105220382D02*
X95062969Y-105268001D01*
X95062969Y-105268001D02*
X95110588Y-105363239D01*
X95110588Y-105363239D02*
X95110588Y-105458477D01*
X95110588Y-105458477D02*
X95062969Y-105601334D01*
X95062969Y-105601334D02*
X94491541Y-106172763D01*
X94491541Y-106172763D02*
X95110588Y-106172763D01*
X95729636Y-105172763D02*
X95824874Y-105172763D01*
X95824874Y-105172763D02*
X95920112Y-105220382D01*
X95920112Y-105220382D02*
X95967731Y-105268001D01*
X95967731Y-105268001D02*
X96015350Y-105363239D01*
X96015350Y-105363239D02*
X96062969Y-105553715D01*
X96062969Y-105553715D02*
X96062969Y-105791810D01*
X96062969Y-105791810D02*
X96015350Y-105982286D01*
X96015350Y-105982286D02*
X95967731Y-106077524D01*
X95967731Y-106077524D02*
X95920112Y-106125144D01*
X95920112Y-106125144D02*
X95824874Y-106172763D01*
X95824874Y-106172763D02*
X95729636Y-106172763D01*
X95729636Y-106172763D02*
X95634398Y-106125144D01*
X95634398Y-106125144D02*
X95586779Y-106077524D01*
X95586779Y-106077524D02*
X95539160Y-105982286D01*
X95539160Y-105982286D02*
X95491541Y-105791810D01*
X95491541Y-105791810D02*
X95491541Y-105553715D01*
X95491541Y-105553715D02*
X95539160Y-105363239D01*
X95539160Y-105363239D02*
X95586779Y-105268001D01*
X95586779Y-105268001D02*
X95634398Y-105220382D01*
X95634398Y-105220382D02*
X95729636Y-105172763D01*
X96491541Y-105791810D02*
X97253446Y-105791810D01*
X98253445Y-106172763D02*
X97682017Y-106172763D01*
X97967731Y-106172763D02*
X97967731Y-105172763D01*
X97967731Y-105172763D02*
X97872493Y-105315620D01*
X97872493Y-105315620D02*
X97777255Y-105410858D01*
X97777255Y-105410858D02*
X97682017Y-105458477D01*
X98729636Y-106172763D02*
X98920112Y-106172763D01*
X98920112Y-106172763D02*
X99015350Y-106125144D01*
X99015350Y-106125144D02*
X99062969Y-106077524D01*
X99062969Y-106077524D02*
X99158207Y-105934667D01*
X99158207Y-105934667D02*
X99205826Y-105744191D01*
X99205826Y-105744191D02*
X99205826Y-105363239D01*
X99205826Y-105363239D02*
X99158207Y-105268001D01*
X99158207Y-105268001D02*
X99110588Y-105220382D01*
X99110588Y-105220382D02*
X99015350Y-105172763D01*
X99015350Y-105172763D02*
X98824874Y-105172763D01*
X98824874Y-105172763D02*
X98729636Y-105220382D01*
X98729636Y-105220382D02*
X98682017Y-105268001D01*
X98682017Y-105268001D02*
X98634398Y-105363239D01*
X98634398Y-105363239D02*
X98634398Y-105601334D01*
X98634398Y-105601334D02*
X98682017Y-105696572D01*
X98682017Y-105696572D02*
X98729636Y-105744191D01*
X98729636Y-105744191D02*
X98824874Y-105791810D01*
X98824874Y-105791810D02*
X99015350Y-105791810D01*
X99015350Y-105791810D02*
X99110588Y-105744191D01*
X99110588Y-105744191D02*
X99158207Y-105696572D01*
X99158207Y-105696572D02*
X99205826Y-105601334D01*
X48693922Y-98672763D02*
X49027255Y-99672763D01*
X49027255Y-99672763D02*
X49360588Y-98672763D01*
X48693922Y-80672763D02*
X49027255Y-81672763D01*
X49027255Y-81672763D02*
X49360588Y-80672763D01*
X94289160Y-54268001D02*
X94336779Y-54220382D01*
X94336779Y-54220382D02*
X94432017Y-54172763D01*
X94432017Y-54172763D02*
X94670112Y-54172763D01*
X94670112Y-54172763D02*
X94765350Y-54220382D01*
X94765350Y-54220382D02*
X94812969Y-54268001D01*
X94812969Y-54268001D02*
X94860588Y-54363239D01*
X94860588Y-54363239D02*
X94860588Y-54458477D01*
X94860588Y-54458477D02*
X94812969Y-54601334D01*
X94812969Y-54601334D02*
X94241541Y-55172763D01*
X94241541Y-55172763D02*
X94860588Y-55172763D01*
X95241541Y-54268001D02*
X95289160Y-54220382D01*
X95289160Y-54220382D02*
X95384398Y-54172763D01*
X95384398Y-54172763D02*
X95622493Y-54172763D01*
X95622493Y-54172763D02*
X95717731Y-54220382D01*
X95717731Y-54220382D02*
X95765350Y-54268001D01*
X95765350Y-54268001D02*
X95812969Y-54363239D01*
X95812969Y-54363239D02*
X95812969Y-54458477D01*
X95812969Y-54458477D02*
X95765350Y-54601334D01*
X95765350Y-54601334D02*
X95193922Y-55172763D01*
X95193922Y-55172763D02*
X95812969Y-55172763D01*
X96241541Y-54791810D02*
X97003446Y-54791810D01*
X97432017Y-54268001D02*
X97479636Y-54220382D01*
X97479636Y-54220382D02*
X97574874Y-54172763D01*
X97574874Y-54172763D02*
X97812969Y-54172763D01*
X97812969Y-54172763D02*
X97908207Y-54220382D01*
X97908207Y-54220382D02*
X97955826Y-54268001D01*
X97955826Y-54268001D02*
X98003445Y-54363239D01*
X98003445Y-54363239D02*
X98003445Y-54458477D01*
X98003445Y-54458477D02*
X97955826Y-54601334D01*
X97955826Y-54601334D02*
X97384398Y-55172763D01*
X97384398Y-55172763D02*
X98003445Y-55172763D01*
X98955826Y-55172763D02*
X98384398Y-55172763D01*
X98670112Y-55172763D02*
X98670112Y-54172763D01*
X98670112Y-54172763D02*
X98574874Y-54315620D01*
X98574874Y-54315620D02*
X98479636Y-54410858D01*
X98479636Y-54410858D02*
X98384398Y-54458477D01*
X48693922Y-53672763D02*
X49027255Y-54672763D01*
X49027255Y-54672763D02*
X49360588Y-53672763D01*
X41582561Y-71163532D02*
X41630180Y-71068294D01*
X41630180Y-71068294D02*
X41630180Y-70925437D01*
X41630180Y-70925437D02*
X41582561Y-70782580D01*
X41582561Y-70782580D02*
X41487323Y-70687342D01*
X41487323Y-70687342D02*
X41392085Y-70639723D01*
X41392085Y-70639723D02*
X41201609Y-70592104D01*
X41201609Y-70592104D02*
X41058752Y-70592104D01*
X41058752Y-70592104D02*
X40868276Y-70639723D01*
X40868276Y-70639723D02*
X40773038Y-70687342D01*
X40773038Y-70687342D02*
X40677800Y-70782580D01*
X40677800Y-70782580D02*
X40630180Y-70925437D01*
X40630180Y-70925437D02*
X40630180Y-71020675D01*
X40630180Y-71020675D02*
X40677800Y-71163532D01*
X40677800Y-71163532D02*
X40725419Y-71211151D01*
X40725419Y-71211151D02*
X41058752Y-71211151D01*
X41058752Y-71211151D02*
X41058752Y-71020675D01*
X41630180Y-88996866D02*
X40630180Y-89330199D01*
X40630180Y-89330199D02*
X41630180Y-89663532D01*
X40789160Y-76625144D02*
X40932017Y-76672763D01*
X40932017Y-76672763D02*
X41170112Y-76672763D01*
X41170112Y-76672763D02*
X41265350Y-76625144D01*
X41265350Y-76625144D02*
X41312969Y-76577524D01*
X41312969Y-76577524D02*
X41360588Y-76482286D01*
X41360588Y-76482286D02*
X41360588Y-76387048D01*
X41360588Y-76387048D02*
X41312969Y-76291810D01*
X41312969Y-76291810D02*
X41265350Y-76244191D01*
X41265350Y-76244191D02*
X41170112Y-76196572D01*
X41170112Y-76196572D02*
X40979636Y-76148953D01*
X40979636Y-76148953D02*
X40884398Y-76101334D01*
X40884398Y-76101334D02*
X40836779Y-76053715D01*
X40836779Y-76053715D02*
X40789160Y-75958477D01*
X40789160Y-75958477D02*
X40789160Y-75863239D01*
X40789160Y-75863239D02*
X40836779Y-75768001D01*
X40836779Y-75768001D02*
X40884398Y-75720382D01*
X40884398Y-75720382D02*
X40979636Y-75672763D01*
X40979636Y-75672763D02*
X41217731Y-75672763D01*
X41217731Y-75672763D02*
X41360588Y-75720382D01*
X41789160Y-76672763D02*
X41789160Y-75672763D01*
X41789160Y-75672763D02*
X42027255Y-75672763D01*
X42027255Y-75672763D02*
X42170112Y-75720382D01*
X42170112Y-75720382D02*
X42265350Y-75815620D01*
X42265350Y-75815620D02*
X42312969Y-75910858D01*
X42312969Y-75910858D02*
X42360588Y-76101334D01*
X42360588Y-76101334D02*
X42360588Y-76244191D01*
X42360588Y-76244191D02*
X42312969Y-76434667D01*
X42312969Y-76434667D02*
X42265350Y-76529905D01*
X42265350Y-76529905D02*
X42170112Y-76625144D01*
X42170112Y-76625144D02*
X42027255Y-76672763D01*
X42027255Y-76672763D02*
X41789160Y-76672763D01*
X42741541Y-76387048D02*
X43217731Y-76387048D01*
X42646303Y-76672763D02*
X42979636Y-75672763D01*
X42979636Y-75672763D02*
X43312969Y-76672763D01*
X56860588Y-99672763D02*
X56289160Y-99672763D01*
X56574874Y-99672763D02*
X56574874Y-98672763D01*
X56574874Y-98672763D02*
X56479636Y-98815620D01*
X56479636Y-98815620D02*
X56384398Y-98910858D01*
X56384398Y-98910858D02*
X56289160Y-98958477D01*
X57241541Y-98768001D02*
X57289160Y-98720382D01*
X57289160Y-98720382D02*
X57384398Y-98672763D01*
X57384398Y-98672763D02*
X57622493Y-98672763D01*
X57622493Y-98672763D02*
X57717731Y-98720382D01*
X57717731Y-98720382D02*
X57765350Y-98768001D01*
X57765350Y-98768001D02*
X57812969Y-98863239D01*
X57812969Y-98863239D02*
X57812969Y-98958477D01*
X57812969Y-98958477D02*
X57765350Y-99101334D01*
X57765350Y-99101334D02*
X57193922Y-99672763D01*
X57193922Y-99672763D02*
X57812969Y-99672763D01*
X41630180Y-68496866D02*
X40630180Y-68830199D01*
X40630180Y-68830199D02*
X41630180Y-69163532D01*
X46822200Y-106013783D02*
X46869819Y-105870926D01*
X46869819Y-105870926D02*
X46869819Y-105632831D01*
X46869819Y-105632831D02*
X46822200Y-105537593D01*
X46822200Y-105537593D02*
X46774580Y-105489974D01*
X46774580Y-105489974D02*
X46679342Y-105442355D01*
X46679342Y-105442355D02*
X46584104Y-105442355D01*
X46584104Y-105442355D02*
X46488866Y-105489974D01*
X46488866Y-105489974D02*
X46441247Y-105537593D01*
X46441247Y-105537593D02*
X46393628Y-105632831D01*
X46393628Y-105632831D02*
X46346009Y-105823307D01*
X46346009Y-105823307D02*
X46298390Y-105918545D01*
X46298390Y-105918545D02*
X46250771Y-105966164D01*
X46250771Y-105966164D02*
X46155533Y-106013783D01*
X46155533Y-106013783D02*
X46060295Y-106013783D01*
X46060295Y-106013783D02*
X45965057Y-105966164D01*
X45965057Y-105966164D02*
X45917438Y-105918545D01*
X45917438Y-105918545D02*
X45869819Y-105823307D01*
X45869819Y-105823307D02*
X45869819Y-105585212D01*
X45869819Y-105585212D02*
X45917438Y-105442355D01*
X46869819Y-105013783D02*
X45869819Y-105013783D01*
X45869819Y-105013783D02*
X45869819Y-104632831D01*
X45869819Y-104632831D02*
X45917438Y-104537593D01*
X45917438Y-104537593D02*
X45965057Y-104489974D01*
X45965057Y-104489974D02*
X46060295Y-104442355D01*
X46060295Y-104442355D02*
X46203152Y-104442355D01*
X46203152Y-104442355D02*
X46298390Y-104489974D01*
X46298390Y-104489974D02*
X46346009Y-104537593D01*
X46346009Y-104537593D02*
X46393628Y-104632831D01*
X46393628Y-104632831D02*
X46393628Y-105013783D01*
X46869819Y-104013783D02*
X45869819Y-104013783D01*
X54360588Y-99672763D02*
X53789160Y-99672763D01*
X54074874Y-99672763D02*
X54074874Y-98672763D01*
X54074874Y-98672763D02*
X53979636Y-98815620D01*
X53979636Y-98815620D02*
X53884398Y-98910858D01*
X53884398Y-98910858D02*
X53789160Y-98958477D01*
X54693922Y-98672763D02*
X55312969Y-98672763D01*
X55312969Y-98672763D02*
X54979636Y-99053715D01*
X54979636Y-99053715D02*
X55122493Y-99053715D01*
X55122493Y-99053715D02*
X55217731Y-99101334D01*
X55217731Y-99101334D02*
X55265350Y-99148953D01*
X55265350Y-99148953D02*
X55312969Y-99244191D01*
X55312969Y-99244191D02*
X55312969Y-99482286D01*
X55312969Y-99482286D02*
X55265350Y-99577524D01*
X55265350Y-99577524D02*
X55217731Y-99625144D01*
X55217731Y-99625144D02*
X55122493Y-99672763D01*
X55122493Y-99672763D02*
X54836779Y-99672763D01*
X54836779Y-99672763D02*
X54741541Y-99625144D01*
X54741541Y-99625144D02*
X54693922Y-99577524D01*
X34086779Y-66922763D02*
X34086779Y-65922763D01*
X34515350Y-66018001D02*
X34562969Y-65970382D01*
X34562969Y-65970382D02*
X34658207Y-65922763D01*
X34658207Y-65922763D02*
X34896302Y-65922763D01*
X34896302Y-65922763D02*
X34991540Y-65970382D01*
X34991540Y-65970382D02*
X35039159Y-66018001D01*
X35039159Y-66018001D02*
X35086778Y-66113239D01*
X35086778Y-66113239D02*
X35086778Y-66208477D01*
X35086778Y-66208477D02*
X35039159Y-66351334D01*
X35039159Y-66351334D02*
X34467731Y-66922763D01*
X34467731Y-66922763D02*
X35086778Y-66922763D01*
X36086778Y-66827524D02*
X36039159Y-66875144D01*
X36039159Y-66875144D02*
X35896302Y-66922763D01*
X35896302Y-66922763D02*
X35801064Y-66922763D01*
X35801064Y-66922763D02*
X35658207Y-66875144D01*
X35658207Y-66875144D02*
X35562969Y-66779905D01*
X35562969Y-66779905D02*
X35515350Y-66684667D01*
X35515350Y-66684667D02*
X35467731Y-66494191D01*
X35467731Y-66494191D02*
X35467731Y-66351334D01*
X35467731Y-66351334D02*
X35515350Y-66160858D01*
X35515350Y-66160858D02*
X35562969Y-66065620D01*
X35562969Y-66065620D02*
X35658207Y-65970382D01*
X35658207Y-65970382D02*
X35801064Y-65922763D01*
X35801064Y-65922763D02*
X35896302Y-65922763D01*
X35896302Y-65922763D02*
X36039159Y-65970382D01*
X36039159Y-65970382D02*
X36086778Y-66018001D01*
X37039159Y-66922763D02*
X36467731Y-66922763D01*
X36753445Y-66922763D02*
X36753445Y-65922763D01*
X36753445Y-65922763D02*
X36658207Y-66065620D01*
X36658207Y-66065620D02*
X36562969Y-66160858D01*
X36562969Y-66160858D02*
X36467731Y-66208477D01*
X47119819Y-70466164D02*
X46119819Y-70466164D01*
X46215057Y-70037593D02*
X46167438Y-69989974D01*
X46167438Y-69989974D02*
X46119819Y-69894736D01*
X46119819Y-69894736D02*
X46119819Y-69656641D01*
X46119819Y-69656641D02*
X46167438Y-69561403D01*
X46167438Y-69561403D02*
X46215057Y-69513784D01*
X46215057Y-69513784D02*
X46310295Y-69466165D01*
X46310295Y-69466165D02*
X46405533Y-69466165D01*
X46405533Y-69466165D02*
X46548390Y-69513784D01*
X46548390Y-69513784D02*
X47119819Y-70085212D01*
X47119819Y-70085212D02*
X47119819Y-69466165D01*
X47024580Y-68466165D02*
X47072200Y-68513784D01*
X47072200Y-68513784D02*
X47119819Y-68656641D01*
X47119819Y-68656641D02*
X47119819Y-68751879D01*
X47119819Y-68751879D02*
X47072200Y-68894736D01*
X47072200Y-68894736D02*
X46976961Y-68989974D01*
X46976961Y-68989974D02*
X46881723Y-69037593D01*
X46881723Y-69037593D02*
X46691247Y-69085212D01*
X46691247Y-69085212D02*
X46548390Y-69085212D01*
X46548390Y-69085212D02*
X46357914Y-69037593D01*
X46357914Y-69037593D02*
X46262676Y-68989974D01*
X46262676Y-68989974D02*
X46167438Y-68894736D01*
X46167438Y-68894736D02*
X46119819Y-68751879D01*
X46119819Y-68751879D02*
X46119819Y-68656641D01*
X46119819Y-68656641D02*
X46167438Y-68513784D01*
X46167438Y-68513784D02*
X46215057Y-68466165D01*
X46119819Y-67847117D02*
X46119819Y-67751879D01*
X46119819Y-67751879D02*
X46167438Y-67656641D01*
X46167438Y-67656641D02*
X46215057Y-67609022D01*
X46215057Y-67609022D02*
X46310295Y-67561403D01*
X46310295Y-67561403D02*
X46500771Y-67513784D01*
X46500771Y-67513784D02*
X46738866Y-67513784D01*
X46738866Y-67513784D02*
X46929342Y-67561403D01*
X46929342Y-67561403D02*
X47024580Y-67609022D01*
X47024580Y-67609022D02*
X47072200Y-67656641D01*
X47072200Y-67656641D02*
X47119819Y-67751879D01*
X47119819Y-67751879D02*
X47119819Y-67847117D01*
X47119819Y-67847117D02*
X47072200Y-67942355D01*
X47072200Y-67942355D02*
X47024580Y-67989974D01*
X47024580Y-67989974D02*
X46929342Y-68037593D01*
X46929342Y-68037593D02*
X46738866Y-68085212D01*
X46738866Y-68085212D02*
X46500771Y-68085212D01*
X46500771Y-68085212D02*
X46310295Y-68037593D01*
X46310295Y-68037593D02*
X46215057Y-67989974D01*
X46215057Y-67989974D02*
X46167438Y-67942355D01*
X46167438Y-67942355D02*
X46119819Y-67847117D01*
X107860588Y-101220382D02*
X107765350Y-101172763D01*
X107765350Y-101172763D02*
X107622493Y-101172763D01*
X107622493Y-101172763D02*
X107479636Y-101220382D01*
X107479636Y-101220382D02*
X107384398Y-101315620D01*
X107384398Y-101315620D02*
X107336779Y-101410858D01*
X107336779Y-101410858D02*
X107289160Y-101601334D01*
X107289160Y-101601334D02*
X107289160Y-101744191D01*
X107289160Y-101744191D02*
X107336779Y-101934667D01*
X107336779Y-101934667D02*
X107384398Y-102029905D01*
X107384398Y-102029905D02*
X107479636Y-102125144D01*
X107479636Y-102125144D02*
X107622493Y-102172763D01*
X107622493Y-102172763D02*
X107717731Y-102172763D01*
X107717731Y-102172763D02*
X107860588Y-102125144D01*
X107860588Y-102125144D02*
X107908207Y-102077524D01*
X107908207Y-102077524D02*
X107908207Y-101744191D01*
X107908207Y-101744191D02*
X107717731Y-101744191D01*
X108336779Y-102172763D02*
X108336779Y-101172763D01*
X108336779Y-101172763D02*
X108908207Y-102172763D01*
X108908207Y-102172763D02*
X108908207Y-101172763D01*
X109384398Y-102172763D02*
X109384398Y-101172763D01*
X109384398Y-101172763D02*
X109622493Y-101172763D01*
X109622493Y-101172763D02*
X109765350Y-101220382D01*
X109765350Y-101220382D02*
X109860588Y-101315620D01*
X109860588Y-101315620D02*
X109908207Y-101410858D01*
X109908207Y-101410858D02*
X109955826Y-101601334D01*
X109955826Y-101601334D02*
X109955826Y-101744191D01*
X109955826Y-101744191D02*
X109908207Y-101934667D01*
X109908207Y-101934667D02*
X109860588Y-102029905D01*
X109860588Y-102029905D02*
X109765350Y-102125144D01*
X109765350Y-102125144D02*
X109622493Y-102172763D01*
X109622493Y-102172763D02*
X109384398Y-102172763D01*
X41582561Y-84163532D02*
X41630180Y-84068294D01*
X41630180Y-84068294D02*
X41630180Y-83925437D01*
X41630180Y-83925437D02*
X41582561Y-83782580D01*
X41582561Y-83782580D02*
X41487323Y-83687342D01*
X41487323Y-83687342D02*
X41392085Y-83639723D01*
X41392085Y-83639723D02*
X41201609Y-83592104D01*
X41201609Y-83592104D02*
X41058752Y-83592104D01*
X41058752Y-83592104D02*
X40868276Y-83639723D01*
X40868276Y-83639723D02*
X40773038Y-83687342D01*
X40773038Y-83687342D02*
X40677800Y-83782580D01*
X40677800Y-83782580D02*
X40630180Y-83925437D01*
X40630180Y-83925437D02*
X40630180Y-84020675D01*
X40630180Y-84020675D02*
X40677800Y-84163532D01*
X40677800Y-84163532D02*
X40725419Y-84211151D01*
X40725419Y-84211151D02*
X41058752Y-84211151D01*
X41058752Y-84211151D02*
X41058752Y-84020675D01*
X40630180Y-91139723D02*
X41630180Y-91139723D01*
X41630180Y-91139723D02*
X40630180Y-91711151D01*
X40630180Y-91711151D02*
X41630180Y-91711151D01*
X40725419Y-92758770D02*
X40677800Y-92711151D01*
X40677800Y-92711151D02*
X40630180Y-92568294D01*
X40630180Y-92568294D02*
X40630180Y-92473056D01*
X40630180Y-92473056D02*
X40677800Y-92330199D01*
X40677800Y-92330199D02*
X40773038Y-92234961D01*
X40773038Y-92234961D02*
X40868276Y-92187342D01*
X40868276Y-92187342D02*
X41058752Y-92139723D01*
X41058752Y-92139723D02*
X41201609Y-92139723D01*
X41201609Y-92139723D02*
X41392085Y-92187342D01*
X41392085Y-92187342D02*
X41487323Y-92234961D01*
X41487323Y-92234961D02*
X41582561Y-92330199D01*
X41582561Y-92330199D02*
X41630180Y-92473056D01*
X41630180Y-92473056D02*
X41630180Y-92568294D01*
X41630180Y-92568294D02*
X41582561Y-92711151D01*
X41582561Y-92711151D02*
X41534942Y-92758770D01*
X51860588Y-62720382D02*
X51765350Y-62672763D01*
X51765350Y-62672763D02*
X51622493Y-62672763D01*
X51622493Y-62672763D02*
X51479636Y-62720382D01*
X51479636Y-62720382D02*
X51384398Y-62815620D01*
X51384398Y-62815620D02*
X51336779Y-62910858D01*
X51336779Y-62910858D02*
X51289160Y-63101334D01*
X51289160Y-63101334D02*
X51289160Y-63244191D01*
X51289160Y-63244191D02*
X51336779Y-63434667D01*
X51336779Y-63434667D02*
X51384398Y-63529905D01*
X51384398Y-63529905D02*
X51479636Y-63625144D01*
X51479636Y-63625144D02*
X51622493Y-63672763D01*
X51622493Y-63672763D02*
X51717731Y-63672763D01*
X51717731Y-63672763D02*
X51860588Y-63625144D01*
X51860588Y-63625144D02*
X51908207Y-63577524D01*
X51908207Y-63577524D02*
X51908207Y-63244191D01*
X51908207Y-63244191D02*
X51717731Y-63244191D01*
X80738095Y-105757763D02*
X80738095Y-106567286D01*
X80738095Y-106567286D02*
X80785714Y-106662524D01*
X80785714Y-106662524D02*
X80833333Y-106710144D01*
X80833333Y-106710144D02*
X80928571Y-106757763D01*
X80928571Y-106757763D02*
X81119047Y-106757763D01*
X81119047Y-106757763D02*
X81214285Y-106710144D01*
X81214285Y-106710144D02*
X81261904Y-106662524D01*
X81261904Y-106662524D02*
X81309523Y-106567286D01*
X81309523Y-106567286D02*
X81309523Y-105757763D01*
X81690476Y-105757763D02*
X82309523Y-105757763D01*
X82309523Y-105757763D02*
X81976190Y-106138715D01*
X81976190Y-106138715D02*
X82119047Y-106138715D01*
X82119047Y-106138715D02*
X82214285Y-106186334D01*
X82214285Y-106186334D02*
X82261904Y-106233953D01*
X82261904Y-106233953D02*
X82309523Y-106329191D01*
X82309523Y-106329191D02*
X82309523Y-106567286D01*
X82309523Y-106567286D02*
X82261904Y-106662524D01*
X82261904Y-106662524D02*
X82214285Y-106710144D01*
X82214285Y-106710144D02*
X82119047Y-106757763D01*
X82119047Y-106757763D02*
X81833333Y-106757763D01*
X81833333Y-106757763D02*
X81738095Y-106710144D01*
X81738095Y-106710144D02*
X81690476Y-106662524D01*
D12*
X104042580Y-79541039D02*
X103233057Y-79541039D01*
X103233057Y-79541039D02*
X103137819Y-79588658D01*
X103137819Y-79588658D02*
X103090200Y-79636277D01*
X103090200Y-79636277D02*
X103042580Y-79731515D01*
X103042580Y-79731515D02*
X103042580Y-79921991D01*
X103042580Y-79921991D02*
X103090200Y-80017229D01*
X103090200Y-80017229D02*
X103137819Y-80064848D01*
X103137819Y-80064848D02*
X103233057Y-80112467D01*
X103233057Y-80112467D02*
X104042580Y-80112467D01*
X104042580Y-81064848D02*
X104042580Y-80588658D01*
X104042580Y-80588658D02*
X103566390Y-80541039D01*
X103566390Y-80541039D02*
X103614009Y-80588658D01*
X103614009Y-80588658D02*
X103661628Y-80683896D01*
X103661628Y-80683896D02*
X103661628Y-80921991D01*
X103661628Y-80921991D02*
X103614009Y-81017229D01*
X103614009Y-81017229D02*
X103566390Y-81064848D01*
X103566390Y-81064848D02*
X103471152Y-81112467D01*
X103471152Y-81112467D02*
X103233057Y-81112467D01*
X103233057Y-81112467D02*
X103137819Y-81064848D01*
X103137819Y-81064848D02*
X103090200Y-81017229D01*
X103090200Y-81017229D02*
X103042580Y-80921991D01*
X103042580Y-80921991D02*
X103042580Y-80683896D01*
X103042580Y-80683896D02*
X103090200Y-80588658D01*
X103090200Y-80588658D02*
X103137819Y-80541039D01*
D10*
X37285714Y-56107763D02*
X37285714Y-55107763D01*
X37285714Y-55107763D02*
X37523809Y-55107763D01*
X37523809Y-55107763D02*
X37666666Y-55155382D01*
X37666666Y-55155382D02*
X37761904Y-55250620D01*
X37761904Y-55250620D02*
X37809523Y-55345858D01*
X37809523Y-55345858D02*
X37857142Y-55536334D01*
X37857142Y-55536334D02*
X37857142Y-55679191D01*
X37857142Y-55679191D02*
X37809523Y-55869667D01*
X37809523Y-55869667D02*
X37761904Y-55964905D01*
X37761904Y-55964905D02*
X37666666Y-56060144D01*
X37666666Y-56060144D02*
X37523809Y-56107763D01*
X37523809Y-56107763D02*
X37285714Y-56107763D01*
X38809523Y-56107763D02*
X38238095Y-56107763D01*
X38523809Y-56107763D02*
X38523809Y-55107763D01*
X38523809Y-55107763D02*
X38428571Y-55250620D01*
X38428571Y-55250620D02*
X38333333Y-55345858D01*
X38333333Y-55345858D02*
X38238095Y-55393477D01*
X39428571Y-55107763D02*
X39523809Y-55107763D01*
X39523809Y-55107763D02*
X39619047Y-55155382D01*
X39619047Y-55155382D02*
X39666666Y-55203001D01*
X39666666Y-55203001D02*
X39714285Y-55298239D01*
X39714285Y-55298239D02*
X39761904Y-55488715D01*
X39761904Y-55488715D02*
X39761904Y-55726810D01*
X39761904Y-55726810D02*
X39714285Y-55917286D01*
X39714285Y-55917286D02*
X39666666Y-56012524D01*
X39666666Y-56012524D02*
X39619047Y-56060144D01*
X39619047Y-56060144D02*
X39523809Y-56107763D01*
X39523809Y-56107763D02*
X39428571Y-56107763D01*
X39428571Y-56107763D02*
X39333333Y-56060144D01*
X39333333Y-56060144D02*
X39285714Y-56012524D01*
X39285714Y-56012524D02*
X39238095Y-55917286D01*
X39238095Y-55917286D02*
X39190476Y-55726810D01*
X39190476Y-55726810D02*
X39190476Y-55488715D01*
X39190476Y-55488715D02*
X39238095Y-55298239D01*
X39238095Y-55298239D02*
X39285714Y-55203001D01*
X39285714Y-55203001D02*
X39333333Y-55155382D01*
X39333333Y-55155382D02*
X39428571Y-55107763D01*
D13*
%TO.C,J5*%
X58460000Y-60302944D02*
X58460000Y-56302944D01*
X58170000Y-61332944D02*
X58170000Y-55312944D01*
X58170000Y-55312944D02*
X47790000Y-55312944D01*
X57590000Y-61332944D02*
X57590000Y-60732944D01*
X57590000Y-60732944D02*
X55990000Y-60732944D01*
X56790000Y-56312944D02*
X56540000Y-56842944D01*
X56790000Y-56312944D02*
X49170000Y-56312944D01*
X56790000Y-55312944D02*
X56790000Y-56312944D01*
X56540000Y-56842944D02*
X49420000Y-56842944D01*
X56540000Y-55312944D02*
X56540000Y-56312944D01*
X55990000Y-60732944D02*
X55990000Y-61332944D01*
X55050000Y-61332944D02*
X55050000Y-60732944D01*
X55050000Y-60732944D02*
X53450000Y-60732944D01*
X53450000Y-60732944D02*
X53450000Y-61332944D01*
X52510000Y-61332944D02*
X52510000Y-60732944D01*
X52510000Y-60732944D02*
X50910000Y-60732944D01*
X50910000Y-60732944D02*
X50910000Y-61332944D01*
X49970000Y-61332944D02*
X49970000Y-60732944D01*
X49970000Y-60732944D02*
X48370000Y-60732944D01*
X49420000Y-56842944D02*
X49170000Y-56312944D01*
X49420000Y-55312944D02*
X49420000Y-56312944D01*
X49170000Y-56312944D02*
X49170000Y-55312944D01*
X48370000Y-60732944D02*
X48370000Y-61332944D01*
X47790000Y-61332944D02*
X58170000Y-61332944D01*
X47790000Y-55312944D02*
X47790000Y-61332944D01*
%TO.C,J16*%
X99270000Y-67132944D02*
X104410000Y-67132944D01*
X99270000Y-67132944D02*
X99270000Y-64472944D01*
X104410000Y-67132944D02*
X104410000Y-64472944D01*
X96670000Y-65802944D02*
X96670000Y-64472944D01*
X96670000Y-64472944D02*
X98000000Y-64472944D01*
X99270000Y-64472944D02*
X104410000Y-64472944D01*
%TO.C,J7*%
X35020000Y-93492944D02*
X39020000Y-93492944D01*
X33990000Y-93202944D02*
X40010000Y-93202944D01*
X40010000Y-93202944D02*
X40010000Y-82822944D01*
X33990000Y-92622944D02*
X34590000Y-92622944D01*
X34590000Y-92622944D02*
X34590000Y-91022944D01*
X39010000Y-91822944D02*
X38480000Y-91572944D01*
X39010000Y-91822944D02*
X39010000Y-84202944D01*
X40010000Y-91822944D02*
X39010000Y-91822944D01*
X38480000Y-91572944D02*
X38480000Y-84452944D01*
X40010000Y-91572944D02*
X39010000Y-91572944D01*
X34590000Y-91022944D02*
X33990000Y-91022944D01*
X33990000Y-90082944D02*
X34590000Y-90082944D01*
X34590000Y-90082944D02*
X34590000Y-88482944D01*
X34590000Y-88482944D02*
X33990000Y-88482944D01*
X33990000Y-87542944D02*
X34590000Y-87542944D01*
X34590000Y-87542944D02*
X34590000Y-85942944D01*
X34590000Y-85942944D02*
X33990000Y-85942944D01*
X33990000Y-85002944D02*
X34590000Y-85002944D01*
X34590000Y-85002944D02*
X34590000Y-83402944D01*
X38480000Y-84452944D02*
X39010000Y-84202944D01*
X40010000Y-84452944D02*
X39010000Y-84452944D01*
X39010000Y-84202944D02*
X40010000Y-84202944D01*
X34590000Y-83402944D02*
X33990000Y-83402944D01*
X33990000Y-82822944D02*
X33990000Y-93202944D01*
X40010000Y-82822944D02*
X33990000Y-82822944D01*
%TO.C,J11*%
X58460000Y-105302944D02*
X58460000Y-101302944D01*
X58170000Y-106332944D02*
X58170000Y-100312944D01*
X58170000Y-100312944D02*
X47790000Y-100312944D01*
X57590000Y-106332944D02*
X57590000Y-105732944D01*
X57590000Y-105732944D02*
X55990000Y-105732944D01*
X56790000Y-101312944D02*
X56540000Y-101842944D01*
X56790000Y-101312944D02*
X49170000Y-101312944D01*
X56790000Y-100312944D02*
X56790000Y-101312944D01*
X56540000Y-101842944D02*
X49420000Y-101842944D01*
X56540000Y-100312944D02*
X56540000Y-101312944D01*
X55990000Y-105732944D02*
X55990000Y-106332944D01*
X55050000Y-106332944D02*
X55050000Y-105732944D01*
X55050000Y-105732944D02*
X53450000Y-105732944D01*
X53450000Y-105732944D02*
X53450000Y-106332944D01*
X52510000Y-106332944D02*
X52510000Y-105732944D01*
X52510000Y-105732944D02*
X50910000Y-105732944D01*
X50910000Y-105732944D02*
X50910000Y-106332944D01*
X49970000Y-106332944D02*
X49970000Y-105732944D01*
X49970000Y-105732944D02*
X48370000Y-105732944D01*
X49420000Y-101842944D02*
X49170000Y-101312944D01*
X49420000Y-100312944D02*
X49420000Y-101312944D01*
X49170000Y-101312944D02*
X49170000Y-100312944D01*
X48370000Y-105732944D02*
X48370000Y-106332944D01*
X47790000Y-106332944D02*
X58170000Y-106332944D01*
X47790000Y-100312944D02*
X47790000Y-106332944D01*
%TO.C,J10*%
X58460000Y-96302944D02*
X58460000Y-92302944D01*
X58170000Y-97332944D02*
X58170000Y-91312944D01*
X58170000Y-91312944D02*
X47790000Y-91312944D01*
X57590000Y-97332944D02*
X57590000Y-96732944D01*
X57590000Y-96732944D02*
X55990000Y-96732944D01*
X56790000Y-92312944D02*
X56540000Y-92842944D01*
X56790000Y-92312944D02*
X49170000Y-92312944D01*
X56790000Y-91312944D02*
X56790000Y-92312944D01*
X56540000Y-92842944D02*
X49420000Y-92842944D01*
X56540000Y-91312944D02*
X56540000Y-92312944D01*
X55990000Y-96732944D02*
X55990000Y-97332944D01*
X55050000Y-97332944D02*
X55050000Y-96732944D01*
X55050000Y-96732944D02*
X53450000Y-96732944D01*
X53450000Y-96732944D02*
X53450000Y-97332944D01*
X52510000Y-97332944D02*
X52510000Y-96732944D01*
X52510000Y-96732944D02*
X50910000Y-96732944D01*
X50910000Y-96732944D02*
X50910000Y-97332944D01*
X49970000Y-97332944D02*
X49970000Y-96732944D01*
X49970000Y-96732944D02*
X48370000Y-96732944D01*
X49420000Y-92842944D02*
X49170000Y-92312944D01*
X49420000Y-91312944D02*
X49420000Y-92312944D01*
X49170000Y-92312944D02*
X49170000Y-91312944D01*
X48370000Y-96732944D02*
X48370000Y-97332944D01*
X47790000Y-97332944D02*
X58170000Y-97332944D01*
X47790000Y-91312944D02*
X47790000Y-97332944D01*
%TO.C,J6*%
X58460000Y-69302944D02*
X58460000Y-65302944D01*
X58170000Y-70332944D02*
X58170000Y-64312944D01*
X58170000Y-64312944D02*
X47790000Y-64312944D01*
X57590000Y-70332944D02*
X57590000Y-69732944D01*
X57590000Y-69732944D02*
X55990000Y-69732944D01*
X56790000Y-65312944D02*
X56540000Y-65842944D01*
X56790000Y-65312944D02*
X49170000Y-65312944D01*
X56790000Y-64312944D02*
X56790000Y-65312944D01*
X56540000Y-65842944D02*
X49420000Y-65842944D01*
X56540000Y-64312944D02*
X56540000Y-65312944D01*
X55990000Y-69732944D02*
X55990000Y-70332944D01*
X55050000Y-70332944D02*
X55050000Y-69732944D01*
X55050000Y-69732944D02*
X53450000Y-69732944D01*
X53450000Y-69732944D02*
X53450000Y-70332944D01*
X52510000Y-70332944D02*
X52510000Y-69732944D01*
X52510000Y-69732944D02*
X50910000Y-69732944D01*
X50910000Y-69732944D02*
X50910000Y-70332944D01*
X49970000Y-70332944D02*
X49970000Y-69732944D01*
X49970000Y-69732944D02*
X48370000Y-69732944D01*
X49420000Y-65842944D02*
X49170000Y-65312944D01*
X49420000Y-64312944D02*
X49420000Y-65312944D01*
X49170000Y-65312944D02*
X49170000Y-64312944D01*
X48370000Y-69732944D02*
X48370000Y-70332944D01*
X47790000Y-70332944D02*
X58170000Y-70332944D01*
X47790000Y-64312944D02*
X47790000Y-70332944D01*
%TO.C,J9*%
X58460000Y-87302944D02*
X58460000Y-83302944D01*
X58170000Y-88332944D02*
X58170000Y-82312944D01*
X58170000Y-82312944D02*
X47790000Y-82312944D01*
X57590000Y-88332944D02*
X57590000Y-87732944D01*
X57590000Y-87732944D02*
X55990000Y-87732944D01*
X56790000Y-83312944D02*
X56540000Y-83842944D01*
X56790000Y-83312944D02*
X49170000Y-83312944D01*
X56790000Y-82312944D02*
X56790000Y-83312944D01*
X56540000Y-83842944D02*
X49420000Y-83842944D01*
X56540000Y-82312944D02*
X56540000Y-83312944D01*
X55990000Y-87732944D02*
X55990000Y-88332944D01*
X55050000Y-88332944D02*
X55050000Y-87732944D01*
X55050000Y-87732944D02*
X53450000Y-87732944D01*
X53450000Y-87732944D02*
X53450000Y-88332944D01*
X52510000Y-88332944D02*
X52510000Y-87732944D01*
X52510000Y-87732944D02*
X50910000Y-87732944D01*
X50910000Y-87732944D02*
X50910000Y-88332944D01*
X49970000Y-88332944D02*
X49970000Y-87732944D01*
X49970000Y-87732944D02*
X48370000Y-87732944D01*
X49420000Y-83842944D02*
X49170000Y-83312944D01*
X49420000Y-82312944D02*
X49420000Y-83312944D01*
X49170000Y-83312944D02*
X49170000Y-82312944D01*
X48370000Y-87732944D02*
X48370000Y-88332944D01*
X47790000Y-88332944D02*
X58170000Y-88332944D01*
X47790000Y-82312944D02*
X47790000Y-88332944D01*
%TO.C,J17*%
X35020000Y-78172944D02*
X39020000Y-78172944D01*
X33990000Y-77882944D02*
X40010000Y-77882944D01*
X40010000Y-77882944D02*
X40010000Y-67502944D01*
X33990000Y-77302944D02*
X34590000Y-77302944D01*
X34590000Y-77302944D02*
X34590000Y-75702944D01*
X39010000Y-76502944D02*
X38480000Y-76252944D01*
X39010000Y-76502944D02*
X39010000Y-68882944D01*
X40010000Y-76502944D02*
X39010000Y-76502944D01*
X38480000Y-76252944D02*
X38480000Y-69132944D01*
X40010000Y-76252944D02*
X39010000Y-76252944D01*
X34590000Y-75702944D02*
X33990000Y-75702944D01*
X33990000Y-74762944D02*
X34590000Y-74762944D01*
X34590000Y-74762944D02*
X34590000Y-73162944D01*
X34590000Y-73162944D02*
X33990000Y-73162944D01*
X33990000Y-72222944D02*
X34590000Y-72222944D01*
X34590000Y-72222944D02*
X34590000Y-70622944D01*
X34590000Y-70622944D02*
X33990000Y-70622944D01*
X33990000Y-69682944D02*
X34590000Y-69682944D01*
X34590000Y-69682944D02*
X34590000Y-68082944D01*
X38480000Y-69132944D02*
X39010000Y-68882944D01*
X40010000Y-69132944D02*
X39010000Y-69132944D01*
X39010000Y-68882944D02*
X40010000Y-68882944D01*
X34590000Y-68082944D02*
X33990000Y-68082944D01*
X33990000Y-67502944D02*
X33990000Y-77882944D01*
X40010000Y-67502944D02*
X33990000Y-67502944D01*
%TO.C,U3*%
X60950000Y-54202944D02*
X60950000Y-54402944D01*
X60950000Y-54202944D02*
X81950000Y-54202944D01*
X60950000Y-105002944D02*
X60950000Y-105202944D01*
X60950000Y-105202944D02*
X67300000Y-105202944D01*
X81950000Y-54202944D02*
X81950000Y-54402944D01*
X81950000Y-105002944D02*
X81950000Y-105202944D01*
X81950000Y-105202944D02*
X76190000Y-105202944D01*
X63694000Y-55943944D02*
X62678000Y-55435944D01*
X63694000Y-54927944D01*
X63694000Y-55943944D01*
G36*
X63694000Y-55943944D02*
G01*
X62678000Y-55435944D01*
X63694000Y-54927944D01*
X63694000Y-55943944D01*
G37*
D12*
%TO.C,U5*%
X108310000Y-68922944D02*
X108310000Y-69922944D01*
X92310000Y-68922944D02*
X108310000Y-68922944D01*
X92310000Y-68922944D02*
X92310000Y-69922944D01*
X108310000Y-69922944D02*
X102610000Y-69922944D01*
X102610000Y-69922944D02*
X102610000Y-72922944D01*
X99710000Y-69922944D02*
X99710000Y-90922944D01*
X92310000Y-69922944D02*
X99710000Y-69922944D01*
D13*
X99700000Y-70192944D02*
X94459000Y-70192944D01*
X97860000Y-70192944D02*
X97860000Y-90632944D01*
X94459000Y-70192944D02*
X94459000Y-71868944D01*
X94459000Y-71522944D02*
X91050000Y-71522944D01*
D12*
X108310000Y-72922944D02*
X108310000Y-73922944D01*
X102610000Y-72922944D02*
X108310000Y-72922944D01*
D13*
X94459000Y-73717944D02*
X94459000Y-74408944D01*
D12*
X108310000Y-73922944D02*
X100710000Y-73922944D01*
X100710000Y-73922944D02*
X100710000Y-76922944D01*
D13*
X94459000Y-74062944D02*
X91065000Y-74062944D01*
X94459000Y-76257944D02*
X94459000Y-76948944D01*
X94459000Y-76602944D02*
X91065000Y-76602944D01*
D12*
X108310000Y-76922944D02*
X108310000Y-77922944D01*
X100710000Y-76922944D02*
X108310000Y-76922944D01*
X108310000Y-77922944D02*
X102610000Y-77922944D01*
X102610000Y-77922944D02*
X102610000Y-82922944D01*
D13*
X99700000Y-78563944D02*
X97860000Y-78563944D01*
X94459000Y-78797944D02*
X94459000Y-79488944D01*
X94459000Y-79142944D02*
X91065000Y-79142944D01*
X94459000Y-81337944D02*
X94459000Y-82028944D01*
X94459000Y-81682944D02*
X91065000Y-81682944D01*
X99700000Y-82262944D02*
X97860000Y-82262944D01*
D12*
X108310000Y-82922944D02*
X102610000Y-82922944D01*
D13*
X94459000Y-83877944D02*
X94459000Y-84568944D01*
D12*
X108310000Y-83922944D02*
X108310000Y-82922944D01*
X100710000Y-83922944D02*
X108310000Y-83922944D01*
D13*
X94459000Y-84222944D02*
X91065000Y-84222944D01*
X94459000Y-86417944D02*
X94459000Y-87108944D01*
X94459000Y-86762944D02*
X91065000Y-86762944D01*
D12*
X108310000Y-86922944D02*
X100710000Y-86922944D01*
X100710000Y-86922944D02*
X100710000Y-83922944D01*
X108310000Y-87922944D02*
X108310000Y-86922944D01*
X102610000Y-87922944D02*
X108310000Y-87922944D01*
D13*
X94459000Y-88957944D02*
X94459000Y-90632944D01*
X94459000Y-89302944D02*
X91065000Y-89302944D01*
X99700000Y-90632944D02*
X94459000Y-90632944D01*
D12*
X108310000Y-90922944D02*
X102610000Y-90922944D01*
X102610000Y-90922944D02*
X102610000Y-87922944D01*
X99710000Y-90922944D02*
X92310000Y-90922944D01*
X92310000Y-90922944D02*
X92310000Y-91922944D01*
X108310000Y-91922944D02*
X108310000Y-90922944D01*
X92310000Y-91922944D02*
X108310000Y-91922944D01*
D13*
%TO.C,D10*%
X36640000Y-56342944D02*
X36640000Y-58262944D01*
X36640000Y-58262944D02*
X39500000Y-58262944D01*
X39500000Y-56342944D02*
X36640000Y-56342944D01*
%TO.C,J8*%
X58460000Y-78302944D02*
X58460000Y-74302944D01*
X58170000Y-79332944D02*
X58170000Y-73312944D01*
X58170000Y-73312944D02*
X47790000Y-73312944D01*
X57590000Y-79332944D02*
X57590000Y-78732944D01*
X57590000Y-78732944D02*
X55990000Y-78732944D01*
X56790000Y-74312944D02*
X56540000Y-74842944D01*
X56790000Y-74312944D02*
X49170000Y-74312944D01*
X56790000Y-73312944D02*
X56790000Y-74312944D01*
X56540000Y-74842944D02*
X49420000Y-74842944D01*
X56540000Y-73312944D02*
X56540000Y-74312944D01*
X55990000Y-78732944D02*
X55990000Y-79332944D01*
X55050000Y-79332944D02*
X55050000Y-78732944D01*
X55050000Y-78732944D02*
X53450000Y-78732944D01*
X53450000Y-78732944D02*
X53450000Y-79332944D01*
X52510000Y-79332944D02*
X52510000Y-78732944D01*
X52510000Y-78732944D02*
X50910000Y-78732944D01*
X50910000Y-78732944D02*
X50910000Y-79332944D01*
X49970000Y-79332944D02*
X49970000Y-78732944D01*
X49970000Y-78732944D02*
X48370000Y-78732944D01*
X49420000Y-74842944D02*
X49170000Y-74312944D01*
X49420000Y-73312944D02*
X49420000Y-74312944D01*
X49170000Y-74312944D02*
X49170000Y-73312944D01*
X48370000Y-78732944D02*
X48370000Y-79332944D01*
X47790000Y-79332944D02*
X58170000Y-79332944D01*
X47790000Y-73312944D02*
X47790000Y-79332944D01*
%TO.C,JP1*%
X84170000Y-78332944D02*
X84170000Y-80932944D01*
X84170000Y-78332944D02*
X86830000Y-78332944D01*
X84170000Y-80932944D02*
X86830000Y-80932944D01*
X85500000Y-75732944D02*
X86830000Y-75732944D01*
X86830000Y-75732944D02*
X86830000Y-77062944D01*
X86830000Y-78332944D02*
X86830000Y-80932944D01*
%TD*%
M02*
