%TF.GenerationSoftware,KiCad,Pcbnew,8.0.3*%
%TF.CreationDate,2024-06-26T22:05:55-03:00*%
%TF.ProjectId,PECDR,50454344-522e-46b6-9963-61645f706362,rev?*%
%TF.SameCoordinates,Original*%
%TF.FileFunction,Profile,NP*%
%FSLAX46Y46*%
G04 Gerber Fmt 4.6, Leading zero omitted, Abs format (unit mm)*
G04 Created by KiCad (PCBNEW 8.0.3) date 2024-06-26 22:05:55*
%MOMM*%
%LPD*%
G01*
G04 APERTURE LIST*
%TA.AperFunction,Profile*%
%ADD10C,0.100000*%
%TD*%
G04 APERTURE END LIST*
D10*
X118500000Y-77802944D02*
X118500000Y-74302944D01*
X94500000Y-53302944D02*
X99000000Y-53302944D01*
X100000000Y-106302944D02*
X99000000Y-107302944D01*
X103000000Y-54302944D02*
X104000000Y-53302944D01*
X46000000Y-107302944D02*
X89500000Y-107302944D01*
X90500000Y-106302944D02*
X89500000Y-107302944D01*
X117500000Y-87302944D02*
X117500000Y-90302944D01*
X115500000Y-53302944D02*
X104000000Y-53302944D01*
X117500000Y-78802944D02*
X118500000Y-77802944D01*
X103000000Y-106302944D02*
X100000000Y-106302944D01*
X117500000Y-87302944D02*
X118500000Y-86302944D01*
X118500000Y-91302944D02*
X118500000Y-104302944D01*
X117500000Y-81802944D02*
X118500000Y-82802944D01*
X117500000Y-73302944D02*
X118500000Y-74302944D01*
X93500000Y-106302944D02*
X90500000Y-106302944D01*
X33500000Y-104302944D02*
X33500000Y-56302944D01*
X115500000Y-53302944D02*
G75*
G02*
X118499956Y-56302944I0J-2999956D01*
G01*
X117500000Y-70302944D02*
X117500000Y-73302944D01*
X117500000Y-78802944D02*
X117500000Y-81802944D01*
X117500000Y-90302944D02*
X118500000Y-91302944D01*
X90500000Y-54302944D02*
X89500000Y-53302944D01*
X100000000Y-54302944D02*
X103000000Y-54302944D01*
X118500000Y-86302944D02*
X118500000Y-82802944D01*
X93500000Y-54302944D02*
X94500000Y-53302944D01*
X103000000Y-106302944D02*
X104000000Y-107302944D01*
X89500000Y-53302944D02*
X36500000Y-53302944D01*
X93500000Y-106302944D02*
X94500000Y-107302944D01*
X104000000Y-107302944D02*
X115500000Y-107302944D01*
X36500000Y-107302944D02*
X46000000Y-107302944D01*
X118500000Y-69302944D02*
X118500000Y-56302944D01*
X100000000Y-54302944D02*
X99000000Y-53302944D01*
X117500000Y-70302944D02*
X118500000Y-69302944D01*
X90500000Y-54302944D02*
X93500000Y-54302944D01*
X94500000Y-107302944D02*
X99000000Y-107302944D01*
X33500000Y-56302944D02*
G75*
G02*
X36500000Y-53302950I3000070J-76D01*
G01*
X36500000Y-107302944D02*
G75*
G02*
X33499956Y-104302944I0J3000044D01*
G01*
X118500000Y-104302944D02*
G75*
G02*
X115500000Y-107302900I-2999900J-56D01*
G01*
M02*
