M48
; DRILL file {KiCad 6.0.5} date seg 27 jun 2022 11:22:26
; FORMAT={-:-/ absolute / metric / decimal}
; #@! TF.CreationDate,2022-06-27T11:22:26-03:00
; #@! TF.GenerationSoftware,Kicad,Pcbnew,6.0.5
; #@! TF.FileFunction,Plated,1,2,PTH
FMAT,2
METRIC
; #@! TA.AperFunction,Plated,PTH,ViaDrill
T1C0.400
; #@! TA.AperFunction,Plated,PTH,ViaDrill
T2C0.800
; #@! TA.AperFunction,Plated,PTH,ComponentDrill
T3C0.800
; #@! TA.AperFunction,Plated,PTH,ComponentDrill
T4C1.000
; #@! TA.AperFunction,Plated,PTH,ComponentDrill
T5C1.190
; #@! TA.AperFunction,Plated,PTH,ComponentDrill
T6C1.400
; #@! TA.AperFunction,Plated,PTH,ComponentDrill
T7C1.500
; #@! TA.AperFunction,Plated,PTH,ComponentDrill
T8C3.500
%
G90
G05
T1
X67.31Y-152.4
X96.816Y-101.74
X116.825Y-147.32
T2
X45.72Y-84.69
X51.604Y-144.92
X52.057Y-88.5
X52.069Y-83.42
X52.07Y-78.34
X52.07Y-93.58
X55.245Y-99.93
X55.88Y-78.34
X55.88Y-83.4
X55.88Y-88.469
X55.88Y-93.58
X57.0Y-134.7
X57.0Y-147.3
X57.1Y-109.2
X57.15Y-104.14
X57.15Y-106.68
X57.15Y-111.76
X57.15Y-114.3
X57.15Y-116.84
X57.15Y-119.38
X57.192Y-124.473
X57.192Y-127.013
X57.192Y-144.92
X57.2Y-122.0
X60.96Y-78.34
X60.96Y-83.368
X60.96Y-88.438
X60.96Y-93.58
X64.685Y-122.06
X64.77Y-78.34
X64.77Y-83.337
X64.77Y-88.406
X64.77Y-93.58
X69.85Y-78.34
X69.85Y-83.306
X69.85Y-88.375
X76.2Y-78.34
X76.2Y-83.275
X77.47Y-99.93
X77.6Y-109.2
X77.6Y-122.0
X77.6Y-124.4
X77.6Y-127.0
X78.1Y-134.6
X78.105Y-137.16
X78.105Y-139.7
X78.2Y-147.4
X80.01Y-78.34
X80.01Y-94.85
X80.179Y-110.503
X80.179Y-112.027
X92.625Y-132.22
X97.07Y-90.31
X101.6Y-66.04
X101.6Y-71.12
X101.6Y-76.2
X101.6Y-81.28
X101.6Y-86.36
X101.6Y-91.44
X101.6Y-96.52
X101.6Y-101.6
X101.6Y-106.68
X101.6Y-111.76
X101.6Y-116.84
X101.6Y-121.92
X101.6Y-127.0
X101.6Y-132.08
X101.6Y-137.16
X101.6Y-142.24
X101.6Y-147.32
X103.124Y-106.68
X106.68Y-76.2
X106.68Y-101.6
X106.68Y-111.76
X109.22Y-61.195
X109.22Y-138.43
X114.3Y-113.03
X114.3Y-134.62
X117.27Y-87.2
X118.11Y-77.47
X118.745Y-121.92
X120.65Y-97.79
X127.0Y-71.12
X127.0Y-76.2
X127.0Y-81.28
X127.0Y-96.52
X127.0Y-101.6
X127.0Y-111.76
X127.0Y-116.84
X127.0Y-121.92
X127.0Y-127.0
X127.0Y-147.32
X132.08Y-66.04
X132.08Y-71.12
X132.08Y-76.2
X132.08Y-81.28
X132.08Y-96.52
X132.08Y-101.6
X132.08Y-106.68
X132.08Y-111.76
X132.08Y-116.84
X132.08Y-121.92
X132.08Y-127.0
X132.08Y-147.32
X137.16Y-66.04
X137.16Y-71.12
X137.16Y-76.2
X137.16Y-81.28
X137.16Y-86.36
X137.16Y-91.44
X137.16Y-96.52
X137.16Y-101.6
X137.16Y-106.68
X137.16Y-111.76
X137.16Y-116.84
X137.16Y-121.92
X137.16Y-127.0
X137.16Y-132.08
X137.16Y-137.16
X137.16Y-142.24
T3
X114.808Y-90.424
X114.808Y-92.964
X114.808Y-95.504
T4
X41.91Y-66.04
X41.91Y-68.58
X41.91Y-71.12
X47.25Y-66.0
X47.25Y-71.1
X83.82Y-75.8
X83.82Y-78.34
X83.82Y-80.88
X83.82Y-83.42
X83.82Y-85.96
X83.82Y-88.5
X83.82Y-91.04
X83.82Y-93.58
X91.435Y-74.93
X91.435Y-77.47
X91.435Y-80.01
X91.435Y-82.55
X91.435Y-85.09
X91.435Y-87.63
X91.435Y-90.17
X91.435Y-92.71
X91.435Y-95.25
X91.435Y-97.79
X91.435Y-100.33
X91.435Y-102.87
X91.435Y-105.41
X91.435Y-107.95
X91.435Y-110.49
X91.435Y-113.03
X91.435Y-115.57
X91.435Y-118.11
X91.435Y-120.65
X91.435Y-123.19
X93.975Y-74.93
X93.975Y-77.47
X93.975Y-80.01
X93.975Y-82.55
X93.975Y-85.09
X93.975Y-87.63
X93.975Y-90.17
X93.975Y-92.71
X93.975Y-95.25
X93.975Y-97.79
X93.975Y-100.33
X93.975Y-102.87
X93.975Y-105.41
X93.975Y-107.95
X93.975Y-110.49
X93.975Y-113.03
X93.975Y-115.57
X93.975Y-118.11
X93.975Y-120.65
X93.975Y-123.19
X96.52Y-142.24
X99.06Y-142.24
X121.92Y-104.14
X121.92Y-106.68
X121.92Y-109.22
T5
X42.164Y-100.584
X42.164Y-109.22
X42.164Y-117.348
X42.164Y-125.984
X42.164Y-134.62
X42.164Y-143.256
X44.704Y-100.584
X44.704Y-109.22
X44.704Y-117.348
X44.704Y-125.984
X44.704Y-134.62
X44.704Y-143.256
X47.244Y-100.584
X47.244Y-109.22
X47.244Y-117.348
X47.244Y-125.984
X47.244Y-134.62
X47.244Y-143.256
X49.784Y-100.584
X49.784Y-109.22
X49.784Y-117.348
X49.784Y-125.984
X49.784Y-134.62
X49.784Y-143.256
X83.82Y-99.06
X83.82Y-101.6
X83.82Y-104.14
X83.82Y-106.68
X83.82Y-118.11
X83.82Y-120.65
X83.82Y-123.19
X83.82Y-125.73
X83.82Y-137.16
X83.82Y-139.7
X83.82Y-142.24
X83.82Y-144.78
T6
X122.201Y-64.008
X127.201Y-64.008
T7
X52.15Y-63.5
X57.15Y-63.5
X62.15Y-63.5
X69.295Y-63.5
X74.295Y-63.5
X79.295Y-63.5
X86.44Y-63.5
X91.44Y-63.5
X96.44Y-63.5
T8
X45.0Y-60.0
X45.0Y-150.0
X45.72Y-78.34
X45.72Y-91.04
X135.0Y-60.0
X135.0Y-150.0
T0
M30
